<?xml version="1.0" standalone="no"?>
<!DOCTYPE svg PUBLIC "-//W3C//DTD SVG 1.1//EN" "http://www.w3.org/Graphics/SVG/1.1/DTD/svg11.dtd" >
<svg>
<metadata>
Created by FontForge 20090914 at Mon Feb  8 14:43:05 2021
 By www-data
Copyright 2020 The JetBrains Mono Project Authors (https://github.com/JetBrains/JetBrainsMono)
</metadata>
<defs>
<font id="JetBrainsMono-MediumItalic" horiz-adv-x="600" >
  <font-face 
    font-family="JetBrains Mono Medium"
    font-weight="500"
    font-style="italic"
    font-stretch="normal"
    units-per-em="1000"
    panose-1="2 0 0 9 0 0 0 0 0 0"
    ascent="800"
    descent="-200"
    x-height="550"
    cap-height="730"
    bbox="-1747 -300 1170 1020"
    underline-thickness="50"
    underline-position="-130"
    slope="-9"
    unicode-range="U+000D-U+FEFF"
  />
<missing-glyph 
d="M90 0v730h420v-730h-420zM160 50h300v571zM140 109l300 571h-300v-571z" />
    <glyph glyph-name=".notdef" 
d="M90 0v730h420v-730h-420zM160 50h300v571zM140 109l300 571h-300v-571z" />
    <glyph glyph-name="CR" unicode="&#xd;" 
 />
    <glyph glyph-name="space" unicode=" " 
 />
    <glyph glyph-name="exclam" unicode="!" 
d="M252 224l39 377l20 129h122l-21 -129l-81 -377h-79zM240 -5c-18.667 0 -33 5.83105 -43 17.498s-13.667 26.834 -11 45.501s11 33.834 25 45.501s30.333 17.5 49 17.5h30c20 0 34.833 -5.83301 44.5 -17.5s13.167 -26.5 10.5 -44.5c-3.33301 -18.667 -12 -34 -26 -46
s-30.333 -18 -49 -18h-30z" />
    <glyph glyph-name="quotedbl" unicode="&#x22;" 
d="M386 430l17 189l19 111h112l-18 -111l-42 -189h-88zM175 430l17 189l18 111h112l-18 -111l-41 -189h-88z" />
    <glyph glyph-name="numbersign" unicode="#" 
d="M34 0l66 191h-83l12 75h96l66 198h-97l12 75h111l65 191h82l-65 -191h147l65 191h83l-66 -191h83l-12 -75h-96l-66 -198h97l-12 -75h-111l-65 -191h-82l65 191h-147l-65 -191h-83zM207 266h147l67 198h-147z" />
    <glyph glyph-name="dollar" unicode="$" 
d="M206 -140l20.999 131.001c-64 5.33301 -111.333 25.833 -142 61.5s-42 82.5 -34 140.5h108c-4 -28.667 1.16699 -52.167 15.5 -70.5s36.5 -29.833 66.5 -34.5l38 236l-21 6c-51.333 15.333 -88.666 41.5 -111.999 78.5s-31 81.167 -23 132.5
c8.66699 55.333 33 100.666 73 135.999s89.667 55.666 149 60.999l21 132h61l-21 -131c58 -5.33301 101.5 -25.5 130.5 -60.5s39.167 -80.5 30.5 -136.5h-108c4.66699 27.333 1 49.833 -11 67.5s-31 28.834 -57 33.501l-36 -225l35 -11
c50.667 -14.667 87.5 -40.667 110.5 -78s30.167 -82 21.5 -134c-5.33301 -38 -18.833 -71.5 -40.5 -100.5s-49 -52.5 -82 -70.5s-70.167 -29 -111.5 -33l-21 -131h-61zM302.999 87.001c30 4.66699 55 16 75 34s32 41.333 36 70c4.66699 29.333 -0.5 54.333 -15.5 75
s-38.5 33.667 -70.5 39l13 21zM288.999 388.001l40 255c-26.667 -4.66699 -48.334 -15.167 -65.001 -31.5s-27 -37.5 -31 -63.5c-5.33301 -32 0.833984 -58.833 18.501 -80.5s45.167 -34.5 82.5 -38.5z" />
    <glyph glyph-name="percent" unicode="%" 
d="M-39 0l621 730h85l-621 -730h-85zM399 -5c-42.667 0 -75.001 12.167 -97.001 36.5s-30 57.166 -24 98.499l10 65c6.66699 41.333 25 74.166 55 98.499s66.333 36.5 109 36.5c42 0 74.167 -12.167 96.5 -36.5s30.5 -57.166 24.5 -98.499l-10 -65
c-4 -27.333 -13.667 -51.166 -29 -71.499s-34.666 -36 -57.999 -47s-49 -16.5 -77 -16.5zM409.999 68c41.333 0 65.001 20.668 71.001 62.001l10 65c3.33301 21.333 0.666016 37.166 -8.00098 47.499s-23 15.5 -43 15.5c-40.667 0 -64 -21 -70 -63l-10 -65
c-6.66699 -41.333 10 -62 50 -62zM175 400.001c-42 0 -74.168 12 -96.501 36s-30.166 57 -23.499 99l10 65c4.66699 28 14.5 52.167 29.5 72.5s34 35.833 57 46.5s48.5 16 76.5 16c42 0 74.5 -12 97.5 -36s31.167 -57 24.5 -99l-10 -65c-4 -28 -13.833 -52 -29.5 -72
s-35.167 -35.5 -58.5 -46.5s-49 -16.5 -77 -16.5zM186.999 472.001c41.333 0 65 20.998 71 62.998l10 65c6.66699 42 -10 63 -50 63c-20 0 -36 -5.16699 -48 -15.5s-19.667 -26.166 -23 -47.499l-10 -65c-3.33301 -21.333 -0.833008 -37.166 7.5 -47.499
s22.5 -15.5 42.5 -15.5z" />
    <glyph glyph-name="ampersand" unicode="&#x26;" 
d="M185 -10c-57.333 0 -99.499 15.667 -126.499 47s-35.833 74.666 -26.5 129.999l16 109c6 40 21.5 73.167 46.5 99.5s56.833 43.833 95.5 52.5l-11 -9c-16.667 28 -28 54.833 -34 80.5s-7 51.167 -3 76.5c5.33301 32.667 17.666 61.334 36.999 86.001s44 43.834 74 57.501
s63.667 20.5 101 20.5c39.333 0 72.333 -7.33301 99 -22s46 -35 58 -61s15 -57.333 9 -94h-104c3.33301 18 2.33301 33.5 -3 46.5s-14.166 22.833 -26.499 29.5s-27.833 10 -46.5 10c-16.667 0 -31.834 -3.16699 -45.501 -9.5s-25 -15.333 -34 -27
s-14.833 -25.834 -17.5 -42.501c-2.66699 -16 -1.5 -33.667 3.5 -53s12.5 -38.333 22.5 -57l121 -216l81 116h108l-142 -201l89 -159h-112l-43 76c-56.667 -57.333 -118.667 -86 -186 -86zM208.001 82c20.667 0 41.667 6.33203 63 18.999s40.333 30.334 57 53.001l-111 197
c-17.333 -4 -31.5 -12.5 -42.5 -25.5s-18.167 -29.5 -21.5 -49.5l-17 -109c-4.66699 -26.667 -0.5 -47.5 12.5 -62.5s32.833 -22.5 59.5 -22.5z" />
    <glyph glyph-name="quotesingle" unicode="'" 
d="M277 430l10 147l25 153h112l-24 -153l-35 -147h-88z" />
    <glyph glyph-name="parenleft" unicode="(" 
d="M421 -125c-94 24.667 -162.668 71.1641 -206.001 139.497s-57 151.833 -41 250.5l30 190c10.667 64.667 32.5 123.334 65.5 176.001s75.5 97.5 127.5 134.5s111.333 63.5 178 79.5l-17 -104c-42.667 -10 -81.167 -28.167 -115.5 -54.5s-62.666 -59.166 -84.999 -98.499
s-37.5 -83.666 -45.5 -132.999l-30 -190c-7.33301 -48 -6 -91.667 4 -131s28 -71.833 54 -97.5s58.667 -43.5 98 -53.5z" />
    <glyph glyph-name="parenright" unicode=")" 
d="M51 -125l17.002 108.003c43.333 10 82 27.833 116 53.5s62.333 58.167 85 97.5s37.667 83 45 131l30 190c8 49.333 7 93.666 -3 132.999s-28 72.166 -54 98.499s-59 44.5 -99 54.5l17 104c61.333 -16 112.166 -42.5 152.499 -79.5s68.833 -81.833 85.5 -134.5
s19.667 -111.334 9 -176.001l-30 -190c-10.667 -65.333 -32.334 -124.333 -65.001 -177s-74.667 -97.167 -126 -133.5s-111.333 -62.833 -180 -79.5z" />
    <glyph glyph-name="asterisk" unicode="*" 
d="M156 90l-72 58.001l57 68c11.333 13.333 24.833 26.666 40.5 39.999s31.334 25.833 47.001 37.5l40.5 29.5l-2 6c-12.667 0.666992 -27.834 1.83398 -45.501 3.50098s-35.167 4.16699 -52.5 7.5s-33 7.66602 -47 12.999l-73 28l49 95l73 -28
c14 -5.33301 28.333 -12.666 43 -21.999s28.667 -19.166 42 -29.499s24.666 -19.833 33.999 -28.5l5 4c-1.33301 13.333 -3 28.833 -5 46.5s-3.16699 36 -3.5 55s0.833984 36.833 3.50098 53.5l13 83h101l-14 -83c-2.66699 -16.667 -7.33398 -34.5 -14.001 -53.5
s-13.667 -37.333 -21 -55s-14.333 -33.167 -21 -46.5l4 -4l43 28.5c16 10.333 32.833 20.166 50.5 29.499s34.5 16.666 50.5 21.999l82 28l20 -95l-83 -28c-15.333 -5.33301 -32.166 -9.66602 -50.499 -12.999s-36.333 -5.83301 -54 -7.5s-33.5 -2.83398 -47.5 -3.50098
l-4 -7c9.33301 -8 19.833 -17.833 31.5 -29.5s23.167 -24 34.5 -37s20.333 -26.167 27 -39.5l38 -68l-92 -58l-37 69c-6.66699 12.667 -12.834 27.667 -18.501 45s-10.167 34.5 -13.5 51.5s-6 31.833 -8 44.5h-7c-5.33301 -12.667 -12.666 -27.5 -21.999 -44.5
s-19.333 -34.167 -30 -51.5s-22 -32.333 -34 -45z" />
    <glyph glyph-name="plus" unicode="+" 
d="M217 94l30 187h-184l15 98h185l29 187h107l-30 -187h185l-16 -98h-184l-30 -187h-107z" />
    <glyph glyph-name="comma" unicode="," 
d="M87 -160l129 311h148l-179 -311h-98z" />
    <glyph glyph-name="hyphen" unicode="-" 
d="M136 281l16 98h329l-16 -98h-329z" />
    <glyph glyph-name="period" unicode="." 
d="M254 -10c-26.667 0 -46.833 7.83301 -60.5 23.5s-18.167 36.834 -13.5 63.501c4 27.333 15.333 49.166 34 65.499s41.334 24.5 68.001 24.5c27.333 0 47.666 -8.16699 60.999 -24.5s17.666 -38.166 12.999 -65.499c-4 -26.667 -15.167 -47.834 -33.5 -63.501
s-41.166 -23.5 -68.499 -23.5z" />
    <glyph glyph-name="slash" unicode="/" 
d="M7 -110l497 940h115l-497 -940h-115z" />
    <glyph glyph-name="zero" unicode="0" 
d="M254 -10c-46 0 -84.499 9 -115.499 27s-53.167 43.167 -66.5 75.5s-16.666 70.166 -9.99902 113.499l51 318c7.33301 44 22.5 82 45.5 114s53 57 90 75s78.5 27 124.5 27c46.667 0 85.5 -9 116.5 -27s53.167 -43 66.5 -75s16.333 -70 9 -114l-51 -318
c-6.66699 -43.333 -21.834 -81.166 -45.501 -113.499s-53.834 -57.5 -90.501 -75.5s-78 -27 -124 -27zM269.001 83c38 0 69.667 11.333 95 34s41 52.334 47 89.001l51 318c6 36.667 -0.333008 66.334 -19 89.001s-46.667 34 -84 34c-38 0 -69.833 -11.333 -95.5 -34
s-41.5 -52.334 -47.5 -89.001l-51 -318c-6 -36.667 0.666992 -66.334 20 -89.001s47.333 -34 84 -34zM314.001 303c-19.333 0 -34.833 6 -46.5 18s-17.5 27.667 -17.5 47c0 18.667 5.83301 33.834 17.5 45.501s27.167 17.5 46.5 17.5c18.667 0 33.667 -5.83301 45 -17.5
s17 -26.834 17 -45.501c0 -19.333 -5.66699 -35 -17 -47s-26.333 -18 -45 -18z" />
    <glyph glyph-name="one" unicode="1" 
d="M43 0l15 96h194l86 540l-218 -145l19 117l186 122h136l-101 -634h157l-15 -96h-459z" />
    <glyph glyph-name="two" unicode="2" 
d="M41 0l18.002 107l262 233c40.667 36 71.334 68.5 92.001 97.5s33.334 57.833 38.001 86.5c6 37.333 0.5 66.666 -16.5 87.999s-43.167 32 -78.5 32c-38.667 0 -70.834 -11.167 -96.501 -33.5s-41.834 -52.833 -48.501 -91.5h-107c8 45.333 24.333 84.5 49 117.5
s55.667 58.5 93 76.5s79.333 27 126 27c44.667 0 82.167 -8.66699 112.5 -26s52.166 -41.666 65.499 -72.999s16.666 -68.333 9.99902 -111c-6.66699 -44 -24.667 -87.333 -54 -130s-73 -88.667 -131 -138l-191 -164h318l-15 -98h-446z" />
    <glyph glyph-name="three" unicode="3" 
d="M245 -10c-46 0 -84.499 8.66992 -115.499 26.0029s-53.167 41.833 -66.5 73.5s-16.666 68.5 -9.99902 110.5h108c-6.66699 -36.667 -1 -65.334 17 -86.001s45.667 -31 83 -31c38 0 69.167 10.667 93.5 32s39.166 49.666 44.499 84.999l8 54
c6 37.333 0.333008 66.166 -17 86.499s-45 30.5 -83 30.5h-78l16 102l193 162h-285l15 95h398l-17 -102l-231 -192l5 29c69.333 0 121.166 -19 155.499 -57s46.5 -89 36.5 -153l-8 -55c-6 -42 -21 -78.833 -45 -110.5s-54.667 -56.167 -92 -73.5s-79 -26 -125 -26z" />
    <glyph glyph-name="four" unicode="4" 
d="M356 0l23 152h-327l26 162l351 416h121l-371 -443l-6 -38h222l28 171h107l-67 -420h-107z" />
    <glyph glyph-name="five" unicode="5" 
d="M252 -10c-63.333 0 -111.997 16.1689 -145.997 48.502s-49.333 75.833 -46 130.5h108c-1.33301 -26.667 6.66699 -47.334 24 -62.001s42.666 -22 75.999 -22c38.667 0 69.334 10.167 92.001 30.5s37 48.833 43 85.5l11 71c6 37.333 1 66.166 -15 86.499
s-43 30.5 -81 30.5c-24 0 -45.667 -5.5 -65 -16.5s-34.333 -26.167 -45 -45.5h-107l69 403h398l-16 -98h-294l-39 -227h28l-33 -26c5.33301 31.333 21.666 56 48.999 74s61.666 27 102.999 27c59.333 0 102.666 -18.167 129.999 -54.5s36 -87.5 26 -153.5l-12 -71
c-10.667 -64.667 -38.667 -116 -84 -154s-103.333 -57 -174 -57z" />
    <glyph glyph-name="six" unicode="6" 
d="M255 -10c-48 0 -88.332 10.0039 -120.999 30.0039s-56.167 48.167 -70.5 84.5s-17.5 78.166 -9.5 125.499c5.33301 36 16.5 72.167 33.5 108.5s38.167 71.166 63.5 104.499l224 287h120l-263 -336l4 -3c16.667 19.333 36.5 34.166 59.5 44.499s48.5 15.5 76.5 15.5
c39.333 0 72.166 -9.33301 98.499 -28s44.833 -44.834 55.5 -78.501s12.334 -73.5 5.00098 -119.5c-7.33301 -46.667 -23.833 -87.667 -49.5 -123s-57.834 -62.833 -96.501 -82.5s-82 -29.5 -130 -29.5zM269.001 83.0039c40 0 74.165 13 102.498 39s45.833 60.333 52.5 103
s-0.166016 77 -20.499 103s-50.166 39 -89.499 39c-40 0 -74 -13 -102 -39s-45.333 -60.333 -52 -103s0 -77 20 -103s49.667 -39 89 -39z" />
    <glyph glyph-name="seven" unicode="7" 
d="M126 0l360 631h-253l-16 -107h-108l33 206h469l-16 -104l-351 -626h-118z" />
    <glyph glyph-name="eight" unicode="8" 
d="M254 -10c-70 0 -122.663 17.835 -157.996 53.502s-48.333 83.167 -39 142.5c7.33301 44 25.5 81.667 54.5 113s70.5 58.666 124.5 81.999l112 49c28.667 12.667 52.167 29.5 70.5 50.5s29.166 44.167 32.499 69.5c5.33301 30 -0.333984 53.667 -17.001 71
s-41.667 26 -75 26c-34 0 -62.167 -8.83301 -84.5 -26.5s-35.833 -41.5 -40.5 -71.5c-4 -24.667 -0.333008 -47.5 11 -68.5s29 -37.5 53 -49.5l97 -48c48.667 -24.667 82.5 -52.834 101.5 -84.501s24.833 -69.167 17.5 -112.5c-6 -40 -20.833 -74.667 -44.5 -104
s-53.834 -52 -90.501 -68s-78.334 -24 -125.001 -24zM269.004 84.002c37.333 0 68.666 9.83301 93.999 29.5s40.333 45.5 45 77.5c4.66699 26 1.33398 50.167 -9.99902 72.5s-29 39.833 -53 52.5l-100 51c-46 23.333 -78.5 50 -97.5 80s-25.167 66 -18.5 108
c6 36.667 19.833 69 41.5 97s49.834 49.833 84.501 65.5s74 23.5 118 23.5s80.833 -7.83301 110.5 -23.5s51 -37.5 64 -65.5s16.5 -60.333 10.5 -97c-6.66699 -42.667 -24.167 -78.667 -52.5 -108s-69.5 -56.333 -123.5 -81l-117 -51c-27.333 -12 -49.833 -29 -67.5 -51
s-28.834 -45.667 -33.501 -71c-5.33301 -32.667 1.5 -59 20.5 -79s47.167 -30 84.5 -30z" />
    <glyph glyph-name="nine" unicode="9" 
d="M133 0l266.004 335.999l-5 3c-16 -19.333 -36 -34.166 -60 -44.499s-50 -15.5 -78 -15.5c-38.667 0 -71.334 9.33301 -98.001 28s-45.334 45 -56.001 79s-12.334 73.667 -5.00098 119c7.33301 47.333 23.666 88.5 48.999 123.5s57.5 62.333 96.5 82
s82.167 29.5 129.5 29.5c48 0 88.5 -10 121.5 -30s56.5 -48 70.5 -84s17.333 -78 10 -126c-5.33301 -35.333 -16.5 -71.333 -33.5 -108s-38.5 -71.667 -64.5 -105l-223 -287h-120zM313.004 362.999c40 0 74.167 13 102.5 39s45.833 60.333 52.5 103s0 77 -20 103
s-49.667 39 -89 39c-40 0 -74.167 -13 -102.5 -39s-45.833 -60.333 -52.5 -103s0 -77 20 -103s49.667 -39 89 -39z" />
    <glyph glyph-name="colon" unicode=":" 
d="M319 401c-26 0 -45.835 7.33301 -59.502 22s-18.834 34 -15.501 58c4 24 15.333 43.167 34 57.5s41 21.5 67 21.5c26.667 0 46.834 -7.16699 60.501 -21.5s18.5 -33.5 14.5 -57.5c-3.33301 -24 -14.166 -43.333 -32.499 -58s-41.166 -22 -68.499 -22zM253.998 -10
c-26 0 -45.999 7.33301 -59.999 22s-19 33.667 -15 57c3.33301 24.667 14.333 44.167 33 58.5s41 21.5 67 21.5c27.333 0 47.666 -7.16699 60.999 -21.5s18.333 -33.833 15 -58.5c-4 -23.333 -15.167 -42.333 -33.5 -57s-40.833 -22 -67.5 -22z" />
    <glyph glyph-name="semicolon" unicode=";" 
d="M94 -160l129 311h144l-179 -311h-94zM310 401c-23.333 0 -41.3359 7.5 -54.0029 22.5s-17 34.167 -13 57.5c3.33301 22.667 13.833 41.5 31.5 56.5s37.834 22.5 60.501 22.5h20c22.667 0 40.334 -7.5 53.001 -22.5s17.334 -33.833 14.001 -56.5
c-4 -23.333 -14.667 -42.5 -32 -57.5s-37.333 -22.5 -60 -22.5h-20z" />
    <glyph glyph-name="less" unicode="&#x3c;" 
d="M485 60l-405 212.999l17 113l473 213l-16 -107l-322 -143c-14 -6 -27.333 -11 -40 -15s-22.334 -6.66699 -29.001 -8c6.66699 -1.33301 15.834 -4.16602 27.501 -8.49902s23.167 -9.5 34.5 -15.5l277 -143z" />
    <glyph glyph-name="equal" unicode="=" 
d="M103 403l16 97h433l-16 -97h-433zM65 160l16 97h433l-16 -97h-433z" />
    <glyph glyph-name="greater" unicode="&#x3e;" 
d="M46 60l15.999 106.001l322 143c14 6 27.333 11 40 15s22.334 6.66699 29.001 8c-6 1.33301 -14.833 4.16602 -26.5 8.49902s-23.167 9.5 -34.5 15.5l-277 143l16 100l406 -213l-18 -113z" />
    <glyph glyph-name="question" unicode="?" 
d="M191 211l29 189.999h65c38 0 69.833 10.333 95.5 31s41.5 48.334 47.5 83.001c4.66699 34.667 -2.5 62.334 -21.5 83.001s-47.833 31 -86.5 31h-137l17 101h133c72 0 126.167 -19.5 162.5 -58.5s49.5 -91.167 39.5 -156.5c-6 -39.333 -19.667 -74.333 -41 -105
s-48 -54.834 -80 -72.501s-67.667 -27.167 -107 -28.5l-15 -98h-101zM192 -5.00098c-19.333 0 -33.835 5.83105 -43.502 17.498s-13.167 26.834 -10.5 45.501s10.834 33.834 24.501 45.501s30.167 17.5 49.5 17.5h30c20 0 34.833 -5.83301 44.5 -17.5
s12.834 -26.5 9.50098 -44.5c-2.66699 -18.667 -11 -34 -25 -46s-30.667 -18 -50 -18h-29z" />
    <glyph glyph-name="at" unicode="@" 
d="M252 -180c-58 0 -106.67 11.834 -146.003 35.501s-67.166 57.334 -83.499 101.001s-19.833 94.834 -10.5 153.501l54 340c10 60 29.5 111.667 58.5 155s65.833 76.666 110.5 99.999s95.667 35 153 35c52 0 95.167 -10 129.5 -30s58.666 -48.333 72.999 -85
s17.5 -79.667 9.5 -129l-68 -431h-83l12 55h-29l21 23c-4.66699 -26 -18 -47.167 -40 -63.5s-49 -24.5 -81 -24.5c-42.667 0 -73.5 13.5 -92.5 40.5s-24.167 66.167 -15.5 117.5l18 117c8 51.333 25.667 90.5 53 117.5s62.333 40.5 105 40.5
c32.667 0 57.334 -8.16699 74.001 -24.5s23 -37.833 19 -64.5l-10 21h27l-2 69v7c5.33301 34 3.83301 63.167 -4.5 87.5s-23.166 43.166 -44.499 56.499s-49 20 -83 20c-58.667 0 -107 -18.333 -145 -55s-62.333 -88.334 -73 -155.001l-54 -340
c-10 -64 -0.666992 -114 28 -150s73.334 -54 134.001 -54h70l-14 -86h-70zM375.997 125.001c25.333 0 45.168 7.50098 59.501 22.501s24.166 39.167 29.499 72.5l17 111c4.66699 29.333 2.16699 51.166 -7.5 65.499s-27.167 21.5 -52.5 21.5c-24 0 -43.5 -7.33301 -58.5 -22
s-24.833 -36.667 -29.5 -66l-18 -117c-4.66699 -30.667 -2 -53 8 -67s27.333 -21 52 -21z" />
    <glyph glyph-name="A" unicode="A" 
d="M-1 0l302 730h142l70 -730h-106l-14 185h-207l-74 -185h-113zM220 274l166.002 0.000976562l-17 211c-2.66699 37.333 -4.83398 69.833 -6.50098 97.5s-2.5 46.5 -2.5 56.5l-19.5 -56.5c-9.66699 -27.667 -21.834 -59.834 -36.501 -96.501z" />
    <glyph glyph-name="B" unicode="B" 
d="M41 0l115.999 729.997h215c69.333 0 121 -16.667 155 -50s46.333 -79.333 37 -138c-4.66699 -33.333 -16.167 -62.166 -34.5 -86.499s-41.333 -43.166 -69 -56.499s-58.5 -20 -92.5 -20l1 10c37.333 0.666992 68.833 -6.16602 94.5 -20.499s44.334 -35.5 56.001 -63.5
s14.167 -61.333 7.5 -100c-6.66699 -41.333 -21.5 -77.5 -44.5 -108.5s-52.667 -54.833 -89 -71.5s-77.5 -25 -123.5 -25h-229zM160.999 92.9971l114 -0.000976562c39.333 0 72 10.333 98 31s42 49.334 48 86.001c5.33301 37.333 -1.5 67.333 -20.5 90s-47.833 34 -86.5 34
h-115zM212.999 423.996h109.001c36 0 65.833 9.66699 89.5 29s38.167 45.333 43.5 78s-0.833984 58.5 -18.501 77.5s-44.167 28.5 -79.5 28.5h-110z" />
    <glyph glyph-name="C" unicode="C" 
d="M258 -10c-45.333 0 -83.498 8.50098 -114.498 25.501s-53 41.667 -66 74s-16.167 70.166 -9.5 113.499l51 324c7.33301 44 22.666 82 45.999 114s53.166 56.5 89.499 73.5s77.166 25.5 122.499 25.5s83.166 -8.66699 113.499 -26s52.333 -41.833 66 -73.5
s16.834 -69.5 9.50098 -113.5h-108c6.66699 38 1.5 67 -15.5 87s-43.833 30 -80.5 30s-66.834 -10 -90.501 -30s-38.5 -48.667 -44.5 -86l-51 -325c-6 -37.333 -0.333008 -66.166 17 -86.499s44 -30.5 80 -30.5c36.667 0 66.667 10.167 90 30.5s38 49.166 44 86.499h108
c-6.66699 -43.333 -21.667 -81 -45 -113s-53.166 -56.667 -89.499 -74s-77.166 -26 -122.499 -26z" />
    <glyph glyph-name="D" unicode="D" 
d="M39 0l116 729.998h204c48 0 88.333 -9.16699 121 -27.5s56 -44.166 70 -77.499s17.333 -72.666 10 -117.999l-44 -283c-7.33301 -44.667 -23.5 -84 -48.5 -118s-56.667 -60.167 -95 -78.5s-81.5 -27.5 -129.5 -27.5h-204zM163 97.998l95 0.000976562
c40 0 73.5 11.167 100.5 33.5s43.5 53.166 49.5 92.499l44 283c6.66699 38.667 0.166992 69.167 -19.5 91.5s-49.5 33.5 -89.5 33.5h-96z" />
    <glyph glyph-name="E" unicode="E" 
d="M50 0l116 730h429l-15 -96h-323l-33 -207h288l-16 -95h-287l-38 -236h323l-15 -96h-429z" />
    <glyph glyph-name="F" unicode="F" 
d="M44 0l116 731h441l-16 -100h-336l-34 -218h310l-16 -100h-308l-50 -313h-107z" />
    <glyph glyph-name="G" unicode="G" 
d="M258 -10c-45.333 0 -83.498 8.50098 -114.498 25.501s-53 41.667 -66 74s-16.167 70.166 -9.5 113.499l51 324c7.33301 44 22.666 82 45.999 114s53.166 56.5 89.499 73.5s77.166 25.5 122.499 25.5s83.166 -8.66699 113.499 -26s52.333 -41.833 66 -73.5
s16.834 -69.5 9.50098 -113.5h-108c6.66699 38 1.5 67 -15.5 87s-43.833 30 -80.5 30s-66.834 -10 -90.501 -30s-38.5 -48.667 -44.5 -86l-51 -325c-6 -37.333 -0.333008 -66.333 17 -87s44 -31 80 -31c36.667 0 66.667 10.333 90 31s38 49.667 44 87l13 82h-136l15 95h244
l-28 -177c-6.66699 -43.333 -21.667 -81 -45 -113s-53.166 -56.667 -89.499 -74s-77.166 -26 -122.499 -26z" />
    <glyph glyph-name="H" unicode="H" 
d="M41 0l116 730h108l-49 -302h215l48 302h108l-116 -730h-108l52 328h-214l-52 -328h-108z" />
    <glyph glyph-name="I" unicode="I" 
d="M54 0l15 96h148l85 538h-148l16 96h404l-15 -96h-148l-85 -538h148l-16 -96h-404z" />
    <glyph glyph-name="J" unicode="J" 
d="M224 -10c-72 0 -125.5 19.999 -160.5 59.999s-47.167 94.333 -36.5 163h108c-6 -40.667 0.166992 -72.167 18.5 -94.5s46.833 -33.5 85.5 -33.5c39.333 0 71.833 11.167 97.5 33.5s41.5 53.5 47.5 93.5l67 419h-172l16 99h279l-82 -518
c-6.66699 -45.333 -22.167 -84.666 -46.5 -117.999s-55.333 -59 -93 -77s-80.5 -27 -128.5 -27z" />
    <glyph glyph-name="K" unicode="K" 
d="M40 0l116 730h108l-49 -304h95l199 304h119l-230 -355l122 -375h-117l-104 329h-99l-52 -329h-108z" />
    <glyph glyph-name="L" unicode="L" 
d="M65 0l116 730h108l-100 -631h319l-16 -99h-427z" />
    <glyph glyph-name="M" unicode="M" 
d="M22 0l115.998 730h131l35 -234c3.33301 -22 6.33301 -43.167 9 -63.5s4.33398 -35.5 5.00098 -45.5l17.5 45.5c7.66699 20.333 16.834 41.5 27.501 63.5l108 234h135l-116 -730h-102l39 246c5.33301 32.667 11.833 68.167 19.5 106.5s16.167 76.833 25.5 115.5l27.5 111
l23.5 93l-163 -355h-105l-54 355c-0.666992 -26 -2 -56.167 -4 -90.5s-4.66699 -70.833 -8 -109.5s-7 -77.5 -11 -116.5s-9 -75.5 -15 -109.5l-39 -246h-102z" />
    <glyph glyph-name="N" unicode="N" 
d="M37 0l116 729.999h135l118 -607c1.33301 19.333 3.16602 42.333 5.49902 69s5.16602 54.334 8.49902 83.001s7 54.667 11 78l60 377h100l-116 -730h-135l-117 607c-1.33301 -17.333 -3.16602 -39 -5.49902 -65s-5.16602 -53 -8.49902 -81s-7 -54 -11 -78l-61 -383h-100z
" />
    <glyph glyph-name="O" unicode="O" 
d="M254 -10c-44.667 0 -82.166 8.5 -112.499 25.5s-51.833 41.667 -64.5 74s-15.667 70.166 -9 113.499l51 324c7.33301 44 22.333 82 45 114s52 56.5 88 73.5s76.333 25.5 121 25.5c45.333 0 83.166 -8.5 113.499 -25.5s52 -41.5 65 -73.5s15.833 -69.667 8.5 -113
l-51 -325c-6.66699 -43.333 -21.667 -81.166 -45 -113.499s-52.833 -57 -88.5 -74s-76.167 -25.5 -121.5 -25.5zM269.001 86c36.667 0 66.333 10.167 89 30.5s37 49.166 43 86.499l51 324c6 38 1 67 -15 87s-42.333 30 -79 30s-66.167 -10 -88.5 -30s-36.5 -49 -42.5 -87
l-51 -324c-6 -37.333 -1 -66.166 15 -86.499s42 -30.5 78 -30.5z" />
    <glyph glyph-name="P" unicode="P" 
d="M40 0l116.003 730h239c47.333 0 87 -9 119 -27s54.833 -43.5 68.5 -76.5s17.167 -71.833 10.5 -116.5c-6.66699 -44 -22.334 -82.667 -47.001 -116s-55.834 -59 -93.501 -77s-79.834 -27 -126.501 -27h-132l-46 -290h-108zM209.003 387l132 0.000976562
c36.667 0 68 11.167 94 33.5s42 52.166 48 89.499c6 38 -0.5 68 -19.5 90s-46.833 33 -83.5 33h-132z" />
    <glyph glyph-name="Q" unicode="Q" 
d="M346 -180l-79.0029 179.001l15 -7c-4 0 -8.5 -0.333008 -13.5 -1s-9.83301 -1 -14.5 -1c-45.333 0 -83.666 9 -114.999 27s-53.666 43.167 -66.999 75.5s-16.666 70.166 -9.99902 113.499l51 318c7.33301 44 22.666 82 45.999 114s53.5 57 90.5 75s78.167 27 123.5 27
c46 0 84.5 -9 115.5 -27s53.333 -43 67 -75s16.834 -70 9.50098 -114l-51 -318c-8 -50 -27 -92.833 -57 -128.5s-68 -60.167 -114 -73.5l9 54l107 -238h-113zM268.997 85.001c37.333 0 68 11 92 33s39 51.333 45 88l51 318c6 37.333 0.166992 66.833 -17.5 88.5
s-44.5 32.5 -80.5 32.5c-36.667 0 -67.334 -10.833 -92.001 -32.5s-40 -51.167 -46 -88.5l-51 -318c-6 -36.667 -0.166992 -66 17.5 -88s44.834 -33 81.501 -33z" />
    <glyph glyph-name="R" unicode="R" 
d="M40 0l115.999 729.999h229c46 0 84.5 -8.83301 115.5 -26.5s53.5 -42.5 67.5 -74.5s17.333 -69.667 10 -113c-5.33301 -36 -17.333 -68.667 -36 -98s-42.167 -53.666 -70.5 -72.999s-60.166 -32.333 -95.499 -39l13 54l118 -360h-118l-91 300h-103l-47 -300h-108z
M209.999 394.999l121 0.000976562c36 0 66.5 10.833 91.5 32.5s40.167 50.5 45.5 86.5c6 37.333 0 66.666 -18 87.999s-45 32 -81 32h-121z" />
    <glyph glyph-name="S" unicode="S" 
d="M257 -10c-73.333 0 -128.332 18.167 -164.999 54.5s-50.334 85.833 -41.001 148.5h108c-5.33301 -33.333 2 -59.5 22 -78.5s50.667 -28.5 92 -28.5c38.667 0 70.5 9.33301 95.5 28s40.167 44.334 45.5 77.001c4.66699 28.667 1 53.167 -11 73.5s-30.667 34.5 -56 42.5
l-87 26c-50.667 15.333 -88 41.333 -112 78s-32.333 80 -25 130c6.66699 40 21.334 75 44.001 105s52 53.333 88 70s76.667 25 122 25c66.667 0 117.334 -18 152.001 -54s47.334 -84.333 38.001 -145h-108c5.33301 32 -0.5 57.167 -17.5 75.5s-43.833 27.5 -80.5 27.5
c-36 0 -65.167 -8.5 -87.5 -25.5s-35.833 -40.833 -40.5 -71.5c-4.66699 -28 -1.33398 -52.333 9.99902 -73s29.666 -35 54.999 -43l90 -28c50 -15.333 86.833 -41.333 110.5 -78s31.5 -80.334 23.5 -131.001c-6 -41.333 -21.167 -77.333 -45.5 -108
s-55.333 -54.5 -93 -71.5s-79.834 -25.5 -126.501 -25.5z" />
    <glyph glyph-name="T" unicode="T" 
d="M202 0l100 631h-195l16 100h498l-16 -100h-195l-100 -631h-108z" />
    <glyph glyph-name="U" unicode="U" 
d="M254 -10c-70 0 -120.834 19.167 -152.501 57.5s-42.167 90.5 -31.5 156.5l83 526h108l-83 -526c-6.66699 -36.667 -2.33398 -65.667 12.999 -87s41.333 -32 78 -32s66.167 10.667 88.5 32s36.5 50.333 42.5 87l83 526h108l-83 -526
c-7.33301 -44 -22.166 -82.167 -44.499 -114.5s-51.166 -57 -86.499 -74s-76.333 -25.5 -123 -25.5z" />
    <glyph glyph-name="V" unicode="V" 
d="M184 0l-69.001 730.001h109l40 -486c2.66699 -28.667 4.66699 -57.167 6 -85.5s2 -50.5 2 -66.5c4.66699 16 11.834 38.167 21.501 66.5s20.5 57.166 32.5 86.499l192 485h111l-302 -730h-143z" />
    <glyph glyph-name="W" unicode="W" 
d="M56 0l37.002 730h94l-34 -524c-0.666992 -13.333 -1.66699 -28 -3 -44s-2.83301 -31.667 -4.5 -47l-4.5 -40l9.5 40c3.66699 15.333 7.66699 31 12 47s8.5 30.667 12.5 44l147 524h102l-25 -524c-0.666992 -13.333 -1.33398 -28 -2.00098 -44l-2 -47
c-0.666992 -15.333 -1.33398 -28.666 -2.00098 -39.999c2.66699 11.333 5.5 24.666 8.5 39.999s6.5 31 10.5 47l11 44l134 524h94l-198 -730h-125l25 531c0.666992 14 1.5 28.833 2.5 44.5l3 46c1 15 2.16699 27.5 3.5 37.5l-9.5 -37.5l-11.5 -46
c-4 -15.667 -8 -30.5 -12 -44.5l-147 -531h-126z" />
    <glyph glyph-name="X" unicode="X" 
d="M-10 0l263.999 375l-136 355h118l70 -199c4 -12.667 8.33301 -25.334 13 -38.001s8 -22.334 10 -29.001c4 6.66699 9.5 16.334 16.5 29.001s14.833 25.334 23.5 38.001l136 199h121l-249 -356l145 -374h-117l-80 216c-4.66699 12.667 -9.16699 25.5 -13.5 38.5
s-7.16602 23.167 -8.49902 30.5c-4 -7.33301 -10 -17.333 -18 -30l-24 -38l-148 -217h-123z" />
    <glyph glyph-name="Y" unicode="Y" 
d="M202 0l42.002 269l-143 461h110l85 -276c5.33301 -18 9.5 -34.833 12.5 -50.5s4.83301 -27.834 5.5 -36.501c3.33301 8.66699 8.66602 20.834 15.999 36.501s16.666 32.5 27.999 50.5l171 276h114l-291 -461l-42 -269h-108z" />
    <glyph glyph-name="Z" unicode="Z" 
d="M38 0l17 105l390 526h-301l16 99h420l-18 -105l-390 -526h318l-16 -99h-436z" />
    <glyph glyph-name="bracketleft" unicode="[" 
d="M134 -110l148 940h262l-15 -98h-155l-118 -744h155l-15 -98h-262z" />
    <glyph glyph-name="backslash" unicode="\" 
d="M363 -110l-209 940h108l209 -940h-108z" />
    <glyph glyph-name="bracketright" unicode="]" 
d="M82 -110l15 98h155l118 744h-155l15 98h262l-148 -940h-262z" />
    <glyph glyph-name="asciicircum" unicode="^" 
d="M84 340l237.999 390h102l112 -390h-96l-63 244c-3.33301 14 -6.16602 27.167 -8.49902 39.5l-5.5 28.5c-2.66699 -6.66699 -7 -16.167 -13 -28.5s-13 -25.5 -21 -39.5l-143 -244h-102z" />
    <glyph glyph-name="underscore" unicode="_" 
d="M-3 -119l15 94h480l-15 -94h-480z" />
    <glyph glyph-name="grave" unicode="`" 
d="M349 645l-94 140h114l86 -140h-106z" />
    <glyph glyph-name="a" unicode="a" 
d="M215 -10c-54.667 0 -95.501 18.668 -122.501 56.001s-35.167 87.666 -24.5 150.999l24 155c6.66699 43.333 20 80.333 40 111s44.833 54.5 74.5 71.5s62.834 25.5 99.501 25.5c45.333 0 79.5 -12.5 102.5 -37.5s30.833 -59.167 23.5 -102.5l-19 25h24l15 105h107
l-87 -550h-106l17 105h-23l27 25c-7.33301 -43.333 -26.5 -77.5 -57.5 -102.5s-69.167 -37.5 -114.5 -37.5zM267.999 84.001c34 0 62.499 10.5 85.499 31.5s37.5 50.167 43.5 87.5l22 144c6.66699 37.333 1.83398 66.5 -14.499 87.5s-41.833 31.5 -76.5 31.5
c-35.333 0 -64 -10.167 -86 -30.5s-36.333 -49.833 -43 -88.5l-22 -144c-6.66699 -38.667 -2 -68.167 14 -88.5s41.667 -30.5 77 -30.5z" />
    <glyph glyph-name="b" unicode="b" 
d="M293 -10c-45.333 0 -79.333 12.501 -102 37.501s-30.667 59.167 -24 102.5l20 -25h-23l-17 -105h-107l116 730h108l-25 -157l-24 -128h25l-27 -25c6.66699 43.333 25.667 77.5 57 102.5s69.333 37.5 114 37.5c55.333 0 96.333 -18.667 123 -56s35 -88 25 -152l-24 -155
c-6.66699 -42.667 -20 -79.334 -40 -110.001s-44.833 -54.5 -74.5 -71.5s-63.167 -25.5 -100.5 -25.5zM272 84.001c34.667 0 63.333 10.167 86 30.5s37 49.833 43 88.5l22 144c6.66699 38.667 1.83398 68.167 -14.499 88.5s-41.833 30.5 -76.5 30.5
c-34 0 -62.333 -10.5 -85 -31.5s-37.334 -50.167 -44.001 -87.5l-23 -144c-6 -37.333 -0.666992 -66.5 16 -87.5s42 -31.5 76 -31.5z" />
    <glyph glyph-name="c" unicode="c" 
d="M258 -10c-45.333 0 -83.501 8.50195 -114.501 25.502s-53 41.667 -66 74s-16.167 70.166 -9.5 113.499l22 144c7.33301 44 22.666 82 45.999 114s53.333 56.5 90 73.5s77.667 25.5 123 25.5c66 0 116.167 -17.333 150.5 -52s47.833 -82 40.5 -142h-107
c2.66699 31.333 -4.66602 55.666 -21.999 72.999s-43.333 26 -78 26c-36.667 0 -66.667 -10.167 -90 -30.5s-38 -49.166 -44 -86.499l-23 -145c-6 -37.333 -0.5 -66.333 16.5 -87s43.833 -31 80.5 -31c34.667 0 63.334 8.66699 86.001 26s37.667 41.666 45 72.999h108
c-12 -60 -40.833 -107.333 -86.5 -142s-101.5 -52 -167.5 -52z" />
    <glyph glyph-name="d" unicode="d" 
d="M215 -10c-54.667 0 -95.334 18.668 -122.001 56.001s-35 87.666 -25 150.999l24 155c6.66699 43.333 20 80.333 40 111s44.833 54.5 74.5 71.5s62.834 25.5 99.501 25.5c45.333 0 79.5 -12.5 102.5 -37.5s30.833 -59.167 23.5 -102.5l-19 25h24l18 128l26 157h107
l-116 -730h-106l17 105h-23l27 25c-7.33301 -43.333 -26.5 -77.5 -57.5 -102.5s-69.167 -37.5 -114.5 -37.5zM268 84.001c34 0 62.499 10.5 85.499 31.5s37.5 50.167 43.5 87.5l22 144c6.66699 37.333 1.83398 66.5 -14.499 87.5s-41.833 31.5 -76.5 31.5
c-35.333 0 -64 -10.167 -86 -30.5s-36.333 -49.833 -43 -88.5l-22 -144c-6.66699 -38.667 -2 -68.167 14 -88.5s41.667 -30.5 77 -30.5z" />
    <glyph glyph-name="e" unicode="e" 
d="M254 -10c-44.667 0 -81.999 8.83398 -111.999 26.501s-51.5 42.5 -64.5 74.5s-16.167 69.333 -9.5 112l22 144c7.33301 43.333 22.666 80.833 45.999 112.5s52.833 56.334 88.5 74.001s75.834 26.5 120.501 26.5c45.333 0 83 -8.83301 113 -26.5
s51.5 -42.334 64.5 -74.001s15.833 -69.167 8.5 -112.5l-15 -98h-337l-7 -46c-6 -40.667 -1 -71.667 15 -93s43.333 -32 82 -32c31.333 0 57.166 5.5 77.499 16.5s34.5 27.167 42.5 48.5h107c-10 -31.333 -26.5 -58.333 -49.5 -81s-51 -40.334 -84 -53.001
s-69.167 -19 -108.5 -19zM422.001 314.001l5.00098 34c6.66699 40 2.16699 71 -13.5 93s-42.834 33 -81.501 33s-69.5 -11 -92.5 -33s-37.833 -53.333 -44.5 -94l-4 -25l240 1z" />
    <glyph glyph-name="f" unicode="f" 
d="M-51 -180l15 93.002h108c28 0 49.833 6.66699 65.5 20s25.5 33 29.5 59l64 402h-156l15 98h156l12 75c5.33301 33.333 17.166 62.166 35.499 86.499s41.833 43.166 70.5 56.499s61.334 20 98.001 20h170l-15 -96h-170c-23.333 0 -41.833 -5.66699 -55.5 -17
s-22.167 -28.333 -25.5 -51l-12 -74h218l-16 -98h-218l-63 -404c-8 -52.667 -31.333 -94.167 -70 -124.5s-87.667 -45.5 -147 -45.5h-109z" />
    <glyph glyph-name="g" unicode="g" 
d="M85 -180l13.998 93h169c28 0 50 6.66699 66 20s26 33 30 59l9 55l18 102h-23l26 20c-7.33301 -42 -26 -75 -56 -99s-67.333 -36 -112 -36c-56.667 0 -98.5 18.667 -125.5 56s-35.5 87.666 -25.5 150.999l18 112c6.66699 42.667 19.834 79.334 39.501 110.001
s44.667 54.5 75 71.5s64.166 25.5 101.499 25.5c44.667 0 78.334 -12.167 101.001 -36.5s30.667 -57.5 24 -99.5l-20 21h23l15 105h107l-88 -560c-8.66699 -52.667 -32.167 -94.167 -70.5 -124.5s-87.166 -45.5 -146.499 -45.5h-169zM274.998 127
c34.667 0 63.3311 10.5 85.998 31.5s37.334 50.167 44.001 87.5l15 101c6.66699 37.333 1.66699 66.5 -15 87.5s-42 31.5 -76 31.5c-35.333 0 -64.166 -10.167 -86.499 -30.5s-36.5 -49.833 -42.5 -88.5l-16 -101c-6 -38 -1 -67.333 15 -88s41.333 -31 76 -31z" />
    <glyph glyph-name="h" unicode="h" 
d="M40 0l116.002 730h108l-29 -180l-18 -105h26l-30 -25c7.33301 44 26 78.333 56 103s68 37 114 37c54.667 0 95.5 -17.5 122.5 -52.5s35.833 -82.167 26.5 -141.5l-58 -366h-108l56 354c5.33301 36 0.166016 64 -15.501 84s-40.5 30 -74.5 30s-62.333 -10.5 -85 -31.5
s-37.334 -50.833 -44.001 -89.5l-55 -347h-108z" />
    <glyph glyph-name="i" unicode="i" 
d="M33 0l16 98h193l56 354h-168l15 98h273l-71 -452h178l-16 -98h-476zM374 645c-23.333 0 -40.833 6.16699 -52.5 18.5s-16.167 28.833 -13.5 49.5c4 21.333 13.833 38.166 29.5 50.499s35.167 18.5 58.5 18.5s41 -6.16699 53 -18.5s16.333 -29.166 13 -50.499
c-3.33301 -20.667 -12.833 -37.167 -28.5 -49.5s-35.5 -18.5 -59.5 -18.5z" />
    <glyph glyph-name="j" unicode="j" 
d="M11 -180l16 100h138c37.333 0 67.833 10 91.5 30s38.5 48.333 44.5 85l65 416h-225l16 99h333l-82 -516c-6.66699 -44 -21.667 -82 -45 -114s-53 -56.667 -89 -74s-76.667 -26 -122 -26h-141zM446 645c-23.333 0 -40.833 6.16699 -52.5 18.5s-16.167 28.833 -13.5 49.5
c4 21.333 13.833 38.166 29.5 50.499s35.167 18.5 58.5 18.5s41 -6.16699 53 -18.5s16.333 -29.166 13 -50.499c-3.33301 -20.667 -12.833 -37.167 -28.5 -49.5s-35.5 -18.5 -59.5 -18.5z" />
    <glyph glyph-name="k" unicode="k" 
d="M43 0l116 730h108l-64 -401h87l182 221h124l-217 -268l133 -282h-121l-110 236h-92l-38 -236h-108z" />
    <glyph glyph-name="l" unicode="l" 
d="M328 0c-51.333 0 -90 15.332 -116 45.999s-35 71 -27 121l73 465h-166l16 98h274l-89 -563c-3.33301 -21.333 0 -38.166 10 -50.499s25 -18.5 45 -18.5h178l-16 -98h-182z" />
    <glyph glyph-name="m" unicode="m" 
d="M15 0l87.0029 550.001h90l-10 -70h19l-19 -21c5.33301 30.667 17.833 55.167 37.5 73.5s43.5 27.5 71.5 27.5c30 0 51.333 -11.667 64 -35s15.667 -55.333 9 -96l-16 51h38l-20 -21c5.33301 30.667 18 55.167 38 73.5s44.333 27.5 73 27.5c34 0 58.667 -12.833 74 -38.5
s19.666 -59.834 12.999 -102.501l-67 -419h-96l65 416c3.33301 20.667 1.66602 36.667 -5.00098 48s-18.334 17 -35.001 17s-30.5 -5.5 -41.5 -16.5s-18.167 -26.833 -21.5 -47.5l-66 -417h-81l65 416c4 21.333 2.16699 37.5 -5.5 48.5s-19.834 16.5 -36.501 16.5
s-30.167 -5.5 -40.5 -16.5s-17.166 -26.833 -20.499 -47.5l-66 -417h-97z" />
    <glyph glyph-name="n" unicode="n" 
d="M40 0l87.002 550h107l-17 -105h26l-30 -25c7.33301 44 26 78.333 56 103s68 37 114 37c54.667 0 95.5 -17.5 122.5 -52.5s35.833 -82.167 26.5 -141.5l-58 -366h-108l56 354c5.33301 36 0.166016 64 -15.501 84s-40.5 30 -74.5 30s-62.333 -10.5 -85 -31.5
s-37.334 -50.833 -44.001 -89.5l-55 -347h-108z" />
    <glyph glyph-name="o" unicode="o" 
d="M254 -10c-44.667 0 -82.167 8.5 -112.5 25.5s-51.833 41.667 -64.5 74s-15.667 70.166 -9 113.499l22 144c7.33301 44 22.5 82 45.5 114s52.5 56.5 88.5 73.5s76.333 25.5 121 25.5c45.333 0 83 -8.5 113 -25.5s51.5 -41.5 64.5 -73.5s16.167 -69.667 9.5 -113l-23 -145
c-6.66699 -43.333 -21.667 -81.166 -45 -113.499s-52.833 -57 -88.5 -74s-76.167 -25.5 -121.5 -25.5zM269 85c36.667 0 66.334 10 89.001 30s37 49.333 43 88l22 144c6.66699 38.667 1.83398 68 -14.499 88s-42.5 30 -78.5 30s-65.333 -10 -88 -30
s-37.334 -49.333 -44.001 -88l-22 -144c-6 -38.667 -0.833008 -68 15.5 -88s42.166 -30 77.499 -30z" />
    <glyph glyph-name="p" unicode="p" 
d="M11 -180l116.003 730h107l-17 -105h23l-27 -25c6.66699 43.333 25.667 77.5 57 102.5s69.666 37.5 114.999 37.5c55.333 0 96.166 -18.5 122.499 -55.5s34.5 -87.5 24.5 -151.5l-24 -155c-6.66699 -42.667 -19.834 -79.5 -39.501 -110.5s-44.334 -55 -74.001 -72
s-63.167 -25.5 -100.5 -25.5c-44.667 0 -78.667 12.5 -102 37.5s-31.666 59.167 -24.999 102.5l20 -25h-25l-17 -128l-26 -157h-108zM272.003 84c35.333 0 64.167 10.167 86.5 30.5s36.5 49.833 42.5 88.5l22 144c6.66699 38.667 2 68.167 -14 88.5s-41.333 30.5 -76 30.5
c-34 0 -62.5 -10.5 -85.5 -31.5s-37.833 -50.167 -44.5 -87.5l-23 -144c-6 -37.333 -0.5 -66.5 16.5 -87.5s42.167 -31.5 75.5 -31.5z" />
    <glyph glyph-name="q" unicode="q" 
d="M335 -180l25.0029 157l24 128h-25l26 25c-6.66699 -43.333 -25.334 -77.5 -56.001 -102.5s-68.667 -37.5 -114 -37.5c-55.333 0 -96.333 18.667 -123 56s-35 88 -25 152l24 155c6.66699 42.667 20 79.5 40 110.5s45 54.833 75 71.5s63.333 25 100 25
c45.333 0 79.166 -12.5 101.499 -37.5s30.166 -59.167 23.499 -102.5l-19 25h23l17 105h107l-116 -730h-108zM267.003 84c34.667 0 63.333 10.5 86 31.5s37 50.167 43 87.5l23 144c6 37.333 0.833008 66.5 -15.5 87.5s-41.833 31.5 -76.5 31.5s-63.167 -10.167 -85.5 -30.5
s-36.833 -49.833 -43.5 -88.5l-22 -144c-6 -38.667 -1 -68.167 15 -88.5s41.333 -30.5 76 -30.5z" />
    <glyph glyph-name="r" unicode="r" 
d="M58 0l87 550h104l-17 -105h26l-43 -65c9.33301 59.333 29.5 104.166 60.5 134.499s72.167 45.5 123.5 45.5c58.667 0 102.167 -18.167 130.5 -54.5s37.5 -86.166 27.5 -149.499l-6 -37h-111l5 28c6 39.333 1 69.5 -15 90.5s-41.667 31.5 -77 31.5
s-64.5 -10.667 -87.5 -32s-37.833 -51.333 -44.5 -90l-55 -347h-108z" />
    <glyph glyph-name="s" unicode="s" 
d="M232 -10c-60 0 -105.833 13.8359 -137.5 41.5029s-45.5 64.5 -41.5 110.5h108c0 -18 7.33301 -32.667 22 -44s35.667 -17 63 -17h43c33.333 0 59.166 6.83301 77.499 20.5s29.5 31.5 33.5 53.5c2.66699 21.333 -2.16602 38.5 -14.499 51.5s-32.833 21.5 -61.5 25.5
l-69 11c-56.667 8.66699 -97.167 25 -121.5 49s-32.833 60 -25.5 108c7.33301 50.667 29.833 90 67.5 118s89.167 42 154.5 42h38c56.667 0 100.167 -13.333 130.5 -40s44.166 -62 41.499 -106h-108c0 16 -6.83301 29.167 -20.5 39.5s-33.167 15.5 -58.5 15.5h-38
c-31.333 0 -55 -6 -71 -18s-26 -29.333 -30 -52c-2.66699 -20 1 -35.333 11 -46s28.333 -18.334 55 -23.001l71 -11c60 -9.33301 102.833 -26.333 128.5 -51s34.834 -61.334 27.501 -110.001c-8.66699 -52.667 -32.5 -93.834 -71.5 -123.501s-92.833 -44.5 -161.5 -44.5h-42
z" />
    <glyph glyph-name="t" unicode="t" 
d="M316 0c-50 0 -86.832 13.667 -110.499 41s-31.5 65.333 -23.5 114l47 297h-152l15 98h152l24 150h108l-24 -150h215l-15 -98h-215l-47 -297c-6.66699 -38 8.66602 -57 45.999 -57h150l-16 -98h-154z" />
    <glyph glyph-name="u" unicode="u" 
d="M253 -10c-66 0 -115.499 19.167 -148.499 57.5s-44.167 90.5 -33.5 156.5l54 346h108l-54 -346c-6 -38 -1 -67.5 15 -88.5s41 -31.5 75 -31.5s62.5 10.5 85.5 31.5s37.5 50.5 43.5 88.5l55 346h108l-55 -346c-6.66699 -44 -21.5 -82 -44.5 -114s-52.333 -56.667 -88 -74
s-75.834 -26 -120.501 -26z" />
    <glyph glyph-name="v" unicode="v" 
d="M185 0l-92.001 550h108l54 -352c3.33301 -20.667 6.33301 -41.5 9 -62.5s4.33398 -37.5 5.00098 -49.5l21 49.5c8.66699 21 18 41.833 28 62.5l162 352h113l-266 -550h-142z" />
    <glyph glyph-name="w" unicode="w" 
d="M69 0l1.99805 549.998h89l-7 -363c-0.666992 -16.667 -1.16699 -35.167 -1.5 -55.5s-1.16602 -37.166 -2.49902 -50.499l15 50l17 56l115 363h93l-2 -363v-56.5c0 -20.333 -0.333008 -37.166 -1 -50.499c3.33301 14 8 31.167 14 51.5l17 55.5l110 363h88l-175 -550h-114
l2 359c0 18.667 0.166992 38.5 0.5 59.5s0.5 37.833 0.5 50.5c-3.33301 -12.667 -8.16602 -29.5 -14.499 -50.5l-18.5 -59.5l-112 -359h-115z" />
    <glyph glyph-name="x" unicode="x" 
d="M2 0l235 287l-135 263h121l70 -152l10.5 -25.5c3.66699 -9 6.16699 -16.5 7.5 -22.5c3.33301 6 7.83301 13.5 13.5 22.5s11.5 17.5 17.5 25.5l117 152h126l-219 -270l144 -280h-122l-77 165l-11 27c-4 10 -6.66699 18 -8 24c-4 -6 -9 -14 -15 -24s-12 -19 -18 -27
l-131 -165h-126z" />
    <glyph glyph-name="y" unicode="y" 
d="M83 -180l15.001 93h169c28 0 50 6.66699 66 20s26 33 30 59l9 59l18 104h-27l30 25c-6.66699 -44 -25.167 -78.333 -55.5 -103s-68.5 -37 -114.5 -37c-54 0 -94.667 17.5 -122 52.5s-36.333 82.167 -27 141.5l51 316h107l-48 -304c-6 -36 -0.833008 -64 15.5 -84
s41.166 -30 74.499 -30c34 0 62.5 10.5 85.5 31.5s37.5 50.833 43.5 89.5l47 297h108l-89 -560c-7.33301 -52.667 -30.5 -94.167 -69.5 -124.5s-87.833 -45.5 -146.5 -45.5h-170z" />
    <glyph glyph-name="z" unicode="z" 
d="M40 0l16 102l349 352h-284l15 96h412l-16 -102l-353 -352h308l-15 -96h-432z" />
    <glyph glyph-name="braceleft" unicode="{" 
d="M400 -110c-38.667 0 -70.998 6.83203 -96.998 20.499s-44.333 33.334 -55 59.001s-12.334 56.167 -5.00098 91.5l36 159c6 30.667 3.83301 53.5 -6.5 68.5s-33.833 22.5 -70.5 22.5h-114l15 98h114c36.667 0 62.667 7.33301 78 22s24.666 37.667 27.999 69l15 160
c4 35.333 15.167 65.833 33.5 91.5s42.666 45.167 72.999 58.5s64.833 20 103.5 20h57l-15 -98h-48c-27.333 0 -49.666 -6.33301 -66.999 -19s-27.333 -32.334 -30 -59.001l-15 -160c-4.66699 -41.333 -21.167 -74.333 -49.5 -99s-64.833 -37 -109.5 -37v5
c44.667 0 77.5 -12.5 98.5 -37.5s26.833 -58.167 17.5 -99.5l-35 -160c-5.33301 -25.333 -1.5 -44.666 11.5 -57.999s33.167 -20 60.5 -20h48l-15 -98h-57z" />
    <glyph glyph-name="bar" unicode="|" 
d="M185 -110l148 940h108l-148 -940h-108z" />
    <glyph glyph-name="braceright" unicode="}" 
d="M21 -110l15.001 98.001h48c27.333 0 49.666 6.66699 66.999 20s27.333 32.666 30 57.999l15 160c4 41.333 20.5 74.5 49.5 99.5s65.5 37.5 109.5 37.5v-5c-44.667 0 -77.5 12.333 -98.5 37s-26.833 57.667 -17.5 99l35 160c6 26.667 2.5 46.334 -10.5 59.001
s-33.5 19 -61.5 19h-48l15 98h57c38.667 0 71 -6.66699 97 -20s44.5 -32.833 55.5 -58.5s12.5 -56.167 4.5 -91.5l-36 -160c-6 -31.333 -3.83301 -54.333 6.5 -69s33.833 -22 70.5 -22h114l-15 -98h-114c-36 0 -61.833 -7.5 -77.5 -22.5s-25.167 -37.833 -28.5 -68.5
l-15 -159c-3.33301 -35.333 -14.5 -65.833 -33.5 -91.5s-43.667 -45.334 -74 -59.001s-64.5 -20.5 -102.5 -20.5h-57z" />
    <glyph glyph-name="asciitilde" unicode="~" 
d="M54 255l10.9971 74c6.66699 40.667 24.667 73 54 97s64.333 36 105 36c26.667 0 48 -4.33301 64 -13s29.167 -19.667 39.5 -33s19.333 -26.666 27 -39.999s15.834 -24.5 24.501 -33.5s19.667 -13.5 33 -13.5c14 0 25.333 4.33301 34 13s14.334 21 17.001 37l11 71h95
l-11 -74c-6 -40 -23.5 -72.167 -52.5 -96.5s-64.167 -36.5 -105.5 -36.5c-26 0 -47.167 4.33301 -63.5 13s-29.666 19.667 -39.999 33s-19.333 26.666 -27 39.999s-16 24.5 -25 33.5s-20.167 13.5 -33.5 13.5s-24.333 -4.16699 -33 -12.5s-14.667 -20.833 -18 -37.5l-11 -71
h-95z" />
    <glyph glyph-name="uni00A0" unicode="&#xa0;" 
 />
    <glyph glyph-name="exclamdown" unicode="&#xa1;" 
d="M166 -180l22 135l80 372h79l-37 -372l-22 -135h-122zM313 430c-20.667 0 -36.167 5.83301 -46.5 17.5s-14.166 27.167 -11.499 46.5c2.66699 18.667 11.167 33.667 25.5 45s31.833 17 52.5 17h22c20.667 0 36.5 -5.5 47.5 -16.5s14.833 -26.167 11.5 -45.5
c-2.66699 -19.333 -11.334 -34.833 -26.001 -46.5s-32 -17.5 -52 -17.5h-23z" />
    <glyph glyph-name="cent" unicode="&#xa2;" 
d="M212 -140l131 830h61l-131 -830h-61zM258 -10c-45.333 0 -83.501 8.50195 -114.501 25.502s-53 41.667 -66 74s-16.167 70.166 -9.5 113.499l22 144c7.33301 44 22.666 82 45.999 114s53.333 56.5 90 73.5s77.667 25.5 123 25.5c66 0 116.167 -17.333 150.5 -52
s47.833 -82 40.5 -142h-107c2.66699 31.333 -4.66602 55.666 -21.999 72.999s-43.333 26 -78 26c-36.667 0 -66.667 -10.167 -90 -30.5s-38 -49.166 -44 -86.499l-23 -145c-6 -37.333 -0.5 -66.333 16.5 -87s43.833 -31 80.5 -31c34.667 0 63.334 8.66699 86.001 26
s37.667 41.666 45 72.999h108c-12 -60 -40.833 -107.333 -86.5 -142s-101.5 -52 -167.5 -52z" />
    <glyph glyph-name="sterling" unicode="&#xa3;" 
d="M31 0l18.998 117.998c17.333 10.667 35.5 24 54.5 40s35.833 32.833 50.5 50.5s23.334 34.834 26.001 51.501c4.66699 28 5 52 1 72s-10.167 38.167 -18.5 54.5l-24.5 47.5c-8 15.333 -14.167 32.333 -18.5 51s-4.5 40.667 -0.5 66c6 37.333 20.167 70.333 42.5 99
s51.666 50.834 87.999 66.501s77.166 23.5 122.499 23.5c44.667 0 82.334 -7.83301 113.001 -23.5s53 -38.167 67 -67.5s18 -64.333 12 -105h-111c4 30 -2.66699 54.333 -20 73s-43 28 -77 28c-36 0 -65.5 -9 -88.5 -27s-36.833 -42.333 -41.5 -73
c-3.33301 -20 -2.66602 -37.167 2.00098 -51.5s11 -28.333 19 -42s15.833 -28.5 23.5 -44.5s13.334 -35 17.001 -57s2.83398 -49 -2.49902 -81c-4.66699 -28.667 -15.334 -54.5 -32.001 -77.5s-35.667 -42.5 -57 -58.5s-41.333 -27.667 -60 -35h370l-16 -98h-460z
M74.998 298.998l15 92h363l-15 -92h-363z" />
    <glyph glyph-name="currency" unicode="&#xa4;" 
d="M470 112l-104.998 124l56 -19c-18.667 -15.333 -39.834 -26.833 -63.501 -34.5s-48.167 -11.5 -73.5 -11.5c-26 0 -49.667 4 -71 12s-39.666 19.667 -54.999 35l61 12l-136 -117l-55 67l133 116l-21 -58c-13.333 16.667 -22.833 36.667 -28.5 60s-6.16699 48.333 -1.5 75
s13.167 51.167 25.5 73.5s28.166 42.5 47.499 60.5l8 -59l-103 124l74 63l105 -125l-55 21c18.667 14 39.667 24.833 63 32.5s47.666 11.5 72.999 11.5c26.667 0 50.834 -4.16699 72.501 -12.5s40.5 -20.5 56.5 -36.5l-63 -13l134 116l56 -65l-133 -115l23 59
c12 -18 20.5 -38.5 25.5 -61.5s5.16699 -47.5 0.5 -73.5s-12.834 -50.333 -24.501 -73s-26.5 -43 -44.5 -61l-11 59l104 -123zM296.002 248c23.333 0 44.999 5.5 64.999 16.5s37 25.833 51 44.5s22.667 40 26 64c4 24 2 45.333 -6 64s-20.167 33.5 -36.5 44.5
s-36.166 16.5 -59.499 16.5s-45.333 -5.5 -66 -16.5s-38 -25.833 -52 -44.5s-22.667 -40 -26 -64c-4 -24 -2 -45.333 6 -64s20.5 -33.5 37.5 -44.5s37.167 -16.5 60.5 -16.5z" />
    <glyph glyph-name="yen" unicode="&#xa5;" 
d="M58 267l14 84h480l-14 -84h-480zM34 114l13 84h480l-13 -84h-480zM202 0l42.002 269l-143 461h110l85 -276c5.33301 -18 9.5 -34.833 12.5 -50.5s4.83301 -27.834 5.5 -36.501c3.33301 8.66699 8.66602 20.834 15.999 36.501s16.666 32.5 27.999 50.5l171 276h114
l-291 -461l-42 -269h-108z" />
    <glyph glyph-name="brokenbar" unicode="&#xa6;" 
d="M273 450l60 380h108l-60 -380h-108zM185 -110l60 380h108l-60 -380h-108z" />
    <glyph glyph-name="section" unicode="&#xa7;" 
d="M216 -154c-58.667 0 -105.499 14.001 -140.499 42.001s-52.5 65.667 -52.5 113h112c2.66699 -20 12.667 -36 30 -48s39 -18 65 -18h30c36 0 64.667 7.33301 86 22s34 34 38 58c3.33301 22 -1.66699 40 -15 54s-35.333 24.333 -66 31l-89 19
c-48 10 -84.333 29.667 -109 59s-34 63.666 -28 102.999c4 25.333 13.333 48.166 28 68.499s32.834 36.833 54.501 49.5s45.834 20 72.501 22l1 7c-18 1.33301 -36.333 7.16602 -55 17.499s-33.167 26.166 -43.5 47.499s-12.833 48.666 -7.5 81.999
c8 50.667 32.5 90.834 73.5 120.501s94.5 44.5 160.5 44.5h30c56.667 0 101.667 -13.333 135 -40s49.666 -62.334 48.999 -107.001h-111c-1.33301 16.667 -9.83301 30.334 -25.5 41.001s-36.167 16 -61.5 16h-30c-32.667 0 -58.834 -6.66699 -78.501 -20
s-31.167 -31.333 -34.5 -54c-3.33301 -20 1.66699 -37 15 -51s33.333 -24.333 60 -31l91 -20c49.333 -10.667 86 -30.5 110 -59.5s32.667 -63.833 26 -104.5c-4 -25.333 -13 -48.166 -27 -68.499s-32.167 -36.5 -54.5 -48.5s-47.5 -18.333 -75.5 -19l-1 -7
c19.333 -1.33301 38.666 -7.66602 57.999 -18.999s34.833 -27.666 46.5 -48.999s14.5 -49 8.5 -83c-8 -52 -33.667 -93.333 -77 -124s-99.333 -46 -168 -46h-30zM311.001 192.001c19.333 -4 37.001 -2 53.001 6s29.667 20.667 41 38s18.666 37.333 21.999 60
s-0.5 42.5 -11.5 59.5s-27.833 27.833 -50.5 32.5l-66 14c-18 4 -34.833 2 -50.5 -6s-28.834 -20.333 -39.501 -37s-17.667 -36 -21 -58c-4.66699 -24.667 -1.66699 -45.667 9 -63s26.334 -28.333 47.001 -33z" />
    <glyph glyph-name="dieresis" unicode="&#xa8;" 
d="M473 645c-21.333 0 -37.1631 6.16699 -47.4961 18.5s-13.833 28.833 -10.5 49.5c3.33301 21.333 12.166 38.166 26.499 50.499s31.833 18.5 52.5 18.5c21.333 0 37.166 -6.16699 47.499 -18.5s13.833 -29.166 10.5 -50.499
c-2.66699 -20.667 -11.334 -37.167 -26.001 -49.5s-32.334 -18.5 -53.001 -18.5zM244.003 645c-20.667 0 -36.168 6.16699 -46.501 18.5s-14.166 28.833 -11.499 49.5c3.33301 21.333 12.166 38.166 26.499 50.499s32.166 18.5 53.499 18.5
c20.667 0 36.334 -6.16699 47.001 -18.5s14 -29.166 10 -50.499c-2.66699 -20.667 -11.167 -37.167 -25.5 -49.5s-32.166 -18.5 -53.499 -18.5z" />
    <glyph glyph-name="copyright" unicode="&#xa9;" 
d="M273 110c-50.667 0 -93.502 10 -128.502 30s-60.333 48 -76 84s-19.834 78 -12.501 126l24 150c8 48 25.333 90 52 126s60.834 64 102.501 84s87.834 30 138.501 30c51.333 0 94.5 -10 129.5 -30s60.333 -48 76 -84s19.5 -78 11.5 -126l-24 -150
c-7.33301 -48 -24.5 -90 -51.5 -126s-61.167 -64 -102.5 -84s-87.666 -30 -138.999 -30zM280.998 160c40 0 76.168 7.83301 108.501 23.5s59.166 37.834 80.499 66.501s35 62 41 100l24 150c6 38 3 71.167 -9 99.5s-31.833 50.5 -59.5 66.5s-61.5 24 -101.5 24
c-39.333 0 -75.333 -8 -108 -24s-59.667 -38.167 -81 -66.5s-35 -61.5 -41 -99.5l-24 -150c-6 -38 -2.83301 -71.333 9.5 -100s32.333 -50.834 60 -66.501s61.167 -23.5 100.5 -23.5zM299.999 245c-38 0 -67.166 10.833 -87.499 32.5s-27.5 50.167 -21.5 85.5l19 124
c6 35.333 22.5 63.833 49.5 85.5s59.5 32.5 97.5 32.5s67 -10.833 87 -32.5s27 -50.167 21 -85.5h-71c2.66699 17.333 -0.333008 31.166 -9 41.499s-21.334 15.5 -38.001 15.5s-31.167 -5.16699 -43.5 -15.5s-19.833 -24.166 -22.5 -41.499l-19 -124
c-2.66699 -17.333 0.333008 -31.166 9 -41.499s21.667 -15.5 39 -15.5c16.667 0 31 5.16699 43 15.5s19.333 24.166 22 41.499h71c-6 -35.333 -22.333 -63.833 -49 -85.5s-59 -32.5 -97 -32.5z" />
    <glyph glyph-name="ordfeminine" unicode="&#xaa;" 
d="M395 455l9 55.001h-3l22 140c2 13.333 -1.66699 24 -11 32s-23 12 -41 12c-16 0 -30 -3.33301 -42 -10s-19.333 -15 -22 -25h-59c8 25.333 23.5 45.166 46.5 59.499s50.833 21.5 83.5 21.5c36 0 63.5 -8 82.5 -24s26.167 -38 21.5 -66l-31 -195h-56zM298 450.001
c-30 0 -52.666 7.83203 -67.999 23.499s-21 36.834 -17 63.501c4 26 16.833 46.667 38.5 62s49.167 23 82.5 23h95l-6 -43h-95c-15.333 0 -28 -3.66699 -38 -11s-16 -17.666 -18 -30.999s1.5 -24 10.5 -32s21.833 -12 38.5 -12c24 0 43.667 5.66699 59 17
s24.666 26.333 27.999 45h11l-7 -45h-11c-10 -18.667 -24.167 -33.334 -42.5 -44.001s-38.5 -16 -60.5 -16z" />
    <glyph glyph-name="guillemotleft" unicode="&#xab;" 
d="M416 40l-152 240l228 240h125l-236 -244l151 -236h-116zM178 40l-152 240l228 240h125l-236 -244l151 -236h-116z" />
    <glyph glyph-name="logicalnot" unicode="&#xac;" 
d="M412 196l21 132h-355l15 97h460l-36 -229h-105z" />
    <glyph glyph-name="uni00AD" unicode="&#xad;" 
d="M136 281l16 98h329l-16 -98h-329z" />
    <glyph glyph-name="registered" unicode="&#xae;" 
d="M273 110c-50.667 0 -93.6709 10 -129.004 30s-60.666 48 -75.999 84s-19.333 78 -12 126l24 150c8 48 25.333 90 52 126s60.834 64 102.501 84s87.834 30 138.501 30c51.333 0 94.5 -10 129.5 -30s60.333 -48 76 -84s19.5 -78 11.5 -126l-24 -150
c-7.33301 -48 -24.5 -90 -51.5 -126s-61.167 -64 -102.5 -84s-87.666 -30 -138.999 -30zM280.996 160c40 0 76.168 7.83301 108.501 23.5s59.166 37.834 80.499 66.501s35 62 41 100l24 150c6 38 3 71.167 -9 99.5s-31.833 50.5 -59.5 66.5s-61.5 24 -101.5 24
c-39.333 0 -75.333 -8 -108 -24s-59.667 -38.167 -81 -66.5s-35 -61.5 -41 -99.5l-24 -150c-6 -38 -2.83301 -71.333 9.5 -100s32.333 -50.834 60 -66.501s61.167 -23.5 100.5 -23.5zM182.997 250l54.998 350h117c36.667 0 64.334 -9.66699 83.001 -29
s25.334 -45 20.001 -77c-4.66699 -28 -16.5 -50.833 -35.5 -68.5s-42.5 -29.167 -70.5 -34.5l21 45l53 -186h-69l-36 139h-50l-22 -139h-66zM278.995 443h50.998c16.667 0 30.334 4.66699 41.001 14s17.334 22 20.001 38c3.33301 16 0.833008 28.667 -7.5 38
s-20.5 14 -36.5 14h-51z" />
    <glyph glyph-name="macron" unicode="&#xaf;" 
d="M195 666l14 85h332l-14 -85h-332z" />
    <glyph glyph-name="degree" unicode="&#xb0;" 
d="M327 450c-44.667 0 -78.667 13.333 -102 40s-31.666 61.667 -24.999 105c7.33301 43.333 26.833 78.333 58.5 105s69.834 40 114.501 40c45.333 0 79.666 -13.333 102.999 -40s31.333 -61.667 24 -105c-6.66699 -43.333 -25.834 -78.333 -57.501 -105
s-70.167 -40 -115.5 -40zM335 505c26 0 48.165 8.33301 66.498 25s29.833 38.334 34.5 65.001c4 27.333 -0.666992 49.333 -14 66s-32.666 25 -57.999 25s-47.166 -8.33301 -65.499 -25s-29.833 -38.667 -34.5 -66c-4 -26.667 0.5 -48.334 13.5 -65.001s32.167 -25 57.5 -25
z" />
    <glyph glyph-name="plusminus" unicode="&#xb1;" 
d="M25 0l13 82h179l32 203h-184l15 97h184l30 188h107l-30 -188h185l-15 -97h-185l-32 -203h177l-14 -82h-462z" />
    <glyph glyph-name="uni00B2" unicode="&#xb2;" 
d="M182 405l14.999 90l184 120c15.333 10 28.166 22.167 38.499 36.5s16.833 28.833 19.5 43.5c3.33301 24 -0.5 42.667 -11.5 56s-27.833 20 -50.5 20c-22 0 -40.833 -6.66699 -56.5 -20s-25.167 -32 -28.5 -56h-78c8.66699 44.667 28.834 80 60.501 106s69.5 39 113.5 39
c46.667 0 81.334 -13 104.001 -39s30.667 -60.667 24 -104c-4 -25.333 -15 -50.333 -33 -75s-41.333 -45.667 -70 -63l-135 -84h212l-11 -70h-297z" />
    <glyph glyph-name="uni00B3" unicode="&#xb3;" 
d="M303 395c-46 0 -80.9971 12.832 -104.997 38.499s-32.333 59.834 -25 102.501h76c-3.33301 -22 0.833984 -39.5 12.501 -52.5s29.167 -19.5 52.5 -19.5c22.667 0 41.5 6.5 56.5 19.5s24.167 30.833 27.5 53.5s-0.333984 40.5 -11.001 53.5s-27 19.5 -49 19.5h-30l10 67
l99 84h-179l11 70h247l-13 -81l-132 -112l4 32c43.333 0 76.166 -12 98.499 -36s30.166 -56.333 23.499 -97c-6.66699 -43.333 -25.834 -77.833 -57.501 -103.5s-70.5 -38.5 -116.5 -38.5z" />
    <glyph glyph-name="acute" unicode="&#xb4;" 
d="M258 645l128 140h121l-135 -140h-114z" />
    <glyph glyph-name="uni00B5" unicode="&#xb5;" 
d="M10 -180l116 729.999h107l-55 -350c-6 -37.333 -1.83301 -66 12.5 -86s40.5 -30 78.5 -30c37.333 0 66.5 10 87.5 30s34.5 48.667 40.5 86l56 350h107l-55 -350c-10.667 -65.333 -37.167 -116.666 -79.5 -153.999s-95.833 -56 -160.5 -56c-31.333 0 -57 4.33301 -77 13
s-35 19.5 -45 32.5s-15.667 25.167 -17 36.5h-6c0.666992 0 1.66699 -4.83301 3 -14.5s2.5 -21 3.5 -34s1.16699 -25.167 0.5 -36.5l-14 -167h-103z" />
    <glyph glyph-name="paragraph" unicode="&#xb6;" 
d="M178 -180l78 490c-56.667 0 -100 15.667 -130 47s-41 72.333 -33 123l13 80c5.33301 34 18 63.833 38 89.5s45.333 45.5 76 59.5s65 21 103 21h88l-145 -910h-88zM351 -180l145 910h88l-145 -910h-88z" />
    <glyph glyph-name="periodcentered" unicode="&#xb7;" 
d="M254 258c-26.667 0 -46.833 7.83301 -60.5 23.5s-18.167 36.834 -13.5 63.501c4 27.333 15.333 49.166 34 65.499s41.334 24.5 68.001 24.5c27.333 0 47.666 -8.16699 60.999 -24.5s17.666 -38.166 12.999 -65.499c-4 -26.667 -15.167 -47.834 -33.5 -63.501
s-41.166 -23.5 -68.499 -23.5z" />
    <glyph glyph-name="cedilla" unicode="&#xb8;" 
d="M123 -210l10.001 59.998h73c15.333 0 28.166 3.83301 38.499 11.5s16.166 15.834 17.499 24.501c2 12.667 -5.66699 23.334 -23 32.001s-43.333 13 -78 13l50 92h61l-30 -59c18.667 -2 37.334 -6.33301 56.001 -13s33.667 -16.167 45 -28.5s15.333 -27.833 12 -46.5
c-3.33301 -23.333 -18 -43.5 -44 -60.5s-57.667 -25.5 -95 -25.5h-93z" />
    <glyph glyph-name="uni00B9" unicode="&#xb9;" 
d="M172 405l11 70h132l45 286l-136 -88l13 85l109 72h102l-56 -355h104l-12 -70h-312z" />
    <glyph glyph-name="ordmasculine" unicode="&#xba;" 
d="M326 446c-36 0 -63.3311 10.333 -81.998 31s-25.667 47 -21 79l11 71c6 32.667 21.5 59 46.5 79s55.5 30 91.5 30c36.667 0 64.667 -10 84 -30s26 -46.333 20 -79l-11 -71c-4.66699 -32 -19.834 -58.333 -45.501 -79s-56.834 -31 -93.501 -31zM334.002 495
c18.667 0 34.6689 5.66699 48.002 17s21.333 26 24 44l11 71c3.33301 18 0.166016 32.667 -9.50098 44s-23.834 17 -42.501 17s-34.5 -5.66699 -47.5 -17s-21.167 -26 -24.5 -44l-11 -71c-2.66699 -18 0.833008 -32.667 10.5 -44s23.5 -17 41.5 -17z" />
    <glyph glyph-name="guillemotright" unicode="&#xbb;" 
d="M222 40l234 246l-150 234h116l152 -240l-228 -240h-124zM-16 40l234 246l-150 234h116l152 -240l-228 -240h-124z" />
    <glyph glyph-name="onequarter" unicode="&#xbc;" 
d="M52 405l9 56.999h117l35 222c-4 -5.33301 -9.66699 -11.666 -17 -18.999s-15.333 -14.333 -24 -21l-70 -52l13 79l81 59h94l-43 -268h95l-9 -57h-281zM430 -0.000976562l10 67h-172l14 86l153 172h78l-164 -186l-3 -16h103l13 85h69l-32 -208h-69zM40 -0.000976562
l475 730h73l-475 -730h-73z" />
    <glyph glyph-name="onehalf" unicode="&#xbd;" 
d="M270 0l10.9971 71.002l138 73c44 23.333 68 47.666 72 72.999c2.66699 17.333 -0.5 31.166 -9.5 41.499s-22.5 15.5 -40.5 15.5c-17.333 0 -32.333 -5.33301 -45 -16s-20.667 -24.667 -24 -42h-68c6.66699 34 23.334 61.5 50.001 82.5s58.667 31.5 96 31.5
c38 0 67.333 -10 88 -30s28.334 -46.333 23.001 -79c-3.33301 -22 -14.333 -42.667 -33 -62s-44 -37 -76 -53l-89 -46l-1 -10c7.33301 1.33301 17.833 2.83301 31.5 4.5s26.834 2.5 39.501 2.5h107l-10 -57h-260zM51.9971 405.002l9 57.001h117l35 222
c-4 -4.66699 -9.66699 -10.834 -17 -18.501s-15.333 -14.5 -24 -20.5l-69 -52l12 78l81 59h94l-43 -268h102l-9 -57h-288zM39.9971 0.00292969l475 730h73l-475 -730h-73z" />
    <glyph glyph-name="threequarters" unicode="&#xbe;" 
d="M430 0l10 67h-172l14 86l153 172h78l-164 -186l-3 -16h103l13 85h69l-32 -208h-69zM173 400c-39.333 0 -69.335 9.66895 -90.002 29.002s-28.667 44.666 -24 75.999h69c-2 -14.667 1.83301 -26.5 11.5 -35.5s23.834 -13.5 42.501 -13.5s34.334 4.66699 47.001 14
s20 21.333 22 36c2.66699 15.333 -0.833008 27.666 -10.5 36.999s-23.167 14 -40.5 14h-30l9 60l85 59h-154l9 54h221l-9 -57l-118 -82l3 19c36 0 63.667 -9.5 83 -28.5s26.333 -44.167 21 -75.5c-4.66699 -31.333 -20.5 -56.833 -47.5 -76.5s-60.167 -29.5 -99.5 -29.5z
M39.998 0.00195312l475 730h73l-475 -730h-73z" />
    <glyph glyph-name="questiondown" unicode="&#xbf;" 
d="M266 -170c-48 0 -88.335 8.66797 -121.002 26.001s-56.167 41.666 -70.5 72.999s-18.166 68.333 -11.499 111c6 38.667 19.667 73 41 103s48 53.5 80 70.5s67.333 26.167 106 27.5l16 98h100l-29 -190h-65c-38 0 -69.667 -9.66699 -95 -29s-40.666 -46 -45.999 -80
s1.66699 -60.667 21 -80s48.333 -29 87 -29h137l-16 -101h-134zM360.998 429.001c-20.667 0 -36.166 6 -46.499 18s-14.166 27.333 -11.499 46c3.33301 19.333 12.166 34.5 26.499 45.5s31.5 16.5 51.5 16.5h23c20 0 35.333 -5.5 46 -16.5s14.667 -26.167 12 -45.5
c-2.66699 -18.667 -11.334 -34 -26.001 -46s-32 -18 -52 -18h-23z" />
    <glyph glyph-name="Agrave" unicode="&#xc0;" 
d="M-1 0l302 730h142l70 -730h-106l-14 185h-207l-74 -185h-113zM220 274l166.002 0.000976562l-17 211c-2.66699 37.333 -4.83398 69.833 -6.50098 97.5s-2.5 46.5 -2.5 56.5l-19.5 -56.5c-9.66699 -27.667 -21.834 -59.834 -36.501 -96.501zM345.002 810.001l-94 140h114
l86 -140h-106z" />
    <glyph glyph-name="Aacute" unicode="&#xc1;" 
d="M-1 0l302 730h142l70 -730h-106l-14 185h-207l-74 -185h-113zM220 274l166.002 0.000976562l-17 211c-2.66699 37.333 -4.83398 69.833 -6.50098 97.5s-2.5 46.5 -2.5 56.5l-19.5 -56.5c-9.66699 -27.667 -21.834 -59.834 -36.501 -96.501zM314.002 810.001l128 140h121
l-135 -140h-114z" />
    <glyph glyph-name="Acircumflex" unicode="&#xc2;" 
d="M-1 0l302 730h142l70 -730h-106l-14 185h-207l-74 -185h-113zM220 274l166.002 0.000976562l-17 211c-2.66699 37.333 -4.83398 69.833 -6.50098 97.5s-2.5 46.5 -2.5 56.5l-19.5 -56.5c-9.66699 -27.667 -21.834 -59.834 -36.501 -96.501zM196.002 810.001l160 140h100
l116 -140h-107l-67 76l-88 -76h-114z" />
    <glyph glyph-name="Atilde" unicode="&#xc3;" 
d="M-1 0l302 730h142l70 -730h-106l-14 185h-207l-74 -185h-113zM220 274l166.002 0.000976562l-17 211c-2.66699 37.333 -4.83398 69.833 -6.50098 97.5s-2.5 46.5 -2.5 56.5l-19.5 -56.5c-9.66699 -27.667 -21.834 -59.834 -36.501 -96.501zM454.002 811.001
c-20 0 -35.835 3.33203 -47.502 9.99902s-21.167 14.334 -28.5 23.001s-14.5 16.5 -21.5 23.5s-15.833 10.5 -26.5 10.5c-8.66699 0 -16.334 -3 -23.001 -9s-10.667 -14.667 -12 -26l-5 -27h-71l5 31c5.33301 31.333 18.333 56.166 39 74.499s45.334 27.5 74.001 27.5
c20 0 35.833 -3.33301 47.5 -10s21.167 -14.334 28.5 -23.001s14.5 -16.5 21.5 -23.5s15.833 -10.5 26.5 -10.5c9.33301 0 17 2.83301 23 8.5s10 13.834 12 24.501l5 29h71l-5 -31c-5.33301 -31.333 -18.166 -56.166 -38.499 -74.499s-45.166 -27.5 -74.499 -27.5z" />
    <glyph glyph-name="Adieresis" unicode="&#xc4;" 
d="M-1 0l302 730h142l70 -730h-106l-14 185h-207l-74 -185h-113zM220 274l166.002 0.000976562l-17 211c-2.66699 37.333 -4.83398 69.833 -6.50098 97.5s-2.5 46.5 -2.5 56.5l-19.5 -56.5c-9.66699 -27.667 -21.834 -59.834 -36.501 -96.501zM499.002 813.001
c-21.333 0 -37.1631 6 -47.4961 18s-13.833 28.333 -10.5 49c3.33301 21.333 12.166 38.166 26.499 50.499s32.166 18.5 53.499 18.5c20.667 0 36.167 -6.16699 46.5 -18.5s13.833 -29.166 10.5 -50.499c-2.66699 -20.667 -11.334 -37 -26.001 -49s-32.334 -18 -53.001 -18z
M270.005 813.001c-20.667 0 -36.1689 6 -46.502 18s-14.166 28.333 -11.499 49c3.33301 21.333 12.333 38.166 27 50.499s32.334 18.5 53.001 18.5c21.333 0 37.166 -6.16699 47.499 -18.5s13.5 -29.166 9.5 -50.499c-2.66699 -20.667 -11.167 -37 -25.5 -49
s-32.166 -18 -53.499 -18z" />
    <glyph glyph-name="Aring" unicode="&#xc5;" 
d="M-1 0l302 730h142l70 -730h-106l-14 185h-207l-74 -185h-113zM220 274l166.002 0.000976562l-17 211c-2.66699 37.333 -4.83398 69.833 -6.50098 97.5s-2.5 46.5 -2.5 56.5l-19.5 -56.5c-9.66699 -27.667 -21.834 -59.834 -36.501 -96.501zM376.002 762.001
c-37.333 0 -65.833 10.833 -85.5 32.5s-26.834 50.167 -21.501 85.5s21.333 63.833 48 85.5s59 32.5 97 32.5c37.333 0 65.833 -10.833 85.5 -32.5s26.834 -50.167 21.501 -85.5s-21.333 -63.833 -48 -85.5s-59 -32.5 -97 -32.5zM386.002 820.001c18 0 33.333 5.5 46 16.5
s20.334 25.5 23.001 43.5c3.33301 18 0.333008 32.667 -9 44s-23 17 -41 17s-33.333 -5.66699 -46 -17s-20.667 -26 -24 -44c-2.66699 -18 0.666016 -32.5 9.99902 -43.5s23 -16.5 41 -16.5z" />
    <glyph glyph-name="AE" unicode="&#xc6;" 
d="M-23 0l259 730h409l-15 -95h-177l-33 -210h152l-16 -97h-151l-38 -233h177l-15 -95h-274l30 192h-135l-66 -192h-107zM178 276h120l58 359h-54z" />
    <glyph glyph-name="Ccedilla" unicode="&#xc7;" 
d="M130 -210l9 59.998h73c15.333 0 28.333 3.83301 39 11.5s16.334 15.834 17.001 24.501c2.66699 12.667 -4.83301 23.334 -22.5 32.001s-43.5 13 -77.5 13l49 92h62l-30 -59c18 -2 36.333 -6.33301 55 -13s33.667 -16.167 45 -28.5s15.666 -27.833 12.999 -46.5
c-3.33301 -23.333 -18 -43.5 -44 -60.5s-58 -25.5 -96 -25.5h-92zM258 -10.002c-45.333 0 -83.498 8.50098 -114.498 25.501s-53 41.667 -66 74s-16.167 70.166 -9.5 113.499l51 324c7.33301 44 22.666 82 45.999 114s53.166 56.5 89.499 73.5s77.166 25.5 122.499 25.5
s83.166 -8.66699 113.499 -26s52.333 -41.833 66 -73.5s16.834 -69.5 9.50098 -113.5h-108c6.66699 38 1.5 67 -15.5 87s-43.833 30 -80.5 30s-66.834 -10 -90.501 -30s-38.5 -48.667 -44.5 -86l-51 -325c-6 -37.333 -0.333008 -66.166 17 -86.499s44 -30.5 80 -30.5
c36.667 0 66.667 10.167 90 30.5s38 49.166 44 86.499h108c-6.66699 -43.333 -21.667 -81 -45 -113s-53.166 -56.667 -89.499 -74s-77.166 -26 -122.499 -26z" />
    <glyph glyph-name="Egrave" unicode="&#xc8;" 
d="M50 0l116 730h429l-15 -96h-323l-33 -207h288l-16 -95h-287l-38 -236h323l-15 -96h-429zM365 810l-94 140h114l86 -140h-106z" />
    <glyph glyph-name="Eacute" unicode="&#xc9;" 
d="M50 0l116 730h429l-15 -96h-323l-33 -207h288l-16 -95h-287l-38 -236h323l-15 -96h-429zM334 810l128 140h121l-135 -140h-114z" />
    <glyph glyph-name="Ecircumflex" unicode="&#xca;" 
d="M50 0l116 730h429l-15 -96h-323l-33 -207h288l-16 -95h-287l-38 -236h323l-15 -96h-429zM216 810l160 140h100l116 -140h-107l-67 76l-88 -76h-114z" />
    <glyph glyph-name="Edieresis" unicode="&#xcb;" 
d="M50 0l116 730h429l-15 -96h-323l-33 -207h288l-16 -95h-287l-38 -236h323l-15 -96h-429zM519 813c-21.333 0 -37.1631 6 -47.4961 18s-13.833 28.333 -10.5 49c3.33301 21.333 12.166 38.166 26.499 50.499s32.166 18.5 53.499 18.5c20.667 0 36.167 -6.16699 46.5 -18.5
s13.833 -29.166 10.5 -50.499c-2.66699 -20.667 -11.334 -37 -26.001 -49s-32.334 -18 -53.001 -18zM290.003 813c-20.667 0 -36.1689 6 -46.502 18s-14.166 28.333 -11.499 49c3.33301 21.333 12.333 38.166 27 50.499s32.334 18.5 53.001 18.5
c21.333 0 37.166 -6.16699 47.499 -18.5s13.5 -29.166 9.5 -50.499c-2.66699 -20.667 -11.167 -37 -25.5 -49s-32.166 -18 -53.499 -18z" />
    <glyph glyph-name="Igrave" unicode="&#xcc;" 
d="M54 0l15 96h148l85 538h-148l16 96h404l-15 -96h-148l-85 -538h148l-16 -96h-404zM345 810l-94 140h114l86 -140h-106z" />
    <glyph glyph-name="Iacute" unicode="&#xcd;" 
d="M54 0l15 96h148l85 538h-148l16 96h404l-15 -96h-148l-85 -538h148l-16 -96h-404zM314 810l128 140h121l-135 -140h-114z" />
    <glyph glyph-name="Icircumflex" unicode="&#xce;" 
d="M54 0l15 96h148l85 538h-148l16 96h404l-15 -96h-148l-85 -538h148l-16 -96h-404zM196 810l160 140h100l116 -140h-107l-67 76l-88 -76h-114z" />
    <glyph glyph-name="Idieresis" unicode="&#xcf;" 
d="M54 0l15 96h148l85 538h-148l16 96h404l-15 -96h-148l-85 -538h148l-16 -96h-404zM499 813c-21.333 0 -37.1631 6 -47.4961 18s-13.833 28.333 -10.5 49c3.33301 21.333 12.166 38.166 26.499 50.499s32.166 18.5 53.499 18.5c20.667 0 36.167 -6.16699 46.5 -18.5
s13.833 -29.166 10.5 -50.499c-2.66699 -20.667 -11.334 -37 -26.001 -49s-32.334 -18 -53.001 -18zM270.003 813c-20.667 0 -36.1689 6 -46.502 18s-14.166 28.333 -11.499 49c3.33301 21.333 12.333 38.166 27 50.499s32.334 18.5 53.001 18.5
c21.333 0 37.166 -6.16699 47.499 -18.5s13.5 -29.166 9.5 -50.499c-2.66699 -20.667 -11.167 -37 -25.5 -49s-32.166 -18 -53.499 -18z" />
    <glyph glyph-name="Eth" unicode="&#xd0;" 
d="M10 332v81h280v-81h-280zM39 0l116 729.998h204c48 0 88.333 -9.16699 121 -27.5s56 -44.166 70 -77.499s17.333 -72.666 10 -117.999l-44 -283c-7.33301 -44.667 -23.5 -84 -48.5 -118s-56.667 -60.167 -95 -78.5s-81.5 -27.5 -129.5 -27.5h-204zM163 97.998
l95 0.000976562c40 0 73.5 11.167 100.5 33.5s43.5 53.166 49.5 92.499l44 283c6.66699 38.667 0.166992 69.167 -19.5 91.5s-49.5 33.5 -89.5 33.5h-96z" />
    <glyph glyph-name="Ntilde" unicode="&#xd1;" 
d="M37 0l116 729.999h135l118 -607c1.33301 19.333 3.16602 42.333 5.49902 69s5.16602 54.334 8.49902 83.001s7 54.667 11 78l60 377h100l-116 -730h-135l-117 607c-1.33301 -17.333 -3.16602 -39 -5.49902 -65s-5.16602 -53 -8.49902 -81s-7 -54 -11 -78l-61 -383h-100z
M454 810.999c-20 0 -35.835 3.33203 -47.502 9.99902s-21.167 14.334 -28.5 23.001s-14.5 16.5 -21.5 23.5s-15.833 10.5 -26.5 10.5c-8.66699 0 -16.334 -3 -23.001 -9s-10.667 -14.667 -12 -26l-5 -27h-71l5 31c5.33301 31.333 18.333 56.166 39 74.499
s45.334 27.5 74.001 27.5c20 0 35.833 -3.33301 47.5 -10s21.167 -14.334 28.5 -23.001s14.5 -16.5 21.5 -23.5s15.833 -10.5 26.5 -10.5c9.33301 0 17 2.83301 23 8.5s10 13.834 12 24.501l5 29h71l-5 -31c-5.33301 -31.333 -18.166 -56.166 -38.499 -74.499
s-45.166 -27.5 -74.499 -27.5z" />
    <glyph glyph-name="Ograve" unicode="&#xd2;" 
d="M254 -10c-44.667 0 -82.166 8.5 -112.499 25.5s-51.833 41.667 -64.5 74s-15.667 70.166 -9 113.499l51 324c7.33301 44 22.333 82 45 114s52 56.5 88 73.5s76.333 25.5 121 25.5c45.333 0 83.166 -8.5 113.499 -25.5s52 -41.5 65 -73.5s15.833 -69.667 8.5 -113
l-51 -325c-6.66699 -43.333 -21.667 -81.166 -45 -113.499s-52.833 -57 -88.5 -74s-76.167 -25.5 -121.5 -25.5zM269.001 86c36.667 0 66.333 10.167 89 30.5s37 49.166 43 86.499l51 324c6 38 1 67 -15 87s-42.333 30 -79 30s-66.167 -10 -88.5 -30s-36.5 -49 -42.5 -87
l-51 -324c-6 -37.333 -1 -66.166 15 -86.499s42 -30.5 78 -30.5zM345 810l-94 140h114l86 -140h-106z" />
    <glyph glyph-name="Oacute" unicode="&#xd3;" 
d="M254 -10c-44.667 0 -82.166 8.5 -112.499 25.5s-51.833 41.667 -64.5 74s-15.667 70.166 -9 113.499l51 324c7.33301 44 22.333 82 45 114s52 56.5 88 73.5s76.333 25.5 121 25.5c45.333 0 83.166 -8.5 113.499 -25.5s52 -41.5 65 -73.5s15.833 -69.667 8.5 -113
l-51 -325c-6.66699 -43.333 -21.667 -81.166 -45 -113.499s-52.833 -57 -88.5 -74s-76.167 -25.5 -121.5 -25.5zM269.001 86c36.667 0 66.333 10.167 89 30.5s37 49.166 43 86.499l51 324c6 38 1 67 -15 87s-42.333 30 -79 30s-66.167 -10 -88.5 -30s-36.5 -49 -42.5 -87
l-51 -324c-6 -37.333 -1 -66.166 15 -86.499s42 -30.5 78 -30.5zM314 810l128 140h121l-135 -140h-114z" />
    <glyph glyph-name="Ocircumflex" unicode="&#xd4;" 
d="M254 -10c-44.667 0 -82.166 8.5 -112.499 25.5s-51.833 41.667 -64.5 74s-15.667 70.166 -9 113.499l51 324c7.33301 44 22.333 82 45 114s52 56.5 88 73.5s76.333 25.5 121 25.5c45.333 0 83.166 -8.5 113.499 -25.5s52 -41.5 65 -73.5s15.833 -69.667 8.5 -113
l-51 -325c-6.66699 -43.333 -21.667 -81.166 -45 -113.499s-52.833 -57 -88.5 -74s-76.167 -25.5 -121.5 -25.5zM269.001 86c36.667 0 66.333 10.167 89 30.5s37 49.166 43 86.499l51 324c6 38 1 67 -15 87s-42.333 30 -79 30s-66.167 -10 -88.5 -30s-36.5 -49 -42.5 -87
l-51 -324c-6 -37.333 -1 -66.166 15 -86.499s42 -30.5 78 -30.5zM196 810l160 140h100l116 -140h-107l-67 76l-88 -76h-114z" />
    <glyph glyph-name="Otilde" unicode="&#xd5;" 
d="M254 -10c-44.667 0 -82.166 8.5 -112.499 25.5s-51.833 41.667 -64.5 74s-15.667 70.166 -9 113.499l51 324c7.33301 44 22.333 82 45 114s52 56.5 88 73.5s76.333 25.5 121 25.5c45.333 0 83.166 -8.5 113.499 -25.5s52 -41.5 65 -73.5s15.833 -69.667 8.5 -113
l-51 -325c-6.66699 -43.333 -21.667 -81.166 -45 -113.499s-52.833 -57 -88.5 -74s-76.167 -25.5 -121.5 -25.5zM269.001 86c36.667 0 66.333 10.167 89 30.5s37 49.166 43 86.499l51 324c6 38 1 67 -15 87s-42.333 30 -79 30s-66.167 -10 -88.5 -30s-36.5 -49 -42.5 -87
l-51 -324c-6 -37.333 -1 -66.166 15 -86.499s42 -30.5 78 -30.5zM454 811c-20 0 -35.835 3.33203 -47.502 9.99902s-21.167 14.334 -28.5 23.001s-14.5 16.5 -21.5 23.5s-15.833 10.5 -26.5 10.5c-8.66699 0 -16.334 -3 -23.001 -9s-10.667 -14.667 -12 -26l-5 -27h-71l5 31
c5.33301 31.333 18.333 56.166 39 74.499s45.334 27.5 74.001 27.5c20 0 35.833 -3.33301 47.5 -10s21.167 -14.334 28.5 -23.001s14.5 -16.5 21.5 -23.5s15.833 -10.5 26.5 -10.5c9.33301 0 17 2.83301 23 8.5s10 13.834 12 24.501l5 29h71l-5 -31
c-5.33301 -31.333 -18.166 -56.166 -38.499 -74.499s-45.166 -27.5 -74.499 -27.5z" />
    <glyph glyph-name="Odieresis" unicode="&#xd6;" 
d="M254 -10c-44.667 0 -82.166 8.5 -112.499 25.5s-51.833 41.667 -64.5 74s-15.667 70.166 -9 113.499l51 324c7.33301 44 22.333 82 45 114s52 56.5 88 73.5s76.333 25.5 121 25.5c45.333 0 83.166 -8.5 113.499 -25.5s52 -41.5 65 -73.5s15.833 -69.667 8.5 -113
l-51 -325c-6.66699 -43.333 -21.667 -81.166 -45 -113.499s-52.833 -57 -88.5 -74s-76.167 -25.5 -121.5 -25.5zM269.001 86c36.667 0 66.333 10.167 89 30.5s37 49.166 43 86.499l51 324c6 38 1 67 -15 87s-42.333 30 -79 30s-66.167 -10 -88.5 -30s-36.5 -49 -42.5 -87
l-51 -324c-6 -37.333 -1 -66.166 15 -86.499s42 -30.5 78 -30.5zM499 813c-21.333 0 -37.1631 6 -47.4961 18s-13.833 28.333 -10.5 49c3.33301 21.333 12.166 38.166 26.499 50.499s32.166 18.5 53.499 18.5c20.667 0 36.167 -6.16699 46.5 -18.5
s13.833 -29.166 10.5 -50.499c-2.66699 -20.667 -11.334 -37 -26.001 -49s-32.334 -18 -53.001 -18zM270.003 813c-20.667 0 -36.1689 6 -46.502 18s-14.166 28.333 -11.499 49c3.33301 21.333 12.333 38.166 27 50.499s32.334 18.5 53.001 18.5
c21.333 0 37.166 -6.16699 47.499 -18.5s13.5 -29.166 9.5 -50.499c-2.66699 -20.667 -11.167 -37 -25.5 -49s-32.166 -18 -53.499 -18z" />
    <glyph glyph-name="multiply" unicode="&#xd7;" 
d="M141 125l-58 69l156 135l-112 135l75 64l113 -134l160 139l58 -70l-160 -137l113 -135l-75 -65l-113 135z" />
    <glyph glyph-name="Oslash" unicode="&#xd8;" 
d="M-21 -40l571 790h96l-571 -790h-96zM254 -10c-44.667 0 -82.167 8.5 -112.5 25.5s-51.833 41.667 -64.5 74s-15.667 70.166 -9 113.499l51 324c7.33301 44 22.333 82 45 114s52 56.5 88 73.5s76.333 25.5 121 25.5c45.333 0 83 -8.5 113 -25.5s51.5 -41.5 64.5 -73.5
s16.167 -69.667 9.5 -113l-51 -325c-6.66699 -43.333 -21.667 -81.166 -45 -113.499s-52.833 -57 -88.5 -74s-76.167 -25.5 -121.5 -25.5zM269 86c37.333 0 67.3359 10.167 90.0029 30.5s37 49.166 43 86.499l51 324c6.66699 38 1.66699 67 -15 87s-43.334 30 -80.001 30
s-66.334 -10 -89.001 -30s-37.334 -49 -44.001 -87l-51 -324c-6 -37.333 -0.666992 -66.166 16 -86.499s43 -30.5 79 -30.5z" />
    <glyph glyph-name="Ugrave" unicode="&#xd9;" 
d="M254 -10c-70 0 -120.834 19.167 -152.501 57.5s-42.167 90.5 -31.5 156.5l83 526h108l-83 -526c-6.66699 -36.667 -2.33398 -65.667 12.999 -87s41.333 -32 78 -32s66.167 10.667 88.5 32s36.5 50.333 42.5 87l83 526h108l-83 -526
c-7.33301 -44 -22.166 -82.167 -44.499 -114.5s-51.166 -57 -86.499 -74s-76.333 -25.5 -123 -25.5zM344.999 810l-94 140h114l86 -140h-106z" />
    <glyph glyph-name="Uacute" unicode="&#xda;" 
d="M254 -10c-70 0 -120.834 19.167 -152.501 57.5s-42.167 90.5 -31.5 156.5l83 526h108l-83 -526c-6.66699 -36.667 -2.33398 -65.667 12.999 -87s41.333 -32 78 -32s66.167 10.667 88.5 32s36.5 50.333 42.5 87l83 526h108l-83 -526
c-7.33301 -44 -22.166 -82.167 -44.499 -114.5s-51.166 -57 -86.499 -74s-76.333 -25.5 -123 -25.5zM313.999 810l128 140h121l-135 -140h-114z" />
    <glyph glyph-name="Ucircumflex" unicode="&#xdb;" 
d="M254 -10c-70 0 -120.834 19.167 -152.501 57.5s-42.167 90.5 -31.5 156.5l83 526h108l-83 -526c-6.66699 -36.667 -2.33398 -65.667 12.999 -87s41.333 -32 78 -32s66.167 10.667 88.5 32s36.5 50.333 42.5 87l83 526h108l-83 -526
c-7.33301 -44 -22.166 -82.167 -44.499 -114.5s-51.166 -57 -86.499 -74s-76.333 -25.5 -123 -25.5zM195.999 810l160 140h100l116 -140h-107l-67 76l-88 -76h-114z" />
    <glyph glyph-name="Udieresis" unicode="&#xdc;" 
d="M254 -10c-70 0 -120.834 19.167 -152.501 57.5s-42.167 90.5 -31.5 156.5l83 526h108l-83 -526c-6.66699 -36.667 -2.33398 -65.667 12.999 -87s41.333 -32 78 -32s66.167 10.667 88.5 32s36.5 50.333 42.5 87l83 526h108l-83 -526
c-7.33301 -44 -22.166 -82.167 -44.499 -114.5s-51.166 -57 -86.499 -74s-76.333 -25.5 -123 -25.5zM498.999 813c-21.333 0 -37.1631 6 -47.4961 18s-13.833 28.333 -10.5 49c3.33301 21.333 12.166 38.166 26.499 50.499s32.166 18.5 53.499 18.5
c20.667 0 36.167 -6.16699 46.5 -18.5s13.833 -29.166 10.5 -50.499c-2.66699 -20.667 -11.334 -37 -26.001 -49s-32.334 -18 -53.001 -18zM270.002 813c-20.667 0 -36.1689 6 -46.502 18s-14.166 28.333 -11.499 49c3.33301 21.333 12.333 38.166 27 50.499
s32.334 18.5 53.001 18.5c21.333 0 37.166 -6.16699 47.499 -18.5s13.5 -29.166 9.5 -50.499c-2.66699 -20.667 -11.167 -37 -25.5 -49s-32.166 -18 -53.499 -18z" />
    <glyph glyph-name="Yacute" unicode="&#xdd;" 
d="M202 0l42.002 269l-143 461h110l85 -276c5.33301 -18 9.5 -34.833 12.5 -50.5s4.83301 -27.834 5.5 -36.501c3.33301 8.66699 8.66602 20.834 15.999 36.501s16.666 32.5 27.999 50.5l171 276h114l-291 -461l-42 -269h-108zM314.002 810l128 140h121l-135 -140h-114z" />
    <glyph glyph-name="Thorn" unicode="&#xde;" 
d="M40 0l116 730h108l-23 -146h143c67.333 0 118 -18.5 152 -55.5s46 -86.5 36 -148.5c-6 -42 -20.5 -78.333 -43.5 -109s-52.333 -54.167 -88 -70.5s-76.167 -24.5 -121.5 -24.5h-143l-28 -176h-108zM190 269l136 -0.000976562c37.333 0 68 10 92 30s38.667 47 44 81
c5.33301 34.667 -1 61.834 -19 81.501s-45.333 29.5 -82 29.5h-136z" />
    <glyph glyph-name="germandbls" unicode="&#xdf;" 
d="M-132 -180l15 92.9961h55c28.667 0 51.334 6.66699 68.001 20s27 33 31 59l86 537c6.66699 42 21.5 79 44.5 111s52.5 56.667 88.5 74s76.333 26 121 26c44 0 81.5 -7.5 112.5 -22.5s53.667 -36.5 68 -64.5s18.166 -62 11.499 -102
c-5.33301 -33.333 -17.5 -62.833 -36.5 -88.5s-43.167 -45.667 -72.5 -60s-62.666 -21.166 -99.999 -20.499l2 15c39.333 0.666992 72.333 -6.66602 99 -21.999s46 -37.166 58 -65.499s15 -62.166 9 -101.499c-6.66699 -40.667 -21.834 -76.667 -45.501 -108
s-53.667 -55.833 -90 -73.5s-77.166 -26.5 -122.499 -26.5h-62l15 95h54c37.333 0 68.5 10.833 93.5 32.5s40.5 50.5 46.5 86.5s-0.166992 64.333 -18.5 85s-46.5 31 -84.5 31h-45l14 87h42c34.667 0 63.667 10.667 87 32s37.333 48.333 42 81
c6 36 0.333008 64.167 -17 84.5s-43.333 30.5 -78 30.5c-35.333 0 -64.833 -10.333 -88.5 -31s-38.5 -49 -44.5 -85l-86 -539c-8 -52.667 -31.333 -94.167 -70 -124.5s-87.334 -45.5 -146.001 -45.5h-56z" />
    <glyph glyph-name="agrave" unicode="&#xe0;" 
d="M215 -10c-54.667 0 -95.501 18.668 -122.501 56.001s-35.167 87.666 -24.5 150.999l24 155c6.66699 43.333 20 80.333 40 111s44.833 54.5 74.5 71.5s62.834 25.5 99.501 25.5c45.333 0 79.5 -12.5 102.5 -37.5s30.833 -59.167 23.5 -102.5l-19 25h24l15 105h107
l-87 -550h-106l17 105h-23l27 25c-7.33301 -43.333 -26.5 -77.5 -57.5 -102.5s-69.167 -37.5 -114.5 -37.5zM267.999 84.001c34 0 62.499 10.5 85.499 31.5s37.5 50.167 43.5 87.5l22 144c6.66699 37.333 1.83398 66.5 -14.499 87.5s-41.833 31.5 -76.5 31.5
c-35.333 0 -64 -10.167 -86 -30.5s-36.333 -49.833 -43 -88.5l-22 -144c-6.66699 -38.667 -2 -68.167 14 -88.5s41.667 -30.5 77 -30.5zM323.998 645.001l-94 140h114l86 -140h-106z" />
    <glyph glyph-name="aacute" unicode="&#xe1;" 
d="M215 -10c-54.667 0 -95.501 18.668 -122.501 56.001s-35.167 87.666 -24.5 150.999l24 155c6.66699 43.333 20 80.333 40 111s44.833 54.5 74.5 71.5s62.834 25.5 99.501 25.5c45.333 0 79.5 -12.5 102.5 -37.5s30.833 -59.167 23.5 -102.5l-19 25h24l15 105h107
l-87 -550h-106l17 105h-23l27 25c-7.33301 -43.333 -26.5 -77.5 -57.5 -102.5s-69.167 -37.5 -114.5 -37.5zM267.999 84.001c34 0 62.499 10.5 85.499 31.5s37.5 50.167 43.5 87.5l22 144c6.66699 37.333 1.83398 66.5 -14.499 87.5s-41.833 31.5 -76.5 31.5
c-35.333 0 -64 -10.167 -86 -30.5s-36.333 -49.833 -43 -88.5l-22 -144c-6.66699 -38.667 -2 -68.167 14 -88.5s41.667 -30.5 77 -30.5zM292.998 645.001l128 140h121l-135 -140h-114z" />
    <glyph glyph-name="acircumflex" unicode="&#xe2;" 
d="M215 -10c-54.667 0 -95.501 18.668 -122.501 56.001s-35.167 87.666 -24.5 150.999l24 155c6.66699 43.333 20 80.333 40 111s44.833 54.5 74.5 71.5s62.834 25.5 99.501 25.5c45.333 0 79.5 -12.5 102.5 -37.5s30.833 -59.167 23.5 -102.5l-19 25h24l15 105h107
l-87 -550h-106l17 105h-23l27 25c-7.33301 -43.333 -26.5 -77.5 -57.5 -102.5s-69.167 -37.5 -114.5 -37.5zM267.999 84.001c34 0 62.499 10.5 85.499 31.5s37.5 50.167 43.5 87.5l22 144c6.66699 37.333 1.83398 66.5 -14.499 87.5s-41.833 31.5 -76.5 31.5
c-35.333 0 -64 -10.167 -86 -30.5s-36.333 -49.833 -43 -88.5l-22 -144c-6.66699 -38.667 -2 -68.167 14 -88.5s41.667 -30.5 77 -30.5zM174.998 645.001l160 140h100l116 -140h-107l-67 76l-88 -76h-114z" />
    <glyph glyph-name="atilde" unicode="&#xe3;" 
d="M215 -10c-54.667 0 -95.501 18.668 -122.501 56.001s-35.167 87.666 -24.5 150.999l24 155c6.66699 43.333 20 80.333 40 111s44.833 54.5 74.5 71.5s62.834 25.5 99.501 25.5c45.333 0 79.5 -12.5 102.5 -37.5s30.833 -59.167 23.5 -102.5l-19 25h24l15 105h107
l-87 -550h-106l17 105h-23l27 25c-7.33301 -43.333 -26.5 -77.5 -57.5 -102.5s-69.167 -37.5 -114.5 -37.5zM267.999 84.001c34 0 62.499 10.5 85.499 31.5s37.5 50.167 43.5 87.5l22 144c6.66699 37.333 1.83398 66.5 -14.499 87.5s-41.833 31.5 -76.5 31.5
c-35.333 0 -64 -10.167 -86 -30.5s-36.333 -49.833 -43 -88.5l-22 -144c-6.66699 -38.667 -2 -68.167 14 -88.5s41.667 -30.5 77 -30.5zM432.998 646.001c-20 0 -35.834 3.33203 -47.501 9.99902s-21.167 14.334 -28.5 23.001s-14.5 16.5 -21.5 23.5
s-15.833 10.5 -26.5 10.5c-8.66699 0 -16.334 -3 -23.001 -9s-11 -14.667 -13 -26l-4 -27h-71l5 31c5.33301 31.333 18.333 56.166 39 74.499s45.334 27.5 74.001 27.5c20 0 35.833 -3.33301 47.5 -10s21 -14.334 28 -23.001s14 -16.5 21 -23.5s15.833 -10.5 26.5 -10.5
c9.33301 0 17.166 2.83301 23.499 8.5s10.5 13.834 12.5 24.501l5 29h71l-5 -31c-5.33301 -31.333 -18.166 -56.166 -38.499 -74.499s-45.166 -27.5 -74.499 -27.5z" />
    <glyph glyph-name="adieresis" unicode="&#xe4;" 
d="M215 -10c-54.667 0 -95.501 18.668 -122.501 56.001s-35.167 87.666 -24.5 150.999l24 155c6.66699 43.333 20 80.333 40 111s44.833 54.5 74.5 71.5s62.834 25.5 99.501 25.5c45.333 0 79.5 -12.5 102.5 -37.5s30.833 -59.167 23.5 -102.5l-19 25h24l15 105h107
l-87 -550h-106l17 105h-23l27 25c-7.33301 -43.333 -26.5 -77.5 -57.5 -102.5s-69.167 -37.5 -114.5 -37.5zM267.999 84.001c34 0 62.499 10.5 85.499 31.5s37.5 50.167 43.5 87.5l22 144c6.66699 37.333 1.83398 66.5 -14.499 87.5s-41.833 31.5 -76.5 31.5
c-35.333 0 -64 -10.167 -86 -30.5s-36.333 -49.833 -43 -88.5l-22 -144c-6.66699 -38.667 -2 -68.167 14 -88.5s41.667 -30.5 77 -30.5zM477.998 645.001c-21.333 0 -37.1631 6.16699 -47.4961 18.5s-13.833 28.833 -10.5 49.5c3.33301 21.333 12.166 38.166 26.499 50.499
s31.833 18.5 52.5 18.5c21.333 0 37.166 -6.16699 47.499 -18.5s13.833 -29.166 10.5 -50.499c-2.66699 -20.667 -11.334 -37.167 -26.001 -49.5s-32.334 -18.5 -53.001 -18.5zM249.001 645.001c-20.667 0 -36.168 6.16699 -46.501 18.5s-14.166 28.833 -11.499 49.5
c3.33301 21.333 12.166 38.166 26.499 50.499s32.166 18.5 53.499 18.5c20.667 0 36.334 -6.16699 47.001 -18.5s14 -29.166 10 -50.499c-2.66699 -20.667 -11.167 -37.167 -25.5 -49.5s-32.166 -18.5 -53.499 -18.5z" />
    <glyph glyph-name="aring" unicode="&#xe5;" 
d="M215 -10c-54.667 0 -95.501 18.668 -122.501 56.001s-35.167 87.666 -24.5 150.999l24 155c6.66699 43.333 20 80.333 40 111s44.833 54.5 74.5 71.5s62.834 25.5 99.501 25.5c45.333 0 79.5 -12.5 102.5 -37.5s30.833 -59.167 23.5 -102.5l-19 25h24l15 105h107
l-87 -550h-106l17 105h-23l27 25c-7.33301 -43.333 -26.5 -77.5 -57.5 -102.5s-69.167 -37.5 -114.5 -37.5zM267.999 84.001c34 0 62.499 10.5 85.499 31.5s37.5 50.167 43.5 87.5l22 144c6.66699 37.333 1.83398 66.5 -14.499 87.5s-41.833 31.5 -76.5 31.5
c-35.333 0 -64 -10.167 -86 -30.5s-36.333 -49.833 -43 -88.5l-22 -144c-6.66699 -38.667 -2 -68.167 14 -88.5s41.667 -30.5 77 -30.5zM356.998 605.001c-38 0 -66.668 10.833 -86.001 32.5s-26.666 50.167 -21.999 85.5c6 35.333 22.167 63.833 48.5 85.5
s58.5 32.5 96.5 32.5s66.833 -10.833 86.5 -32.5s26.5 -50.167 20.5 -85.5c-4.66699 -35.333 -20.5 -63.833 -47.5 -85.5s-59.167 -32.5 -96.5 -32.5zM365.997 663.001c18 0 33.333 5.5 46 16.5s20.334 25.5 23.001 43.5c3.33301 18.667 0.333008 33.5 -9 44.5
s-23 16.5 -41 16.5s-33.333 -5.5 -46 -16.5s-20.667 -25.833 -24 -44.5c-2.66699 -18 0.666016 -32.5 9.99902 -43.5s23 -16.5 41 -16.5z" />
    <glyph glyph-name="ae" unicode="&#xe6;" 
d="M125 -10c-41.333 0 -72.166 12.998 -92.499 38.998s-27.166 60.667 -20.499 104l9 57c6.66699 41.333 26.167 74.333 58.5 99s72.166 37 119.499 37h65l12 76c4 26 2 45 -6 57s-22.333 18 -43 18c-17.333 0 -32.166 -5.66699 -44.499 -17
s-20.166 -26.666 -23.499 -45.999h-94c7.33301 44 25.666 79.333 54.999 106s64.333 40 105 40c26 0 46.667 -4.16699 62 -12.5s26.666 -18.666 33.999 -30.999s11 -24.166 11 -35.499h5c4 11.333 11.167 23.166 21.5 35.499s24.5 22.666 42.5 30.999s39.333 12.5 64 12.5
c44.667 0 77.667 -14.167 99 -42.5s28.333 -66.5 21 -114.5l-24 -149h-218l-16 -107c-4 -22 -1.5 -39.833 7.5 -53.5s22.833 -20.5 41.5 -20.5c19.333 0 35.5 5.33301 48.5 16s20.833 25.334 23.5 44.001h94c-6.66699 -42.667 -25.5 -77.167 -56.5 -103.5
s-68.167 -39.5 -111.5 -39.5c-24.667 0 -44.667 4.16699 -60 12.5s-26.333 18.666 -33 30.999s-10 24.166 -10 35.499h-5c-3.33301 -11.333 -10.833 -23.166 -22.5 -35.499s-27.334 -22.666 -47.001 -30.999s-43.5 -12.5 -71.5 -12.5zM161 72.998
c18.667 0 34.8311 6.83398 48.498 20.501s22.5 31.5 26.5 53.5l16 107h-63c-19.333 0 -35.166 -5.66699 -47.499 -17s-20.166 -27 -23.499 -47l-8 -57c-3.33301 -18.667 -0.333008 -33.334 9 -44.001s23.333 -16 42 -16zM353.997 325.999h124l13 77
c3.33301 22.667 0.5 40.667 -8.5 54s-23.5 20 -43.5 20c-18.667 0 -34.5 -6.66699 -47.5 -20s-21.167 -31.333 -24.5 -54z" />
    <glyph glyph-name="ccedilla" unicode="&#xe7;" 
d="M127 -210l10.0029 59.998h73c15.333 0 28.166 3.83301 38.499 11.5s16.166 15.834 17.499 24.501c2 12.667 -5.83301 23.334 -23.5 32.001s-43.5 13 -77.5 13l49 92h62l-30 -59c18 -2 36.333 -6.33301 55 -13s33.667 -16.167 45 -28.5s15.666 -27.833 12.999 -46.5
c-3.33301 -23.333 -18 -43.5 -44 -60.5s-58 -25.5 -96 -25.5h-92zM258.003 -10.002c-45.333 0 -83.501 8.50195 -114.501 25.502s-53 41.667 -66 74s-16.167 70.166 -9.5 113.499l22 144c7.33301 44 22.666 82 45.999 114s53.333 56.5 90 73.5s77.667 25.5 123 25.5
c66 0 116.167 -17.333 150.5 -52s47.833 -82 40.5 -142h-107c2.66699 31.333 -4.66602 55.666 -21.999 72.999s-43.333 26 -78 26c-36.667 0 -66.667 -10.167 -90 -30.5s-38 -49.166 -44 -86.499l-23 -145c-6 -37.333 -0.5 -66.333 16.5 -87s43.833 -31 80.5 -31
c34.667 0 63.334 8.66699 86.001 26s37.667 41.666 45 72.999h108c-12 -60 -40.833 -107.333 -86.5 -142s-101.5 -52 -167.5 -52z" />
    <glyph glyph-name="egrave" unicode="&#xe8;" 
d="M254 -10c-44.667 0 -81.999 8.83398 -111.999 26.501s-51.5 42.5 -64.5 74.5s-16.167 69.333 -9.5 112l22 144c7.33301 43.333 22.666 80.833 45.999 112.5s52.833 56.334 88.5 74.001s75.834 26.5 120.501 26.5c45.333 0 83 -8.83301 113 -26.5
s51.5 -42.334 64.5 -74.001s15.833 -69.167 8.5 -112.5l-15 -98h-337l-7 -46c-6 -40.667 -1 -71.667 15 -93s43.333 -32 82 -32c31.333 0 57.166 5.5 77.499 16.5s34.5 27.167 42.5 48.5h107c-10 -31.333 -26.5 -58.333 -49.5 -81s-51 -40.334 -84 -53.001
s-69.167 -19 -108.5 -19zM422.001 314.001l5.00098 34c6.66699 40 2.16699 71 -13.5 93s-42.834 33 -81.501 33s-69.5 -11 -92.5 -33s-37.833 -53.333 -44.5 -94l-4 -25l240 1zM319.002 645.001l-94 140h114l86 -140h-106z" />
    <glyph glyph-name="eacute" unicode="&#xe9;" 
d="M254 -10c-44.667 0 -81.999 8.83398 -111.999 26.501s-51.5 42.5 -64.5 74.5s-16.167 69.333 -9.5 112l22 144c7.33301 43.333 22.666 80.833 45.999 112.5s52.833 56.334 88.5 74.001s75.834 26.5 120.501 26.5c45.333 0 83 -8.83301 113 -26.5
s51.5 -42.334 64.5 -74.001s15.833 -69.167 8.5 -112.5l-15 -98h-337l-7 -46c-6 -40.667 -1 -71.667 15 -93s43.333 -32 82 -32c31.333 0 57.166 5.5 77.499 16.5s34.5 27.167 42.5 48.5h107c-10 -31.333 -26.5 -58.333 -49.5 -81s-51 -40.334 -84 -53.001
s-69.167 -19 -108.5 -19zM422.001 314.001l5.00098 34c6.66699 40 2.16699 71 -13.5 93s-42.834 33 -81.501 33s-69.5 -11 -92.5 -33s-37.833 -53.333 -44.5 -94l-4 -25l240 1zM288.002 645.001l128 140h121l-135 -140h-114z" />
    <glyph glyph-name="ecircumflex" unicode="&#xea;" 
d="M254 -10c-44.667 0 -81.999 8.83398 -111.999 26.501s-51.5 42.5 -64.5 74.5s-16.167 69.333 -9.5 112l22 144c7.33301 43.333 22.666 80.833 45.999 112.5s52.833 56.334 88.5 74.001s75.834 26.5 120.501 26.5c45.333 0 83 -8.83301 113 -26.5
s51.5 -42.334 64.5 -74.001s15.833 -69.167 8.5 -112.5l-15 -98h-337l-7 -46c-6 -40.667 -1 -71.667 15 -93s43.333 -32 82 -32c31.333 0 57.166 5.5 77.499 16.5s34.5 27.167 42.5 48.5h107c-10 -31.333 -26.5 -58.333 -49.5 -81s-51 -40.334 -84 -53.001
s-69.167 -19 -108.5 -19zM422.001 314.001l5.00098 34c6.66699 40 2.16699 71 -13.5 93s-42.834 33 -81.501 33s-69.5 -11 -92.5 -33s-37.833 -53.333 -44.5 -94l-4 -25l240 1zM170.002 645.001l160 140h100l116 -140h-107l-67 76l-88 -76h-114z" />
    <glyph glyph-name="edieresis" unicode="&#xeb;" 
d="M254 -10c-44.667 0 -81.999 8.83398 -111.999 26.501s-51.5 42.5 -64.5 74.5s-16.167 69.333 -9.5 112l22 144c7.33301 43.333 22.666 80.833 45.999 112.5s52.833 56.334 88.5 74.001s75.834 26.5 120.501 26.5c45.333 0 83 -8.83301 113 -26.5
s51.5 -42.334 64.5 -74.001s15.833 -69.167 8.5 -112.5l-15 -98h-337l-7 -46c-6 -40.667 -1 -71.667 15 -93s43.333 -32 82 -32c31.333 0 57.166 5.5 77.499 16.5s34.5 27.167 42.5 48.5h107c-10 -31.333 -26.5 -58.333 -49.5 -81s-51 -40.334 -84 -53.001
s-69.167 -19 -108.5 -19zM422.001 314.001l5.00098 34c6.66699 40 2.16699 71 -13.5 93s-42.834 33 -81.501 33s-69.5 -11 -92.5 -33s-37.833 -53.333 -44.5 -94l-4 -25l240 1zM473.002 645.001c-21.333 0 -37.1631 6.16699 -47.4961 18.5s-13.833 28.833 -10.5 49.5
c3.33301 21.333 12.166 38.166 26.499 50.499s31.833 18.5 52.5 18.5c21.333 0 37.166 -6.16699 47.499 -18.5s13.833 -29.166 10.5 -50.499c-2.66699 -20.667 -11.334 -37.167 -26.001 -49.5s-32.334 -18.5 -53.001 -18.5zM244.005 645.001
c-20.667 0 -36.168 6.16699 -46.501 18.5s-14.166 28.833 -11.499 49.5c3.33301 21.333 12.166 38.166 26.499 50.499s32.166 18.5 53.499 18.5c20.667 0 36.334 -6.16699 47.001 -18.5s14 -29.166 10 -50.499c-2.66699 -20.667 -11.167 -37.167 -25.5 -49.5
s-32.166 -18.5 -53.499 -18.5z" />
    <glyph glyph-name="igrave" unicode="&#xec;" 
d="M33 0l16 98h193l56 354h-168l15 98h273l-71 -452h178l-16 -98h-476zM335 645l-94 140h114l86 -140h-106z" />
    <glyph glyph-name="iacute" unicode="&#xed;" 
d="M33 0l16 98h193l56 354h-168l15 98h273l-71 -452h178l-16 -98h-476zM304 645l128 140h121l-135 -140h-114z" />
    <glyph glyph-name="icircumflex" unicode="&#xee;" 
d="M33 0l16 98h193l56 354h-168l15 98h273l-71 -452h178l-16 -98h-476zM186 645l160 140h100l116 -140h-107l-67 76l-88 -76h-114z" />
    <glyph glyph-name="idieresis" unicode="&#xef;" 
d="M33 0l16 98h193l56 354h-168l15 98h273l-71 -452h178l-16 -98h-476zM489 645c-21.333 0 -37.1631 6.16699 -47.4961 18.5s-13.833 28.833 -10.5 49.5c3.33301 21.333 12.166 38.166 26.499 50.499s31.833 18.5 52.5 18.5c21.333 0 37.166 -6.16699 47.499 -18.5
s13.833 -29.166 10.5 -50.499c-2.66699 -20.667 -11.334 -37.167 -26.001 -49.5s-32.334 -18.5 -53.001 -18.5zM260.003 645c-20.667 0 -36.168 6.16699 -46.501 18.5s-14.166 28.833 -11.499 49.5c3.33301 21.333 12.166 38.166 26.499 50.499s32.166 18.5 53.499 18.5
c20.667 0 36.334 -6.16699 47.001 -18.5s14 -29.166 10 -50.499c-2.66699 -20.667 -11.167 -37.167 -25.5 -49.5s-32.166 -18.5 -53.499 -18.5z" />
    <glyph glyph-name="eth" unicode="&#xf0;" 
d="M254 -7c-47.333 0 -87.3301 9.50195 -119.997 28.502s-56.167 45.667 -70.5 80s-18.166 74.166 -11.499 119.499c7.33301 44.667 22.166 83.5 44.499 116.5s50.666 58.667 84.999 77s72.5 27.5 114.5 27.5c20 0 37.667 -3.33301 53 -10s28 -15 38 -25s17 -19.333 21 -28
h11c-0.666992 5.33301 -4.83398 16.666 -12.501 33.999s-19.834 40.666 -36.501 69.999l-47 83l-174 -69l13 89l121 50l-55 94h113l31 -56l171 65l-13 -90l-118 -45l58 -98c27.333 -45.333 46.166 -91.666 56.499 -138.999s11.833 -92.666 4.5 -135.999
c-7.33301 -48 -23.666 -89.833 -48.999 -125.5s-57.5 -63.334 -96.5 -83.001s-82.833 -29.5 -131.5 -29.5zM269.003 86.002c40 0 74.002 12.333 102.002 37s45 57.334 51 98.001c4.66699 27.333 3 51 -5 71s-20.833 35.667 -38.5 47s-39.834 17 -66.501 17
c-39.333 0 -72.833 -12.5 -100.5 -37.5s-44.834 -57.5 -51.501 -97.5c-6 -40.667 1 -73.334 21 -98.001s49.333 -37 88 -37z" />
    <glyph glyph-name="ntilde" unicode="&#xf1;" 
d="M40 0l87.002 550h107l-17 -105h26l-30 -25c7.33301 44 26 78.333 56 103s68 37 114 37c54.667 0 95.5 -17.5 122.5 -52.5s35.833 -82.167 26.5 -141.5l-58 -366h-108l56 354c5.33301 36 0.166016 64 -15.501 84s-40.5 30 -74.5 30s-62.333 -10.5 -85 -31.5
s-37.334 -50.833 -44.001 -89.5l-55 -347h-108zM428.002 646c-20 0 -35.834 3.33203 -47.501 9.99902s-21.167 14.334 -28.5 23.001s-14.5 16.5 -21.5 23.5s-15.833 10.5 -26.5 10.5c-8.66699 0 -16.334 -3 -23.001 -9s-11 -14.667 -13 -26l-4 -27h-71l5 31
c5.33301 31.333 18.333 56.166 39 74.499s45.334 27.5 74.001 27.5c20 0 35.833 -3.33301 47.5 -10s21 -14.334 28 -23.001s14 -16.5 21 -23.5s15.833 -10.5 26.5 -10.5c9.33301 0 17.166 2.83301 23.499 8.5s10.5 13.834 12.5 24.501l5 29h71l-5 -31
c-5.33301 -31.333 -18.166 -56.166 -38.499 -74.499s-45.166 -27.5 -74.499 -27.5z" />
    <glyph glyph-name="ograve" unicode="&#xf2;" 
d="M254 -10c-44.667 0 -82.167 8.5 -112.5 25.5s-51.833 41.667 -64.5 74s-15.667 70.166 -9 113.499l22 144c7.33301 44 22.5 82 45.5 114s52.5 56.5 88.5 73.5s76.333 25.5 121 25.5c45.333 0 83 -8.5 113 -25.5s51.5 -41.5 64.5 -73.5s16.167 -69.667 9.5 -113l-23 -145
c-6.66699 -43.333 -21.667 -81.166 -45 -113.499s-52.833 -57 -88.5 -74s-76.167 -25.5 -121.5 -25.5zM269 85c36.667 0 66.334 10 89.001 30s37 49.333 43 88l22 144c6.66699 38.667 1.83398 68 -14.499 88s-42.5 30 -78.5 30s-65.333 -10 -88 -30
s-37.334 -49.333 -44.001 -88l-22 -144c-6 -38.667 -0.833008 -68 15.5 -88s42.166 -30 77.499 -30zM319 645l-94 140h114l86 -140h-106z" />
    <glyph glyph-name="oacute" unicode="&#xf3;" 
d="M254 -10c-44.667 0 -82.167 8.5 -112.5 25.5s-51.833 41.667 -64.5 74s-15.667 70.166 -9 113.499l22 144c7.33301 44 22.5 82 45.5 114s52.5 56.5 88.5 73.5s76.333 25.5 121 25.5c45.333 0 83 -8.5 113 -25.5s51.5 -41.5 64.5 -73.5s16.167 -69.667 9.5 -113l-23 -145
c-6.66699 -43.333 -21.667 -81.166 -45 -113.499s-52.833 -57 -88.5 -74s-76.167 -25.5 -121.5 -25.5zM269 85c36.667 0 66.334 10 89.001 30s37 49.333 43 88l22 144c6.66699 38.667 1.83398 68 -14.499 88s-42.5 30 -78.5 30s-65.333 -10 -88 -30
s-37.334 -49.333 -44.001 -88l-22 -144c-6 -38.667 -0.833008 -68 15.5 -88s42.166 -30 77.499 -30zM288 645l128 140h121l-135 -140h-114z" />
    <glyph glyph-name="ocircumflex" unicode="&#xf4;" 
d="M254 -10c-44.667 0 -82.167 8.5 -112.5 25.5s-51.833 41.667 -64.5 74s-15.667 70.166 -9 113.499l22 144c7.33301 44 22.5 82 45.5 114s52.5 56.5 88.5 73.5s76.333 25.5 121 25.5c45.333 0 83 -8.5 113 -25.5s51.5 -41.5 64.5 -73.5s16.167 -69.667 9.5 -113l-23 -145
c-6.66699 -43.333 -21.667 -81.166 -45 -113.499s-52.833 -57 -88.5 -74s-76.167 -25.5 -121.5 -25.5zM269 85c36.667 0 66.334 10 89.001 30s37 49.333 43 88l22 144c6.66699 38.667 1.83398 68 -14.499 88s-42.5 30 -78.5 30s-65.333 -10 -88 -30
s-37.334 -49.333 -44.001 -88l-22 -144c-6 -38.667 -0.833008 -68 15.5 -88s42.166 -30 77.499 -30zM170 645l160 140h100l116 -140h-107l-67 76l-88 -76h-114z" />
    <glyph glyph-name="otilde" unicode="&#xf5;" 
d="M254 -10c-44.667 0 -82.167 8.5 -112.5 25.5s-51.833 41.667 -64.5 74s-15.667 70.166 -9 113.499l22 144c7.33301 44 22.5 82 45.5 114s52.5 56.5 88.5 73.5s76.333 25.5 121 25.5c45.333 0 83 -8.5 113 -25.5s51.5 -41.5 64.5 -73.5s16.167 -69.667 9.5 -113l-23 -145
c-6.66699 -43.333 -21.667 -81.166 -45 -113.499s-52.833 -57 -88.5 -74s-76.167 -25.5 -121.5 -25.5zM269 85c36.667 0 66.334 10 89.001 30s37 49.333 43 88l22 144c6.66699 38.667 1.83398 68 -14.499 88s-42.5 30 -78.5 30s-65.333 -10 -88 -30
s-37.334 -49.333 -44.001 -88l-22 -144c-6 -38.667 -0.833008 -68 15.5 -88s42.166 -30 77.499 -30zM428 646c-20 0 -35.834 3.33203 -47.501 9.99902s-21.167 14.334 -28.5 23.001s-14.5 16.5 -21.5 23.5s-15.833 10.5 -26.5 10.5c-8.66699 0 -16.334 -3 -23.001 -9
s-11 -14.667 -13 -26l-4 -27h-71l5 31c5.33301 31.333 18.333 56.166 39 74.499s45.334 27.5 74.001 27.5c20 0 35.833 -3.33301 47.5 -10s21 -14.334 28 -23.001s14 -16.5 21 -23.5s15.833 -10.5 26.5 -10.5c9.33301 0 17.166 2.83301 23.499 8.5s10.5 13.834 12.5 24.501
l5 29h71l-5 -31c-5.33301 -31.333 -18.166 -56.166 -38.499 -74.499s-45.166 -27.5 -74.499 -27.5z" />
    <glyph glyph-name="odieresis" unicode="&#xf6;" 
d="M254 -10c-44.667 0 -82.167 8.5 -112.5 25.5s-51.833 41.667 -64.5 74s-15.667 70.166 -9 113.499l22 144c7.33301 44 22.5 82 45.5 114s52.5 56.5 88.5 73.5s76.333 25.5 121 25.5c45.333 0 83 -8.5 113 -25.5s51.5 -41.5 64.5 -73.5s16.167 -69.667 9.5 -113l-23 -145
c-6.66699 -43.333 -21.667 -81.166 -45 -113.499s-52.833 -57 -88.5 -74s-76.167 -25.5 -121.5 -25.5zM269 85c36.667 0 66.334 10 89.001 30s37 49.333 43 88l22 144c6.66699 38.667 1.83398 68 -14.499 88s-42.5 30 -78.5 30s-65.333 -10 -88 -30
s-37.334 -49.333 -44.001 -88l-22 -144c-6 -38.667 -0.833008 -68 15.5 -88s42.166 -30 77.499 -30zM473 645c-21.333 0 -37.1631 6.16699 -47.4961 18.5s-13.833 28.833 -10.5 49.5c3.33301 21.333 12.166 38.166 26.499 50.499s31.833 18.5 52.5 18.5
c21.333 0 37.166 -6.16699 47.499 -18.5s13.833 -29.166 10.5 -50.499c-2.66699 -20.667 -11.334 -37.167 -26.001 -49.5s-32.334 -18.5 -53.001 -18.5zM244.003 645c-20.667 0 -36.168 6.16699 -46.501 18.5s-14.166 28.833 -11.499 49.5
c3.33301 21.333 12.166 38.166 26.499 50.499s32.166 18.5 53.499 18.5c20.667 0 36.334 -6.16699 47.001 -18.5s14 -29.166 10 -50.499c-2.66699 -20.667 -11.167 -37.167 -25.5 -49.5s-32.166 -18.5 -53.499 -18.5z" />
    <glyph glyph-name="divide" unicode="&#xf7;" 
d="M101 285l15 94h400l-15 -94h-400zM257 78c-20.667 0 -36.166 5.5 -46.499 16.5s-14.166 26.167 -11.499 45.5c3.33301 18.667 12 34 26 46s31.333 18 52 18h22c20.667 0 36.5 -6 47.5 -18s14.833 -27.333 11.5 -46c-2.66699 -19.333 -11.334 -34.5 -26.001 -45.5
s-32.334 -16.5 -53.001 -16.5h-22zM318.001 460c-20.667 0 -36.334 5.5 -47.001 16.5s-14.667 26.167 -12 45.5c3.33301 19.333 12.166 34.833 26.499 46.5s31.5 17.5 51.5 17.5h23c20.667 0 36.334 -5.83301 47.001 -17.5s14.334 -27.167 11.001 -46.5
c-2.66699 -18.667 -11.167 -33.667 -25.5 -45s-31.833 -17 -52.5 -17h-22z" />
    <glyph glyph-name="oslash" unicode="&#xf8;" 
d="M-17 -30l534 620h100l-535 -620h-99zM254 -10c-44.667 0 -82.166 8.5 -112.499 25.5s-51.833 41.667 -64.5 74s-15.667 70.166 -9 113.499l22 144c7.33301 44 22.5 82 45.5 114s52.5 56.5 88.5 73.5s76.333 25.5 121 25.5c45.333 0 83.166 -8.5 113.499 -25.5
s52 -41.5 65 -73.5s15.833 -69.667 8.5 -113l-23 -145c-6.66699 -43.333 -21.667 -81.166 -45 -113.499s-52.833 -57 -88.5 -74s-76.167 -25.5 -121.5 -25.5zM269.001 85c38 0 69 10.5 93 31.5s39 49.833 45 86.5l23 144c6 37.333 0.166992 66.333 -17.5 87
s-45.167 31 -82.5 31c-38 0 -69 -10.333 -93 -31s-39 -49.667 -45 -87l-23 -144c-6 -36.667 -0.166992 -65.5 17.5 -86.5s45.167 -31.5 82.5 -31.5z" />
    <glyph glyph-name="ugrave" unicode="&#xf9;" 
d="M253 -10c-66 0 -115.499 19.167 -148.499 57.5s-44.167 90.5 -33.5 156.5l54 346h108l-54 -346c-6 -38 -1 -67.5 15 -88.5s41 -31.5 75 -31.5s62.5 10.5 85.5 31.5s37.5 50.5 43.5 88.5l55 346h108l-55 -346c-6.66699 -44 -21.5 -82 -44.5 -114s-52.333 -56.667 -88 -74
s-75.834 -26 -120.501 -26zM319.001 645l-94 140h114l86 -140h-106z" />
    <glyph glyph-name="uacute" unicode="&#xfa;" 
d="M253 -10c-66 0 -115.499 19.167 -148.499 57.5s-44.167 90.5 -33.5 156.5l54 346h108l-54 -346c-6 -38 -1 -67.5 15 -88.5s41 -31.5 75 -31.5s62.5 10.5 85.5 31.5s37.5 50.5 43.5 88.5l55 346h108l-55 -346c-6.66699 -44 -21.5 -82 -44.5 -114s-52.333 -56.667 -88 -74
s-75.834 -26 -120.501 -26zM288.001 645l128 140h121l-135 -140h-114z" />
    <glyph glyph-name="ucircumflex" unicode="&#xfb;" 
d="M253 -10c-66 0 -115.499 19.167 -148.499 57.5s-44.167 90.5 -33.5 156.5l54 346h108l-54 -346c-6 -38 -1 -67.5 15 -88.5s41 -31.5 75 -31.5s62.5 10.5 85.5 31.5s37.5 50.5 43.5 88.5l55 346h108l-55 -346c-6.66699 -44 -21.5 -82 -44.5 -114s-52.333 -56.667 -88 -74
s-75.834 -26 -120.501 -26zM170.001 645l160 140h100l116 -140h-107l-67 76l-88 -76h-114z" />
    <glyph glyph-name="udieresis" unicode="&#xfc;" 
d="M253 -10c-66 0 -115.499 19.167 -148.499 57.5s-44.167 90.5 -33.5 156.5l54 346h108l-54 -346c-6 -38 -1 -67.5 15 -88.5s41 -31.5 75 -31.5s62.5 10.5 85.5 31.5s37.5 50.5 43.5 88.5l55 346h108l-55 -346c-6.66699 -44 -21.5 -82 -44.5 -114s-52.333 -56.667 -88 -74
s-75.834 -26 -120.501 -26zM473.001 645c-21.333 0 -37.1631 6.16699 -47.4961 18.5s-13.833 28.833 -10.5 49.5c3.33301 21.333 12.166 38.166 26.499 50.499s31.833 18.5 52.5 18.5c21.333 0 37.166 -6.16699 47.499 -18.5s13.833 -29.166 10.5 -50.499
c-2.66699 -20.667 -11.334 -37.167 -26.001 -49.5s-32.334 -18.5 -53.001 -18.5zM244.004 645c-20.667 0 -36.168 6.16699 -46.501 18.5s-14.166 28.833 -11.499 49.5c3.33301 21.333 12.166 38.166 26.499 50.499s32.166 18.5 53.499 18.5
c20.667 0 36.334 -6.16699 47.001 -18.5s14 -29.166 10 -50.499c-2.66699 -20.667 -11.167 -37.167 -25.5 -49.5s-32.166 -18.5 -53.499 -18.5z" />
    <glyph glyph-name="yacute" unicode="&#xfd;" 
d="M83 -180l15.001 93h169c28 0 50 6.66699 66 20s26 33 30 59l9 59l18 104h-27l30 25c-6.66699 -44 -25.167 -78.333 -55.5 -103s-68.5 -37 -114.5 -37c-54 0 -94.667 17.5 -122 52.5s-36.333 82.167 -27 141.5l51 316h107l-48 -304c-6 -36 -0.833008 -64 15.5 -84
s41.166 -30 74.499 -30c34 0 62.5 10.5 85.5 31.5s37.5 50.833 43.5 89.5l47 297h108l-89 -560c-7.33301 -52.667 -30.5 -94.167 -69.5 -124.5s-87.833 -45.5 -146.5 -45.5h-170zM288.001 645l128 140h121l-135 -140h-114z" />
    <glyph glyph-name="thorn" unicode="&#xfe;" 
d="M8 -180l37 236h107l-38 -236h-106zM290 -10c-45.333 0 -79.499 12.501 -102.499 37.501s-30.833 59.167 -23.5 102.5l19 -25h-23l-17 -105h-106l116 730h108l-26 -157l-23 -128h24l-26 -25c6.66699 43.333 25.667 77.5 57 102.5s69.333 37.5 114 37.5
c55.333 0 96.333 -18.667 123 -56s35 -88 25 -152l-25 -155c-6.66699 -42.667 -19.834 -79.334 -39.501 -110.001s-44.5 -54.5 -74.5 -71.5s-63.333 -25.5 -100 -25.5zM268.001 84.001c35.333 0 64.167 10.167 86.5 30.5s36.5 49.833 42.5 88.5l23 144
c6 38.667 1 68.167 -15 88.5s-41.667 30.5 -77 30.5c-33.333 0 -61.5 -10.5 -84.5 -31.5s-37.833 -50.167 -44.5 -87.5l-22 -144c-6 -37.333 -0.833008 -66.5 15.5 -87.5s41.5 -31.5 75.5 -31.5z" />
    <glyph glyph-name="ydieresis" unicode="&#xff;" 
d="M83 -180l15.001 93h169c28 0 50 6.66699 66 20s26 33 30 59l9 59l18 104h-27l30 25c-6.66699 -44 -25.167 -78.333 -55.5 -103s-68.5 -37 -114.5 -37c-54 0 -94.667 17.5 -122 52.5s-36.333 82.167 -27 141.5l51 316h107l-48 -304c-6 -36 -0.833008 -64 15.5 -84
s41.166 -30 74.499 -30c34 0 62.5 10.5 85.5 31.5s37.5 50.833 43.5 89.5l47 297h108l-89 -560c-7.33301 -52.667 -30.5 -94.167 -69.5 -124.5s-87.833 -45.5 -146.5 -45.5h-170zM473.001 645c-21.333 0 -37.1631 6.16699 -47.4961 18.5s-13.833 28.833 -10.5 49.5
c3.33301 21.333 12.166 38.166 26.499 50.499s31.833 18.5 52.5 18.5c21.333 0 37.166 -6.16699 47.499 -18.5s13.833 -29.166 10.5 -50.499c-2.66699 -20.667 -11.334 -37.167 -26.001 -49.5s-32.334 -18.5 -53.001 -18.5zM244.004 645
c-20.667 0 -36.168 6.16699 -46.501 18.5s-14.166 28.833 -11.499 49.5c3.33301 21.333 12.166 38.166 26.499 50.499s32.166 18.5 53.499 18.5c20.667 0 36.334 -6.16699 47.001 -18.5s14 -29.166 10 -50.499c-2.66699 -20.667 -11.167 -37.167 -25.5 -49.5
s-32.166 -18.5 -53.499 -18.5z" />
    <glyph glyph-name="Amacron" unicode="&#x100;" 
d="M-1 0l302 730h142l70 -730h-106l-14 185h-207l-74 -185h-113zM220 274l166.002 0.000976562l-17 211c-2.66699 37.333 -4.83398 69.833 -6.50098 97.5s-2.5 46.5 -2.5 56.5l-19.5 -56.5c-9.66699 -27.667 -21.834 -59.834 -36.501 -96.501zM222.002 834.001l14 85h332
l-14 -85h-332z" />
    <glyph glyph-name="amacron" unicode="&#x101;" 
d="M215 -10c-54.667 0 -95.501 18.668 -122.501 56.001s-35.167 87.666 -24.5 150.999l24 155c6.66699 43.333 20 80.333 40 111s44.833 54.5 74.5 71.5s62.834 25.5 99.501 25.5c45.333 0 79.5 -12.5 102.5 -37.5s30.833 -59.167 23.5 -102.5l-19 25h24l15 105h107
l-87 -550h-106l17 105h-23l27 25c-7.33301 -43.333 -26.5 -77.5 -57.5 -102.5s-69.167 -37.5 -114.5 -37.5zM267.999 84.001c34 0 62.499 10.5 85.499 31.5s37.5 50.167 43.5 87.5l22 144c6.66699 37.333 1.83398 66.5 -14.499 87.5s-41.833 31.5 -76.5 31.5
c-35.333 0 -64 -10.167 -86 -30.5s-36.333 -49.833 -43 -88.5l-22 -144c-6.66699 -38.667 -2 -68.167 14 -88.5s41.667 -30.5 77 -30.5zM199.998 666.001l14 85h332l-14 -85h-332z" />
    <glyph glyph-name="Abreve" unicode="&#x102;" 
d="M-1 0l302 730h142l70 -730h-106l-14 185h-207l-74 -185h-113zM220 274l166.002 0.000976562l-17 211c-2.66699 37.333 -4.83398 69.833 -6.50098 97.5s-2.5 46.5 -2.5 56.5l-19.5 -56.5c-9.66699 -27.667 -21.834 -59.834 -36.501 -96.501zM383.002 804.001
c-50 0 -88.168 13.333 -114.501 40s-36.166 62 -29.499 106h83c-4 -24 0.5 -43.333 13.5 -58s31.833 -22 56.5 -22c25.333 0 46.833 7.33301 64.5 22s28.167 34 31.5 58h85c-6.66699 -44 -27.5 -79.333 -62.5 -106s-77.5 -40 -127.5 -40z" />
    <glyph glyph-name="abreve" unicode="&#x103;" 
d="M215 -10c-54.667 0 -95.501 18.668 -122.501 56.001s-35.167 87.666 -24.5 150.999l24 155c6.66699 43.333 20 80.333 40 111s44.833 54.5 74.5 71.5s62.834 25.5 99.501 25.5c45.333 0 79.5 -12.5 102.5 -37.5s30.833 -59.167 23.5 -102.5l-19 25h24l15 105h107
l-87 -550h-106l17 105h-23l27 25c-7.33301 -43.333 -26.5 -77.5 -57.5 -102.5s-69.167 -37.5 -114.5 -37.5zM267.999 84.001c34 0 62.499 10.5 85.499 31.5s37.5 50.167 43.5 87.5l22 144c6.66699 37.333 1.83398 66.5 -14.499 87.5s-41.833 31.5 -76.5 31.5
c-35.333 0 -64 -10.167 -86 -30.5s-36.333 -49.833 -43 -88.5l-22 -144c-6.66699 -38.667 -2 -68.167 14 -88.5s41.667 -30.5 77 -30.5zM361.998 639.001c-50 0 -88.168 13.333 -114.501 40s-36.166 62 -29.499 106h82c-3.33301 -24 1.5 -43.333 14.5 -58
s31.833 -22 56.5 -22c25.333 0 46.833 7.33301 64.5 22s28.167 34 31.5 58h85c-6.66699 -44 -27.5 -79.333 -62.5 -106s-77.5 -40 -127.5 -40z" />
    <glyph glyph-name="Aogonek" unicode="&#x104;" 
d="M417 -210c-38 0 -66.833 9.33398 -86.5 28.001s-27.167 42.334 -22.5 71.001c3.33301 20 14 40.333 32 61s44.667 40.667 80 60h79l-21 -15c-22 -16.667 -38.667 -31.834 -50 -45.501s-18 -26.834 -20 -39.501c-2 -13.333 1 -24.333 9 -33s20 -13 36 -13h62l-11 -74h-87z
M-1 0.000976562l302 730h142l70 -730h-106l-14 185h-207l-74 -185h-113zM220 274.001l166.002 0.000976562l-17 211c-2.66699 37.333 -4.83398 69.833 -6.50098 97.5s-2.5 46.5 -2.5 56.5l-19.5 -56.5c-9.66699 -27.667 -21.834 -59.834 -36.501 -96.501z" />
    <glyph glyph-name="aogonek" unicode="&#x105;" 
d="M404 -210c-38 0 -66.833 9.33203 -86.5 27.999s-27.167 42.334 -22.5 71.001c3.33301 20 14 40.333 32 61s44.667 40.667 80 60l65 -10c-25.333 -19.333 -44 -36 -56 -50s-19 -27.333 -21 -40c-2 -13.333 1 -24.333 9 -33s20 -13 36 -13h62l-11 -74h-87zM215 -10.001
c-54.667 0 -95.501 18.668 -122.501 56.001s-35.167 87.666 -24.5 150.999l24 155c6.66699 43.333 20 80.333 40 111s44.833 54.5 74.5 71.5s62.834 25.5 99.501 25.5c45.333 0 79.5 -12.5 102.5 -37.5s30.833 -59.167 23.5 -102.5l-19 25h24l15 105h107l-87 -550h-106
l17 105h-23l27 25c-7.33301 -43.333 -26.5 -77.5 -57.5 -102.5s-69.167 -37.5 -114.5 -37.5zM267.999 84c34 0 62.499 10.5 85.499 31.5s37.5 50.167 43.5 87.5l22 144c6.66699 37.333 1.83398 66.5 -14.499 87.5s-41.833 31.5 -76.5 31.5c-35.333 0 -64 -10.167 -86 -30.5
s-36.333 -49.833 -43 -88.5l-22 -144c-6.66699 -38.667 -2 -68.167 14 -88.5s41.667 -30.5 77 -30.5z" />
    <glyph glyph-name="Cacute" unicode="&#x106;" 
d="M258 -10c-45.333 0 -83.498 8.50098 -114.498 25.501s-53 41.667 -66 74s-16.167 70.166 -9.5 113.499l51 324c7.33301 44 22.666 82 45.999 114s53.166 56.5 89.499 73.5s77.166 25.5 122.499 25.5s83.166 -8.66699 113.499 -26s52.333 -41.833 66 -73.5
s16.834 -69.5 9.50098 -113.5h-108c6.66699 38 1.5 67 -15.5 87s-43.833 30 -80.5 30s-66.834 -10 -90.501 -30s-38.5 -48.667 -44.5 -86l-51 -325c-6 -37.333 -0.333008 -66.166 17 -86.499s44 -30.5 80 -30.5c36.667 0 66.667 10.167 90 30.5s38 49.166 44 86.499h108
c-6.66699 -43.333 -21.667 -81 -45 -113s-53.166 -56.667 -89.499 -74s-77.166 -26 -122.499 -26zM319.002 810.001l128 140h121l-135 -140h-114z" />
    <glyph glyph-name="cacute" unicode="&#x107;" 
d="M258 -10c-45.333 0 -83.501 8.50195 -114.501 25.502s-53 41.667 -66 74s-16.167 70.166 -9.5 113.499l22 144c7.33301 44 22.666 82 45.999 114s53.333 56.5 90 73.5s77.667 25.5 123 25.5c66 0 116.167 -17.333 150.5 -52s47.833 -82 40.5 -142h-107
c2.66699 31.333 -4.66602 55.666 -21.999 72.999s-43.333 26 -78 26c-36.667 0 -66.667 -10.167 -90 -30.5s-38 -49.166 -44 -86.499l-23 -145c-6 -37.333 -0.5 -66.333 16.5 -87s43.833 -31 80.5 -31c34.667 0 63.334 8.66699 86.001 26s37.667 41.666 45 72.999h108
c-12 -60 -40.833 -107.333 -86.5 -142s-101.5 -52 -167.5 -52zM291.999 645.002l128 140h121l-135 -140h-114z" />
    <glyph glyph-name="Ccircumflex" unicode="&#x108;" 
d="M258 -10c-45.333 0 -83.498 8.50098 -114.498 25.501s-53 41.667 -66 74s-16.167 70.166 -9.5 113.499l51 324c7.33301 44 22.666 82 45.999 114s53.166 56.5 89.499 73.5s77.166 25.5 122.499 25.5s83.166 -8.66699 113.499 -26s52.333 -41.833 66 -73.5
s16.834 -69.5 9.50098 -113.5h-108c6.66699 38 1.5 67 -15.5 87s-43.833 30 -80.5 30s-66.834 -10 -90.501 -30s-38.5 -48.667 -44.5 -86l-51 -325c-6 -37.333 -0.333008 -66.166 17 -86.499s44 -30.5 80 -30.5c36.667 0 66.667 10.167 90 30.5s38 49.166 44 86.499h108
c-6.66699 -43.333 -21.667 -81 -45 -113s-53.166 -56.667 -89.499 -74s-77.166 -26 -122.499 -26zM201.002 810.001l160 140h100l116 -140h-107l-67 76l-88 -76h-114z" />
    <glyph glyph-name="ccircumflex" unicode="&#x109;" 
d="M258 -10c-45.333 0 -83.501 8.50195 -114.501 25.502s-53 41.667 -66 74s-16.167 70.166 -9.5 113.499l22 144c7.33301 44 22.666 82 45.999 114s53.333 56.5 90 73.5s77.667 25.5 123 25.5c66 0 116.167 -17.333 150.5 -52s47.833 -82 40.5 -142h-107
c2.66699 31.333 -4.66602 55.666 -21.999 72.999s-43.333 26 -78 26c-36.667 0 -66.667 -10.167 -90 -30.5s-38 -49.166 -44 -86.499l-23 -145c-6 -37.333 -0.5 -66.333 16.5 -87s43.833 -31 80.5 -31c34.667 0 63.334 8.66699 86.001 26s37.667 41.666 45 72.999h108
c-12 -60 -40.833 -107.333 -86.5 -142s-101.5 -52 -167.5 -52zM169.999 645.002l160 140h100l116 -140h-107l-67 76l-88 -76h-114z" />
    <glyph glyph-name="Cdotaccent" unicode="&#x10a;" 
d="M258 -10c-45.333 0 -83.498 8.50098 -114.498 25.501s-53 41.667 -66 74s-16.167 70.166 -9.5 113.499l51 324c7.33301 44 22.666 82 45.999 114s53.166 56.5 89.499 73.5s77.166 25.5 122.499 25.5s83.166 -8.66699 113.499 -26s52.333 -41.833 66 -73.5
s16.834 -69.5 9.50098 -113.5h-108c6.66699 38 1.5 67 -15.5 87s-43.833 30 -80.5 30s-66.834 -10 -90.501 -30s-38.5 -48.667 -44.5 -86l-51 -325c-6 -37.333 -0.333008 -66.166 17 -86.499s44 -30.5 80 -30.5c36.667 0 66.667 10.167 90 30.5s38 49.166 44 86.499h108
c-6.66699 -43.333 -21.667 -81 -45 -113s-53.166 -56.667 -89.499 -74s-77.166 -26 -122.499 -26zM389.002 812.001c-23.333 0 -40.834 6.16699 -52.501 18.5s-16.167 28.833 -13.5 49.5c4 20.667 13.833 37.167 29.5 49.5s35.5 18.5 59.5 18.5
c23.333 0 40.833 -6.16699 52.5 -18.5s15.834 -28.833 12.501 -49.5s-12.833 -37.167 -28.5 -49.5s-35.5 -18.5 -59.5 -18.5z" />
    <glyph glyph-name="cdotaccent" unicode="&#x10b;" 
d="M258 -10c-45.333 0 -83.501 8.50195 -114.501 25.502s-53 41.667 -66 74s-16.167 70.166 -9.5 113.499l22 144c7.33301 44 22.666 82 45.999 114s53.333 56.5 90 73.5s77.667 25.5 123 25.5c66 0 116.167 -17.333 150.5 -52s47.833 -82 40.5 -142h-107
c2.66699 31.333 -4.66602 55.666 -21.999 72.999s-43.333 26 -78 26c-36.667 0 -66.667 -10.167 -90 -30.5s-38 -49.166 -44 -86.499l-23 -145c-6 -37.333 -0.5 -66.333 16.5 -87s43.833 -31 80.5 -31c34.667 0 63.334 8.66699 86.001 26s37.667 41.666 45 72.999h108
c-12 -60 -40.833 -107.333 -86.5 -142s-101.5 -52 -167.5 -52zM357.999 645.002c-23.333 0 -40.833 6.16699 -52.5 18.5s-16.167 28.833 -13.5 49.5c4 21.333 13.833 38.166 29.5 50.499s35.167 18.5 58.5 18.5s41 -6.16699 53 -18.5s16.333 -29.166 13 -50.499
c-3.33301 -20.667 -12.833 -37.167 -28.5 -49.5s-35.5 -18.5 -59.5 -18.5z" />
    <glyph glyph-name="Ccaron" unicode="&#x10c;" 
d="M258 -10c-45.333 0 -83.498 8.50098 -114.498 25.501s-53 41.667 -66 74s-16.167 70.166 -9.5 113.499l51 324c7.33301 44 22.666 82 45.999 114s53.166 56.5 89.499 73.5s77.166 25.5 122.499 25.5s83.166 -8.66699 113.499 -26s52.333 -41.833 66 -73.5
s16.834 -69.5 9.50098 -113.5h-108c6.66699 38 1.5 67 -15.5 87s-43.833 30 -80.5 30s-66.834 -10 -90.501 -30s-38.5 -48.667 -44.5 -86l-51 -325c-6 -37.333 -0.333008 -66.166 17 -86.499s44 -30.5 80 -30.5c36.667 0 66.667 10.167 90 30.5s38 49.166 44 86.499h108
c-6.66699 -43.333 -21.667 -81 -45 -113s-53.166 -56.667 -89.499 -74s-77.166 -26 -122.499 -26zM339.002 810.001l-116 140h107l68 -76l87 76h114l-160 -140h-100z" />
    <glyph glyph-name="ccaron" unicode="&#x10d;" 
d="M258 -10c-45.333 0 -83.501 8.50195 -114.501 25.502s-53 41.667 -66 74s-16.167 70.166 -9.5 113.499l22 144c7.33301 44 22.666 82 45.999 114s53.333 56.5 90 73.5s77.667 25.5 123 25.5c66 0 116.167 -17.333 150.5 -52s47.833 -82 40.5 -142h-107
c2.66699 31.333 -4.66602 55.666 -21.999 72.999s-43.333 26 -78 26c-36.667 0 -66.667 -10.167 -90 -30.5s-38 -49.166 -44 -86.499l-23 -145c-6 -37.333 -0.5 -66.333 16.5 -87s43.833 -31 80.5 -31c34.667 0 63.334 8.66699 86.001 26s37.667 41.666 45 72.999h108
c-12 -60 -40.833 -107.333 -86.5 -142s-101.5 -52 -167.5 -52zM312.999 645.002l-116 140h107l68 -76l87 76h114l-160 -140h-100z" />
    <glyph glyph-name="Dcaron" unicode="&#x10e;" 
d="M39 0l116 729.998h204c48 0 88.333 -9.16699 121 -27.5s56 -44.166 70 -77.499s17.333 -72.666 10 -117.999l-44 -283c-7.33301 -44.667 -23.5 -84 -48.5 -118s-56.667 -60.167 -95 -78.5s-81.5 -27.5 -129.5 -27.5h-204zM163 97.998l95 0.000976562
c40 0 73.5 11.167 100.5 33.5s43.5 53.166 49.5 92.499l44 283c6.66699 38.667 0.166992 69.167 -19.5 91.5s-49.5 33.5 -89.5 33.5h-96zM334 809.999l-116 140h107l68 -76l87 76h114l-160 -140h-100z" />
    <glyph glyph-name="dcaron" unicode="&#x10f;" 
d="M552 550l29 180h95l-39 -180h-85zM175 -10c-50.667 0 -87.834 18.167 -111.501 54.5s-30.5 85.5 -20.5 147.5l26 165c9.33301 62.667 31.833 112.167 67.5 148.5s78.834 54.5 129.501 54.5c40 0 70 -12.667 90 -38s26.333 -59.333 19 -102l-19 25h24l18 128l25 157h105
l-116 -730h-103l17 105h-23l26 25c-6.66699 -42.667 -24 -76.667 -52 -102s-62 -38 -102 -38zM226 81c30 0 54.833 10.167 74.5 30.5s32.5 49.166 38.5 86.499l24 154c6 37.333 2.5 66.166 -10.5 86.499s-34.5 30.5 -64.5 30.5s-55.167 -10.167 -75.5 -30.5
s-33.5 -49.166 -39.5 -86.499l-25 -154c-6 -37.333 -2 -66.166 12 -86.499s36 -30.5 66 -30.5z" />
    <glyph glyph-name="Dcroat" unicode="&#x110;" 
d="M10 332v81h280v-81h-280zM39 0l116 729.998h204c48 0 88.333 -9.16699 121 -27.5s56 -44.166 70 -77.499s17.333 -72.666 10 -117.999l-44 -283c-7.33301 -44.667 -23.5 -84 -48.5 -118s-56.667 -60.167 -95 -78.5s-81.5 -27.5 -129.5 -27.5h-204zM163 97.998
l95 0.000976562c40 0 73.5 11.167 100.5 33.5s43.5 53.166 49.5 92.499l44 283c6.66699 38.667 0.166992 69.167 -19.5 91.5s-49.5 33.5 -89.5 33.5h-96z" />
    <glyph glyph-name="dcroat" unicode="&#x111;" 
d="M68 197l14.9971 95.001c7.33301 43.333 20.666 80.333 39.999 111s43.833 54.5 73.5 71.5s62.834 25.5 99.501 25.5c40.667 0 72.334 -10.167 95.001 -30.5s33.334 -48.5 32.001 -84.5h3l18 128l8 53h-160l13 79h159l14 85h108l-14 -85h86l-13 -79h-85l-90 -566h-106
l17 105h-2c-10.667 -36 -30.5 -64.167 -59.5 -84.5s-63.833 -30.5 -104.5 -30.5c-55.333 0 -96.166 18.667 -122.499 56s-34.5 87.666 -24.5 150.999zM176.997 203.001c-6 -38.667 -1.16699 -68.167 14.5 -88.5s40.834 -30.5 75.501 -30.5s63.167 10.5 85.5 31.5
s36.5 50.167 42.5 87.5l13 84c6 37.333 1.16699 66.5 -14.5 87.5s-40.834 31.5 -75.501 31.5s-63.167 -10.167 -85.5 -30.5s-36.5 -49.833 -42.5 -88.5z" />
    <glyph glyph-name="Emacron" unicode="&#x112;" 
d="M50 0l116 730h429l-15 -96h-323l-33 -207h288l-16 -95h-287l-38 -236h323l-15 -96h-429zM242 834l14 85h332l-14 -85h-332z" />
    <glyph glyph-name="emacron" unicode="&#x113;" 
d="M254 -10c-44.667 0 -81.999 8.83398 -111.999 26.501s-51.5 42.5 -64.5 74.5s-16.167 69.333 -9.5 112l22 144c7.33301 43.333 22.666 80.833 45.999 112.5s52.833 56.334 88.5 74.001s75.834 26.5 120.501 26.5c45.333 0 83 -8.83301 113 -26.5
s51.5 -42.334 64.5 -74.001s15.833 -69.167 8.5 -112.5l-15 -98h-337l-7 -46c-6 -40.667 -1 -71.667 15 -93s43.333 -32 82 -32c31.333 0 57.166 5.5 77.499 16.5s34.5 27.167 42.5 48.5h107c-10 -31.333 -26.5 -58.333 -49.5 -81s-51 -40.334 -84 -53.001
s-69.167 -19 -108.5 -19zM422.001 314.001l5.00098 34c6.66699 40 2.16699 71 -13.5 93s-42.834 33 -81.501 33s-69.5 -11 -92.5 -33s-37.833 -53.333 -44.5 -94l-4 -25l240 1zM195.002 666.001l14 85h332l-14 -85h-332z" />
    <glyph glyph-name="Ebreve" unicode="&#x114;" 
d="M50 0l116 730h429l-15 -96h-323l-33 -207h288l-16 -95h-287l-38 -236h323l-15 -96h-429zM403 804c-50 0 -88.168 13.333 -114.501 40s-36.166 62 -29.499 106h83c-4 -24 0.5 -43.333 13.5 -58s31.833 -22 56.5 -22c25.333 0 46.833 7.33301 64.5 22s28.167 34 31.5 58h85
c-6.66699 -44 -27.5 -79.333 -62.5 -106s-77.5 -40 -127.5 -40z" />
    <glyph glyph-name="ebreve" unicode="&#x115;" 
d="M254 -10c-44.667 0 -81.999 8.83398 -111.999 26.501s-51.5 42.5 -64.5 74.5s-16.167 69.333 -9.5 112l22 144c7.33301 43.333 22.666 80.833 45.999 112.5s52.833 56.334 88.5 74.001s75.834 26.5 120.501 26.5c45.333 0 83 -8.83301 113 -26.5
s51.5 -42.334 64.5 -74.001s15.833 -69.167 8.5 -112.5l-15 -98h-337l-7 -46c-6 -40.667 -1 -71.667 15 -93s43.333 -32 82 -32c31.333 0 57.166 5.5 77.499 16.5s34.5 27.167 42.5 48.5h107c-10 -31.333 -26.5 -58.333 -49.5 -81s-51 -40.334 -84 -53.001
s-69.167 -19 -108.5 -19zM422.001 314.001l5.00098 34c6.66699 40 2.16699 71 -13.5 93s-42.834 33 -81.501 33s-69.5 -11 -92.5 -33s-37.833 -53.333 -44.5 -94l-4 -25l240 1zM357.002 639.001c-50 0 -88.168 13.333 -114.501 40s-36.166 62 -29.499 106h82
c-3.33301 -24 1.5 -43.333 14.5 -58s31.833 -22 56.5 -22c25.333 0 46.833 7.33301 64.5 22s28.167 34 31.5 58h85c-6.66699 -44 -27.5 -79.333 -62.5 -106s-77.5 -40 -127.5 -40z" />
    <glyph glyph-name="Edotaccent" unicode="&#x116;" 
d="M50 0l116 730h429l-15 -96h-323l-33 -207h288l-16 -95h-287l-38 -236h323l-15 -96h-429zM404 812c-23.333 0 -40.834 6.16699 -52.501 18.5s-16.167 28.833 -13.5 49.5c4 20.667 13.833 37.167 29.5 49.5s35.5 18.5 59.5 18.5c23.333 0 40.833 -6.16699 52.5 -18.5
s15.834 -28.833 12.501 -49.5s-12.833 -37.167 -28.5 -49.5s-35.5 -18.5 -59.5 -18.5z" />
    <glyph glyph-name="edotaccent" unicode="&#x117;" 
d="M254 -10c-44.667 0 -81.999 8.83398 -111.999 26.501s-51.5 42.5 -64.5 74.5s-16.167 69.333 -9.5 112l22 144c7.33301 43.333 22.666 80.833 45.999 112.5s52.833 56.334 88.5 74.001s75.834 26.5 120.501 26.5c45.333 0 83 -8.83301 113 -26.5
s51.5 -42.334 64.5 -74.001s15.833 -69.167 8.5 -112.5l-15 -98h-337l-7 -46c-6 -40.667 -1 -71.667 15 -93s43.333 -32 82 -32c31.333 0 57.166 5.5 77.499 16.5s34.5 27.167 42.5 48.5h107c-10 -31.333 -26.5 -58.333 -49.5 -81s-51 -40.334 -84 -53.001
s-69.167 -19 -108.5 -19zM422.001 314.001l5.00098 34c6.66699 40 2.16699 71 -13.5 93s-42.834 33 -81.501 33s-69.5 -11 -92.5 -33s-37.833 -53.333 -44.5 -94l-4 -25l240 1zM358.002 645.001c-23.333 0 -40.833 6.16699 -52.5 18.5s-16.167 28.833 -13.5 49.5
c4 21.333 13.833 38.166 29.5 50.499s35.167 18.5 58.5 18.5s41 -6.16699 53 -18.5s16.333 -29.166 13 -50.499c-3.33301 -20.667 -12.833 -37.167 -28.5 -49.5s-35.5 -18.5 -59.5 -18.5z" />
    <glyph glyph-name="Eogonek" unicode="&#x118;" 
d="M364 -210c-38 0 -67.001 9.33398 -87.001 28.001s-27.333 42.334 -22 71.001c3.33301 20 14 40.333 32 61s44.667 40.667 80 60h78l-20 -15c-22 -16.667 -38.667 -31.834 -50 -45.501s-18.333 -26.834 -21 -39.501c-1.33301 -13.333 1.83398 -24.333 9.50098 -33
s19.5 -13 35.5 -13h63l-12 -74h-86zM49.999 0.000976562l116 730h429l-15 -96h-323l-33 -207h288l-16 -95h-287l-38 -236h323l-15 -96h-429z" />
    <glyph glyph-name="eogonek" unicode="&#x119;" 
d="M292 -210c-38 0 -66.8311 9.33496 -86.498 28.002s-27.167 42.334 -22.5 71.001c2.66699 17.333 12.167 35.666 28.5 54.999s39.5 38.666 69.5 57.999c-2 -3.33301 -5.5 -6.16602 -10.5 -8.49902s-10.5 -3.5 -16.5 -3.5c-44.667 0 -82 8.83301 -112 26.5
s-51.5 42.5 -64.5 74.5s-16.167 69.333 -9.5 112l22 144c7.33301 43.333 22.666 80.833 45.999 112.5s52.833 56.334 88.5 74.001s75.834 26.5 120.501 26.5c45.333 0 83 -8.83301 113 -26.5s51.5 -42.334 64.5 -74.001s15.833 -69.167 8.5 -112.5l-15 -98h-337l-7 -46
c-6 -40.667 -1 -71.667 15 -93s43.333 -32 82 -32c31.333 0 57.166 5.5 77.499 16.5s34.5 27.167 42.5 48.5h107c-8.66699 -28 -22.834 -52.5 -42.501 -73.5s-42.834 -38.167 -69.501 -51.5l-31 -23c-22 -16.667 -38.667 -31.834 -50 -45.501s-18 -26.834 -20 -39.501
c-2 -13.333 0.833008 -24.333 8.5 -33s19.834 -13 36.501 -13h62l-11 -74h-87zM418.002 292.002l9.00098 56c6.66699 40 2.16699 71 -13.5 93s-42.834 33 -81.501 33s-69.5 -11 -92.5 -33s-37.833 -53.333 -44.5 -94l-4 -25l263 1z" />
    <glyph glyph-name="Ecaron" unicode="&#x11a;" 
d="M50 0l116 730h429l-15 -96h-323l-33 -207h288l-16 -95h-287l-38 -236h323l-15 -96h-429zM354 810l-116 140h107l68 -76l87 76h114l-160 -140h-100z" />
    <glyph glyph-name="ecaron" unicode="&#x11b;" 
d="M254 -10c-44.667 0 -81.999 8.83398 -111.999 26.501s-51.5 42.5 -64.5 74.5s-16.167 69.333 -9.5 112l22 144c7.33301 43.333 22.666 80.833 45.999 112.5s52.833 56.334 88.5 74.001s75.834 26.5 120.501 26.5c45.333 0 83 -8.83301 113 -26.5
s51.5 -42.334 64.5 -74.001s15.833 -69.167 8.5 -112.5l-15 -98h-337l-7 -46c-6 -40.667 -1 -71.667 15 -93s43.333 -32 82 -32c31.333 0 57.166 5.5 77.499 16.5s34.5 27.167 42.5 48.5h107c-10 -31.333 -26.5 -58.333 -49.5 -81s-51 -40.334 -84 -53.001
s-69.167 -19 -108.5 -19zM422.001 314.001l5.00098 34c6.66699 40 2.16699 71 -13.5 93s-42.834 33 -81.501 33s-69.5 -11 -92.5 -33s-37.833 -53.333 -44.5 -94l-4 -25l240 1zM309.002 645.001l-116 140h107l68 -76l87 76h114l-160 -140h-100z" />
    <glyph glyph-name="Gcircumflex" unicode="&#x11c;" 
d="M258 -10c-45.333 0 -83.498 8.50098 -114.498 25.501s-53 41.667 -66 74s-16.167 70.166 -9.5 113.499l51 324c7.33301 44 22.666 82 45.999 114s53.166 56.5 89.499 73.5s77.166 25.5 122.499 25.5s83.166 -8.66699 113.499 -26s52.333 -41.833 66 -73.5
s16.834 -69.5 9.50098 -113.5h-108c6.66699 38 1.5 67 -15.5 87s-43.833 30 -80.5 30s-66.834 -10 -90.501 -30s-38.5 -48.667 -44.5 -86l-51 -325c-6 -37.333 -0.333008 -66.333 17 -87s44 -31 80 -31c36.667 0 66.667 10.333 90 31s38 49.667 44 87l13 82h-136l15 95h244
l-28 -177c-6.66699 -43.333 -21.667 -81 -45 -113s-53.166 -56.667 -89.499 -74s-77.166 -26 -122.499 -26zM196.002 810.001l160 140h100l116 -140h-107l-67 76l-88 -76h-114z" />
    <glyph glyph-name="gcircumflex" unicode="&#x11d;" 
d="M85 -180l13.998 93h169c28 0 50 6.66699 66 20s26 33 30 59l9 55l18 102h-23l26 20c-7.33301 -42 -26 -75 -56 -99s-67.333 -36 -112 -36c-56.667 0 -98.5 18.667 -125.5 56s-35.5 87.666 -25.5 150.999l18 112c6.66699 42.667 19.834 79.334 39.501 110.001
s44.667 54.5 75 71.5s64.166 25.5 101.499 25.5c44.667 0 78.334 -12.167 101.001 -36.5s30.667 -57.5 24 -99.5l-20 21h23l15 105h107l-88 -560c-8.66699 -52.667 -32.167 -94.167 -70.5 -124.5s-87.166 -45.5 -146.499 -45.5h-169zM274.998 127
c34.667 0 63.3311 10.5 85.998 31.5s37.334 50.167 44.001 87.5l15 101c6.66699 37.333 1.66699 66.5 -15 87.5s-42 31.5 -76 31.5c-35.333 0 -64.166 -10.167 -86.499 -30.5s-36.5 -49.833 -42.5 -88.5l-16 -101c-6 -38 -1 -67.333 15 -88s41.333 -31 76 -31zM166.995 645
l160 140h100l116 -140h-107l-67 76l-88 -76h-114z" />
    <glyph glyph-name="Gbreve" unicode="&#x11e;" 
d="M258 -10c-45.333 0 -83.498 8.50098 -114.498 25.501s-53 41.667 -66 74s-16.167 70.166 -9.5 113.499l51 324c7.33301 44 22.666 82 45.999 114s53.166 56.5 89.499 73.5s77.166 25.5 122.499 25.5s83.166 -8.66699 113.499 -26s52.333 -41.833 66 -73.5
s16.834 -69.5 9.50098 -113.5h-108c6.66699 38 1.5 67 -15.5 87s-43.833 30 -80.5 30s-66.834 -10 -90.501 -30s-38.5 -48.667 -44.5 -86l-51 -325c-6 -37.333 -0.333008 -66.333 17 -87s44 -31 80 -31c36.667 0 66.667 10.333 90 31s38 49.667 44 87l13 82h-136l15 95h244
l-28 -177c-6.66699 -43.333 -21.667 -81 -45 -113s-53.166 -56.667 -89.499 -74s-77.166 -26 -122.499 -26zM383.002 804.001c-50 0 -88.168 13.333 -114.501 40s-36.166 62 -29.499 106h83c-4 -24 0.5 -43.333 13.5 -58s31.833 -22 56.5 -22
c25.333 0 46.833 7.33301 64.5 22s28.167 34 31.5 58h85c-6.66699 -44 -27.5 -79.333 -62.5 -106s-77.5 -40 -127.5 -40z" />
    <glyph glyph-name="gbreve" unicode="&#x11f;" 
d="M85 -180l13.998 93h169c28 0 50 6.66699 66 20s26 33 30 59l9 55l18 102h-23l26 20c-7.33301 -42 -26 -75 -56 -99s-67.333 -36 -112 -36c-56.667 0 -98.5 18.667 -125.5 56s-35.5 87.666 -25.5 150.999l18 112c6.66699 42.667 19.834 79.334 39.501 110.001
s44.667 54.5 75 71.5s64.166 25.5 101.499 25.5c44.667 0 78.334 -12.167 101.001 -36.5s30.667 -57.5 24 -99.5l-20 21h23l15 105h107l-88 -560c-8.66699 -52.667 -32.167 -94.167 -70.5 -124.5s-87.166 -45.5 -146.499 -45.5h-169zM274.998 127
c34.667 0 63.3311 10.5 85.998 31.5s37.334 50.167 44.001 87.5l15 101c6.66699 37.333 1.66699 66.5 -15 87.5s-42 31.5 -76 31.5c-35.333 0 -64.166 -10.167 -86.499 -30.5s-36.5 -49.833 -42.5 -88.5l-16 -101c-6 -38 -1 -67.333 15 -88s41.333 -31 76 -31zM353.995 639
c-50 0 -88.168 13.333 -114.501 40s-36.166 62 -29.499 106h82c-3.33301 -24 1.5 -43.333 14.5 -58s31.833 -22 56.5 -22c25.333 0 46.833 7.33301 64.5 22s28.167 34 31.5 58h85c-6.66699 -44 -27.5 -79.333 -62.5 -106s-77.5 -40 -127.5 -40z" />
    <glyph glyph-name="Gdotaccent" unicode="&#x120;" 
d="M258 -10c-45.333 0 -83.498 8.50098 -114.498 25.501s-53 41.667 -66 74s-16.167 70.166 -9.5 113.499l51 324c7.33301 44 22.666 82 45.999 114s53.166 56.5 89.499 73.5s77.166 25.5 122.499 25.5s83.166 -8.66699 113.499 -26s52.333 -41.833 66 -73.5
s16.834 -69.5 9.50098 -113.5h-108c6.66699 38 1.5 67 -15.5 87s-43.833 30 -80.5 30s-66.834 -10 -90.501 -30s-38.5 -48.667 -44.5 -86l-51 -325c-6 -37.333 -0.333008 -66.333 17 -87s44 -31 80 -31c36.667 0 66.667 10.333 90 31s38 49.667 44 87l13 82h-136l15 95h244
l-28 -177c-6.66699 -43.333 -21.667 -81 -45 -113s-53.166 -56.667 -89.499 -74s-77.166 -26 -122.499 -26zM384.002 812.001c-23.333 0 -40.834 6.16699 -52.501 18.5s-16.167 28.833 -13.5 49.5c4 20.667 13.833 37.167 29.5 49.5s35.5 18.5 59.5 18.5
c23.333 0 40.833 -6.16699 52.5 -18.5s15.834 -28.833 12.501 -49.5s-12.833 -37.167 -28.5 -49.5s-35.5 -18.5 -59.5 -18.5z" />
    <glyph glyph-name="gdotaccent" unicode="&#x121;" 
d="M85 -180l13.998 93h169c28 0 50 6.66699 66 20s26 33 30 59l9 55l18 102h-23l26 20c-7.33301 -42 -26 -75 -56 -99s-67.333 -36 -112 -36c-56.667 0 -98.5 18.667 -125.5 56s-35.5 87.666 -25.5 150.999l18 112c6.66699 42.667 19.834 79.334 39.501 110.001
s44.667 54.5 75 71.5s64.166 25.5 101.499 25.5c44.667 0 78.334 -12.167 101.001 -36.5s30.667 -57.5 24 -99.5l-20 21h23l15 105h107l-88 -560c-8.66699 -52.667 -32.167 -94.167 -70.5 -124.5s-87.166 -45.5 -146.499 -45.5h-169zM274.998 127
c34.667 0 63.3311 10.5 85.998 31.5s37.334 50.167 44.001 87.5l15 101c6.66699 37.333 1.66699 66.5 -15 87.5s-42 31.5 -76 31.5c-35.333 0 -64.166 -10.167 -86.499 -30.5s-36.5 -49.833 -42.5 -88.5l-16 -101c-6 -38 -1 -67.333 15 -88s41.333 -31 76 -31zM354.995 645
c-23.333 0 -40.833 6.16699 -52.5 18.5s-16.167 28.833 -13.5 49.5c4 21.333 13.833 38.166 29.5 50.499s35.167 18.5 58.5 18.5s41 -6.16699 53 -18.5s16.333 -29.166 13 -50.499c-3.33301 -20.667 -12.833 -37.167 -28.5 -49.5s-35.5 -18.5 -59.5 -18.5z" />
    <glyph glyph-name="uni0122" unicode="&#x122;" 
d="M258 -10c-45.333 0 -83.498 8.50098 -114.498 25.501s-53 41.667 -66 74s-16.167 70.166 -9.5 113.499l51 324c7.33301 44 22.666 82 45.999 114s53.166 56.5 89.499 73.5s77.166 25.5 122.499 25.5s83.166 -8.66699 113.499 -26s52.333 -41.833 66 -73.5
s16.834 -69.5 9.50098 -113.5h-108c6.66699 38 1.5 67 -15.5 87s-43.833 30 -80.5 30s-66.834 -10 -90.501 -30s-38.5 -48.667 -44.5 -86l-51 -325c-6 -37.333 -0.333008 -66.333 17 -87s44 -31 80 -31c36.667 0 66.667 10.333 90 31s38 49.667 44 87l13 82h-136l15 95h244
l-28 -177c-6.66699 -43.333 -21.667 -81 -45 -113s-53.166 -56.667 -89.499 -74s-77.166 -26 -122.499 -26zM108.002 -239.999l118 145h117l-131 -145h-104z" />
    <glyph glyph-name="uni0123" unicode="&#x123;" 
d="M85 -180l13.998 93h169c28 0 50 6.66699 66 20s26 33 30 59l9 55l18 102h-23l26 20c-7.33301 -42 -26 -75 -56 -99s-67.333 -36 -112 -36c-56.667 0 -98.5 18.667 -125.5 56s-35.5 87.666 -25.5 150.999l18 112c6.66699 42.667 19.834 79.334 39.501 110.001
s44.667 54.5 75 71.5s64.166 25.5 101.499 25.5c44.667 0 78.334 -12.167 101.001 -36.5s30.667 -57.5 24 -99.5l-20 21h23l15 105h107l-88 -560c-8.66699 -52.667 -32.167 -94.167 -70.5 -124.5s-87.166 -45.5 -146.499 -45.5h-169zM274.998 127
c34.667 0 63.3311 10.5 85.998 31.5s37.334 50.167 44.001 87.5l15 101c6.66699 37.333 1.66699 66.5 -15 87.5s-42 31.5 -76 31.5c-35.333 0 -64.166 -10.167 -86.499 -30.5s-36.5 -49.833 -42.5 -88.5l-16 -101c-6 -38 -1 -67.333 15 -88s41.333 -31 76 -31zM512.995 880
l-117 -235h-136l167 235h86z" />
    <glyph glyph-name="Hcircumflex" unicode="&#x124;" 
d="M41 0l116 730h108l-49 -302h215l48 302h108l-116 -730h-108l52 328h-214l-52 -328h-108zM196 810l160 140h100l116 -140h-107l-67 76l-88 -76h-114z" />
    <glyph glyph-name="hcircumflex" unicode="&#x125;" 
d="M40 0l116.002 730h108l-29 -180l-18 -105h26l-30 -25c7.33301 44 26 78.333 56 103s68 37 114 37c54.667 0 95.5 -17.5 122.5 -52.5s35.833 -82.167 26.5 -141.5l-58 -366h-108l56 354c5.33301 36 0.166016 64 -15.501 84s-40.5 30 -74.5 30s-62.333 -10.5 -85 -31.5
s-37.334 -50.833 -44.001 -89.5l-55 -347h-108zM20.002 805l160 140h100l116 -140h-107l-67 76l-88 -76h-114z" />
    <glyph glyph-name="Hbar" unicode="&#x126;" 
d="M50 525l13 81h579l-13 -81h-579zM41 0l116 730h108l-49 -302h215l48 302h108l-116 -730h-108l52 328h-214l-52 -328h-108z" />
    <glyph glyph-name="hbar" unicode="&#x127;" 
d="M45 566l13.0029 79h84l14 85h108l-14 -85h161l-13 -79h-160l-12 -76l-18 -105h1c11.333 36.667 31.166 65 59.499 85s63.166 30 104.499 30c54.667 0 95.5 -17.5 122.5 -52.5s35.833 -82.167 26.5 -141.5l-48 -306h-108l47 294c5.33301 36 0 64 -16 84s-40.667 30 -74 30
c-34.667 0 -63.334 -10.5 -86.001 -31.5s-37 -50.833 -43 -89.5l-46 -287h-108l90 566h-85z" />
    <glyph glyph-name="Itilde" unicode="&#x128;" 
d="M54 0l15 96h148l85 538h-148l16 96h404l-15 -96h-148l-85 -538h148l-16 -96h-404zM454 811c-20 0 -35.835 3.33203 -47.502 9.99902s-21.167 14.334 -28.5 23.001s-14.5 16.5 -21.5 23.5s-15.833 10.5 -26.5 10.5c-8.66699 0 -16.334 -3 -23.001 -9
s-10.667 -14.667 -12 -26l-5 -27h-71l5 31c5.33301 31.333 18.333 56.166 39 74.499s45.334 27.5 74.001 27.5c20 0 35.833 -3.33301 47.5 -10s21.167 -14.334 28.5 -23.001s14.5 -16.5 21.5 -23.5s15.833 -10.5 26.5 -10.5c9.33301 0 17 2.83301 23 8.5
s10 13.834 12 24.501l5 29h71l-5 -31c-5.33301 -31.333 -18.166 -56.166 -38.499 -74.499s-45.166 -27.5 -74.499 -27.5z" />
    <glyph glyph-name="itilde" unicode="&#x129;" 
d="M33 0l16 98h193l56 354h-168l15 98h273l-71 -452h178l-16 -98h-476zM444 646c-20 0 -35.834 3.33203 -47.501 9.99902s-21.167 14.334 -28.5 23.001s-14.5 16.5 -21.5 23.5s-15.833 10.5 -26.5 10.5c-8.66699 0 -16.334 -3 -23.001 -9s-11 -14.667 -13 -26l-4 -27h-71
l5 31c5.33301 31.333 18.333 56.166 39 74.499s45.334 27.5 74.001 27.5c20 0 35.833 -3.33301 47.5 -10s21 -14.334 28 -23.001s14 -16.5 21 -23.5s15.833 -10.5 26.5 -10.5c9.33301 0 17.166 2.83301 23.499 8.5s10.5 13.834 12.5 24.501l5 29h71l-5 -31
c-5.33301 -31.333 -18.166 -56.166 -38.499 -74.499s-45.166 -27.5 -74.499 -27.5z" />
    <glyph glyph-name="Imacron" unicode="&#x12a;" 
d="M54 0l15 96h148l85 538h-148l16 96h404l-15 -96h-148l-85 -538h148l-16 -96h-404zM222 834l14 85h332l-14 -85h-332z" />
    <glyph glyph-name="imacron" unicode="&#x12b;" 
d="M33 0l16 98h193l56 354h-168l15 98h273l-71 -452h178l-16 -98h-476zM211 666l14 85h332l-14 -85h-332z" />
    <glyph glyph-name="Ibreve" unicode="&#x12c;" 
d="M54 0l15 96h148l85 538h-148l16 96h404l-15 -96h-148l-85 -538h148l-16 -96h-404zM383 804c-50 0 -88.168 13.333 -114.501 40s-36.166 62 -29.499 106h83c-4 -24 0.5 -43.333 13.5 -58s31.833 -22 56.5 -22c25.333 0 46.833 7.33301 64.5 22s28.167 34 31.5 58h85
c-6.66699 -44 -27.5 -79.333 -62.5 -106s-77.5 -40 -127.5 -40z" />
    <glyph glyph-name="ibreve" unicode="&#x12d;" 
d="M33 0l16 98h193l56 354h-168l15 98h273l-71 -452h178l-16 -98h-476zM373 639c-50 0 -88.168 13.333 -114.501 40s-36.166 62 -29.499 106h82c-3.33301 -24 1.5 -43.333 14.5 -58s31.833 -22 56.5 -22c25.333 0 46.833 7.33301 64.5 22s28.167 34 31.5 58h85
c-6.66699 -44 -27.5 -79.333 -62.5 -106s-77.5 -40 -127.5 -40z" />
    <glyph glyph-name="Iogonek" unicode="&#x12e;" 
d="M227 -210c-38 0 -67.001 9.33398 -87.001 28.001s-27.333 42.334 -22 71.001c3.33301 20 14 40.333 32 61s44.667 40.667 80 60h78l-20 -15c-22 -16.667 -38.667 -31.834 -50 -45.501s-18.333 -26.834 -21 -39.501c-1.33301 -13.333 1.83398 -24.333 9.50098 -33
s19.5 -13 35.5 -13h63l-12 -74h-86zM53.999 0.000976562l15 96h148l85 538h-148l16 96h404l-15 -96h-148l-85 -538h148l-16 -96h-404z" />
    <glyph glyph-name="iogonek" unicode="&#x12f;" 
d="M243 -210c-38 0 -66.833 9.33398 -86.5 28.001s-27.167 42.334 -22.5 71.001c3.33301 20 14 40.333 32 61s44.667 40.667 80 60h79l-21 -15c-22 -16.667 -38.667 -31.834 -50 -45.501s-18 -26.834 -20 -39.501c-2 -13.333 1 -24.333 9 -33s20 -13 36 -13h62l-11 -74h-87z
M33 0.000976562l16 98h193l56 354h-168l15 98h273l-71 -452h178l-16 -98h-476zM375 645.001c-23.333 0 -40.834 6.16699 -52.501 18.5s-16.167 28.833 -13.5 49.5c3.33301 21.333 12.833 38.166 28.5 50.499s35.167 18.5 58.5 18.5c24 0 41.833 -6.16699 53.5 -18.5
s15.834 -29.166 12.501 -50.499c-2.66699 -20.667 -12 -37.167 -28 -49.5s-35.667 -18.5 -59 -18.5z" />
    <glyph glyph-name="Idotaccent" unicode="&#x130;" 
d="M54 0l15 96h148l85 538h-148l16 96h404l-15 -96h-148l-85 -538h148l-16 -96h-404zM384 812c-23.333 0 -40.834 6.16699 -52.501 18.5s-16.167 28.833 -13.5 49.5c4 20.667 13.833 37.167 29.5 49.5s35.5 18.5 59.5 18.5c23.333 0 40.833 -6.16699 52.5 -18.5
s15.834 -28.833 12.501 -49.5s-12.833 -37.167 -28.5 -49.5s-35.5 -18.5 -59.5 -18.5z" />
    <glyph glyph-name="dotlessi" unicode="&#x131;" 
d="M33 0l16 98h193l56 354h-168l15 98h273l-71 -452h178l-16 -98h-476z" />
    <glyph glyph-name="Jcircumflex" unicode="&#x134;" 
d="M224 -10c-72 0 -125.5 19.999 -160.5 59.999s-47.167 94.333 -36.5 163h108c-6 -40.667 0.166992 -72.167 18.5 -94.5s46.833 -33.5 85.5 -33.5c39.333 0 71.833 11.167 97.5 33.5s41.5 53.5 47.5 93.5l67 419h-172l16 99h279l-82 -518
c-6.66699 -45.333 -22.167 -84.666 -46.5 -117.999s-55.333 -59 -93 -77s-80.5 -27 -128.5 -27zM256 809.999l160 140h100l116 -140h-107l-67 76l-88 -76h-114z" />
    <glyph glyph-name="jcircumflex" unicode="&#x135;" 
d="M11 -180l16 100h138c37.333 0 67.833 10 91.5 30s38.5 48.333 44.5 85l65 416h-225l16 99h333l-82 -516c-6.66699 -44 -21.667 -82 -45 -114s-53 -56.667 -89 -74s-76.667 -26 -122 -26h-141zM198 645l160 140h100l116 -140h-107l-67 76l-88 -76h-114z" />
    <glyph glyph-name="uni0136" unicode="&#x136;" 
d="M40 0l116 730h108l-49 -304h95l199 304h119l-230 -355l122 -375h-117l-104 329h-99l-52 -329h-108zM104 -240l118 145h117l-131 -145h-104z" />
    <glyph glyph-name="uni0137" unicode="&#x137;" 
d="M43 0l116 730h108l-64 -401h87l182 221h124l-217 -268l133 -282h-121l-110 236h-92l-38 -236h-108zM104 -240l118 145h118l-131 -145h-105z" />
    <glyph glyph-name="kgreenlandic" unicode="&#x138;" 
d="M45 0l87 550h108l-36 -221h86l182 221h124l-217 -268l133 -282h-122l-109 236h-91l-37 -236h-108z" />
    <glyph glyph-name="Lacute" unicode="&#x139;" 
d="M65 0l116 730h108l-100 -631h319l-16 -99h-427zM178 810l128 140h121l-135 -140h-114z" />
    <glyph glyph-name="lacute" unicode="&#x13a;" 
d="M328 0c-51.333 0 -90 15.332 -116 45.999s-35 71 -27 121l73 465h-166l16 98h274l-89 -563c-3.33301 -21.333 0 -38.166 10 -50.499s25 -18.5 45 -18.5h178l-16 -98h-182zM263 809.999l128 140h121l-135 -140h-114z" />
    <glyph glyph-name="uni013B" unicode="&#x13b;" 
d="M65 0l116 730h108l-100 -631h319l-16 -99h-427zM124 -240l118 145h117l-131 -145h-104z" />
    <glyph glyph-name="uni013C" unicode="&#x13c;" 
d="M328 0c-51.333 0 -90 15.332 -116 45.999s-35 71 -27 121l73 465h-166l16 98h274l-89 -563c-3.33301 -21.333 0 -38.166 10 -50.499s25 -18.5 45 -18.5h178l-16 -98h-182zM100 -240.001l118 145h118l-131 -145h-105z" />
    <glyph glyph-name="Lcaron" unicode="&#x13d;" 
d="M65 0l116 730h108l-100 -631h319l-16 -99h-427zM396 550l39 180h101l-49 -180h-91z" />
    <glyph glyph-name="lcaron" unicode="&#x13e;" 
d="M328 0c-51.333 0 -90 15.332 -116 45.999s-35 71 -27 121l73 465h-166l16 98h274l-89 -563c-3.33301 -21.333 0 -38.166 10 -50.499s25 -18.5 45 -18.5h178l-16 -98h-182zM481 549.999l39 180h101l-49 -180h-91z" />
    <glyph glyph-name="Ldot" unicode="&#x13f;" 
d="M65 0l116 730h108l-100 -631h319l-16 -99h-427zM406 258c-26.667 0 -46.833 7.83301 -60.5 23.5s-18.167 36.834 -13.5 63.501c4 27.333 15.333 49.166 34 65.499s41.334 24.5 68.001 24.5c27.333 0 47.666 -8.16699 60.999 -24.5s17.666 -38.166 12.999 -65.499
c-4 -26.667 -15.167 -47.834 -33.5 -63.501s-41.166 -23.5 -68.499 -23.5z" />
    <glyph glyph-name="ldot" unicode="&#x140;" 
d="M308 0c-51.333 0 -90 15.332 -116 45.999s-35 71 -27 121l73 465h-166l16 98h274l-89 -563c-3.33301 -21.333 0 -38.166 10 -50.499s25 -18.5 45 -18.5h178l-16 -98h-182zM508 257.999c-26.667 0 -46.833 7.83301 -60.5 23.5s-18.167 36.834 -13.5 63.501
c4 27.333 15.333 49.166 34 65.499s41.334 24.5 68.001 24.5c27.333 0 47.666 -8.16699 60.999 -24.5s17.666 -38.166 12.999 -65.499c-4 -26.667 -15.167 -47.834 -33.5 -63.501s-41.166 -23.5 -68.499 -23.5z" />
    <glyph glyph-name="Lslash" unicode="&#x141;" 
d="M12 226l16 102l410 236l-16 -102zM68 0l116 730h108l-100 -631h319l-16 -99h-427z" />
    <glyph glyph-name="lslash" unicode="&#x142;" 
d="M100 230v98l373 232v-98zM328 0c-51.333 0 -90 15.332 -116 45.999s-35 71 -27 121l73 465h-166l16 98h274l-89 -563c-3.33301 -21.333 0 -38.166 10 -50.499s25 -18.5 45 -18.5h178l-16 -98h-182z" />
    <glyph glyph-name="Nacute" unicode="&#x143;" 
d="M37 0l116 729.999h135l118 -607c1.33301 19.333 3.16602 42.333 5.49902 69s5.16602 54.334 8.49902 83.001s7 54.667 11 78l60 377h100l-116 -730h-135l-117 607c-1.33301 -17.333 -3.16602 -39 -5.49902 -65s-5.16602 -53 -8.49902 -81s-7 -54 -11 -78l-61 -383h-100z
M314 809.999l128 140h121l-135 -140h-114z" />
    <glyph glyph-name="nacute" unicode="&#x144;" 
d="M40 0l87.002 550h107l-17 -105h26l-30 -25c7.33301 44 26 78.333 56 103s68 37 114 37c54.667 0 95.5 -17.5 122.5 -52.5s35.833 -82.167 26.5 -141.5l-58 -366h-108l56 354c5.33301 36 0.166016 64 -15.501 84s-40.5 30 -74.5 30s-62.333 -10.5 -85 -31.5
s-37.334 -50.833 -44.001 -89.5l-55 -347h-108zM258.002 645l128 140h121l-135 -140h-114z" />
    <glyph glyph-name="uni0145" unicode="&#x145;" 
d="M37 0l116 729.999h135l118 -607c1.33301 19.333 3.16602 42.333 5.49902 69s5.16602 54.334 8.49902 83.001s7 54.667 11 78l60 377h100l-116 -730h-135l-117 607c-1.33301 -17.333 -3.16602 -39 -5.49902 -65s-5.16602 -53 -8.49902 -81s-7 -54 -11 -78l-61 -383h-100z
M104 -240.001l118 145h118l-131 -145h-105z" />
    <glyph glyph-name="uni0146" unicode="&#x146;" 
d="M40 0l87.002 550h107l-17 -105h26l-30 -25c7.33301 44 26 78.333 56 103s68 37 114 37c54.667 0 95.5 -17.5 122.5 -52.5s35.833 -82.167 26.5 -141.5l-58 -366h-108l56 354c5.33301 36 0.166016 64 -15.501 84s-40.5 30 -74.5 30s-62.333 -10.5 -85 -31.5
s-37.334 -50.833 -44.001 -89.5l-55 -347h-108zM104.002 -240l118 145h118l-131 -145h-105z" />
    <glyph glyph-name="Ncaron" unicode="&#x147;" 
d="M37 0l116 729.999h135l118 -607c1.33301 19.333 3.16602 42.333 5.49902 69s5.16602 54.334 8.49902 83.001s7 54.667 11 78l60 377h100l-116 -730h-135l-117 607c-1.33301 -17.333 -3.16602 -39 -5.49902 -65s-5.16602 -53 -8.49902 -81s-7 -54 -11 -78l-61 -383h-100z
M334 809.999l-116 140h107l68 -76l87 76h114l-160 -140h-100z" />
    <glyph glyph-name="ncaron" unicode="&#x148;" 
d="M40 0l87.002 550h107l-17 -105h26l-30 -25c7.33301 44 26 78.333 56 103s68 37 114 37c54.667 0 95.5 -17.5 122.5 -52.5s35.833 -82.167 26.5 -141.5l-58 -366h-108l56 354c5.33301 36 0.166016 64 -15.501 84s-40.5 30 -74.5 30s-62.333 -10.5 -85 -31.5
s-37.334 -50.833 -44.001 -89.5l-55 -347h-108zM309.002 645l-116 140h107l68 -76l87 76h114l-160 -140h-100z" />
    <glyph glyph-name="napostrophe" unicode="&#x149;" 
d="M40 0l87.002 550h107l-17 -105h26l-30 -25c7.33301 44 26 78.333 56 103s68 37 114 37c54.667 0 95.5 -17.5 122.5 -52.5s35.833 -82.167 26.5 -141.5l-58 -366h-108l56 354c5.33301 36 0.166016 64 -15.501 84s-40.5 30 -74.5 30s-62.333 -10.5 -85 -31.5
s-37.334 -50.833 -44.001 -89.5l-55 -347h-108zM-85.998 645l118 145h118l-131 -145h-105z" />
    <glyph glyph-name="Eng" unicode="&#x14a;" 
d="M170 -180l15.999 101.001h63c32.667 0 59.834 9.16699 81.501 27.5s34.834 43.166 39.501 74.499l-147 584c-1.33301 -17.333 -3.16602 -39 -5.49902 -65s-5.16602 -53 -8.49902 -81s-7 -54 -11 -78l-61 -383h-100l116 730h134l132 -528
c1.33301 19.333 3.16602 42.5 5.49902 69.5s5.16602 55.167 8.49902 84.5s6.66602 56 9.99902 80l48 294h100l-113 -712c-6 -39.333 -20.5 -74 -43.5 -104s-52 -53.167 -87 -69.5s-73.833 -24.5 -116.5 -24.5h-61z" />
    <glyph glyph-name="eng" unicode="&#x14b;" 
d="M169 -180l15.999 101.001h62c32 0 59 9.16699 81 27.5s35.333 43.166 40 74.499l53 331c5.33301 36 0.333008 64 -15 84s-40 30 -74 30s-62.167 -10.5 -84.5 -31.5s-36.833 -50.833 -43.5 -89.5l-54 -347h-108l87 550h106l-17 -105h27l-31 -25
c7.33301 44 25.833 78.333 55.5 103s67.5 37 113.5 37c54.667 0 95.334 -17.5 122.001 -52.5s35 -82.167 25 -141.5l-55 -348c-6 -39.333 -20.5 -74 -43.5 -104s-51.833 -53.167 -86.5 -69.5s-73.667 -24.5 -117 -24.5h-59z" />
    <glyph glyph-name="Omacron" unicode="&#x14c;" 
d="M254 -10c-44.667 0 -82.166 8.5 -112.499 25.5s-51.833 41.667 -64.5 74s-15.667 70.166 -9 113.499l51 324c7.33301 44 22.333 82 45 114s52 56.5 88 73.5s76.333 25.5 121 25.5c45.333 0 83.166 -8.5 113.499 -25.5s52 -41.5 65 -73.5s15.833 -69.667 8.5 -113
l-51 -325c-6.66699 -43.333 -21.667 -81.166 -45 -113.499s-52.833 -57 -88.5 -74s-76.167 -25.5 -121.5 -25.5zM269.001 86c36.667 0 66.333 10.167 89 30.5s37 49.166 43 86.499l51 324c6 38 1 67 -15 87s-42.333 30 -79 30s-66.167 -10 -88.5 -30s-36.5 -49 -42.5 -87
l-51 -324c-6 -37.333 -1 -66.166 15 -86.499s42 -30.5 78 -30.5zM222 834l14 85h332l-14 -85h-332z" />
    <glyph glyph-name="omacron" unicode="&#x14d;" 
d="M254 -10c-44.667 0 -82.167 8.5 -112.5 25.5s-51.833 41.667 -64.5 74s-15.667 70.166 -9 113.499l22 144c7.33301 44 22.5 82 45.5 114s52.5 56.5 88.5 73.5s76.333 25.5 121 25.5c45.333 0 83 -8.5 113 -25.5s51.5 -41.5 64.5 -73.5s16.167 -69.667 9.5 -113l-23 -145
c-6.66699 -43.333 -21.667 -81.166 -45 -113.499s-52.833 -57 -88.5 -74s-76.167 -25.5 -121.5 -25.5zM269 85c36.667 0 66.334 10 89.001 30s37 49.333 43 88l22 144c6.66699 38.667 1.83398 68 -14.499 88s-42.5 30 -78.5 30s-65.333 -10 -88 -30
s-37.334 -49.333 -44.001 -88l-22 -144c-6 -38.667 -0.833008 -68 15.5 -88s42.166 -30 77.499 -30zM195 666l14 85h332l-14 -85h-332z" />
    <glyph glyph-name="Obreve" unicode="&#x14e;" 
d="M254 -10c-44.667 0 -82.166 8.5 -112.499 25.5s-51.833 41.667 -64.5 74s-15.667 70.166 -9 113.499l51 324c7.33301 44 22.333 82 45 114s52 56.5 88 73.5s76.333 25.5 121 25.5c45.333 0 83.166 -8.5 113.499 -25.5s52 -41.5 65 -73.5s15.833 -69.667 8.5 -113
l-51 -325c-6.66699 -43.333 -21.667 -81.166 -45 -113.499s-52.833 -57 -88.5 -74s-76.167 -25.5 -121.5 -25.5zM269.001 86c36.667 0 66.333 10.167 89 30.5s37 49.166 43 86.499l51 324c6 38 1 67 -15 87s-42.333 30 -79 30s-66.167 -10 -88.5 -30s-36.5 -49 -42.5 -87
l-51 -324c-6 -37.333 -1 -66.166 15 -86.499s42 -30.5 78 -30.5zM383 804c-50 0 -88.168 13.333 -114.501 40s-36.166 62 -29.499 106h83c-4 -24 0.5 -43.333 13.5 -58s31.833 -22 56.5 -22c25.333 0 46.833 7.33301 64.5 22s28.167 34 31.5 58h85
c-6.66699 -44 -27.5 -79.333 -62.5 -106s-77.5 -40 -127.5 -40z" />
    <glyph glyph-name="obreve" unicode="&#x14f;" 
d="M254 -10c-44.667 0 -82.167 8.5 -112.5 25.5s-51.833 41.667 -64.5 74s-15.667 70.166 -9 113.499l22 144c7.33301 44 22.5 82 45.5 114s52.5 56.5 88.5 73.5s76.333 25.5 121 25.5c45.333 0 83 -8.5 113 -25.5s51.5 -41.5 64.5 -73.5s16.167 -69.667 9.5 -113l-23 -145
c-6.66699 -43.333 -21.667 -81.166 -45 -113.499s-52.833 -57 -88.5 -74s-76.167 -25.5 -121.5 -25.5zM269 85c36.667 0 66.334 10 89.001 30s37 49.333 43 88l22 144c6.66699 38.667 1.83398 68 -14.499 88s-42.5 30 -78.5 30s-65.333 -10 -88 -30
s-37.334 -49.333 -44.001 -88l-22 -144c-6 -38.667 -0.833008 -68 15.5 -88s42.166 -30 77.499 -30zM357 639c-50 0 -88.168 13.333 -114.501 40s-36.166 62 -29.499 106h82c-3.33301 -24 1.5 -43.333 14.5 -58s31.833 -22 56.5 -22c25.333 0 46.833 7.33301 64.5 22
s28.167 34 31.5 58h85c-6.66699 -44 -27.5 -79.333 -62.5 -106s-77.5 -40 -127.5 -40z" />
    <glyph glyph-name="Ohungarumlaut" unicode="&#x150;" 
d="M254 -10c-44.667 0 -82.166 8.5 -112.499 25.5s-51.833 41.667 -64.5 74s-15.667 70.166 -9 113.499l51 324c7.33301 44 22.333 82 45 114s52 56.5 88 73.5s76.333 25.5 121 25.5c45.333 0 83.166 -8.5 113.499 -25.5s52 -41.5 65 -73.5s15.833 -69.667 8.5 -113
l-51 -325c-6.66699 -43.333 -21.667 -81.166 -45 -113.499s-52.833 -57 -88.5 -74s-76.167 -25.5 -121.5 -25.5zM269.001 86c36.667 0 66.333 10.167 89 30.5s37 49.166 43 86.499l51 324c6 38 1 67 -15 87s-42.333 30 -79 30s-66.167 -10 -88.5 -30s-36.5 -49 -42.5 -87
l-51 -324c-6 -37.333 -1 -66.166 15 -86.499s42 -30.5 78 -30.5zM409 810l130 140h111l-137 -140h-104zM215 810l131 140h110l-137 -140h-104z" />
    <glyph glyph-name="ohungarumlaut" unicode="&#x151;" 
d="M254 -10c-44.667 0 -82.167 8.5 -112.5 25.5s-51.833 41.667 -64.5 74s-15.667 70.166 -9 113.499l22 144c7.33301 44 22.5 82 45.5 114s52.5 56.5 88.5 73.5s76.333 25.5 121 25.5c45.333 0 83 -8.5 113 -25.5s51.5 -41.5 64.5 -73.5s16.167 -69.667 9.5 -113l-23 -145
c-6.66699 -43.333 -21.667 -81.166 -45 -113.499s-52.833 -57 -88.5 -74s-76.167 -25.5 -121.5 -25.5zM269 85c36.667 0 66.334 10 89.001 30s37 49.333 43 88l22 144c6.66699 38.667 1.83398 68 -14.499 88s-42.5 30 -78.5 30s-65.333 -10 -88 -30
s-37.334 -49.333 -44.001 -88l-22 -144c-6 -38.667 -0.833008 -68 15.5 -88s42.166 -30 77.499 -30zM383 645l130 140h110l-137 -140h-103zM190 645l131 140h109l-137 -140h-103z" />
    <glyph glyph-name="OE" unicode="&#x152;" 
d="M143 -8c-31.333 0 -57.167 7.66699 -77.5 23s-34.166 37.5 -41.499 66.5s-7.66602 63.167 -0.999023 102.5l57 363c6.66699 40.667 18.167 75.334 34.5 104.001s37.166 50.667 62.499 66s53.666 23 84.999 23c23.333 0 42 -4.83301 56 -14.5s24.167 -21.334 30.5 -35.001
s9.5 -27.167 9.5 -40.5h5l13 80h272l-15 -95h-172l-34 -211h147l-15 -95h-147l-37 -234h173l-16 -95h-272l13 82h-5c-4 -12.667 -11.333 -26 -22 -40s-24.5 -25.833 -41.5 -35.5s-37.5 -14.5 -61.5 -14.5zM190.999 85c25.333 0 46.499 8.83203 63.499 26.499
s28.167 41.834 33.5 72.501l57 363c4.66699 31.333 1.33398 55.833 -9.99902 73.5s-29.333 26.5 -54 26.5c-25.333 0 -46.5 -8.83301 -63.5 -26.5s-27.833 -42.167 -32.5 -73.5l-57 -363c-5.33301 -30 -2.33301 -54 9 -72s29.333 -27 54 -27z" />
    <glyph glyph-name="oe" unicode="&#x153;" 
d="M134 -10c-44 0 -76.8311 14.333 -98.498 43s-28.834 66.667 -21.501 114l41 256c7.33301 48 26.5 86.167 57.5 114.5s68.5 42.5 112.5 42.5c26 0 46.833 -4.16699 62.5 -12.5s26.667 -18.666 33 -30.999s9.5 -24.166 9.5 -35.499h5
c2.66699 11.333 9.16699 23.166 19.5 35.499s24.833 22.666 43.5 30.999s41 12.5 67 12.5c44 0 76.833 -14.167 98.5 -42.5s28.834 -66.5 21.501 -114.5l-24 -153h-218l-16 -103c-4 -22.667 -1.5 -40.667 7.5 -54s22.833 -20 41.5 -20c16.667 0 31.167 5.16699 43.5 15.5
s21.166 23.833 26.499 40.5h93c-10.667 -42 -31 -75.667 -61 -101s-64.667 -38 -104 -38c-26 0 -46.833 4.16699 -62.5 12.5s-26.667 18.666 -33 30.999s-9.5 24.166 -9.5 35.499h-5c-2.66699 -11.333 -9.33398 -23.166 -20.001 -35.499s-25.167 -22.666 -43.5 -30.999
s-40.5 -12.5 -66.5 -12.5zM160.002 73c18.667 0 34.499 6.66699 47.499 20s21.167 31.333 24.5 54l40 256c4 22.667 1.66699 40.667 -7 54s-22.667 20 -42 20s-35.666 -6.66699 -48.999 -20s-21.666 -31.333 -24.999 -54l-41 -256c-3.33301 -22.667 -0.333008 -40.667 9 -54
s23.666 -20 42.999 -20zM354.001 325h123.999l13 78c3.33301 22.667 0.333008 40.667 -9 54s-23.666 20 -42.999 20c-18.667 0 -34.5 -6.66699 -47.5 -20s-21.167 -31.333 -24.5 -54z" />
    <glyph glyph-name="Racute" unicode="&#x154;" 
d="M40 0l115.999 729.999h229c46 0 84.5 -8.83301 115.5 -26.5s53.5 -42.5 67.5 -74.5s17.333 -69.667 10 -113c-5.33301 -36 -17.333 -68.667 -36 -98s-42.167 -53.666 -70.5 -72.999s-60.166 -32.333 -95.499 -39l13 54l118 -360h-118l-91 300h-103l-47 -300h-108z
M209.999 394.999l121 0.000976562c36 0 66.5 10.833 91.5 32.5s40.167 50.5 45.5 86.5c6 37.333 0 66.666 -18 87.999s-45 32 -81 32h-121zM313.999 810l128 140h121l-135 -140h-114z" />
    <glyph glyph-name="racute" unicode="&#x155;" 
d="M58 0l87 550h104l-17 -105h26l-43 -65c9.33301 59.333 29.5 104.166 60.5 134.499s72.167 45.5 123.5 45.5c58.667 0 102.167 -18.167 130.5 -54.5s37.5 -86.166 27.5 -149.499l-6 -37h-111l5 28c6 39.333 1 69.5 -15 90.5s-41.667 31.5 -77 31.5
s-64.5 -10.667 -87.5 -32s-37.833 -51.333 -44.5 -90l-55 -347h-108zM308 645l128 140h121l-135 -140h-114z" />
    <glyph glyph-name="uni0156" unicode="&#x156;" 
d="M40 0l115.999 729.999h229c46 0 84.5 -8.83301 115.5 -26.5s53.5 -42.5 67.5 -74.5s17.333 -69.667 10 -113c-5.33301 -36 -17.333 -68.667 -36 -98s-42.167 -53.666 -70.5 -72.999s-60.166 -32.333 -95.499 -39l13 54l118 -360h-118l-91 300h-103l-47 -300h-108z
M209.999 394.999l121 0.000976562c36 0 66.5 10.833 91.5 32.5s40.167 50.5 45.5 86.5c6 37.333 0 66.666 -18 87.999s-45 32 -81 32h-121zM103.999 -240l118 145h118l-131 -145h-105z" />
    <glyph glyph-name="uni0157" unicode="&#x157;" 
d="M58 0l87 550h104l-17 -105h26l-43 -65c9.33301 59.333 29.5 104.166 60.5 134.499s72.167 45.5 123.5 45.5c58.667 0 102.167 -18.167 130.5 -54.5s37.5 -86.166 27.5 -149.499l-6 -37h-111l5 28c6 39.333 1 69.5 -15 90.5s-41.667 31.5 -77 31.5
s-64.5 -10.667 -87.5 -32s-37.833 -51.333 -44.5 -90l-55 -347h-108zM-61 -240l118 145h118l-131 -145h-105z" />
    <glyph glyph-name="Rcaron" unicode="&#x158;" 
d="M40 0l115.999 729.999h229c46 0 84.5 -8.83301 115.5 -26.5s53.5 -42.5 67.5 -74.5s17.333 -69.667 10 -113c-5.33301 -36 -17.333 -68.667 -36 -98s-42.167 -53.666 -70.5 -72.999s-60.166 -32.333 -95.499 -39l13 54l118 -360h-118l-91 300h-103l-47 -300h-108z
M209.999 394.999l121 0.000976562c36 0 66.5 10.833 91.5 32.5s40.167 50.5 45.5 86.5c6 37.333 0 66.666 -18 87.999s-45 32 -81 32h-121zM333.999 810l-116 140h107l68 -76l87 76h114l-160 -140h-100z" />
    <glyph glyph-name="rcaron" unicode="&#x159;" 
d="M58 0l87 550h104l-17 -105h26l-43 -65c9.33301 59.333 29.5 104.166 60.5 134.499s72.167 45.5 123.5 45.5c58.667 0 102.167 -18.167 130.5 -54.5s37.5 -86.166 27.5 -149.499l-6 -37h-111l5 28c6 39.333 1 69.5 -15 90.5s-41.667 31.5 -77 31.5
s-64.5 -10.667 -87.5 -32s-37.833 -51.333 -44.5 -90l-55 -347h-108zM329 645l-116 140h107l68 -76l87 76h114l-160 -140h-100z" />
    <glyph glyph-name="Sacute" unicode="&#x15a;" 
d="M257 -10c-73.333 0 -128.332 18.167 -164.999 54.5s-50.334 85.833 -41.001 148.5h108c-5.33301 -33.333 2 -59.5 22 -78.5s50.667 -28.5 92 -28.5c38.667 0 70.5 9.33301 95.5 28s40.167 44.334 45.5 77.001c4.66699 28.667 1 53.167 -11 73.5s-30.667 34.5 -56 42.5
l-87 26c-50.667 15.333 -88 41.333 -112 78s-32.333 80 -25 130c6.66699 40 21.334 75 44.001 105s52 53.333 88 70s76.667 25 122 25c66.667 0 117.334 -18 152.001 -54s47.334 -84.333 38.001 -145h-108c5.33301 32 -0.5 57.167 -17.5 75.5s-43.833 27.5 -80.5 27.5
c-36 0 -65.167 -8.5 -87.5 -25.5s-35.833 -40.833 -40.5 -71.5c-4.66699 -28 -1.33398 -52.333 9.99902 -73s29.666 -35 54.999 -43l90 -28c50 -15.333 86.833 -41.333 110.5 -78s31.5 -80.334 23.5 -131.001c-6 -41.333 -21.167 -77.333 -45.5 -108
s-55.333 -54.5 -93 -71.5s-79.834 -25.5 -126.501 -25.5zM314.001 810l128 140h121l-135 -140h-114z" />
    <glyph glyph-name="sacute" unicode="&#x15b;" 
d="M232 -10c-60 0 -105.833 13.8359 -137.5 41.5029s-45.5 64.5 -41.5 110.5h108c0 -18 7.33301 -32.667 22 -44s35.667 -17 63 -17h43c33.333 0 59.166 6.83301 77.499 20.5s29.5 31.5 33.5 53.5c2.66699 21.333 -2.16602 38.5 -14.499 51.5s-32.833 21.5 -61.5 25.5
l-69 11c-56.667 8.66699 -97.167 25 -121.5 49s-32.833 60 -25.5 108c7.33301 50.667 29.833 90 67.5 118s89.167 42 154.5 42h38c56.667 0 100.167 -13.333 130.5 -40s44.166 -62 41.499 -106h-108c0 16 -6.83301 29.167 -20.5 39.5s-33.167 15.5 -58.5 15.5h-38
c-31.333 0 -55 -6 -71 -18s-26 -29.333 -30 -52c-2.66699 -20 1 -35.333 11 -46s28.333 -18.334 55 -23.001l71 -11c60 -9.33301 102.833 -26.333 128.5 -51s34.834 -61.334 27.501 -110.001c-8.66699 -52.667 -32.5 -93.834 -71.5 -123.501s-92.833 -44.5 -161.5 -44.5h-42
zM298 645.003l128 140h121l-135 -140h-114z" />
    <glyph glyph-name="Scircumflex" unicode="&#x15c;" 
d="M257 -10c-73.333 0 -128.332 18.167 -164.999 54.5s-50.334 85.833 -41.001 148.5h108c-5.33301 -33.333 2 -59.5 22 -78.5s50.667 -28.5 92 -28.5c38.667 0 70.5 9.33301 95.5 28s40.167 44.334 45.5 77.001c4.66699 28.667 1 53.167 -11 73.5s-30.667 34.5 -56 42.5
l-87 26c-50.667 15.333 -88 41.333 -112 78s-32.333 80 -25 130c6.66699 40 21.334 75 44.001 105s52 53.333 88 70s76.667 25 122 25c66.667 0 117.334 -18 152.001 -54s47.334 -84.333 38.001 -145h-108c5.33301 32 -0.5 57.167 -17.5 75.5s-43.833 27.5 -80.5 27.5
c-36 0 -65.167 -8.5 -87.5 -25.5s-35.833 -40.833 -40.5 -71.5c-4.66699 -28 -1.33398 -52.333 9.99902 -73s29.666 -35 54.999 -43l90 -28c50 -15.333 86.833 -41.333 110.5 -78s31.5 -80.334 23.5 -131.001c-6 -41.333 -21.167 -77.333 -45.5 -108
s-55.333 -54.5 -93 -71.5s-79.834 -25.5 -126.501 -25.5zM196.001 810l160 140h100l116 -140h-107l-67 76l-88 -76h-114z" />
    <glyph glyph-name="scircumflex" unicode="&#x15d;" 
d="M232 -10c-60 0 -105.833 13.8359 -137.5 41.5029s-45.5 64.5 -41.5 110.5h108c0 -18 7.33301 -32.667 22 -44s35.667 -17 63 -17h43c33.333 0 59.166 6.83301 77.499 20.5s29.5 31.5 33.5 53.5c2.66699 21.333 -2.16602 38.5 -14.499 51.5s-32.833 21.5 -61.5 25.5
l-69 11c-56.667 8.66699 -97.167 25 -121.5 49s-32.833 60 -25.5 108c7.33301 50.667 29.833 90 67.5 118s89.167 42 154.5 42h38c56.667 0 100.167 -13.333 130.5 -40s44.166 -62 41.499 -106h-108c0 16 -6.83301 29.167 -20.5 39.5s-33.167 15.5 -58.5 15.5h-38
c-31.333 0 -55 -6 -71 -18s-26 -29.333 -30 -52c-2.66699 -20 1 -35.333 11 -46s28.333 -18.334 55 -23.001l71 -11c60 -9.33301 102.833 -26.333 128.5 -51s34.834 -61.334 27.501 -110.001c-8.66699 -52.667 -32.5 -93.834 -71.5 -123.501s-92.833 -44.5 -161.5 -44.5h-42
zM180 645.003l160 140h100l116 -140h-107l-67 76l-88 -76h-114z" />
    <glyph glyph-name="Scedilla" unicode="&#x15e;" 
d="M125 -210l9 59.998h73c15.333 0 28.333 3.83301 39 11.5s16.334 15.834 17.001 24.501c2.66699 12.667 -4.83301 23.334 -22.5 32.001s-43.5 13 -77.5 13l49 92h62l-30 -59c18 -2 36.333 -6.33301 55 -13s33.667 -16.167 45 -28.5s15.666 -27.833 12.999 -46.5
c-3.33301 -23.333 -18 -43.5 -44 -60.5s-58 -25.5 -96 -25.5h-92zM257 -10.002c-73.333 0 -128.332 18.167 -164.999 54.5s-50.334 85.833 -41.001 148.5h108c-5.33301 -33.333 2 -59.5 22 -78.5s50.667 -28.5 92 -28.5c38.667 0 70.5 9.33301 95.5 28
s40.167 44.334 45.5 77.001c4.66699 28.667 1 53.167 -11 73.5s-30.667 34.5 -56 42.5l-87 26c-50.667 15.333 -88 41.333 -112 78s-32.333 80 -25 130c6.66699 40 21.334 75 44.001 105s52 53.333 88 70s76.667 25 122 25c66.667 0 117.334 -18 152.001 -54
s47.334 -84.333 38.001 -145h-108c5.33301 32 -0.5 57.167 -17.5 75.5s-43.833 27.5 -80.5 27.5c-36 0 -65.167 -8.5 -87.5 -25.5s-35.833 -40.833 -40.5 -71.5c-4.66699 -28 -1.33398 -52.333 9.99902 -73s29.666 -35 54.999 -43l90 -28
c50 -15.333 86.833 -41.333 110.5 -78s31.5 -80.334 23.5 -131.001c-6 -41.333 -21.167 -77.333 -45.5 -108s-55.333 -54.5 -93 -71.5s-79.834 -25.5 -126.501 -25.5z" />
    <glyph glyph-name="scedilla" unicode="&#x15f;" 
d="M211 -210v59.998h73c14.667 0 26.667 3.83301 36 11.5s14 15.834 14 24.501c0 12.667 -9.33301 23.334 -28 32.001s-45.334 13 -80.001 13l35 92h62l-21 -59c18.667 -2 37.834 -6.33301 57.501 -13s36.167 -16.167 49.5 -28.5s20 -27.833 20 -46.5
c0 -23.333 -11.5 -43.5 -34.5 -60.5s-53.5 -25.5 -91.5 -25.5h-92zM232 -10.002c-60 0 -105.833 13.8359 -137.5 41.5029s-45.5 64.5 -41.5 110.5h108c0 -18 7.33301 -32.667 22 -44s35.667 -17 63 -17h43c33.333 0 59.166 6.83301 77.499 20.5s29.5 31.5 33.5 53.5
c2.66699 21.333 -2.16602 38.5 -14.499 51.5s-32.833 21.5 -61.5 25.5l-69 11c-56.667 8.66699 -97.167 25 -121.5 49s-32.833 60 -25.5 108c7.33301 50.667 29.833 90 67.5 118s89.167 42 154.5 42h38c56.667 0 100.167 -13.333 130.5 -40s44.166 -62 41.499 -106h-108
c0 16 -6.83301 29.167 -20.5 39.5s-33.167 15.5 -58.5 15.5h-38c-31.333 0 -55 -6 -71 -18s-26 -29.333 -30 -52c-2.66699 -20 1 -35.333 11 -46s28.333 -18.334 55 -23.001l71 -11c60 -9.33301 102.833 -26.333 128.5 -51s34.834 -61.334 27.501 -110.001
c-8.66699 -52.667 -32.5 -93.834 -71.5 -123.501s-92.833 -44.5 -161.5 -44.5h-42z" />
    <glyph glyph-name="Scaron" unicode="&#x160;" 
d="M257 -10c-73.333 0 -128.332 18.167 -164.999 54.5s-50.334 85.833 -41.001 148.5h108c-5.33301 -33.333 2 -59.5 22 -78.5s50.667 -28.5 92 -28.5c38.667 0 70.5 9.33301 95.5 28s40.167 44.334 45.5 77.001c4.66699 28.667 1 53.167 -11 73.5s-30.667 34.5 -56 42.5
l-87 26c-50.667 15.333 -88 41.333 -112 78s-32.333 80 -25 130c6.66699 40 21.334 75 44.001 105s52 53.333 88 70s76.667 25 122 25c66.667 0 117.334 -18 152.001 -54s47.334 -84.333 38.001 -145h-108c5.33301 32 -0.5 57.167 -17.5 75.5s-43.833 27.5 -80.5 27.5
c-36 0 -65.167 -8.5 -87.5 -25.5s-35.833 -40.833 -40.5 -71.5c-4.66699 -28 -1.33398 -52.333 9.99902 -73s29.666 -35 54.999 -43l90 -28c50 -15.333 86.833 -41.333 110.5 -78s31.5 -80.334 23.5 -131.001c-6 -41.333 -21.167 -77.333 -45.5 -108
s-55.333 -54.5 -93 -71.5s-79.834 -25.5 -126.501 -25.5zM334.001 810l-116 140h107l68 -76l87 76h114l-160 -140h-100z" />
    <glyph glyph-name="scaron" unicode="&#x161;" 
d="M232 -10c-60 0 -105.833 13.8359 -137.5 41.5029s-45.5 64.5 -41.5 110.5h108c0 -18 7.33301 -32.667 22 -44s35.667 -17 63 -17h43c33.333 0 59.166 6.83301 77.499 20.5s29.5 31.5 33.5 53.5c2.66699 21.333 -2.16602 38.5 -14.499 51.5s-32.833 21.5 -61.5 25.5
l-69 11c-56.667 8.66699 -97.167 25 -121.5 49s-32.833 60 -25.5 108c7.33301 50.667 29.833 90 67.5 118s89.167 42 154.5 42h38c56.667 0 100.167 -13.333 130.5 -40s44.166 -62 41.499 -106h-108c0 16 -6.83301 29.167 -20.5 39.5s-33.167 15.5 -58.5 15.5h-38
c-31.333 0 -55 -6 -71 -18s-26 -29.333 -30 -52c-2.66699 -20 1 -35.333 11 -46s28.333 -18.334 55 -23.001l71 -11c60 -9.33301 102.833 -26.333 128.5 -51s34.834 -61.334 27.501 -110.001c-8.66699 -52.667 -32.5 -93.834 -71.5 -123.501s-92.833 -44.5 -161.5 -44.5h-42
zM319 645.003l-116 140h107l68 -76l87 76h114l-160 -140h-100z" />
    <glyph glyph-name="uni0162" unicode="&#x162;" 
d="M173 -210l9.00098 59.998h73c15.333 0 28.333 3.83301 39 11.5s16.334 15.834 17.001 24.501c2.66699 12.667 -4.83301 23.334 -22.5 32.001s-43.834 13 -78.501 13l50 92l50 -23l-18 -36c18 -2 36.333 -6.33301 55 -13s33.667 -16.167 45 -28.5
s15.666 -27.833 12.999 -46.5c-4 -23.333 -18.833 -43.5 -44.5 -60.5s-57.5 -25.5 -95.5 -25.5h-92zM202.001 -0.00195312l100 631h-195l16 100h498l-16 -100h-195l-100 -631h-108z" />
    <glyph glyph-name="uni0163" unicode="&#x163;" 
d="M261 -210v59.998h73c14.667 0 26.667 3.83301 36 11.5s14 15.834 14 24.501c0 12.667 -9.33301 23.334 -28 32.001s-45.334 13 -80.001 13l35 92h62l-21 -59c18.667 -2 37.834 -6.33301 57.501 -13s36.167 -16.167 49.5 -28.5s20 -27.833 20 -46.5
c0 -23.333 -11.5 -43.5 -34.5 -60.5s-53.5 -25.5 -91.5 -25.5h-92zM316 -0.00195312c-50 0 -86.832 13.667 -110.499 41s-31.5 65.333 -23.5 114l47 297h-152l15 98h152l24 150h108l-24 -150h215l-15 -98h-215l-47 -297c-6.66699 -38 8.66602 -57 45.999 -57h150l-16 -98
h-154z" />
    <glyph glyph-name="Tcaron" unicode="&#x164;" 
d="M202 0l100 631h-195l16 100h498l-16 -100h-195l-100 -631h-108zM334 810l-116 140h107l68 -76l87 76h114l-160 -140h-100z" />
    <glyph glyph-name="tcaron" unicode="&#x165;" 
d="M425 620l112 156h106l-122 -156h-96zM316 0c-50 0 -86.832 13.667 -110.499 41s-31.5 65.333 -23.5 114l47 297h-152l15 98h152l24 150h108l-24 -150h215l-15 -98h-215l-47 -297c-6.66699 -38 8.66602 -57 45.999 -57h150l-16 -98h-154z" />
    <glyph glyph-name="Tbar" unicode="&#x166;" 
d="M109 289l14 87h386l-14 -87h-386zM202 0l100 631h-195l16 100h498l-16 -100h-195l-100 -631h-108z" />
    <glyph glyph-name="tbar" unicode="&#x167;" 
d="M74 233l13 87h399l-13 -87h-399zM316 0c-50 0 -86.832 13.667 -110.499 41s-31.5 65.333 -23.5 114l47 297h-152l15 98h152l24 150h108l-24 -150h215l-15 -98h-215l-47 -297c-6.66699 -38 8.66602 -57 45.999 -57h150l-16 -98h-154z" />
    <glyph glyph-name="Utilde" unicode="&#x168;" 
d="M254 -10c-70 0 -120.834 19.167 -152.501 57.5s-42.167 90.5 -31.5 156.5l83 526h108l-83 -526c-6.66699 -36.667 -2.33398 -65.667 12.999 -87s41.333 -32 78 -32s66.167 10.667 88.5 32s36.5 50.333 42.5 87l83 526h108l-83 -526
c-7.33301 -44 -22.166 -82.167 -44.499 -114.5s-51.166 -57 -86.499 -74s-76.333 -25.5 -123 -25.5zM453.999 811c-20 0 -35.835 3.33203 -47.502 9.99902s-21.167 14.334 -28.5 23.001s-14.5 16.5 -21.5 23.5s-15.833 10.5 -26.5 10.5c-8.66699 0 -16.334 -3 -23.001 -9
s-10.667 -14.667 -12 -26l-5 -27h-71l5 31c5.33301 31.333 18.333 56.166 39 74.499s45.334 27.5 74.001 27.5c20 0 35.833 -3.33301 47.5 -10s21.167 -14.334 28.5 -23.001s14.5 -16.5 21.5 -23.5s15.833 -10.5 26.5 -10.5c9.33301 0 17 2.83301 23 8.5
s10 13.834 12 24.501l5 29h71l-5 -31c-5.33301 -31.333 -18.166 -56.166 -38.499 -74.499s-45.166 -27.5 -74.499 -27.5z" />
    <glyph glyph-name="utilde" unicode="&#x169;" 
d="M253 -10c-66 0 -115.499 19.167 -148.499 57.5s-44.167 90.5 -33.5 156.5l54 346h108l-54 -346c-6 -38 -1 -67.5 15 -88.5s41 -31.5 75 -31.5s62.5 10.5 85.5 31.5s37.5 50.5 43.5 88.5l55 346h108l-55 -346c-6.66699 -44 -21.5 -82 -44.5 -114s-52.333 -56.667 -88 -74
s-75.834 -26 -120.501 -26zM428.001 646c-20 0 -35.834 3.33203 -47.501 9.99902s-21.167 14.334 -28.5 23.001s-14.5 16.5 -21.5 23.5s-15.833 10.5 -26.5 10.5c-8.66699 0 -16.334 -3 -23.001 -9s-11 -14.667 -13 -26l-4 -27h-71l5 31
c5.33301 31.333 18.333 56.166 39 74.499s45.334 27.5 74.001 27.5c20 0 35.833 -3.33301 47.5 -10s21 -14.334 28 -23.001s14 -16.5 21 -23.5s15.833 -10.5 26.5 -10.5c9.33301 0 17.166 2.83301 23.499 8.5s10.5 13.834 12.5 24.501l5 29h71l-5 -31
c-5.33301 -31.333 -18.166 -56.166 -38.499 -74.499s-45.166 -27.5 -74.499 -27.5z" />
    <glyph glyph-name="Umacron" unicode="&#x16a;" 
d="M254 -10c-70 0 -120.834 19.167 -152.501 57.5s-42.167 90.5 -31.5 156.5l83 526h108l-83 -526c-6.66699 -36.667 -2.33398 -65.667 12.999 -87s41.333 -32 78 -32s66.167 10.667 88.5 32s36.5 50.333 42.5 87l83 526h108l-83 -526
c-7.33301 -44 -22.166 -82.167 -44.499 -114.5s-51.166 -57 -86.499 -74s-76.333 -25.5 -123 -25.5zM221.999 834l14 85h332l-14 -85h-332z" />
    <glyph glyph-name="umacron" unicode="&#x16b;" 
d="M253 -10c-66 0 -115.499 19.167 -148.499 57.5s-44.167 90.5 -33.5 156.5l54 346h108l-54 -346c-6 -38 -1 -67.5 15 -88.5s41 -31.5 75 -31.5s62.5 10.5 85.5 31.5s37.5 50.5 43.5 88.5l55 346h108l-55 -346c-6.66699 -44 -21.5 -82 -44.5 -114s-52.333 -56.667 -88 -74
s-75.834 -26 -120.501 -26zM195.001 666l14 85h332l-14 -85h-332z" />
    <glyph glyph-name="Ubreve" unicode="&#x16c;" 
d="M254 -10c-70 0 -120.834 19.167 -152.501 57.5s-42.167 90.5 -31.5 156.5l83 526h108l-83 -526c-6.66699 -36.667 -2.33398 -65.667 12.999 -87s41.333 -32 78 -32s66.167 10.667 88.5 32s36.5 50.333 42.5 87l83 526h108l-83 -526
c-7.33301 -44 -22.166 -82.167 -44.499 -114.5s-51.166 -57 -86.499 -74s-76.333 -25.5 -123 -25.5zM382.999 804c-50 0 -88.168 13.333 -114.501 40s-36.166 62 -29.499 106h83c-4 -24 0.5 -43.333 13.5 -58s31.833 -22 56.5 -22c25.333 0 46.833 7.33301 64.5 22
s28.167 34 31.5 58h85c-6.66699 -44 -27.5 -79.333 -62.5 -106s-77.5 -40 -127.5 -40z" />
    <glyph glyph-name="ubreve" unicode="&#x16d;" 
d="M253 -10c-66 0 -115.499 19.167 -148.499 57.5s-44.167 90.5 -33.5 156.5l54 346h108l-54 -346c-6 -38 -1 -67.5 15 -88.5s41 -31.5 75 -31.5s62.5 10.5 85.5 31.5s37.5 50.5 43.5 88.5l55 346h108l-55 -346c-6.66699 -44 -21.5 -82 -44.5 -114s-52.333 -56.667 -88 -74
s-75.834 -26 -120.501 -26zM357.001 639c-50 0 -88.168 13.333 -114.501 40s-36.166 62 -29.499 106h82c-3.33301 -24 1.5 -43.333 14.5 -58s31.833 -22 56.5 -22c25.333 0 46.833 7.33301 64.5 22s28.167 34 31.5 58h85c-6.66699 -44 -27.5 -79.333 -62.5 -106
s-77.5 -40 -127.5 -40z" />
    <glyph glyph-name="Uring" unicode="&#x16e;" 
d="M254 -10c-70 0 -120.834 19.167 -152.501 57.5s-42.167 90.5 -31.5 156.5l83 526h108l-83 -526c-6.66699 -36.667 -2.33398 -65.667 12.999 -87s41.333 -32 78 -32s66.167 10.667 88.5 32s36.5 50.333 42.5 87l83 526h108l-83 -526
c-7.33301 -44 -22.166 -82.167 -44.499 -114.5s-51.166 -57 -86.499 -74s-76.333 -25.5 -123 -25.5zM375.999 762c-37.333 0 -65.833 10.833 -85.5 32.5s-26.834 50.167 -21.501 85.5s21.333 63.833 48 85.5s59 32.5 97 32.5c37.333 0 65.833 -10.833 85.5 -32.5
s26.834 -50.167 21.501 -85.5s-21.333 -63.833 -48 -85.5s-59 -32.5 -97 -32.5zM385.999 820c18 0 33.333 5.5 46 16.5s20.334 25.5 23.001 43.5c3.33301 18 0.333008 32.667 -9 44s-23 17 -41 17s-33.333 -5.66699 -46 -17s-20.667 -26 -24 -44
c-2.66699 -18 0.666016 -32.5 9.99902 -43.5s23 -16.5 41 -16.5z" />
    <glyph glyph-name="uring" unicode="&#x16f;" 
d="M253 -10c-66 0 -115.499 19.167 -148.499 57.5s-44.167 90.5 -33.5 156.5l54 346h108l-54 -346c-6 -38 -1 -67.5 15 -88.5s41 -31.5 75 -31.5s62.5 10.5 85.5 31.5s37.5 50.5 43.5 88.5l55 346h108l-55 -346c-6.66699 -44 -21.5 -82 -44.5 -114s-52.333 -56.667 -88 -74
s-75.834 -26 -120.501 -26zM352.001 605c-38 0 -66.668 10.833 -86.001 32.5s-26.666 50.167 -21.999 85.5c6 35.333 22.167 63.833 48.5 85.5s58.5 32.5 96.5 32.5s66.833 -10.833 86.5 -32.5s26.5 -50.167 20.5 -85.5c-4.66699 -35.333 -20.5 -63.833 -47.5 -85.5
s-59.167 -32.5 -96.5 -32.5zM361 663c18 0 33.333 5.5 46 16.5s20.334 25.5 23.001 43.5c3.33301 18.667 0.333008 33.5 -9 44.5s-23 16.5 -41 16.5s-33.333 -5.5 -46 -16.5s-20.667 -25.833 -24 -44.5c-2.66699 -18 0.666016 -32.5 9.99902 -43.5s23 -16.5 41 -16.5z" />
    <glyph glyph-name="Uhungarumlaut" unicode="&#x170;" 
d="M254 -10c-70 0 -120.834 19.167 -152.501 57.5s-42.167 90.5 -31.5 156.5l83 526h108l-83 -526c-6.66699 -36.667 -2.33398 -65.667 12.999 -87s41.333 -32 78 -32s66.167 10.667 88.5 32s36.5 50.333 42.5 87l83 526h108l-83 -526
c-7.33301 -44 -22.166 -82.167 -44.499 -114.5s-51.166 -57 -86.499 -74s-76.333 -25.5 -123 -25.5zM408.999 810l130 140h111l-137 -140h-104zM214.999 810l131 140h110l-137 -140h-104z" />
    <glyph glyph-name="uhungarumlaut" unicode="&#x171;" 
d="M253 -10c-66 0 -115.499 19.167 -148.499 57.5s-44.167 90.5 -33.5 156.5l54 346h108l-54 -346c-6 -38 -1 -67.5 15 -88.5s41 -31.5 75 -31.5s62.5 10.5 85.5 31.5s37.5 50.5 43.5 88.5l55 346h108l-55 -346c-6.66699 -44 -21.5 -82 -44.5 -114s-52.333 -56.667 -88 -74
s-75.834 -26 -120.501 -26zM383.001 645l130 140h110l-137 -140h-103zM190.001 645l131 140h109l-137 -140h-103z" />
    <glyph glyph-name="Uogonek" unicode="&#x172;" 
d="M294 -210c-37.333 0 -66 9.33203 -86 27.999s-27.333 42.334 -22 71.001c1.33301 10.667 6.16602 22.5 14.499 35.5s19.333 26 33 39s28.834 24.833 45.501 35.5c-1.33301 -1.33301 -4.16602 -3.16602 -8.49902 -5.49902s-9.83301 -3.5 -16.5 -3.5
c-44.667 0 -82 8.5 -112 25.5s-51.333 41.667 -64 74s-15.667 70.166 -9 113.499l84 527h108l-84 -527c-6 -37.333 -1.16699 -66.166 14.5 -86.499s41.5 -30.5 77.5 -30.5c36.667 0 66 10.167 88 30.5s36 49.166 42 86.499l84 527h108l-84 -527
c-6.66699 -40 -19.834 -75.5 -39.501 -106.5s-45.167 -55.167 -76.5 -72.5l-39 -28c-22 -16.667 -38.167 -32 -48.5 -46s-16.5 -27.333 -18.5 -40c-2 -13.333 1 -24.333 9 -33s20 -13 36 -13h63l-12 -74h-87z" />
    <glyph glyph-name="uogonek" unicode="&#x173;" 
d="M291 -210c-38 0 -66.835 9.33301 -86.502 28s-27.167 42.334 -22.5 71.001c2.66699 16.667 11.5 34.167 26.5 52.5s39.167 38.5 72.5 60.5c-0.666992 -1.33301 -2.66699 -3 -6 -5s-6.83301 -3.66699 -10.5 -5s-7.16699 -2 -10.5 -2c-68 0 -118.167 19.167 -150.5 57.5
s-43.166 90.166 -32.499 155.499l54 347h108l-55 -347c-6 -38.667 -1.16699 -68 14.5 -88s41.167 -30 76.5 -30c36.667 0 65.834 10 87.501 30s35.5 49.333 41.5 88l55 347h108l-55 -347c-6.66699 -40 -19.834 -75.333 -39.501 -106s-45.167 -55 -76.5 -73l-38 -29
c-22 -16 -38.667 -31 -50 -45s-18 -27.333 -20 -40c-2 -13.333 0.833008 -24.333 8.5 -33s19.834 -13 36.501 -13h62l-11 -74h-87z" />
    <glyph glyph-name="Wcircumflex" unicode="&#x174;" 
d="M56 0l37.002 730h94l-34 -524c-0.666992 -13.333 -1.66699 -28 -3 -44s-2.83301 -31.667 -4.5 -47l-4.5 -40l9.5 40c3.66699 15.333 7.66699 31 12 47s8.5 30.667 12.5 44l147 524h102l-25 -524c-0.666992 -13.333 -1.33398 -28 -2.00098 -44l-2 -47
c-0.666992 -15.333 -1.33398 -28.666 -2.00098 -39.999c2.66699 11.333 5.5 24.666 8.5 39.999s6.5 31 10.5 47l11 44l134 524h94l-198 -730h-125l25 531c0.666992 14 1.5 28.833 2.5 44.5l3 46c1 15 2.16699 27.5 3.5 37.5l-9.5 -37.5l-11.5 -46
c-4 -15.667 -8 -30.5 -12 -44.5l-147 -531h-126zM196.002 810l160 140h100l116 -140h-107l-67 76l-88 -76h-114z" />
    <glyph glyph-name="wcircumflex" unicode="&#x175;" 
d="M69 0l1.99805 549.998h89l-7 -363c-0.666992 -16.667 -1.16699 -35.167 -1.5 -55.5s-1.16602 -37.166 -2.49902 -50.499l15 50l17 56l115 363h93l-2 -363v-56.5c0 -20.333 -0.333008 -37.166 -1 -50.499c3.33301 14 8 31.167 14 51.5l17 55.5l110 363h88l-175 -550h-114
l2 359c0 18.667 0.166992 38.5 0.5 59.5s0.5 37.833 0.5 50.5c-3.33301 -12.667 -8.16602 -29.5 -14.499 -50.5l-18.5 -59.5l-112 -359h-115zM169.998 644.998l160 140h100l116 -140h-107l-67 76l-88 -76h-114z" />
    <glyph glyph-name="Ycircumflex" unicode="&#x176;" 
d="M202 0l42.002 269l-143 461h110l85 -276c5.33301 -18 9.5 -34.833 12.5 -50.5s4.83301 -27.834 5.5 -36.501c3.33301 8.66699 8.66602 20.834 15.999 36.501s16.666 32.5 27.999 50.5l171 276h114l-291 -461l-42 -269h-108zM196.002 810l160 140h100l116 -140h-107
l-67 76l-88 -76h-114z" />
    <glyph glyph-name="ycircumflex" unicode="&#x177;" 
d="M83 -180l15.001 93h169c28 0 50 6.66699 66 20s26 33 30 59l9 59l18 104h-27l30 25c-6.66699 -44 -25.167 -78.333 -55.5 -103s-68.5 -37 -114.5 -37c-54 0 -94.667 17.5 -122 52.5s-36.333 82.167 -27 141.5l51 316h107l-48 -304c-6 -36 -0.833008 -64 15.5 -84
s41.166 -30 74.499 -30c34 0 62.5 10.5 85.5 31.5s37.5 50.833 43.5 89.5l47 297h108l-89 -560c-7.33301 -52.667 -30.5 -94.167 -69.5 -124.5s-87.833 -45.5 -146.5 -45.5h-170zM170.001 645l160 140h100l116 -140h-107l-67 76l-88 -76h-114z" />
    <glyph glyph-name="Ydieresis" unicode="&#x178;" 
d="M202 0l42.002 269l-143 461h110l85 -276c5.33301 -18 9.5 -34.833 12.5 -50.5s4.83301 -27.834 5.5 -36.501c3.33301 8.66699 8.66602 20.834 15.999 36.501s16.666 32.5 27.999 50.5l171 276h114l-291 -461l-42 -269h-108zM499.002 813
c-21.333 0 -37.1631 6 -47.4961 18s-13.833 28.333 -10.5 49c3.33301 21.333 12.166 38.166 26.499 50.499s32.166 18.5 53.499 18.5c20.667 0 36.167 -6.16699 46.5 -18.5s13.833 -29.166 10.5 -50.499c-2.66699 -20.667 -11.334 -37 -26.001 -49s-32.334 -18 -53.001 -18z
M270.005 813c-20.667 0 -36.1689 6 -46.502 18s-14.166 28.333 -11.499 49c3.33301 21.333 12.333 38.166 27 50.499s32.334 18.5 53.001 18.5c21.333 0 37.166 -6.16699 47.499 -18.5s13.5 -29.166 9.5 -50.499c-2.66699 -20.667 -11.167 -37 -25.5 -49
s-32.166 -18 -53.499 -18z" />
    <glyph glyph-name="Zacute" unicode="&#x179;" 
d="M38 0l17 105l390 526h-301l16 99h420l-18 -105l-390 -526h318l-16 -99h-436zM314 810l128 140h121l-135 -140h-114z" />
    <glyph glyph-name="zacute" unicode="&#x17a;" 
d="M40 0l16 102l349 352h-284l15 96h412l-16 -102l-353 -352h308l-15 -96h-432zM288 645l128 140h121l-135 -140h-114z" />
    <glyph glyph-name="Zdotaccent" unicode="&#x17b;" 
d="M38 0l17 105l390 526h-301l16 99h420l-18 -105l-390 -526h318l-16 -99h-436zM384 812c-23.333 0 -40.834 6.16699 -52.501 18.5s-16.167 28.833 -13.5 49.5c4 20.667 13.833 37.167 29.5 49.5s35.5 18.5 59.5 18.5c23.333 0 40.833 -6.16699 52.5 -18.5
s15.834 -28.833 12.501 -49.5s-12.833 -37.167 -28.5 -49.5s-35.5 -18.5 -59.5 -18.5z" />
    <glyph glyph-name="zdotaccent" unicode="&#x17c;" 
d="M40 0l16 102l349 352h-284l15 96h412l-16 -102l-353 -352h308l-15 -96h-432zM358 645c-23.333 0 -40.833 6.16699 -52.5 18.5s-16.167 28.833 -13.5 49.5c4 21.333 13.833 38.166 29.5 50.499s35.167 18.5 58.5 18.5s41 -6.16699 53 -18.5s16.333 -29.166 13 -50.499
c-3.33301 -20.667 -12.833 -37.167 -28.5 -49.5s-35.5 -18.5 -59.5 -18.5z" />
    <glyph glyph-name="Zcaron" unicode="&#x17d;" 
d="M38 0l17 105l390 526h-301l16 99h420l-18 -105l-390 -526h318l-16 -99h-436zM334 810l-116 140h107l68 -76l87 76h114l-160 -140h-100z" />
    <glyph glyph-name="zcaron" unicode="&#x17e;" 
d="M40 0l16 102l349 352h-284l15 96h412l-16 -102l-353 -352h308l-15 -96h-432zM309 645l-116 140h107l68 -76l87 76h114l-160 -140h-100z" />
    <glyph glyph-name="longs" unicode="&#x17f;" 
d="M-51 -180l15 93.002h108c28 0 49.833 6.66699 65.5 20s25.5 33 29.5 59l91 575c5.33301 33.333 17.166 62.166 35.499 86.499s41.833 43.166 70.5 56.499s61.334 20 98.001 20h170l-15 -96h-170c-23.333 0 -41.833 -5.66699 -55.5 -17s-22.167 -28.333 -25.5 -51
l-91 -576c-8 -52.667 -31.333 -94.167 -70 -124.5s-87.667 -45.5 -147 -45.5h-109z" />
    <glyph glyph-name="uni018F" unicode="&#x18f;" 
d="M254 -10c-44.667 0 -82.0029 8.83398 -112.003 26.501s-51.333 42.5 -64 74.5s-15.667 69.333 -9 112l32 202h330l19 123c6.66699 37.333 2.33398 66.166 -12.999 86.499s-41.333 30.5 -78 30.5c-36 0 -65.167 -10.167 -87.5 -30.5s-36.5 -49.5 -42.5 -87.5h-108
c6.66699 44 21.334 81.833 44.001 113.5s51.834 56.167 87.501 73.5s75.834 26 120.501 26c68.667 0 119.334 -19 152.001 -57s43.667 -90 33 -156l-51 -324c-6.66699 -42.667 -21.334 -80 -44.001 -112s-51.834 -56.833 -87.501 -74.5s-76.167 -26.5 -121.5 -26.5z
M267.997 77.001c39.333 0 69.5 10.8311 90.5 32.498s34.5 52.834 40.5 93.501l19 120h-230l10 8l-21 -128c-6 -41.333 -1.66699 -72.666 13 -93.999s40.667 -32 78 -32z" />
    <glyph glyph-name="florin" unicode="&#x192;" 
d="M-73 -180l16.002 101h111c32 0 59 9.16699 81 27.5s35.333 43.166 40 74.499l45 282h-158l15 96h158l29 179c7.33301 46.667 27.333 83.334 60 110.001s74 40 124 40h165l-15 -95h-160c-18.667 0 -33.834 -4.66699 -45.501 -14s-18.834 -23 -21.501 -41l-28 -179h219
l-15 -96h-219l-46 -287c-6 -39.333 -20.5 -74 -43.5 -104s-51.833 -53.167 -86.5 -69.5s-73.667 -24.5 -117 -24.5h-108z" />
    <glyph glyph-name="Ohorn" unicode="&#x1a0;" 
d="M450 625l10.998 75h29c11.333 0 20.5 3.16699 27.5 9.5s11.167 14.833 12.5 25.5l12 75h89l-12 -79c-5.33301 -32 -20.166 -57.667 -44.499 -77s-54.166 -29 -89.499 -29h-35zM253.998 -10c-44.667 0 -82.166 8.5 -112.499 25.5s-51.833 41.667 -64.5 74
s-15.667 70.166 -9 113.499l51 324c7.33301 44 22.333 82 45 114s52 56.5 88 73.5s76.333 25.5 121 25.5c45.333 0 83.166 -8.5 113.499 -25.5s52 -41.5 65 -73.5s15.833 -69.667 8.5 -113l-51 -325c-6.66699 -43.333 -21.667 -81.166 -45 -113.499s-52.833 -57 -88.5 -74
s-76.167 -25.5 -121.5 -25.5zM268.999 86c36.667 0 66.333 10.167 89 30.5s37 49.166 43 86.499l51 324c6 38 1 67 -15 87s-42.333 30 -79 30s-66.167 -10 -88.5 -30s-36.5 -49 -42.5 -87l-51 -324c-6 -37.333 -1 -66.166 15 -86.499s42 -30.5 78 -30.5z" />
    <glyph glyph-name="ohorn" unicode="&#x1a1;" 
d="M415 455l11.998 75h42c11.333 0 20.5 3 27.5 9s11.167 14.667 12.5 26l12 75h88l-12 -79c-5.33301 -32 -20.166 -57.667 -44.499 -77s-54.166 -29 -89.499 -29h-48zM253.998 -10c-44.667 0 -82.167 8.5 -112.5 25.5s-51.833 41.667 -64.5 74s-15.667 70.166 -9 113.499
l22 144c7.33301 44 22.5 82 45.5 114s52.5 56.5 88.5 73.5s76.333 25.5 121 25.5c45.333 0 83 -8.5 113 -25.5s51.5 -41.5 64.5 -73.5s16.167 -69.667 9.5 -113l-23 -145c-6.66699 -43.333 -21.667 -81.166 -45 -113.499s-52.833 -57 -88.5 -74s-76.167 -25.5 -121.5 -25.5z
M268.998 85c36.667 0 66.334 10 89.001 30s37 49.333 43 88l22 144c6.66699 38.667 1.83398 68 -14.499 88s-42.5 30 -78.5 30s-65.333 -10 -88 -30s-37.334 -49.333 -44.001 -88l-22 -144c-6 -38.667 -0.833008 -68 15.5 -88s42.166 -30 77.499 -30z" />
    <glyph glyph-name="Uhorn" unicode="&#x1af;" 
d="M498 655l11.998 75h50c11.333 0 20.5 3.16699 27.5 9.5s11.167 14.833 12.5 25.5l12 75h89l-13 -79c-5.33301 -32 -20.166 -57.667 -44.499 -77s-54.166 -29 -89.499 -29h-56zM253.998 -10c-70 0 -120.834 19.167 -152.501 57.5s-42.167 90.5 -31.5 156.5l83 526h108
l-83 -526c-6.66699 -36.667 -2.33398 -65.667 12.999 -87s41.333 -32 78 -32s66.167 10.667 88.5 32s36.5 50.333 42.5 87l83 526h108l-83 -526c-7.33301 -44 -22.166 -82.167 -44.499 -114.5s-51.166 -57 -86.499 -74s-76.333 -25.5 -123 -25.5z" />
    <glyph glyph-name="uhorn" unicode="&#x1b0;" 
d="M71 203l54.001 347h108l-55 -348c-6 -37.333 -1.33301 -66.333 14 -87s39 -31 71 -31c32.667 0 59.834 10.333 81.501 31s35.5 49.667 41.5 87l55 348h89c11.333 0 20.5 3 27.5 9s11.5 14.667 13.5 26l12 75h88l-12 -79c-5.33301 -32 -18.333 -57.667 -39 -77
s-48.334 -29 -83.001 -29l-43 -272c-6.66699 -44 -21.334 -82 -44.001 -114s-51.167 -56.5 -85.5 -73.5s-73.5 -25.5 -117.5 -25.5c-64 0 -112 19 -144 57s-42.667 90 -32 156z" />
    <glyph glyph-name="uni01CD" unicode="&#x1cd;" 
d="M-1 0l302 730h142l70 -730h-106l-14 185h-207l-74 -185h-113zM220 274l166.002 0.000976562l-17 211c-2.66699 37.333 -4.83398 69.833 -6.50098 97.5s-2.5 46.5 -2.5 56.5l-19.5 -56.5c-9.66699 -27.667 -21.834 -59.834 -36.501 -96.501zM334.002 810.001l-116 140h107
l68 -76l87 76h114l-160 -140h-100z" />
    <glyph glyph-name="uni01CE" unicode="&#x1ce;" 
d="M215 -10c-54.667 0 -95.501 18.668 -122.501 56.001s-35.167 87.666 -24.5 150.999l24 155c6.66699 43.333 20 80.333 40 111s44.833 54.5 74.5 71.5s62.834 25.5 99.501 25.5c45.333 0 79.5 -12.5 102.5 -37.5s30.833 -59.167 23.5 -102.5l-19 25h24l15 105h107
l-87 -550h-106l17 105h-23l27 25c-7.33301 -43.333 -26.5 -77.5 -57.5 -102.5s-69.167 -37.5 -114.5 -37.5zM267.999 84.001c34 0 62.499 10.5 85.499 31.5s37.5 50.167 43.5 87.5l22 144c6.66699 37.333 1.83398 66.5 -14.499 87.5s-41.833 31.5 -76.5 31.5
c-35.333 0 -64 -10.167 -86 -30.5s-36.333 -49.833 -43 -88.5l-22 -144c-6.66699 -38.667 -2 -68.167 14 -88.5s41.667 -30.5 77 -30.5zM313.998 645.001l-116 140h107l68 -76l87 76h114l-160 -140h-100z" />
    <glyph glyph-name="Gcaron" unicode="&#x1e6;" 
d="M258 -10c-45.333 0 -83.498 8.50098 -114.498 25.501s-53 41.667 -66 74s-16.167 70.166 -9.5 113.499l51 324c7.33301 44 22.666 82 45.999 114s53.166 56.5 89.499 73.5s77.166 25.5 122.499 25.5s83.166 -8.66699 113.499 -26s52.333 -41.833 66 -73.5
s16.834 -69.5 9.50098 -113.5h-108c6.66699 38 1.5 67 -15.5 87s-43.833 30 -80.5 30s-66.834 -10 -90.501 -30s-38.5 -48.667 -44.5 -86l-51 -325c-6 -37.333 -0.333008 -66.333 17 -87s44 -31 80 -31c36.667 0 66.667 10.333 90 31s38 49.667 44 87l13 82h-136l15 95h244
l-28 -177c-6.66699 -43.333 -21.667 -81 -45 -113s-53.166 -56.667 -89.499 -74s-77.166 -26 -122.499 -26zM334.002 810.001l-116 140h107l68 -76l87 76h114l-160 -140h-100z" />
    <glyph glyph-name="gcaron" unicode="&#x1e7;" 
d="M85 -180l13.998 93h169c28 0 50 6.66699 66 20s26 33 30 59l9 55l18 102h-23l26 20c-7.33301 -42 -26 -75 -56 -99s-67.333 -36 -112 -36c-56.667 0 -98.5 18.667 -125.5 56s-35.5 87.666 -25.5 150.999l18 112c6.66699 42.667 19.834 79.334 39.501 110.001
s44.667 54.5 75 71.5s64.166 25.5 101.499 25.5c44.667 0 78.334 -12.167 101.001 -36.5s30.667 -57.5 24 -99.5l-20 21h23l15 105h107l-88 -560c-8.66699 -52.667 -32.167 -94.167 -70.5 -124.5s-87.166 -45.5 -146.499 -45.5h-169zM274.998 127
c34.667 0 63.3311 10.5 85.998 31.5s37.334 50.167 44.001 87.5l15 101c6.66699 37.333 1.66699 66.5 -15 87.5s-42 31.5 -76 31.5c-35.333 0 -64.166 -10.167 -86.499 -30.5s-36.5 -49.833 -42.5 -88.5l-16 -101c-6 -38 -1 -67.333 15 -88s41.333 -31 76 -31zM305.995 645
l-116 140h107l68 -76l87 76h114l-160 -140h-100z" />
    <glyph glyph-name="uni01EA" unicode="&#x1ea;" 
d="M295 -210c-38 0 -66.8369 9.33203 -86.5039 27.999s-27.167 42.334 -22.5 71.001c1.33301 10.667 6.33301 22.5 15 35.5s19.667 26 33 39s28.333 24.833 45 35.5c-1.33301 -1.33301 -4.16602 -3.16602 -8.49902 -5.49902s-9.83301 -3.5 -16.5 -3.5
c-44.667 0 -82.167 8.5 -112.5 25.5s-51.833 41.667 -64.5 74s-15.667 70.166 -9 113.499l51 324c7.33301 44 22.5 82 45.5 114s52.333 56.5 88 73.5s75.834 25.5 120.501 25.5c46 0 84 -8.5 114 -25.5s51.5 -41.5 64.5 -73.5s15.833 -69.667 8.5 -113l-51 -325
c-6.66699 -40 -20.167 -75.5 -40.5 -106.5s-46.166 -55.167 -77.499 -72.5l-39 -28c-22 -16.667 -38 -32 -48 -46s-16.333 -27.333 -19 -40c-1.33301 -13.333 1.83398 -24.333 9.50098 -33s19.5 -13 35.5 -13h63l-11 -74h-87zM269.996 85.999
c36.667 0 66.166 10.167 88.499 30.5s36.5 49.166 42.5 86.499l51 324c6.66699 38 1.83398 67 -14.499 87s-42.833 30 -79.5 30c-36 0 -65.167 -10 -87.5 -30s-36.833 -49 -43.5 -87l-51 -324c-6 -37.333 -0.833008 -66.166 15.5 -86.499s42.5 -30.5 78.5 -30.5z" />
    <glyph glyph-name="uni01EB" unicode="&#x1eb;" 
d="M291 -210c-38 0 -66.833 9.33301 -86.5 28s-27.167 42.334 -22.5 71.001c2.66699 16.667 11.5 34.167 26.5 52.5s39.167 38.5 72.5 60.5c-0.666992 -1.33301 -2.66699 -3 -6 -5s-6.83301 -3.66699 -10.5 -5s-7.16699 -2 -10.5 -2c-44.667 0 -82.167 8.5 -112.5 25.5
s-51.833 41.667 -64.5 74s-15.667 70.166 -9 113.499l22 144c7.33301 44 22.5 82 45.5 114s52.5 56.5 88.5 73.5s76.333 25.5 121 25.5c45.333 0 83 -8.5 113 -25.5s51.5 -41.5 64.5 -73.5s16.167 -69.667 9.5 -113l-23 -145c-6.66699 -40 -20.334 -75.333 -41.001 -106
s-46.667 -55 -78 -73l-38 -29c-22 -16 -38.667 -31 -50 -45s-18 -27.333 -20 -40c-2 -13.333 0.833008 -24.333 8.5 -33s19.834 -13 36.501 -13h62l-11 -74h-87zM269 85c36.667 0 66.334 10 89.001 30s37 49.333 43 88l22 144c6.66699 38.667 1.83398 68 -14.499 88
s-42.5 30 -78.5 30s-65.333 -10 -88 -30s-37.334 -49.333 -44.001 -88l-22 -144c-6 -38.667 -0.833008 -68 15.5 -88s42.166 -30 77.499 -30z" />
    <glyph glyph-name="uni01F4" unicode="&#x1f4;" 
d="M258 -10c-45.333 0 -83.498 8.50098 -114.498 25.501s-53 41.667 -66 74s-16.167 70.166 -9.5 113.499l51 324c7.33301 44 22.666 82 45.999 114s53.166 56.5 89.499 73.5s77.166 25.5 122.499 25.5s83.166 -8.66699 113.499 -26s52.333 -41.833 66 -73.5
s16.834 -69.5 9.50098 -113.5h-108c6.66699 38 1.5 67 -15.5 87s-43.833 30 -80.5 30s-66.834 -10 -90.501 -30s-38.5 -48.667 -44.5 -86l-51 -325c-6 -37.333 -0.333008 -66.333 17 -87s44 -31 80 -31c36.667 0 66.667 10.333 90 31s38 49.667 44 87l13 82h-136l15 95h244
l-28 -177c-6.66699 -43.333 -21.667 -81 -45 -113s-53.166 -56.667 -89.499 -74s-77.166 -26 -122.499 -26zM314.002 810.001l128 140h121l-135 -140h-114z" />
    <glyph glyph-name="uni01F5" unicode="&#x1f5;" 
d="M85 -180l13.998 93h169c28 0 50 6.66699 66 20s26 33 30 59l9 55l18 102h-23l26 20c-7.33301 -42 -26 -75 -56 -99s-67.333 -36 -112 -36c-56.667 0 -98.5 18.667 -125.5 56s-35.5 87.666 -25.5 150.999l18 112c6.66699 42.667 19.834 79.334 39.501 110.001
s44.667 54.5 75 71.5s64.166 25.5 101.499 25.5c44.667 0 78.334 -12.167 101.001 -36.5s30.667 -57.5 24 -99.5l-20 21h23l15 105h107l-88 -560c-8.66699 -52.667 -32.167 -94.167 -70.5 -124.5s-87.166 -45.5 -146.499 -45.5h-169zM274.998 127
c34.667 0 63.3311 10.5 85.998 31.5s37.334 50.167 44.001 87.5l15 101c6.66699 37.333 1.66699 66.5 -15 87.5s-42 31.5 -76 31.5c-35.333 0 -64.166 -10.167 -86.499 -30.5s-36.5 -49.833 -42.5 -88.5l-16 -101c-6 -38 -1 -67.333 15 -88s41.333 -31 76 -31zM286.995 645
l128 140h121l-135 -140h-114z" />
    <glyph glyph-name="AEacute" unicode="&#x1fc;" 
d="M-23 0l259 730h409l-15 -95h-177l-33 -210h152l-16 -97h-151l-38 -233h177l-15 -95h-274l30 192h-135l-66 -192h-107zM178 276h120l58 359h-54zM319 810l128 140h121l-135 -140h-114z" />
    <glyph glyph-name="aeacute" unicode="&#x1fd;" 
d="M125 -10c-41.333 0 -72.166 12.998 -92.499 38.998s-27.166 60.667 -20.499 104l9 57c6.66699 41.333 26.167 74.333 58.5 99s72.166 37 119.499 37h65l12 76c4 26 2 45 -6 57s-22.333 18 -43 18c-17.333 0 -32.166 -5.66699 -44.499 -17
s-20.166 -26.666 -23.499 -45.999h-94c7.33301 44 25.666 79.333 54.999 106s64.333 40 105 40c26 0 46.667 -4.16699 62 -12.5s26.666 -18.666 33.999 -30.999s11 -24.166 11 -35.499h5c4 11.333 11.167 23.166 21.5 35.499s24.5 22.666 42.5 30.999s39.333 12.5 64 12.5
c44.667 0 77.667 -14.167 99 -42.5s28.333 -66.5 21 -114.5l-24 -149h-218l-16 -107c-4 -22 -1.5 -39.833 7.5 -53.5s22.833 -20.5 41.5 -20.5c19.333 0 35.5 5.33301 48.5 16s20.833 25.334 23.5 44.001h94c-6.66699 -42.667 -25.5 -77.167 -56.5 -103.5
s-68.167 -39.5 -111.5 -39.5c-24.667 0 -44.667 4.16699 -60 12.5s-26.333 18.666 -33 30.999s-10 24.166 -10 35.499h-5c-3.33301 -11.333 -10.833 -23.166 -22.5 -35.499s-27.334 -22.666 -47.001 -30.999s-43.5 -12.5 -71.5 -12.5zM161 72.998
c18.667 0 34.8311 6.83398 48.498 20.501s22.5 31.5 26.5 53.5l16 107h-63c-19.333 0 -35.166 -5.66699 -47.499 -17s-20.166 -27 -23.499 -47l-8 -57c-3.33301 -18.667 -0.333008 -33.334 9 -44.001s23.333 -16 42 -16zM353.997 325.999h124l13 77
c3.33301 22.667 0.5 40.667 -8.5 54s-23.5 20 -43.5 20c-18.667 0 -34.5 -6.66699 -47.5 -20s-21.167 -31.333 -24.5 -54zM287.997 644.999l128 140h121l-135 -140h-114z" />
    <glyph glyph-name="Oslashacute" unicode="&#x1fe;" 
d="M-21 -40l571 790h96l-571 -790h-96zM254 -10c-44.667 0 -82.167 8.5 -112.5 25.5s-51.833 41.667 -64.5 74s-15.667 70.166 -9 113.499l51 324c7.33301 44 22.333 82 45 114s52 56.5 88 73.5s76.333 25.5 121 25.5c45.333 0 83 -8.5 113 -25.5s51.5 -41.5 64.5 -73.5
s16.167 -69.667 9.5 -113l-51 -325c-6.66699 -43.333 -21.667 -81.166 -45 -113.499s-52.833 -57 -88.5 -74s-76.167 -25.5 -121.5 -25.5zM269 86c37.333 0 67.3359 10.167 90.0029 30.5s37 49.166 43 86.499l51 324c6.66699 38 1.66699 67 -15 87s-43.334 30 -80.001 30
s-66.334 -10 -89.001 -30s-37.334 -49 -44.001 -87l-51 -324c-6 -37.333 -0.666992 -66.166 16 -86.499s43 -30.5 79 -30.5zM314.003 810l128 140h121l-135 -140h-114z" />
    <glyph glyph-name="oslashacute" unicode="&#x1ff;" 
d="M-17 -30l534 620h100l-535 -620h-99zM254 -10c-44.667 0 -82.166 8.5 -112.499 25.5s-51.833 41.667 -64.5 74s-15.667 70.166 -9 113.499l22 144c7.33301 44 22.5 82 45.5 114s52.5 56.5 88.5 73.5s76.333 25.5 121 25.5c45.333 0 83.166 -8.5 113.499 -25.5
s52 -41.5 65 -73.5s15.833 -69.667 8.5 -113l-23 -145c-6.66699 -43.333 -21.667 -81.166 -45 -113.499s-52.833 -57 -88.5 -74s-76.167 -25.5 -121.5 -25.5zM269.001 85c38 0 69 10.5 93 31.5s39 49.833 45 86.5l23 144c6 37.333 0.166992 66.333 -17.5 87
s-45.167 31 -82.5 31c-38 0 -69 -10.333 -93 -31s-39 -49.667 -45 -87l-23 -144c-6 -36.667 -0.166992 -65.5 17.5 -86.5s45.167 -31.5 82.5 -31.5zM288.001 645l128 140h121l-135 -140h-114z" />
    <glyph glyph-name="uni0218" unicode="&#x218;" 
d="M257 -10c-73.333 0 -128.332 18.167 -164.999 54.5s-50.334 85.833 -41.001 148.5h108c-5.33301 -33.333 2 -59.5 22 -78.5s50.667 -28.5 92 -28.5c38.667 0 70.5 9.33301 95.5 28s40.167 44.334 45.5 77.001c4.66699 28.667 1 53.167 -11 73.5s-30.667 34.5 -56 42.5
l-87 26c-50.667 15.333 -88 41.333 -112 78s-32.333 80 -25 130c6.66699 40 21.334 75 44.001 105s52 53.333 88 70s76.667 25 122 25c66.667 0 117.334 -18 152.001 -54s47.334 -84.333 38.001 -145h-108c5.33301 32 -0.5 57.167 -17.5 75.5s-43.833 27.5 -80.5 27.5
c-36 0 -65.167 -8.5 -87.5 -25.5s-35.833 -40.833 -40.5 -71.5c-4.66699 -28 -1.33398 -52.333 9.99902 -73s29.666 -35 54.999 -43l90 -28c50 -15.333 86.833 -41.333 110.5 -78s31.5 -80.334 23.5 -131.001c-6 -41.333 -21.167 -77.333 -45.5 -108
s-55.333 -54.5 -93 -71.5s-79.834 -25.5 -126.501 -25.5zM104.001 -240l118 145h118l-131 -145h-105z" />
    <glyph glyph-name="uni0219" unicode="&#x219;" 
d="M232 -10c-60 0 -105.833 13.8359 -137.5 41.5029s-45.5 64.5 -41.5 110.5h108c0 -18 7.33301 -32.667 22 -44s35.667 -17 63 -17h43c33.333 0 59.166 6.83301 77.499 20.5s29.5 31.5 33.5 53.5c2.66699 21.333 -2.16602 38.5 -14.499 51.5s-32.833 21.5 -61.5 25.5
l-69 11c-56.667 8.66699 -97.167 25 -121.5 49s-32.833 60 -25.5 108c7.33301 50.667 29.833 90 67.5 118s89.167 42 154.5 42h38c56.667 0 100.167 -13.333 130.5 -40s44.166 -62 41.499 -106h-108c0 16 -6.83301 29.167 -20.5 39.5s-33.167 15.5 -58.5 15.5h-38
c-31.333 0 -55 -6 -71 -18s-26 -29.333 -30 -52c-2.66699 -20 1 -35.333 11 -46s28.333 -18.334 55 -23.001l71 -11c60 -9.33301 102.833 -26.333 128.5 -51s34.834 -61.334 27.501 -110.001c-8.66699 -52.667 -32.5 -93.834 -71.5 -123.501s-92.833 -44.5 -161.5 -44.5h-42
zM96 -239.997l118 145h118l-131 -145h-105z" />
    <glyph glyph-name="uni021A" unicode="&#x21a;" 
d="M202 0l100 631h-195l16 100h498l-16 -100h-195l-100 -631h-108zM68 -240l118 145h118l-131 -145h-105z" />
    <glyph glyph-name="uni021B" unicode="&#x21b;" 
d="M316 0c-50 0 -86.832 13.667 -110.499 41s-31.5 65.333 -23.5 114l47 297h-152l15 98h152l24 150h108l-24 -150h215l-15 -98h-215l-47 -297c-6.66699 -38 8.66602 -57 45.999 -57h150l-16 -98h-154zM104.001 -240l118 145h118l-131 -145h-105z" />
    <glyph glyph-name="uni0232" unicode="&#x232;" 
d="M202 0l42.002 269l-143 461h110l85 -276c5.33301 -18 9.5 -34.833 12.5 -50.5s4.83301 -27.834 5.5 -36.501c3.33301 8.66699 8.66602 20.834 15.999 36.501s16.666 32.5 27.999 50.5l171 276h114l-291 -461l-42 -269h-108zM222.002 834l14 85h332l-14 -85h-332z" />
    <glyph glyph-name="uni0233" unicode="&#x233;" 
d="M83 -180l15.001 93h169c28 0 50 6.66699 66 20s26 33 30 59l9 59l18 104h-27l30 25c-6.66699 -44 -25.167 -78.333 -55.5 -103s-68.5 -37 -114.5 -37c-54 0 -94.667 17.5 -122 52.5s-36.333 82.167 -27 141.5l51 316h107l-48 -304c-6 -36 -0.833008 -64 15.5 -84
s41.166 -30 74.499 -30c34 0 62.5 10.5 85.5 31.5s37.5 50.833 43.5 89.5l47 297h108l-89 -560c-7.33301 -52.667 -30.5 -94.167 -69.5 -124.5s-87.833 -45.5 -146.5 -45.5h-170zM195.001 666l14 85h332l-14 -85h-332z" />
    <glyph glyph-name="uni0237" unicode="&#x237;" 
d="M11 -180l16 100h138c37.333 0 67.833 10 91.5 30s38.5 48.333 44.5 85l65 416h-225l16 99h333l-82 -516c-6.66699 -44 -21.667 -82 -45 -114s-53 -56.667 -89 -74s-76.667 -26 -122 -26h-141z" />
    <glyph glyph-name="uni0259" unicode="&#x259;" 
d="M254 -10c-45.333 0 -82.8281 8.83301 -112.495 26.5s-50.834 42.5 -63.501 74.5s-15.667 69.333 -9 112l16 98h333l7 46c6.66699 40.667 2.16699 71.667 -13.5 93s-42.834 32 -81.501 32c-31.333 0 -56.833 -5.5 -76.5 -16.5s-33.834 -27.167 -42.501 -48.5h-107
c15.333 46.667 44.666 83.834 87.999 111.501s94.333 41.5 153 41.5c44.667 0 82 -8.83301 112 -26.5s51.5 -42.334 64.5 -74.001s15.833 -69.167 8.5 -112.5l-23 -144c-6.66699 -42.667 -21.334 -80 -44.001 -112s-52 -56.833 -88 -74.5s-76.333 -26.5 -121 -26.5z
M268.005 77c38.667 0 69.168 10.833 91.501 32.5s36.833 52.834 43.5 93.501l4 25h-237l9 8l-5 -33c-6.66699 -40.667 -2.33398 -71.834 12.999 -93.501s42.333 -32.5 81 -32.5z" />
    <glyph glyph-name="uni02B9" unicode="&#x2b9;" 
d="M179 410l129 311h144l-179 -311h-94z" />
    <glyph glyph-name="uni02BA" unicode="&#x2ba;" 
d="M347 409l129 311h144l-179 -311h-94zM72 409l129 311h144l-179 -311h-94z" />
    <glyph glyph-name="uni02BC" unicode="&#x2bc;" 
d="M188 465l129 311h144l-179 -311h-94z" />
    <glyph glyph-name="circumflex" unicode="&#x2c6;" 
d="M170 645l160 140h100l116 -140h-107l-67 76l-88 -76h-114z" />
    <glyph glyph-name="caron" unicode="&#x2c7;" 
d="M309 645l-116 140h107l68 -76l87 76h114l-160 -140h-100z" />
    <glyph glyph-name="uni02C9" unicode="&#x2c9;" 
d="M256.485 666l27.4629 85h332l-27.4629 -85h-332z" />
    <glyph glyph-name="breve" unicode="&#x2d8;" 
d="M357 639c-50 0 -88.168 13.333 -114.501 40s-36.166 62 -29.499 106h82c-3.33301 -24 1.5 -43.333 14.5 -58s31.833 -22 56.5 -22c25.333 0 46.833 7.33301 64.5 22s28.167 34 31.5 58h85c-6.66699 -44 -27.5 -79.333 -62.5 -106s-77.5 -40 -127.5 -40z" />
    <glyph glyph-name="dotaccent" unicode="&#x2d9;" 
d="M358 645c-23.333 0 -40.833 6.16699 -52.5 18.5s-16.167 28.833 -13.5 49.5c4 21.333 13.833 38.166 29.5 50.499s35.167 18.5 58.5 18.5s41 -6.16699 53 -18.5s16.333 -29.166 13 -50.499c-3.33301 -20.667 -12.833 -37.167 -28.5 -49.5s-35.5 -18.5 -59.5 -18.5z" />
    <glyph glyph-name="ring" unicode="&#x2da;" 
d="M352 605c-38 0 -66.668 10.833 -86.001 32.5s-26.666 50.167 -21.999 85.5c6 35.333 22.167 63.833 48.5 85.5s58.5 32.5 96.5 32.5s66.833 -10.833 86.5 -32.5s26.5 -50.167 20.5 -85.5c-4.66699 -35.333 -20.5 -63.833 -47.5 -85.5s-59.167 -32.5 -96.5 -32.5z
M360.999 663c18 0 33.333 5.5 46 16.5s20.334 25.5 23.001 43.5c3.33301 18.667 0.333008 33.5 -9 44.5s-23 16.5 -41 16.5s-33.333 -5.5 -46 -16.5s-20.667 -25.833 -24 -44.5c-2.66699 -18 0.666016 -32.5 9.99902 -43.5s23 -16.5 41 -16.5z" />
    <glyph glyph-name="ogonek" unicode="&#x2db;" 
d="M227 -210c-38 0 -67.001 9.33398 -87.001 28.001s-27.333 42.334 -22 71.001c3.33301 20 14 40.333 32 61s44.667 40.667 80 60h78l-20 -15c-22 -16.667 -38.667 -31.834 -50 -45.501s-18.333 -26.834 -21 -39.501c-1.33301 -13.333 1.83398 -24.333 9.50098 -33
s19.5 -13 35.5 -13h63l-12 -74h-86z" />
    <glyph glyph-name="tilde" unicode="&#x2dc;" 
d="M428 646c-20 0 -35.834 3.33203 -47.501 9.99902s-21.167 14.334 -28.5 23.001s-14.5 16.5 -21.5 23.5s-15.833 10.5 -26.5 10.5c-8.66699 0 -16.334 -3 -23.001 -9s-11 -14.667 -13 -26l-4 -27h-71l5 31c5.33301 31.333 18.333 56.166 39 74.499
s45.334 27.5 74.001 27.5c20 0 35.833 -3.33301 47.5 -10s21 -14.334 28 -23.001s14 -16.5 21 -23.5s15.833 -10.5 26.5 -10.5c9.33301 0 17.166 2.83301 23.499 8.5s10.5 13.834 12.5 24.501l5 29h71l-5 -31c-5.33301 -31.333 -18.166 -56.166 -38.499 -74.499
s-45.166 -27.5 -74.499 -27.5z" />
    <glyph glyph-name="hungarumlaut" unicode="&#x2dd;" 
d="M383 645l130 140h110l-137 -140h-103zM190 645l131 140h109l-137 -140h-103z" />
    <glyph glyph-name="uni02F3" unicode="&#x2f3;" 
d="M216 -253c-36.667 0 -64.8301 9.33301 -84.4971 28s-27.167 43 -22.5 73c5.33301 30.667 20.666 55.334 45.999 74.001s56.333 28 93 28s65 -9.33301 85 -28s27.333 -43 22 -73c-4.66699 -30.667 -19.834 -55.334 -45.501 -74.001s-56.834 -28 -93.501 -28zM223.004 -201
c18.667 0 34.3301 4.5 46.9971 13.5s20 21.167 22 36.5c2.66699 16.667 -0.666016 29.167 -9.99902 37.5s-23.666 12.5 -42.999 12.5c-17.333 0 -32.166 -4.5 -44.499 -13.5s-19.833 -21.5 -22.5 -37.5c-2 -14.667 1.5 -26.5 10.5 -35.5s22.5 -13.5 40.5 -13.5z" />
    <glyph glyph-name="uni02F7" unicode="&#x2f7;" 
d="M370 -219c-20.667 0 -37.334 3.33496 -50.001 10.002s-23.334 14.5 -32.001 23.5s-17 16.833 -25 23.5s-17.333 10 -28 10c-8.66699 0 -15.834 -2.83301 -21.501 -8.5s-8.5 -14.167 -8.5 -25.5v-28h-71v32c0 31.333 8.83301 56.166 26.5 74.499s40.834 27.5 69.501 27.5
c20.667 0 37.334 -3.33301 50.001 -10s23.334 -14.5 32.001 -23.5s17 -16.833 25 -23.5s17.333 -10 28 -10c9.33301 0 16.666 2.66699 21.999 8s8 13.666 8 24.999v29h71v-31c0 -32 -8.66699 -57.167 -26 -75.5s-40.666 -27.5 -69.999 -27.5z" />
    <glyph glyph-name="gravecomb" unicode="&#x300;" horiz-adv-x="0" 
d="M349 645l-94 140h114l86 -140h-106z" />
    <glyph glyph-name="acutecomb" unicode="&#x301;" horiz-adv-x="0" 
d="M258 645l128 140h121l-135 -140h-114z" />
    <glyph glyph-name="uni0302" unicode="&#x302;" horiz-adv-x="0" 
d="M170 645l160 140h100l116 -140h-107l-67 76l-88 -76h-114z" />
    <glyph glyph-name="tildecomb" unicode="&#x303;" horiz-adv-x="0" 
d="M428 646c-20 0 -35.834 3.33203 -47.501 9.99902s-21.167 14.334 -28.5 23.001s-14.5 16.5 -21.5 23.5s-15.833 10.5 -26.5 10.5c-8.66699 0 -16.334 -3 -23.001 -9s-11 -14.667 -13 -26l-4 -27h-71l5 31c5.33301 31.333 18.333 56.166 39 74.499
s45.334 27.5 74.001 27.5c20 0 35.833 -3.33301 47.5 -10s21 -14.334 28 -23.001s14 -16.5 21 -23.5s15.833 -10.5 26.5 -10.5c9.33301 0 17.166 2.83301 23.499 8.5s10.5 13.834 12.5 24.501l5 29h71l-5 -31c-5.33301 -31.333 -18.166 -56.166 -38.499 -74.499
s-45.166 -27.5 -74.499 -27.5z" />
    <glyph glyph-name="uni0304" unicode="&#x304;" horiz-adv-x="0" 
d="M195 666l14 85h332l-14 -85h-332z" />
    <glyph glyph-name="uni0306" unicode="&#x306;" horiz-adv-x="0" 
d="M357 639c-50 0 -88.168 13.333 -114.501 40s-36.166 62 -29.499 106h82c-3.33301 -24 1.5 -43.333 14.5 -58s31.833 -22 56.5 -22c25.333 0 46.833 7.33301 64.5 22s28.167 34 31.5 58h85c-6.66699 -44 -27.5 -79.333 -62.5 -106s-77.5 -40 -127.5 -40z" />
    <glyph glyph-name="uni0307" unicode="&#x307;" horiz-adv-x="0" 
d="M358 645c-23.333 0 -40.833 6.16699 -52.5 18.5s-16.167 28.833 -13.5 49.5c4 21.333 13.833 38.166 29.5 50.499s35.167 18.5 58.5 18.5s41 -6.16699 53 -18.5s16.333 -29.166 13 -50.499c-3.33301 -20.667 -12.833 -37.167 -28.5 -49.5s-35.5 -18.5 -59.5 -18.5z" />
    <glyph glyph-name="uni0308" unicode="&#x308;" horiz-adv-x="0" 
d="M473 645c-21.333 0 -37.1631 6.16699 -47.4961 18.5s-13.833 28.833 -10.5 49.5c3.33301 21.333 12.166 38.166 26.499 50.499s31.833 18.5 52.5 18.5c21.333 0 37.166 -6.16699 47.499 -18.5s13.833 -29.166 10.5 -50.499
c-2.66699 -20.667 -11.334 -37.167 -26.001 -49.5s-32.334 -18.5 -53.001 -18.5zM244.003 645c-20.667 0 -36.168 6.16699 -46.501 18.5s-14.166 28.833 -11.499 49.5c3.33301 21.333 12.166 38.166 26.499 50.499s32.166 18.5 53.499 18.5
c20.667 0 36.334 -6.16699 47.001 -18.5s14 -29.166 10 -50.499c-2.66699 -20.667 -11.167 -37.167 -25.5 -49.5s-32.166 -18.5 -53.499 -18.5z" />
    <glyph glyph-name="hookabovecomb" unicode="&#x309;" horiz-adv-x="0" 
d="M306 645l59.001 62c6 6 10.5 11.667 13.5 17s4.83301 10 5.5 14c2 12.667 -6 19 -24 19h-77l11 71h105c27.333 0 48.166 -7 62.499 -21s19.833 -33 16.5 -57c-1.33301 -10 -4.5 -19.833 -9.5 -29.5s-11.167 -18.5 -18.5 -26.5l-46 -49h-98z" />
    <glyph glyph-name="uni030A" unicode="&#x30a;" horiz-adv-x="0" 
d="M352 605c-38 0 -66.668 10.833 -86.001 32.5s-26.666 50.167 -21.999 85.5c6 35.333 22.167 63.833 48.5 85.5s58.5 32.5 96.5 32.5s66.833 -10.833 86.5 -32.5s26.5 -50.167 20.5 -85.5c-4.66699 -35.333 -20.5 -63.833 -47.5 -85.5s-59.167 -32.5 -96.5 -32.5z
M360.999 663c18 0 33.333 5.5 46 16.5s20.334 25.5 23.001 43.5c3.33301 18.667 0.333008 33.5 -9 44.5s-23 16.5 -41 16.5s-33.333 -5.5 -46 -16.5s-20.667 -25.833 -24 -44.5c-2.66699 -18 0.666016 -32.5 9.99902 -43.5s23 -16.5 41 -16.5z" />
    <glyph glyph-name="uni030B" unicode="&#x30b;" horiz-adv-x="0" 
d="M383 645l130 140h110l-137 -140h-103zM190 645l131 140h109l-137 -140h-103z" />
    <glyph glyph-name="uni030C" unicode="&#x30c;" horiz-adv-x="0" 
d="M309 645l-116 140h107l68 -76l87 76h114l-160 -140h-100z" />
    <glyph glyph-name="uni030F" unicode="&#x30f;" horiz-adv-x="0" 
d="M333 645h-98l-93 140h105zM521 645h-98l-93 140h104z" />
    <glyph glyph-name="uni0312" unicode="&#x312;" horiz-adv-x="0" 
d="M516 880l-117 -235h-136l167 235h86z" />
    <glyph glyph-name="uni031B" unicode="&#x31b;" horiz-adv-x="0" 
d="M519 475l12.001 75h36c11.333 0 20.5 3 27.5 9s11.5 14.667 13.5 26l12 75h88l-12 -79c-5.33301 -32 -20.333 -57.667 -45 -77s-54.334 -29 -89.001 -29h-43z" />
    <glyph glyph-name="dotbelowcomb" unicode="&#x323;" horiz-adv-x="0" 
d="M221 -219c-23.333 0 -40.833 6 -52.5 18s-16.167 28.667 -13.5 50c3.33301 20.667 13 37.167 29 49.5s35.667 18.5 59 18.5c24 0 41.833 -6.16699 53.5 -18.5s15.5 -28.833 11.5 -49.5c-2.66699 -21.333 -12 -38 -28 -50s-35.667 -18 -59 -18z" />
    <glyph glyph-name="uni0325" unicode="&#x325;" horiz-adv-x="0" 
d="M216 -253c-36.667 0 -64.8301 9.33301 -84.4971 28s-27.167 43 -22.5 73c5.33301 30.667 20.666 55.334 45.999 74.001s56.333 28 93 28s65 -9.33301 85 -28s27.333 -43 22 -73c-4.66699 -30.667 -19.834 -55.334 -45.501 -74.001s-56.834 -28 -93.501 -28zM223.004 -201
c18.667 0 34.3301 4.5 46.9971 13.5s20 21.167 22 36.5c2.66699 16.667 -0.666016 29.167 -9.99902 37.5s-23.666 12.5 -42.999 12.5c-17.333 0 -32.166 -4.5 -44.499 -13.5s-19.833 -21.5 -22.5 -37.5c-2 -14.667 1.5 -26.5 10.5 -35.5s22.5 -13.5 40.5 -13.5z" />
    <glyph glyph-name="uni0326" unicode="&#x326;" horiz-adv-x="0" 
d="M104 -240l118 145h118l-131 -145h-105z" />
    <glyph glyph-name="uni0327" unicode="&#x327;" horiz-adv-x="0" 
d="M123 -210l10.001 59.998h73c15.333 0 28.166 3.83301 38.499 11.5s16.166 15.834 17.499 24.501c2 12.667 -5.66699 23.334 -23 32.001s-43.333 13 -78 13l50 92h61l-30 -59c18.667 -2 37.334 -6.33301 56.001 -13s33.667 -16.167 45 -28.5s15.333 -27.833 12 -46.5
c-3.33301 -23.333 -18 -43.5 -44 -60.5s-57.667 -25.5 -95 -25.5h-93z" />
    <glyph glyph-name="uni0328" unicode="&#x328;" horiz-adv-x="0" 
d="M227 -210c-38 0 -67.001 9.33398 -87.001 28.001s-27.333 42.334 -22 71.001c3.33301 20 14 40.333 32 61s44.667 40.667 80 60h78l-20 -15c-22 -16.667 -38.667 -31.834 -50 -45.501s-18.333 -26.834 -21 -39.501c-1.33301 -13.333 1.83398 -24.333 9.50098 -33
s19.5 -13 35.5 -13h63l-12 -74h-86z" />
    <glyph glyph-name="uni0336" unicode="&#x336;" horiz-adv-x="0" 
d="M-629 281l13 82h660l-13 -82h-660z" />
    <glyph glyph-name="uni0338" unicode="&#x338;" horiz-adv-x="0" 
d="M65 -60l423 840h73l-423 -840h-73z" />
    <glyph glyph-name="uni0374" unicode="&#x374;" 
d="M179 410l129 311h144l-179 -311h-94z" />
    <glyph glyph-name="uni0375" unicode="&#x375;" 
d="M87 -160l129 311h148l-179 -311h-98z" />
    <glyph glyph-name="uni037E" unicode="&#x37e;" 
d="M94 -160l129 311h144l-179 -311h-94zM310 401c-23.333 0 -41.3359 7.5 -54.0029 22.5s-17 34.167 -13 57.5c3.33301 22.667 13.833 41.5 31.5 56.5s37.834 22.5 60.501 22.5h20c22.667 0 40.334 -7.5 53.001 -22.5s17.334 -33.833 14.001 -56.5
c-4 -23.333 -14.667 -42.5 -32 -57.5s-37.333 -22.5 -60 -22.5h-20z" />
    <glyph glyph-name="tonos" unicode="&#x384;" 
d="M261 645l128 140h116l-135 -140h-109z" />
    <glyph glyph-name="dieresistonos" unicode="&#x385;" 
d="M331 777l98 131h95l-108 -131h-85zM473 645c-21.333 0 -37.1631 6.16699 -47.4961 18.5s-13.833 28.833 -10.5 49.5c3.33301 21.333 12.166 38.166 26.499 50.499s31.833 18.5 52.5 18.5c21.333 0 37.166 -6.16699 47.499 -18.5s13.833 -29.166 10.5 -50.499
c-2.66699 -20.667 -11.334 -37.167 -26.001 -49.5s-32.334 -18.5 -53.001 -18.5zM244.003 645c-20.667 0 -36.168 6.16699 -46.501 18.5s-14.166 28.833 -11.499 49.5c3.33301 21.333 12.166 38.166 26.499 50.499s32.166 18.5 53.499 18.5
c20.667 0 36.334 -6.16699 47.001 -18.5s14 -29.166 10 -50.499c-2.66699 -20.667 -11.167 -37.167 -25.5 -49.5s-32.166 -18.5 -53.499 -18.5z" />
    <glyph glyph-name="Alphatonos" unicode="&#x386;" 
d="M-1 0l302 730h142l70 -730h-106l-14 185h-207l-74 -185h-113zM220 274l166.002 0.000976562l-17 211c-2.66699 37.333 -4.83398 69.833 -6.50098 97.5s-2.5 46.5 -2.5 56.5l-19.5 -56.5c-9.66699 -27.667 -21.834 -59.834 -36.501 -96.501zM43.002 570.001l83 160h105
l-91 -160h-97z" />
    <glyph glyph-name="anoteleia" unicode="&#x387;" 
d="M254 258c-26.667 0 -46.833 7.83301 -60.5 23.5s-18.167 36.834 -13.5 63.501c4 27.333 15.333 49.166 34 65.499s41.334 24.5 68.001 24.5c27.333 0 47.666 -8.16699 60.999 -24.5s17.666 -38.166 12.999 -65.499c-4 -26.667 -15.167 -47.834 -33.5 -63.501
s-41.166 -23.5 -68.499 -23.5z" />
    <glyph glyph-name="Epsilontonos" unicode="&#x388;" 
d="M50 0l116 730h429l-15 -96h-323l-33 -207h288l-16 -95h-287l-38 -236h323l-15 -96h-429zM-78 570l83 160h105l-91 -160h-97z" />
    <glyph glyph-name="Etatonos" unicode="&#x389;" 
d="M-78 570l83 160h105l-91 -160h-97zM41 0l116 730h108l-49 -302h215l48 302h108l-116 -730h-108l52 328h-214l-52 -328h-108z" />
    <glyph glyph-name="Iotatonos" unicode="&#x38a;" 
d="M-78 570l83 160h105l-91 -160h-97zM54 0l15 96h148l85 538h-148l16 96h404l-15 -96h-148l-85 -538h148l-16 -96h-404z" />
    <glyph glyph-name="Omicrontonos" unicode="&#x38c;" 
d="M-44 570l83 160h105l-91 -160h-97zM254 -10c-44.667 0 -82.166 8.5 -112.499 25.5s-51.833 41.667 -64.5 74s-15.667 70.166 -9 113.499l51 324c7.33301 44 22.333 82 45 114s52 56.5 88 73.5s76.333 25.5 121 25.5c45.333 0 83.166 -8.5 113.499 -25.5
s52 -41.5 65 -73.5s15.833 -69.667 8.5 -113l-51 -325c-6.66699 -43.333 -21.667 -81.166 -45 -113.499s-52.833 -57 -88.5 -74s-76.167 -25.5 -121.5 -25.5zM269.001 86c36.667 0 66.333 10.167 89 30.5s37 49.166 43 86.499l51 324c6 38 1 67 -15 87s-42.333 30 -79 30
s-66.167 -10 -88.5 -30s-36.5 -49 -42.5 -87l-51 -324c-6 -37.333 -1 -66.166 15 -86.499s42 -30.5 78 -30.5z" />
    <glyph glyph-name="Upsilontonos" unicode="&#x38e;" 
d="M-97 570l83 160h105l-91 -160h-97zM202 0l42.002 269l-143 461h110l85 -276c5.33301 -18 9.5 -34.833 12.5 -50.5s4.83301 -27.834 5.5 -36.501c3.33301 8.66699 8.66602 20.834 15.999 36.501s16.666 32.5 27.999 50.5l171 276h114l-291 -461l-42 -269h-108z" />
    <glyph glyph-name="Omegatonos" unicode="&#x38f;" 
d="M6 0l15.998 98.001h145v5c-17.333 2 -34.666 8.83301 -51.999 20.5s-30.833 29 -40.5 52s-11.834 52.167 -6.50098 87.5l41 259c7.33301 44.667 22.833 83.167 46.5 115.5s54.167 57.5 91.5 75.5s79.333 27 126 27s85.834 -9 117.501 -27s54.334 -43.167 68.001 -75.5
s16.834 -70.833 9.50098 -115.5l-41 -259c-5.33301 -35.333 -16.5 -64.333 -33.5 -87s-36 -39.834 -57 -51.501s-40.5 -18.5 -58.5 -20.5l-1 -6h146l-16 -98h-211l23 146c24 0 45.333 10.5 64 31.5s30.667 47.833 36 80.5l41 264c6 38 -0.166992 68 -18.5 90
s-45.833 33 -82.5 33c-37.333 0 -68.833 -11 -94.5 -33s-41.5 -52 -47.5 -90l-42 -264c-4.66699 -32.667 -1.33398 -59.5 9.99902 -80.5s29.333 -31.5 54 -31.5l-23 -146h-210zM-44.002 570.001l83 160h105l-91 -160h-97z" />
    <glyph glyph-name="iotadieresistonos" unicode="&#x390;" 
d="M372 0c-51.333 0 -90 15.332 -116 45.999s-35 71 -27 121l44 285h-195l16 98h303l-61 -383c-3.33301 -21.333 0.166992 -38.166 10.5 -50.499s25.5 -18.5 45.5 -18.5h132l-15 -98h-137zM331 776.999l98 131h95l-108 -131h-85zM473 644.999
c-21.333 0 -37.1631 6.16699 -47.4961 18.5s-13.833 28.833 -10.5 49.5c3.33301 21.333 12.166 38.166 26.499 50.499s31.833 18.5 52.5 18.5c21.333 0 37.166 -6.16699 47.499 -18.5s13.833 -29.166 10.5 -50.499c-2.66699 -20.667 -11.334 -37.167 -26.001 -49.5
s-32.334 -18.5 -53.001 -18.5zM244.003 644.999c-20.667 0 -36.168 6.16699 -46.501 18.5s-14.166 28.833 -11.499 49.5c3.33301 21.333 12.166 38.166 26.499 50.499s32.166 18.5 53.499 18.5c20.667 0 36.334 -6.16699 47.001 -18.5s14 -29.166 10 -50.499
c-2.66699 -20.667 -11.167 -37.167 -25.5 -49.5s-32.166 -18.5 -53.499 -18.5z" />
    <glyph glyph-name="Alpha" unicode="&#x391;" 
d="M-1 0l302 730h142l70 -730h-106l-14 185h-207l-74 -185h-113zM220 274l166.002 0.000976562l-17 211c-2.66699 37.333 -4.83398 69.833 -6.50098 97.5s-2.5 46.5 -2.5 56.5l-19.5 -56.5c-9.66699 -27.667 -21.834 -59.834 -36.501 -96.501z" />
    <glyph glyph-name="Beta" unicode="&#x392;" 
d="M41 0l115.999 729.997h215c69.333 0 121 -16.667 155 -50s46.333 -79.333 37 -138c-4.66699 -33.333 -16.167 -62.166 -34.5 -86.499s-41.333 -43.166 -69 -56.499s-58.5 -20 -92.5 -20l1 10c37.333 0.666992 68.833 -6.16602 94.5 -20.499s44.334 -35.5 56.001 -63.5
s14.167 -61.333 7.5 -100c-6.66699 -41.333 -21.5 -77.5 -44.5 -108.5s-52.667 -54.833 -89 -71.5s-77.5 -25 -123.5 -25h-229zM160.999 92.9971l114 -0.000976562c39.333 0 72 10.333 98 31s42 49.334 48 86.001c5.33301 37.333 -1.5 67.333 -20.5 90s-47.833 34 -86.5 34
h-115zM212.999 423.996h109.001c36 0 65.833 9.66699 89.5 29s38.167 45.333 43.5 78s-0.833984 58.5 -18.501 77.5s-44.167 28.5 -79.5 28.5h-110z" />
    <glyph glyph-name="Gamma" unicode="&#x393;" 
d="M62 0l116 730h430l-15 -99h-324l-100 -631h-107z" />
    <glyph glyph-name="uni0394" unicode="&#x394;" 
d="M-1 0l302 730h142l70 -730h-514zM148 95h251.002l-32 390c-2 30 -3.83301 59.333 -5.5 88s-2.83398 50.667 -3.50098 66l-22.5 -65.5c-9.66699 -28.333 -20.834 -57.5 -33.501 -87.5z" />
    <glyph glyph-name="Epsilon" unicode="&#x395;" 
d="M50 0l116 730h429l-15 -96h-323l-33 -207h288l-16 -95h-287l-38 -236h323l-15 -96h-429z" />
    <glyph glyph-name="Zeta" unicode="&#x396;" 
d="M38 0l17 105l390 526h-301l16 99h420l-18 -105l-390 -526h318l-16 -99h-436z" />
    <glyph glyph-name="Eta" unicode="&#x397;" 
d="M41 0l116 730h108l-49 -302h215l48 302h108l-116 -730h-108l52 328h-214l-52 -328h-108z" />
    <glyph glyph-name="Theta" unicode="&#x398;" 
d="M222 327l15 99h173l-15 -99h-173zM254 -10c-44.667 0 -82.166 8.5 -112.499 25.5s-51.833 41.667 -64.5 74s-15.667 70.166 -9 113.499l51 324c7.33301 44 22.333 82 45 114s52 56.5 88 73.5s76.333 25.5 121 25.5c45.333 0 83.166 -8.5 113.499 -25.5s52 -41.5 65 -73.5
s15.833 -69.667 8.5 -113l-51 -325c-6.66699 -43.333 -21.667 -81.166 -45 -113.499s-52.833 -57 -88.5 -74s-76.167 -25.5 -121.5 -25.5zM269.001 86c36.667 0 66.333 10.167 89 30.5s37 49.166 43 86.499l51 324c6 38 1 67 -15 87s-42.333 30 -79 30
s-66.167 -10 -88.5 -30s-36.5 -49 -42.5 -87l-51 -324c-6 -37.333 -1 -66.166 15 -86.499s42 -30.5 78 -30.5z" />
    <glyph glyph-name="Iota" unicode="&#x399;" 
d="M54 0l15 96h148l85 538h-148l16 96h404l-15 -96h-148l-85 -538h148l-16 -96h-404z" />
    <glyph glyph-name="Kappa" unicode="&#x39a;" 
d="M40 0l116 730h108l-49 -304h95l199 304h119l-230 -355l122 -375h-117l-104 329h-99l-52 -329h-108z" />
    <glyph glyph-name="Lambda" unicode="&#x39b;" 
d="M-1 0l301.999 729.999h142l70 -730h-106l-39 485l-5.5 76.5c-1.66699 23 -2.83398 41.667 -3.50098 56l-1 21.5l-6.5 -21c-4.33301 -14 -10.666 -32.667 -18.999 -56s-18.166 -48.666 -29.499 -75.999l-191 -486h-113z" />
    <glyph glyph-name="Mu" unicode="&#x39c;" 
d="M22 0l115.998 730h131l35 -234c3.33301 -22 6.33301 -43.167 9 -63.5s4.33398 -35.5 5.00098 -45.5l17.5 45.5c7.66699 20.333 16.834 41.5 27.501 63.5l108 234h135l-116 -730h-102l39 246c5.33301 32.667 11.833 68.167 19.5 106.5s16.167 76.833 25.5 115.5l27.5 111
l23.5 93l-163 -355h-105l-54 355c-0.666992 -26 -2 -56.167 -4 -90.5s-4.66699 -70.833 -8 -109.5s-7 -77.5 -11 -116.5s-9 -75.5 -15 -109.5l-39 -246h-102z" />
    <glyph glyph-name="Nu" unicode="&#x39d;" 
d="M37 0l116 729.999h135l118 -607c1.33301 19.333 3.16602 42.333 5.49902 69s5.16602 54.334 8.49902 83.001s7 54.667 11 78l60 377h100l-116 -730h-135l-117 607c-1.33301 -17.333 -3.16602 -39 -5.49902 -65s-5.16602 -53 -8.49902 -81s-7 -54 -11 -78l-61 -383h-100z
" />
    <glyph glyph-name="Xi" unicode="&#x39e;" 
d="M132 631l16 99h448l-16 -99h-448zM32 0l15 99h449l-16 -99h-448zM112 320l16 100h389l-16 -100h-389z" />
    <glyph glyph-name="Omicron" unicode="&#x39f;" 
d="M254 -10c-44.667 0 -82.166 8.5 -112.499 25.5s-51.833 41.667 -64.5 74s-15.667 70.166 -9 113.499l51 324c7.33301 44 22.333 82 45 114s52 56.5 88 73.5s76.333 25.5 121 25.5c45.333 0 83.166 -8.5 113.499 -25.5s52 -41.5 65 -73.5s15.833 -69.667 8.5 -113
l-51 -325c-6.66699 -43.333 -21.667 -81.166 -45 -113.499s-52.833 -57 -88.5 -74s-76.167 -25.5 -121.5 -25.5zM269.001 86c36.667 0 66.333 10.167 89 30.5s37 49.166 43 86.499l51 324c6 38 1 67 -15 87s-42.333 30 -79 30s-66.167 -10 -88.5 -30s-36.5 -49 -42.5 -87
l-51 -324c-6 -37.333 -1 -66.166 15 -86.499s42 -30.5 78 -30.5z" />
    <glyph glyph-name="Pi" unicode="&#x3a0;" 
d="M42 0l116 730h428l-116 -730h-108l100 631h-212l-100 -631h-108z" />
    </font>
</defs>
</svg>
