<?xml version="1.0" standalone="no"?>
<!DOCTYPE svg PUBLIC "-//W3C//DTD SVG 1.1//EN" "http://www.w3.org/Graphics/SVG/1.1/DTD/svg11.dtd" >
<svg>
<metadata>
Created by FontForge 20090914 at Mon Feb  8 14:37:12 2021
 By www-data
Copyright 2020 The JetBrains Mono Project Authors (https://github.com/JetBrains/JetBrainsMono)
</metadata>
<defs>
<font id="JetBrainsMono-Italic" horiz-adv-x="600" >
  <font-face 
    font-family="JetBrains Mono"
    font-weight="400"
    font-style="italic"
    font-stretch="normal"
    units-per-em="1000"
    panose-1="2 0 0 9 0 0 0 0 0 0"
    ascent="800"
    descent="-200"
    x-height="550"
    cap-height="730"
    bbox="-1747 -300 1170 1020"
    underline-thickness="50"
    underline-position="-130"
    slope="-9"
    unicode-range="U+000D-U+FEFF"
  />
<missing-glyph 
d="M90 0v730h420v-730h-420zM160 50h300v571zM140 109l300 571h-300v-571z" />
    <glyph glyph-name=".notdef" 
d="M90 0v730h420v-730h-420zM160 50h300v571zM140 109l300 571h-300v-571z" />
    <glyph glyph-name="CR" unicode="&#xd;" 
 />
    <glyph glyph-name="space" unicode=" " 
 />
    <glyph glyph-name="exclam" unicode="!" 
d="M258 215l42 395l19 120h106l-19 -120l-84 -395h-64zM240 -5c-17.333 0 -30.6689 5.66895 -40.002 17.002s-12.666 25.666 -9.99902 42.999s10.5 31.666 23.5 42.999s28.167 17 45.5 17h30c19.333 0 33.333 -5.5 42 -16.5s11.667 -25.167 9 -42.5
s-10.667 -31.833 -24 -43.5s-28.666 -17.5 -45.999 -17.5h-30z" />
    <glyph glyph-name="quotedbl" unicode="&#x22;" 
d="M389 430l21 210l15 90h97l-15 -90l-44 -210h-74zM186 430l21 210l15 90h97l-15 -90l-44 -210h-74z" />
    <glyph glyph-name="numbersign" unicode="#" 
d="M38 0l69 200h-84l10 65h96l68 200h-97l10 65h109l69 200h73l-69 -200h156l69 200h73l-69 -200h84l-10 -65h-96l-68 -200h97l-10 -65h-109l-69 -200h-73l69 200h-156l-69 -200h-73zM202 265h156l68 200h-156z" />
    <glyph glyph-name="dollar" unicode="$" 
d="M209 -140l20.9971 131.002c-62.667 5.33301 -109 25.5 -139 60.5s-41 81.167 -33 138.5h90c-4.66699 -32.667 1.16602 -59.334 17.499 -80.001s41.833 -33.334 76.5 -38.001l42 262l-26 8c-47.333 15.333 -81.666 41 -102.999 77s-28.333 78.333 -21 127
c8.66699 53.333 32.334 97.333 71.001 132s86.334 54.667 143.001 60l21 132h60l-21 -131c54.667 -5.33301 95.834 -25.333 123.501 -60s37.5 -79.334 29.5 -134.001h-90c5.33301 31.333 1.33301 56.833 -12 76.5s-34.666 31.834 -63.999 36.501l-39 -248l38 -13
c46 -15.333 79.5 -41.333 100.5 -78s27.5 -79.667 19.5 -129c-5.33301 -36.667 -18.333 -69.167 -39 -97.5s-46.834 -51.333 -78.501 -69s-67.167 -28.5 -106.5 -32.5l-21 -131h-60zM301.997 72.002c33.333 5.33301 60.832 18 82.499 38s34.834 46 39.501 78
c4.66699 29.333 0.666992 55 -12 77s-32.667 37.333 -60 46l-11 4zM292.996 389.002l41.998 269.001c-30 -4.66699 -54.5 -16 -73.5 -34s-30.833 -41.333 -35.5 -70c-5.33301 -34.667 0.833984 -63.834 18.501 -87.501s45.834 -38.5 84.501 -44.5z" />
    <glyph glyph-name="percent" unicode="%" 
d="M-30 0l612 730h76l-612 -730h-76zM400 -5c-42 0 -73.668 12 -95.001 36s-28.666 57 -21.999 99l10 65c6.66699 42 24.5 75 53.5 99s64.5 36 106.5 36s73.833 -12 95.5 -36s29.167 -57 22.5 -99l-10 -65c-4 -28 -13.5 -52 -28.5 -72s-33.833 -35.5 -56.5 -46.5
s-48 -16.5 -76 -16.5zM410.999 64c44 0 69.333 22 76 66l10 65c3.33301 22.667 0.5 39.5 -8.5 50.5s-24.5 16.5 -46.5 16.5c-43.333 0 -68.333 -22.333 -75 -67l-10 -65c-6.66699 -44 11.333 -66 54 -66zM173.999 400c-42 0 -73.668 12 -95.001 36s-28.666 57 -21.999 99
l10 65c4.66699 28 14.167 52.167 28.5 72.5s32.833 35.833 55.5 46.5s48 16 76 16c42 0 73.833 -12 95.5 -36s29.167 -57 22.5 -99l-10 -65c-4 -28 -13.5 -52 -28.5 -72s-33.833 -35.5 -56.5 -46.5s-48 -16.5 -76 -16.5zM184.998 468c44 0 69.333 22.333 76 67l10 65
c6.66699 44.667 -11.333 67 -54 67c-21.333 0 -38.5 -5.5 -51.5 -16.5s-21.167 -27.833 -24.5 -50.5l-10 -65c-3.33301 -22.667 -0.5 -39.5 8.5 -50.5s24.167 -16.5 45.5 -16.5z" />
    <glyph glyph-name="ampersand" unicode="&#x26;" 
d="M184 -10c-54.667 0 -95.1689 14.666 -121.502 43.999s-35.166 69.666 -26.499 120.999l19 125c5.33301 35.333 19.333 65.166 42 89.499s51.667 41.5 87 51.5l-6 10c-16 28 -26.833 54 -32.5 78s-6.5 48 -2.5 72c5.33301 32 17.333 60 36 84s42.5 42.5 71.5 55.5
s61.5 19.5 97.5 19.5c38.667 0 71 -7 97 -21s44.833 -33.667 56.5 -59s14.5 -55.666 8.5 -90.999h-90c3.33301 19.333 2 36 -4 50s-15.667 24.667 -29 32s-30.333 11 -51 11c-18 0 -34.333 -3.33301 -49 -10s-26.667 -16.167 -36 -28.5s-15.333 -27.166 -18 -44.499
c-2.66699 -16.667 -2 -34.667 2 -54s10.667 -37.666 20 -54.999l135 -237l91 127h94l-145 -199l92 -161h-99l-49 87c-59.333 -64.667 -122.666 -97 -189.999 -97zM201.998 69.999c22.667 0 45.833 7.49902 69.5 22.499s44.834 35.833 63.501 62.5l-115 203
c-20.667 -3.33301 -37.5 -11.666 -50.5 -24.999s-21.167 -31 -24.5 -53l-19 -125c-4.66699 -26.667 -0.333984 -47.5 12.999 -62.5s34.333 -22.5 63 -22.5z" />
    <glyph glyph-name="quotesingle" unicode="'" 
d="M282 430l12 150l24 150h97l-24 -150l-35 -150h-74z" />
    <glyph glyph-name="parenleft" unicode="(" 
d="M421 -125c-90.667 23.333 -157.001 69.333 -199.001 138s-55 152.667 -39 252l30 190c10.667 65.333 32.334 124.5 65.001 177.5s74.334 97.833 125.001 134.5s108 62.667 172 78l-14 -85c-44 -10 -84 -29.167 -120 -57.5s-65.833 -63.5 -89.5 -105.5
s-39.834 -89.333 -48.501 -142l-30 -190c-8 -51.333 -6.83301 -98 3.5 -140s29 -76.833 56 -104.5s61.167 -46.5 102.5 -56.5z" />
    <glyph glyph-name="parenright" unicode=")" 
d="M51 -125l13.999 89c44.667 10 84.834 28.833 120.501 56.5s65.5 62.5 89.5 104.5s40 88.667 48 140l30 190c8.66699 52.667 7.66699 100 -3 142s-29.5 77.167 -56.5 105.5s-61.167 47.5 -102.5 57.5l14 85c59.333 -15.333 108.5 -41.333 147.5 -78
s66.5 -81.5 82.5 -134.5s18.667 -112.167 8 -177.5l-30 -190c-10.667 -66 -32 -125.5 -64 -178.5s-73.167 -97.5 -123.5 -133.5s-108.5 -62 -174.5 -78z" />
    <glyph glyph-name="asterisk" unicode="*" 
d="M152 94l-64.002 50l66 78c10.667 12.667 23 25.167 37 37.5s28 24 42 35l37 28.5l-2 7l-42 4.5c-16 1.66699 -31.833 4.33398 -47.5 8.00098s-30.167 7.83398 -43.5 12.501l-83 32l43 83l83 -32c13.333 -4.66699 26.833 -11.167 40.5 -19.5s26.834 -17 39.501 -26
s23.334 -17.5 32.001 -25.5l6 4c-1.33301 12.667 -2.66602 27.167 -3.99902 43.5s-2 33.333 -2 51s1.33301 34.167 4 49.5l15 95h88l-15 -95c-2.66699 -15.333 -6.83398 -31.833 -12.501 -49.5s-11.667 -34.667 -18 -51s-12.5 -30.833 -18.5 -43.5l4 -4
c12 8 25.5 16.5 40.5 25.5s30.667 17.667 47 26s31.833 14.833 46.5 19.5l94 32l17 -83l-94 -32c-14 -4.66699 -29.5 -8.83398 -46.5 -12.501s-33.5 -6.33398 -49.5 -8.00098l-44 -4.5l-5 -8c8.66699 -8 18.167 -17.5 28.5 -28.5s20.5 -22.667 30.5 -35s18 -24.5 24 -36.5
l43 -78l-80 -50l-43 78c-6 12 -11.667 25.667 -17 41s-9.83301 30.666 -13.5 45.999s-6.5 29 -8.5 41h-7c-6 -12 -13.5 -25.667 -22.5 -41s-18.5 -30.666 -28.5 -45.999s-20.333 -29 -31 -41z" />
    <glyph glyph-name="plus" unicode="+" 
d="M227 95l31 195h-191l13 80h191l30 195h88l-30 -195h191l-13 -80h-191l-31 -195h-88z" />
    <glyph glyph-name="comma" unicode="," 
d="M94 -160l129 311h134l-179 -311h-84z" />
    <glyph glyph-name="hyphen" unicode="-" 
d="M142 290l13 80h320l-13 -80h-320z" />
    <glyph glyph-name="period" unicode="." 
d="M254 -10c-25.333 0 -44.333 7.33301 -57 22s-17 34.334 -13 59.001c4 26 14.833 46.667 32.5 62s39.167 23 64.5 23s44.166 -7.66699 56.499 -23s16.5 -36 12.5 -62c-4 -24.667 -14.667 -44.334 -32 -59.001s-38.666 -22 -63.999 -22z" />
    <glyph glyph-name="slash" unicode="/" 
d="M14 -110l501 940h97l-501 -940h-97z" />
    <glyph glyph-name="zero" unicode="0" 
d="M254 -10c-44.667 0 -82.166 8.83301 -112.499 26.5s-51.833 42.667 -64.5 75s-15.667 70.166 -9 113.499l51 320c7.33301 44 22.333 82 45 114s52 56.833 88 74.5s76.333 26.5 121 26.5c45.333 0 83 -8.83301 113 -26.5s51.5 -42.5 64.5 -74.5s15.833 -70 8.5 -114
l-51 -320c-6.66699 -43.333 -21.667 -81.166 -45 -113.499s-52.833 -57.333 -88.5 -75s-75.834 -26.5 -120.501 -26.5zM267.001 67c40 0 73.999 12.833 101.999 38.5s45.333 58.834 52 99.501l51 320c6.66699 40.667 -0.166016 73.834 -20.499 99.501s-50.5 38.5 -90.5 38.5
s-74.167 -12.833 -102.5 -38.5s-45.833 -58.834 -52.5 -99.501l-51 -320c-6.66699 -40.667 0.333008 -73.834 21 -99.501s51 -38.5 91 -38.5zM314 306c-18 0 -32.5 5.66699 -43.5 17s-16.5 26.333 -16.5 45c0 18 5.5 32.5 16.5 43.5s25.5 16.5 43.5 16.5
s32.5 -5.5 43.5 -16.5s16.5 -25.5 16.5 -43.5c0 -18.667 -5.5 -33.667 -16.5 -45s-25.5 -17 -43.5 -17z" />
    <glyph glyph-name="one" unicode="1" 
d="M46 0l13 82h198l91 573l-222 -148l16 100l185 123h123l-103 -648h162l-13 -82h-450z" />
    <glyph glyph-name="two" unicode="2" 
d="M48 0l15.001 91.999l260 237c44.667 40.667 78.167 76.834 100.5 108.501s35.833 62.167 40.5 91.5c6.66699 40.667 0.666992 72.667 -18 96s-47.334 35 -86.001 35c-42.667 0 -78.167 -12 -106.5 -36s-45.833 -57 -52.5 -99h-90c8.66699 44 25 82.167 49 114.5
s54.167 57.166 90.5 74.499s76.833 26 121.5 26c44 0 80.667 -8.5 110 -25.5s50.333 -41.167 63 -72.5s15.667 -68.666 9 -111.999c-6.66699 -41.333 -24.167 -82.833 -52.5 -124.5s-71.833 -88.5 -130.5 -140.5l-207 -183h331l-13 -82h-434z" />
    <glyph glyph-name="three" unicode="3" 
d="M243 -10c-44 0 -80.999 8.83301 -110.999 26.5s-51.5 42.167 -64.5 73.5s-16.167 68 -9.5 110h90c-6.66699 -40.667 -0.333984 -72.5 18.999 -95.5s49.333 -34.5 90 -34.5c41.333 0 75.333 12 102 36s43 55.333 49 94l8 52c6.66699 41.333 0.5 73.333 -18.5 96
s-49.167 34 -90.5 34h-75l14 90l206 176h-293l13 82h387l-15 -90l-225 -192l2 14c66.667 0 116.667 -19 150 -57s45 -89 35 -153l-8 -52c-6 -42 -20.833 -78.667 -44.5 -110s-53.667 -55.833 -90 -73.5s-76.5 -26.5 -120.5 -26.5z" />
    <glyph glyph-name="four" unicode="4" 
d="M366 0l25 160h-330l23 141l357 429h100l-370 -448l-7 -40h240l29 178h90l-67 -420h-90z" />
    <glyph glyph-name="five" unicode="5" 
d="M252 -10c-59.333 0 -105.502 15.3359 -138.502 46.0029s-48.833 72 -47.5 124h90c-0.666992 -28.667 8.33301 -50.834 27 -66.501s46.334 -23.5 83.001 -23.5c42 0 75.333 11.333 100 34s40.334 54.667 47.001 96l11 71c6.66699 41.333 1.33398 73.333 -15.999 96
s-46.666 34 -87.999 34c-26 0 -49.833 -6.83301 -71.5 -20.5s-38.5 -31.834 -50.5 -54.501h-90l69 404h384l-13 -82h-297l-42 -243h28l-32 -26c5.33301 31.333 21.833 56 49.5 74s62.5 27 104.5 27c59.333 0.666992 102.666 -17.5 129.999 -54.5s35.666 -88.5 24.999 -154.5
l-11 -71c-10.667 -64.667 -38 -115.834 -82 -153.501s-100.333 -56.5 -169 -56.5z" />
    <glyph glyph-name="six" unicode="6" 
d="M255 -10c-46.667 0 -85.8291 9.83301 -117.496 29.5s-54.334 47.167 -68.001 82.5s-16.834 76.333 -9.50098 123c5.33301 36.667 16.166 72.667 32.499 108s37.166 69.333 62.499 102l230 295h100l-260 -332l4 -3c15.333 18.667 34.833 33 58.5 43s49.167 15 76.5 15
c40 0 73.167 -9.33301 99.5 -28s44.833 -45 55.5 -79s12.334 -74.333 5.00098 -121s-23.5 -87.667 -48.5 -123s-56.333 -62.833 -94 -82.5s-79.834 -29.5 -126.501 -29.5zM267.005 70c42.667 0 79.334 14.167 110.001 42.5s49.667 65.833 57 112.5
s0.166016 84.167 -21.501 112.5s-53.834 42.5 -96.501 42.5s-79.167 -14.167 -109.5 -42.5s-49.166 -65.833 -56.499 -112.5s-0.333008 -84.167 21 -112.5s53.333 -42.5 96 -42.5z" />
    <glyph glyph-name="seven" unicode="7" 
d="M141 0l362 648h-274l-17 -108h-90l30 190h455l-14 -88l-353 -642h-99z" />
    <glyph glyph-name="eight" unicode="8" 
d="M254 -10c-67.333 0 -117.999 17.502 -151.999 52.502s-46.333 82.167 -37 141.5c7.33301 43.333 25.166 80.666 53.499 111.999s70.166 59.333 125.499 84l105 47c31.333 14 56.833 32.333 76.5 55s31.5 47.667 35.5 75c5.33301 32 -1 57.333 -19 76s-45 28 -81 28
s-66 -9.5 -90 -28.5s-38.667 -44.5 -44 -76.5c-4 -26.667 0 -51.334 12 -74.001s30.667 -40.667 56 -54l90 -46c49.333 -24.667 83.5 -52.834 102.5 -84.501s24.833 -69.5 17.5 -113.5c-6 -39.333 -20.333 -73.666 -43 -102.999s-51.667 -51.833 -87 -67.5
s-75.666 -23.5 -120.999 -23.5zM267.001 70.002c40.667 0 74.5 10.5 101.5 31.5s43.167 49.167 48.5 84.5c4.66699 28.667 1.16699 54.667 -10.5 78s-30.5 42 -56.5 56l-89 47c-49.333 26 -83.5 54 -102.5 84s-25.167 66 -18.5 108c6 37.333 19.333 69.666 40 96.999
s47.5 48.333 80.5 63s70.5 22 112.5 22s77.167 -7.33301 105.5 -22s48.833 -35.667 61.5 -63s16 -59.666 10 -96.999c-6.66699 -42 -24.5 -77.833 -53.5 -107.5s-73.167 -58.167 -132.5 -85.5l-103 -47c-30 -13.333 -54.167 -31.5 -72.5 -54.5s-29.833 -48.5 -34.5 -76.5
c-6 -36 1.16699 -64.667 21.5 -86s50.833 -32 91.5 -32z" />
    <glyph glyph-name="nine" unicode="9" 
d="M143 0l260.001 332l-4 3c-15.333 -18.667 -34.833 -33 -58.5 -43s-49.167 -15 -76.5 -15c-39.333 0 -72.333 9.33301 -99 28s-45.334 45.167 -56.001 79.5s-12.334 74.5 -5.00098 120.5c7.33301 47.333 23.333 88.5 48 123.5s56 62.333 94 82s80 29.5 126 29.5
c46.667 0 86 -9.83301 118 -29.5s54.833 -47 68.5 -82s16.834 -76.167 9.50098 -123.5c-6 -36.667 -17 -72.667 -33 -108s-36.667 -69.333 -62 -102l-230 -295h-100zM311.001 350c42.667 0 79.334 14.167 110.001 42.5s49.667 65.833 57 112.5s0.333008 84.167 -21 112.5
s-53.333 42.5 -96 42.5s-79.334 -14.167 -110.001 -42.5s-49.667 -65.833 -57 -112.5s-0.333008 -84.167 21 -112.5s53.333 -42.5 96 -42.5z" />
    <glyph glyph-name="colon" unicode=":" 
d="M321 410c-24.667 0 -43.5039 6.83301 -56.5039 20.5s-17.833 31.834 -14.5 54.501s13.833 40.834 31.5 54.501s38.834 20.5 63.501 20.5c25.333 0 44.333 -6.83301 57 -20.5s17.334 -31.834 14.001 -54.501s-13.666 -40.834 -30.999 -54.501s-38.666 -20.5 -63.999 -20.5
zM253.996 -10c-24.667 0 -43.5039 6.83301 -56.5039 20.5s-17.833 31.834 -14.5 54.501s13.833 40.834 31.5 54.501s38.834 20.5 63.501 20.5c25.333 0 44.333 -6.83301 57 -20.5s17.334 -31.834 14.001 -54.501s-13.666 -40.834 -30.999 -54.501
s-38.666 -20.5 -63.999 -20.5z" />
    <glyph glyph-name="semicolon" unicode=";" 
d="M101 -160l129 311h130l-179 -311h-80zM311 410c-22 0 -38.833 7 -50.5 21s-15.834 32 -12.501 54c3.33301 21.333 13.333 39.166 30 53.499s35.667 21.5 57 21.5h20c21.333 0 38 -7.16699 50 -21.5s16.333 -32.166 13 -53.499c-3.33301 -22 -13.166 -40 -29.499 -54
s-35.5 -21 -57.5 -21h-20z" />
    <glyph glyph-name="less" unicode="&#x3c;" 
d="M481 65l-396.001 214.998l16 100l464 215l-14 -93l-334 -152c-13.333 -6 -25.833 -11.167 -37.5 -15.5s-20.167 -7.16602 -25.5 -8.49902c5.33301 -1.33301 13.333 -4.16602 24 -8.49902s21.334 -9.5 32.001 -15.5l286 -153z" />
    <glyph glyph-name="equal" unicode="=" 
d="M106 410l13 80h430l-13 -80h-430zM68 170l13 80h430l-13 -80h-430z" />
    <glyph glyph-name="greater" unicode="&#x3e;" 
d="M51 65l14 91.002l334 152c13.333 6 25.833 11.167 37.5 15.5s20.5 7.16602 26.5 8.49902c-6 1.33301 -14.167 4.16602 -24.5 8.49902s-20.833 9.5 -31.5 15.5l-286 153l14 86l396 -215l-16 -100z" />
    <glyph glyph-name="question" unicode="?" 
d="M199 205l28.9971 180h50c42.667 0 78.334 11.833 107.001 35.5s46.334 55.167 53.001 94.5c6 39.333 -1.66699 70.833 -23 94.5s-53.666 35.5 -96.999 35.5h-125l14 85h125c70 0 122.667 -19.5 158 -58.5s48 -91.167 38 -156.5c-6 -38 -19.5 -72.167 -40.5 -102.5
s-47 -54.5 -78 -72.5s-65.5 -28 -103.5 -30l-17 -105h-90zM194.997 -5c-17.333 0 -30.6689 5.66895 -40.002 17.002s-12.666 25.666 -9.99902 42.999s10.5 31.666 23.5 42.999s28.167 17 45.5 17h30c19.333 0 33.333 -5.5 42 -16.5s11.667 -25.167 9 -42.5
s-10.667 -31.833 -24 -43.5s-28.666 -17.5 -45.999 -17.5h-30z" />
    <glyph glyph-name="at" unicode="@" 
d="M252 -180c-56.667 0 -104.168 11.834 -142.501 35.501s-65.5 57.334 -81.5 101.001s-19.333 94.834 -10 153.501l54 340c10 60 29.167 111.667 57.5 155s64.5 76.666 108.5 99.999s94 35 150 35c50.667 0 92.667 -9.83301 126 -29.5s57 -47.834 71 -84.501
s17 -80.334 9 -131.001l-68 -430h-71l9 55h-28l22 20c-4 -25.333 -16.833 -45.833 -38.5 -61.5s-48.5 -23.5 -80.5 -23.5c-43.333 0 -74.5 13.167 -93.5 39.5s-24.5 64.833 -16.5 115.5l19 120c8 50.667 25.667 89.167 53 115.5s62.666 39.5 105.999 39.5
c32 0 56.333 -7.83301 73 -23.5s23 -36.5 19 -62.5l-10 21h24l1 70v5c6 38 4.83301 70 -3.5 96s-23.666 45.667 -45.999 59s-51.5 20 -87.5 20c-60 0 -109.667 -19.333 -149 -58s-64.666 -92.667 -75.999 -162l-54 -340c-10.667 -66.667 -1.16699 -119.167 28.5 -157.5
s75.5 -57.5 137.5 -57.5h70l-12 -75h-70zM374.999 118.001c27.333 0 48.835 8.33203 64.502 24.999s26.167 42.334 31.5 77.001l17 111c5.33301 31.333 2.66602 54.333 -8.00098 69s-29.667 22 -57 22c-26.667 0 -47.834 -7.5 -63.501 -22.5s-26.167 -38.167 -31.5 -69.5
l-19 -120c-4.66699 -31.333 -1.5 -54.5 9.5 -69.5s29.833 -22.5 56.5 -22.5z" />
    <glyph glyph-name="A" unicode="A" 
d="M6 0l306 730h121l73 -730h-88l-17 194h-221l-79 -194h-95zM210 270l183.999 -0.000976562l-21 225c-3.33301 42.667 -5.83301 78.334 -7.5 107.001s-2.5 47.334 -2.5 56.001c-2.66699 -8.66699 -9.16699 -27.334 -19.5 -56.001s-24.166 -64 -41.499 -106z" />
    <glyph glyph-name="B" unicode="B" 
d="M49 0l116.002 729.997h207c66.667 0 116.167 -16.667 148.5 -50s43.833 -79.666 34.5 -138.999c-5.33301 -33.333 -17 -62.333 -35 -87s-40.833 -43.667 -68.5 -57s-59.5 -19.666 -95.5 -18.999l2 15c38.667 0.666992 71 -6.66602 97 -21.999s44.667 -37.333 56 -66
s13.666 -62.667 6.99902 -102c-6.66699 -41.333 -21 -77.333 -43 -108s-50.333 -54.167 -85 -70.5s-74.334 -24.5 -119.001 -24.5h-222zM150.002 80.9971h123.999c42 0 76.833 11.167 104.5 33.5s44.834 52.833 51.501 91.5c6 40 -1.16699 72.5 -21.5 97.5
s-51.5 37.5 -93.5 37.5h-124zM203.001 418.997h118.001c38.667 0 70.834 10.333 96.501 31s41.5 48.667 47.5 84c5.33301 35.333 -1.33398 63.333 -20.001 84s-47.334 31 -86.001 31h-119z" />
    <glyph glyph-name="C" unicode="C" 
d="M258 -10c-44 0 -80.8311 8.33301 -110.498 25s-50.667 40.834 -63 72.501s-15.166 69.167 -8.49902 112.5l52 330c7.33301 44 22.166 81.667 44.499 113s51 55.333 86 72s74.5 25 118.5 25s80.5 -8.5 109.5 -25.5s49.833 -41.167 62.5 -72.5s15.667 -68.666 9 -111.999
h-90c6.66699 41.333 0.833984 73.166 -17.499 95.499s-47.166 33.5 -86.499 33.5s-71.833 -11 -97.5 -33s-41.834 -53.667 -48.501 -95l-52 -331c-6.66699 -41.333 -0.666992 -73.166 18 -95.499s47.667 -33.5 87 -33.5s71.666 11.167 96.999 33.5s41.333 54.166 48 95.499
h90c-6.66699 -42.667 -21.334 -79.834 -44.001 -111.501s-51.334 -56 -86.001 -73s-74 -25.5 -118 -25.5z" />
    <glyph glyph-name="D" unicode="D" 
d="M48 0l115.996 730.001h189c47.333 0 86.833 -9 118.5 -27s54.334 -43.333 68.001 -76s16.834 -71.334 9.50098 -116.001l-46 -291c-6.66699 -44.667 -22.167 -83.5 -46.5 -116.5s-55.166 -58.5 -92.499 -76.5s-79.666 -27 -126.999 -27h-189zM150.996 80.001h99
c44 0 80.5 12.333 109.5 37s46.833 59 53.5 103l46 291c7.33301 43.333 0.333008 77.333 -21 102s-54 37 -98 37h-99z" />
    <glyph glyph-name="E" unicode="E" 
d="M56 0l116 730h420l-13 -82h-331l-36 -226h296l-13 -81h-296l-41 -259h331l-13 -82h-420z" />
    <glyph glyph-name="F" unicode="F" 
d="M51 0l116 731h430l-13 -82h-342l-39 -243h316l-13 -82h-314l-51 -324h-90z" />
    <glyph glyph-name="G" unicode="G" 
d="M258 -10c-44 0 -80.8311 8.33301 -110.498 25s-50.667 40.834 -63 72.501s-15.166 69.167 -8.49902 112.5l52 330c7.33301 44 22.166 81.667 44.499 113s51 55.333 86 72s74.5 25 118.5 25s80.5 -8.5 109.5 -25.5s49.833 -41.167 62.5 -72.5s15.667 -68.666 9 -111.999
h-90c6.66699 41.333 0.833984 73.166 -17.499 95.499s-47.166 33.5 -86.499 33.5s-71.833 -11 -97.5 -33s-41.834 -53.667 -48.501 -95l-52 -331c-6.66699 -41.333 -0.666992 -73.333 18 -96s47.667 -34 87 -34s71.666 11.333 96.999 34s41.333 54.667 48 96l14 90h-148
l13 82h238l-27 -172c-6.66699 -42.667 -21.334 -79.834 -44.001 -111.501s-51.334 -56 -86.001 -73s-74 -25.5 -118 -25.5z" />
    <glyph glyph-name="H" unicode="H" 
d="M49 0l116 730h90l-50 -312h234l50 312h90l-116 -730h-90l53 336h-234l-53 -336h-90z" />
    <glyph glyph-name="I" unicode="I" 
d="M61 0l13 82h149l90 566h-149l13 82h390l-13 -82h-149l-90 -566h149l-13 -82h-390z" />
    <glyph glyph-name="J" unicode="J" 
d="M224 -10c-70 0 -121.835 19.667 -155.502 59s-45.167 93 -34.5 161h90c-6.66699 -44.667 -0.166992 -79.167 19.5 -103.5s50.834 -36.5 93.501 -36.5s77.834 12.167 105.501 36.5s44.834 58.833 51.501 103.5l70 438h-175l13 82h265l-83 -520
c-6.66699 -45.333 -21.834 -84.5 -45.501 -117.5s-53.667 -58.333 -90 -76s-77.833 -26.5 -124.5 -26.5z" />
    <glyph glyph-name="K" unicode="K" 
d="M48 0l116 730h90l-50 -313h106l212 313h100l-237 -354l131 -376h-100l-116 338h-108l-54 -338h-90z" />
    <glyph glyph-name="L" unicode="L" 
d="M71 0l116 730h90l-103 -648h330l-13 -82h-420z" />
    <glyph glyph-name="M" unicode="M" 
d="M32 0l116 730.001h116l38 -236l9.5 -63.5c3 -21 5.16699 -37.167 6.5 -48.5l20 48.5c8.66699 21 18 42.5 28 64.5l110 235h120l-116 -730h-88l42 265c5.33301 31.333 11.833 65.666 19.5 102.999s16.167 75.166 25.5 113.499l27.5 110.5l24.5 93l-175 -365h-95l-62 365
c-0.666992 -26 -2.16699 -56.167 -4.5 -90.5s-5 -70.666 -8 -108.999s-6.5 -76.5 -10.5 -114.5s-8.66699 -73.333 -14 -106l-42 -265h-88z" />
    <glyph glyph-name="N" unicode="N" 
d="M46 0l115.998 730h119l125 -625l5 61.5c2 24.333 4.66699 50 8 77s7 52.5 11 76.5l65 410h87l-116 -730h-119l-124 625c-1.33301 -16 -3.16602 -36.167 -5.49902 -60.5s-5.16602 -50 -8.49902 -77s-7 -52.833 -11 -77.5l-65 -410h-87z" />
    <glyph glyph-name="O" unicode="O" 
d="M254 -10c-43.333 0 -79.5 8.33203 -108.5 24.999s-49.5 40.834 -61.5 72.501s-14.667 69.167 -8 112.5l52 330c7.33301 44 22 81.667 44 113s50.167 55.333 84.5 72s73.166 25 116.499 25c44 0 80.5 -8.33301 109.5 -25s49.667 -40.667 62 -72
s14.833 -68.666 7.5 -111.999l-52 -331c-6.66699 -43.333 -21.167 -80.833 -43.5 -112.5s-50.666 -55.834 -84.999 -72.501s-73.5 -25 -117.5 -25zM267 70.999c39.333 0 71.333 11.167 96 33.5s40.334 54.166 47.001 95.499l52 330
c6.66699 41.333 1.16699 73.166 -16.5 95.499s-46.167 33.5 -85.5 33.5c-38.667 0 -70.334 -11.167 -95.001 -33.5s-40.334 -54.166 -47.001 -95.499l-52 -330c-6.66699 -41.333 -1.16699 -73.166 16.5 -95.499s45.834 -33.5 84.501 -33.5z" />
    <glyph glyph-name="P" unicode="P" 
d="M48 0l116.001 729.999h235c45.333 0 83.333 -8.83301 114 -26.5s52.5 -42.5 65.5 -74.5s16.167 -70 9.5 -114c-6.66699 -43.333 -21.834 -81.166 -45.501 -113.499s-53.5 -57.333 -89.5 -75s-76.667 -26.5 -122 -26.5h-145l-48 -300h-90zM198.001 380.999h144.999
c39.333 0 72.833 12.167 100.5 36.5s44.834 56.833 51.501 97.5c6.66699 41.333 0 74 -20 98s-49.667 36 -89 36h-145z" />
    <glyph glyph-name="Q" unicode="Q" 
d="M352 -180l-78.001 177l12 -4l-16 -2c-5.33301 -0.666992 -10.666 -1 -15.999 -1c-44.667 0 -82.167 8.83301 -112.5 26.5s-51.833 42.667 -64.5 75s-15.667 70.166 -9 113.499l51 320c7.33301 44 22.333 82 45 114s52 56.833 88 74.5s76.333 26.5 121 26.5
c45.333 0 83 -8.83301 113 -26.5s51.5 -42.5 64.5 -74.5s15.833 -70 8.5 -114l-51 -320c-8 -50 -26.667 -92.667 -56 -128s-66 -59.666 -110 -72.999l6 46l102 -230h-98zM266.999 70c39.333 0 72.668 12.333 100.001 37s44.333 57.334 51 98.001l51 320
c6.66699 41.333 0.166992 74.166 -19.5 98.499s-49.167 36.5 -88.5 36.5s-72.833 -12.167 -100.5 -36.5s-44.834 -57.166 -51.501 -98.499l-51 -320c-6.66699 -40.667 0 -73.334 20 -98.001s49.667 -37 89 -37z" />
    <glyph glyph-name="R" unicode="R" 
d="M48 0l115.997 730.002h226c43.333 0 79.833 -8.83301 109.5 -26.5s51 -42.167 64 -73.5s16.167 -68 9.5 -110c-5.33301 -36 -17.166 -68.333 -35.499 -97s-41.666 -52.334 -69.999 -71.001s-60.166 -31.334 -95.499 -38.001l11 45l118 -359h-102l-95 310h-117l-49 -310
h-90zM199.997 391.002h136.001c37.333 0 69.166 11.833 95.499 35.5s42.5 54.834 48.5 93.501c6.66699 39.333 0.5 70.666 -18.5 93.999s-47.167 35 -84.5 35h-136z" />
    <glyph glyph-name="S" unicode="S" 
d="M258 -10c-71.333 0 -124.668 17.834 -160.001 53.501s-48.666 84.5 -39.999 146.5h90c-6 -36.667 1.83301 -65.667 23.5 -87s54.834 -32 99.501 -32c42 0 76.5 10.333 103.5 31s43.5 49.334 49.5 86.001c4.66699 31.333 0.833984 58 -11.499 80s-31.833 37.333 -58.5 46
l-94 31c-46.667 15.333 -81 40.666 -103 75.999s-29.667 77 -23 125c6.66699 39.333 21 73.5 43 102.5s50.333 51.667 85 68s73.667 24.5 117 24.5c64 0 112.5 -17.833 145.5 -53.5s45.167 -83.167 36.5 -142.5h-90c6 36 -0.166992 64.167 -18.5 84.5
s-47.166 30.5 -86.499 30.5c-38.667 0 -70.334 -9.33301 -95.001 -28s-39.667 -44.667 -45 -78c-4.66699 -30.667 -0.833984 -57.334 11.499 -80.001s32.166 -38.667 59.499 -48l95 -32c46 -15.333 79.667 -41 101 -77s28.333 -78.333 21 -127
c-6 -40 -20.833 -75 -44.5 -105s-53.667 -53.333 -90 -70s-76.833 -25 -121.5 -25z" />
    <glyph glyph-name="T" unicode="T" 
d="M211 0l103 649h-200l13 82h490l-13 -82h-200l-103 -649h-90z" />
    <glyph glyph-name="U" unicode="U" 
d="M254 -10c-68 0 -117.001 18.833 -147.001 56.5s-39.667 88.834 -29 153.501l84 530h90l-84 -530c-6.66699 -40 -2 -71.667 14 -95s44.333 -35 85 -35c40 0 71.833 11.667 95.5 35s38.834 55 45.501 95l84 530h90l-84 -530c-6.66699 -43.333 -20.667 -80.833 -42 -112.5
s-48.833 -55.834 -82.5 -72.501s-73.5 -25 -119.5 -25z" />
    <glyph glyph-name="V" unicode="V" 
d="M194 0l-72 730h91l45 -496c3.33301 -34.667 5.83301 -66.834 7.5 -96.501s2.5 -52.167 2.5 -67.5c4.66699 15.333 12.167 37.833 22.5 67.5s22.5 61.834 36.5 96.501l202 496h93l-305 -730h-123z" />
    <glyph glyph-name="W" unicode="W" 
d="M65 0l32 730h84l-31 -540c-0.666992 -14.667 -1.66699 -29.834 -3 -45.501s-2.66602 -30.5 -3.99902 -44.5s-2.66602 -25.667 -3.99902 -35c2.66699 9.33301 5.66699 21 9 35s7.16602 28.833 11.499 44.5l12.5 45.5l154 540h95l-24 -540l-2 -45.5
c-0.666992 -15.667 -1.33398 -30.5 -2.00098 -44.5s-1.33398 -25.667 -2.00098 -35c2.66699 9.33301 5.5 21 8.5 35s6.5 28.833 10.5 44.5l12 45.5l143 540h82l-202 -730h-113l25 550c0.666992 15.333 1.5 30.333 2.5 45s1.83301 28.334 2.5 41.001s1.33398 23 2.00098 31
l-8 -31l-11 -41c-4 -14.667 -8.33301 -29.667 -13 -45l-154 -550h-113z" />
    <glyph glyph-name="X" unicode="X" 
d="M-4 0l268 372l-141 358h100l79 -216l13.5 -36.5l11.5 -30.5l18.5 30.5c7.66699 13 15.5 25.167 23.5 36.5l149 216h103l-254 -356l149 -374h-99l-89 232c-4.66699 11.333 -9.16699 23.5 -13.5 36.5s-7.5 23.5 -9.5 31.5c-4.66699 -8 -11.167 -18.333 -19.5 -31l-23.5 -36
l-162 -233h-104z" />
    <glyph glyph-name="Y" unicode="Y" 
d="M211 0l43 273l-147 457h91l97 -300c5.33301 -16.667 9.5 -30.834 12.5 -42.501s4.83301 -20.167 5.5 -25.5c2.66699 5.33301 7.16699 13.833 13.5 25.5s14.833 25.834 25.5 42.501l190 300h95l-293 -457l-43 -273h-90z" />
    <glyph glyph-name="Z" unicode="Z" 
d="M41 0l14 90l415 558h-321l13 82h415l-15 -90l-414 -558h336l-13 -82h-430z" />
    <glyph glyph-name="bracketleft" unicode="[" 
d="M144 -110l148 940h245l-12 -80h-155l-124 -780h155l-12 -80h-245z" />
    <glyph glyph-name="backslash" unicode="\" 
d="M374 -110l-212 940h90l212 -940h-90z" />
    <glyph glyph-name="bracketright" unicode="]" 
d="M89 -110l12 80h155l124 780h-155l12 80h245l-148 -940h-245z" />
    <glyph glyph-name="asciicircum" unicode="^" 
d="M90 340l241 390h84l115 -390h-78l-71 258c-3.33301 13.333 -6.33301 26.166 -9 38.499s-4.66699 21.833 -6 28.5l-14.5 -28.5c-6.33301 -12.333 -13.5 -25.166 -21.5 -38.499l-156 -258h-84z" />
    <glyph glyph-name="underscore" unicode="_" 
d="M0 -100l12 75h480l-12 -75h-480z" />
    <glyph glyph-name="grave" unicode="`" 
d="M358 645l-93 140h94l88 -140h-89z" />
    <glyph glyph-name="a" unicode="a" 
d="M223 -10c-54.667 0 -95.335 18.332 -122.002 54.999s-35 86.334 -25 149.001l25 161c6.66699 42.667 19.834 79.167 39.501 109.5s44.334 53.833 74.001 70.5s62.834 25 99.501 25c45.333 0 79.666 -12.333 102.999 -37s31.666 -57.667 24.999 -99l-15 21h20l15 105h90
l-87 -550h-90l17 105h-18l21 21c-6.66699 -42 -25.667 -75.167 -57 -99.5s-69.666 -36.5 -114.999 -36.5zM265.999 67.999c37.333 0 68.5 11.6709 93.5 35.0039s40.833 55.666 47.5 96.999l23 150c7.33301 41.333 2 73.666 -16 96.999s-45.667 35 -83 35
c-38 0 -69.167 -11.333 -93.5 -34s-40.166 -55.334 -47.499 -98.001l-23 -150c-6.66699 -42.667 -1.33398 -75.334 15.999 -98.001s45 -34 83 -34z" />
    <glyph glyph-name="b" unicode="b" 
d="M286 -10c-45.333 0 -79.666 12.167 -102.999 36.5s-31.666 57.5 -24.999 99.5l15 -21h-18l-17 -105h-90l116 730h90l-26 -160l-22 -125h20l-21 -21c6.66699 41.333 25.834 74.333 57.501 99s69.834 37 114.501 37c55.333 0 96.166 -18.333 122.499 -55
s34.5 -86.667 24.5 -150l-25 -161c-6.66699 -42 -19.834 -78.167 -39.501 -108.5s-44.334 -53.833 -74.001 -70.5s-62.834 -25 -99.501 -25zM269 68c38 0 69.333 11.3291 94 33.9961s40.334 55.334 47.001 98.001l23 150c7.33301 42.667 2.16602 75.334 -15.501 98.001
s-45.5 34 -83.5 34c-36.667 0 -67.5 -11.667 -92.5 -35s-41.167 -55.666 -48.5 -96.999l-23 -150c-6.66699 -41.333 -1 -73.666 17 -96.999s45.333 -35 82 -35z" />
    <glyph glyph-name="c" unicode="c" 
d="M258 -10c-44 0 -80.8311 8.33105 -110.498 24.998s-50.667 40.834 -63 72.501s-15.166 69.167 -8.49902 112.5l23 150c7.33301 44 22.166 81.667 44.499 113s51.166 55.333 86.499 72s75 25 119 25c63.333 0 111.666 -17 144.999 -51s46.333 -80.333 39 -139h-90
c3.33301 35.333 -4.33398 62.5 -23.001 81.5s-46.667 28.5 -84 28.5c-39.333 0 -71.833 -11.167 -97.5 -33.5s-41.834 -54.166 -48.501 -95.499l-24 -151c-6.66699 -41.333 -0.666992 -73.333 18 -96s47.667 -34 87 -34c37.333 0 68.333 9.66699 93 29s41 46.333 49 81h90
c-11.333 -58.667 -39.166 -105 -83.499 -139s-98.166 -51 -161.499 -51z" />
    <glyph glyph-name="d" unicode="d" 
d="M223 -10c-54.667 0 -95.335 18.332 -122.002 54.999s-35 86.334 -25 149.001l25 161c6.66699 42.667 19.834 79.167 39.501 109.5s44.334 53.833 74.001 70.5s62.834 25 99.501 25c45.333 0 79.666 -12.333 102.999 -37s31.666 -57.667 24.999 -99l-15 21h20l18 125
l26 160h90l-116 -730h-90l17 105h-18l21 21c-6.66699 -42 -25.667 -75.167 -57 -99.5s-69.666 -36.5 -114.999 -36.5zM265.999 67.999c37.333 0 68.5 11.6709 93.5 35.0039s40.833 55.666 47.5 96.999l23 150c7.33301 41.333 2 73.666 -16 96.999s-45.667 35 -83 35
c-38 0 -69.167 -11.333 -93.5 -34s-40.166 -55.334 -47.499 -98.001l-23 -150c-6.66699 -42.667 -1.33398 -75.334 15.999 -98.001s45 -34 83 -34z" />
    <glyph glyph-name="e" unicode="e" 
d="M254 -10c-43.333 0 -79.3311 8.66602 -107.998 25.999s-49.167 41.833 -61.5 73.5s-15.166 68.5 -8.49902 110.5l23 150c7.33301 42.667 22.166 79.667 44.499 111s50.666 55.666 84.999 72.999s73.166 26 116.499 26s79.5 -8.66699 108.5 -26s49.667 -41.666 62 -72.999
s14.833 -68.333 7.5 -111l-15 -97h-336l-8 -53c-6.66699 -43.333 -1.5 -76.5 15.5 -99.5s45.833 -34.5 86.5 -34.5c34.667 0 63.167 6.16699 85.5 18.5s37.833 30.833 46.5 55.5h90c-8.66699 -30.667 -24 -57.167 -46 -79.5s-49.167 -39.666 -81.5 -51.999
s-67.833 -18.5 -106.5 -18.5zM430.002 312.999l5.00098 37c7.33301 43.333 2.5 76.666 -14.5 99.999s-46.167 35 -87.5 35c-40.667 0 -73.334 -11.667 -98.001 -35s-40.667 -56.666 -48 -99.999l-4 -29h255z" />
    <glyph glyph-name="f" unicode="f" 
d="M-47 -180l13 82h113c28 0 49.667 6.33301 65 19s25 32.334 29 59.001l68 433h-160l13 82h160l12 75c5.33301 33.333 16.666 61.833 33.999 85.5s40 42 68 55s60 19.5 96 19.5h174l-13 -82h-175c-28 0 -49.667 -6.33301 -65 -19s-25 -32.334 -29 -59.001l-12 -75h225
l-13 -82h-225l-68 -433c-7.33301 -49.333 -28.666 -88.333 -63.999 -117s-80 -43 -134 -43h-112z" />
    <glyph glyph-name="g" unicode="g" 
d="M90 -180l13 81.999h175c28 0 49.5 6.33301 64.5 19s24.833 32.334 29.5 59.001l11 70l18 100h-18l19 15c-6.66699 -40 -25 -71.667 -55 -95s-67.333 -35 -112 -35c-56.667 0 -98.5 18.5 -125.5 55.5s-35.5 86.833 -25.5 149.5l18 116
c6.66699 42 19.834 78.167 39.501 108.5s44.667 53.833 75 70.5s64.166 25 101.499 25c44.667 0 78.5 -11.667 101.5 -35s31.167 -55 24.5 -95l-15 15h17l17 105h89l-90 -570c-8 -49.333 -29.5 -88.333 -64.5 -117s-79.5 -43 -133.5 -43h-174zM274 112.999
c37.333 0 68.5 11.6709 93.5 35.0039s40.833 55.666 47.5 96.999l16 105c7.33301 41.333 2 73.666 -16 96.999s-45.667 35 -83 35c-38 0 -69.167 -11.333 -93.5 -34s-40.166 -55.334 -47.499 -98.001l-16 -105c-6.66699 -42.667 -1.33398 -75.334 15.999 -98.001
s45 -34 83 -34z" />
    <glyph glyph-name="h" unicode="h" 
d="M48 0l115.999 730h90l-29 -180l-17 -105h19l-22 -21c7.33301 43.333 25.833 76.833 55.5 100.5s67.5 35.5 113.5 35.5c55.333 0 96.666 -17 123.999 -51s36.333 -80.333 27 -139l-59 -370h-90l57 360c6 39.333 0.333008 69.833 -17 91.5s-44 32.5 -80 32.5
c-37.333 0 -68.666 -11.667 -93.999 -35s-41.666 -56.333 -48.999 -99l-55 -350h-90z" />
    <glyph glyph-name="i" unicode="i" 
d="M36 0l13 82h195l61 386h-170l13 82h260l-74 -468h185l-13 -82h-470zM374 649c-22 0 -38.3311 5.66699 -48.998 17s-14.667 26.666 -12 45.999c3.33301 20 12.166 35.833 26.499 47.5s32.5 17.5 54.5 17.5s38.5 -5.83301 49.5 -17.5s14.833 -27.5 11.5 -47.5
c-2.66699 -19.333 -11.334 -34.666 -26.001 -45.999s-33 -17 -55 -17z" />
    <glyph glyph-name="j" unicode="j" 
d="M12 -180l14.001 83.001h129c41.333 0 75.166 11.167 101.499 33.5s42.833 53.833 49.5 94.5l69 437h-230l13 82h320l-82 -519c-6.66699 -42.667 -21.667 -79.834 -45 -111.501s-52.833 -56.167 -88.5 -73.5s-76.167 -26 -121.5 -26h-129zM444.001 649.001
c-22 0 -38.3311 5.66699 -48.998 17s-14.667 26.666 -12 45.999c3.33301 20 12.166 35.833 26.499 47.5s32.5 17.5 54.5 17.5s38.5 -5.83301 49.5 -17.5s14.833 -27.5 11.5 -47.5c-2.66699 -19.333 -11.334 -34.666 -26.001 -45.999s-33 -17 -55 -17z" />
    <glyph glyph-name="k" unicode="k" 
d="M51 0l116 730h90l-65 -407h94l196 227h105l-226 -265l142 -285h-103l-121 245h-99l-39 -245h-90z" />
    <glyph glyph-name="l" unicode="l" 
d="M321 0c-48.667 0 -85.166 14.167 -109.499 42.5s-32.833 65.833 -25.5 112.5l78 493h-165l13 82h255l-91 -575c-3.33301 -22.667 0.166992 -40.5 10.5 -53.5s26.166 -19.5 47.499 -19.5h185l-13 -82h-185z" />
    <glyph glyph-name="m" unicode="m" 
d="M22 0l86.998 550h79l-10 -66h18l-18 -24c5.33301 30.667 17.5 55 36.5 73s42.5 27 70.5 27c30.667 0 52.5 -11.333 65.5 -34s16.167 -54.667 9.5 -96l-18 54h42l-23 -24c5.33301 30.667 17.833 55 37.5 73s43.5 27 71.5 27c34.667 0 59.5 -13 74.5 -39
s18.833 -60.333 11.5 -103l-66 -418h-83l66 419c3.33301 22.667 1.33301 40.334 -6 53.001s-20.333 19 -39 19c-18 0 -33.167 -6.16699 -45.5 -18.5s-20.166 -29.833 -23.499 -52.5l-67 -420h-72l66 419c4 23.333 1.83301 41.166 -6.5 53.499s-21.833 18.5 -40.5 18.5
s-33.667 -6.16699 -45 -18.5s-18.666 -29.833 -21.999 -52.5l-67 -420h-83z" />
    <glyph glyph-name="n" unicode="n" 
d="M48 0l86.999 550h90l-17 -105h19l-22 -21c7.33301 43.333 25.833 76.833 55.5 100.5s67.5 35.5 113.5 35.5c55.333 0 96.666 -17 123.999 -51s36.333 -80.333 27 -139l-59 -370h-90l57 360c6 39.333 0.333008 69.833 -17 91.5s-44 32.5 -80 32.5
c-37.333 0 -68.666 -11.667 -93.999 -35s-41.666 -56.333 -48.999 -99l-55 -350h-90z" />
    <glyph glyph-name="o" unicode="o" 
d="M254 -10c-43.333 0 -79.5 8.33203 -108.5 24.999s-49.5 40.834 -61.5 72.501s-14.667 69.167 -8 112.5l23 150c7.33301 44 22 81.667 44 113s50.333 55.333 85 72s73.667 25 117 25c44 0 80.333 -8.33301 109 -25s49.167 -40.667 61.5 -72
s15.166 -68.666 8.49902 -111.999l-24 -151c-6.66699 -43.333 -21.167 -80.833 -43.5 -112.5s-50.666 -55.834 -84.999 -72.501s-73.5 -25 -117.5 -25zM267 69.999c39.333 0 71.333 11 96 33s40.334 54.333 47.001 97l23 150c7.33301 42.667 2.16602 75 -15.501 97
s-46.167 33 -85.5 33c-38.667 0 -70.334 -11 -95.001 -33s-40.667 -54.333 -48 -97l-23 -150c-6.66699 -42.667 -1.16699 -75 16.5 -97s45.834 -33 84.501 -33z" />
    <glyph glyph-name="p" unicode="p" 
d="M19 -180l115.997 730h90l-17 -105h18l-21 -21c6.66699 42 25.834 75.167 57.501 99.5s70.167 36.5 115.5 36.5c55.333 0 96 -18.167 122 -54.5s34 -86.166 24 -149.499l-25 -161c-6.66699 -42 -19.667 -78.333 -39 -109s-43.666 -54.334 -72.999 -71.001
s-62.666 -25 -99.999 -25c-44.667 0 -79 12.333 -103 37s-32.667 57.667 -26 99l15 -21h-20l-18 -125l-26 -160h-90zM269.997 68c38 0 69.167 11.3291 93.5 33.9961s39.833 55.334 46.5 98.001l23 150c7.33301 42.667 2.33301 75.334 -15 98.001s-45 34 -83 34
c-36.667 0 -67.667 -11.667 -93 -35s-41.666 -55.666 -48.999 -96.999l-23 -150c-6.66699 -41.333 -0.833984 -73.666 17.499 -96.999s45.833 -35 82.5 -35z" />
    <glyph glyph-name="q" unicode="q" 
d="M345 -180l25.9971 160l22 125h-20l21 21c-6.66699 -41.333 -25.667 -74.333 -57 -99s-69.666 -37 -114.999 -37c-55.333 0 -96.166 18.333 -122.499 55s-34.5 86.667 -24.5 150l25 161c6.66699 42 19.834 78.333 39.501 109s44.334 54.167 74.001 70.5
s62.834 24.5 99.501 24.5c45.333 0 79.666 -12.167 102.999 -36.5s31.666 -57.5 24.999 -99.5l-15 21h18l17 105h90l-116 -730h-90zM264.997 68c37.333 0 68.5 11.6709 93.5 35.0039s40.833 55.666 47.5 96.999l23 150c7.33301 41.333 2 73.666 -16 96.999
s-45.667 35 -83 35c-38 0 -69.167 -11.333 -93.5 -34s-40.166 -55.334 -47.499 -98.001l-23 -150c-6.66699 -42.667 -1.33398 -75.334 15.999 -98.001s45 -34 83 -34z" />
    <glyph glyph-name="r" unicode="r" 
d="M67 0l86.998 550.001h88l-17 -105h21l-39 -65c9.33301 59.333 29.333 104.166 60 134.499s71.334 45.5 122.001 45.5c58 0 101.167 -18.167 129.5 -54.5s37.833 -85.5 28.5 -147.5l-6 -33h-90l4 25c7.33301 43.333 2.33301 76.5 -15 99.5s-45.333 34.5 -84 34.5
c-38 0 -69.667 -11.667 -95 -35s-41.666 -56.333 -48.999 -99l-55 -350h-90z" />
    <glyph glyph-name="s" unicode="s" 
d="M232 -10c-56.667 0 -99.6689 13.168 -129.002 39.501s-43 61.5 -41 105.5h90c1.33301 -19.333 9.83301 -35 25.5 -47s38.167 -18 67.5 -18h42c35.333 0 62.833 7.5 82.5 22.5s31.5 34.5 35.5 58.5c3.33301 23.333 -1.66699 42.166 -15 56.499
s-34.666 23.833 -63.999 28.5l-72 12c-52.667 8.66699 -90.334 25 -113.001 49s-30.334 59.333 -23.001 106c7.33301 49.333 29 87.833 65 115.5s85.333 41.5 148 41.5h38c52.667 0 93 -12.667 121 -38s42 -59 42 -101h-90c-1.33301 17.333 -9.16602 31.5 -23.499 42.5
s-35.166 16.5 -62.499 16.5h-38c-34 0 -59.833 -6.66699 -77.5 -20s-28.5 -32.666 -32.5 -57.999c-3.33301 -22.667 0.5 -39.667 11.5 -51s30.5 -19.333 58.5 -24l72 -12c57.333 -9.33301 97.833 -26.333 121.5 -51s31.834 -61 24.501 -109
c-8.66699 -50.667 -31.5 -90.834 -68.5 -120.501s-88.167 -44.5 -153.5 -44.5h-42z" />
    <glyph glyph-name="t" unicode="t" 
d="M316 0c-47.333 0 -82.167 12.667 -104.5 38s-29.833 61 -22.5 107l51 323h-155l13 82h155l24 150h90l-24 -150h220l-13 -82h-220l-51 -323c-6.66699 -42 10 -63 50 -63h150l-13 -82h-150z" />
    <glyph glyph-name="u" unicode="u" 
d="M253 -10c-63.333 0 -110.999 18.833 -142.999 56.5s-42.667 88.834 -32 153.501l55 350h90l-55 -350c-6.66699 -41.333 -1.16699 -73.5 16.5 -96.5s44.834 -34.5 81.501 -34.5c37.333 0 68.666 11.5 93.999 34.5s41.333 55.167 48 96.5l55 350h90l-55 -350
c-6.66699 -42.667 -21.334 -79.834 -44.001 -111.501s-51.167 -56 -85.5 -73s-72.833 -25.5 -115.5 -25.5z" />
    <glyph glyph-name="v" unicode="v" 
d="M195 0l-92 550h89l59 -370c3.33301 -22 6.33301 -43.167 9 -63.5s4.66699 -36.166 6 -47.499c4.66699 11.333 11.667 27.166 21 47.499l30 63.5l172 370h94l-266 -550h-122z" />
    <glyph glyph-name="w" unicode="w" 
d="M79 0l-0.999023 550.001h77l-7 -390c-0.666992 -14.667 -1 -30.5 -1 -47.5s-0.333008 -31.167 -1 -42.5l13 42.5l15 47.5l124 390h88l-1 -390c0 -14.667 0.166992 -30.5 0.5 -47.5s0.166016 -31.167 -0.500977 -42.5l13 42.5l15 47.5l119 390h76l-179 -550h-99l1 380v56
v44c-2.66699 -10.667 -7 -25.334 -13 -44.001l-18 -56l-122 -380h-99z" />
    <glyph glyph-name="x" unicode="x" 
d="M11 0l235.001 286l-136 264h104l78 -170l10.5 -24c3.66699 -8.66699 6.16699 -15.667 7.5 -21l13 21c5.33301 8.66699 10.666 16.667 15.999 24l131 170h107l-220 -271l144 -279h-104l-85 180c-3.33301 7.33301 -6.83301 15.833 -10.5 25.5s-6.5 17.5 -8.5 23.5
l-15 -23.5c-6 -9.66699 -12 -18.167 -18 -25.5l-142 -180h-107z" />
    <glyph glyph-name="y" unicode="y" 
d="M90 -180l13 81.999h175c28 0 49.667 6.33301 65 19s25 32.334 29 59.001l12 75l17 100h-19l22 21c-6.66699 -42.667 -25 -76 -55 -100s-68 -36 -114 -36c-54.667 0 -95.834 17 -123.501 51s-36.834 80.333 -27.501 139l51 320h90l-49 -310
c-6.66699 -38.667 -1.16699 -69 16.5 -91s44.5 -33 80.5 -33c37.333 0 68.833 11.667 94.5 35s41.834 56.333 48.501 99l47 300h90l-91 -570c-7.33301 -49.333 -28.666 -88.333 -63.999 -117s-80 -43 -134 -43h-174z" />
    <glyph glyph-name="z" unicode="z" 
d="M46 0l14 90l364 378h-296l13 82h401l-14 -90l-370 -378h321l-13 -82h-420z" />
    <glyph glyph-name="braceleft" unicode="{" 
d="M409 -110c-39.333 0 -72.1621 6.5 -98.4951 19.5s-44.833 32 -55.5 57s-12.334 54.833 -5.00098 89.5l36 164c7.33301 35.333 6 60.833 -4 76.5s-36.667 23.5 -80 23.5h-110l12 80h110c43.333 0 72.666 7.83301 87.999 23.5s24.666 41.167 27.999 76.5l16 164
c4 35.333 15.167 65.333 33.5 90s42.666 43.5 72.999 56.5s65.166 19.5 104.499 19.5h45l-12 -80h-45c-31.333 0 -56.5 -7.16699 -75.5 -21.5s-30.167 -35.833 -33.5 -64.5l-16 -164c-4.66699 -43.333 -20.5 -77.833 -47.5 -103.5s-61.833 -38.5 -104.5 -38.5v5
c42 0 72.833 -13 92.5 -39s24.834 -60.667 15.501 -104l-36 -164c-6 -28.667 -1.83301 -50.167 12.5 -64.5s37.166 -21.5 68.499 -21.5h45l-12 -80h-45z" />
    <glyph glyph-name="bar" unicode="|" 
d="M194 -110l148 940h90l-148 -940h-90z" />
    <glyph glyph-name="braceright" unicode="}" 
d="M24 -110l12.001 80h45c31.333 0 56.666 7.16699 75.999 21.5s30.333 35.833 33 64.5l16 164c4 43.333 19.833 78 47.5 104s62.5 39 104.5 39v-5c-42.667 0 -73.667 12.833 -93 38.5s-24.333 60.167 -15 103.5l36 164c6 28.667 1.83301 50.167 -12.5 64.5
s-37.166 21.5 -68.499 21.5h-45l12 80h45c39.333 0 72.166 -6.5 98.499 -19.5s45 -31.833 56 -56.5s12.5 -54.667 4.5 -90l-36 -164c-7.33301 -35.333 -6 -60.833 4 -76.5s36.667 -23.5 80 -23.5h110l-12 -80h-110c-42.667 0 -71.834 -7.83301 -87.501 -23.5
s-25.167 -41.167 -28.5 -76.5l-16 -164c-3.33301 -34.667 -14.333 -64.5 -33 -89.5s-43.167 -44 -73.5 -57s-65.166 -19.5 -104.499 -19.5h-45z" />
    <glyph glyph-name="asciitilde" unicode="~" 
d="M61 255l10.9961 70c6.66699 39.333 23.834 70.833 51.501 94.5s60.834 35.5 99.501 35.5c25.333 0 45.833 -4.33301 61.5 -13s28.667 -19.5 39 -32.5s19.5 -26 27.5 -39s16.5 -23.833 25.5 -32.5s20.167 -13 33.5 -13c15.333 0 27.833 4.66699 37.5 14
s15.834 23 18.501 41l11 70h85l-11 -70c-6 -38.667 -22.667 -70 -50 -94s-60.666 -36 -99.999 -36c-24.667 0 -45 4.33301 -61 13s-29.167 19.5 -39.5 32.5s-19.5 26 -27.5 39s-16.667 23.833 -26 32.5s-20.666 13 -33.999 13c-14.667 0 -26.834 -4.66699 -36.501 -14
s-16.167 -23 -19.5 -41l-11 -70h-85z" />
    <glyph glyph-name="uni00A0" unicode="&#xa0;" 
 />
    <glyph glyph-name="exclamdown" unicode="&#xa1;" 
d="M174 -180l20 125l83 391h64l-41 -391l-20 -125h-106zM315 436c-19.333 0 -34.002 5.66699 -44.002 17s-13.667 26 -11 44s10.834 32.333 24.501 43s30.167 16 49.5 16h20c19.333 0 34.333 -5.16699 45 -15.5s14.334 -24.5 11.001 -42.5
c-2.66699 -18.667 -11 -33.667 -25 -45s-30.667 -17 -50 -17h-20z" />
    <glyph glyph-name="cent" unicode="&#xa2;" 
d="M214 -140l131 830h60l-131 -830h-60zM258 -10c-44 0 -80.8311 8.33105 -110.498 24.998s-50.667 40.834 -63 72.501s-15.166 69.167 -8.49902 112.5l23 150c7.33301 44 22.166 81.667 44.499 113s51.166 55.333 86.499 72s75 25 119 25c63.333 0 111.666 -17 144.999 -51
s46.333 -80.333 39 -139h-90c3.33301 35.333 -4.33398 62.5 -23.001 81.5s-46.667 28.5 -84 28.5c-39.333 0 -71.833 -11.167 -97.5 -33.5s-41.834 -54.166 -48.501 -95.499l-24 -151c-6.66699 -41.333 -0.666992 -73.333 18 -96s47.667 -34 87 -34
c37.333 0 68.333 9.66699 93 29s41 46.333 49 81h90c-11.333 -58.667 -39.166 -105 -83.499 -139s-98.166 -51 -161.499 -51z" />
    <glyph glyph-name="sterling" unicode="&#xa3;" 
d="M31 0l16.0029 100.002c18 12.667 36.667 27.834 56 45.501s36.333 36 51 55s23.334 36.833 26.001 53.5c4.66699 28.667 5.33398 53.5 2.00098 74.5s-8.5 40.167 -15.5 57.5l-21 50c-7 16 -12.333 33.5 -16 52.5s-3.5 41.167 0.5 66.5c6 38 19.833 70.833 41.5 98.5
s49.834 49 84.501 64s73.667 22.5 117 22.5c44 0 80.833 -7.5 110.5 -22.5s51 -36.667 64 -65s16.5 -62.5 10.5 -102.5h-95c5.33301 33.333 -1.33398 60 -20.001 80s-46.334 30 -83.001 30c-38.667 0 -70.334 -9.5 -95.001 -28.5s-39.667 -46.167 -45 -81.5
c-3.33301 -20.667 -2.83301 -38.834 1.5 -54.501s10.166 -30.834 17.499 -45.501s14.5 -30.334 21.5 -47.001s12.167 -36.167 15.5 -58.5s2.33301 -49.5 -3 -81.5c-4.66699 -28.667 -14.834 -55.167 -30.501 -79.5s-33.334 -45.333 -53.001 -63s-38.167 -31.167 -55.5 -40.5
h370l-13 -80h-460zM79.0029 305.002l13 80h360l-13 -80h-360z" />
    <glyph glyph-name="currency" unicode="&#xa4;" 
d="M471 113l-99.0039 117.998l46 -16c-18.667 -14.667 -39.5 -25.667 -62.5 -33s-46.833 -11 -71.5 -11c-25.333 0 -48.333 3.83301 -69 11.5s-38.667 18.834 -54 33.501l51 9l-130 -111l-53 65l126 111l-17 -49c-12.667 16.667 -21.667 36.334 -27 59.001
s-5.66602 47 -0.999023 73s13 50.167 25 72.5s27.333 42.5 46 60.5l7 -49l-98 117l71 61l100 -119l-46 17c18.667 13.333 39.334 23.666 62.001 30.999s46.334 11 71.001 11c26 0 49.667 -4 71 -12s39.333 -19.667 54 -35l-52 -11l128 111l54 -63l-127 -109l19 50
c12 -18 20.333 -38.333 25 -61s4.66699 -46.667 0 -72s-12.667 -49.166 -24 -71.499s-25.666 -42.5 -42.999 -60.5l-9 49l98 -116zM294.996 239.998c24.667 0 47.6689 5.83301 69.002 17.5s39.333 27.5 54 47.5s24 42.667 28 68s1.83301 48 -6.5 68s-21.333 35.833 -39 47.5
s-38.834 17.5 -63.501 17.5s-48 -5.83301 -70 -17.5s-40.333 -27.5 -55 -47.5s-24 -42.667 -28 -68s-1.83301 -48 6.5 -68s21.666 -35.833 39.999 -47.5s39.833 -17.5 64.5 -17.5z" />
    <glyph glyph-name="yen" unicode="&#xa5;" 
d="M59 270l12 75h480l-12 -75h-480zM35 120l12 75h480l-12 -75h-480zM211 0l43 273l-147 457h91l97 -300c5.33301 -16.667 9.5 -30.834 12.5 -42.501s4.83301 -20.167 5.5 -25.5c2.66699 5.33301 7.16699 13.833 13.5 25.5s14.833 25.834 25.5 42.501l190 300h95l-293 -457
l-43 -273h-90z" />
    <glyph glyph-name="brokenbar" unicode="&#xa6;" 
d="M282 450l60 380h90l-60 -380h-90zM194 -110l60 380h90l-60 -380h-90z" />
    <glyph glyph-name="section" unicode="&#xa7;" 
d="M217 -154c-54.667 0 -99.0049 14.168 -133.005 42.501s-51 65.5 -51 111.5h95c2.66699 -22 13.167 -39.833 31.5 -53.5s41.5 -20.5 69.5 -20.5h30c38 0 68.333 7.83301 91 23.5s36 36.5 40 62.5c4 24 -1.33301 43.833 -16 59.5s-38 26.834 -70 33.501l-89 19
c-44.667 9.33301 -78.667 28.833 -102 58.5s-32 63.834 -26 102.501c4 25.333 13.333 48.5 28 69.5s32.834 38.167 54.501 51.5s44.834 21 69.501 23l1 7c-18 0 -36 4.5 -54 13.5s-31.833 24 -41.5 45s-11.834 49.167 -6.50098 84.5c7.33301 49.333 30.833 88.5 70.5 117.5
s90.834 43.5 153.501 43.5h30c52.667 0 95 -13.333 127 -40s48 -61.667 48 -105h-95c-2 19.333 -11.333 35 -28 47s-38 18 -64 18h-30c-34 0 -61.833 -7.33301 -83.5 -22s-34.167 -34.667 -37.5 -60c-3.33301 -21.333 2.33398 -39.833 17.001 -55.5
s36.334 -26.834 65.001 -33.501l87 -19c46 -10 80.5 -29.333 103.5 -58s31.167 -63.334 24.5 -104.001c-4 -25.333 -13.167 -48.5 -27.5 -69.5s-32.5 -37.667 -54.5 -50s-46.333 -18.5 -73 -18.5l-1 -7c19.333 -0.666992 38.5 -6.33398 57.5 -17.001
s34.167 -26.667 45.5 -48s14 -49 8 -83c-8 -52 -32.667 -93.167 -74 -123.5s-94.666 -45.5 -159.999 -45.5h-30zM314.995 185.001c19.333 -4 37.168 -1.33496 53.501 7.99805s30.333 23.5 42 42.5s19.167 40.167 22.5 63.5c4 23.333 0.166992 43.833 -11.5 61.5
s-29.167 28.834 -52.5 33.501l-71 15c-18.667 4 -36.334 1.5 -53.001 -7.5s-30.667 -22.5 -42 -40.5s-18.666 -38.333 -21.999 -61c-4.66699 -25.333 -1.33398 -47.166 9.99902 -65.499s28.333 -29.833 51 -34.5z" />
    <glyph glyph-name="dieresis" unicode="&#xa8;" 
d="M470 649c-19.333 0 -33.8301 5.66699 -43.4971 17s-13.167 26.666 -10.5 45.999c3.33301 20 11.666 35.833 24.999 47.5s29.666 17.5 48.999 17.5s34 -5.83301 44 -17.5s13.333 -27.5 10 -47.5c-2.66699 -19.333 -10.834 -34.666 -24.501 -45.999s-30.167 -17 -49.5 -17z
M248.003 649c-19.333 0 -33.8301 5.66699 -43.4971 17s-13.167 26.666 -10.5 45.999c3.33301 20 11.666 35.833 24.999 47.5s29.666 17.5 48.999 17.5s34 -5.83301 44 -17.5s13.333 -27.5 10 -47.5c-2.66699 -19.333 -10.834 -34.666 -24.501 -45.999s-30.167 -17 -49.5 -17
z" />
    <glyph glyph-name="copyright" unicode="&#xa9;" 
d="M273 110c-50.667 0 -93.502 10 -128.502 30s-60.333 48 -76 84s-19.834 78 -12.501 126l24 150c8 48 25.333 90 52 126s60.834 64 102.501 84s87.834 30 138.501 30c51.333 0 94.5 -10 129.5 -30s60.333 -48 76 -84s19.5 -78 11.5 -126l-24 -150
c-7.33301 -48 -24.5 -90 -51.5 -126s-61.167 -64 -102.5 -84s-87.666 -30 -138.999 -30zM280.998 160c40 0 76.168 7.83301 108.501 23.5s59.166 37.834 80.499 66.501s35 62 41 100l24 150c6 38 3 71.167 -9 99.5s-31.833 50.5 -59.5 66.5s-61.5 24 -101.5 24
c-39.333 0 -75.333 -8 -108 -24s-59.667 -38.167 -81 -66.5s-35 -61.5 -41 -99.5l-24 -150c-6 -38 -2.83301 -71.333 9.5 -100s32.333 -50.834 60 -66.501s61.167 -23.5 100.5 -23.5zM299.999 245c-37.333 0 -65.8301 10.5 -85.4971 31.5s-26.834 48.833 -21.501 83.5
l21 130c5.33301 34.667 21.166 62.5 47.499 83.5s58.166 31.5 95.499 31.5s65.666 -10.5 84.999 -31.5s26.333 -48.833 21 -83.5h-65c2.66699 18 -0.666016 32.5 -9.99902 43.5s-22.666 16.5 -39.999 16.5c-18 0 -33.333 -5.5 -46 -16.5s-20.334 -25.5 -23.001 -43.5
l-21 -130c-2.66699 -18 0.666016 -32.5 9.99902 -43.5s23 -16.5 41 -16.5c17.333 0 32.333 5.5 45 16.5s20.334 25.5 23.001 43.5h65c-5.33301 -34.667 -21 -62.5 -47 -83.5s-57.667 -31.5 -95 -31.5z" />
    <glyph glyph-name="ordfeminine" unicode="&#xaa;" 
d="M401 455l9 55h-3l22 140c2.66699 15.333 -1.16602 27.5 -11.499 36.5s-25.5 13.5 -45.5 13.5c-17.333 0 -32.666 -3.66699 -45.999 -11s-21.666 -17 -24.999 -29h-50c7.33301 25.333 22.166 45 44.499 59s49.833 21 82.5 21c35.333 0 62.166 -8 80.499 -24
s25.166 -38 20.499 -66l-31 -195h-47zM301 450c-30 0 -52.667 7.83496 -68 23.502s-21 36.5 -17 62.5s16.5 46.667 37.5 62s47.833 23 80.5 23h101l-6 -40h-101c-17.333 0 -31.5 -4 -42.5 -12s-17.5 -19 -19.5 -33c-2.66699 -14.667 1 -26.334 11 -35.001s24.333 -13 43 -13
c26 0 47.333 6 64 18s26.667 28.333 30 49h11l-7 -45h-11c-10 -18.667 -24.333 -33.334 -43 -44.001s-39.667 -16 -63 -16z" />
    <glyph glyph-name="guillemotleft" unicode="&#xab;" 
d="M427 40l-164 240l239 240h110l-247 -243l163 -237h-101zM194 40l-164 240l239 240h110l-247 -243l163 -237h-101z" />
    <glyph glyph-name="logicalnot" unicode="&#xac;" 
d="M433 205l21 130h-375l13 80h460l-34 -210h-85z" />
    <glyph glyph-name="uni00AD" unicode="&#xad;" 
d="M142 290l13 80h320l-13 -80h-320z" />
    <glyph glyph-name="registered" unicode="&#xae;" 
d="M273 110c-50.667 0 -93.6709 10 -129.004 30s-60.666 48 -75.999 84s-19.333 78 -12 126l24 150c8 48 25.333 90 52 126s60.834 64 102.501 84s87.834 30 138.501 30c51.333 0 94.5 -10 129.5 -30s60.333 -48 76 -84s19.5 -78 11.5 -126l-24 -150
c-7.33301 -48 -24.5 -90 -51.5 -126s-61.167 -64 -102.5 -84s-87.666 -30 -138.999 -30zM280.996 160c40 0 76.168 7.83301 108.501 23.5s59.166 37.834 80.499 66.501s35 62 41 100l24 150c6 38 3 71.167 -9 99.5s-31.833 50.5 -59.5 66.5s-61.5 24 -101.5 24
c-39.333 0 -75.333 -8 -108 -24s-59.667 -38.167 -81 -66.5s-35 -61.5 -41 -99.5l-24 -150c-6 -38 -2.83301 -71.333 9.5 -100s32.333 -50.834 60 -66.501s61.167 -23.5 100.5 -23.5zM185.997 250l55 350h114c36 0 63 -9.5 81 -28.5s24.333 -44.5 19 -76.5
c-4.66699 -27.333 -16 -49.833 -34 -67.5s-40.667 -29.167 -68 -34.5l16 47l54 -190h-63l-38 140h-54l-22 -140h-60zM275.997 440h54.002c17.333 0 31.666 4.83301 42.999 14.5s18.333 23.167 21 40.5c3.33301 17.333 0.666016 30.833 -8.00098 40.5s-21.667 14.5 -39 14.5
h-54z" />
    <glyph glyph-name="macron" unicode="&#xaf;" 
d="M202 670l12 75h320l-12 -75h-320z" />
    <glyph glyph-name="degree" unicode="&#xb0;" 
d="M327 450c-44.667 0 -78.667 13.333 -102 40s-31.666 61.667 -24.999 105c7.33301 43.333 26.833 78.333 58.5 105s69.834 40 114.501 40c45.333 0 79.666 -13.333 102.999 -40s31.333 -61.667 24 -105c-6.66699 -43.333 -25.834 -78.333 -57.501 -105
s-70.167 -40 -115.5 -40zM334 501c27.333 0 50.666 8.66699 69.999 26s31.333 40 36 68c4.66699 28.667 0 51.667 -14 69s-34.667 26 -62 26c-26.667 0 -49.5 -8.66699 -68.5 -26s-30.833 -40.333 -35.5 -69c-4.66699 -28 -0.166992 -50.667 13.5 -68s33.834 -26 60.501 -26
z" />
    <glyph glyph-name="plusminus" unicode="&#xb1;" 
d="M26 0l11 70h186l36 225h-191l12 80h191l31 195h88l-31 -195h191l-12 -80h-191l-36 -225h186l-11 -70h-460z" />
    <glyph glyph-name="uni00B2" unicode="&#xb2;" 
d="M186 405l13.9971 87l181 121c16 10.667 29.333 23.5 40 38.5s17.334 29.833 20.001 44.5c4 25.333 0.166992 45.166 -11.5 59.499s-29.167 21.5 -52.5 21.5s-43.166 -7.16699 -59.499 -21.5s-26.5 -34.166 -30.5 -59.499h-70c9.33301 44 29.333 79 60 105
s67.334 39 110.001 39c45.333 0 79 -12.833 101 -38.5s29.667 -60.167 23 -103.5c-4 -23.333 -14.833 -47.5 -32.5 -72.5s-40.167 -46.5 -67.5 -64.5l-143 -92h217l-10 -64h-289z" />
    <glyph glyph-name="uni00B3" unicode="&#xb3;" 
d="M303 395c-45.333 0 -79.3311 12.667 -101.998 38s-30.667 59.333 -24 102h69c-4 -23.333 0 -42 12 -56s30.333 -21 55 -21c23.333 0 42.833 7 58.5 21s25.5 32.667 29.5 56c3.33301 23.333 -0.5 41.833 -11.5 55.5s-28.167 20.5 -51.5 20.5h-30l10 67l104 89h-180l11 64
h240l-13 -77l-134 -115l4 30c44 0 77.167 -12 99.5 -36s30.166 -56.667 23.499 -98c-6.66699 -42.667 -25.334 -76.667 -56.001 -102s-68.667 -38 -114 -38z" />
    <glyph glyph-name="acute" unicode="&#xb4;" 
d="M267 645l128 140h102l-133 -140h-97z" />
    <glyph glyph-name="uni00B5" unicode="&#xb5;" 
d="M17 -180l115.995 730h90l-56 -356c-6.66699 -40 -2.16699 -70.833 13.5 -92.5s44.167 -32.5 85.5 -32.5c42 0 74.333 10.833 97 32.5s37.334 52.5 44.001 92.5l56 356h90l-56 -356c-10.667 -64 -36.5 -114 -77.5 -150s-93.167 -54 -156.5 -54
c-31.333 0 -57.166 4.16699 -77.499 12.5s-35.666 18.5 -45.999 30.5s-16.166 23.333 -17.499 34h-4c0.666992 0 1.5 -4.5 2.5 -13.5s1.83301 -19.667 2.5 -32s0.333984 -23.833 -0.999023 -34.5l-16 -167h-89z" />
    <glyph glyph-name="paragraph" unicode="&#xb6;" 
d="M182 -180l78 490c-56.667 0 -100 15.667 -130 47s-41 72.333 -33 123l13 80c5.33301 34 18 63.833 38 89.5s45.333 45.5 76 59.5s65 21 103 21h80l-145 -910h-80zM352 -180l145 910h80l-145 -910h-80z" />
    <glyph glyph-name="periodcentered" unicode="&#xb7;" 
d="M254 260c-25.333 0 -44.333 7.33301 -57 22s-17 34.334 -13 59.001c4 26 14.833 46.667 32.5 62s39.167 23 64.5 23s44.166 -7.66699 56.499 -23s16.5 -36 12.5 -62c-4 -24.667 -14.667 -44.334 -32 -59.001s-38.666 -22 -63.999 -22z" />
    <glyph glyph-name="cedilla" unicode="&#xb8;" 
d="M129 -203l8.99902 54.999h70c14.667 0 27 3.83301 37 11.5s15.667 15.834 17 24.501c2 11.333 -5.5 21.333 -22.5 30s-42.167 13 -75.5 13l50 95h57l-31 -61c17.333 -2 34.833 -6.33301 52.5 -13s31.834 -16 42.501 -28s14.667 -26.667 12 -44
c-3.33301 -22.667 -17.333 -42.167 -42 -58.5s-55 -24.5 -91 -24.5h-85z" />
    <glyph glyph-name="uni00B9" unicode="&#xb9;" 
d="M175 405l10 64h131l47 298l-135 -87l12 79l108 71h95l-57 -361h104l-10 -64h-305z" />
    <glyph glyph-name="ordmasculine" unicode="&#xba;" 
d="M326 445c-34.667 0 -60.834 9.66699 -78.501 29s-24.167 44.666 -19.5 75.999l13 80c5.33301 31.333 19.833 56.666 43.5 75.999s52.834 29 87.501 29s61.167 -9.66699 79.5 -29s24.833 -44.666 19.5 -75.999l-13 -80c-4.66699 -31.333 -19.167 -56.666 -43.5 -75.999
s-53.833 -29 -88.5 -29zM333 485c19.333 0 35.999 6 49.999 18s22.333 27.667 25 47l13 80c3.33301 19.333 -0.166992 35 -10.5 47s-25.166 18 -44.499 18s-35.833 -6 -49.5 -18s-22.167 -27.667 -25.5 -47l-13 -80c-2.66699 -19.333 1 -35 11 -47s24.667 -18 44 -18z" />
    <glyph glyph-name="guillemotright" unicode="&#xbb;" 
d="M222 40l245 246l-162 234h101l164 -240l-239 -240h-109zM-11 40l245 246l-162 234h101l164 -240l-239 -240h-109z" />
    <glyph glyph-name="onequarter" unicode="&#xbc;" 
d="M50 405l8 50h118l37 236c-3.33301 -4.66699 -8.5 -10.5 -15.5 -17.5s-14.833 -13.833 -23.5 -20.5l-70 -54l11 70l80 61h85l-44 -275h97l-8 -50h-275zM436 0l11 70h-175l13 80l153 175h69l-164 -189l-3 -16h115l14 89h60l-33 -209h-60zM46 0l470 730h66l-470 -730h-66z
" />
    <glyph glyph-name="onehalf" unicode="&#xbd;" 
d="M271 0l9.99902 63.999l131 69c51.333 27.333 79 55 83 83c3.33301 19.333 -0.166992 34.833 -10.5 46.5s-25.166 17.5 -44.499 17.5s-35.833 -5.83301 -49.5 -17.5s-22.167 -27.167 -25.5 -46.5h-60c7.33301 34.667 24 62.334 50 83.001s57 31 93 31
c37.333 0 66 -10.333 86 -31s27.333 -47.667 22 -81c-3.33301 -20.667 -14.166 -41 -32.499 -61s-42.5 -37.667 -72.5 -53l-101 -52l-1 -10c7.33301 1.33301 18.166 3 32.499 5s28.833 3 43.5 3h109l-8 -50h-255zM49.999 404.999l8 50h118l37 236
c-3.33301 -4.66699 -8.5 -10.5 -15.5 -17.5s-14.833 -13.833 -23.5 -20.5l-70 -54l11 70l80 61h85l-44 -275h107l-8 -50h-285zM45.999 -0.000976562l470 730h66l-470 -730h-66z" />
    <glyph glyph-name="threequarters" unicode="&#xbe;" 
d="M436 0l11 70h-175l13 80l153 175h69l-164 -189l-3 -16h115l14 89h60l-33 -209h-60zM173 400c-38.667 0 -68.002 9.66602 -88.002 28.999s-27.667 44.666 -23 75.999h60c-2.66699 -16.667 1.33301 -30 12 -40s26.334 -15 47.001 -15c20 0 37 5 51 15s22.333 23.333 25 40
s-1.33301 30 -12 40s-25.667 15 -45 15h-30l9 57l91 63h-156l8 50h215l-9 -55l-120 -83l3 18c36.667 0 64.834 -9.66699 84.501 -29s26.834 -44.666 21.501 -75.999c-4.66699 -31.333 -20.334 -56.666 -47.001 -75.999s-59 -29 -97 -29zM45.998 -0.000976562l470 730h66
l-470 -730h-66z" />
    <glyph glyph-name="questiondown" unicode="&#xbf;" 
d="M269 -170c-47.333 0 -86.832 8.5 -118.499 25.5s-54.334 41.333 -68.001 73s-17.167 68.834 -10.5 111.501c6 38 19.333 71.667 40 101s46.5 52.666 77.5 69.999s65.5 27 103.5 29l17 105h90l-29 -180h-50c-42.667 0 -78.167 -11 -106.5 -33s-45.833 -52.667 -52.5 -92
c-6 -38.667 1.83301 -69.167 23.5 -91.5s54.167 -33.5 97.5 -33.5h125l-14 -85h-125zM360.001 435c-19.333 0 -33.999 5.66699 -43.999 17s-13.667 26 -11 44s10.834 32.333 24.501 43s30.167 16 49.5 16h20c19.333 0 34.166 -5.16699 44.499 -15.5
s14.166 -24.5 11.499 -42.5c-2.66699 -18.667 -11 -33.667 -25 -45s-30.667 -17 -50 -17h-20z" />
    <glyph glyph-name="Agrave" unicode="&#xc0;" 
d="M6 0l306 730h121l73 -730h-88l-17 194h-221l-79 -194h-95zM210 270l183.999 -0.000976562l-21 225c-3.33301 42.667 -5.83301 78.334 -7.5 107.001s-2.5 47.334 -2.5 56.001c-2.66699 -8.66699 -9.16699 -27.334 -19.5 -56.001s-24.166 -64 -41.499 -106z
M353.999 809.999l-93 140h94l88 -140h-89z" />
    <glyph glyph-name="Aacute" unicode="&#xc1;" 
d="M6 0l306 730h121l73 -730h-88l-17 194h-221l-79 -194h-95zM210 270l183.999 -0.000976562l-21 225c-3.33301 42.667 -5.83301 78.334 -7.5 107.001s-2.5 47.334 -2.5 56.001c-2.66699 -8.66699 -9.16699 -27.334 -19.5 -56.001s-24.166 -64 -41.499 -106z
M322.999 809.999l128 140h102l-133 -140h-97z" />
    <glyph glyph-name="Acircumflex" unicode="&#xc2;" 
d="M6 0l306 730h121l73 -730h-88l-17 194h-221l-79 -194h-95zM210 270l183.999 -0.000976562l-21 225c-3.33301 42.667 -5.83301 78.334 -7.5 107.001s-2.5 47.334 -2.5 56.001c-2.66699 -8.66699 -9.16699 -27.334 -19.5 -56.001s-24.166 -64 -41.499 -106z
M202.999 809.999l161 140h83l118 -140h-97l-69 78l-93 -78h-103z" />
    <glyph glyph-name="Atilde" unicode="&#xc3;" 
d="M6 0l306 730h121l73 -730h-88l-17 194h-221l-79 -194h-95zM210 270l183.999 -0.000976562l-21 225c-3.33301 42.667 -5.83301 78.334 -7.5 107.001s-2.5 47.334 -2.5 56.001c-2.66699 -8.66699 -9.16699 -27.334 -19.5 -56.001s-24.166 -64 -41.499 -106z
M454.999 814.999c-20 0 -35.666 3.5 -46.999 10.5s-20.666 15.167 -27.999 24.5s-14.5 17.5 -21.5 24.5s-16.167 10.5 -27.5 10.5c-8.66699 0 -16.334 -2.83301 -23.001 -8.5s-10.667 -14.5 -12 -26.5l-5 -30h-65l5 30c4.66699 30 16.667 53.333 36 70s42.333 25 69 25
c20 0 35.667 -3.5 47 -10.5s20.666 -15.167 27.999 -24.5s14.5 -17.5 21.5 -24.5s16.167 -10.5 27.5 -10.5c9.33301 0 17 2.83301 23 8.5s10 14.5 12 26.5l5 30h65l-5 -30c-4.66699 -30 -16.5 -53.333 -35.5 -70s-42.167 -25 -69.5 -25z" />
    <glyph glyph-name="Adieresis" unicode="&#xc4;" 
d="M6 0l306 730h121l73 -730h-88l-17 194h-221l-79 -194h-95zM210 270l183.999 -0.000976562l-21 225c-3.33301 42.667 -5.83301 78.334 -7.5 107.001s-2.5 47.334 -2.5 56.001c-2.66699 -8.66699 -9.16699 -27.334 -19.5 -56.001s-24.166 -64 -41.499 -106z
M495.999 816.999c-19.333 0 -33.833 5.66699 -43.5 17s-13.167 26.666 -10.5 45.999c3.33301 20 11.833 35.833 25.5 47.5s30.167 17.5 49.5 17.5s33.833 -5.83301 43.5 -17.5s12.834 -27.5 9.50098 -47.5c-2.66699 -19.333 -10.834 -34.666 -24.501 -45.999
s-30.167 -17 -49.5 -17zM273.999 816.999c-19.333 0 -33.833 5.66699 -43.5 17s-13.167 26.666 -10.5 45.999c3.33301 20 11.833 35.833 25.5 47.5s30.167 17.5 49.5 17.5s33.833 -5.83301 43.5 -17.5s12.834 -27.5 9.50098 -47.5
c-2.66699 -19.333 -10.834 -34.666 -24.501 -45.999s-30.167 -17 -49.5 -17z" />
    <glyph glyph-name="Aring" unicode="&#xc5;" 
d="M6 0l306 730h121l73 -730h-88l-17 194h-221l-79 -194h-95zM210 270l183.999 -0.000976562l-21 225c-3.33301 42.667 -5.83301 78.334 -7.5 107.001s-2.5 47.334 -2.5 56.001c-2.66699 -8.66699 -9.16699 -27.334 -19.5 -56.001s-24.166 -64 -41.499 -106z
M376.999 765.999c-36 0 -63.167 10.5 -81.5 31.5s-25.166 48.5 -20.499 82.5c5.33301 34 20.666 61.5 45.999 82.5s56 31.5 92 31.5s63.333 -10.5 82 -31.5s25.334 -48.5 20.001 -82.5c-4.66699 -34 -19.834 -61.5 -45.501 -82.5s-56.5 -31.5 -92.5 -31.5zM385.999 818.999
c18 0 33.333 5.5 46 16.5s20.334 25.833 23.001 44.5c3.33301 18.667 0.333008 33.667 -9 45s-23 17 -41 17s-33.333 -5.66699 -46 -17s-20.667 -26.333 -24 -45c-2.66699 -18.667 0.666016 -33.5 9.99902 -44.5s23 -16.5 41 -16.5z" />
    <glyph glyph-name="AE" unicode="&#xc6;" 
d="M-14 0l261 730h395l-13 -82h-182l-36 -228h157l-13 -82h-157l-41 -256h182l-13 -82h-268l32 203h-141l-72 -203h-91zM175 278h127l59 370h-56z" />
    <glyph glyph-name="Ccedilla" unicode="&#xc7;" 
d="M134 -203l8.99902 54.999h70c14.667 0 27 3.83301 37 11.5s15.667 15.834 17 24.501c2 11.333 -5.5 21.333 -22.5 30s-42.167 13 -75.5 13l50 95h57l-31 -61c17.333 -2 34.833 -6.33301 52.5 -13s31.834 -16 42.501 -28s14.667 -26.667 12 -44
c-3.33301 -22.667 -17.333 -42.167 -42 -58.5s-55 -24.5 -91 -24.5h-85zM257.999 -10.001c-44 0 -80.8311 8.33301 -110.498 25s-50.667 40.834 -63 72.501s-15.166 69.167 -8.49902 112.5l52 330c7.33301 44 22.166 81.667 44.499 113s51 55.333 86 72s74.5 25 118.5 25
s80.5 -8.5 109.5 -25.5s49.833 -41.167 62.5 -72.5s15.667 -68.666 9 -111.999h-90c6.66699 41.333 0.833984 73.166 -17.499 95.499s-47.166 33.5 -86.499 33.5s-71.833 -11 -97.5 -33s-41.834 -53.667 -48.501 -95l-52 -331
c-6.66699 -41.333 -0.666992 -73.166 18 -95.499s47.667 -33.5 87 -33.5s71.666 11.167 96.999 33.5s41.333 54.166 48 95.499h90c-6.66699 -42.667 -21.334 -79.834 -44.001 -111.501s-51.334 -56 -86.001 -73s-74 -25.5 -118 -25.5z" />
    <glyph glyph-name="Egrave" unicode="&#xc8;" 
d="M56 0l116 730h420l-13 -82h-331l-36 -226h296l-13 -81h-296l-41 -259h331l-13 -82h-420zM374 810l-93 140h94l88 -140h-89z" />
    <glyph glyph-name="Eacute" unicode="&#xc9;" 
d="M56 0l116 730h420l-13 -82h-331l-36 -226h296l-13 -81h-296l-41 -259h331l-13 -82h-420zM343 810l128 140h102l-133 -140h-97z" />
    <glyph glyph-name="Ecircumflex" unicode="&#xca;" 
d="M56 0l116 730h420l-13 -82h-331l-36 -226h296l-13 -81h-296l-41 -259h331l-13 -82h-420zM223 810l161 140h83l118 -140h-97l-69 78l-93 -78h-103z" />
    <glyph glyph-name="Edieresis" unicode="&#xcb;" 
d="M56 0l116 730h420l-13 -82h-331l-36 -226h296l-13 -81h-296l-41 -259h331l-13 -82h-420zM516 817c-19.333 0 -33.833 5.66699 -43.5 17s-13.167 26.666 -10.5 45.999c3.33301 20 11.833 35.833 25.5 47.5s30.167 17.5 49.5 17.5s33.833 -5.83301 43.5 -17.5
s12.834 -27.5 9.50098 -47.5c-2.66699 -19.333 -10.834 -34.666 -24.501 -45.999s-30.167 -17 -49.5 -17zM294 817c-19.333 0 -33.833 5.66699 -43.5 17s-13.167 26.666 -10.5 45.999c3.33301 20 11.833 35.833 25.5 47.5s30.167 17.5 49.5 17.5s33.833 -5.83301 43.5 -17.5
s12.834 -27.5 9.50098 -47.5c-2.66699 -19.333 -10.834 -34.666 -24.501 -45.999s-30.167 -17 -49.5 -17z" />
    <glyph glyph-name="Igrave" unicode="&#xcc;" 
d="M61 0l13 82h149l90 566h-149l13 82h390l-13 -82h-149l-90 -566h149l-13 -82h-390zM354 810l-93 140h94l88 -140h-89z" />
    <glyph glyph-name="Iacute" unicode="&#xcd;" 
d="M61 0l13 82h149l90 566h-149l13 82h390l-13 -82h-149l-90 -566h149l-13 -82h-390zM323 810l128 140h102l-133 -140h-97z" />
    <glyph glyph-name="Icircumflex" unicode="&#xce;" 
d="M61 0l13 82h149l90 566h-149l13 82h390l-13 -82h-149l-90 -566h149l-13 -82h-390zM203 810l161 140h83l118 -140h-97l-69 78l-93 -78h-103z" />
    <glyph glyph-name="Idieresis" unicode="&#xcf;" 
d="M61 0l13 82h149l90 566h-149l13 82h390l-13 -82h-149l-90 -566h149l-13 -82h-390zM496 817c-19.333 0 -33.833 5.66699 -43.5 17s-13.167 26.666 -10.5 45.999c3.33301 20 11.833 35.833 25.5 47.5s30.167 17.5 49.5 17.5s33.833 -5.83301 43.5 -17.5
s12.834 -27.5 9.50098 -47.5c-2.66699 -19.333 -10.834 -34.666 -24.501 -45.999s-30.167 -17 -49.5 -17zM274 817c-19.333 0 -33.833 5.66699 -43.5 17s-13.167 26.666 -10.5 45.999c3.33301 20 11.833 35.833 25.5 47.5s30.167 17.5 49.5 17.5s33.833 -5.83301 43.5 -17.5
s12.834 -27.5 9.50098 -47.5c-2.66699 -19.333 -10.834 -34.666 -24.501 -45.999s-30.167 -17 -49.5 -17z" />
    <glyph glyph-name="Eth" unicode="&#xd0;" 
d="M10 335v75h280v-75h-280zM48 0l115.996 730.001h189c47.333 0 86.833 -9 118.5 -27s54.334 -43.333 68.001 -76s16.834 -71.334 9.50098 -116.001l-46 -291c-6.66699 -44.667 -22.167 -83.5 -46.5 -116.5s-55.166 -58.5 -92.499 -76.5s-79.666 -27 -126.999 -27h-189z
M150.996 80.001h99c44 0 80.5 12.333 109.5 37s46.833 59 53.5 103l46 291c7.33301 43.333 0.333008 77.333 -21 102s-54 37 -98 37h-99z" />
    <glyph glyph-name="Ntilde" unicode="&#xd1;" 
d="M46 0l115.998 730h119l125 -625l5 61.5c2 24.333 4.66699 50 8 77s7 52.5 11 76.5l65 410h87l-116 -730h-119l-124 625c-1.33301 -16 -3.16602 -36.167 -5.49902 -60.5s-5.16602 -50 -8.49902 -77s-7 -52.833 -11 -77.5l-65 -410h-87zM454.998 815
c-20 0 -35.666 3.5 -46.999 10.5s-20.666 15.167 -27.999 24.5s-14.5 17.5 -21.5 24.5s-16.167 10.5 -27.5 10.5c-8.66699 0 -16.334 -2.83301 -23.001 -8.5s-10.667 -14.5 -12 -26.5l-5 -30h-65l5 30c4.66699 30 16.667 53.333 36 70s42.333 25 69 25
c20 0 35.667 -3.5 47 -10.5s20.666 -15.167 27.999 -24.5s14.5 -17.5 21.5 -24.5s16.167 -10.5 27.5 -10.5c9.33301 0 17 2.83301 23 8.5s10 14.5 12 26.5l5 30h65l-5 -30c-4.66699 -30 -16.5 -53.333 -35.5 -70s-42.167 -25 -69.5 -25z" />
    <glyph glyph-name="Ograve" unicode="&#xd2;" 
d="M254 -10c-43.333 0 -79.5 8.33203 -108.5 24.999s-49.5 40.834 -61.5 72.501s-14.667 69.167 -8 112.5l52 330c7.33301 44 22 81.667 44 113s50.167 55.333 84.5 72s73.166 25 116.499 25c44 0 80.5 -8.33301 109.5 -25s49.667 -40.667 62 -72
s14.833 -68.666 7.5 -111.999l-52 -331c-6.66699 -43.333 -21.167 -80.833 -43.5 -112.5s-50.666 -55.834 -84.999 -72.501s-73.5 -25 -117.5 -25zM267 70.999c39.333 0 71.333 11.167 96 33.5s40.334 54.166 47.001 95.499l52 330
c6.66699 41.333 1.16699 73.166 -16.5 95.499s-46.167 33.5 -85.5 33.5c-38.667 0 -70.334 -11.167 -95.001 -33.5s-40.334 -54.166 -47.001 -95.499l-52 -330c-6.66699 -41.333 -1.16699 -73.166 16.5 -95.499s45.834 -33.5 84.501 -33.5zM354 809.999l-93 140h94l88 -140
h-89z" />
    <glyph glyph-name="Oacute" unicode="&#xd3;" 
d="M254 -10c-43.333 0 -79.5 8.33203 -108.5 24.999s-49.5 40.834 -61.5 72.501s-14.667 69.167 -8 112.5l52 330c7.33301 44 22 81.667 44 113s50.167 55.333 84.5 72s73.166 25 116.499 25c44 0 80.5 -8.33301 109.5 -25s49.667 -40.667 62 -72
s14.833 -68.666 7.5 -111.999l-52 -331c-6.66699 -43.333 -21.167 -80.833 -43.5 -112.5s-50.666 -55.834 -84.999 -72.501s-73.5 -25 -117.5 -25zM267 70.999c39.333 0 71.333 11.167 96 33.5s40.334 54.166 47.001 95.499l52 330
c6.66699 41.333 1.16699 73.166 -16.5 95.499s-46.167 33.5 -85.5 33.5c-38.667 0 -70.334 -11.167 -95.001 -33.5s-40.334 -54.166 -47.001 -95.499l-52 -330c-6.66699 -41.333 -1.16699 -73.166 16.5 -95.499s45.834 -33.5 84.501 -33.5zM323 809.999l128 140h102
l-133 -140h-97z" />
    <glyph glyph-name="Ocircumflex" unicode="&#xd4;" 
d="M254 -10c-43.333 0 -79.5 8.33203 -108.5 24.999s-49.5 40.834 -61.5 72.501s-14.667 69.167 -8 112.5l52 330c7.33301 44 22 81.667 44 113s50.167 55.333 84.5 72s73.166 25 116.499 25c44 0 80.5 -8.33301 109.5 -25s49.667 -40.667 62 -72
s14.833 -68.666 7.5 -111.999l-52 -331c-6.66699 -43.333 -21.167 -80.833 -43.5 -112.5s-50.666 -55.834 -84.999 -72.501s-73.5 -25 -117.5 -25zM267 70.999c39.333 0 71.333 11.167 96 33.5s40.334 54.166 47.001 95.499l52 330
c6.66699 41.333 1.16699 73.166 -16.5 95.499s-46.167 33.5 -85.5 33.5c-38.667 0 -70.334 -11.167 -95.001 -33.5s-40.334 -54.166 -47.001 -95.499l-52 -330c-6.66699 -41.333 -1.16699 -73.166 16.5 -95.499s45.834 -33.5 84.501 -33.5zM203 809.999l161 140h83l118 -140
h-97l-69 78l-93 -78h-103z" />
    <glyph glyph-name="Otilde" unicode="&#xd5;" 
d="M254 -10c-43.333 0 -79.5 8.33203 -108.5 24.999s-49.5 40.834 -61.5 72.501s-14.667 69.167 -8 112.5l52 330c7.33301 44 22 81.667 44 113s50.167 55.333 84.5 72s73.166 25 116.499 25c44 0 80.5 -8.33301 109.5 -25s49.667 -40.667 62 -72
s14.833 -68.666 7.5 -111.999l-52 -331c-6.66699 -43.333 -21.167 -80.833 -43.5 -112.5s-50.666 -55.834 -84.999 -72.501s-73.5 -25 -117.5 -25zM267 70.999c39.333 0 71.333 11.167 96 33.5s40.334 54.166 47.001 95.499l52 330
c6.66699 41.333 1.16699 73.166 -16.5 95.499s-46.167 33.5 -85.5 33.5c-38.667 0 -70.334 -11.167 -95.001 -33.5s-40.334 -54.166 -47.001 -95.499l-52 -330c-6.66699 -41.333 -1.16699 -73.166 16.5 -95.499s45.834 -33.5 84.501 -33.5zM455 814.999
c-20 0 -35.666 3.5 -46.999 10.5s-20.666 15.167 -27.999 24.5s-14.5 17.5 -21.5 24.5s-16.167 10.5 -27.5 10.5c-8.66699 0 -16.334 -2.83301 -23.001 -8.5s-10.667 -14.5 -12 -26.5l-5 -30h-65l5 30c4.66699 30 16.667 53.333 36 70s42.333 25 69 25
c20 0 35.667 -3.5 47 -10.5s20.666 -15.167 27.999 -24.5s14.5 -17.5 21.5 -24.5s16.167 -10.5 27.5 -10.5c9.33301 0 17 2.83301 23 8.5s10 14.5 12 26.5l5 30h65l-5 -30c-4.66699 -30 -16.5 -53.333 -35.5 -70s-42.167 -25 -69.5 -25z" />
    <glyph glyph-name="Odieresis" unicode="&#xd6;" 
d="M254 -10c-43.333 0 -79.5 8.33203 -108.5 24.999s-49.5 40.834 -61.5 72.501s-14.667 69.167 -8 112.5l52 330c7.33301 44 22 81.667 44 113s50.167 55.333 84.5 72s73.166 25 116.499 25c44 0 80.5 -8.33301 109.5 -25s49.667 -40.667 62 -72
s14.833 -68.666 7.5 -111.999l-52 -331c-6.66699 -43.333 -21.167 -80.833 -43.5 -112.5s-50.666 -55.834 -84.999 -72.501s-73.5 -25 -117.5 -25zM267 70.999c39.333 0 71.333 11.167 96 33.5s40.334 54.166 47.001 95.499l52 330
c6.66699 41.333 1.16699 73.166 -16.5 95.499s-46.167 33.5 -85.5 33.5c-38.667 0 -70.334 -11.167 -95.001 -33.5s-40.334 -54.166 -47.001 -95.499l-52 -330c-6.66699 -41.333 -1.16699 -73.166 16.5 -95.499s45.834 -33.5 84.501 -33.5zM496 816.999
c-19.333 0 -33.833 5.66699 -43.5 17s-13.167 26.666 -10.5 45.999c3.33301 20 11.833 35.833 25.5 47.5s30.167 17.5 49.5 17.5s33.833 -5.83301 43.5 -17.5s12.834 -27.5 9.50098 -47.5c-2.66699 -19.333 -10.834 -34.666 -24.501 -45.999s-30.167 -17 -49.5 -17z
M274 816.999c-19.333 0 -33.833 5.66699 -43.5 17s-13.167 26.666 -10.5 45.999c3.33301 20 11.833 35.833 25.5 47.5s30.167 17.5 49.5 17.5s33.833 -5.83301 43.5 -17.5s12.834 -27.5 9.50098 -47.5c-2.66699 -19.333 -10.834 -34.666 -24.501 -45.999
s-30.167 -17 -49.5 -17z" />
    <glyph glyph-name="multiply" unicode="&#xd7;" 
d="M135 135l-45 54l164 142l-117 141l57 49l118 -140l169 146l45 -54l-169 -146l119 -140l-58 -50l-118 141z" />
    <glyph glyph-name="Oslash" unicode="&#xd8;" 
d="M-15 -40l569 790h86l-569 -790h-86zM254 -10c-43.333 0 -79.499 8.33203 -108.499 24.999s-49.5 40.834 -61.5 72.501s-14.667 69.167 -8 112.5l52 330c7.33301 44 22 81.667 44 113s50.167 55.333 84.5 72s73.166 25 116.499 25c44 0 80.333 -8.33301 109 -25
s49.167 -40.667 61.5 -72s15.166 -68.666 8.49902 -111.999l-52 -331c-6.66699 -43.333 -21.167 -80.833 -43.5 -112.5s-50.666 -55.834 -84.999 -72.501s-73.5 -25 -117.5 -25zM267.001 70.999c39.333 0 71.333 11.167 96 33.5s40.334 54.166 47.001 95.499l52 330
c6.66699 41.333 1.16699 73.166 -16.5 95.499s-46.167 33.5 -85.5 33.5c-38.667 0 -70.334 -11.167 -95.001 -33.5s-40.334 -54.166 -47.001 -95.499l-52 -330c-6.66699 -41.333 -1.16699 -73.166 16.5 -95.499s45.834 -33.5 84.501 -33.5z" />
    <glyph glyph-name="Ugrave" unicode="&#xd9;" 
d="M254 -10c-68 0 -117.001 18.833 -147.001 56.5s-39.667 88.834 -29 153.501l84 530h90l-84 -530c-6.66699 -40 -2 -71.667 14 -95s44.333 -35 85 -35c40 0 71.833 11.667 95.5 35s38.834 55 45.501 95l84 530h90l-84 -530c-6.66699 -43.333 -20.667 -80.833 -42 -112.5
s-48.833 -55.834 -82.5 -72.501s-73.5 -25 -119.5 -25zM353.999 810l-93 140h94l88 -140h-89z" />
    <glyph glyph-name="Uacute" unicode="&#xda;" 
d="M254 -10c-68 0 -117.001 18.833 -147.001 56.5s-39.667 88.834 -29 153.501l84 530h90l-84 -530c-6.66699 -40 -2 -71.667 14 -95s44.333 -35 85 -35c40 0 71.833 11.667 95.5 35s38.834 55 45.501 95l84 530h90l-84 -530c-6.66699 -43.333 -20.667 -80.833 -42 -112.5
s-48.833 -55.834 -82.5 -72.501s-73.5 -25 -119.5 -25zM322.999 810l128 140h102l-133 -140h-97z" />
    <glyph glyph-name="Ucircumflex" unicode="&#xdb;" 
d="M254 -10c-68 0 -117.001 18.833 -147.001 56.5s-39.667 88.834 -29 153.501l84 530h90l-84 -530c-6.66699 -40 -2 -71.667 14 -95s44.333 -35 85 -35c40 0 71.833 11.667 95.5 35s38.834 55 45.501 95l84 530h90l-84 -530c-6.66699 -43.333 -20.667 -80.833 -42 -112.5
s-48.833 -55.834 -82.5 -72.501s-73.5 -25 -119.5 -25zM202.999 810l161 140h83l118 -140h-97l-69 78l-93 -78h-103z" />
    <glyph glyph-name="Udieresis" unicode="&#xdc;" 
d="M254 -10c-68 0 -117.001 18.833 -147.001 56.5s-39.667 88.834 -29 153.501l84 530h90l-84 -530c-6.66699 -40 -2 -71.667 14 -95s44.333 -35 85 -35c40 0 71.833 11.667 95.5 35s38.834 55 45.501 95l84 530h90l-84 -530c-6.66699 -43.333 -20.667 -80.833 -42 -112.5
s-48.833 -55.834 -82.5 -72.501s-73.5 -25 -119.5 -25zM495.999 817c-19.333 0 -33.833 5.66699 -43.5 17s-13.167 26.666 -10.5 45.999c3.33301 20 11.833 35.833 25.5 47.5s30.167 17.5 49.5 17.5s33.833 -5.83301 43.5 -17.5s12.834 -27.5 9.50098 -47.5
c-2.66699 -19.333 -10.834 -34.666 -24.501 -45.999s-30.167 -17 -49.5 -17zM273.999 817c-19.333 0 -33.833 5.66699 -43.5 17s-13.167 26.666 -10.5 45.999c3.33301 20 11.833 35.833 25.5 47.5s30.167 17.5 49.5 17.5s33.833 -5.83301 43.5 -17.5
s12.834 -27.5 9.50098 -47.5c-2.66699 -19.333 -10.834 -34.666 -24.501 -45.999s-30.167 -17 -49.5 -17z" />
    <glyph glyph-name="Yacute" unicode="&#xdd;" 
d="M211 0l43 273l-147 457h91l97 -300c5.33301 -16.667 9.5 -30.834 12.5 -42.501s4.83301 -20.167 5.5 -25.5c2.66699 5.33301 7.16699 13.833 13.5 25.5s14.833 25.834 25.5 42.501l190 300h95l-293 -457l-43 -273h-90zM323 810l128 140h102l-133 -140h-97z" />
    <glyph glyph-name="Thorn" unicode="&#xde;" 
d="M46 0l115.999 730h90l-24 -150h153c65.333 0 114.833 -18.333 148.5 -55s45.834 -85 36.501 -145c-6 -40.667 -20.333 -76 -43 -106s-51.5 -53.167 -86.5 -69.5s-74.5 -24.5 -118.5 -24.5h-153l-29 -180h-90zM176.999 260h153c38.667 0 70.667 10.833 96 32.5
s41 50.834 47 87.501c6 37.333 -0.5 66.666 -19.5 87.999s-47.5 32 -85.5 32h-153z" />
    <glyph glyph-name="germandbls" unicode="&#xdf;" 
d="M-132 -180l13 81.998h70c28 0 49.667 6.33301 65 19s25 32.334 29 59.001l88 554c6.66699 41.333 21.167 77.5 43.5 108.5s50.5 55 84.5 72s72.333 25.5 115 25.5s78.834 -7.16699 108.501 -21.5s51.334 -35.333 65.001 -63s17.167 -61.5 10.5 -101.5
c-5.33301 -33.333 -17.333 -63 -36 -89s-42.334 -46.333 -71.001 -61s-60.667 -21.667 -96 -21l2 15c38.667 0.666992 70.834 -6.66602 96.501 -21.999s44.167 -37.333 55.5 -66s14 -62.667 8 -102c-6.66699 -40.667 -21.334 -76.667 -44.001 -108
s-51.5 -55.833 -86.5 -73.5s-74.167 -26.5 -117.5 -26.5h-66l13 82h56c40 0 73.5 11.833 100.5 35.5s43.5 54.834 49.5 93.501c6.66699 38.667 0.166992 69 -19.5 91s-49.834 33 -90.501 33h-44l12 78h42c37.333 0 68.5 11.667 93.5 35s40.167 52.666 45.5 87.999
c6 38.667 0 68.667 -18 90s-45.333 32 -82 32s-67.667 -11 -93 -33s-41 -52.333 -47 -91l-88 -554c-8 -49.333 -29.5 -88.333 -64.5 -117s-79.5 -43 -133.5 -43h-69z" />
    <glyph glyph-name="agrave" unicode="&#xe0;" 
d="M223 -10c-54.667 0 -95.335 18.332 -122.002 54.999s-35 86.334 -25 149.001l25 161c6.66699 42.667 19.834 79.167 39.501 109.5s44.334 53.833 74.001 70.5s62.834 25 99.501 25c45.333 0 79.666 -12.333 102.999 -37s31.666 -57.667 24.999 -99l-15 21h20l15 105h90
l-87 -550h-90l17 105h-18l21 21c-6.66699 -42 -25.667 -75.167 -57 -99.5s-69.666 -36.5 -114.999 -36.5zM265.999 67.999c37.333 0 68.5 11.6709 93.5 35.0039s40.833 55.666 47.5 96.999l23 150c7.33301 41.333 2 73.666 -16 96.999s-45.667 35 -83 35
c-38 0 -69.167 -11.333 -93.5 -34s-40.166 -55.334 -47.499 -98.001l-23 -150c-6.66699 -42.667 -1.33398 -75.334 15.999 -98.001s45 -34 83 -34zM332.999 645.003l-93 140h94l88 -140h-89z" />
    <glyph glyph-name="aacute" unicode="&#xe1;" 
d="M223 -10c-54.667 0 -95.335 18.332 -122.002 54.999s-35 86.334 -25 149.001l25 161c6.66699 42.667 19.834 79.167 39.501 109.5s44.334 53.833 74.001 70.5s62.834 25 99.501 25c45.333 0 79.666 -12.333 102.999 -37s31.666 -57.667 24.999 -99l-15 21h20l15 105h90
l-87 -550h-90l17 105h-18l21 21c-6.66699 -42 -25.667 -75.167 -57 -99.5s-69.666 -36.5 -114.999 -36.5zM265.999 67.999c37.333 0 68.5 11.6709 93.5 35.0039s40.833 55.666 47.5 96.999l23 150c7.33301 41.333 2 73.666 -16 96.999s-45.667 35 -83 35
c-38 0 -69.167 -11.333 -93.5 -34s-40.166 -55.334 -47.499 -98.001l-23 -150c-6.66699 -42.667 -1.33398 -75.334 15.999 -98.001s45 -34 83 -34zM301.999 645.003l128 140h102l-133 -140h-97z" />
    <glyph glyph-name="acircumflex" unicode="&#xe2;" 
d="M223 -10c-54.667 0 -95.335 18.332 -122.002 54.999s-35 86.334 -25 149.001l25 161c6.66699 42.667 19.834 79.167 39.501 109.5s44.334 53.833 74.001 70.5s62.834 25 99.501 25c45.333 0 79.666 -12.333 102.999 -37s31.666 -57.667 24.999 -99l-15 21h20l15 105h90
l-87 -550h-90l17 105h-18l21 21c-6.66699 -42 -25.667 -75.167 -57 -99.5s-69.666 -36.5 -114.999 -36.5zM265.999 67.999c37.333 0 68.5 11.6709 93.5 35.0039s40.833 55.666 47.5 96.999l23 150c7.33301 41.333 2 73.666 -16 96.999s-45.667 35 -83 35
c-38 0 -69.167 -11.333 -93.5 -34s-40.166 -55.334 -47.499 -98.001l-23 -150c-6.66699 -42.667 -1.33398 -75.334 15.999 -98.001s45 -34 83 -34zM181.999 645.003l161 140h83l118 -140h-97l-69 78l-93 -78h-103z" />
    <glyph glyph-name="atilde" unicode="&#xe3;" 
d="M223 -10c-54.667 0 -95.335 18.332 -122.002 54.999s-35 86.334 -25 149.001l25 161c6.66699 42.667 19.834 79.167 39.501 109.5s44.334 53.833 74.001 70.5s62.834 25 99.501 25c45.333 0 79.666 -12.333 102.999 -37s31.666 -57.667 24.999 -99l-15 21h20l15 105h90
l-87 -550h-90l17 105h-18l21 21c-6.66699 -42 -25.667 -75.167 -57 -99.5s-69.666 -36.5 -114.999 -36.5zM265.999 67.999c37.333 0 68.5 11.6709 93.5 35.0039s40.833 55.666 47.5 96.999l23 150c7.33301 41.333 2 73.666 -16 96.999s-45.667 35 -83 35
c-38 0 -69.167 -11.333 -93.5 -34s-40.166 -55.334 -47.499 -98.001l-23 -150c-6.66699 -42.667 -1.33398 -75.334 15.999 -98.001s45 -34 83 -34zM433.999 650.003c-20 0 -35.665 3.5 -46.998 10.5s-20.666 15.167 -27.999 24.5s-14.5 17.5 -21.5 24.5
s-16.167 10.5 -27.5 10.5c-8.66699 0 -16.334 -2.83301 -23.001 -8.5s-11 -14.5 -13 -26.5l-4 -30h-65l4 30c5.33301 30 17.666 53.333 36.999 70s42.333 25 69 25c20 0 35.667 -3.5 47 -10.5s20.5 -15.167 27.5 -24.5s14 -17.5 21 -24.5s16.167 -10.5 27.5 -10.5
c9.33301 0 17.166 2.83301 23.499 8.5s10.5 14.5 12.5 26.5l5 30h65l-5 -30c-4.66699 -30 -16.5 -53.333 -35.5 -70s-42.167 -25 -69.5 -25z" />
    <glyph glyph-name="adieresis" unicode="&#xe4;" 
d="M223 -10c-54.667 0 -95.335 18.332 -122.002 54.999s-35 86.334 -25 149.001l25 161c6.66699 42.667 19.834 79.167 39.501 109.5s44.334 53.833 74.001 70.5s62.834 25 99.501 25c45.333 0 79.666 -12.333 102.999 -37s31.666 -57.667 24.999 -99l-15 21h20l15 105h90
l-87 -550h-90l17 105h-18l21 21c-6.66699 -42 -25.667 -75.167 -57 -99.5s-69.666 -36.5 -114.999 -36.5zM265.999 67.999c37.333 0 68.5 11.6709 93.5 35.0039s40.833 55.666 47.5 96.999l23 150c7.33301 41.333 2 73.666 -16 96.999s-45.667 35 -83 35
c-38 0 -69.167 -11.333 -93.5 -34s-40.166 -55.334 -47.499 -98.001l-23 -150c-6.66699 -42.667 -1.33398 -75.334 15.999 -98.001s45 -34 83 -34zM474.999 649.003c-19.333 0 -33.8301 5.66699 -43.4971 17s-13.167 26.666 -10.5 45.999
c3.33301 20 11.666 35.833 24.999 47.5s29.666 17.5 48.999 17.5s34 -5.83301 44 -17.5s13.333 -27.5 10 -47.5c-2.66699 -19.333 -10.834 -34.666 -24.501 -45.999s-30.167 -17 -49.5 -17zM253.002 649.003c-19.333 0 -33.8301 5.66699 -43.4971 17
s-13.167 26.666 -10.5 45.999c3.33301 20 11.666 35.833 24.999 47.5s29.666 17.5 48.999 17.5s34 -5.83301 44 -17.5s13.333 -27.5 10 -47.5c-2.66699 -19.333 -10.834 -34.666 -24.501 -45.999s-30.167 -17 -49.5 -17z" />
    <glyph glyph-name="aring" unicode="&#xe5;" 
d="M223 -10c-54.667 0 -95.335 18.332 -122.002 54.999s-35 86.334 -25 149.001l25 161c6.66699 42.667 19.834 79.167 39.501 109.5s44.334 53.833 74.001 70.5s62.834 25 99.501 25c45.333 0 79.666 -12.333 102.999 -37s31.666 -57.667 24.999 -99l-15 21h20l15 105h90
l-87 -550h-90l17 105h-18l21 21c-6.66699 -42 -25.667 -75.167 -57 -99.5s-69.666 -36.5 -114.999 -36.5zM265.999 67.999c37.333 0 68.5 11.6709 93.5 35.0039s40.833 55.666 47.5 96.999l23 150c7.33301 41.333 2 73.666 -16 96.999s-45.667 35 -83 35
c-38 0 -69.167 -11.333 -93.5 -34s-40.166 -55.334 -47.499 -98.001l-23 -150c-6.66699 -42.667 -1.33398 -75.334 15.999 -98.001s45 -34 83 -34zM356.999 608.003c-36 0 -63.167 10.5 -81.5 31.5s-25.166 48.5 -20.499 82.5c5.33301 34 20.666 61.5 45.999 82.5
s56 31.5 92 31.5s63.333 -10.5 82 -31.5s25.334 -48.5 20.001 -82.5c-4.66699 -34 -19.834 -61.5 -45.501 -82.5s-56.5 -31.5 -92.5 -31.5zM365.999 661.003c18 0 33.333 5.5 46 16.5s20.334 25.833 23.001 44.5c3.33301 18.667 0.333008 33.667 -9 45s-23 17 -41 17
s-33.333 -5.66699 -46 -17s-20.667 -26.333 -24 -45c-2.66699 -18.667 0.666016 -33.5 9.99902 -44.5s23 -16.5 41 -16.5z" />
    <glyph glyph-name="ae" unicode="&#xe6;" 
d="M124 -10c-41.333 0 -72 12.6689 -92 38.002s-26.667 59.333 -20 102l9 60c6.66699 41.333 25.667 74.166 57 98.499s70.333 36.5 117 36.5h74l12 74c4.66699 29.333 2.66699 50.666 -6 63.999s-24.667 20 -48 20c-18.667 0 -34.5 -5.66699 -47.5 -17
s-21.167 -26.666 -24.5 -45.999h-85c6.66699 42 24.167 75.833 52.5 101.5s62.5 38.5 102.5 38.5c26 0 46.833 -4.33301 62.5 -13s27.167 -19.167 34.5 -31.5s11 -24.166 11 -35.499h4c4 11.333 11.333 23.166 22 35.499s24.834 22.833 42.501 31.5s38.834 13 63.501 13
c45.333 0 78.5 -14.333 99.5 -43s27.5 -67.667 19.5 -117l-23 -145h-222l-16 -105c-4 -24.667 -1 -44.667 9 -60s25 -23 45 -23c21.333 0 39.166 5.66699 53.499 17s23.166 26.666 26.499 45.999h85c-6.66699 -42 -25.5 -75.833 -56.5 -101.5s-68.167 -38.5 -111.5 -38.5
c-24.667 0 -44.5 4.33301 -59.5 13s-25.833 19.167 -32.5 31.5s-10 24.166 -10 35.499h-4c-3.33301 -11.333 -11 -23.166 -23 -35.499s-28 -22.833 -48 -31.5s-44.333 -13 -73 -13zM157 67.002c21.333 0 39.833 7.66602 55.5 22.999s25.5 35.333 29.5 60l16 105h-72
c-20.667 0 -37.5 -5.83301 -50.5 -17.5s-21.167 -27.5 -24.5 -47.5l-9 -60c-3.33301 -19.333 0 -34.666 10 -45.999s25 -17 45 -17zM350 325.001h137l12 75c4 25.333 1 45.5 -9 60.5s-26 22.5 -48 22.5c-20.667 0 -38.167 -7.5 -52.5 -22.5s-23.5 -35.167 -27.5 -60.5z" />
    <glyph glyph-name="ccedilla" unicode="&#xe7;" 
d="M133 -203l8.99902 54.999h70c14.667 0 27 3.83301 37 11.5s15.667 15.834 17 24.501c2 11.333 -5.5 21.333 -22.5 30s-42.167 13 -75.5 13l50 95h57l-31 -61c17.333 -2 34.833 -6.33301 52.5 -13s31.834 -16 42.501 -28s14.667 -26.667 12 -44
c-3.33301 -22.667 -17.333 -42.167 -42 -58.5s-55 -24.5 -91 -24.5h-85zM257.999 -10.001c-44 0 -80.8311 8.33105 -110.498 24.998s-50.667 40.834 -63 72.501s-15.166 69.167 -8.49902 112.5l23 150c7.33301 44 22.166 81.667 44.499 113s51.166 55.333 86.499 72
s75 25 119 25c63.333 0 111.666 -17 144.999 -51s46.333 -80.333 39 -139h-90c3.33301 35.333 -4.33398 62.5 -23.001 81.5s-46.667 28.5 -84 28.5c-39.333 0 -71.833 -11.167 -97.5 -33.5s-41.834 -54.166 -48.501 -95.499l-24 -151
c-6.66699 -41.333 -0.666992 -73.333 18 -96s47.667 -34 87 -34c37.333 0 68.333 9.66699 93 29s41 46.333 49 81h90c-11.333 -58.667 -39.166 -105 -83.499 -139s-98.166 -51 -161.499 -51z" />
    <glyph glyph-name="egrave" unicode="&#xe8;" 
d="M254 -10c-43.333 0 -79.3311 8.66602 -107.998 25.999s-49.167 41.833 -61.5 73.5s-15.166 68.5 -8.49902 110.5l23 150c7.33301 42.667 22.166 79.667 44.499 111s50.666 55.666 84.999 72.999s73.166 26 116.499 26s79.5 -8.66699 108.5 -26s49.667 -41.666 62 -72.999
s14.833 -68.333 7.5 -111l-15 -97h-336l-8 -53c-6.66699 -43.333 -1.5 -76.5 15.5 -99.5s45.833 -34.5 86.5 -34.5c34.667 0 63.167 6.16699 85.5 18.5s37.833 30.833 46.5 55.5h90c-8.66699 -30.667 -24 -57.167 -46 -79.5s-49.167 -39.666 -81.5 -51.999
s-67.833 -18.5 -106.5 -18.5zM430.002 312.999l5.00098 37c7.33301 43.333 2.5 76.666 -14.5 99.999s-46.167 35 -87.5 35c-40.667 0 -73.334 -11.667 -98.001 -35s-40.667 -56.666 -48 -99.999l-4 -29h255zM328.003 644.999l-93 140h94l88 -140h-89z" />
    <glyph glyph-name="eacute" unicode="&#xe9;" 
d="M254 -10c-43.333 0 -79.3311 8.66602 -107.998 25.999s-49.167 41.833 -61.5 73.5s-15.166 68.5 -8.49902 110.5l23 150c7.33301 42.667 22.166 79.667 44.499 111s50.666 55.666 84.999 72.999s73.166 26 116.499 26s79.5 -8.66699 108.5 -26s49.667 -41.666 62 -72.999
s14.833 -68.333 7.5 -111l-15 -97h-336l-8 -53c-6.66699 -43.333 -1.5 -76.5 15.5 -99.5s45.833 -34.5 86.5 -34.5c34.667 0 63.167 6.16699 85.5 18.5s37.833 30.833 46.5 55.5h90c-8.66699 -30.667 -24 -57.167 -46 -79.5s-49.167 -39.666 -81.5 -51.999
s-67.833 -18.5 -106.5 -18.5zM430.002 312.999l5.00098 37c7.33301 43.333 2.5 76.666 -14.5 99.999s-46.167 35 -87.5 35c-40.667 0 -73.334 -11.667 -98.001 -35s-40.667 -56.666 -48 -99.999l-4 -29h255zM297.003 644.999l128 140h102l-133 -140h-97z" />
    <glyph glyph-name="ecircumflex" unicode="&#xea;" 
d="M254 -10c-43.333 0 -79.3311 8.66602 -107.998 25.999s-49.167 41.833 -61.5 73.5s-15.166 68.5 -8.49902 110.5l23 150c7.33301 42.667 22.166 79.667 44.499 111s50.666 55.666 84.999 72.999s73.166 26 116.499 26s79.5 -8.66699 108.5 -26s49.667 -41.666 62 -72.999
s14.833 -68.333 7.5 -111l-15 -97h-336l-8 -53c-6.66699 -43.333 -1.5 -76.5 15.5 -99.5s45.833 -34.5 86.5 -34.5c34.667 0 63.167 6.16699 85.5 18.5s37.833 30.833 46.5 55.5h90c-8.66699 -30.667 -24 -57.167 -46 -79.5s-49.167 -39.666 -81.5 -51.999
s-67.833 -18.5 -106.5 -18.5zM430.002 312.999l5.00098 37c7.33301 43.333 2.5 76.666 -14.5 99.999s-46.167 35 -87.5 35c-40.667 0 -73.334 -11.667 -98.001 -35s-40.667 -56.666 -48 -99.999l-4 -29h255zM177.003 644.999l161 140h83l118 -140h-97l-69 78l-93 -78h-103z
" />
    <glyph glyph-name="edieresis" unicode="&#xeb;" 
d="M254 -10c-43.333 0 -79.3311 8.66602 -107.998 25.999s-49.167 41.833 -61.5 73.5s-15.166 68.5 -8.49902 110.5l23 150c7.33301 42.667 22.166 79.667 44.499 111s50.666 55.666 84.999 72.999s73.166 26 116.499 26s79.5 -8.66699 108.5 -26s49.667 -41.666 62 -72.999
s14.833 -68.333 7.5 -111l-15 -97h-336l-8 -53c-6.66699 -43.333 -1.5 -76.5 15.5 -99.5s45.833 -34.5 86.5 -34.5c34.667 0 63.167 6.16699 85.5 18.5s37.833 30.833 46.5 55.5h90c-8.66699 -30.667 -24 -57.167 -46 -79.5s-49.167 -39.666 -81.5 -51.999
s-67.833 -18.5 -106.5 -18.5zM430.002 312.999l5.00098 37c7.33301 43.333 2.5 76.666 -14.5 99.999s-46.167 35 -87.5 35c-40.667 0 -73.334 -11.667 -98.001 -35s-40.667 -56.666 -48 -99.999l-4 -29h255zM470.003 648.999c-19.333 0 -33.8301 5.66699 -43.4971 17
s-13.167 26.666 -10.5 45.999c3.33301 20 11.666 35.833 24.999 47.5s29.666 17.5 48.999 17.5s34 -5.83301 44 -17.5s13.333 -27.5 10 -47.5c-2.66699 -19.333 -10.834 -34.666 -24.501 -45.999s-30.167 -17 -49.5 -17zM248.006 648.999
c-19.333 0 -33.8301 5.66699 -43.4971 17s-13.167 26.666 -10.5 45.999c3.33301 20 11.666 35.833 24.999 47.5s29.666 17.5 48.999 17.5s34 -5.83301 44 -17.5s13.333 -27.5 10 -47.5c-2.66699 -19.333 -10.834 -34.666 -24.501 -45.999s-30.167 -17 -49.5 -17z" />
    <glyph glyph-name="igrave" unicode="&#xec;" 
d="M36 0l13 82h195l61 386h-170l13 82h260l-74 -468h185l-13 -82h-470zM343 645l-93 140h94l88 -140h-89z" />
    <glyph glyph-name="iacute" unicode="&#xed;" 
d="M36 0l13 82h195l61 386h-170l13 82h260l-74 -468h185l-13 -82h-470zM312 645l128 140h102l-133 -140h-97z" />
    <glyph glyph-name="icircumflex" unicode="&#xee;" 
d="M36 0l13 82h195l61 386h-170l13 82h260l-74 -468h185l-13 -82h-470zM192 645l161 140h83l118 -140h-97l-69 78l-93 -78h-103z" />
    <glyph glyph-name="idieresis" unicode="&#xef;" 
d="M36 0l13 82h195l61 386h-170l13 82h260l-74 -468h185l-13 -82h-470zM485 649c-19.333 0 -33.8301 5.66699 -43.4971 17s-13.167 26.666 -10.5 45.999c3.33301 20 11.666 35.833 24.999 47.5s29.666 17.5 48.999 17.5s34 -5.83301 44 -17.5s13.333 -27.5 10 -47.5
c-2.66699 -19.333 -10.834 -34.666 -24.501 -45.999s-30.167 -17 -49.5 -17zM263.003 649c-19.333 0 -33.8301 5.66699 -43.4971 17s-13.167 26.666 -10.5 45.999c3.33301 20 11.666 35.833 24.999 47.5s29.666 17.5 48.999 17.5s34 -5.83301 44 -17.5
s13.333 -27.5 10 -47.5c-2.66699 -19.333 -10.834 -34.666 -24.501 -45.999s-30.167 -17 -49.5 -17z" />
    <glyph glyph-name="eth" unicode="&#xf0;" 
d="M253 -10c-45.333 0 -83.665 9.33105 -114.998 27.998s-53.833 45 -67.5 79s-17.167 73.333 -10.5 118c7.33301 44.667 22.333 83.5 45 116.5s51.334 58.667 86.001 77s73 27.5 115 27.5c19.333 0 36.166 -3 50.499 -9s26.166 -13.333 35.499 -22s15.666 -17 18.999 -25
h14c-2 6.66699 -7 18.834 -15 36.501s-19 38.834 -33 63.501l-50 89l-176 -73l13 81l128 56l-55 97h95l34 -62l167 67l-12 -82l-120 -49l65 -111c24.667 -41.333 41.834 -86 51.501 -134s10.834 -93.333 3.50098 -136c-7.33301 -46.667 -23.333 -87.5 -48 -122.5
s-55.834 -62.167 -93.501 -81.5s-79.834 -29 -126.501 -29zM266.001 69.998c42.667 0 79.001 13.333 109.001 40s48.333 61.667 55 105c4.66699 29.333 2.83398 54.833 -5.49902 76.5s-22 38.5 -41 50.5s-42.833 18 -71.5 18c-41.333 0 -76.833 -13.333 -106.5 -40
s-48.167 -61.667 -55.5 -105c-6.66699 -43.333 0.666016 -78.333 21.999 -105s52.666 -40 93.999 -40z" />
    <glyph glyph-name="ntilde" unicode="&#xf1;" 
d="M48 0l86.999 550h90l-17 -105h19l-22 -21c7.33301 43.333 25.833 76.833 55.5 100.5s67.5 35.5 113.5 35.5c55.333 0 96.666 -17 123.999 -51s36.333 -80.333 27 -139l-59 -370h-90l57 360c6 39.333 0.333008 69.833 -17 91.5s-44 32.5 -80 32.5
c-37.333 0 -68.666 -11.667 -93.999 -35s-41.666 -56.333 -48.999 -99l-55 -350h-90zM428.999 650c-20 0 -35.665 3.5 -46.998 10.5s-20.666 15.167 -27.999 24.5s-14.5 17.5 -21.5 24.5s-16.167 10.5 -27.5 10.5c-8.66699 0 -16.334 -2.83301 -23.001 -8.5
s-11 -14.5 -13 -26.5l-4 -30h-65l4 30c5.33301 30 17.666 53.333 36.999 70s42.333 25 69 25c20 0 35.667 -3.5 47 -10.5s20.5 -15.167 27.5 -24.5s14 -17.5 21 -24.5s16.167 -10.5 27.5 -10.5c9.33301 0 17.166 2.83301 23.499 8.5s10.5 14.5 12.5 26.5l5 30h65l-5 -30
c-4.66699 -30 -16.5 -53.333 -35.5 -70s-42.167 -25 -69.5 -25z" />
    <glyph glyph-name="ograve" unicode="&#xf2;" 
d="M254 -10c-43.333 0 -79.5 8.33203 -108.5 24.999s-49.5 40.834 -61.5 72.501s-14.667 69.167 -8 112.5l23 150c7.33301 44 22 81.667 44 113s50.333 55.333 85 72s73.667 25 117 25c44 0 80.333 -8.33301 109 -25s49.167 -40.667 61.5 -72
s15.166 -68.666 8.49902 -111.999l-24 -151c-6.66699 -43.333 -21.167 -80.833 -43.5 -112.5s-50.666 -55.834 -84.999 -72.501s-73.5 -25 -117.5 -25zM267 69.999c39.333 0 71.333 11 96 33s40.334 54.333 47.001 97l23 150c7.33301 42.667 2.16602 75 -15.501 97
s-46.167 33 -85.5 33c-38.667 0 -70.334 -11 -95.001 -33s-40.667 -54.333 -48 -97l-23 -150c-6.66699 -42.667 -1.16699 -75 16.5 -97s45.834 -33 84.501 -33zM328 644.999l-93 140h94l88 -140h-89z" />
    <glyph glyph-name="oacute" unicode="&#xf3;" 
d="M254 -10c-43.333 0 -79.5 8.33203 -108.5 24.999s-49.5 40.834 -61.5 72.501s-14.667 69.167 -8 112.5l23 150c7.33301 44 22 81.667 44 113s50.333 55.333 85 72s73.667 25 117 25c44 0 80.333 -8.33301 109 -25s49.167 -40.667 61.5 -72
s15.166 -68.666 8.49902 -111.999l-24 -151c-6.66699 -43.333 -21.167 -80.833 -43.5 -112.5s-50.666 -55.834 -84.999 -72.501s-73.5 -25 -117.5 -25zM267 69.999c39.333 0 71.333 11 96 33s40.334 54.333 47.001 97l23 150c7.33301 42.667 2.16602 75 -15.501 97
s-46.167 33 -85.5 33c-38.667 0 -70.334 -11 -95.001 -33s-40.667 -54.333 -48 -97l-23 -150c-6.66699 -42.667 -1.16699 -75 16.5 -97s45.834 -33 84.501 -33zM297 644.999l128 140h102l-133 -140h-97z" />
    <glyph glyph-name="ocircumflex" unicode="&#xf4;" 
d="M254 -10c-43.333 0 -79.5 8.33203 -108.5 24.999s-49.5 40.834 -61.5 72.501s-14.667 69.167 -8 112.5l23 150c7.33301 44 22 81.667 44 113s50.333 55.333 85 72s73.667 25 117 25c44 0 80.333 -8.33301 109 -25s49.167 -40.667 61.5 -72
s15.166 -68.666 8.49902 -111.999l-24 -151c-6.66699 -43.333 -21.167 -80.833 -43.5 -112.5s-50.666 -55.834 -84.999 -72.501s-73.5 -25 -117.5 -25zM267 69.999c39.333 0 71.333 11 96 33s40.334 54.333 47.001 97l23 150c7.33301 42.667 2.16602 75 -15.501 97
s-46.167 33 -85.5 33c-38.667 0 -70.334 -11 -95.001 -33s-40.667 -54.333 -48 -97l-23 -150c-6.66699 -42.667 -1.16699 -75 16.5 -97s45.834 -33 84.501 -33zM177 644.999l161 140h83l118 -140h-97l-69 78l-93 -78h-103z" />
    <glyph glyph-name="otilde" unicode="&#xf5;" 
d="M254 -10c-43.333 0 -79.5 8.33203 -108.5 24.999s-49.5 40.834 -61.5 72.501s-14.667 69.167 -8 112.5l23 150c7.33301 44 22 81.667 44 113s50.333 55.333 85 72s73.667 25 117 25c44 0 80.333 -8.33301 109 -25s49.167 -40.667 61.5 -72
s15.166 -68.666 8.49902 -111.999l-24 -151c-6.66699 -43.333 -21.167 -80.833 -43.5 -112.5s-50.666 -55.834 -84.999 -72.501s-73.5 -25 -117.5 -25zM267 69.999c39.333 0 71.333 11 96 33s40.334 54.333 47.001 97l23 150c7.33301 42.667 2.16602 75 -15.501 97
s-46.167 33 -85.5 33c-38.667 0 -70.334 -11 -95.001 -33s-40.667 -54.333 -48 -97l-23 -150c-6.66699 -42.667 -1.16699 -75 16.5 -97s45.834 -33 84.501 -33zM429 649.999c-20 0 -35.665 3.5 -46.998 10.5s-20.666 15.167 -27.999 24.5s-14.5 17.5 -21.5 24.5
s-16.167 10.5 -27.5 10.5c-8.66699 0 -16.334 -2.83301 -23.001 -8.5s-11 -14.5 -13 -26.5l-4 -30h-65l4 30c5.33301 30 17.666 53.333 36.999 70s42.333 25 69 25c20 0 35.667 -3.5 47 -10.5s20.5 -15.167 27.5 -24.5s14 -17.5 21 -24.5s16.167 -10.5 27.5 -10.5
c9.33301 0 17.166 2.83301 23.499 8.5s10.5 14.5 12.5 26.5l5 30h65l-5 -30c-4.66699 -30 -16.5 -53.333 -35.5 -70s-42.167 -25 -69.5 -25z" />
    <glyph glyph-name="odieresis" unicode="&#xf6;" 
d="M254 -10c-43.333 0 -79.5 8.33203 -108.5 24.999s-49.5 40.834 -61.5 72.501s-14.667 69.167 -8 112.5l23 150c7.33301 44 22 81.667 44 113s50.333 55.333 85 72s73.667 25 117 25c44 0 80.333 -8.33301 109 -25s49.167 -40.667 61.5 -72
s15.166 -68.666 8.49902 -111.999l-24 -151c-6.66699 -43.333 -21.167 -80.833 -43.5 -112.5s-50.666 -55.834 -84.999 -72.501s-73.5 -25 -117.5 -25zM267 69.999c39.333 0 71.333 11 96 33s40.334 54.333 47.001 97l23 150c7.33301 42.667 2.16602 75 -15.501 97
s-46.167 33 -85.5 33c-38.667 0 -70.334 -11 -95.001 -33s-40.667 -54.333 -48 -97l-23 -150c-6.66699 -42.667 -1.16699 -75 16.5 -97s45.834 -33 84.501 -33zM470 648.999c-19.333 0 -33.8301 5.66699 -43.4971 17s-13.167 26.666 -10.5 45.999
c3.33301 20 11.666 35.833 24.999 47.5s29.666 17.5 48.999 17.5s34 -5.83301 44 -17.5s13.333 -27.5 10 -47.5c-2.66699 -19.333 -10.834 -34.666 -24.501 -45.999s-30.167 -17 -49.5 -17zM248.003 648.999c-19.333 0 -33.8301 5.66699 -43.4971 17
s-13.167 26.666 -10.5 45.999c3.33301 20 11.666 35.833 24.999 47.5s29.666 17.5 48.999 17.5s34 -5.83301 44 -17.5s13.333 -27.5 10 -47.5c-2.66699 -19.333 -10.834 -34.666 -24.501 -45.999s-30.167 -17 -49.5 -17z" />
    <glyph glyph-name="divide" unicode="&#xf7;" 
d="M103 295l12 75h400l-12 -75h-400zM259 85c-19.333 0 -33.999 5.16699 -43.999 15.5s-13.667 24.833 -11 43.5c3.33301 18 11.666 32.667 24.999 44s29.666 17 48.999 17h20c19.333 0 34.333 -5.66699 45 -17s14.334 -26 11.001 -44c-2.66699 -18 -11 -32.333 -25 -43
s-30.667 -16 -50 -16h-20zM319.001 460c-19.333 0 -34.166 5.16699 -44.499 15.5s-14.166 24.833 -11.499 43.5c3.33301 18 11.833 32.667 25.5 44s30.167 17 49.5 17h20c19.333 0 34.166 -5.66699 44.499 -17s13.833 -26 10.5 -44
c-2.66699 -18 -10.834 -32.333 -24.501 -43s-30.167 -16 -49.5 -16h-20z" />
    <glyph glyph-name="oslash" unicode="&#xf8;" 
d="M-14 -30l535 620h93l-536 -620h-92zM254 -10c-43.333 0 -79.501 8.33203 -108.501 24.999s-49.5 40.834 -61.5 72.501s-14.667 69.167 -8 112.5l23 150c6.66699 44 21.167 81.667 43.5 113s50.833 55.333 85.5 72s73.667 25 117 25c44 0 80.5 -8.33301 109.5 -25
s49.667 -40.667 62 -72s14.833 -68.666 7.5 -111.999l-24 -151c-6.66699 -43.333 -21.167 -80.833 -43.5 -112.5s-50.666 -55.834 -84.999 -72.501s-73.5 -25 -117.5 -25zM266.999 69.999c40 0 73 11.5 99 34.5s42.333 54.833 49 95.5l23 150
c6.66699 41.333 0.666992 73.333 -18 96s-48 34 -88 34s-73 -11.333 -99 -34s-42.333 -54.667 -49 -96l-23 -150c-6.66699 -40.667 -0.666992 -72.5 18 -95.5s48 -34.5 88 -34.5z" />
    <glyph glyph-name="ugrave" unicode="&#xf9;" 
d="M253 -10c-63.333 0 -110.999 18.833 -142.999 56.5s-42.667 88.834 -32 153.501l55 350h90l-55 -350c-6.66699 -41.333 -1.16699 -73.5 16.5 -96.5s44.834 -34.5 81.501 -34.5c37.333 0 68.666 11.5 93.999 34.5s41.333 55.167 48 96.5l55 350h90l-55 -350
c-6.66699 -42.667 -21.334 -79.834 -44.001 -111.501s-51.167 -56 -85.5 -73s-72.833 -25.5 -115.5 -25.5zM328.001 645l-93 140h94l88 -140h-89z" />
    <glyph glyph-name="uacute" unicode="&#xfa;" 
d="M253 -10c-63.333 0 -110.999 18.833 -142.999 56.5s-42.667 88.834 -32 153.501l55 350h90l-55 -350c-6.66699 -41.333 -1.16699 -73.5 16.5 -96.5s44.834 -34.5 81.501 -34.5c37.333 0 68.666 11.5 93.999 34.5s41.333 55.167 48 96.5l55 350h90l-55 -350
c-6.66699 -42.667 -21.334 -79.834 -44.001 -111.501s-51.167 -56 -85.5 -73s-72.833 -25.5 -115.5 -25.5zM297.001 645l128 140h102l-133 -140h-97z" />
    <glyph glyph-name="ucircumflex" unicode="&#xfb;" 
d="M253 -10c-63.333 0 -110.999 18.833 -142.999 56.5s-42.667 88.834 -32 153.501l55 350h90l-55 -350c-6.66699 -41.333 -1.16699 -73.5 16.5 -96.5s44.834 -34.5 81.501 -34.5c37.333 0 68.666 11.5 93.999 34.5s41.333 55.167 48 96.5l55 350h90l-55 -350
c-6.66699 -42.667 -21.334 -79.834 -44.001 -111.501s-51.167 -56 -85.5 -73s-72.833 -25.5 -115.5 -25.5zM177.001 645l161 140h83l118 -140h-97l-69 78l-93 -78h-103z" />
    <glyph glyph-name="udieresis" unicode="&#xfc;" 
d="M253 -10c-63.333 0 -110.999 18.833 -142.999 56.5s-42.667 88.834 -32 153.501l55 350h90l-55 -350c-6.66699 -41.333 -1.16699 -73.5 16.5 -96.5s44.834 -34.5 81.501 -34.5c37.333 0 68.666 11.5 93.999 34.5s41.333 55.167 48 96.5l55 350h90l-55 -350
c-6.66699 -42.667 -21.334 -79.834 -44.001 -111.501s-51.167 -56 -85.5 -73s-72.833 -25.5 -115.5 -25.5zM470.001 649c-19.333 0 -33.8301 5.66699 -43.4971 17s-13.167 26.666 -10.5 45.999c3.33301 20 11.666 35.833 24.999 47.5s29.666 17.5 48.999 17.5
s34 -5.83301 44 -17.5s13.333 -27.5 10 -47.5c-2.66699 -19.333 -10.834 -34.666 -24.501 -45.999s-30.167 -17 -49.5 -17zM248.004 649c-19.333 0 -33.8301 5.66699 -43.4971 17s-13.167 26.666 -10.5 45.999c3.33301 20 11.666 35.833 24.999 47.5
s29.666 17.5 48.999 17.5s34 -5.83301 44 -17.5s13.333 -27.5 10 -47.5c-2.66699 -19.333 -10.834 -34.666 -24.501 -45.999s-30.167 -17 -49.5 -17z" />
    <glyph glyph-name="yacute" unicode="&#xfd;" 
d="M90 -180l13 81.999h175c28 0 49.667 6.33301 65 19s25 32.334 29 59.001l12 75l17 100h-19l22 21c-6.66699 -42.667 -25 -76 -55 -100s-68 -36 -114 -36c-54.667 0 -95.834 17 -123.501 51s-36.834 80.333 -27.501 139l51 320h90l-49 -310
c-6.66699 -38.667 -1.16699 -69 16.5 -91s44.5 -33 80.5 -33c37.333 0 68.833 11.667 94.5 35s41.834 56.333 48.501 99l47 300h90l-91 -570c-7.33301 -49.333 -28.666 -88.333 -63.999 -117s-80 -43 -134 -43h-174zM297 644.999l128 140h102l-133 -140h-97z" />
    <glyph glyph-name="thorn" unicode="&#xfe;" 
d="M14 -180l38 239h90l-38 -239h-90zM281 -10c-45.333 0 -79.666 12.167 -102.999 36.5s-31.666 57.5 -24.999 99.5l15 -21h-18l-17 -105h-90l116 730h90l-26 -160l-22 -125h20l-21 -21c6.66699 41.333 25.834 74.333 57.501 99s69.834 37 114.501 37
c55.333 0 96.166 -18.333 122.499 -55s34.5 -86.667 24.5 -150l-25 -161c-6.66699 -42 -19.834 -78.167 -39.501 -108.5s-44.334 -53.833 -74.001 -70.5s-62.834 -25 -99.501 -25zM264 68c38 0 69.333 11.3291 94 33.9961s40.334 55.334 47.001 98.001l23 150
c7.33301 42.667 2.16602 75.334 -15.501 98.001s-45.5 34 -83.5 34c-36.667 0 -67.5 -11.667 -92.5 -35s-41.167 -55.666 -48.5 -96.999l-23 -150c-6.66699 -41.333 -1 -73.666 17 -96.999s45.333 -35 82 -35z" />
    <glyph glyph-name="ydieresis" unicode="&#xff;" 
d="M90 -180l13 81.999h175c28 0 49.667 6.33301 65 19s25 32.334 29 59.001l12 75l17 100h-19l22 21c-6.66699 -42.667 -25 -76 -55 -100s-68 -36 -114 -36c-54.667 0 -95.834 17 -123.501 51s-36.834 80.333 -27.501 139l51 320h90l-49 -310
c-6.66699 -38.667 -1.16699 -69 16.5 -91s44.5 -33 80.5 -33c37.333 0 68.833 11.667 94.5 35s41.834 56.333 48.501 99l47 300h90l-91 -570c-7.33301 -49.333 -28.666 -88.333 -63.999 -117s-80 -43 -134 -43h-174zM470 648.999c-19.333 0 -33.8301 5.66699 -43.4971 17
s-13.167 26.666 -10.5 45.999c3.33301 20 11.666 35.833 24.999 47.5s29.666 17.5 48.999 17.5s34 -5.83301 44 -17.5s13.333 -27.5 10 -47.5c-2.66699 -19.333 -10.834 -34.666 -24.501 -45.999s-30.167 -17 -49.5 -17zM248.003 648.999
c-19.333 0 -33.8301 5.66699 -43.4971 17s-13.167 26.666 -10.5 45.999c3.33301 20 11.666 35.833 24.999 47.5s29.666 17.5 48.999 17.5s34 -5.83301 44 -17.5s13.333 -27.5 10 -47.5c-2.66699 -19.333 -10.834 -34.666 -24.501 -45.999s-30.167 -17 -49.5 -17z" />
    <glyph glyph-name="Amacron" unicode="&#x100;" 
d="M6 0l306 730h121l73 -730h-88l-17 194h-221l-79 -194h-95zM210 270l183.999 -0.000976562l-21 225c-3.33301 42.667 -5.83301 78.334 -7.5 107.001s-2.5 47.334 -2.5 56.001c-2.66699 -8.66699 -9.16699 -27.334 -19.5 -56.001s-24.166 -64 -41.499 -106z
M228.999 839.999l12 75h320l-12 -75h-320z" />
    <glyph glyph-name="amacron" unicode="&#x101;" 
d="M223 -10c-54.667 0 -95.335 18.332 -122.002 54.999s-35 86.334 -25 149.001l25 161c6.66699 42.667 19.834 79.167 39.501 109.5s44.334 53.833 74.001 70.5s62.834 25 99.501 25c45.333 0 79.666 -12.333 102.999 -37s31.666 -57.667 24.999 -99l-15 21h20l15 105h90
l-87 -550h-90l17 105h-18l21 21c-6.66699 -42 -25.667 -75.167 -57 -99.5s-69.666 -36.5 -114.999 -36.5zM265.999 67.999c37.333 0 68.5 11.6709 93.5 35.0039s40.833 55.666 47.5 96.999l23 150c7.33301 41.333 2 73.666 -16 96.999s-45.667 35 -83 35
c-38 0 -69.167 -11.333 -93.5 -34s-40.166 -55.334 -47.499 -98.001l-23 -150c-6.66699 -42.667 -1.33398 -75.334 15.999 -98.001s45 -34 83 -34zM206.999 670.003l12 75h320l-12 -75h-320z" />
    <glyph glyph-name="Abreve" unicode="&#x102;" 
d="M6 0l306 730h121l73 -730h-88l-17 194h-221l-79 -194h-95zM210 270l183.999 -0.000976562l-21 225c-3.33301 42.667 -5.83301 78.334 -7.5 107.001s-2.5 47.334 -2.5 56.001c-2.66699 -8.66699 -9.16699 -27.334 -19.5 -56.001s-24.166 -64 -41.499 -106z
M382.999 804.999c-48 0 -84.5 13.333 -109.5 40s-34.167 61.667 -27.5 105h70c-4 -26 0.833008 -47 14.5 -63s33.834 -24 60.501 -24c27.333 0 50.333 8 69 24s30 37 34 63h72c-6.66699 -43.333 -26.834 -78.333 -60.501 -105s-74.5 -40 -122.5 -40z" />
    <glyph glyph-name="abreve" unicode="&#x103;" 
d="M223 -10c-54.667 0 -95.335 18.332 -122.002 54.999s-35 86.334 -25 149.001l25 161c6.66699 42.667 19.834 79.167 39.501 109.5s44.334 53.833 74.001 70.5s62.834 25 99.501 25c45.333 0 79.666 -12.333 102.999 -37s31.666 -57.667 24.999 -99l-15 21h20l15 105h90
l-87 -550h-90l17 105h-18l21 21c-6.66699 -42 -25.667 -75.167 -57 -99.5s-69.666 -36.5 -114.999 -36.5zM265.999 67.999c37.333 0 68.5 11.6709 93.5 35.0039s40.833 55.666 47.5 96.999l23 150c7.33301 41.333 2 73.666 -16 96.999s-45.667 35 -83 35
c-38 0 -69.167 -11.333 -93.5 -34s-40.166 -55.334 -47.499 -98.001l-23 -150c-6.66699 -42.667 -1.33398 -75.334 15.999 -98.001s45 -34 83 -34zM361.999 640.003c-48 0 -84.5 13.333 -109.5 40s-34.167 61.667 -27.5 105h70c-4 -26 0.833008 -47 14.5 -63
s33.834 -24 60.501 -24c27.333 0 50.333 8 69 24s30 37 34 63h72c-6.66699 -43.333 -26.834 -78.333 -60.501 -105s-74.5 -40 -122.5 -40z" />
    <glyph glyph-name="Aogonek" unicode="&#x104;" 
d="M431 -203c-36.667 0 -64.835 8.83301 -84.502 26.5s-27.167 39.834 -22.5 66.501c3.33301 19.333 12.833 38.666 28.5 57.999s40.834 40 75.501 62h75l-13 -9c-25.333 -18.667 -44.166 -35.5 -56.499 -50.5s-19.833 -29.5 -22.5 -43.5
c-2 -14.667 1.16699 -26.667 9.5 -36s20.833 -14 37.5 -14h60l-9 -60h-78zM5.99902 0l306 730h121l73 -730h-88l-17 194h-221l-79 -194h-95zM209.999 270l183.999 -0.000976562l-21 225c-3.33301 42.667 -5.83301 78.334 -7.5 107.001s-2.5 47.334 -2.5 56.001
c-2.66699 -8.66699 -9.16699 -27.334 -19.5 -56.001s-24.166 -64 -41.499 -106z" />
    <glyph glyph-name="aogonek" unicode="&#x105;" 
d="M405 -203c-36.667 0 -64.835 8.83398 -84.502 26.501s-27.167 39.834 -22.5 66.501c3.33301 19.333 12.833 38.666 28.5 57.999s40.834 40 75.501 62l62 -10c-25.333 -18.667 -44.166 -35.334 -56.499 -50.001s-19.833 -29 -22.5 -43c-2 -14.667 1.16699 -26.667 9.5 -36
s20.833 -14 37.5 -14h60l-9 -60h-78zM222.999 -9.99902c-54.667 0 -95.335 18.332 -122.002 54.999s-35 86.334 -25 149.001l25 161c6.66699 42.667 19.834 79.167 39.501 109.5s44.334 53.833 74.001 70.5s62.834 25 99.501 25c45.333 0 79.666 -12.333 102.999 -37
s31.666 -57.667 24.999 -99l-15 21h20l15 105h90l-87 -550h-90l17 105h-18l21 21c-6.66699 -42 -25.667 -75.167 -57 -99.5s-69.666 -36.5 -114.999 -36.5zM265.998 68c37.333 0 68.5 11.6709 93.5 35.0039s40.833 55.666 47.5 96.999l23 150
c7.33301 41.333 2 73.666 -16 96.999s-45.667 35 -83 35c-38 0 -69.167 -11.333 -93.5 -34s-40.166 -55.334 -47.499 -98.001l-23 -150c-6.66699 -42.667 -1.33398 -75.334 15.999 -98.001s45 -34 83 -34z" />
    <glyph glyph-name="Cacute" unicode="&#x106;" 
d="M258 -10c-44 0 -80.8311 8.33301 -110.498 25s-50.667 40.834 -63 72.501s-15.166 69.167 -8.49902 112.5l52 330c7.33301 44 22.166 81.667 44.499 113s51 55.333 86 72s74.5 25 118.5 25s80.5 -8.5 109.5 -25.5s49.833 -41.167 62.5 -72.5s15.667 -68.666 9 -111.999
h-90c6.66699 41.333 0.833984 73.166 -17.499 95.499s-47.166 33.5 -86.499 33.5s-71.833 -11 -97.5 -33s-41.834 -53.667 -48.501 -95l-52 -331c-6.66699 -41.333 -0.666992 -73.166 18 -95.499s47.667 -33.5 87 -33.5s71.666 11.167 96.999 33.5s41.333 54.166 48 95.499
h90c-6.66699 -42.667 -21.334 -79.834 -44.001 -111.501s-51.334 -56 -86.001 -73s-74 -25.5 -118 -25.5zM328.002 810l128 140h102l-133 -140h-97z" />
    <glyph glyph-name="cacute" unicode="&#x107;" 
d="M258 -10c-44 0 -80.8311 8.33105 -110.498 24.998s-50.667 40.834 -63 72.501s-15.166 69.167 -8.49902 112.5l23 150c7.33301 44 22.166 81.667 44.499 113s51.166 55.333 86.499 72s75 25 119 25c63.333 0 111.666 -17 144.999 -51s46.333 -80.333 39 -139h-90
c3.33301 35.333 -4.33398 62.5 -23.001 81.5s-46.667 28.5 -84 28.5c-39.333 0 -71.833 -11.167 -97.5 -33.5s-41.834 -54.166 -48.501 -95.499l-24 -151c-6.66699 -41.333 -0.666992 -73.333 18 -96s47.667 -34 87 -34c37.333 0 68.333 9.66699 93 29s41 46.333 49 81h90
c-11.333 -58.667 -39.166 -105 -83.499 -139s-98.166 -51 -161.499 -51zM301.002 644.998l128 140h102l-133 -140h-97z" />
    <glyph glyph-name="Ccircumflex" unicode="&#x108;" 
d="M258 -10c-44 0 -80.8311 8.33301 -110.498 25s-50.667 40.834 -63 72.501s-15.166 69.167 -8.49902 112.5l52 330c7.33301 44 22.166 81.667 44.499 113s51 55.333 86 72s74.5 25 118.5 25s80.5 -8.5 109.5 -25.5s49.833 -41.167 62.5 -72.5s15.667 -68.666 9 -111.999
h-90c6.66699 41.333 0.833984 73.166 -17.499 95.499s-47.166 33.5 -86.499 33.5s-71.833 -11 -97.5 -33s-41.834 -53.667 -48.501 -95l-52 -331c-6.66699 -41.333 -0.666992 -73.166 18 -95.499s47.667 -33.5 87 -33.5s71.666 11.167 96.999 33.5s41.333 54.166 48 95.499
h90c-6.66699 -42.667 -21.334 -79.834 -44.001 -111.501s-51.334 -56 -86.001 -73s-74 -25.5 -118 -25.5zM208.002 810l161 140h83l118 -140h-97l-69 78l-93 -78h-103z" />
    <glyph glyph-name="ccircumflex" unicode="&#x109;" 
d="M258 -10c-44 0 -80.8311 8.33105 -110.498 24.998s-50.667 40.834 -63 72.501s-15.166 69.167 -8.49902 112.5l23 150c7.33301 44 22.166 81.667 44.499 113s51.166 55.333 86.499 72s75 25 119 25c63.333 0 111.666 -17 144.999 -51s46.333 -80.333 39 -139h-90
c3.33301 35.333 -4.33398 62.5 -23.001 81.5s-46.667 28.5 -84 28.5c-39.333 0 -71.833 -11.167 -97.5 -33.5s-41.834 -54.166 -48.501 -95.499l-24 -151c-6.66699 -41.333 -0.666992 -73.333 18 -96s47.667 -34 87 -34c37.333 0 68.333 9.66699 93 29s41 46.333 49 81h90
c-11.333 -58.667 -39.166 -105 -83.499 -139s-98.166 -51 -161.499 -51zM177.002 644.998l161 140h83l118 -140h-97l-69 78l-93 -78h-103z" />
    <glyph glyph-name="Cdotaccent" unicode="&#x10a;" 
d="M258 -10c-44 0 -80.8311 8.33301 -110.498 25s-50.667 40.834 -63 72.501s-15.166 69.167 -8.49902 112.5l52 330c7.33301 44 22.166 81.667 44.499 113s51 55.333 86 72s74.5 25 118.5 25s80.5 -8.5 109.5 -25.5s49.833 -41.167 62.5 -72.5s15.667 -68.666 9 -111.999
h-90c6.66699 41.333 0.833984 73.166 -17.499 95.499s-47.166 33.5 -86.499 33.5s-71.833 -11 -97.5 -33s-41.834 -53.667 -48.501 -95l-52 -331c-6.66699 -41.333 -0.666992 -73.166 18 -95.499s47.667 -33.5 87 -33.5s71.666 11.167 96.999 33.5s41.333 54.166 48 95.499
h90c-6.66699 -42.667 -21.334 -79.834 -44.001 -111.501s-51.334 -56 -86.001 -73s-74 -25.5 -118 -25.5zM390.002 816c-22 0 -38.333 5.83301 -49 17.5s-14.667 27.167 -12 46.5c3.33301 19.333 12.333 34.833 27 46.5s33 17.5 55 17.5s38.333 -5.83301 49 -17.5
s14.334 -27.167 11.001 -46.5c-2.66699 -19.333 -11.334 -34.833 -26.001 -46.5s-33 -17.5 -55 -17.5z" />
    <glyph glyph-name="cdotaccent" unicode="&#x10b;" 
d="M258 -10c-44 0 -80.8311 8.33105 -110.498 24.998s-50.667 40.834 -63 72.501s-15.166 69.167 -8.49902 112.5l23 150c7.33301 44 22.166 81.667 44.499 113s51.166 55.333 86.499 72s75 25 119 25c63.333 0 111.666 -17 144.999 -51s46.333 -80.333 39 -139h-90
c3.33301 35.333 -4.33398 62.5 -23.001 81.5s-46.667 28.5 -84 28.5c-39.333 0 -71.833 -11.167 -97.5 -33.5s-41.834 -54.166 -48.501 -95.499l-24 -151c-6.66699 -41.333 -0.666992 -73.333 18 -96s47.667 -34 87 -34c37.333 0 68.333 9.66699 93 29s41 46.333 49 81h90
c-11.333 -58.667 -39.166 -105 -83.499 -139s-98.166 -51 -161.499 -51zM359.002 648.998c-22 0 -38.3311 5.66699 -48.998 17s-14.667 26.666 -12 45.999c3.33301 20 12.166 35.833 26.499 47.5s32.5 17.5 54.5 17.5s38.5 -5.83301 49.5 -17.5s14.833 -27.5 11.5 -47.5
c-2.66699 -19.333 -11.334 -34.666 -26.001 -45.999s-33 -17 -55 -17z" />
    <glyph glyph-name="Ccaron" unicode="&#x10c;" 
d="M258 -10c-44 0 -80.8311 8.33301 -110.498 25s-50.667 40.834 -63 72.501s-15.166 69.167 -8.49902 112.5l52 330c7.33301 44 22.166 81.667 44.499 113s51 55.333 86 72s74.5 25 118.5 25s80.5 -8.5 109.5 -25.5s49.833 -41.167 62.5 -72.5s15.667 -68.666 9 -111.999
h-90c6.66699 41.333 0.833984 73.166 -17.499 95.499s-47.166 33.5 -86.499 33.5s-71.833 -11 -97.5 -33s-41.834 -53.667 -48.501 -95l-52 -331c-6.66699 -41.333 -0.666992 -73.166 18 -95.499s47.667 -33.5 87 -33.5s71.666 11.167 96.999 33.5s41.333 54.166 48 95.499
h90c-6.66699 -42.667 -21.334 -79.834 -44.001 -111.501s-51.334 -56 -86.001 -73s-74 -25.5 -118 -25.5zM348.002 810l-118 140h97l70 -78l92 78h103l-161 -140h-83z" />
    <glyph glyph-name="ccaron" unicode="&#x10d;" 
d="M258 -10c-44 0 -80.8311 8.33105 -110.498 24.998s-50.667 40.834 -63 72.501s-15.166 69.167 -8.49902 112.5l23 150c7.33301 44 22.166 81.667 44.499 113s51.166 55.333 86.499 72s75 25 119 25c63.333 0 111.666 -17 144.999 -51s46.333 -80.333 39 -139h-90
c3.33301 35.333 -4.33398 62.5 -23.001 81.5s-46.667 28.5 -84 28.5c-39.333 0 -71.833 -11.167 -97.5 -33.5s-41.834 -54.166 -48.501 -95.499l-24 -151c-6.66699 -41.333 -0.666992 -73.333 18 -96s47.667 -34 87 -34c37.333 0 68.333 9.66699 93 29s41 46.333 49 81h90
c-11.333 -58.667 -39.166 -105 -83.499 -139s-98.166 -51 -161.499 -51zM322.002 644.998l-118 140h97l70 -78l92 78h103l-161 -140h-83z" />
    <glyph glyph-name="Dcaron" unicode="&#x10e;" 
d="M48 0l115.996 730.001h189c47.333 0 86.833 -9 118.5 -27s54.334 -43.333 68.001 -76s16.834 -71.334 9.50098 -116.001l-46 -291c-6.66699 -44.667 -22.167 -83.5 -46.5 -116.5s-55.166 -58.5 -92.499 -76.5s-79.666 -27 -126.999 -27h-189zM150.996 80.001h99
c44 0 80.5 12.333 109.5 37s46.833 59 53.5 103l46 291c7.33301 43.333 0.333008 77.333 -21 102s-54 37 -98 37h-99zM342.996 810.001l-118 140h97l70 -78l92 78h103l-161 -140h-83z" />
    <glyph glyph-name="dcaron" unicode="&#x10f;" 
d="M553 550l29 180h90l-39 -180h-80zM182 -10c-50.667 0 -87.832 18 -111.499 54s-30.834 84.333 -21.501 145l27 171c9.33301 61.333 31.833 110 67.5 146s78.834 54 129.501 54c41.333 0 72.166 -12.333 92.499 -37s27.166 -57.667 20.499 -99l-15 21h20l18 125l26 160h90
l-116 -730h-90l17 105h-18l21 21c-6.66699 -41.333 -24.167 -74.333 -52.5 -99s-63.166 -37 -104.499 -37zM225.002 68c33.333 0 60.833 11.167 82.5 33.5s35.834 53.5 42.501 93.5l25 160c6.66699 40 2.5 71.167 -12.5 93.5s-39.167 33.5 -72.5 33.5
c-32.667 0 -60 -11.167 -82 -33.5s-36.333 -53.5 -43 -93.5l-25 -160c-6.66699 -40 -2.33398 -71.167 12.999 -93.5s39.333 -33.5 72 -33.5z" />
    <glyph glyph-name="Dcroat" unicode="&#x110;" 
d="M10 335v75h280v-75h-280zM48 0l115.996 730.001h189c47.333 0 86.833 -9 118.5 -27s54.334 -43.333 68.001 -76s16.834 -71.334 9.50098 -116.001l-46 -291c-6.66699 -44.667 -22.167 -83.5 -46.5 -116.5s-55.166 -58.5 -92.499 -76.5s-79.666 -27 -126.999 -27h-189z
M150.996 80.001h99c44 0 80.5 12.333 109.5 37s46.833 59 53.5 103l46 291c7.33301 43.333 0.333008 77.333 -21 102s-54 37 -98 37h-99z" />
    <glyph glyph-name="dcroat" unicode="&#x111;" 
d="M77 194l16 100.999c6.66699 42.667 19.5 79.167 38.5 109.5s43.167 53.833 72.5 70.5s62.333 25 99 25c41.333 0 73.5 -10.333 96.5 -31s33.833 -48.667 32.5 -84h3l18 125l9 60h-166l12 75h166l14 85h90l-14 -85h94l-12 -75h-94l-90 -570h-90l17 105h-2
c-10 -36 -29.5 -64.167 -58.5 -84.5s-64.5 -30.5 -106.5 -30.5c-54.667 0 -95 18.333 -121 55s-34 86.334 -24 149.001zM168 199.999c-6.66699 -42.667 -1.66602 -75.3301 15.001 -97.9971s44 -34 82 -34c37.333 0 68.166 11.667 92.499 35s39.833 55.666 46.5 96.999l14 90
c6.66699 41.333 1.5 73.666 -15.5 96.999s-44.167 35 -81.5 35c-38 0 -69 -11.333 -93 -34s-39.333 -55.334 -46 -98.001z" />
    <glyph glyph-name="Emacron" unicode="&#x112;" 
d="M56 0l116 730h420l-13 -82h-331l-36 -226h296l-13 -81h-296l-41 -259h331l-13 -82h-420zM249 840l12 75h320l-12 -75h-320z" />
    <glyph glyph-name="emacron" unicode="&#x113;" 
d="M254 -10c-43.333 0 -79.3311 8.66602 -107.998 25.999s-49.167 41.833 -61.5 73.5s-15.166 68.5 -8.49902 110.5l23 150c7.33301 42.667 22.166 79.667 44.499 111s50.666 55.666 84.999 72.999s73.166 26 116.499 26s79.5 -8.66699 108.5 -26s49.667 -41.666 62 -72.999
s14.833 -68.333 7.5 -111l-15 -97h-336l-8 -53c-6.66699 -43.333 -1.5 -76.5 15.5 -99.5s45.833 -34.5 86.5 -34.5c34.667 0 63.167 6.16699 85.5 18.5s37.833 30.833 46.5 55.5h90c-8.66699 -30.667 -24 -57.167 -46 -79.5s-49.167 -39.666 -81.5 -51.999
s-67.833 -18.5 -106.5 -18.5zM430.002 312.999l5.00098 37c7.33301 43.333 2.5 76.666 -14.5 99.999s-46.167 35 -87.5 35c-40.667 0 -73.334 -11.667 -98.001 -35s-40.667 -56.666 -48 -99.999l-4 -29h255zM202.003 669.999l12 75h320l-12 -75h-320z" />
    <glyph glyph-name="Ebreve" unicode="&#x114;" 
d="M56 0l116 730h420l-13 -82h-331l-36 -226h296l-13 -81h-296l-41 -259h331l-13 -82h-420zM403 805c-48 0 -84.5 13.333 -109.5 40s-34.167 61.667 -27.5 105h70c-4 -26 0.833008 -47 14.5 -63s33.834 -24 60.501 -24c27.333 0 50.333 8 69 24s30 37 34 63h72
c-6.66699 -43.333 -26.834 -78.333 -60.501 -105s-74.5 -40 -122.5 -40z" />
    <glyph glyph-name="ebreve" unicode="&#x115;" 
d="M254 -10c-43.333 0 -79.3311 8.66602 -107.998 25.999s-49.167 41.833 -61.5 73.5s-15.166 68.5 -8.49902 110.5l23 150c7.33301 42.667 22.166 79.667 44.499 111s50.666 55.666 84.999 72.999s73.166 26 116.499 26s79.5 -8.66699 108.5 -26s49.667 -41.666 62 -72.999
s14.833 -68.333 7.5 -111l-15 -97h-336l-8 -53c-6.66699 -43.333 -1.5 -76.5 15.5 -99.5s45.833 -34.5 86.5 -34.5c34.667 0 63.167 6.16699 85.5 18.5s37.833 30.833 46.5 55.5h90c-8.66699 -30.667 -24 -57.167 -46 -79.5s-49.167 -39.666 -81.5 -51.999
s-67.833 -18.5 -106.5 -18.5zM430.002 312.999l5.00098 37c7.33301 43.333 2.5 76.666 -14.5 99.999s-46.167 35 -87.5 35c-40.667 0 -73.334 -11.667 -98.001 -35s-40.667 -56.666 -48 -99.999l-4 -29h255zM357.003 639.999c-48 0 -84.5 13.333 -109.5 40
s-34.167 61.667 -27.5 105h70c-4 -26 0.833008 -47 14.5 -63s33.834 -24 60.501 -24c27.333 0 50.333 8 69 24s30 37 34 63h72c-6.66699 -43.333 -26.834 -78.333 -60.501 -105s-74.5 -40 -122.5 -40z" />
    <glyph glyph-name="Edotaccent" unicode="&#x116;" 
d="M56 0l116 730h420l-13 -82h-331l-36 -226h296l-13 -81h-296l-41 -259h331l-13 -82h-420zM405 816c-22 0 -38.333 5.83301 -49 17.5s-14.667 27.167 -12 46.5c3.33301 19.333 12.333 34.833 27 46.5s33 17.5 55 17.5s38.333 -5.83301 49 -17.5
s14.334 -27.167 11.001 -46.5c-2.66699 -19.333 -11.334 -34.833 -26.001 -46.5s-33 -17.5 -55 -17.5z" />
    <glyph glyph-name="edotaccent" unicode="&#x117;" 
d="M254 -10c-43.333 0 -79.3311 8.66602 -107.998 25.999s-49.167 41.833 -61.5 73.5s-15.166 68.5 -8.49902 110.5l23 150c7.33301 42.667 22.166 79.667 44.499 111s50.666 55.666 84.999 72.999s73.166 26 116.499 26s79.5 -8.66699 108.5 -26s49.667 -41.666 62 -72.999
s14.833 -68.333 7.5 -111l-15 -97h-336l-8 -53c-6.66699 -43.333 -1.5 -76.5 15.5 -99.5s45.833 -34.5 86.5 -34.5c34.667 0 63.167 6.16699 85.5 18.5s37.833 30.833 46.5 55.5h90c-8.66699 -30.667 -24 -57.167 -46 -79.5s-49.167 -39.666 -81.5 -51.999
s-67.833 -18.5 -106.5 -18.5zM430.002 312.999l5.00098 37c7.33301 43.333 2.5 76.666 -14.5 99.999s-46.167 35 -87.5 35c-40.667 0 -73.334 -11.667 -98.001 -35s-40.667 -56.666 -48 -99.999l-4 -29h255zM359.003 648.999c-22 0 -38.3311 5.66699 -48.998 17
s-14.667 26.666 -12 45.999c3.33301 20 12.166 35.833 26.499 47.5s32.5 17.5 54.5 17.5s38.5 -5.83301 49.5 -17.5s14.833 -27.5 11.5 -47.5c-2.66699 -19.333 -11.334 -34.666 -26.001 -45.999s-33 -17 -55 -17z" />
    <glyph glyph-name="Eogonek" unicode="&#x118;" 
d="M371 -203c-36.667 0 -64.835 8.83301 -84.502 26.5s-27.167 39.834 -22.5 66.501c3.33301 19.333 12.833 38.666 28.5 57.999s40.834 40 75.501 62h75l-13 -9c-25.333 -18.667 -44.166 -35.5 -56.499 -50.5s-19.833 -29.5 -22.5 -43.5
c-2 -14.667 1.16699 -26.667 9.5 -36s20.833 -14 37.5 -14h60l-9 -60h-78zM55.999 0l116 730h420l-13 -82h-331l-36 -226h296l-13 -81h-296l-41 -259h331l-13 -82h-420z" />
    <glyph glyph-name="eogonek" unicode="&#x119;" 
d="M297 -203c-36.667 0 -64.832 8.83203 -84.499 26.499s-27.167 39.834 -22.5 66.501c2 15.333 9.33301 31.5 22 48.5s30 34.167 52 51.5h-5h-5c-43.333 0 -79.333 8.66699 -108 26s-49.167 41.833 -61.5 73.5s-15.166 68.5 -8.49902 110.5l23 150
c7.33301 42.667 22.166 79.667 44.499 111s50.666 55.666 84.999 72.999s73.166 26 116.499 26s79.5 -8.66699 108.5 -26s49.667 -41.666 62 -72.999s14.833 -68.333 7.5 -111l-15 -97h-336l-8 -53c-6.66699 -43.333 -1.5 -76.5 15.5 -99.5s45.833 -34.5 86.5 -34.5
c34.667 0 63.167 6.16699 85.5 18.5s37.833 30.833 46.5 55.5h90c-8 -28.667 -22 -53.667 -42 -75s-44 -38.333 -72 -51l-18 -13c-25.333 -18.667 -44.166 -35.5 -56.499 -50.5s-19.833 -29.5 -22.5 -43.5c-2 -14.667 1.16699 -26.667 9.5 -36s20.833 -14 37.5 -14h60
l-9 -60h-78zM425.002 280.999l10.001 69c7.33301 43.333 2.5 76.666 -14.5 99.999s-46.167 35 -87.5 35c-40.667 0 -73.334 -11.667 -98.001 -35s-40.667 -56.666 -48 -99.999l-4 -29h288z" />
    <glyph glyph-name="Ecaron" unicode="&#x11a;" 
d="M56 0l116 730h420l-13 -82h-331l-36 -226h296l-13 -81h-296l-41 -259h331l-13 -82h-420zM363 810l-118 140h97l70 -78l92 78h103l-161 -140h-83z" />
    <glyph glyph-name="ecaron" unicode="&#x11b;" 
d="M254 -10c-43.333 0 -79.3311 8.66602 -107.998 25.999s-49.167 41.833 -61.5 73.5s-15.166 68.5 -8.49902 110.5l23 150c7.33301 42.667 22.166 79.667 44.499 111s50.666 55.666 84.999 72.999s73.166 26 116.499 26s79.5 -8.66699 108.5 -26s49.667 -41.666 62 -72.999
s14.833 -68.333 7.5 -111l-15 -97h-336l-8 -53c-6.66699 -43.333 -1.5 -76.5 15.5 -99.5s45.833 -34.5 86.5 -34.5c34.667 0 63.167 6.16699 85.5 18.5s37.833 30.833 46.5 55.5h90c-8.66699 -30.667 -24 -57.167 -46 -79.5s-49.167 -39.666 -81.5 -51.999
s-67.833 -18.5 -106.5 -18.5zM430.002 312.999l5.00098 37c7.33301 43.333 2.5 76.666 -14.5 99.999s-46.167 35 -87.5 35c-40.667 0 -73.334 -11.667 -98.001 -35s-40.667 -56.666 -48 -99.999l-4 -29h255zM318.003 644.999l-118 140h97l70 -78l92 78h103l-161 -140h-83z
" />
    <glyph glyph-name="Gcircumflex" unicode="&#x11c;" 
d="M258 -10c-44 0 -80.8311 8.33301 -110.498 25s-50.667 40.834 -63 72.501s-15.166 69.167 -8.49902 112.5l52 330c7.33301 44 22.166 81.667 44.499 113s51 55.333 86 72s74.5 25 118.5 25s80.5 -8.5 109.5 -25.5s49.833 -41.167 62.5 -72.5s15.667 -68.666 9 -111.999
h-90c6.66699 41.333 0.833984 73.166 -17.499 95.499s-47.166 33.5 -86.499 33.5s-71.833 -11 -97.5 -33s-41.834 -53.667 -48.501 -95l-52 -331c-6.66699 -41.333 -0.666992 -73.333 18 -96s47.667 -34 87 -34s71.666 11.333 96.999 34s41.333 54.667 48 96l14 90h-148
l13 82h238l-27 -172c-6.66699 -42.667 -21.334 -79.834 -44.001 -111.501s-51.334 -56 -86.001 -73s-74 -25.5 -118 -25.5zM203.002 810l161 140h83l118 -140h-97l-69 78l-93 -78h-103z" />
    <glyph glyph-name="gcircumflex" unicode="&#x11d;" 
d="M90 -180l13 81.999h175c28 0 49.5 6.33301 64.5 19s24.833 32.334 29.5 59.001l11 70l18 100h-18l19 15c-6.66699 -40 -25 -71.667 -55 -95s-67.333 -35 -112 -35c-56.667 0 -98.5 18.5 -125.5 55.5s-35.5 86.833 -25.5 149.5l18 116
c6.66699 42 19.834 78.167 39.501 108.5s44.667 53.833 75 70.5s64.166 25 101.499 25c44.667 0 78.5 -11.667 101.5 -35s31.167 -55 24.5 -95l-15 15h17l17 105h89l-90 -570c-8 -49.333 -29.5 -88.333 -64.5 -117s-79.5 -43 -133.5 -43h-174zM274 112.999
c37.333 0 68.5 11.6709 93.5 35.0039s40.833 55.666 47.5 96.999l16 105c7.33301 41.333 2 73.666 -16 96.999s-45.667 35 -83 35c-38 0 -69.167 -11.333 -93.5 -34s-40.166 -55.334 -47.499 -98.001l-16 -105c-6.66699 -42.667 -1.33398 -75.334 15.999 -98.001
s45 -34 83 -34zM174 645.003l161 140h83l118 -140h-97l-69 78l-93 -78h-103z" />
    <glyph glyph-name="Gbreve" unicode="&#x11e;" 
d="M258 -10c-44 0 -80.8311 8.33301 -110.498 25s-50.667 40.834 -63 72.501s-15.166 69.167 -8.49902 112.5l52 330c7.33301 44 22.166 81.667 44.499 113s51 55.333 86 72s74.5 25 118.5 25s80.5 -8.5 109.5 -25.5s49.833 -41.167 62.5 -72.5s15.667 -68.666 9 -111.999
h-90c6.66699 41.333 0.833984 73.166 -17.499 95.499s-47.166 33.5 -86.499 33.5s-71.833 -11 -97.5 -33s-41.834 -53.667 -48.501 -95l-52 -331c-6.66699 -41.333 -0.666992 -73.333 18 -96s47.667 -34 87 -34s71.666 11.333 96.999 34s41.333 54.667 48 96l14 90h-148
l13 82h238l-27 -172c-6.66699 -42.667 -21.334 -79.834 -44.001 -111.501s-51.334 -56 -86.001 -73s-74 -25.5 -118 -25.5zM383.002 805c-48 0 -84.5 13.333 -109.5 40s-34.167 61.667 -27.5 105h70c-4 -26 0.833008 -47 14.5 -63s33.834 -24 60.501 -24
c27.333 0 50.333 8 69 24s30 37 34 63h72c-6.66699 -43.333 -26.834 -78.333 -60.501 -105s-74.5 -40 -122.5 -40z" />
    <glyph glyph-name="gbreve" unicode="&#x11f;" 
d="M90 -180l13 81.999h175c28 0 49.5 6.33301 64.5 19s24.833 32.334 29.5 59.001l11 70l18 100h-18l19 15c-6.66699 -40 -25 -71.667 -55 -95s-67.333 -35 -112 -35c-56.667 0 -98.5 18.5 -125.5 55.5s-35.5 86.833 -25.5 149.5l18 116
c6.66699 42 19.834 78.167 39.501 108.5s44.667 53.833 75 70.5s64.166 25 101.499 25c44.667 0 78.5 -11.667 101.5 -35s31.167 -55 24.5 -95l-15 15h17l17 105h89l-90 -570c-8 -49.333 -29.5 -88.333 -64.5 -117s-79.5 -43 -133.5 -43h-174zM274 112.999
c37.333 0 68.5 11.6709 93.5 35.0039s40.833 55.666 47.5 96.999l16 105c7.33301 41.333 2 73.666 -16 96.999s-45.667 35 -83 35c-38 0 -69.167 -11.333 -93.5 -34s-40.166 -55.334 -47.499 -98.001l-16 -105c-6.66699 -42.667 -1.33398 -75.334 15.999 -98.001
s45 -34 83 -34zM354 640.003c-48 0 -84.5 13.333 -109.5 40s-34.167 61.667 -27.5 105h70c-4 -26 0.833008 -47 14.5 -63s33.834 -24 60.501 -24c27.333 0 50.333 8 69 24s30 37 34 63h72c-6.66699 -43.333 -26.834 -78.333 -60.501 -105s-74.5 -40 -122.5 -40z" />
    <glyph glyph-name="Gdotaccent" unicode="&#x120;" 
d="M258 -10c-44 0 -80.8311 8.33301 -110.498 25s-50.667 40.834 -63 72.501s-15.166 69.167 -8.49902 112.5l52 330c7.33301 44 22.166 81.667 44.499 113s51 55.333 86 72s74.5 25 118.5 25s80.5 -8.5 109.5 -25.5s49.833 -41.167 62.5 -72.5s15.667 -68.666 9 -111.999
h-90c6.66699 41.333 0.833984 73.166 -17.499 95.499s-47.166 33.5 -86.499 33.5s-71.833 -11 -97.5 -33s-41.834 -53.667 -48.501 -95l-52 -331c-6.66699 -41.333 -0.666992 -73.333 18 -96s47.667 -34 87 -34s71.666 11.333 96.999 34s41.333 54.667 48 96l14 90h-148
l13 82h238l-27 -172c-6.66699 -42.667 -21.334 -79.834 -44.001 -111.501s-51.334 -56 -86.001 -73s-74 -25.5 -118 -25.5zM385.002 816c-22 0 -38.333 5.83301 -49 17.5s-14.667 27.167 -12 46.5c3.33301 19.333 12.333 34.833 27 46.5s33 17.5 55 17.5
s38.333 -5.83301 49 -17.5s14.334 -27.167 11.001 -46.5c-2.66699 -19.333 -11.334 -34.833 -26.001 -46.5s-33 -17.5 -55 -17.5z" />
    <glyph glyph-name="gdotaccent" unicode="&#x121;" 
d="M90 -180l13 81.999h175c28 0 49.5 6.33301 64.5 19s24.833 32.334 29.5 59.001l11 70l18 100h-18l19 15c-6.66699 -40 -25 -71.667 -55 -95s-67.333 -35 -112 -35c-56.667 0 -98.5 18.5 -125.5 55.5s-35.5 86.833 -25.5 149.5l18 116
c6.66699 42 19.834 78.167 39.501 108.5s44.667 53.833 75 70.5s64.166 25 101.499 25c44.667 0 78.5 -11.667 101.5 -35s31.167 -55 24.5 -95l-15 15h17l17 105h89l-90 -570c-8 -49.333 -29.5 -88.333 -64.5 -117s-79.5 -43 -133.5 -43h-174zM274 112.999
c37.333 0 68.5 11.6709 93.5 35.0039s40.833 55.666 47.5 96.999l16 105c7.33301 41.333 2 73.666 -16 96.999s-45.667 35 -83 35c-38 0 -69.167 -11.333 -93.5 -34s-40.166 -55.334 -47.499 -98.001l-16 -105c-6.66699 -42.667 -1.33398 -75.334 15.999 -98.001
s45 -34 83 -34zM356 649.003c-22 0 -38.3311 5.66699 -48.998 17s-14.667 26.666 -12 45.999c3.33301 20 12.166 35.833 26.499 47.5s32.5 17.5 54.5 17.5s38.5 -5.83301 49.5 -17.5s14.833 -27.5 11.5 -47.5c-2.66699 -19.333 -11.334 -34.666 -26.001 -45.999
s-33 -17 -55 -17z" />
    <glyph glyph-name="uni0122" unicode="&#x122;" 
d="M258 -10c-44 0 -80.8311 8.33301 -110.498 25s-50.667 40.834 -63 72.501s-15.166 69.167 -8.49902 112.5l52 330c7.33301 44 22.166 81.667 44.499 113s51 55.333 86 72s74.5 25 118.5 25s80.5 -8.5 109.5 -25.5s49.833 -41.167 62.5 -72.5s15.667 -68.666 9 -111.999
h-90c6.66699 41.333 0.833984 73.166 -17.499 95.499s-47.166 33.5 -86.499 33.5s-71.833 -11 -97.5 -33s-41.834 -53.667 -48.501 -95l-52 -331c-6.66699 -41.333 -0.666992 -73.333 18 -96s47.667 -34 87 -34s71.666 11.333 96.999 34s41.333 54.667 48 96l14 90h-148
l13 82h238l-27 -172c-6.66699 -42.667 -21.334 -79.834 -44.001 -111.501s-51.334 -56 -86.001 -73s-74 -25.5 -118 -25.5zM114.002 -240l118 145h101l-128 -145h-91z" />
    <glyph glyph-name="uni0123" unicode="&#x123;" 
d="M90 -180l13 81.999h175c28 0 49.5 6.33301 64.5 19s24.833 32.334 29.5 59.001l11 70l18 100h-18l19 15c-6.66699 -40 -25 -71.667 -55 -95s-67.333 -35 -112 -35c-56.667 0 -98.5 18.5 -125.5 55.5s-35.5 86.833 -25.5 149.5l18 116
c6.66699 42 19.834 78.167 39.501 108.5s44.667 53.833 75 70.5s64.166 25 101.499 25c44.667 0 78.5 -11.667 101.5 -35s31.167 -55 24.5 -95l-15 15h17l17 105h89l-90 -570c-8 -49.333 -29.5 -88.333 -64.5 -117s-79.5 -43 -133.5 -43h-174zM274 112.999
c37.333 0 68.5 11.6709 93.5 35.0039s40.833 55.666 47.5 96.999l16 105c7.33301 41.333 2 73.666 -16 96.999s-45.667 35 -83 35c-38 0 -69.167 -11.333 -93.5 -34s-40.166 -55.334 -47.499 -98.001l-16 -105c-6.66699 -42.667 -1.33398 -75.334 15.999 -98.001
s45 -34 83 -34zM504 880.003l-117 -235h-119l167 235h69z" />
    <glyph glyph-name="Hcircumflex" unicode="&#x124;" 
d="M49 0l116 730h90l-50 -312h234l50 312h90l-116 -730h-90l53 336h-234l-53 -336h-90zM203 810l161 140h83l118 -140h-97l-69 78l-93 -78h-103z" />
    <glyph glyph-name="hcircumflex" unicode="&#x125;" 
d="M48 0l115.999 730h90l-29 -180l-17 -105h19l-22 -21c7.33301 43.333 25.833 76.833 55.5 100.5s67.5 35.5 113.5 35.5c55.333 0 96.666 -17 123.999 -51s36.333 -80.333 27 -139l-59 -370h-90l57 360c6 39.333 0.333008 69.833 -17 91.5s-44 32.5 -80 32.5
c-37.333 0 -68.666 -11.667 -93.999 -35s-41.666 -56.333 -48.999 -99l-55 -350h-90zM26.999 805l161 140h83l118 -140h-97l-69 78l-93 -78h-103z" />
    <glyph glyph-name="Hbar" unicode="&#x126;" 
d="M50 525l12 75h579l-12 -75h-579zM49 0l116 730h90l-50 -312h234l50 312h90l-116 -730h-90l53 336h-234l-53 -336h-90z" />
    <glyph glyph-name="hbar" unicode="&#x127;" 
d="M46 570l12 75h92l14 85h90l-14 -85h168l-12 -75h-168l-12 -80l-17 -105h1c10.667 36.667 30.167 65 58.5 85s63.5 30 105.5 30c55.333 0 96.666 -17 123.999 -51s36.333 -80.333 27 -139l-49 -310h-90l48 300c6 39.333 0.166992 69.833 -17.5 91.5s-44.5 32.5 -80.5 32.5
c-37.333 0 -68.666 -11.667 -93.999 -35s-41.333 -56.333 -48 -99l-46 -290h-90l90 570h-92z" />
    <glyph glyph-name="Itilde" unicode="&#x128;" 
d="M61 0l13 82h149l90 566h-149l13 82h390l-13 -82h-149l-90 -566h149l-13 -82h-390zM455 815c-20 0 -35.666 3.5 -46.999 10.5s-20.666 15.167 -27.999 24.5s-14.5 17.5 -21.5 24.5s-16.167 10.5 -27.5 10.5c-8.66699 0 -16.334 -2.83301 -23.001 -8.5
s-10.667 -14.5 -12 -26.5l-5 -30h-65l5 30c4.66699 30 16.667 53.333 36 70s42.333 25 69 25c20 0 35.667 -3.5 47 -10.5s20.666 -15.167 27.999 -24.5s14.5 -17.5 21.5 -24.5s16.167 -10.5 27.5 -10.5c9.33301 0 17 2.83301 23 8.5s10 14.5 12 26.5l5 30h65l-5 -30
c-4.66699 -30 -16.5 -53.333 -35.5 -70s-42.167 -25 -69.5 -25z" />
    <glyph glyph-name="itilde" unicode="&#x129;" 
d="M36 0l13 82h195l61 386h-170l13 82h260l-74 -468h185l-13 -82h-470zM444 650c-20 0 -35.665 3.5 -46.998 10.5s-20.666 15.167 -27.999 24.5s-14.5 17.5 -21.5 24.5s-16.167 10.5 -27.5 10.5c-8.66699 0 -16.334 -2.83301 -23.001 -8.5s-11 -14.5 -13 -26.5l-4 -30h-65
l4 30c5.33301 30 17.666 53.333 36.999 70s42.333 25 69 25c20 0 35.667 -3.5 47 -10.5s20.5 -15.167 27.5 -24.5s14 -17.5 21 -24.5s16.167 -10.5 27.5 -10.5c9.33301 0 17.166 2.83301 23.499 8.5s10.5 14.5 12.5 26.5l5 30h65l-5 -30
c-4.66699 -30 -16.5 -53.333 -35.5 -70s-42.167 -25 -69.5 -25z" />
    <glyph glyph-name="Imacron" unicode="&#x12a;" 
d="M61 0l13 82h149l90 566h-149l13 82h390l-13 -82h-149l-90 -566h149l-13 -82h-390zM229 840l12 75h320l-12 -75h-320z" />
    <glyph glyph-name="imacron" unicode="&#x12b;" 
d="M36 0l13 82h195l61 386h-170l13 82h260l-74 -468h185l-13 -82h-470zM217 670l12 75h320l-12 -75h-320z" />
    <glyph glyph-name="Ibreve" unicode="&#x12c;" 
d="M61 0l13 82h149l90 566h-149l13 82h390l-13 -82h-149l-90 -566h149l-13 -82h-390zM383 805c-48 0 -84.5 13.333 -109.5 40s-34.167 61.667 -27.5 105h70c-4 -26 0.833008 -47 14.5 -63s33.834 -24 60.501 -24c27.333 0 50.333 8 69 24s30 37 34 63h72
c-6.66699 -43.333 -26.834 -78.333 -60.501 -105s-74.5 -40 -122.5 -40z" />
    <glyph glyph-name="ibreve" unicode="&#x12d;" 
d="M36 0l13 82h195l61 386h-170l13 82h260l-74 -468h185l-13 -82h-470zM372 640c-48 0 -84.5 13.333 -109.5 40s-34.167 61.667 -27.5 105h70c-4 -26 0.833008 -47 14.5 -63s33.834 -24 60.501 -24c27.333 0 50.333 8 69 24s30 37 34 63h72
c-6.66699 -43.333 -26.834 -78.333 -60.501 -105s-74.5 -40 -122.5 -40z" />
    <glyph glyph-name="Iogonek" unicode="&#x12e;" 
d="M231 -203c-36.667 0 -64.835 8.83301 -84.502 26.5s-27.167 39.834 -22.5 66.501c3.33301 19.333 12.833 38.666 28.5 57.999s40.834 40 75.501 62h75l-13 -9c-25.333 -18.667 -44.166 -35.5 -56.499 -50.5s-19.833 -29.5 -22.5 -43.5
c-2 -14.667 1.16699 -26.667 9.5 -36s20.833 -14 37.5 -14h60l-9 -60h-78zM60.999 0l13 82h149l90 566h-149l13 82h390l-13 -82h-149l-90 -566h149l-13 -82h-390z" />
    <glyph glyph-name="iogonek" unicode="&#x12f;" 
d="M246 -203c-36.667 0 -64.835 8.83301 -84.502 26.5s-27.167 39.834 -22.5 66.501c3.33301 19.333 12.833 38.666 28.5 57.999s40.834 40 75.501 62h75l-13 -9c-25.333 -18.667 -44.166 -35.5 -56.499 -50.5s-19.833 -29.5 -22.5 -43.5
c-2 -14.667 1.16699 -26.667 9.5 -36s20.833 -14 37.5 -14h60l-9 -60h-78zM35.999 0l13 82h195l61 386h-170l13 82h260l-74 -468h185l-13 -82h-470zM373.999 649c-22 0 -38.3311 5.66699 -48.998 17s-14.667 26.666 -12 45.999c3.33301 20 12.166 35.833 26.499 47.5
s32.5 17.5 54.5 17.5s38.5 -5.83301 49.5 -17.5s14.833 -27.5 11.5 -47.5c-2.66699 -19.333 -11.334 -34.666 -26.001 -45.999s-33 -17 -55 -17z" />
    <glyph glyph-name="Idotaccent" unicode="&#x130;" 
d="M61 0l13 82h149l90 566h-149l13 82h390l-13 -82h-149l-90 -566h149l-13 -82h-390zM385 816c-22 0 -38.333 5.83301 -49 17.5s-14.667 27.167 -12 46.5c3.33301 19.333 12.333 34.833 27 46.5s33 17.5 55 17.5s38.333 -5.83301 49 -17.5s14.334 -27.167 11.001 -46.5
c-2.66699 -19.333 -11.334 -34.833 -26.001 -46.5s-33 -17.5 -55 -17.5z" />
    <glyph glyph-name="dotlessi" unicode="&#x131;" 
d="M36 0l13 82h195l61 386h-170l13 82h260l-74 -468h185l-13 -82h-470z" />
    <glyph glyph-name="Jcircumflex" unicode="&#x134;" 
d="M224 -10c-70 0 -121.835 19.667 -155.502 59s-45.167 93 -34.5 161h90c-6.66699 -44.667 -0.166992 -79.167 19.5 -103.5s50.834 -36.5 93.501 -36.5s77.834 12.167 105.501 36.5s44.834 58.833 51.501 103.5l70 438h-175l13 82h265l-83 -520
c-6.66699 -45.333 -21.834 -84.5 -45.501 -117.5s-53.667 -58.333 -90 -76s-77.833 -26.5 -124.5 -26.5zM262.998 810l161 140h83l118 -140h-97l-69 78l-93 -78h-103z" />
    <glyph glyph-name="jcircumflex" unicode="&#x135;" 
d="M12 -180l14.001 83.001h129c41.333 0 75.166 11.167 101.499 33.5s42.833 53.833 49.5 94.5l69 437h-230l13 82h320l-82 -519c-6.66699 -42.667 -21.667 -79.834 -45 -111.501s-52.833 -56.167 -88.5 -73.5s-76.167 -26 -121.5 -26h-129zM202.001 645.001l161 140h83
l118 -140h-97l-69 78l-93 -78h-103z" />
    <glyph glyph-name="uni0136" unicode="&#x136;" 
d="M48 0l116 730h90l-50 -313h106l212 313h100l-237 -354l131 -376h-100l-116 338h-108l-54 -338h-90zM110 -240l118 145h101l-128 -145h-91z" />
    <glyph glyph-name="uni0137" unicode="&#x137;" 
d="M51 0l116 730h90l-65 -407h94l196 227h105l-226 -265l142 -285h-103l-121 245h-99l-39 -245h-90zM108 -240l118 145h105l-128 -145h-95z" />
    <glyph glyph-name="kgreenlandic" unicode="&#x138;" 
d="M53 0l87 550h90l-36 -227h92l196 227h105l-226 -265l142 -285h-103l-121 245h-97l-39 -245h-90z" />
    <glyph glyph-name="Lacute" unicode="&#x139;" 
d="M71 0l116 730h90l-103 -648h330l-13 -82h-420zM184 810l128 140h102l-133 -140h-97z" />
    <glyph glyph-name="lacute" unicode="&#x13a;" 
d="M321 0c-48.667 0 -85.166 14.167 -109.499 42.5s-32.833 65.833 -25.5 112.5l78 493h-165l13 82h255l-91 -575c-3.33301 -22.667 0.166992 -40.5 10.5 -53.5s26.166 -19.5 47.499 -19.5h185l-13 -82h-185zM263.001 810l128 140h102l-133 -140h-97z" />
    <glyph glyph-name="uni013B" unicode="&#x13b;" 
d="M71 0l116 730h90l-103 -648h330l-13 -82h-420zM130 -240l118 145h101l-128 -145h-91z" />
    <glyph glyph-name="uni013C" unicode="&#x13c;" 
d="M321 0c-48.667 0 -85.166 14.167 -109.499 42.5s-32.833 65.833 -25.5 112.5l78 493h-165l13 82h255l-91 -575c-3.33301 -22.667 0.166992 -40.5 10.5 -53.5s26.166 -19.5 47.499 -19.5h185l-13 -82h-185zM92.001 -240l118 145h105l-128 -145h-95z" />
    <glyph glyph-name="Lcaron" unicode="&#x13d;" 
d="M71 0l116 730h90l-103 -648h330l-13 -82h-420zM399 550l39 180h85l-49 -180h-75z" />
    <glyph glyph-name="lcaron" unicode="&#x13e;" 
d="M321 0c-48.667 0 -85.166 14.167 -109.499 42.5s-32.833 65.833 -25.5 112.5l78 493h-165l13 82h255l-91 -575c-3.33301 -22.667 0.166992 -40.5 10.5 -53.5s26.166 -19.5 47.499 -19.5h185l-13 -82h-185zM478.001 550l39 180h85l-49 -180h-75z" />
    <glyph glyph-name="Ldot" unicode="&#x13f;" 
d="M71 0l116 730h90l-103 -648h330l-13 -82h-420zM399 260c-25.333 0 -44.333 7.33301 -57 22s-17 34.334 -13 59.001c4 26 14.833 46.667 32.5 62s39.167 23 64.5 23s44.166 -7.66699 56.499 -23s16.5 -36 12.5 -62c-4 -24.667 -14.667 -44.334 -32 -59.001
s-38.666 -22 -63.999 -22z" />
    <glyph glyph-name="ldot" unicode="&#x140;" 
d="M301 0c-48.667 0 -85.166 14.167 -109.499 42.5s-32.833 65.833 -25.5 112.5l78 493h-165l13 82h255l-91 -575c-3.33301 -22.667 0.166992 -40.5 10.5 -53.5s26.166 -19.5 47.499 -19.5h185l-13 -82h-185zM501.001 260c-25.333 0 -44.333 7.33301 -57 22
s-17 34.334 -13 59.001c4 26 14.833 46.667 32.5 62s39.167 23 64.5 23s44.166 -7.66699 56.499 -23s16.5 -36 12.5 -62c-4 -24.667 -14.667 -44.334 -32 -59.001s-38.666 -22 -63.999 -22z" />
    <glyph glyph-name="Lslash" unicode="&#x141;" 
d="M12 226l13 84l410 254l-13 -84zM71 0l116 730h90l-103 -648h330l-13 -82h-420z" />
    <glyph glyph-name="lslash" unicode="&#x142;" 
d="M100 230v80l370 250v-80zM321 0c-48.667 0 -85.166 14.167 -109.499 42.5s-32.833 65.833 -25.5 112.5l78 493h-165l13 82h255l-91 -575c-3.33301 -22.667 0.166992 -40.5 10.5 -53.5s26.166 -19.5 47.499 -19.5h185l-13 -82h-185z" />
    <glyph glyph-name="Nacute" unicode="&#x143;" 
d="M46 0l115.998 730h119l125 -625l5 61.5c2 24.333 4.66699 50 8 77s7 52.5 11 76.5l65 410h87l-116 -730h-119l-124 625c-1.33301 -16 -3.16602 -36.167 -5.49902 -60.5s-5.16602 -50 -8.49902 -77s-7 -52.833 -11 -77.5l-65 -410h-87zM322.998 810l128 140h102l-133 -140
h-97z" />
    <glyph glyph-name="nacute" unicode="&#x144;" 
d="M48 0l86.999 550h90l-17 -105h19l-22 -21c7.33301 43.333 25.833 76.833 55.5 100.5s67.5 35.5 113.5 35.5c55.333 0 96.666 -17 123.999 -51s36.333 -80.333 27 -139l-59 -370h-90l57 360c6 39.333 0.333008 69.833 -17 91.5s-44 32.5 -80 32.5
c-37.333 0 -68.666 -11.667 -93.999 -35s-41.666 -56.333 -48.999 -99l-55 -350h-90zM266.999 645l128 140h102l-133 -140h-97z" />
    <glyph glyph-name="uni0145" unicode="&#x145;" 
d="M46 0l115.998 730h119l125 -625l5 61.5c2 24.333 4.66699 50 8 77s7 52.5 11 76.5l65 410h87l-116 -730h-119l-124 625c-1.33301 -16 -3.16602 -36.167 -5.49902 -60.5s-5.16602 -50 -8.49902 -77s-7 -52.833 -11 -77.5l-65 -410h-87zM107.998 -240l118 145h105
l-128 -145h-95z" />
    <glyph glyph-name="uni0146" unicode="&#x146;" 
d="M48 0l86.999 550h90l-17 -105h19l-22 -21c7.33301 43.333 25.833 76.833 55.5 100.5s67.5 35.5 113.5 35.5c55.333 0 96.666 -17 123.999 -51s36.333 -80.333 27 -139l-59 -370h-90l57 360c6 39.333 0.333008 69.833 -17 91.5s-44 32.5 -80 32.5
c-37.333 0 -68.666 -11.667 -93.999 -35s-41.666 -56.333 -48.999 -99l-55 -350h-90zM107.999 -240l118 145h105l-128 -145h-95z" />
    <glyph glyph-name="Ncaron" unicode="&#x147;" 
d="M46 0l115.998 730h119l125 -625l5 61.5c2 24.333 4.66699 50 8 77s7 52.5 11 76.5l65 410h87l-116 -730h-119l-124 625c-1.33301 -16 -3.16602 -36.167 -5.49902 -60.5s-5.16602 -50 -8.49902 -77s-7 -52.833 -11 -77.5l-65 -410h-87zM342.998 810l-118 140h97l70 -78
l92 78h103l-161 -140h-83z" />
    <glyph glyph-name="ncaron" unicode="&#x148;" 
d="M48 0l86.999 550h90l-17 -105h19l-22 -21c7.33301 43.333 25.833 76.833 55.5 100.5s67.5 35.5 113.5 35.5c55.333 0 96.666 -17 123.999 -51s36.333 -80.333 27 -139l-59 -370h-90l57 360c6 39.333 0.333008 69.833 -17 91.5s-44 32.5 -80 32.5
c-37.333 0 -68.666 -11.667 -93.999 -35s-41.666 -56.333 -48.999 -99l-55 -350h-90zM317.999 645l-118 140h97l70 -78l92 78h103l-161 -140h-83z" />
    <glyph glyph-name="napostrophe" unicode="&#x149;" 
d="M48 0l86.999 550h90l-17 -105h19l-22 -21c7.33301 43.333 25.833 76.833 55.5 100.5s67.5 35.5 113.5 35.5c55.333 0 96.666 -17 123.999 -51s36.333 -80.333 27 -139l-59 -370h-90l57 360c6 39.333 0.333008 69.833 -17 91.5s-44 32.5 -80 32.5
c-37.333 0 -68.666 -11.667 -93.999 -35s-41.666 -56.333 -48.999 -99l-55 -350h-90zM-82.001 645l118 145h105l-128 -145h-95z" />
    <glyph glyph-name="Eng" unicode="&#x14a;" 
d="M167 -180l12.998 81.9971h65c35.333 0 65 10.167 89 30.5s38.667 47.833 44 82.5l-155 610c-1.33301 -16 -3.16602 -36.167 -5.49902 -60.5s-5.16602 -50 -8.49902 -77s-7 -52.833 -11 -77.5l-65 -410h-87l116 730h118l138 -551
c1.33301 16.667 3.16602 37.334 5.49902 62.001s5 50.834 8 78.501s6.5 53.5 10.5 77.5l53 333h87l-114 -715c-6 -39.333 -19.833 -73.666 -41.5 -102.999s-49.167 -52 -82.5 -68s-70.666 -24 -111.999 -24h-65z" />
    <glyph glyph-name="eng" unicode="&#x14b;" 
d="M167 -180l12.998 81.999h63c35.333 0 65 10.167 89 30.5s38.667 47.833 44 82.5l55 345c6 39.333 0.666992 69.833 -16 91.5s-43 32.5 -79 32.5c-37.333 0 -68.333 -11.667 -93 -35s-40.667 -56.333 -48 -99l-55 -350h-90l87 550h90l-17 -105h19l-22 -21
c7.33301 43.333 25.5 76.833 54.5 100.5s66.5 35.5 112.5 35.5c55.333 0 96.333 -17 123 -51s35.334 -80.333 26.001 -139l-57 -355c-6 -39.333 -19.833 -73.666 -41.5 -102.999s-49.167 -52 -82.5 -68s-70.666 -24 -111.999 -24h-63z" />
    <glyph glyph-name="Omacron" unicode="&#x14c;" 
d="M254 -10c-43.333 0 -79.5 8.33203 -108.5 24.999s-49.5 40.834 -61.5 72.501s-14.667 69.167 -8 112.5l52 330c7.33301 44 22 81.667 44 113s50.167 55.333 84.5 72s73.166 25 116.499 25c44 0 80.5 -8.33301 109.5 -25s49.667 -40.667 62 -72
s14.833 -68.666 7.5 -111.999l-52 -331c-6.66699 -43.333 -21.167 -80.833 -43.5 -112.5s-50.666 -55.834 -84.999 -72.501s-73.5 -25 -117.5 -25zM267 70.999c39.333 0 71.333 11.167 96 33.5s40.334 54.166 47.001 95.499l52 330
c6.66699 41.333 1.16699 73.166 -16.5 95.499s-46.167 33.5 -85.5 33.5c-38.667 0 -70.334 -11.167 -95.001 -33.5s-40.334 -54.166 -47.001 -95.499l-52 -330c-6.66699 -41.333 -1.16699 -73.166 16.5 -95.499s45.834 -33.5 84.501 -33.5zM229 839.999l12 75h320l-12 -75
h-320z" />
    <glyph glyph-name="omacron" unicode="&#x14d;" 
d="M254 -10c-43.333 0 -79.5 8.33203 -108.5 24.999s-49.5 40.834 -61.5 72.501s-14.667 69.167 -8 112.5l23 150c7.33301 44 22 81.667 44 113s50.333 55.333 85 72s73.667 25 117 25c44 0 80.333 -8.33301 109 -25s49.167 -40.667 61.5 -72
s15.166 -68.666 8.49902 -111.999l-24 -151c-6.66699 -43.333 -21.167 -80.833 -43.5 -112.5s-50.666 -55.834 -84.999 -72.501s-73.5 -25 -117.5 -25zM267 69.999c39.333 0 71.333 11 96 33s40.334 54.333 47.001 97l23 150c7.33301 42.667 2.16602 75 -15.501 97
s-46.167 33 -85.5 33c-38.667 0 -70.334 -11 -95.001 -33s-40.667 -54.333 -48 -97l-23 -150c-6.66699 -42.667 -1.16699 -75 16.5 -97s45.834 -33 84.501 -33zM202 669.999l12 75h320l-12 -75h-320z" />
    <glyph glyph-name="Obreve" unicode="&#x14e;" 
d="M254 -10c-43.333 0 -79.5 8.33203 -108.5 24.999s-49.5 40.834 -61.5 72.501s-14.667 69.167 -8 112.5l52 330c7.33301 44 22 81.667 44 113s50.167 55.333 84.5 72s73.166 25 116.499 25c44 0 80.5 -8.33301 109.5 -25s49.667 -40.667 62 -72
s14.833 -68.666 7.5 -111.999l-52 -331c-6.66699 -43.333 -21.167 -80.833 -43.5 -112.5s-50.666 -55.834 -84.999 -72.501s-73.5 -25 -117.5 -25zM267 70.999c39.333 0 71.333 11.167 96 33.5s40.334 54.166 47.001 95.499l52 330
c6.66699 41.333 1.16699 73.166 -16.5 95.499s-46.167 33.5 -85.5 33.5c-38.667 0 -70.334 -11.167 -95.001 -33.5s-40.334 -54.166 -47.001 -95.499l-52 -330c-6.66699 -41.333 -1.16699 -73.166 16.5 -95.499s45.834 -33.5 84.501 -33.5zM383 804.999
c-48 0 -84.5 13.333 -109.5 40s-34.167 61.667 -27.5 105h70c-4 -26 0.833008 -47 14.5 -63s33.834 -24 60.501 -24c27.333 0 50.333 8 69 24s30 37 34 63h72c-6.66699 -43.333 -26.834 -78.333 -60.501 -105s-74.5 -40 -122.5 -40z" />
    <glyph glyph-name="obreve" unicode="&#x14f;" 
d="M254 -10c-43.333 0 -79.5 8.33203 -108.5 24.999s-49.5 40.834 -61.5 72.501s-14.667 69.167 -8 112.5l23 150c7.33301 44 22 81.667 44 113s50.333 55.333 85 72s73.667 25 117 25c44 0 80.333 -8.33301 109 -25s49.167 -40.667 61.5 -72
s15.166 -68.666 8.49902 -111.999l-24 -151c-6.66699 -43.333 -21.167 -80.833 -43.5 -112.5s-50.666 -55.834 -84.999 -72.501s-73.5 -25 -117.5 -25zM267 69.999c39.333 0 71.333 11 96 33s40.334 54.333 47.001 97l23 150c7.33301 42.667 2.16602 75 -15.501 97
s-46.167 33 -85.5 33c-38.667 0 -70.334 -11 -95.001 -33s-40.667 -54.333 -48 -97l-23 -150c-6.66699 -42.667 -1.16699 -75 16.5 -97s45.834 -33 84.501 -33zM357 639.999c-48 0 -84.5 13.333 -109.5 40s-34.167 61.667 -27.5 105h70c-4 -26 0.833008 -47 14.5 -63
s33.834 -24 60.501 -24c27.333 0 50.333 8 69 24s30 37 34 63h72c-6.66699 -43.333 -26.834 -78.333 -60.501 -105s-74.5 -40 -122.5 -40z" />
    <glyph glyph-name="Ohungarumlaut" unicode="&#x150;" 
d="M254 -10c-43.333 0 -79.5 8.33203 -108.5 24.999s-49.5 40.834 -61.5 72.501s-14.667 69.167 -8 112.5l52 330c7.33301 44 22 81.667 44 113s50.167 55.333 84.5 72s73.166 25 116.499 25c44 0 80.5 -8.33301 109.5 -25s49.667 -40.667 62 -72
s14.833 -68.666 7.5 -111.999l-52 -331c-6.66699 -43.333 -21.167 -80.833 -43.5 -112.5s-50.666 -55.834 -84.999 -72.501s-73.5 -25 -117.5 -25zM267 70.999c39.333 0 71.333 11.167 96 33.5s40.334 54.166 47.001 95.499l52 330
c6.66699 41.333 1.16699 73.166 -16.5 95.499s-46.167 33.5 -85.5 33.5c-38.667 0 -70.334 -11.167 -95.001 -33.5s-40.334 -54.166 -47.001 -95.499l-52 -330c-6.66699 -41.333 -1.16699 -73.166 16.5 -95.499s45.834 -33.5 84.501 -33.5zM410 809.999l132 140h95
l-137 -140h-90zM228 809.999l132 140h95l-137 -140h-90z" />
    <glyph glyph-name="ohungarumlaut" unicode="&#x151;" 
d="M254 -10c-43.333 0 -79.5 8.33203 -108.5 24.999s-49.5 40.834 -61.5 72.501s-14.667 69.167 -8 112.5l23 150c7.33301 44 22 81.667 44 113s50.333 55.333 85 72s73.667 25 117 25c44 0 80.333 -8.33301 109 -25s49.167 -40.667 61.5 -72
s15.166 -68.666 8.49902 -111.999l-24 -151c-6.66699 -43.333 -21.167 -80.833 -43.5 -112.5s-50.666 -55.834 -84.999 -72.501s-73.5 -25 -117.5 -25zM267 69.999c39.333 0 71.333 11 96 33s40.334 54.333 47.001 97l23 150c7.33301 42.667 2.16602 75 -15.501 97
s-46.167 33 -85.5 33c-38.667 0 -70.334 -11 -95.001 -33s-40.667 -54.333 -48 -97l-23 -150c-6.66699 -42.667 -1.16699 -75 16.5 -97s45.834 -33 84.501 -33zM384 644.999l132 140h94l-137 -140h-89zM203 644.999l132 140h94l-137 -140h-89z" />
    <glyph glyph-name="OE" unicode="&#x152;" 
d="M149 -10c-32 0 -58.334 7.66895 -79.001 23.002s-34.834 37.333 -42.501 66s-8.5 62.334 -2.5 101.001l58 370c6.66699 39.333 18.334 73.166 35.001 101.499s37.834 50.166 63.501 65.499s54.5 23 86.5 23c23.333 0 42 -4.83301 56 -14.5s24.167 -21.334 30.5 -35.001
s9.5 -27.167 9.5 -40.5h5l13 80h265l-13 -82h-177l-37 -230h152l-13 -82h-152l-40 -254h177l-13 -82h-265l13 80h-5c-4 -12.667 -11.5 -26 -22.5 -40s-25 -25.833 -42 -35.5s-37.167 -14.5 -60.5 -14.5zM186.999 70.002c28 0 51.667 9.83301 71 29.5
s31.666 46.5 36.999 80.5l58 370c5.33301 34 1.66602 60.833 -11.001 80.5s-33 29.5 -61 29.5s-51.667 -9.83301 -71 -29.5s-31.666 -46.5 -36.999 -80.5l-58 -370c-5.33301 -34 -1.66602 -60.833 11.001 -80.5s33 -29.5 61 -29.5z" />
    <glyph glyph-name="oe" unicode="&#x153;" 
d="M134 -10c-44.667 0 -77.668 14.499 -99.001 43.499s-28 67.833 -20 116.5l39 250c8 49.333 27.333 88.333 58 117s68.334 43 113.001 43c26.667 0 47.834 -4.33301 63.501 -13s26.667 -19.167 33 -31.5s9.16602 -24.166 8.49902 -35.499h4
c2.66699 11.333 9.16699 23.166 19.5 35.499s24.833 22.833 43.5 31.5s41.334 13 68.001 13c44.667 0 77.667 -14.333 99 -43s28 -67.667 20 -117l-23 -150h-222l-16 -100c-4 -25.333 -1.16699 -45.5 8.5 -60.5s24.834 -22.5 45.501 -22.5c17.333 0 32.833 5.33301 46.5 16
s23.5 24.667 29.5 42h85c-12.667 -41.333 -33.834 -74.166 -63.501 -98.499s-63.167 -36.5 -100.5 -36.5c-26.667 0 -47.834 4.33301 -63.501 13s-26.667 19.167 -33 31.5s-9.16602 24.166 -8.49902 35.499h-4c-2.66699 -11.333 -9.33398 -23.166 -20.001 -35.499
s-25.167 -22.833 -43.5 -31.5s-40.833 -13 -67.5 -13zM156.999 66.999c20.667 0 38.1689 7.5 52.502 22.5s23.5 35.167 27.5 60.5l39 250c4 25.333 1.16699 45.5 -8.5 60.5s-24.834 22.5 -45.501 22.5c-21.333 0 -39.5 -7.5 -54.5 -22.5s-24.5 -35.167 -28.5 -60.5l-39 -250
c-4 -25.333 -0.833008 -45.5 9.5 -60.5s26.166 -22.5 47.499 -22.5zM350.001 322.999h136.999l12 77c4 25.333 0.833008 45.5 -9.5 60.5s-26.166 22.5 -47.499 22.5c-20.667 0 -38.167 -7.5 -52.5 -22.5s-23.5 -35.167 -27.5 -60.5z" />
    <glyph glyph-name="Racute" unicode="&#x154;" 
d="M48 0l115.997 730.002h226c43.333 0 79.833 -8.83301 109.5 -26.5s51 -42.167 64 -73.5s16.167 -68 9.5 -110c-5.33301 -36 -17.166 -68.333 -35.499 -97s-41.666 -52.334 -69.999 -71.001s-60.166 -31.334 -95.499 -38.001l11 45l118 -359h-102l-95 310h-117l-49 -310
h-90zM199.997 391.002h136.001c37.333 0 69.166 11.833 95.499 35.5s42.5 54.834 48.5 93.501c6.66699 39.333 0.5 70.666 -18.5 93.999s-47.167 35 -84.5 35h-136zM322.998 810.002l128 140h102l-133 -140h-97z" />
    <glyph glyph-name="racute" unicode="&#x155;" 
d="M67 0l86.998 550.001h88l-17 -105h21l-39 -65c9.33301 59.333 29.333 104.166 60 134.499s71.334 45.5 122.001 45.5c58 0 101.167 -18.167 129.5 -54.5s37.833 -85.5 28.5 -147.5l-6 -33h-90l4 25c7.33301 43.333 2.33301 76.5 -15 99.5s-45.333 34.5 -84 34.5
c-38 0 -69.667 -11.667 -95 -35s-41.666 -56.333 -48.999 -99l-55 -350h-90zM316.998 645.001l128 140h102l-133 -140h-97z" />
    <glyph glyph-name="uni0156" unicode="&#x156;" 
d="M48 0l115.997 730.002h226c43.333 0 79.833 -8.83301 109.5 -26.5s51 -42.167 64 -73.5s16.167 -68 9.5 -110c-5.33301 -36 -17.166 -68.333 -35.499 -97s-41.666 -52.334 -69.999 -71.001s-60.166 -31.334 -95.499 -38.001l11 45l118 -359h-102l-95 310h-117l-49 -310
h-90zM199.997 391.002h136.001c37.333 0 69.166 11.833 95.499 35.5s42.5 54.834 48.5 93.501c6.66699 39.333 0.5 70.666 -18.5 93.999s-47.167 35 -84.5 35h-136zM107.998 -239.998l118 145h105l-128 -145h-95z" />
    <glyph glyph-name="uni0157" unicode="&#x157;" 
d="M67 0l86.998 550.001h88l-17 -105h21l-39 -65c9.33301 59.333 29.333 104.166 60 134.499s71.334 45.5 122.001 45.5c58 0 101.167 -18.167 129.5 -54.5s37.833 -85.5 28.5 -147.5l-6 -33h-90l4 25c7.33301 43.333 2.33301 76.5 -15 99.5s-45.333 34.5 -84 34.5
c-38 0 -69.667 -11.667 -95 -35s-41.666 -56.333 -48.999 -99l-55 -350h-90zM-57.002 -239.999l118 145h105l-128 -145h-95z" />
    <glyph glyph-name="Rcaron" unicode="&#x158;" 
d="M48 0l115.997 730.002h226c43.333 0 79.833 -8.83301 109.5 -26.5s51 -42.167 64 -73.5s16.167 -68 9.5 -110c-5.33301 -36 -17.166 -68.333 -35.499 -97s-41.666 -52.334 -69.999 -71.001s-60.166 -31.334 -95.499 -38.001l11 45l118 -359h-102l-95 310h-117l-49 -310
h-90zM199.997 391.002h136.001c37.333 0 69.166 11.833 95.499 35.5s42.5 54.834 48.5 93.501c6.66699 39.333 0.5 70.666 -18.5 93.999s-47.167 35 -84.5 35h-136zM342.998 810.002l-118 140h97l70 -78l92 78h103l-161 -140h-83z" />
    <glyph glyph-name="rcaron" unicode="&#x159;" 
d="M67 0l86.998 550.001h88l-17 -105h21l-39 -65c9.33301 59.333 29.333 104.166 60 134.499s71.334 45.5 122.001 45.5c58 0 101.167 -18.167 129.5 -54.5s37.833 -85.5 28.5 -147.5l-6 -33h-90l4 25c7.33301 43.333 2.33301 76.5 -15 99.5s-45.333 34.5 -84 34.5
c-38 0 -69.667 -11.667 -95 -35s-41.666 -56.333 -48.999 -99l-55 -350h-90zM337.998 645.001l-118 140h97l70 -78l92 78h103l-161 -140h-83z" />
    <glyph glyph-name="Sacute" unicode="&#x15a;" 
d="M258 -10c-71.333 0 -124.668 17.834 -160.001 53.501s-48.666 84.5 -39.999 146.5h90c-6 -36.667 1.83301 -65.667 23.5 -87s54.834 -32 99.501 -32c42 0 76.5 10.333 103.5 31s43.5 49.334 49.5 86.001c4.66699 31.333 0.833984 58 -11.499 80s-31.833 37.333 -58.5 46
l-94 31c-46.667 15.333 -81 40.666 -103 75.999s-29.667 77 -23 125c6.66699 39.333 21 73.5 43 102.5s50.333 51.667 85 68s73.667 24.5 117 24.5c64 0 112.5 -17.833 145.5 -53.5s45.167 -83.167 36.5 -142.5h-90c6 36 -0.166992 64.167 -18.5 84.5
s-47.166 30.5 -86.499 30.5c-38.667 0 -70.334 -9.33301 -95.001 -28s-39.667 -44.667 -45 -78c-4.66699 -30.667 -0.833984 -57.334 11.499 -80.001s32.166 -38.667 59.499 -48l95 -32c46 -15.333 79.667 -41 101 -77s28.333 -78.333 21 -127
c-6 -40 -20.833 -75 -44.5 -105s-53.667 -53.333 -90 -70s-76.833 -25 -121.5 -25zM322.998 810.001l128 140h102l-133 -140h-97z" />
    <glyph glyph-name="sacute" unicode="&#x15b;" 
d="M232 -10c-56.667 0 -99.6689 13.168 -129.002 39.501s-43 61.5 -41 105.5h90c1.33301 -19.333 9.83301 -35 25.5 -47s38.167 -18 67.5 -18h42c35.333 0 62.833 7.5 82.5 22.5s31.5 34.5 35.5 58.5c3.33301 23.333 -1.66699 42.166 -15 56.499
s-34.666 23.833 -63.999 28.5l-72 12c-52.667 8.66699 -90.334 25 -113.001 49s-30.334 59.333 -23.001 106c7.33301 49.333 29 87.833 65 115.5s85.333 41.5 148 41.5h38c52.667 0 93 -12.667 121 -38s42 -59 42 -101h-90c-1.33301 17.333 -9.16602 31.5 -23.499 42.5
s-35.166 16.5 -62.499 16.5h-38c-34 0 -59.833 -6.66699 -77.5 -20s-28.5 -32.666 -32.5 -57.999c-3.33301 -22.667 0.5 -39.667 11.5 -51s30.5 -19.333 58.5 -24l72 -12c57.333 -9.33301 97.833 -26.333 121.5 -51s31.834 -61 24.501 -109
c-8.66699 -50.667 -31.5 -90.834 -68.5 -120.501s-88.167 -44.5 -153.5 -44.5h-42zM306.998 645.001l128 140h102l-133 -140h-97z" />
    <glyph glyph-name="Scircumflex" unicode="&#x15c;" 
d="M258 -10c-71.333 0 -124.668 17.834 -160.001 53.501s-48.666 84.5 -39.999 146.5h90c-6 -36.667 1.83301 -65.667 23.5 -87s54.834 -32 99.501 -32c42 0 76.5 10.333 103.5 31s43.5 49.334 49.5 86.001c4.66699 31.333 0.833984 58 -11.499 80s-31.833 37.333 -58.5 46
l-94 31c-46.667 15.333 -81 40.666 -103 75.999s-29.667 77 -23 125c6.66699 39.333 21 73.5 43 102.5s50.333 51.667 85 68s73.667 24.5 117 24.5c64 0 112.5 -17.833 145.5 -53.5s45.167 -83.167 36.5 -142.5h-90c6 36 -0.166992 64.167 -18.5 84.5
s-47.166 30.5 -86.499 30.5c-38.667 0 -70.334 -9.33301 -95.001 -28s-39.667 -44.667 -45 -78c-4.66699 -30.667 -0.833984 -57.334 11.499 -80.001s32.166 -38.667 59.499 -48l95 -32c46 -15.333 79.667 -41 101 -77s28.333 -78.333 21 -127
c-6 -40 -20.833 -75 -44.5 -105s-53.667 -53.333 -90 -70s-76.833 -25 -121.5 -25zM202.998 810.001l161 140h83l118 -140h-97l-69 78l-93 -78h-103z" />
    <glyph glyph-name="scircumflex" unicode="&#x15d;" 
d="M232 -10c-56.667 0 -99.6689 13.168 -129.002 39.501s-43 61.5 -41 105.5h90c1.33301 -19.333 9.83301 -35 25.5 -47s38.167 -18 67.5 -18h42c35.333 0 62.833 7.5 82.5 22.5s31.5 34.5 35.5 58.5c3.33301 23.333 -1.66699 42.166 -15 56.499
s-34.666 23.833 -63.999 28.5l-72 12c-52.667 8.66699 -90.334 25 -113.001 49s-30.334 59.333 -23.001 106c7.33301 49.333 29 87.833 65 115.5s85.333 41.5 148 41.5h38c52.667 0 93 -12.667 121 -38s42 -59 42 -101h-90c-1.33301 17.333 -9.16602 31.5 -23.499 42.5
s-35.166 16.5 -62.499 16.5h-38c-34 0 -59.833 -6.66699 -77.5 -20s-28.5 -32.666 -32.5 -57.999c-3.33301 -22.667 0.5 -39.667 11.5 -51s30.5 -19.333 58.5 -24l72 -12c57.333 -9.33301 97.833 -26.333 121.5 -51s31.834 -61 24.501 -109
c-8.66699 -50.667 -31.5 -90.834 -68.5 -120.501s-88.167 -44.5 -153.5 -44.5h-42zM186.998 645.001l161 140h83l118 -140h-97l-69 78l-93 -78h-103z" />
    <glyph glyph-name="Scedilla" unicode="&#x15e;" 
d="M129 -203l8.99902 54.999h70c14.667 0 27 3.83301 37 11.5s15.667 15.834 17 24.501c2 11.333 -5.5 21.333 -22.5 30s-42.167 13 -75.5 13l50 95h57l-31 -61c17.333 -2 34.833 -6.33301 52.5 -13s31.834 -16 42.501 -28s14.667 -26.667 12 -44
c-3.33301 -22.667 -17.333 -42.167 -42 -58.5s-55 -24.5 -91 -24.5h-85zM257.999 -10.001c-71.333 0 -124.668 17.834 -160.001 53.501s-48.666 84.5 -39.999 146.5h90c-6 -36.667 1.83301 -65.667 23.5 -87s54.834 -32 99.501 -32c42 0 76.5 10.333 103.5 31
s43.5 49.334 49.5 86.001c4.66699 31.333 0.833984 58 -11.499 80s-31.833 37.333 -58.5 46l-94 31c-46.667 15.333 -81 40.666 -103 75.999s-29.667 77 -23 125c6.66699 39.333 21 73.5 43 102.5s50.333 51.667 85 68s73.667 24.5 117 24.5c64 0 112.5 -17.833 145.5 -53.5
s45.167 -83.167 36.5 -142.5h-90c6 36 -0.166992 64.167 -18.5 84.5s-47.166 30.5 -86.499 30.5c-38.667 0 -70.334 -9.33301 -95.001 -28s-39.667 -44.667 -45 -78c-4.66699 -30.667 -0.833984 -57.334 11.499 -80.001s32.166 -38.667 59.499 -48l95 -32
c46 -15.333 79.667 -41 101 -77s28.333 -78.333 21 -127c-6 -40 -20.833 -75 -44.5 -105s-53.667 -53.333 -90 -70s-76.833 -25 -121.5 -25z" />
    <glyph glyph-name="scedilla" unicode="&#x15f;" 
d="M215 -203l-0.00195312 54.999h70c14.667 0 26.5 3.83301 35.5 11.5s13.5 15.834 13.5 24.501c0 11.333 -9.16699 21.333 -27.5 30s-44.166 13 -77.499 13l35 95h57l-21 -61c17.333 -2 35.333 -6.33301 54 -13s34.334 -16 47.001 -28s19 -26.667 19 -44
c0 -22.667 -11 -42.167 -33 -58.5s-51 -24.5 -87 -24.5h-85zM231.998 -10.001c-56.667 0 -99.6689 13.168 -129.002 39.501s-43 61.5 -41 105.5h90c1.33301 -19.333 9.83301 -35 25.5 -47s38.167 -18 67.5 -18h42c35.333 0 62.833 7.5 82.5 22.5s31.5 34.5 35.5 58.5
c3.33301 23.333 -1.66699 42.166 -15 56.499s-34.666 23.833 -63.999 28.5l-72 12c-52.667 8.66699 -90.334 25 -113.001 49s-30.334 59.333 -23.001 106c7.33301 49.333 29 87.833 65 115.5s85.333 41.5 148 41.5h38c52.667 0 93 -12.667 121 -38s42 -59 42 -101h-90
c-1.33301 17.333 -9.16602 31.5 -23.499 42.5s-35.166 16.5 -62.499 16.5h-38c-34 0 -59.833 -6.66699 -77.5 -20s-28.5 -32.666 -32.5 -57.999c-3.33301 -22.667 0.5 -39.667 11.5 -51s30.5 -19.333 58.5 -24l72 -12c57.333 -9.33301 97.833 -26.333 121.5 -51
s31.834 -61 24.501 -109c-8.66699 -50.667 -31.5 -90.834 -68.5 -120.501s-88.167 -44.5 -153.5 -44.5h-42z" />
    <glyph glyph-name="Scaron" unicode="&#x160;" 
d="M258 -10c-71.333 0 -124.668 17.834 -160.001 53.501s-48.666 84.5 -39.999 146.5h90c-6 -36.667 1.83301 -65.667 23.5 -87s54.834 -32 99.501 -32c42 0 76.5 10.333 103.5 31s43.5 49.334 49.5 86.001c4.66699 31.333 0.833984 58 -11.499 80s-31.833 37.333 -58.5 46
l-94 31c-46.667 15.333 -81 40.666 -103 75.999s-29.667 77 -23 125c6.66699 39.333 21 73.5 43 102.5s50.333 51.667 85 68s73.667 24.5 117 24.5c64 0 112.5 -17.833 145.5 -53.5s45.167 -83.167 36.5 -142.5h-90c6 36 -0.166992 64.167 -18.5 84.5
s-47.166 30.5 -86.499 30.5c-38.667 0 -70.334 -9.33301 -95.001 -28s-39.667 -44.667 -45 -78c-4.66699 -30.667 -0.833984 -57.334 11.499 -80.001s32.166 -38.667 59.499 -48l95 -32c46 -15.333 79.667 -41 101 -77s28.333 -78.333 21 -127
c-6 -40 -20.833 -75 -44.5 -105s-53.667 -53.333 -90 -70s-76.833 -25 -121.5 -25zM342.998 810.001l-118 140h97l70 -78l92 78h103l-161 -140h-83z" />
    <glyph glyph-name="scaron" unicode="&#x161;" 
d="M232 -10c-56.667 0 -99.6689 13.168 -129.002 39.501s-43 61.5 -41 105.5h90c1.33301 -19.333 9.83301 -35 25.5 -47s38.167 -18 67.5 -18h42c35.333 0 62.833 7.5 82.5 22.5s31.5 34.5 35.5 58.5c3.33301 23.333 -1.66699 42.166 -15 56.499
s-34.666 23.833 -63.999 28.5l-72 12c-52.667 8.66699 -90.334 25 -113.001 49s-30.334 59.333 -23.001 106c7.33301 49.333 29 87.833 65 115.5s85.333 41.5 148 41.5h38c52.667 0 93 -12.667 121 -38s42 -59 42 -101h-90c-1.33301 17.333 -9.16602 31.5 -23.499 42.5
s-35.166 16.5 -62.499 16.5h-38c-34 0 -59.833 -6.66699 -77.5 -20s-28.5 -32.666 -32.5 -57.999c-3.33301 -22.667 0.5 -39.667 11.5 -51s30.5 -19.333 58.5 -24l72 -12c57.333 -9.33301 97.833 -26.333 121.5 -51s31.834 -61 24.501 -109
c-8.66699 -50.667 -31.5 -90.834 -68.5 -120.501s-88.167 -44.5 -153.5 -44.5h-42zM327.998 645.001l-118 140h97l70 -78l92 78h103l-161 -140h-83z" />
    <glyph glyph-name="uni0162" unicode="&#x162;" 
d="M172 -203l8.99902 54.999h70c14.667 0 27 3.83301 37 11.5s15.667 15.834 17 24.501c2 11.333 -5.5 21.333 -22.5 30s-42.167 13 -75.5 13l50 95l44 -26l-18 -35c17.333 -2 34.833 -6.33301 52.5 -13s31.834 -16 42.501 -28s14.667 -26.667 12 -44
c-3.33301 -22.667 -17.333 -42.167 -42 -58.5s-55 -24.5 -91 -24.5h-85zM210.999 -0.000976562l103 649h-200l13 82h490l-13 -82h-200l-103 -649h-90z" />
    <glyph glyph-name="uni0163" unicode="&#x163;" 
d="M265 -203l-0.00195312 54.999h70c14.667 0 26.5 3.83301 35.5 11.5s13.5 15.834 13.5 24.501c0 11.333 -9.16699 21.333 -27.5 30s-44.166 13 -77.499 13l35 95h57l-21 -61c17.333 -2 35.333 -6.33301 54 -13s34.334 -16 47.001 -28s19 -26.667 19 -44
c0 -22.667 -11 -42.167 -33 -58.5s-51 -24.5 -87 -24.5h-85zM315.998 -0.000976562c-47.333 0 -82.167 12.667 -104.5 38s-29.833 61 -22.5 107l51 323h-155l13 82h155l24 150h90l-24 -150h220l-13 -82h-220l-51 -323c-6.66699 -42 10 -63 50 -63h150l-13 -82h-150z" />
    <glyph glyph-name="Tcaron" unicode="&#x164;" 
d="M211 0l103 649h-200l13 82h490l-13 -82h-200l-103 -649h-90zM343 810l-118 140h97l70 -78l92 78h103l-161 -140h-83z" />
    <glyph glyph-name="tcaron" unicode="&#x165;" 
d="M423 620l115 156h96l-125 -156h-86zM316 0c-47.333 0 -82.167 12.667 -104.5 38s-29.833 61 -22.5 107l51 323h-155l13 82h155l24 150h90l-24 -150h220l-13 -82h-220l-51 -323c-6.66699 -42 10 -63 50 -63h150l-13 -82h-150z" />
    <glyph glyph-name="Tbar" unicode="&#x166;" 
d="M113 295l12 75h380l-12 -75h-380zM211 0l103 649h-200l13 82h490l-13 -82h-200l-103 -649h-90z" />
    <glyph glyph-name="tbar" unicode="&#x167;" 
d="M79 239l12 75h390l-12 -75h-390zM316 0c-47.333 0 -82.167 12.667 -104.5 38s-29.833 61 -22.5 107l51 323h-155l13 82h155l24 150h90l-24 -150h220l-13 -82h-220l-51 -323c-6.66699 -42 10 -63 50 -63h150l-13 -82h-150z" />
    <glyph glyph-name="Utilde" unicode="&#x168;" 
d="M254 -10c-68 0 -117.001 18.833 -147.001 56.5s-39.667 88.834 -29 153.501l84 530h90l-84 -530c-6.66699 -40 -2 -71.667 14 -95s44.333 -35 85 -35c40 0 71.833 11.667 95.5 35s38.834 55 45.501 95l84 530h90l-84 -530c-6.66699 -43.333 -20.667 -80.833 -42 -112.5
s-48.833 -55.834 -82.5 -72.501s-73.5 -25 -119.5 -25zM454.999 815c-20 0 -35.666 3.5 -46.999 10.5s-20.666 15.167 -27.999 24.5s-14.5 17.5 -21.5 24.5s-16.167 10.5 -27.5 10.5c-8.66699 0 -16.334 -2.83301 -23.001 -8.5s-10.667 -14.5 -12 -26.5l-5 -30h-65l5 30
c4.66699 30 16.667 53.333 36 70s42.333 25 69 25c20 0 35.667 -3.5 47 -10.5s20.666 -15.167 27.999 -24.5s14.5 -17.5 21.5 -24.5s16.167 -10.5 27.5 -10.5c9.33301 0 17 2.83301 23 8.5s10 14.5 12 26.5l5 30h65l-5 -30c-4.66699 -30 -16.5 -53.333 -35.5 -70
s-42.167 -25 -69.5 -25z" />
    <glyph glyph-name="utilde" unicode="&#x169;" 
d="M253 -10c-63.333 0 -110.999 18.833 -142.999 56.5s-42.667 88.834 -32 153.501l55 350h90l-55 -350c-6.66699 -41.333 -1.16699 -73.5 16.5 -96.5s44.834 -34.5 81.501 -34.5c37.333 0 68.666 11.5 93.999 34.5s41.333 55.167 48 96.5l55 350h90l-55 -350
c-6.66699 -42.667 -21.334 -79.834 -44.001 -111.501s-51.167 -56 -85.5 -73s-72.833 -25.5 -115.5 -25.5zM429.001 650c-20 0 -35.665 3.5 -46.998 10.5s-20.666 15.167 -27.999 24.5s-14.5 17.5 -21.5 24.5s-16.167 10.5 -27.5 10.5
c-8.66699 0 -16.334 -2.83301 -23.001 -8.5s-11 -14.5 -13 -26.5l-4 -30h-65l4 30c5.33301 30 17.666 53.333 36.999 70s42.333 25 69 25c20 0 35.667 -3.5 47 -10.5s20.5 -15.167 27.5 -24.5s14 -17.5 21 -24.5s16.167 -10.5 27.5 -10.5
c9.33301 0 17.166 2.83301 23.499 8.5s10.5 14.5 12.5 26.5l5 30h65l-5 -30c-4.66699 -30 -16.5 -53.333 -35.5 -70s-42.167 -25 -69.5 -25z" />
    <glyph glyph-name="Umacron" unicode="&#x16a;" 
d="M254 -10c-68 0 -117.001 18.833 -147.001 56.5s-39.667 88.834 -29 153.501l84 530h90l-84 -530c-6.66699 -40 -2 -71.667 14 -95s44.333 -35 85 -35c40 0 71.833 11.667 95.5 35s38.834 55 45.501 95l84 530h90l-84 -530c-6.66699 -43.333 -20.667 -80.833 -42 -112.5
s-48.833 -55.834 -82.5 -72.501s-73.5 -25 -119.5 -25zM228.999 840l12 75h320l-12 -75h-320z" />
    <glyph glyph-name="umacron" unicode="&#x16b;" 
d="M253 -10c-63.333 0 -110.999 18.833 -142.999 56.5s-42.667 88.834 -32 153.501l55 350h90l-55 -350c-6.66699 -41.333 -1.16699 -73.5 16.5 -96.5s44.834 -34.5 81.501 -34.5c37.333 0 68.666 11.5 93.999 34.5s41.333 55.167 48 96.5l55 350h90l-55 -350
c-6.66699 -42.667 -21.334 -79.834 -44.001 -111.501s-51.167 -56 -85.5 -73s-72.833 -25.5 -115.5 -25.5zM202.001 670l12 75h320l-12 -75h-320z" />
    <glyph glyph-name="Ubreve" unicode="&#x16c;" 
d="M254 -10c-68 0 -117.001 18.833 -147.001 56.5s-39.667 88.834 -29 153.501l84 530h90l-84 -530c-6.66699 -40 -2 -71.667 14 -95s44.333 -35 85 -35c40 0 71.833 11.667 95.5 35s38.834 55 45.501 95l84 530h90l-84 -530c-6.66699 -43.333 -20.667 -80.833 -42 -112.5
s-48.833 -55.834 -82.5 -72.501s-73.5 -25 -119.5 -25zM382.999 805c-48 0 -84.5 13.333 -109.5 40s-34.167 61.667 -27.5 105h70c-4 -26 0.833008 -47 14.5 -63s33.834 -24 60.501 -24c27.333 0 50.333 8 69 24s30 37 34 63h72
c-6.66699 -43.333 -26.834 -78.333 -60.501 -105s-74.5 -40 -122.5 -40z" />
    <glyph glyph-name="ubreve" unicode="&#x16d;" 
d="M253 -10c-63.333 0 -110.999 18.833 -142.999 56.5s-42.667 88.834 -32 153.501l55 350h90l-55 -350c-6.66699 -41.333 -1.16699 -73.5 16.5 -96.5s44.834 -34.5 81.501 -34.5c37.333 0 68.666 11.5 93.999 34.5s41.333 55.167 48 96.5l55 350h90l-55 -350
c-6.66699 -42.667 -21.334 -79.834 -44.001 -111.501s-51.167 -56 -85.5 -73s-72.833 -25.5 -115.5 -25.5zM357.001 640c-48 0 -84.5 13.333 -109.5 40s-34.167 61.667 -27.5 105h70c-4 -26 0.833008 -47 14.5 -63s33.834 -24 60.501 -24c27.333 0 50.333 8 69 24
s30 37 34 63h72c-6.66699 -43.333 -26.834 -78.333 -60.501 -105s-74.5 -40 -122.5 -40z" />
    <glyph glyph-name="Uring" unicode="&#x16e;" 
d="M254 -10c-68 0 -117.001 18.833 -147.001 56.5s-39.667 88.834 -29 153.501l84 530h90l-84 -530c-6.66699 -40 -2 -71.667 14 -95s44.333 -35 85 -35c40 0 71.833 11.667 95.5 35s38.834 55 45.501 95l84 530h90l-84 -530c-6.66699 -43.333 -20.667 -80.833 -42 -112.5
s-48.833 -55.834 -82.5 -72.501s-73.5 -25 -119.5 -25zM376.999 766c-36 0 -63.167 10.5 -81.5 31.5s-25.166 48.5 -20.499 82.5c5.33301 34 20.666 61.5 45.999 82.5s56 31.5 92 31.5s63.333 -10.5 82 -31.5s25.334 -48.5 20.001 -82.5
c-4.66699 -34 -19.834 -61.5 -45.501 -82.5s-56.5 -31.5 -92.5 -31.5zM385.999 819c18 0 33.333 5.5 46 16.5s20.334 25.833 23.001 44.5c3.33301 18.667 0.333008 33.667 -9 45s-23 17 -41 17s-33.333 -5.66699 -46 -17s-20.667 -26.333 -24 -45
c-2.66699 -18.667 0.666016 -33.5 9.99902 -44.5s23 -16.5 41 -16.5z" />
    <glyph glyph-name="uring" unicode="&#x16f;" 
d="M253 -10c-63.333 0 -110.999 18.833 -142.999 56.5s-42.667 88.834 -32 153.501l55 350h90l-55 -350c-6.66699 -41.333 -1.16699 -73.5 16.5 -96.5s44.834 -34.5 81.501 -34.5c37.333 0 68.666 11.5 93.999 34.5s41.333 55.167 48 96.5l55 350h90l-55 -350
c-6.66699 -42.667 -21.334 -79.834 -44.001 -111.501s-51.167 -56 -85.5 -73s-72.833 -25.5 -115.5 -25.5zM352.001 608c-36 0 -63.167 10.5 -81.5 31.5s-25.166 48.5 -20.499 82.5c5.33301 34 20.666 61.5 45.999 82.5s56 31.5 92 31.5s63.333 -10.5 82 -31.5
s25.334 -48.5 20.001 -82.5c-4.66699 -34 -19.834 -61.5 -45.501 -82.5s-56.5 -31.5 -92.5 -31.5zM361.001 661c18 0 33.333 5.5 46 16.5s20.334 25.833 23.001 44.5c3.33301 18.667 0.333008 33.667 -9 45s-23 17 -41 17s-33.333 -5.66699 -46 -17s-20.667 -26.333 -24 -45
c-2.66699 -18.667 0.666016 -33.5 9.99902 -44.5s23 -16.5 41 -16.5z" />
    <glyph glyph-name="Uhungarumlaut" unicode="&#x170;" 
d="M254 -10c-68 0 -117.001 18.833 -147.001 56.5s-39.667 88.834 -29 153.501l84 530h90l-84 -530c-6.66699 -40 -2 -71.667 14 -95s44.333 -35 85 -35c40 0 71.833 11.667 95.5 35s38.834 55 45.501 95l84 530h90l-84 -530c-6.66699 -43.333 -20.667 -80.833 -42 -112.5
s-48.833 -55.834 -82.5 -72.501s-73.5 -25 -119.5 -25zM409.999 810l132 140h95l-137 -140h-90zM227.999 810l132 140h95l-137 -140h-90z" />
    <glyph glyph-name="uhungarumlaut" unicode="&#x171;" 
d="M253 -10c-63.333 0 -110.999 18.833 -142.999 56.5s-42.667 88.834 -32 153.501l55 350h90l-55 -350c-6.66699 -41.333 -1.16699 -73.5 16.5 -96.5s44.834 -34.5 81.501 -34.5c37.333 0 68.666 11.5 93.999 34.5s41.333 55.167 48 96.5l55 350h90l-55 -350
c-6.66699 -42.667 -21.334 -79.834 -44.001 -111.501s-51.167 -56 -85.5 -73s-72.833 -25.5 -115.5 -25.5zM384.001 645l132 140h94l-137 -140h-89zM203.001 645l132 140h94l-137 -140h-89z" />
    <glyph glyph-name="Uogonek" unicode="&#x172;" 
d="M303 -203c-36.667 0 -64.8311 8.83105 -84.498 26.498s-27.167 39.834 -22.5 66.501c1.33301 9.33301 5 19.5 11 30.5s14.167 22.5 24.5 34.5s22.166 23.667 35.499 35h-6.5h-6.5c-43.333 0 -79.333 8.33301 -108 25s-48.834 40.834 -60.501 72.501
s-14.167 69.167 -7.5 112.5l84 530h90l-84 -530c-6.66699 -41.333 -1.5 -73.166 15.5 -95.499s44.833 -33.5 83.5 -33.5c39.333 0 71 11.167 95 33.5s39.333 54.166 46 95.499l84 530h90l-84 -530c-6.66699 -39.333 -19 -74 -37 -104s-41.667 -53.667 -71 -71l-33 -24
c-24.667 -18.667 -42.5 -35.5 -53.5 -50.5s-17.833 -29.5 -20.5 -43.5c-2 -14.667 1.16699 -26.667 9.5 -36s20.833 -14 37.5 -14h60l-9 -60h-78z" />
    <glyph glyph-name="uogonek" unicode="&#x173;" 
d="M296 -203c-36.667 0 -64.835 8.8291 -84.502 26.4961s-27.167 39.834 -22.5 66.501c2 14.667 8.33301 29.834 19 45.501s29 33.834 55 54.501h-2.5h-3h-3.5c-65.333 0 -113.666 18.667 -144.999 56s-41.666 88.666 -30.999 153.999l55 350h90l-55 -350
c-6.66699 -42.667 -1.5 -75 15.5 -97s44.833 -33 83.5 -33c39.333 0 71 11 95 33s39.333 54.333 46 97l55 350h90l-55 -350c-6.66699 -41.333 -19.834 -77.166 -39.501 -107.499s-45.167 -54.166 -76.5 -71.499l-27 -20c-25.333 -18.667 -44.166 -35.5 -56.499 -50.5
s-19.833 -29.5 -22.5 -43.5c-2 -14.667 1.16699 -26.667 9.5 -36s20.833 -14 37.5 -14h60l-9 -60h-78z" />
    <glyph glyph-name="Wcircumflex" unicode="&#x174;" 
d="M65 0l32 730h84l-31 -540c-0.666992 -14.667 -1.66699 -29.834 -3 -45.501s-2.66602 -30.5 -3.99902 -44.5s-2.66602 -25.667 -3.99902 -35c2.66699 9.33301 5.66699 21 9 35s7.16602 28.833 11.499 44.5l12.5 45.5l154 540h95l-24 -540l-2 -45.5
c-0.666992 -15.667 -1.33398 -30.5 -2.00098 -44.5s-1.33398 -25.667 -2.00098 -35c2.66699 9.33301 5.5 21 8.5 35s6.5 28.833 10.5 44.5l12 45.5l143 540h82l-202 -730h-113l25 550c0.666992 15.333 1.5 30.333 2.5 45s1.83301 28.334 2.5 41.001s1.33398 23 2.00098 31
l-8 -31l-11 -41c-4 -14.667 -8.33301 -29.667 -13 -45l-154 -550h-113zM203 810l161 140h83l118 -140h-97l-69 78l-93 -78h-103z" />
    <glyph glyph-name="wcircumflex" unicode="&#x175;" 
d="M79 0l-0.999023 550.001h77l-7 -390c-0.666992 -14.667 -1 -30.5 -1 -47.5s-0.333008 -31.167 -1 -42.5l13 42.5l15 47.5l124 390h88l-1 -390c0 -14.667 0.166992 -30.5 0.5 -47.5s0.166016 -31.167 -0.500977 -42.5l13 42.5l15 47.5l119 390h76l-179 -550h-99l1 380v56
v44c-2.66699 -10.667 -7 -25.334 -13 -44.001l-18 -56l-122 -380h-99zM177.001 645.001l161 140h83l118 -140h-97l-69 78l-93 -78h-103z" />
    <glyph glyph-name="Ycircumflex" unicode="&#x176;" 
d="M211 0l43 273l-147 457h91l97 -300c5.33301 -16.667 9.5 -30.834 12.5 -42.501s4.83301 -20.167 5.5 -25.5c2.66699 5.33301 7.16699 13.833 13.5 25.5s14.833 25.834 25.5 42.501l190 300h95l-293 -457l-43 -273h-90zM203 810l161 140h83l118 -140h-97l-69 78l-93 -78
h-103z" />
    <glyph glyph-name="ycircumflex" unicode="&#x177;" 
d="M90 -180l13 81.999h175c28 0 49.667 6.33301 65 19s25 32.334 29 59.001l12 75l17 100h-19l22 21c-6.66699 -42.667 -25 -76 -55 -100s-68 -36 -114 -36c-54.667 0 -95.834 17 -123.501 51s-36.834 80.333 -27.501 139l51 320h90l-49 -310
c-6.66699 -38.667 -1.16699 -69 16.5 -91s44.5 -33 80.5 -33c37.333 0 68.833 11.667 94.5 35s41.834 56.333 48.501 99l47 300h90l-91 -570c-7.33301 -49.333 -28.666 -88.333 -63.999 -117s-80 -43 -134 -43h-174zM177 644.999l161 140h83l118 -140h-97l-69 78l-93 -78
h-103z" />
    <glyph glyph-name="Ydieresis" unicode="&#x178;" 
d="M211 0l43 273l-147 457h91l97 -300c5.33301 -16.667 9.5 -30.834 12.5 -42.501s4.83301 -20.167 5.5 -25.5c2.66699 5.33301 7.16699 13.833 13.5 25.5s14.833 25.834 25.5 42.501l190 300h95l-293 -457l-43 -273h-90zM496 817c-19.333 0 -33.833 5.66699 -43.5 17
s-13.167 26.666 -10.5 45.999c3.33301 20 11.833 35.833 25.5 47.5s30.167 17.5 49.5 17.5s33.833 -5.83301 43.5 -17.5s12.834 -27.5 9.50098 -47.5c-2.66699 -19.333 -10.834 -34.666 -24.501 -45.999s-30.167 -17 -49.5 -17zM274 817c-19.333 0 -33.833 5.66699 -43.5 17
s-13.167 26.666 -10.5 45.999c3.33301 20 11.833 35.833 25.5 47.5s30.167 17.5 49.5 17.5s33.833 -5.83301 43.5 -17.5s12.834 -27.5 9.50098 -47.5c-2.66699 -19.333 -10.834 -34.666 -24.501 -45.999s-30.167 -17 -49.5 -17z" />
    <glyph glyph-name="Zacute" unicode="&#x179;" 
d="M41 0l14 90l415 558h-321l13 82h415l-15 -90l-414 -558h336l-13 -82h-430zM323 810l128 140h102l-133 -140h-97z" />
    <glyph glyph-name="zacute" unicode="&#x17a;" 
d="M46 0l14 90l364 378h-296l13 82h401l-14 -90l-370 -378h321l-13 -82h-420zM297 645l128 140h102l-133 -140h-97z" />
    <glyph glyph-name="Zdotaccent" unicode="&#x17b;" 
d="M41 0l14 90l415 558h-321l13 82h415l-15 -90l-414 -558h336l-13 -82h-430zM385 816c-22 0 -38.333 5.83301 -49 17.5s-14.667 27.167 -12 46.5c3.33301 19.333 12.333 34.833 27 46.5s33 17.5 55 17.5s38.333 -5.83301 49 -17.5s14.334 -27.167 11.001 -46.5
c-2.66699 -19.333 -11.334 -34.833 -26.001 -46.5s-33 -17.5 -55 -17.5z" />
    <glyph glyph-name="zdotaccent" unicode="&#x17c;" 
d="M46 0l14 90l364 378h-296l13 82h401l-14 -90l-370 -378h321l-13 -82h-420zM359 649c-22 0 -38.3311 5.66699 -48.998 17s-14.667 26.666 -12 45.999c3.33301 20 12.166 35.833 26.499 47.5s32.5 17.5 54.5 17.5s38.5 -5.83301 49.5 -17.5s14.833 -27.5 11.5 -47.5
c-2.66699 -19.333 -11.334 -34.666 -26.001 -45.999s-33 -17 -55 -17z" />
    <glyph glyph-name="Zcaron" unicode="&#x17d;" 
d="M41 0l14 90l415 558h-321l13 82h415l-15 -90l-414 -558h336l-13 -82h-430zM343 810l-118 140h97l70 -78l92 78h103l-161 -140h-83z" />
    <glyph glyph-name="zcaron" unicode="&#x17e;" 
d="M46 0l14 90l364 378h-296l13 82h401l-14 -90l-370 -378h321l-13 -82h-420zM318 645l-118 140h97l70 -78l92 78h103l-161 -140h-83z" />
    <glyph glyph-name="longs" unicode="&#x17f;" 
d="M-47 -180l13 82h113c28 0 49.667 6.33301 65 19s25 32.334 29 59.001l93 590c5.33301 33.333 16.666 61.833 33.999 85.5s40 42 68 55s60 19.5 96 19.5h174l-13 -82h-175c-28 0 -49.667 -6.33301 -65 -19s-25 -32.334 -29 -59.001l-93 -590
c-7.33301 -49.333 -28.666 -88.333 -63.999 -117s-80 -43 -134 -43h-112z" />
    <glyph glyph-name="uni018F" unicode="&#x18f;" 
d="M254 -10c-43.333 0 -79.168 8.66797 -107.501 26.001s-48.5 41.833 -60.5 73.5s-14.667 68.5 -8 110.5l31 200h330l21 131c6.66699 41.333 1.66699 73.166 -15 95.499s-44.667 33.5 -84 33.5c-38.667 0 -70.167 -11.333 -94.5 -34s-39.833 -54.667 -46.5 -96h-90
c6.66699 43.333 20.834 80.666 42.501 111.999s49.667 55.5 84 72.5s73.166 25.5 116.499 25.5c66.667 0 115.5 -18.667 146.5 -56s41.167 -88.666 30.5 -153.999l-52 -330c-6.66699 -42 -21 -78.833 -43 -110.5s-50.167 -56.167 -84.5 -73.5s-73.166 -26 -116.499 -26z
M265.998 65.001c41.333 0 73.666 11.667 96.999 35s38.333 56.666 45 99.999l20 130h-247l9 8l-22 -138c-6.66699 -43.333 -2.16699 -76.666 13.5 -99.999s43.834 -35 84.501 -35z" />
    <glyph glyph-name="florin" unicode="&#x192;" 
d="M-73 -180l12.9961 81.999h105c35.333 0 65 10.167 89 30.5s38.667 47.833 44 82.5l48 298h-160l13 82h160l31 196c7.33301 44 26.333 78.167 57 102.5s70.334 36.5 119.001 36.5h161l-13 -80h-161c-21.333 0 -38.166 -5 -50.499 -15s-20.166 -25 -23.499 -45l-30 -195
h225l-13 -82h-225l-48 -298c-6 -39.333 -19.833 -73.666 -41.5 -102.999s-49.167 -52 -82.5 -68s-70.666 -24 -111.999 -24h-105z" />
    <glyph glyph-name="Ohorn" unicode="&#x1a0;" 
d="M457 635l10.002 65h20c10.667 0 19.667 3.16699 27 9.5s11.666 14.833 12.999 25.5l12 75h75l-12 -80c-4.66699 -28.667 -17.834 -51.667 -39.501 -69s-48.5 -26 -80.5 -26h-25zM254.002 -10c-43.333 0 -79.5 8.33203 -108.5 24.999s-49.5 40.834 -61.5 72.501
s-14.667 69.167 -8 112.5l52 330c7.33301 44 22 81.667 44 113s50.167 55.333 84.5 72s73.166 25 116.499 25c44 0 80.5 -8.33301 109.5 -25s49.667 -40.667 62 -72s14.833 -68.666 7.5 -111.999l-52 -331c-6.66699 -43.333 -21.167 -80.833 -43.5 -112.5
s-50.666 -55.834 -84.999 -72.501s-73.5 -25 -117.5 -25zM267.002 70.999c39.333 0 71.333 11.167 96 33.5s40.334 54.166 47.001 95.499l52 330c6.66699 41.333 1.16699 73.166 -16.5 95.499s-46.167 33.5 -85.5 33.5c-38.667 0 -70.334 -11.167 -95.001 -33.5
s-40.334 -54.166 -47.001 -95.499l-52 -330c-6.66699 -41.333 -1.16699 -73.166 16.5 -95.499s45.834 -33.5 84.501 -33.5z" />
    <glyph glyph-name="ohorn" unicode="&#x1a1;" 
d="M426 465l10 65h34c11.333 0 20.5 3 27.5 9s11.167 14.667 12.5 26l12 75h75l-12 -80c-4.66699 -28.667 -18 -51.667 -40 -69s-48.667 -26 -80 -26h-39zM254 -10c-43.333 0 -79.5 8.33203 -108.5 24.999s-49.5 40.834 -61.5 72.501s-14.667 69.167 -8 112.5l23 150
c7.33301 44 22 81.667 44 113s50.333 55.333 85 72s73.667 25 117 25c44 0 80.333 -8.33301 109 -25s49.167 -40.667 61.5 -72s15.166 -68.666 8.49902 -111.999l-24 -151c-6.66699 -43.333 -21.167 -80.833 -43.5 -112.5s-50.666 -55.834 -84.999 -72.501
s-73.5 -25 -117.5 -25zM267 69.999c39.333 0 71.333 11 96 33s40.334 54.333 47.001 97l23 150c7.33301 42.667 2.16602 75 -15.501 97s-46.167 33 -85.5 33c-38.667 0 -70.334 -11 -95.001 -33s-40.667 -54.333 -48 -97l-23 -150c-6.66699 -42.667 -1.16699 -75 16.5 -97
s45.834 -33 84.501 -33z" />
    <glyph glyph-name="Uhorn" unicode="&#x1af;" 
d="M496 665l11.002 65h50c10.667 0 19.667 3.16699 27 9.5s11.666 14.833 12.999 25.5l12 75h75l-13 -80c-4.66699 -28.667 -17.834 -51.667 -39.501 -69s-48.5 -26 -80.5 -26h-55zM254.002 -10c-68 0 -117.001 18.833 -147.001 56.5s-39.667 88.834 -29 153.501l84 530h90
l-84 -530c-6.66699 -40 -2 -71.667 14 -95s44.333 -35 85 -35c40 0 71.833 11.667 95.5 35s38.834 55 45.501 95l84 530h90l-84 -530c-6.66699 -43.333 -20.667 -80.833 -42 -112.5s-48.833 -55.834 -82.5 -72.501s-73.5 -25 -119.5 -25z" />
    <glyph glyph-name="uhorn" unicode="&#x1b0;" 
d="M78 200l55.001 350h90l-55 -350c-6.66699 -41.333 -1.16699 -73.5 16.5 -96.5s44.834 -34.5 81.501 -34.5c37.333 0 68.666 11.5 93.999 34.5s41.333 55.167 48 96.5l55 350h70c11.333 0 20.5 3 27.5 9s11.5 14.667 13.5 26l12 75h75l-13 -80
c-4.66699 -28.667 -15.5 -51.667 -32.5 -69s-41.167 -26 -72.5 -26l-45 -285c-6.66699 -42.667 -21.334 -79.834 -44.001 -111.501s-51.167 -56 -85.5 -73s-72.833 -25.5 -115.5 -25.5c-63.333 0 -111 18.833 -143 56.5s-42.667 88.834 -32 153.501z" />
    <glyph glyph-name="uni01CD" unicode="&#x1cd;" 
d="M6 0l306 730h121l73 -730h-88l-17 194h-221l-79 -194h-95zM210 270l183.999 -0.000976562l-21 225c-3.33301 42.667 -5.83301 78.334 -7.5 107.001s-2.5 47.334 -2.5 56.001c-2.66699 -8.66699 -9.16699 -27.334 -19.5 -56.001s-24.166 -64 -41.499 -106z
M342.999 809.999l-118 140h97l70 -78l92 78h103l-161 -140h-83z" />
    <glyph glyph-name="uni01CE" unicode="&#x1ce;" 
d="M223 -10c-54.667 0 -95.335 18.332 -122.002 54.999s-35 86.334 -25 149.001l25 161c6.66699 42.667 19.834 79.167 39.501 109.5s44.334 53.833 74.001 70.5s62.834 25 99.501 25c45.333 0 79.666 -12.333 102.999 -37s31.666 -57.667 24.999 -99l-15 21h20l15 105h90
l-87 -550h-90l17 105h-18l21 21c-6.66699 -42 -25.667 -75.167 -57 -99.5s-69.666 -36.5 -114.999 -36.5zM265.999 67.999c37.333 0 68.5 11.6709 93.5 35.0039s40.833 55.666 47.5 96.999l23 150c7.33301 41.333 2 73.666 -16 96.999s-45.667 35 -83 35
c-38 0 -69.167 -11.333 -93.5 -34s-40.166 -55.334 -47.499 -98.001l-23 -150c-6.66699 -42.667 -1.33398 -75.334 15.999 -98.001s45 -34 83 -34zM322.999 645.003l-118 140h97l70 -78l92 78h103l-161 -140h-83z" />
    <glyph glyph-name="Gcaron" unicode="&#x1e6;" 
d="M258 -10c-44 0 -80.8311 8.33301 -110.498 25s-50.667 40.834 -63 72.501s-15.166 69.167 -8.49902 112.5l52 330c7.33301 44 22.166 81.667 44.499 113s51 55.333 86 72s74.5 25 118.5 25s80.5 -8.5 109.5 -25.5s49.833 -41.167 62.5 -72.5s15.667 -68.666 9 -111.999
h-90c6.66699 41.333 0.833984 73.166 -17.499 95.499s-47.166 33.5 -86.499 33.5s-71.833 -11 -97.5 -33s-41.834 -53.667 -48.501 -95l-52 -331c-6.66699 -41.333 -0.666992 -73.333 18 -96s47.667 -34 87 -34s71.666 11.333 96.999 34s41.333 54.667 48 96l14 90h-148
l13 82h238l-27 -172c-6.66699 -42.667 -21.334 -79.834 -44.001 -111.501s-51.334 -56 -86.001 -73s-74 -25.5 -118 -25.5zM343.002 810l-118 140h97l70 -78l92 78h103l-161 -140h-83z" />
    <glyph glyph-name="gcaron" unicode="&#x1e7;" 
d="M90 -180l13 81.999h175c28 0 49.5 6.33301 64.5 19s24.833 32.334 29.5 59.001l11 70l18 100h-18l19 15c-6.66699 -40 -25 -71.667 -55 -95s-67.333 -35 -112 -35c-56.667 0 -98.5 18.5 -125.5 55.5s-35.5 86.833 -25.5 149.5l18 116
c6.66699 42 19.834 78.167 39.501 108.5s44.667 53.833 75 70.5s64.166 25 101.499 25c44.667 0 78.5 -11.667 101.5 -35s31.167 -55 24.5 -95l-15 15h17l17 105h89l-90 -570c-8 -49.333 -29.5 -88.333 -64.5 -117s-79.5 -43 -133.5 -43h-174zM274 112.999
c37.333 0 68.5 11.6709 93.5 35.0039s40.833 55.666 47.5 96.999l16 105c7.33301 41.333 2 73.666 -16 96.999s-45.667 35 -83 35c-38 0 -69.167 -11.333 -93.5 -34s-40.166 -55.334 -47.499 -98.001l-16 -105c-6.66699 -42.667 -1.33398 -75.334 15.999 -98.001
s45 -34 83 -34zM315 645.003l-118 140h97l70 -78l92 78h103l-161 -140h-83z" />
    <glyph glyph-name="uni01EA" unicode="&#x1ea;" 
d="M303 -203c-36.667 0 -64.8301 8.83008 -84.4971 26.4971s-27.167 39.834 -22.5 66.501c1.33301 9.33301 5 19.5 11 30.5s14.167 22.5 24.5 34.5s22.166 23.667 35.499 35h-6.5h-6.5c-43.333 0 -79.5 8.33301 -108.5 25s-49.5 40.834 -61.5 72.501
s-14.667 69.167 -8 112.5l52 330c7.33301 44 22 81.667 44 113s50.167 55.333 84.5 72s73.166 25 116.499 25c44 0 80.5 -8.33301 109.5 -25s49.667 -40.667 62 -72s14.833 -68.666 7.5 -111.999l-52 -331c-6.66699 -39.333 -19.334 -74 -38.001 -104
s-42.667 -53.667 -72 -71l-33 -24c-24.667 -18.667 -42.5 -35.5 -53.5 -50.5s-17.833 -29.5 -20.5 -43.5c-2 -14.667 1.16699 -26.667 9.5 -36s20.833 -14 37.5 -14h60l-9 -60h-78zM267.004 70.9971c39.333 0 71.333 11.167 96 33.5s40.334 54.166 47.001 95.499l52 330
c6.66699 41.333 1.16699 73.166 -16.5 95.499s-46.167 33.5 -85.5 33.5c-38.667 0 -70.334 -11.167 -95.001 -33.5s-40.334 -54.166 -47.001 -95.499l-52 -330c-6.66699 -41.333 -1.16699 -73.166 16.5 -95.499s45.834 -33.5 84.501 -33.5z" />
    <glyph glyph-name="uni01EB" unicode="&#x1eb;" 
d="M296 -203c-36.667 0 -64.834 8.82617 -84.501 26.4932s-27.167 39.834 -22.5 66.501c2 14.667 8.33301 29.834 19 45.501s29 33.834 55 54.501h-2.5h-3h-3.5c-43.333 0 -79.5 8.33301 -108.5 25s-49.5 40.834 -61.5 72.501s-14.667 69.167 -8 112.5l23 150
c7.33301 44 22 81.667 44 113s50.333 55.333 85 72s73.667 25 117 25c44 0 80.333 -8.33301 109 -25s49.167 -40.667 61.5 -72s15.166 -68.666 8.49902 -111.999l-24 -151c-6.66699 -41.333 -20.167 -77.166 -40.5 -107.499s-46.166 -54.166 -77.499 -71.499l-27 -20
c-25.333 -18.667 -44.166 -35.5 -56.499 -50.5s-19.833 -29.5 -22.5 -43.5c-2 -14.667 1.16699 -26.667 9.5 -36s20.833 -14 37.5 -14h60l-9 -60h-78zM267 69.9932c39.333 0 71.333 11 96 33s40.334 54.333 47.001 97l23 150c7.33301 42.667 2.16602 75 -15.501 97
s-46.167 33 -85.5 33c-38.667 0 -70.334 -11 -95.001 -33s-40.667 -54.333 -48 -97l-23 -150c-6.66699 -42.667 -1.16699 -75 16.5 -97s45.834 -33 84.501 -33z" />
    <glyph glyph-name="uni01F4" unicode="&#x1f4;" 
d="M258 -10c-44 0 -80.8311 8.33301 -110.498 25s-50.667 40.834 -63 72.501s-15.166 69.167 -8.49902 112.5l52 330c7.33301 44 22.166 81.667 44.499 113s51 55.333 86 72s74.5 25 118.5 25s80.5 -8.5 109.5 -25.5s49.833 -41.167 62.5 -72.5s15.667 -68.666 9 -111.999
h-90c6.66699 41.333 0.833984 73.166 -17.499 95.499s-47.166 33.5 -86.499 33.5s-71.833 -11 -97.5 -33s-41.834 -53.667 -48.501 -95l-52 -331c-6.66699 -41.333 -0.666992 -73.333 18 -96s47.667 -34 87 -34s71.666 11.333 96.999 34s41.333 54.667 48 96l14 90h-148
l13 82h238l-27 -172c-6.66699 -42.667 -21.334 -79.834 -44.001 -111.501s-51.334 -56 -86.001 -73s-74 -25.5 -118 -25.5zM323.002 810l128 140h102l-133 -140h-97z" />
    <glyph glyph-name="uni01F5" unicode="&#x1f5;" 
d="M90 -180l13 81.999h175c28 0 49.5 6.33301 64.5 19s24.833 32.334 29.5 59.001l11 70l18 100h-18l19 15c-6.66699 -40 -25 -71.667 -55 -95s-67.333 -35 -112 -35c-56.667 0 -98.5 18.5 -125.5 55.5s-35.5 86.833 -25.5 149.5l18 116
c6.66699 42 19.834 78.167 39.501 108.5s44.667 53.833 75 70.5s64.166 25 101.499 25c44.667 0 78.5 -11.667 101.5 -35s31.167 -55 24.5 -95l-15 15h17l17 105h89l-90 -570c-8 -49.333 -29.5 -88.333 -64.5 -117s-79.5 -43 -133.5 -43h-174zM274 112.999
c37.333 0 68.5 11.6709 93.5 35.0039s40.833 55.666 47.5 96.999l16 105c7.33301 41.333 2 73.666 -16 96.999s-45.667 35 -83 35c-38 0 -69.167 -11.333 -93.5 -34s-40.166 -55.334 -47.499 -98.001l-16 -105c-6.66699 -42.667 -1.33398 -75.334 15.999 -98.001
s45 -34 83 -34zM294 645.003l128 140h102l-133 -140h-97z" />
    <glyph glyph-name="AEacute" unicode="&#x1fc;" 
d="M-14 0l261 730h395l-13 -82h-182l-36 -228h157l-13 -82h-157l-41 -256h182l-13 -82h-268l32 203h-141l-72 -203h-91zM175 278h127l59 370h-56zM328 810l128 140h102l-133 -140h-97z" />
    <glyph glyph-name="aeacute" unicode="&#x1fd;" 
d="M124 -10c-41.333 0 -72 12.6689 -92 38.002s-26.667 59.333 -20 102l9 60c6.66699 41.333 25.667 74.166 57 98.499s70.333 36.5 117 36.5h74l12 74c4.66699 29.333 2.66699 50.666 -6 63.999s-24.667 20 -48 20c-18.667 0 -34.5 -5.66699 -47.5 -17
s-21.167 -26.666 -24.5 -45.999h-85c6.66699 42 24.167 75.833 52.5 101.5s62.5 38.5 102.5 38.5c26 0 46.833 -4.33301 62.5 -13s27.167 -19.167 34.5 -31.5s11 -24.166 11 -35.499h4c4 11.333 11.333 23.166 22 35.499s24.834 22.833 42.501 31.5s38.834 13 63.501 13
c45.333 0 78.5 -14.333 99.5 -43s27.5 -67.667 19.5 -117l-23 -145h-222l-16 -105c-4 -24.667 -1 -44.667 9 -60s25 -23 45 -23c21.333 0 39.166 5.66699 53.499 17s23.166 26.666 26.499 45.999h85c-6.66699 -42 -25.5 -75.833 -56.5 -101.5s-68.167 -38.5 -111.5 -38.5
c-24.667 0 -44.5 4.33301 -59.5 13s-25.833 19.167 -32.5 31.5s-10 24.166 -10 35.499h-4c-3.33301 -11.333 -11 -23.166 -23 -35.499s-28 -22.833 -48 -31.5s-44.333 -13 -73 -13zM157 67.002c21.333 0 39.833 7.66602 55.5 22.999s25.5 35.333 29.5 60l16 105h-72
c-20.667 0 -37.5 -5.83301 -50.5 -17.5s-21.167 -27.5 -24.5 -47.5l-9 -60c-3.33301 -19.333 0 -34.666 10 -45.999s25 -17 45 -17zM350 325.001h137l12 75c4 25.333 1 45.5 -9 60.5s-26 22.5 -48 22.5c-20.667 0 -38.167 -7.5 -52.5 -22.5s-23.5 -35.167 -27.5 -60.5z
M297 645.001l128 140h102l-133 -140h-97z" />
    <glyph glyph-name="Oslashacute" unicode="&#x1fe;" 
d="M-15 -40l569 790h86l-569 -790h-86zM254 -10c-43.333 0 -79.499 8.33203 -108.499 24.999s-49.5 40.834 -61.5 72.501s-14.667 69.167 -8 112.5l52 330c7.33301 44 22 81.667 44 113s50.167 55.333 84.5 72s73.166 25 116.499 25c44 0 80.333 -8.33301 109 -25
s49.167 -40.667 61.5 -72s15.166 -68.666 8.49902 -111.999l-52 -331c-6.66699 -43.333 -21.167 -80.833 -43.5 -112.5s-50.666 -55.834 -84.999 -72.501s-73.5 -25 -117.5 -25zM267.001 70.999c39.333 0 71.333 11.167 96 33.5s40.334 54.166 47.001 95.499l52 330
c6.66699 41.333 1.16699 73.166 -16.5 95.499s-46.167 33.5 -85.5 33.5c-38.667 0 -70.334 -11.167 -95.001 -33.5s-40.334 -54.166 -47.001 -95.499l-52 -330c-6.66699 -41.333 -1.16699 -73.166 16.5 -95.499s45.834 -33.5 84.501 -33.5zM323.001 809.999l128 140h102
l-133 -140h-97z" />
    <glyph glyph-name="oslashacute" unicode="&#x1ff;" 
d="M-14 -30l535 620h93l-536 -620h-92zM254 -10c-43.333 0 -79.501 8.33203 -108.501 24.999s-49.5 40.834 -61.5 72.501s-14.667 69.167 -8 112.5l23 150c6.66699 44 21.167 81.667 43.5 113s50.833 55.333 85.5 72s73.667 25 117 25c44 0 80.5 -8.33301 109.5 -25
s49.667 -40.667 62 -72s14.833 -68.666 7.5 -111.999l-24 -151c-6.66699 -43.333 -21.167 -80.833 -43.5 -112.5s-50.666 -55.834 -84.999 -72.501s-73.5 -25 -117.5 -25zM266.999 69.999c40 0 73 11.5 99 34.5s42.333 54.833 49 95.5l23 150
c6.66699 41.333 0.666992 73.333 -18 96s-48 34 -88 34s-73 -11.333 -99 -34s-42.333 -54.667 -49 -96l-23 -150c-6.66699 -40.667 -0.666992 -72.5 18 -95.5s48 -34.5 88 -34.5zM296.999 644.999l128 140h102l-133 -140h-97z" />
    <glyph glyph-name="uni0218" unicode="&#x218;" 
d="M258 -10c-71.333 0 -124.668 17.834 -160.001 53.501s-48.666 84.5 -39.999 146.5h90c-6 -36.667 1.83301 -65.667 23.5 -87s54.834 -32 99.501 -32c42 0 76.5 10.333 103.5 31s43.5 49.334 49.5 86.001c4.66699 31.333 0.833984 58 -11.499 80s-31.833 37.333 -58.5 46
l-94 31c-46.667 15.333 -81 40.666 -103 75.999s-29.667 77 -23 125c6.66699 39.333 21 73.5 43 102.5s50.333 51.667 85 68s73.667 24.5 117 24.5c64 0 112.5 -17.833 145.5 -53.5s45.167 -83.167 36.5 -142.5h-90c6 36 -0.166992 64.167 -18.5 84.5
s-47.166 30.5 -86.499 30.5c-38.667 0 -70.334 -9.33301 -95.001 -28s-39.667 -44.667 -45 -78c-4.66699 -30.667 -0.833984 -57.334 11.499 -80.001s32.166 -38.667 59.499 -48l95 -32c46 -15.333 79.667 -41 101 -77s28.333 -78.333 21 -127
c-6 -40 -20.833 -75 -44.5 -105s-53.667 -53.333 -90 -70s-76.833 -25 -121.5 -25zM107.998 -239.999l118 145h105l-128 -145h-95z" />
    <glyph glyph-name="uni0219" unicode="&#x219;" 
d="M232 -10c-56.667 0 -99.6689 13.168 -129.002 39.501s-43 61.5 -41 105.5h90c1.33301 -19.333 9.83301 -35 25.5 -47s38.167 -18 67.5 -18h42c35.333 0 62.833 7.5 82.5 22.5s31.5 34.5 35.5 58.5c3.33301 23.333 -1.66699 42.166 -15 56.499
s-34.666 23.833 -63.999 28.5l-72 12c-52.667 8.66699 -90.334 25 -113.001 49s-30.334 59.333 -23.001 106c7.33301 49.333 29 87.833 65 115.5s85.333 41.5 148 41.5h38c52.667 0 93 -12.667 121 -38s42 -59 42 -101h-90c-1.33301 17.333 -9.16602 31.5 -23.499 42.5
s-35.166 16.5 -62.499 16.5h-38c-34 0 -59.833 -6.66699 -77.5 -20s-28.5 -32.666 -32.5 -57.999c-3.33301 -22.667 0.5 -39.667 11.5 -51s30.5 -19.333 58.5 -24l72 -12c57.333 -9.33301 97.833 -26.333 121.5 -51s31.834 -61 24.501 -109
c-8.66699 -50.667 -31.5 -90.834 -68.5 -120.501s-88.167 -44.5 -153.5 -44.5h-42zM96.998 -239.999l118 145h105l-128 -145h-95z" />
    <glyph glyph-name="uni021A" unicode="&#x21a;" 
d="M211 0l103 649h-200l13 82h490l-13 -82h-200l-103 -649h-90zM73 -240l118 145h105l-128 -145h-95z" />
    <glyph glyph-name="uni021B" unicode="&#x21b;" 
d="M316 0c-47.333 0 -82.167 12.667 -104.5 38s-29.833 61 -22.5 107l51 323h-155l13 82h155l24 150h90l-24 -150h220l-13 -82h-220l-51 -323c-6.66699 -42 10 -63 50 -63h150l-13 -82h-150zM107.999 -240l118 145h105l-128 -145h-95z" />
    <glyph glyph-name="uni0232" unicode="&#x232;" 
d="M211 0l43 273l-147 457h91l97 -300c5.33301 -16.667 9.5 -30.834 12.5 -42.501s4.83301 -20.167 5.5 -25.5c2.66699 5.33301 7.16699 13.833 13.5 25.5s14.833 25.834 25.5 42.501l190 300h95l-293 -457l-43 -273h-90zM229 840l12 75h320l-12 -75h-320z" />
    <glyph glyph-name="uni0233" unicode="&#x233;" 
d="M90 -180l13 81.999h175c28 0 49.667 6.33301 65 19s25 32.334 29 59.001l12 75l17 100h-19l22 21c-6.66699 -42.667 -25 -76 -55 -100s-68 -36 -114 -36c-54.667 0 -95.834 17 -123.501 51s-36.834 80.333 -27.501 139l51 320h90l-49 -310
c-6.66699 -38.667 -1.16699 -69 16.5 -91s44.5 -33 80.5 -33c37.333 0 68.833 11.667 94.5 35s41.834 56.333 48.501 99l47 300h90l-91 -570c-7.33301 -49.333 -28.666 -88.333 -63.999 -117s-80 -43 -134 -43h-174zM202 669.999l12 75h320l-12 -75h-320z" />
    <glyph glyph-name="uni0237" unicode="&#x237;" 
d="M12 -180l14.001 83.001h129c41.333 0 75.166 11.167 101.499 33.5s42.833 53.833 49.5 94.5l69 437h-230l13 82h320l-82 -519c-6.66699 -42.667 -21.667 -79.834 -45 -111.501s-52.833 -56.167 -88.5 -73.5s-76.167 -26 -121.5 -26h-129z" />
    <glyph glyph-name="uni0259" unicode="&#x259;" 
d="M254 -10c-43.333 0 -79.1699 8.66602 -107.503 25.999s-48.5 41.833 -60.5 73.5s-14.667 68.5 -8 110.5l15 97h332l8 53c7.33301 43.333 2.83301 76.5 -13.5 99.5s-45.166 34.5 -86.499 34.5c-34.667 0 -62.667 -6.16699 -84 -18.5s-36.666 -30.833 -45.999 -55.5h-90
c13.333 46 40.833 82.5 82.5 109.5s91.5 40.5 149.5 40.5c43.333 0 79.333 -8.66699 108 -26s49 -41.666 61 -72.999s14.333 -68.333 7 -111l-23 -150c-6.66699 -42 -21 -78.833 -43 -110.5s-50.167 -56.167 -84.5 -73.5s-73.166 -26 -116.499 -26zM265.996 64.999
c41.333 0 74.001 11.667 98.001 35s39.333 56.666 46 99.999l4 29h-251l9 8l-6 -37c-6.66699 -43.333 -1.83398 -76.666 14.499 -99.999s44.833 -35 85.5 -35z" />
    <glyph glyph-name="uni02B9" unicode="&#x2b9;" 
d="M186 410l129 311h130l-179 -311h-80z" />
    <glyph glyph-name="uni02BA" unicode="&#x2ba;" 
d="M351 409l129 311h130l-179 -311h-80zM76 409l129 311h130l-179 -311h-80z" />
    <glyph glyph-name="uni02BC" unicode="&#x2bc;" 
d="M195 465l129 311h130l-179 -311h-80z" />
    <glyph glyph-name="circumflex" unicode="&#x2c6;" 
d="M177 645l161 140h83l118 -140h-97l-69 78l-93 -78h-103z" />
    <glyph glyph-name="caron" unicode="&#x2c7;" 
d="M318 645l-118 140h97l70 -78l92 78h103l-161 -140h-83z" />
    <glyph glyph-name="uni02C9" unicode="&#x2c9;" 
d="M264.119 670l23.8789 75h320l-23.8789 -75h-320z" />
    <glyph glyph-name="breve" unicode="&#x2d8;" 
d="M357 640c-48 0 -84.5 13.333 -109.5 40s-34.167 61.667 -27.5 105h70c-4 -26 0.833008 -47 14.5 -63s33.834 -24 60.501 -24c27.333 0 50.333 8 69 24s30 37 34 63h72c-6.66699 -43.333 -26.834 -78.333 -60.501 -105s-74.5 -40 -122.5 -40z" />
    <glyph glyph-name="dotaccent" unicode="&#x2d9;" 
d="M359 649c-22 0 -38.3311 5.66699 -48.998 17s-14.667 26.666 -12 45.999c3.33301 20 12.166 35.833 26.499 47.5s32.5 17.5 54.5 17.5s38.5 -5.83301 49.5 -17.5s14.833 -27.5 11.5 -47.5c-2.66699 -19.333 -11.334 -34.666 -26.001 -45.999s-33 -17 -55 -17z" />
    <glyph glyph-name="ring" unicode="&#x2da;" 
d="M352 608c-36 0 -63.167 10.5 -81.5 31.5s-25.166 48.5 -20.499 82.5c5.33301 34 20.666 61.5 45.999 82.5s56 31.5 92 31.5s63.333 -10.5 82 -31.5s25.334 -48.5 20.001 -82.5c-4.66699 -34 -19.834 -61.5 -45.501 -82.5s-56.5 -31.5 -92.5 -31.5zM361 661
c18 0 33.333 5.5 46 16.5s20.334 25.833 23.001 44.5c3.33301 18.667 0.333008 33.667 -9 45s-23 17 -41 17s-33.333 -5.66699 -46 -17s-20.667 -26.333 -24 -45c-2.66699 -18.667 0.666016 -33.5 9.99902 -44.5s23 -16.5 41 -16.5z" />
    <glyph glyph-name="ogonek" unicode="&#x2db;" 
d="M231 -203c-36.667 0 -64.835 8.83301 -84.502 26.5s-27.167 39.834 -22.5 66.501c3.33301 19.333 12.833 38.666 28.5 57.999s40.834 40 75.501 62h75l-13 -9c-25.333 -18.667 -44.166 -35.5 -56.499 -50.5s-19.833 -29.5 -22.5 -43.5
c-2 -14.667 1.16699 -26.667 9.5 -36s20.833 -14 37.5 -14h60l-9 -60h-78z" />
    <glyph glyph-name="tilde" unicode="&#x2dc;" 
d="M429 650c-20 0 -35.665 3.5 -46.998 10.5s-20.666 15.167 -27.999 24.5s-14.5 17.5 -21.5 24.5s-16.167 10.5 -27.5 10.5c-8.66699 0 -16.334 -2.83301 -23.001 -8.5s-11 -14.5 -13 -26.5l-4 -30h-65l4 30c5.33301 30 17.666 53.333 36.999 70s42.333 25 69 25
c20 0 35.667 -3.5 47 -10.5s20.5 -15.167 27.5 -24.5s14 -17.5 21 -24.5s16.167 -10.5 27.5 -10.5c9.33301 0 17.166 2.83301 23.499 8.5s10.5 14.5 12.5 26.5l5 30h65l-5 -30c-4.66699 -30 -16.5 -53.333 -35.5 -70s-42.167 -25 -69.5 -25z" />
    <glyph glyph-name="hungarumlaut" unicode="&#x2dd;" 
d="M384 645l132 140h94l-137 -140h-89zM203 645l132 140h94l-137 -140h-89z" />
    <glyph glyph-name="uni02F3" unicode="&#x2f3;" 
d="M216 -250c-36 0 -63.5 9.16699 -82.5 27.5s-26.167 42.5 -21.5 72.5c5.33301 30 20.333 54.167 45 72.5s55 27.5 91 27.5s63.667 -9.16699 83 -27.5s26.333 -42.5 21 -72.5c-4.66699 -30 -19.5 -54.167 -44.5 -72.5s-55.5 -27.5 -91.5 -27.5zM223 -199
c18.667 0 34.334 4.5 47.001 13.5s20 20.833 22 35.5c3.33301 17.333 0.166016 30 -9.50098 38s-24.167 12 -43.5 12c-17.333 0 -32.166 -4.5 -44.499 -13.5s-19.833 -21.167 -22.5 -36.5c-2 -14.667 1.66699 -26.5 11 -35.5s22.666 -13.5 39.999 -13.5z" />
    <glyph glyph-name="uni02F7" unicode="&#x2f7;" 
d="M370 -210c-20 0 -36.333 3.5 -49 10.5s-23.334 15.167 -32.001 24.5s-17 17.5 -25 24.5s-17.667 10.5 -29 10.5c-8.66699 0 -15.834 -2.83301 -21.501 -8.5s-8.5 -14.5 -8.5 -26.5v-30h-65v30c0 30 8.33301 53.333 25 70s38.334 25 65.001 25c20 0 36.333 -3.5 49 -10.5
s23.334 -15.167 32.001 -24.5s17 -17.5 25 -24.5s17.667 -10.5 29 -10.5c9.33301 0 16.666 2.83301 21.999 8.5s8 14.5 8 26.5v30h65v-30c0 -30 -8.16699 -53.333 -24.5 -70s-38.166 -25 -65.499 -25z" />
    <glyph glyph-name="gravecomb" unicode="&#x300;" horiz-adv-x="0" 
d="M358 645l-93 140h94l88 -140h-89z" />
    <glyph glyph-name="acutecomb" unicode="&#x301;" horiz-adv-x="0" 
d="M267 645l128 140h102l-133 -140h-97z" />
    <glyph glyph-name="uni0302" unicode="&#x302;" horiz-adv-x="0" 
d="M177 645l161 140h83l118 -140h-97l-69 78l-93 -78h-103z" />
    <glyph glyph-name="tildecomb" unicode="&#x303;" horiz-adv-x="0" 
d="M429 650c-20 0 -35.665 3.5 -46.998 10.5s-20.666 15.167 -27.999 24.5s-14.5 17.5 -21.5 24.5s-16.167 10.5 -27.5 10.5c-8.66699 0 -16.334 -2.83301 -23.001 -8.5s-11 -14.5 -13 -26.5l-4 -30h-65l4 30c5.33301 30 17.666 53.333 36.999 70s42.333 25 69 25
c20 0 35.667 -3.5 47 -10.5s20.5 -15.167 27.5 -24.5s14 -17.5 21 -24.5s16.167 -10.5 27.5 -10.5c9.33301 0 17.166 2.83301 23.499 8.5s10.5 14.5 12.5 26.5l5 30h65l-5 -30c-4.66699 -30 -16.5 -53.333 -35.5 -70s-42.167 -25 -69.5 -25z" />
    <glyph glyph-name="uni0304" unicode="&#x304;" horiz-adv-x="0" 
d="M202 670l12 75h320l-12 -75h-320z" />
    <glyph glyph-name="uni0306" unicode="&#x306;" horiz-adv-x="0" 
d="M357 640c-48 0 -84.5 13.333 -109.5 40s-34.167 61.667 -27.5 105h70c-4 -26 0.833008 -47 14.5 -63s33.834 -24 60.501 -24c27.333 0 50.333 8 69 24s30 37 34 63h72c-6.66699 -43.333 -26.834 -78.333 -60.501 -105s-74.5 -40 -122.5 -40z" />
    <glyph glyph-name="uni0307" unicode="&#x307;" horiz-adv-x="0" 
d="M359 649c-22 0 -38.3311 5.66699 -48.998 17s-14.667 26.666 -12 45.999c3.33301 20 12.166 35.833 26.499 47.5s32.5 17.5 54.5 17.5s38.5 -5.83301 49.5 -17.5s14.833 -27.5 11.5 -47.5c-2.66699 -19.333 -11.334 -34.666 -26.001 -45.999s-33 -17 -55 -17z" />
    <glyph glyph-name="uni0308" unicode="&#x308;" horiz-adv-x="0" 
d="M470 649c-19.333 0 -33.8301 5.66699 -43.4971 17s-13.167 26.666 -10.5 45.999c3.33301 20 11.666 35.833 24.999 47.5s29.666 17.5 48.999 17.5s34 -5.83301 44 -17.5s13.333 -27.5 10 -47.5c-2.66699 -19.333 -10.834 -34.666 -24.501 -45.999s-30.167 -17 -49.5 -17z
M248.003 649c-19.333 0 -33.8301 5.66699 -43.4971 17s-13.167 26.666 -10.5 45.999c3.33301 20 11.666 35.833 24.999 47.5s29.666 17.5 48.999 17.5s34 -5.83301 44 -17.5s13.333 -27.5 10 -47.5c-2.66699 -19.333 -10.834 -34.666 -24.501 -45.999s-30.167 -17 -49.5 -17
z" />
    <glyph glyph-name="hookabovecomb" unicode="&#x309;" horiz-adv-x="0" 
d="M310 645l60.0029 62.999c5.33301 6 9.66602 11.833 12.999 17.5s5.33301 10.5 6 14.5c2 13.333 -6.33301 20 -25 20h-78l11 65h105c25.333 0 44.666 -6.5 57.999 -19.5s18.333 -31.167 15 -54.5c-1.33301 -10 -4.33301 -19.667 -9 -29s-10.334 -17.666 -17.001 -24.999
l-48 -52h-91z" />
    <glyph glyph-name="uni030A" unicode="&#x30a;" horiz-adv-x="0" 
d="M352 608c-36 0 -63.167 10.5 -81.5 31.5s-25.166 48.5 -20.499 82.5c5.33301 34 20.666 61.5 45.999 82.5s56 31.5 92 31.5s63.333 -10.5 82 -31.5s25.334 -48.5 20.001 -82.5c-4.66699 -34 -19.834 -61.5 -45.501 -82.5s-56.5 -31.5 -92.5 -31.5zM361 661
c18 0 33.333 5.5 46 16.5s20.334 25.833 23.001 44.5c3.33301 18.667 0.333008 33.667 -9 45s-23 17 -41 17s-33.333 -5.66699 -46 -17s-20.667 -26.333 -24 -45c-2.66699 -18.667 0.666016 -33.5 9.99902 -44.5s23 -16.5 41 -16.5z" />
    <glyph glyph-name="uni030B" unicode="&#x30b;" horiz-adv-x="0" 
d="M384 645l132 140h94l-137 -140h-89zM203 645l132 140h94l-137 -140h-89z" />
    <glyph glyph-name="uni030C" unicode="&#x30c;" horiz-adv-x="0" 
d="M318 645l-118 140h97l70 -78l92 78h103l-161 -140h-83z" />
    <glyph glyph-name="uni030F" unicode="&#x30f;" horiz-adv-x="0" 
d="M332 645h-84l-93 140h89zM508 645h-84l-93 140h89z" />
    <glyph glyph-name="uni0312" unicode="&#x312;" horiz-adv-x="0" 
d="M507 880l-117 -235h-119l167 235h69z" />
    <glyph glyph-name="uni031B" unicode="&#x31b;" horiz-adv-x="0" 
d="M537 485l10 65h26c11.333 0 20.5 3 27.5 9s11.5 14.667 13.5 26l12 75h75l-13 -80c-4.66699 -28.667 -18 -51.667 -40 -69s-48.667 -26 -80 -26h-31z" />
    <glyph glyph-name="dotbelowcomb" unicode="&#x323;" horiz-adv-x="0" 
d="M222 -213c-22 0 -38.333 5.66699 -49 17s-14.667 26.666 -12 45.999c3.33301 20 12.333 35.833 27 47.5s33 17.5 55 17.5s38.333 -5.83301 49 -17.5s14.334 -27.5 11.001 -47.5c-2.66699 -19.333 -11.334 -34.666 -26.001 -45.999s-33 -17 -55 -17z" />
    <glyph glyph-name="uni0325" unicode="&#x325;" horiz-adv-x="0" 
d="M216 -250c-36 0 -63.5 9.16699 -82.5 27.5s-26.167 42.5 -21.5 72.5c5.33301 30 20.333 54.167 45 72.5s55 27.5 91 27.5s63.667 -9.16699 83 -27.5s26.333 -42.5 21 -72.5c-4.66699 -30 -19.5 -54.167 -44.5 -72.5s-55.5 -27.5 -91.5 -27.5zM223 -199
c18.667 0 34.334 4.5 47.001 13.5s20 20.833 22 35.5c3.33301 17.333 0.166016 30 -9.50098 38s-24.167 12 -43.5 12c-17.333 0 -32.166 -4.5 -44.499 -13.5s-19.833 -21.167 -22.5 -36.5c-2 -14.667 1.66699 -26.5 11 -35.5s22.666 -13.5 39.999 -13.5z" />
    <glyph glyph-name="uni0326" unicode="&#x326;" horiz-adv-x="0" 
d="M108 -240l118 145h105l-128 -145h-95z" />
    <glyph glyph-name="uni0327" unicode="&#x327;" horiz-adv-x="0" 
d="M129 -203l8.99902 54.999h70c14.667 0 27 3.83301 37 11.5s15.667 15.834 17 24.501c2 11.333 -5.5 21.333 -22.5 30s-42.167 13 -75.5 13l50 95h57l-31 -61c17.333 -2 34.833 -6.33301 52.5 -13s31.834 -16 42.501 -28s14.667 -26.667 12 -44
c-3.33301 -22.667 -17.333 -42.167 -42 -58.5s-55 -24.5 -91 -24.5h-85z" />
    <glyph glyph-name="uni0328" unicode="&#x328;" horiz-adv-x="0" 
d="M231 -203c-36.667 0 -64.835 8.83301 -84.502 26.5s-27.167 39.834 -22.5 66.501c3.33301 19.333 12.833 38.666 28.5 57.999s40.834 40 75.501 62h75l-13 -9c-25.333 -18.667 -44.166 -35.5 -56.499 -50.5s-19.833 -29.5 -22.5 -43.5
c-2 -14.667 1.16699 -26.667 9.5 -36s20.833 -14 37.5 -14h60l-9 -60h-78z" />
    <glyph glyph-name="uni0336" unicode="&#x336;" horiz-adv-x="0" 
d="M-628 290l11 70h660l-11 -70h-660z" />
    <glyph glyph-name="uni0338" unicode="&#x338;" horiz-adv-x="0" 
d="M66 -60l429 840h65l-429 -840h-65z" />
    <glyph glyph-name="uni0374" unicode="&#x374;" 
d="M186 410l129 311h130l-179 -311h-80z" />
    <glyph glyph-name="uni0375" unicode="&#x375;" 
d="M94 -160l129 311h134l-179 -311h-84z" />
    <glyph glyph-name="uni037E" unicode="&#x37e;" 
d="M101 -160l129 311h130l-179 -311h-80zM311 410c-22 0 -38.833 7 -50.5 21s-15.834 32 -12.501 54c3.33301 21.333 13.333 39.166 30 53.499s35.667 21.5 57 21.5h20c21.333 0 38 -7.16699 50 -21.5s16.333 -32.166 13 -53.499c-3.33301 -22 -13.166 -40 -29.499 -54
s-35.5 -21 -57.5 -21h-20z" />
    <glyph glyph-name="tonos" unicode="&#x384;" 
d="M270 645l128 140h97l-133 -140h-92z" />
    <glyph glyph-name="dieresistonos" unicode="&#x385;" 
d="M337 769l99 131h80l-109 -131h-70zM470 649c-19.333 0 -33.8301 5.66699 -43.4971 17s-13.167 26.666 -10.5 45.999c3.33301 20 11.666 35.833 24.999 47.5s29.666 17.5 48.999 17.5s34 -5.83301 44 -17.5s13.333 -27.5 10 -47.5
c-2.66699 -19.333 -10.834 -34.666 -24.501 -45.999s-30.167 -17 -49.5 -17zM248.003 649c-19.333 0 -33.8301 5.66699 -43.4971 17s-13.167 26.666 -10.5 45.999c3.33301 20 11.666 35.833 24.999 47.5s29.666 17.5 48.999 17.5s34 -5.83301 44 -17.5
s13.333 -27.5 10 -47.5c-2.66699 -19.333 -10.834 -34.666 -24.501 -45.999s-30.167 -17 -49.5 -17z" />
    <glyph glyph-name="Alphatonos" unicode="&#x386;" 
d="M6 0l306 730h121l73 -730h-88l-17 194h-221l-79 -194h-95zM210 270l183.999 -0.000976562l-21 225c-3.33301 42.667 -5.83301 78.334 -7.5 107.001s-2.5 47.334 -2.5 56.001c-2.66699 -8.66699 -9.16699 -27.334 -19.5 -56.001s-24.166 -64 -41.499 -106zM55.999 569.999
l82 160h94l-90 -160h-86z" />
    <glyph glyph-name="anoteleia" unicode="&#x387;" 
d="M254 260c-25.333 0 -44.333 7.33301 -57 22s-17 34.334 -13 59.001c4 26 14.833 46.667 32.5 62s39.167 23 64.5 23s44.166 -7.66699 56.499 -23s16.5 -36 12.5 -62c-4 -24.667 -14.667 -44.334 -32 -59.001s-38.666 -22 -63.999 -22z" />
    <glyph glyph-name="Epsilontonos" unicode="&#x388;" 
d="M56 0l116 730h420l-13 -82h-331l-36 -226h296l-13 -81h-296l-41 -259h331l-13 -82h-420zM-69 570l82 160h94l-90 -160h-86z" />
    <glyph glyph-name="Etatonos" unicode="&#x389;" 
d="M-69 570l82 160h94l-90 -160h-86zM49 0l116 730h90l-50 -312h234l50 312h90l-116 -730h-90l53 336h-234l-53 -336h-90z" />
    <glyph glyph-name="Iotatonos" unicode="&#x38a;" 
d="M-69 570l82 160h94l-90 -160h-86zM61 0l13 82h149l90 566h-149l13 82h390l-13 -82h-149l-90 -566h149l-13 -82h-390z" />
    <glyph glyph-name="Omicrontonos" unicode="&#x38c;" 
d="M-34 570l82 160h94l-90 -160h-86zM254 -10c-43.333 0 -79.5 8.33203 -108.5 24.999s-49.5 40.834 -61.5 72.501s-14.667 69.167 -8 112.5l52 330c7.33301 44 22 81.667 44 113s50.167 55.333 84.5 72s73.166 25 116.499 25c44 0 80.5 -8.33301 109.5 -25
s49.667 -40.667 62 -72s14.833 -68.666 7.5 -111.999l-52 -331c-6.66699 -43.333 -21.167 -80.833 -43.5 -112.5s-50.666 -55.834 -84.999 -72.501s-73.5 -25 -117.5 -25zM267 70.999c39.333 0 71.333 11.167 96 33.5s40.334 54.166 47.001 95.499l52 330
c6.66699 41.333 1.16699 73.166 -16.5 95.499s-46.167 33.5 -85.5 33.5c-38.667 0 -70.334 -11.167 -95.001 -33.5s-40.334 -54.166 -47.001 -95.499l-52 -330c-6.66699 -41.333 -1.16699 -73.166 16.5 -95.499s45.834 -33.5 84.501 -33.5z" />
    <glyph glyph-name="Upsilontonos" unicode="&#x38e;" 
d="M-79 570l82 160h94l-90 -160h-86zM211 0l43 273l-147 457h91l97 -300c5.33301 -16.667 9.5 -30.834 12.5 -42.501s4.83301 -20.167 5.5 -25.5c2.66699 5.33301 7.16699 13.833 13.5 25.5s14.833 25.834 25.5 42.501l190 300h95l-293 -457l-43 -273h-90z" />
    <glyph glyph-name="Omegatonos" unicode="&#x38f;" 
d="M6 0l13 80.001h145v5c-16 2 -32 8.83301 -48 20.5s-28.167 29 -36.5 52s-9.83301 52.167 -4.5 87.5l44 280c7.33301 44 22.333 82 45 114s52 56.833 88 74.5s76.333 26.5 121 26.5c45.333 0 83 -8.83301 113 -26.5s51.5 -42.5 64.5 -74.5s15.833 -70 8.5 -114l-44 -280
c-5.33301 -35.333 -16 -64.333 -32 -87s-33.833 -39.834 -53.5 -51.501s-37.834 -18.5 -54.501 -20.5l-1 -6h146l-13 -80h-211l17 110c26.667 0 50.334 12.167 71.001 36.5s34 55.5 40 93.5l45 285c6.66699 41.333 0.166992 74.166 -19.5 98.499s-49.167 36.5 -88.5 36.5
s-72.833 -12.167 -100.5 -36.5s-44.834 -57.166 -51.501 -98.499l-45 -285c-6 -38 -2.66699 -69.167 10 -93.5s32.334 -36.5 59.001 -36.5l-17 -110h-210zM-34 570.001l82 160h94l-90 -160h-86z" />
    <glyph glyph-name="iotadieresistonos" unicode="&#x390;" 
d="M371 0c-48.667 0 -85.167 14.167 -109.5 42.5s-32.833 65.833 -25.5 112.5l49 313h-200l13 82h290l-62 -395c-4 -22.667 -0.666992 -40.5 10 -53.5s26.667 -19.5 48 -19.5h135l-13 -82h-135zM337 769l99 131h80l-109 -131h-70zM470 649
c-19.333 0 -33.8301 5.66699 -43.4971 17s-13.167 26.666 -10.5 45.999c3.33301 20 11.666 35.833 24.999 47.5s29.666 17.5 48.999 17.5s34 -5.83301 44 -17.5s13.333 -27.5 10 -47.5c-2.66699 -19.333 -10.834 -34.666 -24.501 -45.999s-30.167 -17 -49.5 -17z
M248.003 649c-19.333 0 -33.8301 5.66699 -43.4971 17s-13.167 26.666 -10.5 45.999c3.33301 20 11.666 35.833 24.999 47.5s29.666 17.5 48.999 17.5s34 -5.83301 44 -17.5s13.333 -27.5 10 -47.5c-2.66699 -19.333 -10.834 -34.666 -24.501 -45.999s-30.167 -17 -49.5 -17
z" />
    <glyph glyph-name="Alpha" unicode="&#x391;" 
d="M6 0l306 730h121l73 -730h-88l-17 194h-221l-79 -194h-95zM210 270l183.999 -0.000976562l-21 225c-3.33301 42.667 -5.83301 78.334 -7.5 107.001s-2.5 47.334 -2.5 56.001c-2.66699 -8.66699 -9.16699 -27.334 -19.5 -56.001s-24.166 -64 -41.499 -106z" />
    <glyph glyph-name="Beta" unicode="&#x392;" 
d="M49 0l116.002 729.997h207c66.667 0 116.167 -16.667 148.5 -50s43.833 -79.666 34.5 -138.999c-5.33301 -33.333 -17 -62.333 -35 -87s-40.833 -43.667 -68.5 -57s-59.5 -19.666 -95.5 -18.999l2 15c38.667 0.666992 71 -6.66602 97 -21.999s44.667 -37.333 56 -66
s13.666 -62.667 6.99902 -102c-6.66699 -41.333 -21 -77.333 -43 -108s-50.333 -54.167 -85 -70.5s-74.334 -24.5 -119.001 -24.5h-222zM150.002 80.9971h123.999c42 0 76.833 11.167 104.5 33.5s44.834 52.833 51.501 91.5c6 40 -1.16699 72.5 -21.5 97.5
s-51.5 37.5 -93.5 37.5h-124zM203.001 418.997h118.001c38.667 0 70.834 10.333 96.501 31s41.5 48.667 47.5 84c5.33301 35.333 -1.33398 63.333 -20.001 84s-47.334 31 -86.001 31h-119z" />
    <glyph glyph-name="Gamma" unicode="&#x393;" 
d="M66 0l116 730h425l-13 -82h-335l-103 -648h-90z" />
    <glyph glyph-name="uni0394" unicode="&#x394;" 
d="M6 0l306 730h121l73 -730h-500zM132 80h278.002l-38 415c-2.66699 34.667 -4.83398 67.167 -6.50098 97.5s-2.83398 52.833 -3.50098 67.5l-24 -67c-10.667 -30 -23 -62.333 -37 -97z" />
    <glyph glyph-name="Epsilon" unicode="&#x395;" 
d="M56 0l116 730h420l-13 -82h-331l-36 -226h296l-13 -81h-296l-41 -259h331l-13 -82h-420z" />
    <glyph glyph-name="Zeta" unicode="&#x396;" 
d="M41 0l14 90l415 558h-321l13 82h415l-15 -90l-414 -558h336l-13 -82h-430z" />
    <glyph glyph-name="Eta" unicode="&#x397;" 
d="M49 0l116 730h90l-50 -312h234l50 312h90l-116 -730h-90l53 336h-234l-53 -336h-90z" />
    </font>
</defs>
</svg>
