<?xml version="1.0" standalone="no"?>
<!DOCTYPE svg PUBLIC "-//W3C//DTD SVG 1.1//EN" "http://www.w3.org/Graphics/SVG/1.1/DTD/svg11.dtd" >
<svg>
<metadata>
Created by FontForge 20090914 at Mon Feb  8 14:44:20 2021
 By www-data
Copyright 2020 The JetBrains Mono Project Authors (https://github.com/JetBrains/JetBrainsMono)
</metadata>
<defs>
<font id="JetBrainsMono-SemiBold" horiz-adv-x="600" >
  <font-face 
    font-family="JetBrains Mono SemiBold"
    font-weight="600"
    font-stretch="normal"
    units-per-em="1000"
    panose-1="2 0 0 9 0 0 0 0 0 0"
    ascent="800"
    descent="-200"
    x-height="550"
    cap-height="730"
    bbox="-1733 -300 1170 1020"
    underline-thickness="50"
    underline-position="-130"
    unicode-range="U+000D-U+FEFF"
  />
<missing-glyph 
d="M90 0v730h420v-730h-420zM160 50h300v571zM140 109l300 571h-300v-571z" />
    <glyph glyph-name=".notdef" 
d="M90 0v730h420v-730h-420zM160 50h300v571zM140 109l300 571h-300v-571z" />
    <glyph glyph-name="CR" unicode="&#xd;" 
 />
    <glyph glyph-name="space" unicode=" " 
 />
    <glyph glyph-name="exclam" unicode="!" 
d="M257 228l-22 369v133h130v-133l-22 -369h-86zM285 -5c-20 0 -36.167 6 -48.5 18s-18.5 27.333 -18.5 46c0 19.333 6.16699 35 18.5 47s28.5 18 48.5 18h30c20.667 0 37 -5.83301 49 -17.5s18 -27.167 18 -46.5s-6.16699 -35 -18.5 -47s-28.5 -18 -48.5 -18h-30z" />
    <glyph glyph-name="quotedbl" unicode="&#x22;" 
d="M361 430l-13 179v121h120v-121l-12 -179h-95zM145 430l-13 179v121h120v-121l-12 -179h-95z" />
    <glyph glyph-name="numbersign" unicode="#" 
d="M77 0l34 187h-83v80h97l35 196h-99v80h113l33 187h86l-34 -187h145l33 187h86l-34 -187h83v-80h-97l-35 -196h99v-80h-113l-33 -187h-86l34 187h-145l-33 -187h-86zM210 267h145l35 196h-145z" />
    <glyph glyph-name="dollar" unicode="$" 
d="M270 -140v131.003c-64.667 5.33301 -115.5 26.166 -152.5 62.499s-55.833 83.166 -56.5 140.499h116c0 -26 8.16699 -47.833 24.5 -65.5s39.166 -28.834 68.499 -33.501v224l-20 5c-55.333 15.333 -98 41.833 -128 79.5s-45 82.5 -45 134.5c0 56 17.333 102 52 138
s81.667 56.667 141 62v132h62v-131c60 -5.33301 107.667 -25.666 143 -60.999s53.333 -81 54 -137h-117c0 25.333 -6.83301 46.166 -20.5 62.499s-33.5 26.833 -59.5 31.5v-213l35 -10c55.333 -14.667 97.833 -40.667 127.5 -78s44.5 -83 44.5 -137
c0 -57.333 -18.667 -104.5 -56 -141.5s-87.666 -58.5 -150.999 -64.5v-131h-62zM332 94.0029c28.667 4.66699 51 15.5 67 32.5s24 39.167 24 66.5c0 28.667 -9.66699 53 -29 73s-46.333 32 -81 36l19 29v-237zM270 388.003v247.001
c-24.667 -4.66699 -43.667 -14.667 -57 -30s-20 -35 -20 -59c0 -31.333 10.333 -57.333 31 -78s49.667 -32.334 87 -35.001z" />
    <glyph glyph-name="percent" unicode="%" 
d="M1 0l511 730h87l-511 -730h-87zM443 -5c-42.667 0 -77.334 12.167 -104.001 36.5s-40 57.166 -40 98.499v65c0 41.333 13.333 74.166 40 98.499s61.334 36.5 104.001 36.5s77.334 -12.167 104.001 -36.5s40 -57.166 40 -98.499v-65
c0 -41.333 -13.333 -74.166 -40 -98.499s-61.334 -36.5 -104.001 -36.5zM443 71c39.333 0 59 19.667 59 59v65c0 40 -19.667 60 -59 60s-59 -20 -59 -60v-65c0 -39.333 19.667 -59 59 -59zM157 400c-42 0 -76.5 12 -103.5 36s-40.5 57 -40.5 99v65c0 42 13.5 75 40.5 99
s61.5 36 103.5 36s76.5 -12 103.5 -36s40.5 -57 40.5 -99v-65c0 -42 -13.5 -75 -40.5 -99s-61.5 -36 -103.5 -36zM157 475c39.333 0 59 20.002 59 60.002v65c0 40 -19.667 60 -59 60c-19.333 0 -34 -4.83301 -44 -14.5s-15 -24.834 -15 -45.501v-65
c0 -20.667 5 -35.834 15 -45.501s24.667 -14.5 44 -14.5z" />
    <glyph glyph-name="ampersand" unicode="&#x26;" 
d="M232 -10c-58.667 0 -104.331 16.166 -136.998 48.499s-49 77.166 -49 134.499v100c0 42.667 10.667 77.667 32 105s51.666 45 90.999 53l-11 -18c-20.667 28.667 -36.334 56.167 -47.001 82.5s-16 52.5 -16 78.5c0 33.333 7.83301 62.333 23.5 87s37.667 44 66 58
s61.5 21 99.5 21c40 0 74.667 -7.5 104 -22.5s52 -35.833 68 -62.5s24 -58 24 -94h-110c0 16.667 -3.5 31.167 -10.5 43.5s-17 21.833 -30 28.5s-28.167 10 -45.5 10c-16 0 -30.333 -3.16699 -43 -9.5s-22.167 -15.166 -28.5 -26.499s-9.5 -25 -9.5 -41s4 -33.667 12 -53
s19 -38.666 33 -57.999l146 -205l59 110h114l-108 -202l113 -158h-118l-51 71c-47.333 -54 -104.333 -81 -171 -81zM241.003 87.999c20 0 38.832 5.83398 56.499 17.501s32.834 27.5 45.501 47.5l-139 195c-15.333 -4.66699 -26.833 -13.334 -34.5 -26.001
s-11.5 -29 -11.5 -49v-100c0 -27.333 7.33301 -48.333 22 -63s35 -22 61 -22z" />
    <glyph glyph-name="quotesingle" unicode="'" 
d="M250 430l-13 146v154h120v-154l-12 -146h-95z" />
    <glyph glyph-name="parenleft" unicode="(" 
d="M485 -120c-100 26 -177.167 72.832 -231.5 140.499s-81.5 150.834 -81.5 249.501v180c0 64.667 12.5 123.167 37.5 175.5s61 97 108 134s102.833 63.833 167.5 80.5v-114c-40 -9.33301 -74.833 -26.833 -104.5 -52.5s-52.5 -57.5 -68.5 -95.5s-24 -80.667 -24 -128v-180
c0 -46.667 8 -88.834 24 -126.501s38.833 -69.167 68.5 -94.5s64.5 -42.666 104.5 -51.999v-117z" />
    <glyph glyph-name="parenright" unicode=")" 
d="M115 -120v117.001c40.667 9.33301 75.667 26.666 105 51.999s52 56.833 68 94.5s24 79.834 24 126.501v180c0 47.333 -8 90 -24 128s-38.667 69.833 -68 95.5s-64.333 43.167 -105 52.5v114c65.333 -16.667 121.333 -43.5 168 -80.5s82.5 -81.667 107.5 -134
s37.5 -110.833 37.5 -175.5v-180c0 -98.667 -27.167 -181.834 -81.5 -249.501s-131.5 -114.5 -231.5 -140.5z" />
    <glyph glyph-name="asterisk" unicode="*" 
d="M188 89l-87.0029 60.002l44 64c10 14 22 27.833 36 41.5s28.167 26.5 42.5 38.5s26.833 22 37.5 30l-3 5c-13.333 0.666992 -29.166 1.66699 -47.499 3s-37 3.83301 -56 7.5s-36.167 8.16699 -51.5 13.5l-72 26l37 100l72 -26c15.333 -5.33301 31.333 -13 48 -23
s32.667 -20.333 48 -31s28.333 -20.334 39 -29.001l5 4l-14 47c-5.33301 18 -9.83301 37 -13.5 57s-5.5 38.667 -5.5 56v77h106v-77c0 -17.333 -1.83301 -36 -5.5 -56s-8 -39 -13 -57s-9.83301 -33.667 -14.5 -47l4 -4c11.333 9.33301 24.5 19.166 39.5 29.499
s30.833 20.5 47.5 30.5s32.667 17.667 48 23l73 26l37 -100l-73 -26c-15.333 -5.33301 -32.333 -9.83301 -51 -13.5s-37 -6.16699 -55 -7.5s-34 -2.33301 -48 -3l-3 -6c10.667 -8 23.167 -18 37.5 -30s28.5 -24.833 42.5 -38.5s25.667 -27.167 35 -40.5l44 -64l-87 -60
l-44 63c-9.33301 14 -18.166 30 -26.499 48s-15.666 35.833 -21.999 53.5s-11.5 33.167 -15.5 46.5h-7c-3.33301 -13.333 -8.33301 -28.833 -15 -46.5s-14 -35.5 -22 -53.5s-17 -34 -27 -48z" />
    <glyph glyph-name="plus" unicode="+" 
d="M242 93v184h-181v106h181v184h116v-184h181v-106h-181v-184h-116z" />
    <glyph glyph-name="comma" unicode="," 
d="M154 -160l80 311h152l-130 -311h-102z" />
    <glyph glyph-name="hyphen" unicode="-" 
d="M140 277v106h320v-106h-320z" />
    <glyph glyph-name="period" unicode="." 
d="M300 -10c-28 0 -50.167 8.16699 -66.5 24.5s-24.5 38.166 -24.5 65.499c0 28 8.16699 50.333 24.5 67s38.5 25 66.5 25s50.167 -8.33301 66.5 -25s24.5 -39 24.5 -67c0 -27.333 -8.16699 -49.166 -24.5 -65.499s-38.5 -24.5 -66.5 -24.5z" />
    <glyph glyph-name="slash" unicode="/" 
d="M64 -110l351 940h121l-351 -940h-121z" />
    <glyph glyph-name="zero" unicode="0" 
d="M300 -10c-46.667 0 -87.167 9 -121.5 27s-60.833 43.333 -79.5 76s-28 70.667 -28 114v316c0 44 9.33301 82.167 28 114.5s45.167 57.5 79.5 75.5s74.833 27 121.5 27c47.333 0 88 -9 122 -27s60.333 -43.167 79 -75.5s28 -70.5 28 -114.5v-316
c0 -43.333 -9.33301 -81.333 -28 -114s-45.167 -58 -79.5 -76s-74.833 -27 -121.5 -27zM300 90c36 0 64.667 10.833 86 32.5s32 49.834 32 84.501v316c0 34.667 -10.667 62.834 -32 84.501s-50 32.5 -86 32.5s-64.667 -10.833 -86 -32.5s-32 -49.834 -32 -84.501v-316
c0 -34.667 10.667 -62.834 32 -84.501s50 -32.5 86 -32.5zM300 302c-19.333 0 -34.833 6 -46.5 18s-17.5 28 -17.5 48c0 19.333 5.83301 34.833 17.5 46.5s27.167 17.5 46.5 17.5s34.833 -5.83301 46.5 -17.5s17.5 -27.167 17.5 -46.5c0 -20 -5.83301 -36 -17.5 -48
s-27.167 -18 -46.5 -18z" />
    <glyph glyph-name="one" unicode="1" 
d="M86 0v103h191v525l-192 -144v124l167 122h142v-627h155v-103h-463z" />
    <glyph glyph-name="two" unicode="2" 
d="M82 0v113.999l227 231c33.333 34.667 57.833 65.834 73.5 93.501s23.5 55.5 23.5 83.5c0 35.333 -9.66699 63.166 -29 83.499s-45.666 30.5 -78.999 30.5c-37.333 0 -66.5 -10.667 -87.5 -32s-31.5 -50.666 -31.5 -87.999h-117c0.666992 46 10.834 85.667 30.501 119
s47.167 59.166 82.5 77.499s76.666 27.5 123.999 27.5c45.333 0 84.833 -8.66699 118.5 -26s59.667 -41.666 78 -72.999s27.5 -68.333 27.5 -111c0 -44 -11.333 -87 -34 -129s-59.334 -88 -110.001 -138l-159 -158h313v-105h-451z" />
    <glyph glyph-name="three" unicode="3" 
d="M292 -10c-46.667 0 -87.168 8.66699 -121.501 26s-61 41.833 -80 73.5s-28.5 68.5 -28.5 110.5h117c0 -34.667 10 -61.667 30 -81s48 -29 84 -29c36.667 0 64.834 10 84.501 30s29.5 46.667 29.5 80v56c0 34.667 -10 61.667 -30 81s-48 29 -84 29h-80v107l166 156h-285
v101h403v-107l-203 -189v33c70.667 0 126.5 -19 167.5 -57s61.5 -89.333 61.5 -154v-56c0 -42 -9.33301 -78.833 -28 -110.5s-45.5 -56.167 -80.5 -73.5s-75.833 -26 -122.5 -26z" />
    <glyph glyph-name="four" unicode="4" 
d="M395 0v148h-326v172l282 410h130l-300 -440v-38h214v168h116v-420h-116z" />
    <glyph glyph-name="five" unicode="5" 
d="M298 -10c-64.667 0 -117.168 16.498 -157.501 49.498s-62.5 77.5 -66.5 133.5h116c2.66699 -25.333 13.334 -45.166 32.001 -59.499s44.334 -21.5 77.001 -21.5c36.667 0 64.334 9.66699 83.001 29s28 46.333 28 81v71c0 35.333 -9.33301 62.5 -28 81.5
s-46 28.5 -82 28.5c-22.667 0 -42.334 -5 -59.001 -15s-29 -23.333 -37 -40h-114l5 402h405v-105h-294l-3 -220h29l-29 -26c0 31.333 12.167 56 36.5 74s57.166 27 98.499 27c59.333 0 105.5 -18.167 138.5 -54.5s49.5 -87.166 49.5 -152.499v-71
c0 -65.333 -20 -117 -60 -155s-96 -57 -168 -57z" />
    <glyph glyph-name="six" unicode="6" 
d="M301 -10c-48.667 0 -91.333 10.1689 -128 30.502s-65 48.666 -85 84.999s-30 78.833 -30 127.5c0 34.667 5.66699 70.667 17 108s27.333 72.666 48 105.999l175 283h129l-213 -338l5 -4c13.333 20 31.333 35.333 54 46s47.667 16 75 16c39.333 0 73.5 -9.33301 102.5 -28
s51.5 -44.667 67.5 -78s24 -73 24 -119c0 -46.667 -10 -87.667 -30 -123s-48 -62.833 -84 -82.5s-78.333 -29.5 -127 -29.5zM300.001 90.002c38 0 68.667 12.333 92 37s35 57.334 35 98.001s-11.667 73.334 -35 98.001s-54 37 -92 37s-68.667 -12.333 -92 -37
s-35 -57.334 -35 -98.001s11.667 -73.334 35 -98.001s54 -37 92 -37z" />
    <glyph glyph-name="seven" unicode="7" 
d="M162 0l263 622h-244v-106h-116v214h477v-111l-255 -619h-125z" />
    <glyph glyph-name="eight" unicode="8" 
d="M300 -10c-47.333 0 -88.3311 8.16797 -122.998 24.501s-61.5 39.333 -80.5 69s-28.5 64.5 -28.5 104.5c0 44 12.167 81.667 36.5 113s61.166 58.333 110.499 81l108 49c25.333 12 45.166 28.167 59.499 48.5s21.5 42.833 21.5 67.5c0 28.667 -9.33301 51.334 -28 68.001
s-44 25 -76 25s-57.5 -8.5 -76.5 -25.5s-28.5 -39.833 -28.5 -68.5c0 -24 7.16699 -46 21.5 -66s33.833 -36 58.5 -48l108 -49c52 -24 89.833 -51.833 113.5 -83.5s35.5 -68.834 35.5 -111.501c0 -60.667 -20.833 -108.834 -62.5 -144.501s-98.167 -53.5 -169.5 -53.5z
M300.002 90.001c36 0 64.666 9.66309 85.999 28.9961s32 44.333 32 75c0 24.667 -7.33301 47.834 -22 69.501s-34.667 38.5 -60 50.5l-113 53c-47.333 22.667 -83 48.834 -107 78.501s-36 65.167 -36 106.5c0 37.333 9 70.166 27 98.499s43.5 50.5 76.5 66.5
s71.833 24 116.5 24s83.334 -8 116.001 -24s58 -38.167 76 -66.5s27 -61.166 27 -98.499c0 -42 -11.833 -77.667 -35.5 -107s-59.5 -55.666 -107.5 -78.999l-114 -53c-24.667 -11.333 -44.167 -27.666 -58.5 -48.999s-21.5 -44 -21.5 -68c0 -32 10.667 -57.667 32 -77
s50 -29 86 -29z" />
    <glyph glyph-name="nine" unicode="9" 
d="M173 0l213.001 337.998l-5 4c-13.333 -20 -31.333 -35.333 -54 -46s-47.667 -16 -75 -16c-39.333 0 -73.5 9.33301 -102.5 28s-51.5 44.834 -67.5 78.501s-24 73.167 -24 118.5c0 47.333 10 88.5 30 123.5s48.167 62.333 84.5 82s78.5 29.5 126.5 29.5
c49.333 0 92.166 -10.167 128.499 -30.5s64.5 -48.5 84.5 -84.5s30 -78.667 30 -128c0 -34.667 -5.5 -70.667 -16.5 -108s-27.167 -72.666 -48.5 -105.999l-175 -283h-129zM300.001 369.998c38 0 68.667 12.333 92 37s35 57.334 35 98.001s-11.667 73.334 -35 98.001
s-54 37 -92 37s-68.667 -12.333 -92 -37s-35 -57.334 -35 -98.001s11.667 -73.334 35 -98.001s54 -37 92 -37z" />
    <glyph glyph-name="colon" unicode=":" 
d="M300 397c-27.333 0 -49.333 7.5 -66 22.5s-25 34.5 -25 58.5c0 24.667 8.33301 44.5 25 59.5s38.667 22.5 66 22.5s49.333 -7.5 66 -22.5s25 -34.833 25 -59.5c0 -24 -8.33301 -43.5 -25 -58.5s-38.667 -22.5 -66 -22.5zM300 -10c-27.333 0 -49.333 7.5 -66 22.5
s-25 34.833 -25 59.5s8.33301 44.334 25 59.001s38.667 22 66 22s49.333 -7.33301 66 -22s25 -34.334 25 -59.001s-8.33301 -44.5 -25 -59.5s-38.667 -22.5 -66 -22.5z" />
    <glyph glyph-name="semicolon" unicode=";" 
d="M159 -160l80 311h152l-130 -311h-102zM290 397c-24 0 -43.667 7.66699 -59 23s-23 34.666 -23 57.999s7.83301 42.833 23.5 58.5s35.167 23.5 58.5 23.5h20c23.333 0 42.833 -7.83301 58.5 -23.5s23.5 -35.167 23.5 -58.5s-7.66699 -42.666 -23 -57.999s-35 -23 -59 -23
h-20z" />
    <glyph glyph-name="less" unicode="&#x3c;" 
d="M522 58l-444 212v119l444 212v-108l-295 -139c-13.333 -6 -26.333 -11 -39 -15s-22.334 -6.66699 -29.001 -8c7.33301 -1.33301 17.333 -4 30 -8s25.334 -9 38.001 -15l295 -139v-111z" />
    <glyph glyph-name="equal" unicode="=" 
d="M83 399v106h434v-106h-434zM83 155v106h434v-106h-434z" />
    <glyph glyph-name="greater" unicode="&#x3e;" 
d="M78 58v109.001l295 138c13.333 6 26.333 11 39 15s22.334 6.66699 29.001 8c-7.33301 1.33301 -17.333 4.16602 -30 8.49902s-25.334 9.5 -38.001 15.5l-295 138v111l444 -212v-119z" />
    <glyph glyph-name="question" unicode="?" 
d="M198 214l-2 195h72c35.333 0 63.666 9.66699 84.999 29s32 45 32 77s-10.667 57.667 -32 77s-50 29 -86 29h-143v109h138c48.667 0 90.834 -8.83301 126.501 -26.5s63.334 -42.5 83.001 -74.5s29.5 -70 29.5 -114c0 -40 -8.33301 -75.333 -25 -106
s-39.834 -55 -69.501 -73s-64.167 -27.333 -103.5 -28v-94h-105zM235 -5c-19.333 0 -35.333 6 -48 18s-19 27.333 -19 46c0 19.333 6.33301 35 19 47s28.667 18 48 18h30c20.667 0 37 -5.83301 49 -17.5s18 -27.167 18 -46.5s-6.16699 -35 -18.5 -47s-28.5 -18 -48.5 -18
h-30z" />
    <glyph glyph-name="at" unicode="@" 
d="M325 -180c-59.333 0 -110.5 11.833 -153.5 35.5s-76.333 57.334 -100 101.001s-35.5 94.834 -35.5 153.501v340c0 60 11.167 111.667 33.5 155s54.333 76.666 96 99.999s91.5 35 149.5 35c52.667 0 98 -10 136 -30s67.167 -48.333 87.5 -85s30.5 -79.334 30.5 -128.001
v-432h-89l5 55h-30l16 25c0 -26.667 -9.83301 -48.334 -29.5 -65.001s-45.834 -25 -78.501 -25c-42 0 -74.5 13.833 -97.5 41.5s-34.5 66.834 -34.5 117.501v116c0 51.333 11.5 90.666 34.5 117.999s55.5 41 97.5 41c32.667 0 58.834 -8.16699 78.501 -24.5
s29.5 -38.166 29.5 -65.499l-14 21h29l-15 69v8c0 32 -6.16699 59.833 -18.5 83.5s-30 42 -53 55s-51.167 19.5 -84.5 19.5c-57.333 0 -101.833 -18 -133.5 -54s-47.5 -86.333 -47.5 -151v-340c0 -62.667 16.833 -111.5 50.5 -146.5s80.5 -52.5 140.5 -52.5h70v-91h-70z
M400 128c24.667 0 42.667 7.33398 54 22.001s17 38 17 70v111c0 28.667 -5.83301 50.167 -17.5 64.5s-29.5 21.5 -53.5 21.5c-23.333 0 -41 -7.33301 -53 -22s-18 -36.334 -18 -65.001v-116c0 -30 6 -51.833 18 -65.5s29.667 -20.5 53 -20.5z" />
    <glyph glyph-name="A" unicode="A" 
d="M39 0l185 730h152l185 -730h-118l-43 181h-200l-42 -181h-119zM221 277h157l-46 203c-8 34.667 -14.833 65.667 -20.5 93s-9.5 46.333 -11.5 57l-11 -56.5c-5.33301 -27 -12 -57.833 -20 -92.5z" />
    <glyph glyph-name="B" unicode="B" 
d="M81 0l-0.000976562 729.999h219c70 0 125.333 -16.667 166 -50s61 -79.333 61 -138c0 -32.667 -7.33301 -61.167 -22 -85.5s-34.667 -43.166 -60 -56.499s-54.333 -20 -87 -20v7c36 0.666992 67.833 -6 95.5 -20s49.5 -34.667 65.5 -62s24 -60 24 -98
c0 -42 -9.33301 -78.667 -28 -110s-45.167 -55.333 -79.5 -72s-75.166 -25 -122.499 -25h-232zM193.999 98.999h111c37.333 0 67 10 89 30s33 47.667 33 83c0 36 -11 64.833 -33 86.5s-51.667 32.5 -89 32.5h-111v-232zM193.999 426.999l104.999 0.000976562
c34.667 0 61.834 9.16699 81.501 27.5s29.5 43.166 29.5 74.499c0 32 -9.83301 57 -29.5 75s-46.5 27 -80.5 27h-106v-204z" />
    <glyph glyph-name="C" unicode="C" 
d="M304 -10c-46 0 -86.167 8.66992 -120.5 26.0029s-60.833 42.166 -79.5 74.499s-28 70.166 -28 113.499v322c0 44 9.33301 82 28 114s45.167 56.667 79.5 74s74.5 26 120.5 26c46.667 0 86.834 -8.83301 120.501 -26.5s59.834 -42.334 78.501 -74.001s28 -69.5 28 -113.5
h-116c0 36 -9.66699 63.5 -29 82.5s-46.666 28.5 -81.999 28.5s-62.833 -9.5 -82.5 -28.5s-29.5 -46.5 -29.5 -82.5v-322c0 -35.333 9.83301 -62.666 29.5 -81.999s47.167 -29 82.5 -29s62.666 9.66699 81.999 29s29 46.666 29 81.999h116
c0 -42.667 -9.33301 -80.167 -28 -112.5s-44.834 -57.333 -78.501 -75s-73.834 -26.5 -120.501 -26.5z" />
    <glyph glyph-name="D" unicode="D" 
d="M79 0v730.001h210c49.333 0 91.833 -9.33301 127.5 -28s63.5 -44.834 83.5 -78.501s30 -73.5 30 -119.5v-277c0 -46 -10 -86 -30 -120s-47.833 -60.333 -83.5 -79s-78.167 -28 -127.5 -28h-210zM196 107.001l93 0.000976562c38.667 0 69 10.667 91 32
s33 50.666 33 87.999v277c0 36.667 -11 65.667 -33 87s-52.333 32 -91 32h-93v-516z" />
    <glyph glyph-name="E" unicode="E" 
d="M91 0v730h433v-102h-318v-199h283v-102h-283v-225h318v-102h-433z" />
    <glyph glyph-name="F" unicode="F" 
d="M84 0v731h448v-108h-334v-207h308v-108h-306v-308h-116z" />
    <glyph glyph-name="G" unicode="G" 
d="M304 -10c-46 0 -86.167 8.66992 -120.5 26.0029s-60.833 42.166 -79.5 74.499s-28 70.166 -28 113.499v322c0 44 9.33301 82 28 114s45.167 56.667 79.5 74s74.5 26 120.5 26c46.667 0 86.834 -8.83301 120.501 -26.5s59.834 -42.334 78.501 -74.001s28 -69.5 28 -113.5
h-116c0 36 -9.66699 63.5 -29 82.5s-46.666 28.5 -81.999 28.5s-62.833 -9.5 -82.5 -28.5s-29.5 -46.5 -29.5 -82.5v-322c0 -35.333 9.83301 -62.833 29.5 -82.5s47.167 -29.5 82.5 -29.5s62.666 9.83301 81.999 29.5s29 47.5 29 83.5v77h-131v102h247v-180
c0 -43.333 -9.33301 -81 -28 -113s-44.834 -56.833 -78.501 -74.5s-73.834 -26.5 -120.501 -26.5z" />
    <glyph glyph-name="H" unicode="H" 
d="M81 0v730h117v-298h204v298h117v-730h-117v324h-204v-324h-117z" />
    <glyph glyph-name="I" unicode="I" 
d="M94 0v103h147v524h-147v103h412v-103h-147v-524h147v-103h-412z" />
    <glyph glyph-name="J" unicode="J" 
d="M270 -10c-72.667 0 -130.165 20.167 -172.498 60.5s-63.5 94.833 -63.5 163.5h116c0 -38 10.667 -67.833 32 -89.5s50.666 -32.5 87.999 -32.5s66.666 10.667 87.999 32s32 51.333 32 90v408h-171v108h287v-516c0 -69.333 -21.167 -124 -63.5 -164
s-99.833 -60 -172.5 -60z" />
    <glyph glyph-name="K" unicode="K" 
d="M80 0v730h117v-300h91l144 300h126l-167 -350l176 -380h-131l-149 325h-90v-325h-117z" />
    <glyph glyph-name="L" unicode="L" 
d="M106 0v730h117v-622h314v-108h-431z" />
    <glyph glyph-name="M" unicode="M" 
d="M61 0v729.997h141l72 -233c7.33301 -22.667 13.333 -43.834 18 -63.501s8 -34.167 10 -43.5c2 9.33301 5.33301 23.833 10 43.5s10.334 40.834 17.001 63.501l69 233h141v-730h-110v236c0 32.667 1 68.334 3 107.001s4.5 77.667 7.5 117s6.33301 76.833 10 112.5
l9.5 92.5l-103 -349h-110l-105 349c3.33301 -25.333 6.66602 -55.166 9.99902 -89.499s6.5 -71 9.5 -110s5.5 -78.167 7.5 -117.5s3 -76.666 3 -111.999v-236h-110z" />
    <glyph glyph-name="N" unicode="N" 
d="M77 0l-0.00195312 729.999h144l208 -598c-1.33301 20 -3.16602 43.833 -5.49902 71.5s-4.16602 56.334 -5.49902 86.001s-2 56.167 -2 79.5v361h107v-730h-144l-207 598c2 -18 3.83301 -40.333 5.5 -67s3.16699 -54.167 4.5 -82.5s2 -54.5 2 -78.5v-370h-107z" />
    <glyph glyph-name="O" unicode="O" 
d="M300 -10c-46 0 -85.833 8.66699 -119.5 26s-59.5 42.166 -77.5 74.499s-27 70.166 -27 113.499v322c0 44 9 82 27 114s43.833 56.667 77.5 74s73.5 26 119.5 26c46.667 0 86.667 -8.66699 120 -26s59 -42 77 -74s27 -70 27 -114v-322c0 -43.333 -9 -81.166 -27 -113.499
s-43.667 -57.166 -77 -74.499s-73.333 -26 -120 -26zM300 93c35.333 0 62.1641 9.66699 80.4971 29s27.5 46.666 27.5 81.999v322c0 36 -9.16699 63.5 -27.5 82.5s-45.166 28.5 -80.499 28.5s-62.166 -9.5 -80.499 -28.5s-27.5 -46.5 -27.5 -82.5v-322
c0 -35.333 9.33301 -62.666 28 -81.999s45.334 -29 80.001 -29z" />
    <glyph glyph-name="P" unicode="P" 
d="M80 0v729.998h242c48 0 89.667 -9.16699 125 -27.5s62.833 -44.166 82.5 -77.499s29.5 -72.666 29.5 -117.999c0 -44 -9.83301 -82.833 -29.5 -116.5s-47.167 -59.667 -82.5 -78s-77 -27.5 -125 -27.5h-125v-285h-117zM197 389.998l125 0.000976562
c36 0 64.833 10.667 86.5 32s32.5 49.666 32.5 84.999c0 36.667 -10.833 65.5 -32.5 86.5s-50.5 31.5 -86.5 31.5h-125v-235z" />
    <glyph glyph-name="Q" unicode="Q" 
d="M412 -180l-108.998 180l19 -9c-2.66699 0 -5.83398 -0.166992 -9.50098 -0.5s-7.83398 -0.5 -12.501 -0.5c-46 0 -86.167 9 -120.5 27s-61 43.333 -80 76s-28.5 70.667 -28.5 114v316c0 44 9.5 82.167 28.5 114.5s45.667 57.5 80 75.5s74.5 27 120.5 27
c46.667 0 87 -9 121 -27s60.5 -43.167 79.5 -75.5s28.5 -70.5 28.5 -114.5v-316c0 -44 -9.5 -82.5 -28.5 -115.5s-45.833 -58.167 -80.5 -75.5l119 -196h-127zM300.002 93c36 0 63.667 10.167 83 30.5s29 48.166 29 83.499v316c0 36 -10 64.167 -30 84.5
s-47.333 30.5 -82 30.5s-62 -10.167 -82 -30.5s-30 -48.5 -30 -84.5v-316c0 -35.333 9.83301 -63.166 29.5 -83.499s47.167 -30.5 82.5 -30.5z" />
    <glyph glyph-name="R" unicode="R" 
d="M80 0v729.999h230c47.333 0 88.5 -8.83301 123.5 -26.5s62.167 -42.667 81.5 -75s29 -70.166 29 -113.499c0 -48.667 -12.333 -91.167 -37 -127.5s-58 -61.833 -100 -76.5l147 -311h-131l-131 295h-96v-295h-116zM196 397.999l114 0.000976562
c35.333 0 63.5 10.167 84.5 30.5s31.5 48.166 31.5 83.499s-10.5 63.333 -31.5 84s-49.167 31 -84.5 31h-114v-229z" />
    <glyph glyph-name="S" unicode="S" 
d="M302 -10c-49.333 0 -92.002 8.33301 -128.002 25s-63.833 40.334 -83.5 71.001s-29.5 66.667 -29.5 108h116c0 -31.333 11.333 -56 34 -74s53.667 -27 93 -27c36.667 0 65.667 8.83301 87 26.5s32 42.167 32 73.5c0 26 -7.33301 48.5 -22 67.5s-35.667 31.833 -63 38.5
l-88 25c-55.333 15.333 -98 41.833 -128 79.5s-45 82.5 -45 134.5c0 41.333 9.16699 77 27.5 107s44.333 53.5 78 70.5s73.5 25.5 119.5 25.5c69.333 0 124.333 -18.167 165 -54.5s61.334 -84.833 62.001 -145.5h-117c0 30 -9.66699 53.667 -29 71s-46.666 26 -81.999 26
c-34 0 -60.5 -8.16699 -79.5 -24.5s-28.5 -38.833 -28.5 -67.5c0 -26.667 7.16699 -49.334 21.5 -68.001s34.833 -32 61.5 -40l91 -26c55.333 -14.667 97.833 -40.667 127.5 -78s44.5 -83 44.5 -137c0 -41.333 -9.83301 -77.5 -29.5 -108.5s-47.167 -55.167 -82.5 -72.5
s-77 -26 -125 -26z" />
    <glyph glyph-name="T" unicode="T" 
d="M242 0v623h-194v108h504v-108h-194v-623h-116z" />
    <glyph glyph-name="U" unicode="U" 
d="M300 -10c-70.667 0 -125.5 19.333 -164.5 58s-58.5 91.334 -58.5 158.001v524h116v-523c0 -36 9 -64.167 27 -84.5s44.667 -30.5 80 -30.5c34.667 0 61.167 10.167 79.5 30.5s27.5 48.5 27.5 84.5v523h116v-524c0 -66.667 -19.333 -119.334 -58 -158.001
s-93.667 -58 -165 -58z" />
    <glyph glyph-name="V" unicode="V" 
d="M224 0l-185 730h120l114 -481c6.66699 -26 12.667 -52.667 18 -80s9.33301 -49.333 12 -66c2.66699 16.667 6.5 38.667 11.5 66s10.833 54.333 17.5 81l112 480h117l-185 -730h-152z" />
    <glyph glyph-name="W" unicode="W" 
d="M95 0l-77.001 730h103l47 -517c0.666992 -12 1.5 -26.167 2.5 -42.5l3 -48.5c1 -16 1.5 -30 1.5 -42c1.33301 12 2.66602 26 3.99902 42s3 32.167 5 48.5s3.66699 30.5 5 42.5l62 517h102l58 -517l4.5 -42.5c1.66699 -16.333 3.5 -32.5 5.5 -48.5s3.33301 -30 4 -42
c0.666992 12 1.5 26 2.5 42s2.16699 32.167 3.5 48.5s2.33301 30.5 3 42.5l47 517h101l-81 -730h-132l-56 521c-1.33301 14 -2.66602 29 -3.99902 45l-4 48c-1.33301 16 -2.66602 29.667 -3.99902 41c-0.666992 -11.333 -1.66699 -25 -3 -41l-4 -48
c-1.33301 -16 -3 -31 -5 -45l-61 -521h-133z" />
    <glyph glyph-name="X" unicode="X" 
d="M31 0l204.001 373.002l-192 357h131l97 -191c6.66699 -12.667 12.834 -25.334 18.501 -38.001s9.83398 -22.334 12.501 -29.001l12 29c5.33301 12.667 11.333 25.334 18 38.001l99 191h126l-192 -354l204 -376h-131l-108 209c-6.66699 12.667 -12.834 25.5 -18.501 38.5
l-13.5 30.5c-2.66699 -7.33301 -6.83398 -17.333 -12.501 -30s-11.834 -25.334 -18.501 -38.001l-109 -210h-127z" />
    <glyph glyph-name="Y" unicode="Y" 
d="M242 0l-0.000976562 267l-216 463h121l122 -265c8.66699 -18.667 15.834 -36.667 21.501 -54s9.5 -31 11.5 -41c2 10 5.83301 23.667 11.5 41s12.5 35.333 20.5 54l119 265h121l-216 -463v-267h-116z" />
    <glyph glyph-name="Z" unicode="Z" 
d="M81 0v112l302 510h-296v108h422v-112l-302 -510h312v-108h-438z" />
    <glyph glyph-name="bracketleft" unicode="[" 
d="M190 -110v940h271v-107h-155v-726h155v-107h-271z" />
    <glyph glyph-name="backslash" unicode="\" 
d="M414 -110l-351 940h122l351 -940h-122z" />
    <glyph glyph-name="bracketright" unicode="]" 
d="M139 -110v107h155v726h-155v107h271v-940h-271z" />
    <glyph glyph-name="asciicircum" unicode="^" 
d="M71 340l174 390h112l172 -390h-108l-97 237c-5.33301 14 -9.83301 27.333 -13.5 40l-8.5 29l-9 -29c-4 -12.667 -9 -26 -15 -40l-99 -237h-108z" />
    <glyph glyph-name="underscore" unicode="_" 
d="M60 -129v104h480v-104h-480z" />
    <glyph glyph-name="grave" unicode="`" 
d="M284 645l-116 140h129l107 -140h-120z" />
    <glyph glyph-name="a" unicode="a" 
d="M242 -10c-56.667 0 -101.5 14.833 -134.5 44.5s-49.5 70.167 -49.5 121.5c0 53.333 17.833 94.666 53.5 123.999s85.167 44 148.5 44h145v49c0 28 -9 50 -27 66s-43 24 -75 24c-28.667 0 -52.5 -6.16699 -71.5 -18.5s-30.167 -29.166 -33.5 -50.499h-114
c6 50.667 29.167 91 69.5 121s91.166 45 152.499 45c66.667 0 119.334 -16.667 158.001 -50s58 -78.666 58 -135.999v-374h-114v98h-19l20 24c0 -40.667 -15.333 -72.834 -46 -96.501s-71 -35.5 -121 -35.5zM279 78c36.667 0 66.832 9.5 90.499 28.5s35.5 43.167 35.5 72.5
v70h-143c-26.667 0 -48 -7.5 -64 -22.5s-24 -35.167 -24 -60.5c0 -27.333 9.33301 -48.833 28 -64.5s44.334 -23.5 77.001 -23.5z" />
    <glyph glyph-name="b" unicode="b" 
d="M343 -10c-45.333 0 -81.333 12.667 -108 38s-40 60 -40 104l25 -27h-25v-105h-115v730h117v-156l-3 -129h26l-25 -27c0 44 13.5 78.667 40.5 104s62.833 38 107.5 38c55.333 0 99.666 -18.833 132.999 -56.5s50 -88.5 50 -152.5v-152c0 -64 -16.667 -114.833 -50 -152.5
s-77.666 -56.5 -132.999 -56.5zM302 91c34 0 60.5 9.83301 79.5 29.5s28.5 47.5 28.5 83.5v142c0 36 -9.5 63.833 -28.5 83.5s-45.5 29.5 -79.5 29.5c-32 0 -57.5 -10 -76.5 -30s-28.5 -47.667 -28.5 -83v-142c0 -35.333 9.5 -63 28.5 -83s44.5 -30 76.5 -30z" />
    <glyph glyph-name="c" unicode="c" 
d="M304 -10c-46.667 0 -87.167 8.66895 -121.5 26.002s-61 42.166 -80 74.499s-28.5 70.166 -28.5 113.499v142c0 44 9.5 82 28.5 114s45.667 56.667 80 74s74.833 26 121.5 26c67.333 0 121.333 -17.667 162 -53s62 -83.333 64 -144h-116c-2 30 -12.667 53.333 -32 70
s-45.333 25 -78 25c-35.333 0 -63.166 -9.66699 -83.499 -29s-30.5 -47 -30.5 -83v-142c0 -35.333 10.167 -62.833 30.5 -82.5s48.166 -29.5 83.499 -29.5c32.667 0 58.667 8.33301 78 25s30 40 32 70h116c-2 -60.667 -23.333 -108.667 -64 -144s-94.667 -53 -162 -53z" />
    <glyph glyph-name="d" unicode="d" 
d="M257 -10c-55.333 0 -99.666 18.833 -132.999 56.5s-50 88.5 -50 152.5v152c0 64 16.667 114.833 50 152.5s77.666 56.5 132.999 56.5c45.333 0 81.333 -12.667 108 -38s40 -60 40 -104l-25 27h26l-3 129v156h117v-730h-115v105h-25l25 27c0 -44 -13.333 -78.667 -40 -104
s-62.667 -38 -108 -38zM298 91c32.667 0 58.334 10 77.001 30s28 47.667 28 83v142c0 35.333 -9.33301 63 -28 83s-44.334 30 -77.001 30c-34 0 -60.5 -9.83301 -79.5 -29.5s-28.5 -47.5 -28.5 -83.5v-142c0 -36 9.5 -63.833 28.5 -83.5s45.5 -29.5 79.5 -29.5z" />
    <glyph glyph-name="e" unicode="e" 
d="M300 -10c-45.333 0 -84.999 8.83301 -118.999 26.5s-60.333 42.667 -79 75s-28 69.833 -28 112.5v142c0 42.667 9.33301 80.167 28 112.5s45 57.333 79 75s73.667 26.5 119 26.5c46 0 85.833 -8.83301 119.5 -26.5s59.834 -42.667 78.501 -75s28 -69.833 28 -112.5v-99
h-340v-43c0 -39.333 9.83301 -69.333 29.5 -90s48.167 -31 85.5 -31c30 0 54.167 5.33301 72.5 16s29.833 25.667 34.5 45h115c-8.66699 -46.667 -33.334 -84 -74.001 -112s-90.334 -42 -149.001 -42zM414.001 315l0.000976562 31c0 39.333 -9.5 69.5 -28.5 90.5
s-47.5 31.5 -85.5 31.5c-36.667 0 -64.834 -10.667 -84.501 -32s-29.5 -51.333 -29.5 -90v-23l236 1z" />
    <glyph glyph-name="f" unicode="f" 
d="M209 0v384.999h-154v106h154v86c0 46.667 15.333 83.834 46 111.501s72 41.5 124 41.5h161v-103h-159c-17.333 0 -31 -4.5 -41 -13.5s-15 -21.833 -15 -38.5v-84h215v-106h-215v-385h-116z" />
    <glyph glyph-name="g" unicode="g" 
d="M154 -180v99.001h166c28 0 49 6.66699 63 20s21 32.666 21 57.999v49l2 102h-26l25 24c0 -43.333 -13.167 -77.333 -39.5 -102s-61.833 -37 -106.5 -37c-56.667 0 -101.334 18.833 -134.001 56.5s-49 88.5 -49 152.5v109c0 64 16.333 114.833 49 152.5
s77.334 56.5 134.001 56.5c44.667 0 80.167 -12.333 106.5 -37s39.5 -58.667 39.5 -102l-25 24h25l-2 105h116v-555c0 -54 -17.5 -96.667 -52.5 -128s-83.167 -47 -144.5 -47h-168zM298 134.001c32.667 0 58.334 10 77.001 30s28 47.667 28 83v99
c0 35.333 -9.33301 63 -28 83s-44.334 30 -77.001 30c-34 0 -60.167 -9.83301 -78.5 -29.5s-27.5 -47.5 -27.5 -83.5v-99c0 -36 9.16699 -63.833 27.5 -83.5s44.5 -29.5 78.5 -29.5z" />
    <glyph glyph-name="h" unicode="h" 
d="M80 0l0.000976562 730h117v-180l-2 -105h30l-30 -27c0 44.667 13.167 79.5 39.5 104.5s62.166 37.5 107.499 37.5c54.667 0 98.334 -17.667 131.001 -53s49 -83.333 49 -144v-363h-117v351c0 34.667 -9.16699 61.5 -27.5 80.5s-43.5 28.5 -75.5 28.5
c-32.667 0 -58.334 -10 -77.001 -30s-28 -48 -28 -84v-346h-117z" />
    <glyph glyph-name="i" unicode="i" 
d="M78 0v106h193v339h-168v105h280v-444h174v-106h-479zM317 644c-24.667 0 -44 6.16699 -58 18.5s-21 29.166 -21 50.499c0 22 7 39.333 21 52s33.333 19 58 19s44 -6.33301 58 -19s21 -30 21 -52c0 -21.333 -7 -38.166 -21 -50.499s-33.333 -18.5 -58 -18.5z" />
    <glyph glyph-name="j" unicode="j" 
d="M83 -180v108h143c34.667 0 61.667 9.5 81 28.5s29 45.833 29 80.5v405h-223v108h340v-515c0 -66 -20 -118.333 -60 -157s-94.333 -58 -163 -58h-147zM389 644c-24.667 0 -44 6.16699 -58 18.5s-21 29.166 -21 50.499c0 22 7 39.333 21 52s33.333 19 58 19
s44 -6.33301 58 -19s21 -30 21 -52c0 -21.333 -7 -38.166 -21 -50.499s-33.333 -18.5 -58 -18.5z" />
    <glyph glyph-name="k" unicode="k" 
d="M83 0v730h117v-399h92l140 219h131l-171 -265l174 -285h-133l-141 232h-92v-232h-117z" />
    <glyph glyph-name="l" unicode="l" 
d="M382 0c-35.333 0 -66.167 7.16699 -92.5 21.5s-46.833 34.5 -61.5 60.5s-22 56.333 -22 91v452h-178v105h295v-557c0 -20.667 5.83301 -37.167 17.5 -49.5s27.5 -18.5 47.5 -18.5h169v-105h-175z" />
    <glyph glyph-name="m" unicode="m" 
d="M55 0v550.002h97v-72h20l-16 -20c0 31.333 8.5 56.166 25.5 74.499s39.167 27.5 66.5 27.5c30 0 53.167 -11.833 69.5 -35.5s24.5 -55.834 24.5 -96.501l-23 50h36l-15 -20c0 31.333 8.66699 56.166 26 74.499s40.333 27.5 69 27.5c34 0 60.833 -12.833 80.5 -38.5
s29.5 -59.834 29.5 -102.501v-419h-103v415c0 19.333 -4.16699 34.333 -12.5 45s-20.5 16 -36.5 16s-28.333 -5.16699 -37 -15.5s-13 -25.166 -13 -44.499v-416h-86v415c0 20 -4.33301 35.167 -13 45.5s-21 15.5 -37 15.5s-28 -5.16699 -36 -15.5s-12 -25.166 -12 -44.499
v-416h-104z" />
    <glyph glyph-name="n" unicode="n" 
d="M80 0l0.000976562 549.999h115v-105h30l-30 -27c0 44.667 13.167 79.5 39.5 104.5s62.166 37.5 107.499 37.5c54.667 0 98.334 -17.667 131.001 -53s49 -83.333 49 -144v-363h-117v351c0 34.667 -9.16699 61.334 -27.5 80.001s-43.5 28 -75.5 28
c-32.667 0 -58.334 -9.83301 -77.001 -29.5s-28 -47.5 -28 -83.5v-346h-117z" />
    <glyph glyph-name="o" unicode="o" 
d="M300 -9c-46 0 -85.833 8.66602 -119.5 25.999s-59.834 42.166 -78.501 74.499s-28 70.5 -28 114.5v138c0 44 9.33301 82.167 28 114.5s44.834 57.166 78.501 74.499s73.5 26 119.5 26c46.667 0 86.667 -8.66699 120 -26s59.333 -42.166 78 -74.499
s28 -70.166 28 -113.499v-139c0 -44 -9.33301 -82.167 -28 -114.5s-44.667 -57.166 -78 -74.499s-73.333 -26 -120 -26zM300 92.999c34.667 0 61.667 9.66699 81 29s29 47.333 29 84v138c0 37.333 -9.66699 65.5 -29 84.5s-46.333 28.5 -81 28.5
c-34 0 -60.833 -9.5 -80.5 -28.5s-29.5 -47.167 -29.5 -84.5v-138c0 -36.667 9.83301 -64.667 29.5 -84s46.5 -29 80.5 -29z" />
    <glyph glyph-name="p" unicode="p" 
d="M80 -180v730h115v-105h25l-25 -27c0 44 13.5 78.667 40.5 104s63.167 38 108.5 38c55.333 0 99.5 -18.833 132.5 -56.5s49.5 -88.5 49.5 -152.5v-152c0 -42 -7.5 -78.833 -22.5 -110.5s-36 -56 -63 -73s-59.167 -25.5 -96.5 -25.5c-45.333 0 -81.5 12.667 -108.5 38
s-40.5 60 -40.5 104l25 -27h-26l3 -129v-156h-117zM303 91c33.333 0 59.5 9.83301 78.5 29.5s28.5 47.5 28.5 83.5v142c0 36.667 -9.5 64.667 -28.5 84s-45.167 29 -78.5 29c-32.667 0 -58.5 -10 -77.5 -30s-28.5 -47.667 -28.5 -83v-142c0 -35.333 9.5 -63 28.5 -83
s44.833 -30 77.5 -30z" />
    <glyph glyph-name="q" unicode="q" 
d="M403 -180v156l3 129h-26l24 27c0 -44 -13.167 -78.667 -39.5 -104s-62.166 -38 -107.499 -38c-55.333 0 -99.333 18.833 -132 56.5s-49 88.5 -49 152.5v152c0 64 16.333 114.833 49 152.5s76.667 56.5 132 56.5c45.333 0 81.166 -12.667 107.499 -38s39.5 -60 39.5 -104
l-24 27h25v105h115v-730h-117zM298 91c32.667 0 58.334 10 77.001 30s28 47.667 28 83v142c0 35.333 -9.33301 63 -28 83s-44.334 30 -77.001 30c-34 0 -60.167 -9.66699 -78.5 -29s-27.5 -47.333 -27.5 -84v-142c0 -36 9.16699 -63.833 27.5 -83.5s44.5 -29.5 78.5 -29.5z
" />
    <glyph glyph-name="r" unicode="r" 
d="M98 0l0.000976562 550.001h111v-105h29l-35 -65c0 59.333 13.167 104.166 39.5 134.499s65.166 45.5 116.499 45.5c59.333 0 106 -18.167 140 -54.5s51 -86.833 51 -151.5v-38h-121v30c0 37.333 -9.5 66 -28.5 86s-45.167 30 -78.5 30c-34 0 -60.333 -10.167 -79 -30.5
s-28 -48.833 -28 -85.5v-346h-117z" />
    <glyph glyph-name="s" unicode="s" 
d="M280 -9c-40.667 0 -76.165 6.5 -106.498 19.5s-54.333 31 -72 54s-27.5 50.167 -29.5 81.5h117c2 -18 11.167 -32.333 27.5 -43s37.5 -16 63.5 -16h43c32 0 56 6.33301 72 19s24 29.667 24 51c0 20 -7.16699 35.833 -21.5 47.5s-35.833 19.5 -64.5 23.5l-70 10
c-60.667 9.33301 -105.167 26.166 -133.5 50.499s-42.5 60.833 -42.5 109.5c0 51.333 16.833 91 50.5 119s83.5 42 149.5 42h38c59.333 0 106.666 -13.333 141.999 -40s55 -62.667 59 -108h-117c-2 15.333 -10.333 27.833 -25 37.5s-34.334 14.5 -59.001 14.5h-38
c-30 0 -51.833 -5.5 -65.5 -16.5s-20.5 -27.167 -20.5 -48.5c0 -19.333 6 -33.833 18 -43.5s31 -16.5 57 -20.5l72 -10c63.333 -9.33301 110 -26.833 140 -52.5s45 -63.167 45 -112.5c0 -53.333 -17.5 -94.666 -52.5 -123.999s-87.5 -44 -157.5 -44h-43z" />
    <glyph glyph-name="t" unicode="t" 
d="M360 0c-51.333 0 -91.333 14.167 -120 42.5s-43 67.5 -43 117.5v285h-151v105h151v155h116v-155h214v-105h-214v-285c0 -36.667 18 -55 54 -55h150v-105h-157z" />
    <glyph glyph-name="u" unicode="u" 
d="M299 -10c-68 0 -121.833 19.333 -161.5 58s-59.5 91.334 -59.5 158.001v344h117v-343c0 -36.667 9.16699 -65 27.5 -85s43.833 -30 76.5 -30c33.333 0 59.333 10 78 30s28 48.333 28 85v343h117v-344c0 -66.667 -20.167 -119.334 -60.5 -158.001s-94.5 -58 -162.5 -58z
" />
    <glyph glyph-name="v" unicode="v" 
d="M225 0l-182.002 550h119l109 -343c6.66699 -20.667 12.834 -41.5 18.501 -62.5s9.83398 -37.5 12.501 -49.5l13.5 49.5l16.5 62.5l107 343h118l-181 -550h-151z" />
    <glyph glyph-name="w" unicode="w" 
d="M108 0l-83.998 550h98l48 -350c2.66699 -18 5.16699 -38 7.5 -60s4.16602 -40 5.49902 -54c1.33301 14 3.66602 32 6.99902 54l9 60l54 350h94l54 -350l9 -60c3.33301 -22 5.66602 -40.333 6.99902 -55c1.33301 14.667 3.5 33 6.5 55l8.5 60l50 350h94l-87 -550h-122
l-51 349l-9 61c-3.33301 22 -5.66602 39.667 -6.99902 53c-2 -13.333 -4.5 -31 -7.5 -53l-8.5 -61l-54 -349h-122z" />
    <glyph glyph-name="x" unicode="x" 
d="M39 0l192.999 284l-180 266h133l91 -143c4.66699 -8 9.33398 -16.833 14.001 -26.5s8.33398 -17.5 11.001 -23.5c2 6 5.33301 13.833 10 23.5s9.33398 18.5 14.001 26.5l91 143h133l-180 -267l192 -283h-133l-102 158c-4.66699 8 -9.33398 17 -14.001 27
s-8.33398 18.333 -11.001 25c-2.66699 -6.66699 -6.5 -15 -11.5 -25s-10.167 -19 -15.5 -27l-102 -158h-133z" />
    <glyph glyph-name="y" unicode="y" 
d="M169 -180l78 211l-205 519h128l108 -296c5.33301 -14 10.5 -31 15.5 -51l12.5 -50c2.66699 13.333 6.5 30 11.5 50s9.83301 37 14.5 51l103 296h123l-266 -730h-123z" />
    <glyph glyph-name="z" unicode="z" 
d="M81 0v108l292 339h-283v103h418v-108l-296 -339h307v-103h-438z" />
    <glyph glyph-name="braceleft" unicode="{" 
d="M457 -110c-38 0 -71.166 7.00098 -99.499 21.001s-50 34 -65 60s-21.167 57 -18.5 93l10 156c1.33301 28.667 -4.33398 50.167 -17.001 64.5s-36 21.5 -70 21.5h-116v107h116c34 0 57.333 7.16699 70 21.5s18.334 36.166 17.001 65.499l-10 158
c-2 36 4.33301 66.833 19 92.5s36 45.334 64 59.001s61.333 20.5 100 20.5h62v-107h-49c-26 0 -46.167 -6 -60.5 -18s-20.833 -30.667 -19.5 -56l10 -158c2.66699 -40.667 -8.66602 -73 -33.999 -97s-61 -36 -107 -36v5c45.333 0 80.833 -12.333 106.5 -37
s37.167 -57.334 34.5 -98.001l-10 -157c-0.666992 -24 6.16602 -42.5 20.499 -55.5s34.166 -19.5 59.499 -19.5h49v-106h-62z" />
    <glyph glyph-name="bar" unicode="|" 
d="M242 -110v940h116v-940h-116z" />
    <glyph glyph-name="braceright" unicode="}" 
d="M81 -110l-0.000976562 105.999h49c25.333 0 45.333 6.5 60 19.5s21.334 31.5 20.001 55.5l-10 157c-2.66699 40.667 8.83301 73.334 34.5 98.001s61.167 37 106.5 37v-5c-45.333 0 -80.833 12 -106.5 36s-37.167 56.333 -34.5 97l10 158
c1.33301 25.333 -5.16699 44 -19.5 56s-34.5 18 -60.5 18h-49v107h62c38.667 0 72 -6.83301 100 -20.5s49.5 -33.334 64.5 -59.001s21.167 -56.5 18.5 -92.5l-10 -158c-1.33301 -29.333 4.5 -51.166 17.5 -65.499s36.167 -21.5 69.5 -21.5h116v-107h-116
c-33.333 0 -56.5 -7.16699 -69.5 -21.5s-18.833 -35.833 -17.5 -64.5l10 -156c2.66699 -36 -3.5 -67 -18.5 -93s-36.5 -46 -64.5 -60s-61.333 -21 -100 -21h-62z" />
    <glyph glyph-name="asciitilde" unicode="~" 
d="M54 255l0.000976562 77c0 40.667 13 73.167 39 97.5s60 36.5 102 36.5c26.667 0 49 -4.5 67 -13.5s33.167 -20.167 45.5 -33.5s23.333 -26.666 33 -39.999s19.5 -24.5 29.5 -33.5s21.667 -13.5 35 -13.5s23.5 4 30.5 12s10.5 19.333 10.5 34v72h100v-77
c0 -40 -12.833 -72.333 -38.5 -97s-59.834 -37 -102.501 -37c-26.667 0 -49 4.5 -67 13.5s-33.167 20.167 -45.5 33.5s-23.333 26.666 -33 39.999s-19.5 24.5 -29.5 33.5s-21.667 13.5 -35 13.5s-23.5 -3.83301 -30.5 -11.5s-10.5 -19.167 -10.5 -34.5v-72h-100z" />
    <glyph glyph-name="uni00A0" unicode="&#xa0;" 
 />
    <glyph glyph-name="exclamdown" unicode="&#xa1;" 
d="M235 -180v140l22 362h86l22 -362v-140h-130zM288 427c-20.667 0 -37.5 6 -50.5 18s-19.5 27.667 -19.5 47s6.5 34.833 19.5 46.5s29.833 17.5 50.5 17.5h24c20.667 0 37.5 -5.83301 50.5 -17.5s19.5 -27.167 19.5 -46.5s-6.5 -35 -19.5 -47s-29.833 -18 -50.5 -18h-24z
" />
    <glyph glyph-name="cent" unicode="&#xa2;" 
d="M276 -140v830h63v-830h-63zM304 -10c-46.667 0 -87.167 8.66895 -121.5 26.002s-61 42.166 -80 74.499s-28.5 70.166 -28.5 113.499v142c0 44 9.5 82 28.5 114s45.667 56.667 80 74s74.833 26 121.5 26c67.333 0 121.333 -17.667 162 -53s62 -83.333 64 -144h-116
c-2 30 -12.667 53.333 -32 70s-45.333 25 -78 25c-35.333 0 -63.166 -9.66699 -83.499 -29s-30.5 -47 -30.5 -83v-142c0 -35.333 10.167 -62.833 30.5 -82.5s48.166 -29.5 83.499 -29.5c32.667 0 58.667 8.33301 78 25s30 40 32 70h116
c-2 -60.667 -23.333 -108.667 -64 -144s-94.667 -53 -162 -53z" />
    <glyph glyph-name="sterling" unicode="&#xa3;" 
d="M75 0l0.000976562 127.003c16 10 32.333 22.5 49 37.5s30.834 31 42.501 48s17.5 33.833 17.5 50.5c0 28 -3.83301 51.833 -11.5 71.5s-17 37.334 -28 53.001l-33.5 46c-11.333 15 -20.833 31.5 -28.5 49.5s-11.5 39.667 -11.5 65c0 38 9.33301 71.333 28 100
s45.167 51.167 79.5 67.5s74.833 24.5 121.5 24.5c45.333 0 84.833 -8.16699 118.5 -24.5s59.834 -39.333 78.501 -69s28.667 -64.834 30 -105.501h-119c-1.33301 28.667 -11.833 52 -31.5 70s-45.834 27 -78.501 27c-34.667 0 -61.5 -8.66699 -80.5 -26
s-28.5 -40.666 -28.5 -69.999c0 -18.667 3.5 -35 10.5 -49s15.667 -27.667 26 -41s20.5 -27.833 30.5 -43.5s18.667 -34.334 26 -56.001s11 -48.5 11 -80.5c0 -28.667 -6.83301 -54.334 -20.5 -77.001s-30.334 -41.334 -50.001 -56.001s-38.834 -25.334 -57.501 -32.001h370
v-107h-460zM71.001 296.003v98h364v-98h-364z" />
    <glyph glyph-name="currency" unicode="&#xa4;" 
d="M494 112l-87.001 86.999c-14.667 -9.33301 -31 -16.333 -49 -21s-37 -7 -57 -7s-39 2.33301 -57 7s-34.667 11.667 -50 21l-86 -86l-65 65l84 85c-10 15.333 -17.833 32.333 -23.5 51s-8.5 38.334 -8.5 59.001s2.83301 40.167 8.5 58.5s13.5 35.166 23.5 50.499l-86 87
l66 66l88 -88c15.333 9.33301 31.833 16.333 49.5 21s36.5 7 56.5 7c40.667 0 77 -10 109 -30l84 85l65 -65l-83 -84c9.33301 -15.333 16.5 -32.166 21.5 -50.499s7.5 -37.5 7.5 -57.5s-2.66699 -39.333 -8 -58s-12.666 -35.667 -21.999 -51l86 -86zM300.999 251.999
c22.667 0 43 5.16699 61 15.5s32 24.833 42 43.5s15 39.334 15 62.001c0 23.333 -5 44.166 -15 62.499s-24 32.666 -42 42.999s-38.333 15.5 -61 15.5s-43.167 -5.16699 -61.5 -15.5s-32.666 -24.666 -42.999 -42.999s-15.5 -39.166 -15.5 -62.499
c0 -22.667 5.16699 -43.334 15.5 -62.001s24.666 -33.167 42.999 -43.5s38.833 -15.5 61.5 -15.5z" />
    <glyph glyph-name="yen" unicode="&#xa5;" 
d="M60 266v88h480v-88h-480zM60 111v88h480v-88h-480zM242 0l-0.000976562 267l-216 463h121l122 -265c8.66699 -18.667 15.834 -36.667 21.501 -54s9.5 -31 11.5 -41c2 10 5.83301 23.667 11.5 41s12.5 35.333 20.5 54l119 265h121l-216 -463v-267h-116z" />
    <glyph glyph-name="brokenbar" unicode="&#xa6;" 
d="M242 450v380h116v-380h-116zM242 -110v380h116v-380h-116z" />
    <glyph glyph-name="section" unicode="&#xa7;" 
d="M285 -154c-41.333 0 -77.668 6.33203 -109.001 18.999s-56.833 30.5 -76.5 53.5s-31.834 50.5 -36.501 82.5h119c5.33301 -18 17.333 -32.667 36 -44s41 -17 67 -17h30c34 0 60.333 7 79 21s28 32.667 28 56c0 20.667 -7.5 37.667 -22.5 51s-37.833 23 -68.5 29l-93 20
c-50.667 10.667 -91 30.5 -121 59.5s-45 63.167 -45 102.5c0 38.667 12.333 70.5 37 95.5s57.334 39.167 98.001 42.5v7c-19.333 2.66699 -39.166 9.33398 -59.499 20.001s-37.5 26.667 -51.5 48s-21 48.333 -21 81c0 51.333 18.667 92 56 122s89.333 45 156 45h30
c59.333 0 108 -13.333 146 -40s60.333 -62.667 67 -108h-120c-3.33301 15.333 -13.5 28.166 -30.5 38.499s-37.833 15.5 -62.5 15.5h-30c-31.333 0 -55.5 -6.5 -72.5 -19.5s-25.5 -30.5 -25.5 -52.5c0 -18.667 7.16699 -34.667 21.5 -48s35.5 -23 63.5 -29l95 -20
c52.667 -11.333 93.667 -31.666 123 -60.999s44 -64.333 44 -105c0 -38.667 -12.167 -70.5 -36.5 -95.5s-57.833 -38.5 -100.5 -40.5v-7c20 -1.33301 40.667 -7.66602 62 -18.999s39.333 -27.833 54 -49.5s22 -49.167 22 -82.5c0 -52.667 -19.5 -94.334 -58.5 -125.001
s-93.5 -46 -163.5 -46h-30zM322.998 194.999c19.333 -4 36.5 -2.33496 51.5 4.99805s26.5 19.333 34.5 36s12 36 12 58c0 22.667 -6.83301 42.5 -20.5 59.5s-31.834 27.833 -54.501 32.5l-65 13c-19.333 4 -36 2.33301 -50 -5s-24.833 -19.166 -32.5 -35.499
s-11.5 -35.166 -11.5 -56.499c0 -24 6.33301 -44.667 19 -62s29.334 -28 50.001 -32z" />
    <glyph glyph-name="dieresis" unicode="&#xa8;" 
d="M416 644c-22 0 -39.333 6.16699 -52 18.5s-19 29.166 -19 50.499c0 22 6.33301 39.333 19 52s30 19 52 19c21.333 0 38.5 -6.33301 51.5 -19s19.5 -30 19.5 -52c0 -21.333 -6.5 -38.166 -19.5 -50.499s-30.167 -18.5 -51.5 -18.5zM184 644
c-21.333 0 -38.5 6.16699 -51.5 18.5s-19.5 29.166 -19.5 50.499c0 22 6.5 39.333 19.5 52s30.167 19 51.5 19c22 0 39.333 -6.33301 52 -19s19 -30 19 -52c0 -21.333 -6.33301 -38.166 -19 -50.499s-30 -18.5 -52 -18.5z" />
    <glyph glyph-name="copyright" unicode="&#xa9;" 
d="M300 110c-50.667 0 -95.167 10 -133.5 30s-68.166 48 -89.499 84s-32 78 -32 126v150c0 48 10.667 90 32 126s51.166 64 89.499 84s82.833 30 133.5 30c51.333 0 96 -10 134 -30s67.667 -48 89 -84s32 -78 32 -126v-150c0 -48 -10.667 -90 -32 -126s-51 -64 -89 -84
s-82.667 -30 -134 -30zM300 160c40 0 75 7.83301 105 23.5s53.333 37.834 70 66.501s25 62 25 100v150c0 38 -8.33301 71.167 -25 99.5s-40 50.5 -70 66.5s-65 24 -105 24s-75 -8 -105 -24s-53.333 -38.167 -70 -66.5s-25 -61.5 -25 -99.5v-150
c0 -38 8.33301 -71.333 25 -100s40 -50.834 70 -66.501s65 -23.5 105 -23.5zM305 245c-38.667 0 -69.834 11 -93.501 33s-35.5 50.667 -35.5 86v122c0 35.333 11.833 64 35.5 86s54.834 33 93.501 33s69.667 -11 93 -33s35 -50.667 35 -86h-73
c0 16.667 -5.16699 30 -15.5 40s-23.5 15 -39.5 15c-16.667 0 -30.167 -5 -40.5 -15s-15.5 -23.333 -15.5 -40v-122c0 -16.667 5.16699 -30 15.5 -40s23.833 -15 40.5 -15c16 0 29.167 5 39.5 15s15.5 23.333 15.5 40h73c0 -35.333 -11.667 -64 -35 -86s-54.333 -33 -93 -33
z" />
    <glyph glyph-name="ordfeminine" unicode="&#xaa;" 
d="M364 455l-0.00195312 55h-3v140c0 12.667 -5 22.667 -15 30s-23.667 11 -41 11c-15.333 0 -28.166 -3 -38.499 -9s-16.166 -14 -17.499 -24h-63c4 25.333 16.667 45.333 38 60s48.333 22 81 22c36 0 64.833 -8 86.5 -24s32.5 -38 32.5 -66v-195h-60zM269.998 450
c-30 0 -54.001 7.83398 -72.001 23.501s-27 36.834 -27 63.501c0 26 9.83301 46.833 29.5 62.5s46.167 23.5 79.5 23.5h92v-45h-92c-14.667 0 -26 -3.5 -34 -10.5s-12 -16.833 -12 -29.5s4.83301 -22.834 14.5 -30.501s22.5 -11.5 38.5 -11.5c22.667 0 40.667 5.33301 54 16
s20 25 20 43h11v-45h-11c-6.66699 -18.667 -18.167 -33.334 -34.5 -44.001s-35.166 -16 -56.499 -16z" />
    <glyph glyph-name="guillemotleft" unicode="&#xab;" 
d="M449 40l-185 240l185 240h128l-190 -238l190 -242h-128zM208 40l-185 240l185 240h128l-189 -238l189 -242h-128z" />
    <glyph glyph-name="logicalnot" unicode="&#xac;" 
d="M416 192v132h-346v106h460v-238h-114z" />
    <glyph glyph-name="uni00AD" unicode="&#xad;" 
d="M140 277v106h320v-106h-320z" />
    <glyph glyph-name="registered" unicode="&#xae;" 
d="M300 110c-50.667 0 -95.167 10 -133.5 30s-68.166 48 -89.499 84s-32 78 -32 126v150c0 48 10.667 90 32 126s51.166 64 89.499 84s82.833 30 133.5 30c51.333 0 96 -10 134 -30s67.667 -48 89 -84s32 -78 32 -126v-150c0 -48 -10.667 -90 -32 -126s-51 -64 -89 -84
s-82.667 -30 -134 -30zM359 250l-64 155h70l66 -155h-72zM300 160c40 0 75 7.83301 105 23.5s53.333 37.834 70 66.501s25 62 25 100v150c0 38 -8.33301 71.167 -25 99.5s-40 50.5 -70 66.5s-65 24 -105 24s-75 -8 -105 -24s-53.333 -38.167 -70 -66.5s-25 -61.5 -25 -99.5
v-150c0 -38 8.33301 -71.333 25 -100s40 -50.834 70 -66.501s65 -23.5 105 -23.5zM186 250v350.001h118c36.667 0 66 -9.66699 88 -29s33 -45.333 33 -78s-11 -58.334 -33 -77.001s-51.333 -28 -88 -28h-50v-138h-68zM254 444.001l50 0.00195312c16 0 28.667 4.66699 38 14
s14 21.666 14 36.999s-4.66699 27.666 -14 36.999s-22 14 -38 14h-50v-102z" />
    <glyph glyph-name="macron" unicode="&#xaf;" 
d="M131 663v91h338v-91h-338z" />
    <glyph glyph-name="degree" unicode="&#xb0;" 
d="M300 450c-44.667 0 -80.834 13.333 -108.501 40s-41.5 61.667 -41.5 105s13.833 78.333 41.5 105s63.834 40 108.501 40c45.333 0 81.666 -13.333 108.999 -40s41 -61.667 41 -105s-13.667 -78.333 -41 -105s-63.666 -40 -108.999 -40zM299 507
c25.333 0 45.666 8.16699 60.999 24.5s23 37.5 23 63.5c0 26.667 -7.66699 48 -23 64s-35.666 24 -60.999 24c-24.667 0 -44.5 -8 -59.5 -24s-22.5 -37.333 -22.5 -64c0 -26 7.5 -47.167 22.5 -63.5s34.833 -24.5 59.5 -24.5z" />
    <glyph glyph-name="plusminus" unicode="&#xb1;" 
d="M68 0v88h176v192h-181v106h181v184h116v-184h182v-106h-182v-192h172v-88h-464z" />
    <glyph glyph-name="uni00B2" unicode="&#xb2;" 
d="M160 405v91.001l168 120c13.333 9.33301 23.833 21.166 31.5 35.499s11.5 28.833 11.5 43.5c0 22.667 -6.5 40.667 -19.5 54s-30.167 20 -51.5 20c-22 0 -39.5 -6.66699 -52.5 -20s-19.5 -31.333 -19.5 -54h-81c1.33301 44.667 15.833 80 43.5 106s64.167 39 109.5 39
c46.667 0 83.667 -13 111 -39s41 -60.667 41 -104c0 -24.667 -7.5 -49.167 -22.5 -73.5s-35.167 -45.5 -60.5 -63.5l-120 -83h212v-72h-301z" />
    <glyph glyph-name="uni00B3" unicode="&#xb3;" 
d="M284 395c-46.667 0 -84.168 12.8311 -112.501 38.498s-42.5 60.167 -42.5 103.5h80c0 -22 6.83301 -39.333 20.5 -52s31.834 -19 54.501 -19c22 0 39.5 6.33301 52.5 19s19.5 30.334 19.5 53.001s-6.33301 40.334 -19 53.001s-30 19 -52 19h-30v67l87 81h-182v73h250v-84
l-114 -107v31c42.667 0 77 -12 103 -36s39 -56.333 39 -97c0 -44 -14 -78.833 -42 -104.5s-65.333 -38.5 -112 -38.5z" />
    <glyph glyph-name="acute" unicode="&#xb4;" 
d="M199 645l105 140h126l-114 -140h-117z" />
    <glyph glyph-name="uni00B5" unicode="&#xb5;" 
d="M79 -180l0.00195312 730h116v-347c0 -36 8.5 -63.5 25.5 -82.5s43.167 -28.5 78.5 -28.5c36 0 62.667 9.5 80 28.5s26 46.5 26 82.5v347h116v-347c0 -66.667 -18.5 -118.834 -55.5 -156.501s-88.167 -56.5 -153.5 -56.5c-30.667 0 -56.834 4.5 -78.501 13.5
s-38.5 20 -50.5 33s-20 25.5 -24 37.5h-6c0.666992 0 2.66699 -5 6 -15s6.66602 -21.667 9.99902 -35s5.33301 -25.666 6 -36.999l15 -167h-111z" />
    <glyph glyph-name="paragraph" unicode="&#xb6;" 
d="M248 -180v490c-56.667 0 -102.5 15.667 -137.5 47s-52.5 72.333 -52.5 123v80c0 51.333 17.5 92.5 52.5 123.5s80.833 46.5 137.5 46.5h94v-910h-94zM423 -180v910h93v-910h-93z" />
    <glyph glyph-name="periodcentered" unicode="&#xb7;" 
d="M300 256c-28 0 -50.167 8.16699 -66.5 24.5s-24.5 38.166 -24.5 65.499c0 28 8.16699 50.333 24.5 67s38.5 25 66.5 25s50.167 -8.33301 66.5 -25s24.5 -39 24.5 -67c0 -27.333 -8.16699 -49.166 -24.5 -65.499s-38.5 -24.5 -66.5 -24.5z" />
    <glyph glyph-name="cedilla" unicode="&#xb8;" 
d="M198 -213l0.00195312 61.999h75c15.333 0 27.666 3.83301 36.999 11.5s14 15.834 14 24.501c0 13.333 -9.5 24.333 -28.5 33s-45.833 13 -80.5 13l35 91h64l-20 -59c18.667 -1.33301 38 -5.5 58 -12.5s36.833 -16.833 50.5 -29.5s20.5 -28.334 20.5 -47.001
c0 -23.333 -11.833 -43.666 -35.5 -60.999s-54.834 -26 -93.501 -26h-96z" />
    <glyph glyph-name="uni00B9" unicode="&#xb9;" 
d="M151 405v73h131v280l-122 -88v88l97 72h107v-352h103v-73h-316z" />
    <glyph glyph-name="ordmasculine" unicode="&#xba;" 
d="M300 447c-37.333 0 -67.333 10.5 -90 31.5s-34 47.833 -34 80.5v67c0 33.333 11.333 60.166 34 80.499s52.667 30.5 90 30.5s67.333 -10.167 90 -30.5s34 -47.166 34 -80.499v-67c0 -32.667 -11.333 -59.5 -34 -80.5s-52.667 -31.5 -90 -31.5zM300 500
c18 0 32.667 5.5 44 16.5s17 25.167 17 42.5v67c0 17.333 -5.66699 31.333 -17 42s-26 16 -44 16s-32.667 -5.33301 -44 -16s-17 -24.667 -17 -42v-67c0 -17.333 5.66699 -31.5 17 -42.5s26 -16.5 44 -16.5z" />
    <glyph glyph-name="guillemotright" unicode="&#xbb;" 
d="M264 40l187 241l-187 239h128l185 -240l-185 -240h-128zM24 40l186 241l-187 239h128l185 -240l-185 -240h-127z" />
    <glyph glyph-name="onequarter" unicode="&#xbc;" 
d="M33 405l-0.00195312 60.999h116v214c-3.33301 -5.33301 -8.16602 -11.666 -14.499 -18.999s-13.166 -14.333 -20.499 -21l-62 -51v83l72 58h99v-264h94v-61h-284zM470.998 -0.000976562v66h-171v88l126 171h82l-135 -185v-16h98v83h73v-207h-73zM80.998 -0.000976562
l367 730h71l-367 -730h-71z" />
    <glyph glyph-name="onehalf" unicode="&#xbd;" 
d="M313 0l0.000976562 75l130 74c18.667 10.667 32.5 21.5 41.5 32.5s13.5 22.833 13.5 35.5c0 16.667 -5 29.834 -15 39.501s-23 14.5 -39 14.5c-17.333 0 -31.333 -5 -42 -15s-16 -23.333 -16 -40h-73c0.666992 34 13 61.5 37 82.5s55.333 31.5 94 31.5
c38 0 68.833 -9.83301 92.5 -29.5s35.5 -45.834 35.5 -78.501c0 -22 -7.66699 -42.667 -23 -62s-38 -37 -68 -53l-78 -43v-10c7.33301 1.33301 17.666 2.83301 30.999 4.5s26 2.5 38 2.5h105v-61h-264zM33.001 405l-0.00195312 61h116v215
c-3.33301 -5.33301 -8.16602 -11.833 -14.499 -19.5s-13.166 -14.5 -20.499 -20.5l-62 -51v82l72 58h99v-264h99v-61h-289zM80.999 0l367 730h71l-367 -730h-71z" />
    <glyph glyph-name="threequarters" unicode="&#xbe;" 
d="M471 0v66h-171v88l126 171h82l-135 -185v-16h98v83h73v-207h-73zM155 400c-40 0 -72.166 9.66699 -96.499 29s-36.5 44.666 -36.5 75.999h73c0 -14 5.33301 -25.167 16 -33.5s25 -12.5 43 -12.5c17.333 0 31.333 4.33301 42 13s16 20.334 16 35.001
s-5.33301 26.5 -16 35.5s-24.334 13.5 -41.001 13.5h-30v61l73 56h-152v57h224v-58l-104 -81v19c36 0 64.833 -9.5 86.5 -28.5s32.5 -43.833 32.5 -74.5c0 -32 -11.833 -57.833 -35.5 -77.5s-55.167 -29.5 -94.5 -29.5zM81.001 0l367 730h71l-367 -730h-71z" />
    <glyph glyph-name="questiondown" unicode="&#xbf;" 
d="M336 -170c-48.667 0 -90.832 8.66797 -126.499 26.001s-63.334 41.666 -83.001 72.999s-29.5 68.333 -29.5 111c0 39.333 8.16699 74 24.5 104s39.333 53.667 69 71s64.5 26.333 104.5 27v94h105l2 -195h-72c-36 0 -64.5 -9 -85.5 -27s-31.5 -42.667 -31.5 -74
s10.5 -56 31.5 -74s49.833 -27 86.5 -27h143v-109h-138zM338.002 426.001c-21.333 0 -38.333 6 -51 18s-19 28 -19 48c0 19.333 6.5 34.666 19.5 45.999s29.833 17 50.5 17h24c20.667 0 37.5 -5.66699 50.5 -17s19.5 -26.666 19.5 -45.999c0 -20 -6.5 -36 -19.5 -48
s-29.833 -18 -50.5 -18h-24z" />
    <glyph glyph-name="Agrave" unicode="&#xc0;" 
d="M39 0l185 730h152l185 -730h-118l-43 181h-200l-42 -181h-119zM221 277h157l-46 203c-8 34.667 -14.833 65.667 -20.5 93s-9.5 46.333 -11.5 57l-11 -56.5c-5.33301 -27 -12 -57.833 -20 -92.5zM254 810l-116 140h129l107 -140h-120z" />
    <glyph glyph-name="Aacute" unicode="&#xc1;" 
d="M39 0l185 730h152l185 -730h-118l-43 181h-200l-42 -181h-119zM221 277h157l-46 203c-8 34.667 -14.833 65.667 -20.5 93s-9.5 46.333 -11.5 57l-11 -56.5c-5.33301 -27 -12 -57.833 -20 -92.5zM229 810l105 140h126l-114 -140h-117z" />
    <glyph glyph-name="Acircumflex" unicode="&#xc2;" 
d="M39 0l185 730h152l185 -730h-118l-43 181h-200l-42 -181h-119zM221 277h157l-46 203c-8 34.667 -14.833 65.667 -20.5 93s-9.5 46.333 -11.5 57l-11 -56.5c-5.33301 -27 -12 -57.833 -20 -92.5zM108 810l138 140h108l138 -140h-115l-78 74l-74 -74h-117z" />
    <glyph glyph-name="Atilde" unicode="&#xc3;" 
d="M39 0l185 730h152l185 -730h-118l-43 181h-200l-42 -181h-119zM221 277h157l-46 203c-8 34.667 -14.833 65.667 -20.5 93s-9.5 46.333 -11.5 57l-11 -56.5c-5.33301 -27 -12 -57.833 -20 -92.5zM370 808c-20.667 0 -37.3311 3.33301 -49.998 10
s-23.334 14.334 -32.001 23.001s-17 16.334 -25 23.001s-17.333 10 -28 10c-8.66699 0 -15.834 -3 -21.501 -9s-8.5 -14.333 -8.5 -25v-27h-74v33c0 32 9.16699 57.667 27.5 77s42.166 29 71.499 29c20.667 0 37.334 -3.33301 50.001 -10s23.334 -14.334 32.001 -23.001
s17 -16.334 25 -23.001s17.333 -10 28 -10c9.33301 0 16.666 2.66699 21.999 8s8 13.333 8 24v29h74v-33c0 -32 -9 -57.667 -27 -77s-42 -29 -72 -29z" />
    <glyph glyph-name="Adieresis" unicode="&#xc4;" 
d="M39 0l185 730h152l185 -730h-118l-43 181h-200l-42 -181h-119zM221 277h157l-46 203c-8 34.667 -14.833 65.667 -20.5 93s-9.5 46.333 -11.5 57l-11 -56.5c-5.33301 -27 -12 -57.833 -20 -92.5zM416 810c-22 0 -39.333 6.33301 -52 19s-19 29.667 -19 51
c0 22 6.33301 39.333 19 52s30 19 52 19c21.333 0 38.5 -6.33301 51.5 -19s19.5 -30 19.5 -52c0 -21.333 -6.5 -38.333 -19.5 -51s-30.167 -19 -51.5 -19zM184 810c-21.333 0 -38.5 6.33301 -51.5 19s-19.5 29.667 -19.5 51c0 22 6.5 39.333 19.5 52s30.167 19 51.5 19
c22 0 39.333 -6.33301 52 -19s19 -30 19 -52c0 -21.333 -6.33301 -38.333 -19 -51s-30 -19 -52 -19z" />
    <glyph glyph-name="Aring" unicode="&#xc5;" 
d="M39 0l185 730h152l185 -730h-118l-43 181h-200l-42 -181h-119zM221 277h157l-46 203c-8 34.667 -14.833 65.667 -20.5 93s-9.5 46.333 -11.5 57l-11 -56.5c-5.33301 -27 -12 -57.833 -20 -92.5zM300 760c-38.667 0 -69.834 11 -93.501 33s-35.5 51 -35.5 87
s11.833 65 35.5 87s54.834 33 93.501 33s69.834 -11 93.501 -33s35.5 -51 35.5 -87s-11.833 -65 -35.5 -87s-54.834 -33 -93.501 -33zM300 821c18 0 32.5 5.33301 43.5 16s16.5 25 16.5 43s-5.5 32.5 -16.5 43.5s-25.5 16.5 -43.5 16.5s-32.5 -5.5 -43.5 -16.5
s-16.5 -25.5 -16.5 -43.5s5.5 -32.333 16.5 -43s25.5 -16 43.5 -16z" />
    <glyph glyph-name="AE" unicode="&#xc6;" 
d="M17 0l141 730h416v-101h-174v-202h149v-104h-149v-222h174v-101h-277v186h-132l-34 -186h-114zM180 274h117v355h-53z" />
    <glyph glyph-name="Ccedilla" unicode="&#xc7;" 
d="M206 -213v61.999h74c15.333 0 27.833 3.83301 37.5 11.5s14.5 15.834 14.5 24.501c0 13.333 -9.66699 24.333 -29 33s-46.333 13 -81 13l35 91h64l-20 -59c18.667 -1.33301 38 -5.5 58 -12.5s36.833 -16.833 50.5 -29.5s20.5 -28.334 20.5 -47.001
c0 -23.333 -11.667 -43.666 -35 -60.999s-54.333 -26 -93 -26h-96zM304 -10.001c-46 0 -86.167 8.66895 -120.5 26.002s-60.833 42.166 -79.5 74.499s-28 70.166 -28 113.499v322c0 44 9.33301 82 28 114s45.167 56.667 79.5 74s74.5 26 120.5 26
c46.667 0 86.834 -8.83301 120.501 -26.5s59.834 -42.5 78.501 -74.5s28 -69.667 28 -113h-116c0 36 -9.66699 63.5 -29 82.5s-46.666 28.5 -81.999 28.5s-62.833 -9.5 -82.5 -28.5s-29.5 -46.5 -29.5 -82.5v-322c0 -35.333 9.83301 -62.666 29.5 -81.999
s47.167 -29 82.5 -29s62.666 9.66699 81.999 29s29 46.666 29 81.999h116c0 -42.667 -9.33301 -80.167 -28 -112.5s-44.834 -57.333 -78.501 -75s-73.834 -26.5 -120.501 -26.5z" />
    <glyph glyph-name="Egrave" unicode="&#xc8;" 
d="M91 0v730h433v-102h-318v-199h283v-102h-283v-225h318v-102h-433zM274 810l-116 140h129l107 -140h-120z" />
    <glyph glyph-name="Eacute" unicode="&#xc9;" 
d="M91 0v730h433v-102h-318v-199h283v-102h-283v-225h318v-102h-433zM249 810l105 140h126l-114 -140h-117z" />
    <glyph glyph-name="Ecircumflex" unicode="&#xca;" 
d="M91 0v730h433v-102h-318v-199h283v-102h-283v-225h318v-102h-433zM128 810l138 140h108l138 -140h-115l-78 74l-74 -74h-117z" />
    <glyph glyph-name="Edieresis" unicode="&#xcb;" 
d="M91 0v730h433v-102h-318v-199h283v-102h-283v-225h318v-102h-433zM436 810c-22 0 -39.333 6.33301 -52 19s-19 29.667 -19 51c0 22 6.33301 39.333 19 52s30 19 52 19c21.333 0 38.5 -6.33301 51.5 -19s19.5 -30 19.5 -52c0 -21.333 -6.5 -38.333 -19.5 -51
s-30.167 -19 -51.5 -19zM204 810c-21.333 0 -38.5 6.33301 -51.5 19s-19.5 29.667 -19.5 51c0 22 6.5 39.333 19.5 52s30.167 19 51.5 19c22 0 39.333 -6.33301 52 -19s19 -30 19 -52c0 -21.333 -6.33301 -38.333 -19 -51s-30 -19 -52 -19z" />
    <glyph glyph-name="Igrave" unicode="&#xcc;" 
d="M94 0v103h147v524h-147v103h412v-103h-147v-524h147v-103h-412zM254 810l-116 140h129l107 -140h-120z" />
    <glyph glyph-name="Iacute" unicode="&#xcd;" 
d="M94 0v103h147v524h-147v103h412v-103h-147v-524h147v-103h-412zM229 810l105 140h126l-114 -140h-117z" />
    <glyph glyph-name="Icircumflex" unicode="&#xce;" 
d="M94 0v103h147v524h-147v103h412v-103h-147v-524h147v-103h-412zM108 810l138 140h108l138 -140h-115l-78 74l-74 -74h-117z" />
    <glyph glyph-name="Idieresis" unicode="&#xcf;" 
d="M94 0v103h147v524h-147v103h412v-103h-147v-524h147v-103h-412zM416 810c-22 0 -39.333 6.33301 -52 19s-19 29.667 -19 51c0 22 6.33301 39.333 19 52s30 19 52 19c21.333 0 38.5 -6.33301 51.5 -19s19.5 -30 19.5 -52c0 -21.333 -6.5 -38.333 -19.5 -51
s-30.167 -19 -51.5 -19zM184 810c-21.333 0 -38.5 6.33301 -51.5 19s-19.5 29.667 -19.5 51c0 22 6.5 39.333 19.5 52s30.167 19 51.5 19c22 0 39.333 -6.33301 52 -19s19 -30 19 -52c0 -21.333 -6.33301 -38.333 -19 -51s-30 -19 -52 -19z" />
    <glyph glyph-name="Eth" unicode="&#xd0;" 
d="M10 331v83h280v-83h-280zM79 0v730.001h210c49.333 0 91.833 -9.33301 127.5 -28s63.5 -44.834 83.5 -78.501s30 -73.5 30 -119.5v-277c0 -46 -10 -86 -30 -120s-47.833 -60.333 -83.5 -79s-78.167 -28 -127.5 -28h-210zM196 107.001l93 0.000976562
c38.667 0 69 10.667 91 32s33 50.666 33 87.999v277c0 36.667 -11 65.667 -33 87s-52.333 32 -91 32h-93v-516z" />
    <glyph glyph-name="Ntilde" unicode="&#xd1;" 
d="M77 0l-0.00195312 729.999h144l208 -598c-1.33301 20 -3.16602 43.833 -5.49902 71.5s-4.16602 56.334 -5.49902 86.001s-2 56.167 -2 79.5v361h107v-730h-144l-207 598c2 -18 3.83301 -40.333 5.5 -67s3.16699 -54.167 4.5 -82.5s2 -54.5 2 -78.5v-370h-107z
M369.998 807.999c-20.667 0 -37.3311 3.33301 -49.998 10s-23.334 14.334 -32.001 23.001s-17 16.334 -25 23.001s-17.333 10 -28 10c-8.66699 0 -15.834 -3 -21.501 -9s-8.5 -14.333 -8.5 -25v-27h-74v33c0 32 9.16699 57.667 27.5 77s42.166 29 71.499 29
c20.667 0 37.334 -3.33301 50.001 -10s23.334 -14.334 32.001 -23.001s17 -16.334 25 -23.001s17.333 -10 28 -10c9.33301 0 16.666 2.66699 21.999 8s8 13.333 8 24v29h74v-33c0 -32 -9 -57.667 -27 -77s-42 -29 -72 -29z" />
    <glyph glyph-name="Ograve" unicode="&#xd2;" 
d="M300 -10c-46 0 -85.833 8.66699 -119.5 26s-59.5 42.166 -77.5 74.499s-27 70.166 -27 113.499v322c0 44 9 82 27 114s43.833 56.667 77.5 74s73.5 26 119.5 26c46.667 0 86.667 -8.66699 120 -26s59 -42 77 -74s27 -70 27 -114v-322c0 -43.333 -9 -81.166 -27 -113.499
s-43.667 -57.166 -77 -74.499s-73.333 -26 -120 -26zM300 93c35.333 0 62.1641 9.66699 80.4971 29s27.5 46.666 27.5 81.999v322c0 36 -9.16699 63.5 -27.5 82.5s-45.166 28.5 -80.499 28.5s-62.166 -9.5 -80.499 -28.5s-27.5 -46.5 -27.5 -82.5v-322
c0 -35.333 9.33301 -62.666 28 -81.999s45.334 -29 80.001 -29zM253.998 810l-116 140h129l107 -140h-120z" />
    <glyph glyph-name="Oacute" unicode="&#xd3;" 
d="M300 -10c-46 0 -85.833 8.66699 -119.5 26s-59.5 42.166 -77.5 74.499s-27 70.166 -27 113.499v322c0 44 9 82 27 114s43.833 56.667 77.5 74s73.5 26 119.5 26c46.667 0 86.667 -8.66699 120 -26s59 -42 77 -74s27 -70 27 -114v-322c0 -43.333 -9 -81.166 -27 -113.499
s-43.667 -57.166 -77 -74.499s-73.333 -26 -120 -26zM300 93c35.333 0 62.1641 9.66699 80.4971 29s27.5 46.666 27.5 81.999v322c0 36 -9.16699 63.5 -27.5 82.5s-45.166 28.5 -80.499 28.5s-62.166 -9.5 -80.499 -28.5s-27.5 -46.5 -27.5 -82.5v-322
c0 -35.333 9.33301 -62.666 28 -81.999s45.334 -29 80.001 -29zM228.998 810l105 140h126l-114 -140h-117z" />
    <glyph glyph-name="Ocircumflex" unicode="&#xd4;" 
d="M300 -10c-46 0 -85.833 8.66699 -119.5 26s-59.5 42.166 -77.5 74.499s-27 70.166 -27 113.499v322c0 44 9 82 27 114s43.833 56.667 77.5 74s73.5 26 119.5 26c46.667 0 86.667 -8.66699 120 -26s59 -42 77 -74s27 -70 27 -114v-322c0 -43.333 -9 -81.166 -27 -113.499
s-43.667 -57.166 -77 -74.499s-73.333 -26 -120 -26zM300 93c35.333 0 62.1641 9.66699 80.4971 29s27.5 46.666 27.5 81.999v322c0 36 -9.16699 63.5 -27.5 82.5s-45.166 28.5 -80.499 28.5s-62.166 -9.5 -80.499 -28.5s-27.5 -46.5 -27.5 -82.5v-322
c0 -35.333 9.33301 -62.666 28 -81.999s45.334 -29 80.001 -29zM107.998 810l138 140h108l138 -140h-115l-78 74l-74 -74h-117z" />
    <glyph glyph-name="Otilde" unicode="&#xd5;" 
d="M300 -10c-46 0 -85.833 8.66699 -119.5 26s-59.5 42.166 -77.5 74.499s-27 70.166 -27 113.499v322c0 44 9 82 27 114s43.833 56.667 77.5 74s73.5 26 119.5 26c46.667 0 86.667 -8.66699 120 -26s59 -42 77 -74s27 -70 27 -114v-322c0 -43.333 -9 -81.166 -27 -113.499
s-43.667 -57.166 -77 -74.499s-73.333 -26 -120 -26zM300 93c35.333 0 62.1641 9.66699 80.4971 29s27.5 46.666 27.5 81.999v322c0 36 -9.16699 63.5 -27.5 82.5s-45.166 28.5 -80.499 28.5s-62.166 -9.5 -80.499 -28.5s-27.5 -46.5 -27.5 -82.5v-322
c0 -35.333 9.33301 -62.666 28 -81.999s45.334 -29 80.001 -29zM369.998 808c-20.667 0 -37.3311 3.33301 -49.998 10s-23.334 14.334 -32.001 23.001s-17 16.334 -25 23.001s-17.333 10 -28 10c-8.66699 0 -15.834 -3 -21.501 -9s-8.5 -14.333 -8.5 -25v-27h-74v33
c0 32 9.16699 57.667 27.5 77s42.166 29 71.499 29c20.667 0 37.334 -3.33301 50.001 -10s23.334 -14.334 32.001 -23.001s17 -16.334 25 -23.001s17.333 -10 28 -10c9.33301 0 16.666 2.66699 21.999 8s8 13.333 8 24v29h74v-33c0 -32 -9 -57.667 -27 -77s-42 -29 -72 -29z
" />
    <glyph glyph-name="Odieresis" unicode="&#xd6;" 
d="M300 -10c-46 0 -85.833 8.66699 -119.5 26s-59.5 42.166 -77.5 74.499s-27 70.166 -27 113.499v322c0 44 9 82 27 114s43.833 56.667 77.5 74s73.5 26 119.5 26c46.667 0 86.667 -8.66699 120 -26s59 -42 77 -74s27 -70 27 -114v-322c0 -43.333 -9 -81.166 -27 -113.499
s-43.667 -57.166 -77 -74.499s-73.333 -26 -120 -26zM300 93c35.333 0 62.1641 9.66699 80.4971 29s27.5 46.666 27.5 81.999v322c0 36 -9.16699 63.5 -27.5 82.5s-45.166 28.5 -80.499 28.5s-62.166 -9.5 -80.499 -28.5s-27.5 -46.5 -27.5 -82.5v-322
c0 -35.333 9.33301 -62.666 28 -81.999s45.334 -29 80.001 -29zM415.998 810c-22 0 -39.333 6.33301 -52 19s-19 29.667 -19 51c0 22 6.33301 39.333 19 52s30 19 52 19c21.333 0 38.5 -6.33301 51.5 -19s19.5 -30 19.5 -52c0 -21.333 -6.5 -38.333 -19.5 -51
s-30.167 -19 -51.5 -19zM183.998 810c-21.333 0 -38.5 6.33301 -51.5 19s-19.5 29.667 -19.5 51c0 22 6.5 39.333 19.5 52s30.167 19 51.5 19c22 0 39.333 -6.33301 52 -19s19 -30 19 -52c0 -21.333 -6.33301 -38.333 -19 -51s-30 -19 -52 -19z" />
    <glyph glyph-name="multiply" unicode="&#xd7;" 
d="M167 120l-74 75l131 131l-131 133l74 74l132 -132l134 134l74 -75l-135 -134l133 -131l-74 -75l-132 133z" />
    <glyph glyph-name="Oslash" unicode="&#xd8;" 
d="M26 -40l449 790h99l-449 -790h-99zM300 -10c-46 0 -85.833 8.66699 -119.5 26s-59.5 42.166 -77.5 74.499s-27 70.166 -27 113.499v322c0 44 9 82 27 114s43.833 56.667 77.5 74s73.5 26 119.5 26c46.667 0 86.667 -8.66699 120 -26s59 -42 77 -74s27 -70 27 -114v-322
c0 -43.333 -9 -81.166 -27 -113.499s-43.667 -57.166 -77 -74.499s-73.333 -26 -120 -26zM300 93c35.333 0 62.5 9.66699 81.5 29s28.5 46.666 28.5 81.999v322c0 36 -9.5 63.5 -28.5 82.5s-46.167 28.5 -81.5 28.5s-62.5 -9.5 -81.5 -28.5s-28.5 -46.5 -28.5 -82.5v-322
c0 -35.333 9.5 -62.666 28.5 -81.999s46.167 -29 81.5 -29z" />
    <glyph glyph-name="Ugrave" unicode="&#xd9;" 
d="M300 -10c-70.667 0 -125.5 19.333 -164.5 58s-58.5 91.334 -58.5 158.001v524h116v-523c0 -36 9 -64.167 27 -84.5s44.667 -30.5 80 -30.5c34.667 0 61.167 10.167 79.5 30.5s27.5 48.5 27.5 84.5v523h116v-524c0 -66.667 -19.333 -119.334 -58 -158.001
s-93.667 -58 -165 -58zM254 810l-116 140h129l107 -140h-120z" />
    <glyph glyph-name="Uacute" unicode="&#xda;" 
d="M300 -10c-70.667 0 -125.5 19.333 -164.5 58s-58.5 91.334 -58.5 158.001v524h116v-523c0 -36 9 -64.167 27 -84.5s44.667 -30.5 80 -30.5c34.667 0 61.167 10.167 79.5 30.5s27.5 48.5 27.5 84.5v523h116v-524c0 -66.667 -19.333 -119.334 -58 -158.001
s-93.667 -58 -165 -58zM229 810l105 140h126l-114 -140h-117z" />
    <glyph glyph-name="Ucircumflex" unicode="&#xdb;" 
d="M300 -10c-70.667 0 -125.5 19.333 -164.5 58s-58.5 91.334 -58.5 158.001v524h116v-523c0 -36 9 -64.167 27 -84.5s44.667 -30.5 80 -30.5c34.667 0 61.167 10.167 79.5 30.5s27.5 48.5 27.5 84.5v523h116v-524c0 -66.667 -19.333 -119.334 -58 -158.001
s-93.667 -58 -165 -58zM108 810l138 140h108l138 -140h-115l-78 74l-74 -74h-117z" />
    <glyph glyph-name="Udieresis" unicode="&#xdc;" 
d="M300 -10c-70.667 0 -125.5 19.333 -164.5 58s-58.5 91.334 -58.5 158.001v524h116v-523c0 -36 9 -64.167 27 -84.5s44.667 -30.5 80 -30.5c34.667 0 61.167 10.167 79.5 30.5s27.5 48.5 27.5 84.5v523h116v-524c0 -66.667 -19.333 -119.334 -58 -158.001
s-93.667 -58 -165 -58zM416 810c-22 0 -39.333 6.33301 -52 19s-19 29.667 -19 51c0 22 6.33301 39.333 19 52s30 19 52 19c21.333 0 38.5 -6.33301 51.5 -19s19.5 -30 19.5 -52c0 -21.333 -6.5 -38.333 -19.5 -51s-30.167 -19 -51.5 -19zM184 810
c-21.333 0 -38.5 6.33301 -51.5 19s-19.5 29.667 -19.5 51c0 22 6.5 39.333 19.5 52s30.167 19 51.5 19c22 0 39.333 -6.33301 52 -19s19 -30 19 -52c0 -21.333 -6.33301 -38.333 -19 -51s-30 -19 -52 -19z" />
    <glyph glyph-name="Yacute" unicode="&#xdd;" 
d="M242 0l-0.000976562 267l-216 463h121l122 -265c8.66699 -18.667 15.834 -36.667 21.501 -54s9.5 -31 11.5 -41c2 10 5.83301 23.667 11.5 41s12.5 35.333 20.5 54l119 265h121l-216 -463v-267h-116zM228.999 810l105 140h126l-114 -140h-117z" />
    <glyph glyph-name="Thorn" unicode="&#xde;" 
d="M81 0v730h117v-143h138c46 0 85.5 -8.5 118.5 -25.5s58.667 -40.833 77 -71.5s27.5 -67.334 27.5 -110.001c0 -63.333 -20 -113.666 -60 -150.999s-94.333 -56 -163 -56h-138v-173h-117zM198 273h127c36.667 0 65.167 9.5 85.5 28.5s30.5 45.167 30.5 78.5
c0 34 -10.333 60.333 -31 79s-49 28 -85 28h-127v-214z" />
    <glyph glyph-name="germandbls" unicode="&#xdf;" 
d="M78 0l0.00292969 525.995c0 42.667 9.16699 80.167 27.5 112.5s44.166 57.333 77.499 75s72.333 26.5 117 26.5c46 0 86.167 -7.66699 120.5 -23s61.166 -37 80.499 -65s29 -62 29 -102c0 -34 -7.5 -63.667 -22.5 -89s-36.333 -45 -64 -59s-60.834 -20.667 -99.501 -20
v15c40.667 0.666992 75.834 -6.66602 105.501 -21.999s52.667 -37.166 69 -65.499s24.5 -62.166 24.5 -101.499c0 -40.667 -9.5 -76.667 -28.5 -108s-45.667 -55.833 -80 -73.5s-74.5 -26.5 -120.5 -26.5h-60v101h52c36.667 0 65.334 10.333 86.001 31s31 48.334 31 83.001
c0 35.333 -10.333 62.833 -31 82.5s-49.334 29.5 -86.001 29.5h-45v93h43c33.333 0 59.333 10 78 30s28 46 28 78c0 34.667 -9.83301 61.834 -29.5 81.501s-46.834 29.5 -81.501 29.5c-34 0 -61 -10 -81 -30s-30 -47.667 -30 -83v-526h-110z" />
    <glyph glyph-name="agrave" unicode="&#xe0;" 
d="M242 -10c-56.667 0 -101.5 14.833 -134.5 44.5s-49.5 70.167 -49.5 121.5c0 53.333 17.833 94.666 53.5 123.999s85.167 44 148.5 44h145v49c0 28 -9 50 -27 66s-43 24 -75 24c-28.667 0 -52.5 -6.16699 -71.5 -18.5s-30.167 -29.166 -33.5 -50.499h-114
c6 50.667 29.167 91 69.5 121s91.166 45 152.499 45c66.667 0 119.334 -16.667 158.001 -50s58 -78.666 58 -135.999v-374h-114v98h-19l20 24c0 -40.667 -15.333 -72.834 -46 -96.501s-71 -35.5 -121 -35.5zM279 78c36.667 0 66.832 9.5 90.499 28.5s35.5 43.167 35.5 72.5
v70h-143c-26.667 0 -48 -7.5 -64 -22.5s-24 -35.167 -24 -60.5c0 -27.333 9.33301 -48.833 28 -64.5s44.334 -23.5 77.001 -23.5zM258.998 645l-116 140h129l107 -140h-120z" />
    <glyph glyph-name="aacute" unicode="&#xe1;" 
d="M242 -10c-56.667 0 -101.5 14.833 -134.5 44.5s-49.5 70.167 -49.5 121.5c0 53.333 17.833 94.666 53.5 123.999s85.167 44 148.5 44h145v49c0 28 -9 50 -27 66s-43 24 -75 24c-28.667 0 -52.5 -6.16699 -71.5 -18.5s-30.167 -29.166 -33.5 -50.499h-114
c6 50.667 29.167 91 69.5 121s91.166 45 152.499 45c66.667 0 119.334 -16.667 158.001 -50s58 -78.666 58 -135.999v-374h-114v98h-19l20 24c0 -40.667 -15.333 -72.834 -46 -96.501s-71 -35.5 -121 -35.5zM279 78c36.667 0 66.832 9.5 90.499 28.5s35.5 43.167 35.5 72.5
v70h-143c-26.667 0 -48 -7.5 -64 -22.5s-24 -35.167 -24 -60.5c0 -27.333 9.33301 -48.833 28 -64.5s44.334 -23.5 77.001 -23.5zM233.998 645l105 140h126l-114 -140h-117z" />
    <glyph glyph-name="acircumflex" unicode="&#xe2;" 
d="M242 -10c-56.667 0 -101.5 14.833 -134.5 44.5s-49.5 70.167 -49.5 121.5c0 53.333 17.833 94.666 53.5 123.999s85.167 44 148.5 44h145v49c0 28 -9 50 -27 66s-43 24 -75 24c-28.667 0 -52.5 -6.16699 -71.5 -18.5s-30.167 -29.166 -33.5 -50.499h-114
c6 50.667 29.167 91 69.5 121s91.166 45 152.499 45c66.667 0 119.334 -16.667 158.001 -50s58 -78.666 58 -135.999v-374h-114v98h-19l20 24c0 -40.667 -15.333 -72.834 -46 -96.501s-71 -35.5 -121 -35.5zM279 78c36.667 0 66.832 9.5 90.499 28.5s35.5 43.167 35.5 72.5
v70h-143c-26.667 0 -48 -7.5 -64 -22.5s-24 -35.167 -24 -60.5c0 -27.333 9.33301 -48.833 28 -64.5s44.334 -23.5 77.001 -23.5zM112.998 645l138 140h108l138 -140h-115l-78 74l-74 -74h-117z" />
    <glyph glyph-name="atilde" unicode="&#xe3;" 
d="M242 -10c-56.667 0 -101.5 14.833 -134.5 44.5s-49.5 70.167 -49.5 121.5c0 53.333 17.833 94.666 53.5 123.999s85.167 44 148.5 44h145v49c0 28 -9 50 -27 66s-43 24 -75 24c-28.667 0 -52.5 -6.16699 -71.5 -18.5s-30.167 -29.166 -33.5 -50.499h-114
c6 50.667 29.167 91 69.5 121s91.166 45 152.499 45c66.667 0 119.334 -16.667 158.001 -50s58 -78.666 58 -135.999v-374h-114v98h-19l20 24c0 -40.667 -15.333 -72.834 -46 -96.501s-71 -35.5 -121 -35.5zM279 78c36.667 0 66.832 9.5 90.499 28.5s35.5 43.167 35.5 72.5
v70h-143c-26.667 0 -48 -7.5 -64 -22.5s-24 -35.167 -24 -60.5c0 -27.333 9.33301 -48.833 28 -64.5s44.334 -23.5 77.001 -23.5zM374.998 643c-20.667 0 -37.3311 3.33301 -49.998 10s-23.334 14.334 -32.001 23.001s-17 16.334 -25 23.001s-17.333 10 -28 10
c-8.66699 0 -15.834 -3 -21.501 -9s-8.5 -14.333 -8.5 -25v-27h-74v33c0 32 9.16699 57.667 27.5 77s42.166 29 71.499 29c20.667 0 37.334 -3.33301 50.001 -10s23.334 -14.334 32.001 -23.001s17 -16.334 25 -23.001s17.333 -10 28 -10c9.33301 0 16.666 2.66699 21.999 8
s8 13.333 8 24v29h74v-33c0 -32 -9 -57.667 -27 -77s-42 -29 -72 -29z" />
    <glyph glyph-name="adieresis" unicode="&#xe4;" 
d="M242 -10c-56.667 0 -101.5 14.833 -134.5 44.5s-49.5 70.167 -49.5 121.5c0 53.333 17.833 94.666 53.5 123.999s85.167 44 148.5 44h145v49c0 28 -9 50 -27 66s-43 24 -75 24c-28.667 0 -52.5 -6.16699 -71.5 -18.5s-30.167 -29.166 -33.5 -50.499h-114
c6 50.667 29.167 91 69.5 121s91.166 45 152.499 45c66.667 0 119.334 -16.667 158.001 -50s58 -78.666 58 -135.999v-374h-114v98h-19l20 24c0 -40.667 -15.333 -72.834 -46 -96.501s-71 -35.5 -121 -35.5zM279 78c36.667 0 66.832 9.5 90.499 28.5s35.5 43.167 35.5 72.5
v70h-143c-26.667 0 -48 -7.5 -64 -22.5s-24 -35.167 -24 -60.5c0 -27.333 9.33301 -48.833 28 -64.5s44.334 -23.5 77.001 -23.5zM420.998 644c-22 0 -39.333 6.16699 -52 18.5s-19 29.166 -19 50.499c0 22 6.33301 39.333 19 52s30 19 52 19
c21.333 0 38.5 -6.33301 51.5 -19s19.5 -30 19.5 -52c0 -21.333 -6.5 -38.166 -19.5 -50.499s-30.167 -18.5 -51.5 -18.5zM188.998 644c-21.333 0 -38.5 6.16699 -51.5 18.5s-19.5 29.166 -19.5 50.499c0 22 6.5 39.333 19.5 52s30.167 19 51.5 19
c22 0 39.333 -6.33301 52 -19s19 -30 19 -52c0 -21.333 -6.33301 -38.166 -19 -50.499s-30 -18.5 -52 -18.5z" />
    <glyph glyph-name="aring" unicode="&#xe5;" 
d="M242 -10c-56.667 0 -101.5 14.833 -134.5 44.5s-49.5 70.167 -49.5 121.5c0 53.333 17.833 94.666 53.5 123.999s85.167 44 148.5 44h145v49c0 28 -9 50 -27 66s-43 24 -75 24c-28.667 0 -52.5 -6.16699 -71.5 -18.5s-30.167 -29.166 -33.5 -50.499h-114
c6 50.667 29.167 91 69.5 121s91.166 45 152.499 45c66.667 0 119.334 -16.667 158.001 -50s58 -78.666 58 -135.999v-374h-114v98h-19l20 24c0 -40.667 -15.333 -72.834 -46 -96.501s-71 -35.5 -121 -35.5zM279 78c36.667 0 66.832 9.5 90.499 28.5s35.5 43.167 35.5 72.5
v70h-143c-26.667 0 -48 -7.5 -64 -22.5s-24 -35.167 -24 -60.5c0 -27.333 9.33301 -48.833 28 -64.5s44.334 -23.5 77.001 -23.5zM304.998 604c-38.667 0 -69.834 11 -93.501 33s-35.5 51 -35.5 87c0 35.333 11.833 64.166 35.5 86.499s54.834 33.5 93.501 33.5
s69.834 -11.167 93.501 -33.5s35.5 -51.166 35.5 -86.499c0 -36 -11.833 -65 -35.5 -87s-54.834 -33 -93.501 -33zM304.998 665c18 0 32.5 5.33301 43.5 16s16.5 25 16.5 43s-5.5 32.5 -16.5 43.5s-25.5 16.5 -43.5 16.5s-32.5 -5.5 -43.5 -16.5s-16.5 -25.5 -16.5 -43.5
s5.5 -32.333 16.5 -43s25.5 -16 43.5 -16z" />
    <glyph glyph-name="ae" unicode="&#xe6;" 
d="M171 -10c-41.333 0 -74.335 13.1689 -99.002 39.502s-37 61.166 -37 104.499v56c0 41.333 14.5 74.5 43.5 99.5s67.167 37.5 114.5 37.5h61v77c0 23.333 -4.66699 40.833 -14 52.5s-23.666 17.5 -42.999 17.5c-17.333 0 -31.166 -5.5 -41.499 -16.5
s-15.5 -26.5 -15.5 -46.5h-98c0 44.667 12.667 80.667 38 108s58.666 41 99.999 41c26 0 47.5 -4.16699 64.5 -12.5s29.833 -18.5 38.5 -30.5s14 -23.667 16 -35h6c2 11.333 7.16699 23 15.5 35s20.833 22.167 37.5 30.5s37.334 12.5 62.001 12.5c44.667 0 80 -14 106 -42
s39 -66 39 -114v-151h-216v-107c0 -21.333 5.33301 -38.333 16 -51s24.667 -19 42 -19c18.667 0 33.334 5.16699 44.001 15.5s16 24.5 16 42.5h98c0 -42.667 -13.333 -77.334 -40 -104.001s-61.667 -40 -105 -40c-24.667 0 -45.334 4.16699 -62.001 12.5
s-29.167 18.5 -37.5 30.5s-13.5 23.667 -15.5 35h-6c-2 -11.333 -7.83301 -23 -17.5 -35s-23.5 -22.167 -41.5 -30.5s-41 -12.5 -69 -12.5zM193.998 76.002c18 0 32.5 6.33301 43.5 19s16.5 29.667 16.5 51v107h-60c-18 0 -32.167 -5.5 -42.5 -16.5s-15.5 -26.5 -15.5 -46.5
v-56c0 -18 5.16699 -32.167 15.5 -42.5s24.5 -15.5 42.5 -15.5zM348.998 327.002h118.001v77c0 22 -5.33301 39.167 -16 51.5s-25.334 18.5 -44.001 18.5c-18 0 -32.167 -6.16699 -42.5 -18.5s-15.5 -29.5 -15.5 -51.5v-77z" />
    <glyph glyph-name="ccedilla" unicode="&#xe7;" 
d="M202 -213l0.000976562 61.999h74c16 0 28.667 3.83301 38 11.5s14 15.834 14 24.501c0 13.333 -9.66699 24.333 -29 33s-46.333 13 -81 13l35 91h64l-20 -59c18.667 -1.33301 38 -5.5 58 -12.5s37 -16.833 51 -29.5s21 -28.334 21 -47.001
c0 -23.333 -11.833 -43.666 -35.5 -60.999s-54.834 -26 -93.501 -26h-96zM304.001 -10.001c-46.667 0 -87.167 8.66895 -121.5 26.002s-61 42.166 -80 74.499s-28.5 70.166 -28.5 113.499v142c0 44 9.5 82 28.5 114s45.667 56.667 80 74s74.833 26 121.5 26
c67.333 0 121.333 -17.667 162 -53s62 -83.333 64 -144h-116c-2 30 -12.667 53.333 -32 70s-45.333 25 -78 25c-35.333 0 -63.166 -9.66699 -83.499 -29s-30.5 -47 -30.5 -83v-142c0 -35.333 10.167 -62.833 30.5 -82.5s48.166 -29.5 83.499 -29.5
c32.667 0 58.667 8.33301 78 25s30 40 32 70h116c-2 -60.667 -23.333 -108.667 -64 -144s-94.667 -53 -162 -53z" />
    <glyph glyph-name="egrave" unicode="&#xe8;" 
d="M300 -10c-45.333 0 -84.999 8.83301 -118.999 26.5s-60.333 42.667 -79 75s-28 69.833 -28 112.5v142c0 42.667 9.33301 80.167 28 112.5s45 57.333 79 75s73.667 26.5 119 26.5c46 0 85.833 -8.83301 119.5 -26.5s59.834 -42.667 78.501 -75s28 -69.833 28 -112.5v-99
h-340v-43c0 -39.333 9.83301 -69.333 29.5 -90s48.167 -31 85.5 -31c30 0 54.167 5.33301 72.5 16s29.833 25.667 34.5 45h115c-8.66699 -46.667 -33.334 -84 -74.001 -112s-90.334 -42 -149.001 -42zM414.001 315l0.000976562 31c0 39.333 -9.5 69.5 -28.5 90.5
s-47.5 31.5 -85.5 31.5c-36.667 0 -64.834 -10.667 -84.501 -32s-29.5 -51.333 -29.5 -90v-23l236 1zM254.002 645l-116 140h129l107 -140h-120z" />
    <glyph glyph-name="eacute" unicode="&#xe9;" 
d="M300 -10c-45.333 0 -84.999 8.83301 -118.999 26.5s-60.333 42.667 -79 75s-28 69.833 -28 112.5v142c0 42.667 9.33301 80.167 28 112.5s45 57.333 79 75s73.667 26.5 119 26.5c46 0 85.833 -8.83301 119.5 -26.5s59.834 -42.667 78.501 -75s28 -69.833 28 -112.5v-99
h-340v-43c0 -39.333 9.83301 -69.333 29.5 -90s48.167 -31 85.5 -31c30 0 54.167 5.33301 72.5 16s29.833 25.667 34.5 45h115c-8.66699 -46.667 -33.334 -84 -74.001 -112s-90.334 -42 -149.001 -42zM414.001 315l0.000976562 31c0 39.333 -9.5 69.5 -28.5 90.5
s-47.5 31.5 -85.5 31.5c-36.667 0 -64.834 -10.667 -84.501 -32s-29.5 -51.333 -29.5 -90v-23l236 1zM229.002 645l105 140h126l-114 -140h-117z" />
    <glyph glyph-name="ecircumflex" unicode="&#xea;" 
d="M300 -10c-45.333 0 -84.999 8.83301 -118.999 26.5s-60.333 42.667 -79 75s-28 69.833 -28 112.5v142c0 42.667 9.33301 80.167 28 112.5s45 57.333 79 75s73.667 26.5 119 26.5c46 0 85.833 -8.83301 119.5 -26.5s59.834 -42.667 78.501 -75s28 -69.833 28 -112.5v-99
h-340v-43c0 -39.333 9.83301 -69.333 29.5 -90s48.167 -31 85.5 -31c30 0 54.167 5.33301 72.5 16s29.833 25.667 34.5 45h115c-8.66699 -46.667 -33.334 -84 -74.001 -112s-90.334 -42 -149.001 -42zM414.001 315l0.000976562 31c0 39.333 -9.5 69.5 -28.5 90.5
s-47.5 31.5 -85.5 31.5c-36.667 0 -64.834 -10.667 -84.501 -32s-29.5 -51.333 -29.5 -90v-23l236 1zM108.002 645l138 140h108l138 -140h-115l-78 74l-74 -74h-117z" />
    <glyph glyph-name="edieresis" unicode="&#xeb;" 
d="M300 -10c-45.333 0 -84.999 8.83301 -118.999 26.5s-60.333 42.667 -79 75s-28 69.833 -28 112.5v142c0 42.667 9.33301 80.167 28 112.5s45 57.333 79 75s73.667 26.5 119 26.5c46 0 85.833 -8.83301 119.5 -26.5s59.834 -42.667 78.501 -75s28 -69.833 28 -112.5v-99
h-340v-43c0 -39.333 9.83301 -69.333 29.5 -90s48.167 -31 85.5 -31c30 0 54.167 5.33301 72.5 16s29.833 25.667 34.5 45h115c-8.66699 -46.667 -33.334 -84 -74.001 -112s-90.334 -42 -149.001 -42zM414.001 315l0.000976562 31c0 39.333 -9.5 69.5 -28.5 90.5
s-47.5 31.5 -85.5 31.5c-36.667 0 -64.834 -10.667 -84.501 -32s-29.5 -51.333 -29.5 -90v-23l236 1zM416.002 644c-22 0 -39.333 6.16699 -52 18.5s-19 29.166 -19 50.499c0 22 6.33301 39.333 19 52s30 19 52 19c21.333 0 38.5 -6.33301 51.5 -19s19.5 -30 19.5 -52
c0 -21.333 -6.5 -38.166 -19.5 -50.499s-30.167 -18.5 -51.5 -18.5zM184.002 644c-21.333 0 -38.5 6.16699 -51.5 18.5s-19.5 29.166 -19.5 50.499c0 22 6.5 39.333 19.5 52s30.167 19 51.5 19c22 0 39.333 -6.33301 52 -19s19 -30 19 -52
c0 -21.333 -6.33301 -38.166 -19 -50.499s-30 -18.5 -52 -18.5z" />
    <glyph glyph-name="igrave" unicode="&#xec;" 
d="M78 0v106h193v339h-168v105h280v-444h174v-106h-479zM271 645l-116 140h129l107 -140h-120z" />
    <glyph glyph-name="iacute" unicode="&#xed;" 
d="M78 0v106h193v339h-168v105h280v-444h174v-106h-479zM246 645l105 140h126l-114 -140h-117z" />
    <glyph glyph-name="icircumflex" unicode="&#xee;" 
d="M78 0v106h193v339h-168v105h280v-444h174v-106h-479zM125 645l138 140h108l138 -140h-115l-78 74l-74 -74h-117z" />
    <glyph glyph-name="idieresis" unicode="&#xef;" 
d="M78 0v106h193v339h-168v105h280v-444h174v-106h-479zM433 644c-22 0 -39.333 6.16699 -52 18.5s-19 29.166 -19 50.499c0 22 6.33301 39.333 19 52s30 19 52 19c21.333 0 38.5 -6.33301 51.5 -19s19.5 -30 19.5 -52c0 -21.333 -6.5 -38.166 -19.5 -50.499
s-30.167 -18.5 -51.5 -18.5zM201 644c-21.333 0 -38.5 6.16699 -51.5 18.5s-19.5 29.166 -19.5 50.499c0 22 6.5 39.333 19.5 52s30.167 19 51.5 19c22 0 39.333 -6.33301 52 -19s19 -30 19 -52c0 -21.333 -6.33301 -38.166 -19 -50.499s-30 -18.5 -52 -18.5z" />
    <glyph glyph-name="eth" unicode="&#xf0;" 
d="M299 -6c-48 0 -90.332 9.66504 -126.999 28.998s-65 46.333 -85 81s-30 74.667 -30 120c0 44.667 8.66699 83.5 26 116.5s41.666 58.667 72.999 77s67.333 27.5 108 27.5c21.333 0 40.333 -3.66699 57 -11s31 -16.166 43 -26.499s21 -20.166 27 -29.499h10
c-1.33301 4.66699 -7.5 16 -18.5 34s-28.167 42 -51.5 72l-59 81l-160 -67v91l108 46l-71 95h132l39 -54l155 64v-91l-103 -43l67 -94c34.667 -47.333 60.667 -94.5 78 -141.5s26 -92.167 26 -135.5c0 -48.667 -10 -91 -30 -127s-48.167 -64 -84.5 -84s-79.5 -30 -129.5 -30
zM299.001 93.998c38.667 0 69.667 11.834 93 35.501s35 55.167 35 94.5c0 26 -5.33301 48.667 -16 68s-25.5 34.333 -44.5 45s-41.5 16 -67.5 16c-37.333 0 -67.666 -11.833 -90.999 -35.5s-35 -54.834 -35 -93.501c0 -39.333 11.667 -70.833 35 -94.5
s53.666 -35.5 90.999 -35.5z" />
    <glyph glyph-name="ntilde" unicode="&#xf1;" 
d="M80 0l0.000976562 549.999h115v-105h30l-30 -27c0 44.667 13.167 79.5 39.5 104.5s62.166 37.5 107.499 37.5c54.667 0 98.334 -17.667 131.001 -53s49 -83.333 49 -144v-363h-117v351c0 34.667 -9.16699 61.334 -27.5 80.001s-43.5 28 -75.5 28
c-32.667 0 -58.334 -9.83301 -77.001 -29.5s-28 -47.5 -28 -83.5v-346h-117zM375.001 642.999c-20.667 0 -37.3311 3.33301 -49.998 10s-23.334 14.334 -32.001 23.001s-17 16.334 -25 23.001s-17.333 10 -28 10c-8.66699 0 -15.834 -3 -21.501 -9s-8.5 -14.333 -8.5 -25
v-27h-74v33c0 32 9.16699 57.667 27.5 77s42.166 29 71.499 29c20.667 0 37.334 -3.33301 50.001 -10s23.334 -14.334 32.001 -23.001s17 -16.334 25 -23.001s17.333 -10 28 -10c9.33301 0 16.666 2.66699 21.999 8s8 13.333 8 24v29h74v-33c0 -32 -9 -57.667 -27 -77
s-42 -29 -72 -29z" />
    <glyph glyph-name="ograve" unicode="&#xf2;" 
d="M300 -9c-46 0 -85.833 8.66602 -119.5 25.999s-59.834 42.166 -78.501 74.499s-28 70.5 -28 114.5v138c0 44 9.33301 82.167 28 114.5s44.834 57.166 78.501 74.499s73.5 26 119.5 26c46.667 0 86.667 -8.66699 120 -26s59.333 -42.166 78 -74.499
s28 -70.166 28 -113.499v-139c0 -44 -9.33301 -82.167 -28 -114.5s-44.667 -57.166 -78 -74.499s-73.333 -26 -120 -26zM300 92.999c34.667 0 61.667 9.66699 81 29s29 47.333 29 84v138c0 37.333 -9.66699 65.5 -29 84.5s-46.333 28.5 -81 28.5
c-34 0 -60.833 -9.5 -80.5 -28.5s-29.5 -47.167 -29.5 -84.5v-138c0 -36.667 9.83301 -64.667 29.5 -84s46.5 -29 80.5 -29zM254 644.999l-116 140h129l107 -140h-120z" />
    <glyph glyph-name="oacute" unicode="&#xf3;" 
d="M300 -9c-46 0 -85.833 8.66602 -119.5 25.999s-59.834 42.166 -78.501 74.499s-28 70.5 -28 114.5v138c0 44 9.33301 82.167 28 114.5s44.834 57.166 78.501 74.499s73.5 26 119.5 26c46.667 0 86.667 -8.66699 120 -26s59.333 -42.166 78 -74.499
s28 -70.166 28 -113.499v-139c0 -44 -9.33301 -82.167 -28 -114.5s-44.667 -57.166 -78 -74.499s-73.333 -26 -120 -26zM300 92.999c34.667 0 61.667 9.66699 81 29s29 47.333 29 84v138c0 37.333 -9.66699 65.5 -29 84.5s-46.333 28.5 -81 28.5
c-34 0 -60.833 -9.5 -80.5 -28.5s-29.5 -47.167 -29.5 -84.5v-138c0 -36.667 9.83301 -64.667 29.5 -84s46.5 -29 80.5 -29zM229 644.999l105 140h126l-114 -140h-117z" />
    <glyph glyph-name="ocircumflex" unicode="&#xf4;" 
d="M300 -9c-46 0 -85.833 8.66602 -119.5 25.999s-59.834 42.166 -78.501 74.499s-28 70.5 -28 114.5v138c0 44 9.33301 82.167 28 114.5s44.834 57.166 78.501 74.499s73.5 26 119.5 26c46.667 0 86.667 -8.66699 120 -26s59.333 -42.166 78 -74.499
s28 -70.166 28 -113.499v-139c0 -44 -9.33301 -82.167 -28 -114.5s-44.667 -57.166 -78 -74.499s-73.333 -26 -120 -26zM300 92.999c34.667 0 61.667 9.66699 81 29s29 47.333 29 84v138c0 37.333 -9.66699 65.5 -29 84.5s-46.333 28.5 -81 28.5
c-34 0 -60.833 -9.5 -80.5 -28.5s-29.5 -47.167 -29.5 -84.5v-138c0 -36.667 9.83301 -64.667 29.5 -84s46.5 -29 80.5 -29zM108 644.999l138 140h108l138 -140h-115l-78 74l-74 -74h-117z" />
    <glyph glyph-name="otilde" unicode="&#xf5;" 
d="M300 -9c-46 0 -85.833 8.66602 -119.5 25.999s-59.834 42.166 -78.501 74.499s-28 70.5 -28 114.5v138c0 44 9.33301 82.167 28 114.5s44.834 57.166 78.501 74.499s73.5 26 119.5 26c46.667 0 86.667 -8.66699 120 -26s59.333 -42.166 78 -74.499
s28 -70.166 28 -113.499v-139c0 -44 -9.33301 -82.167 -28 -114.5s-44.667 -57.166 -78 -74.499s-73.333 -26 -120 -26zM300 92.999c34.667 0 61.667 9.66699 81 29s29 47.333 29 84v138c0 37.333 -9.66699 65.5 -29 84.5s-46.333 28.5 -81 28.5
c-34 0 -60.833 -9.5 -80.5 -28.5s-29.5 -47.167 -29.5 -84.5v-138c0 -36.667 9.83301 -64.667 29.5 -84s46.5 -29 80.5 -29zM370 642.999c-20.667 0 -37.3311 3.33301 -49.998 10s-23.334 14.334 -32.001 23.001s-17 16.334 -25 23.001s-17.333 10 -28 10
c-8.66699 0 -15.834 -3 -21.501 -9s-8.5 -14.333 -8.5 -25v-27h-74v33c0 32 9.16699 57.667 27.5 77s42.166 29 71.499 29c20.667 0 37.334 -3.33301 50.001 -10s23.334 -14.334 32.001 -23.001s17 -16.334 25 -23.001s17.333 -10 28 -10c9.33301 0 16.666 2.66699 21.999 8
s8 13.333 8 24v29h74v-33c0 -32 -9 -57.667 -27 -77s-42 -29 -72 -29z" />
    <glyph glyph-name="odieresis" unicode="&#xf6;" 
d="M300 -9c-46 0 -85.833 8.66602 -119.5 25.999s-59.834 42.166 -78.501 74.499s-28 70.5 -28 114.5v138c0 44 9.33301 82.167 28 114.5s44.834 57.166 78.501 74.499s73.5 26 119.5 26c46.667 0 86.667 -8.66699 120 -26s59.333 -42.166 78 -74.499
s28 -70.166 28 -113.499v-139c0 -44 -9.33301 -82.167 -28 -114.5s-44.667 -57.166 -78 -74.499s-73.333 -26 -120 -26zM300 92.999c34.667 0 61.667 9.66699 81 29s29 47.333 29 84v138c0 37.333 -9.66699 65.5 -29 84.5s-46.333 28.5 -81 28.5
c-34 0 -60.833 -9.5 -80.5 -28.5s-29.5 -47.167 -29.5 -84.5v-138c0 -36.667 9.83301 -64.667 29.5 -84s46.5 -29 80.5 -29zM416 643.999c-22 0 -39.333 6.16699 -52 18.5s-19 29.166 -19 50.499c0 22 6.33301 39.333 19 52s30 19 52 19c21.333 0 38.5 -6.33301 51.5 -19
s19.5 -30 19.5 -52c0 -21.333 -6.5 -38.166 -19.5 -50.499s-30.167 -18.5 -51.5 -18.5zM184 643.999c-21.333 0 -38.5 6.16699 -51.5 18.5s-19.5 29.166 -19.5 50.499c0 22 6.5 39.333 19.5 52s30.167 19 51.5 19c22 0 39.333 -6.33301 52 -19s19 -30 19 -52
c0 -21.333 -6.33301 -38.166 -19 -50.499s-30 -18.5 -52 -18.5z" />
    <glyph glyph-name="divide" unicode="&#xf7;" 
d="M100 280v103h400v-103h-400zM288 74c-20.667 0 -37.5 5.66699 -50.5 17s-19.5 27 -19.5 47c0 19.333 6.5 35 19.5 47s29.833 18 50.5 18h24c20.667 0 37.5 -6 50.5 -18s19.5 -27.667 19.5 -47s-6.5 -34.833 -19.5 -46.5s-29.833 -17.5 -50.5 -17.5h-24zM288 460
c-20.667 0 -37.5 5.83301 -50.5 17.5s-19.5 27.167 -19.5 46.5s6.5 35 19.5 47s29.833 18 50.5 18h24c20.667 0 37.5 -6 50.5 -18s19.5 -27.667 19.5 -47s-6.5 -34.833 -19.5 -46.5s-29.833 -17.5 -50.5 -17.5h-24z" />
    <glyph glyph-name="oslash" unicode="&#xf8;" 
d="M31 -30l437 620h101l-437 -620h-101zM300 -10c-46 0 -85.833 8.66699 -119.5 26s-59.5 42.166 -77.5 74.499s-27 70.166 -27 113.499v142c0 44 9 82 27 114s43.833 56.667 77.5 74s73.5 26 119.5 26c46.667 0 86.667 -8.66699 120 -26s59 -42 77 -74s27 -70 27 -114v-142
c0 -43.333 -9 -81.166 -27 -113.499s-43.667 -57.166 -77 -74.499s-73.333 -26 -120 -26zM300 92c36 0 64.167 10 84.5 30s30.5 47.333 30.5 82v142c0 35.333 -10.167 62.833 -30.5 82.5s-48.5 29.5 -84.5 29.5s-64.167 -9.83301 -84.5 -29.5s-30.5 -47.167 -30.5 -82.5
v-142c0 -34.667 10.167 -62 30.5 -82s48.5 -30 84.5 -30z" />
    <glyph glyph-name="ugrave" unicode="&#xf9;" 
d="M299 -10c-68 0 -121.833 19.333 -161.5 58s-59.5 91.334 -59.5 158.001v344h117v-343c0 -36.667 9.16699 -65 27.5 -85s43.833 -30 76.5 -30c33.333 0 59.333 10 78 30s28 48.333 28 85v343h117v-344c0 -66.667 -20.167 -119.334 -60.5 -158.001s-94.5 -58 -162.5 -58z
M254 645l-116 140h129l107 -140h-120z" />
    <glyph glyph-name="uacute" unicode="&#xfa;" 
d="M299 -10c-68 0 -121.833 19.333 -161.5 58s-59.5 91.334 -59.5 158.001v344h117v-343c0 -36.667 9.16699 -65 27.5 -85s43.833 -30 76.5 -30c33.333 0 59.333 10 78 30s28 48.333 28 85v343h117v-344c0 -66.667 -20.167 -119.334 -60.5 -158.001s-94.5 -58 -162.5 -58z
M229 645l105 140h126l-114 -140h-117z" />
    <glyph glyph-name="ucircumflex" unicode="&#xfb;" 
d="M299 -10c-68 0 -121.833 19.333 -161.5 58s-59.5 91.334 -59.5 158.001v344h117v-343c0 -36.667 9.16699 -65 27.5 -85s43.833 -30 76.5 -30c33.333 0 59.333 10 78 30s28 48.333 28 85v343h117v-344c0 -66.667 -20.167 -119.334 -60.5 -158.001s-94.5 -58 -162.5 -58z
M108 645l138 140h108l138 -140h-115l-78 74l-74 -74h-117z" />
    <glyph glyph-name="udieresis" unicode="&#xfc;" 
d="M299 -10c-68 0 -121.833 19.333 -161.5 58s-59.5 91.334 -59.5 158.001v344h117v-343c0 -36.667 9.16699 -65 27.5 -85s43.833 -30 76.5 -30c33.333 0 59.333 10 78 30s28 48.333 28 85v343h117v-344c0 -66.667 -20.167 -119.334 -60.5 -158.001s-94.5 -58 -162.5 -58z
M416 644c-22 0 -39.333 6.16699 -52 18.5s-19 29.166 -19 50.499c0 22 6.33301 39.333 19 52s30 19 52 19c21.333 0 38.5 -6.33301 51.5 -19s19.5 -30 19.5 -52c0 -21.333 -6.5 -38.166 -19.5 -50.499s-30.167 -18.5 -51.5 -18.5zM184 644
c-21.333 0 -38.5 6.16699 -51.5 18.5s-19.5 29.166 -19.5 50.499c0 22 6.5 39.333 19.5 52s30.167 19 51.5 19c22 0 39.333 -6.33301 52 -19s19 -30 19 -52c0 -21.333 -6.33301 -38.166 -19 -50.499s-30 -18.5 -52 -18.5z" />
    <glyph glyph-name="yacute" unicode="&#xfd;" 
d="M169 -180l78 211l-205 519h128l108 -296c5.33301 -14 10.5 -31 15.5 -51l12.5 -50c2.66699 13.333 6.5 30 11.5 50s9.83301 37 14.5 51l103 296h123l-266 -730h-123zM229 645l105 140h126l-114 -140h-117z" />
    <glyph glyph-name="thorn" unicode="&#xfe;" 
d="M78 -170v225h114v-225h-114zM340 -10c-45.333 0 -81.333 12.667 -108 38s-40 60 -40 104l26 -27h-26v-105h-114v730h116v-156l-3 -129h27l-26 -27c0 44 13.5 78.667 40.5 104s62.833 38 107.5 38c55.333 0 99.666 -18.833 132.999 -56.5s50 -88.5 50 -152.5v-152
c0 -64 -16.667 -114.833 -50 -152.5s-77.666 -56.5 -132.999 -56.5zM300 91c33.333 0 59.5 9.83301 78.5 29.5s28.5 47.5 28.5 83.5v142c0 36 -9.5 63.833 -28.5 83.5s-45.167 29.5 -78.5 29.5c-32.667 0 -58.5 -10 -77.5 -30s-28.5 -47.667 -28.5 -83v-142
c0 -35.333 9.5 -63 28.5 -83s44.833 -30 77.5 -30z" />
    <glyph glyph-name="ydieresis" unicode="&#xff;" 
d="M169 -180l78 211l-205 519h128l108 -296c5.33301 -14 10.5 -31 15.5 -51l12.5 -50c2.66699 13.333 6.5 30 11.5 50s9.83301 37 14.5 51l103 296h123l-266 -730h-123zM416 644c-22 0 -39.333 6.16699 -52 18.5s-19 29.166 -19 50.499c0 22 6.33301 39.333 19 52
s30 19 52 19c21.333 0 38.5 -6.33301 51.5 -19s19.5 -30 19.5 -52c0 -21.333 -6.5 -38.166 -19.5 -50.499s-30.167 -18.5 -51.5 -18.5zM184 644c-21.333 0 -38.5 6.16699 -51.5 18.5s-19.5 29.166 -19.5 50.499c0 22 6.5 39.333 19.5 52s30.167 19 51.5 19
c22 0 39.333 -6.33301 52 -19s19 -30 19 -52c0 -21.333 -6.33301 -38.166 -19 -50.499s-30 -18.5 -52 -18.5z" />
    <glyph glyph-name="Amacron" unicode="&#x100;" 
d="M39 0l185 730h152l185 -730h-118l-43 181h-200l-42 -181h-119zM221 277h157l-46 203c-8 34.667 -14.833 65.667 -20.5 93s-9.5 46.333 -11.5 57l-11 -56.5c-5.33301 -27 -12 -57.833 -20 -92.5zM131 831v91h338v-91h-338z" />
    <glyph glyph-name="amacron" unicode="&#x101;" 
d="M242 -10c-56.667 0 -101.5 14.833 -134.5 44.5s-49.5 70.167 -49.5 121.5c0 53.333 17.833 94.666 53.5 123.999s85.167 44 148.5 44h145v49c0 28 -9 50 -27 66s-43 24 -75 24c-28.667 0 -52.5 -6.16699 -71.5 -18.5s-30.167 -29.166 -33.5 -50.499h-114
c6 50.667 29.167 91 69.5 121s91.166 45 152.499 45c66.667 0 119.334 -16.667 158.001 -50s58 -78.666 58 -135.999v-374h-114v98h-19l20 24c0 -40.667 -15.333 -72.834 -46 -96.501s-71 -35.5 -121 -35.5zM279 78c36.667 0 66.832 9.5 90.499 28.5s35.5 43.167 35.5 72.5
v70h-143c-26.667 0 -48 -7.5 -64 -22.5s-24 -35.167 -24 -60.5c0 -27.333 9.33301 -48.833 28 -64.5s44.334 -23.5 77.001 -23.5zM135.998 663v91h338v-91h-338z" />
    <glyph glyph-name="Abreve" unicode="&#x102;" 
d="M39 0l185 730h152l185 -730h-118l-43 181h-200l-42 -181h-119zM221 277h157l-46 203c-8 34.667 -14.833 65.667 -20.5 93s-9.5 46.333 -11.5 57l-11 -56.5c-5.33301 -27 -12 -57.833 -20 -92.5zM300 803c-50.667 0 -91.834 13.5 -123.501 40.5s-47.5 62.5 -47.5 106.5h91
c0 -22.667 7.16699 -41 21.5 -55s33.5 -21 57.5 -21c24.667 0 44.5 7 59.5 21s22.5 32.333 22.5 55h90c0 -44 -15.667 -79.5 -47 -106.5s-72.666 -40.5 -123.999 -40.5z" />
    <glyph glyph-name="abreve" unicode="&#x103;" 
d="M242 -10c-56.667 0 -101.5 14.833 -134.5 44.5s-49.5 70.167 -49.5 121.5c0 53.333 17.833 94.666 53.5 123.999s85.167 44 148.5 44h145v49c0 28 -9 50 -27 66s-43 24 -75 24c-28.667 0 -52.5 -6.16699 -71.5 -18.5s-30.167 -29.166 -33.5 -50.499h-114
c6 50.667 29.167 91 69.5 121s91.166 45 152.499 45c66.667 0 119.334 -16.667 158.001 -50s58 -78.666 58 -135.999v-374h-114v98h-19l20 24c0 -40.667 -15.333 -72.834 -46 -96.501s-71 -35.5 -121 -35.5zM279 78c36.667 0 66.832 9.5 90.499 28.5s35.5 43.167 35.5 72.5
v70h-143c-26.667 0 -48 -7.5 -64 -22.5s-24 -35.167 -24 -60.5c0 -27.333 9.33301 -48.833 28 -64.5s44.334 -23.5 77.001 -23.5zM304.998 638c-50.667 0 -91.834 13.5 -123.501 40.5s-47.5 62.5 -47.5 106.5h90c0 -22.667 7.33301 -41 22 -55s34 -21 58 -21
c24.667 0 44.5 7 59.5 21s22.5 32.333 22.5 55h90c0 -44 -15.667 -79.5 -47 -106.5s-72.666 -40.5 -123.999 -40.5z" />
    <glyph glyph-name="Aogonek" unicode="&#x104;" 
d="M488 -213c-38.667 0 -69.332 9.5 -91.999 28.5s-34 43.167 -34 72.5c0 20.667 8 41.5 24 62.5s40 40.833 72 59.5h80l-20 -17c-18 -16 -31.5 -30.667 -40.5 -44s-13.5 -26 -13.5 -38s4.66699 -22.333 14 -31s21.666 -13 36.999 -13h64v-80h-91zM39.002 0l185 730h152
l185 -730h-118l-43 181h-200l-42 -181h-119zM221.002 277h157l-46 203c-8 34.667 -14.833 65.667 -20.5 93s-9.5 46.333 -11.5 57l-11 -56.5c-5.33301 -27 -12 -57.833 -20 -92.5z" />
    <glyph glyph-name="aogonek" unicode="&#x105;" 
d="M483 -213c-38.667 0 -69.333 9.5 -92 28.5s-34 43.167 -34 72.5c0 20.667 7.83301 41.5 23.5 62.5s39.834 40.833 72.501 59.5l69 -10c-22.667 -19.333 -38.834 -36 -48.501 -50s-14.5 -27 -14.5 -39s4.5 -22.333 13.5 -31s21.5 -13 37.5 -13h64v-80h-91zM242.001 -10
c-56.667 0 -101.5 14.833 -134.5 44.5s-49.5 70.167 -49.5 121.5c0 53.333 17.833 94.666 53.5 123.999s85.167 44 148.5 44h145v49c0 28 -9 50 -27 66s-43 24 -75 24c-28.667 0 -52.5 -6.16699 -71.5 -18.5s-30.167 -29.166 -33.5 -50.499h-114
c6 50.667 29.167 91 69.5 121s91.166 45 152.499 45c66.667 0 119.334 -16.667 158.001 -50s58 -78.666 58 -135.999v-374h-114v98h-19l20 24c0 -40.667 -15.333 -72.834 -46 -96.501s-71 -35.5 -121 -35.5zM279.001 78c36.667 0 66.832 9.5 90.499 28.5
s35.5 43.167 35.5 72.5v70h-143c-26.667 0 -48 -7.5 -64 -22.5s-24 -35.167 -24 -60.5c0 -27.333 9.33301 -48.833 28 -64.5s44.334 -23.5 77.001 -23.5z" />
    <glyph glyph-name="Cacute" unicode="&#x106;" 
d="M304 -10c-46 0 -86.167 8.66992 -120.5 26.0029s-60.833 42.166 -79.5 74.499s-28 70.166 -28 113.499v322c0 44 9.33301 82 28 114s45.167 56.667 79.5 74s74.5 26 120.5 26c46.667 0 86.834 -8.83301 120.501 -26.5s59.834 -42.334 78.501 -74.001s28 -69.5 28 -113.5
h-116c0 36 -9.66699 63.5 -29 82.5s-46.666 28.5 -81.999 28.5s-62.833 -9.5 -82.5 -28.5s-29.5 -46.5 -29.5 -82.5v-322c0 -35.333 9.83301 -62.666 29.5 -81.999s47.167 -29 82.5 -29s62.666 9.66699 81.999 29s29 46.666 29 81.999h116
c0 -42.667 -9.33301 -80.167 -28 -112.5s-44.834 -57.333 -78.501 -75s-73.834 -26.5 -120.501 -26.5zM234 810.003l105 140h126l-114 -140h-117z" />
    <glyph glyph-name="cacute" unicode="&#x107;" 
d="M304 -10c-46.667 0 -87.167 8.66895 -121.5 26.002s-61 42.166 -80 74.499s-28.5 70.166 -28.5 113.499v142c0 44 9.5 82 28.5 114s45.667 56.667 80 74s74.833 26 121.5 26c67.333 0 121.333 -17.667 162 -53s62 -83.333 64 -144h-116c-2 30 -12.667 53.333 -32 70
s-45.333 25 -78 25c-35.333 0 -63.166 -9.66699 -83.499 -29s-30.5 -47 -30.5 -83v-142c0 -35.333 10.167 -62.833 30.5 -82.5s48.166 -29.5 83.499 -29.5c32.667 0 58.667 8.33301 78 25s30 40 32 70h116c-2 -60.667 -23.333 -108.667 -64 -144s-94.667 -53 -162 -53z
M233 645.002l105 140h126l-114 -140h-117z" />
    <glyph glyph-name="Ccircumflex" unicode="&#x108;" 
d="M304 -10c-46 0 -86.167 8.66992 -120.5 26.0029s-60.833 42.166 -79.5 74.499s-28 70.166 -28 113.499v322c0 44 9.33301 82 28 114s45.167 56.667 79.5 74s74.5 26 120.5 26c46.667 0 86.834 -8.83301 120.501 -26.5s59.834 -42.334 78.501 -74.001s28 -69.5 28 -113.5
h-116c0 36 -9.66699 63.5 -29 82.5s-46.666 28.5 -81.999 28.5s-62.833 -9.5 -82.5 -28.5s-29.5 -46.5 -29.5 -82.5v-322c0 -35.333 9.83301 -62.666 29.5 -81.999s47.167 -29 82.5 -29s62.666 9.66699 81.999 29s29 46.666 29 81.999h116
c0 -42.667 -9.33301 -80.167 -28 -112.5s-44.834 -57.333 -78.501 -75s-73.834 -26.5 -120.501 -26.5zM113 810.003l138 140h108l138 -140h-115l-78 74l-74 -74h-117z" />
    <glyph glyph-name="ccircumflex" unicode="&#x109;" 
d="M304 -10c-46.667 0 -87.167 8.66895 -121.5 26.002s-61 42.166 -80 74.499s-28.5 70.166 -28.5 113.499v142c0 44 9.5 82 28.5 114s45.667 56.667 80 74s74.833 26 121.5 26c67.333 0 121.333 -17.667 162 -53s62 -83.333 64 -144h-116c-2 30 -12.667 53.333 -32 70
s-45.333 25 -78 25c-35.333 0 -63.166 -9.66699 -83.499 -29s-30.5 -47 -30.5 -83v-142c0 -35.333 10.167 -62.833 30.5 -82.5s48.166 -29.5 83.499 -29.5c32.667 0 58.667 8.33301 78 25s30 40 32 70h116c-2 -60.667 -23.333 -108.667 -64 -144s-94.667 -53 -162 -53z
M108 645.002l138 140h108l138 -140h-115l-78 74l-74 -74h-117z" />
    <glyph glyph-name="Cdotaccent" unicode="&#x10a;" 
d="M304 -10c-46 0 -86.167 8.66992 -120.5 26.0029s-60.833 42.166 -79.5 74.499s-28 70.166 -28 113.499v322c0 44 9.33301 82 28 114s45.167 56.667 79.5 74s74.5 26 120.5 26c46.667 0 86.834 -8.83301 120.501 -26.5s59.834 -42.334 78.501 -74.001s28 -69.5 28 -113.5
h-116c0 36 -9.66699 63.5 -29 82.5s-46.666 28.5 -81.999 28.5s-62.833 -9.5 -82.5 -28.5s-29.5 -46.5 -29.5 -82.5v-322c0 -35.333 9.83301 -62.666 29.5 -81.999s47.167 -29 82.5 -29s62.666 9.66699 81.999 29s29 46.666 29 81.999h116
c0 -42.667 -9.33301 -80.167 -28 -112.5s-44.834 -57.333 -78.501 -75s-73.834 -26.5 -120.501 -26.5zM305 810.003c-24.667 0 -44 6.33301 -58 19s-21 29.667 -21 51s7 38.333 21 51s33.333 19 58 19s44 -6.33301 58 -19s21 -29.667 21 -51s-7 -38.333 -21 -51
s-33.333 -19 -58 -19z" />
    <glyph glyph-name="cdotaccent" unicode="&#x10b;" 
d="M304 -10c-46.667 0 -87.167 8.66895 -121.5 26.002s-61 42.166 -80 74.499s-28.5 70.166 -28.5 113.499v142c0 44 9.5 82 28.5 114s45.667 56.667 80 74s74.833 26 121.5 26c67.333 0 121.333 -17.667 162 -53s62 -83.333 64 -144h-116c-2 30 -12.667 53.333 -32 70
s-45.333 25 -78 25c-35.333 0 -63.166 -9.66699 -83.499 -29s-30.5 -47 -30.5 -83v-142c0 -35.333 10.167 -62.833 30.5 -82.5s48.166 -29.5 83.499 -29.5c32.667 0 58.667 8.33301 78 25s30 40 32 70h116c-2 -60.667 -23.333 -108.667 -64 -144s-94.667 -53 -162 -53z
M300 644.002c-24.667 0 -44 6.16699 -58 18.5s-21 29.166 -21 50.499c0 22 7 39.333 21 52s33.333 19 58 19s44 -6.33301 58 -19s21 -30 21 -52c0 -21.333 -7 -38.166 -21 -50.499s-33.333 -18.5 -58 -18.5z" />
    <glyph glyph-name="Ccaron" unicode="&#x10c;" 
d="M304 -10c-46 0 -86.167 8.66992 -120.5 26.0029s-60.833 42.166 -79.5 74.499s-28 70.166 -28 113.499v322c0 44 9.33301 82 28 114s45.167 56.667 79.5 74s74.5 26 120.5 26c46.667 0 86.834 -8.83301 120.501 -26.5s59.834 -42.334 78.501 -74.001s28 -69.5 28 -113.5
h-116c0 36 -9.66699 63.5 -29 82.5s-46.666 28.5 -81.999 28.5s-62.833 -9.5 -82.5 -28.5s-29.5 -46.5 -29.5 -82.5v-322c0 -35.333 9.83301 -62.666 29.5 -81.999s47.167 -29 82.5 -29s62.666 9.66699 81.999 29s29 46.666 29 81.999h116
c0 -42.667 -9.33301 -80.167 -28 -112.5s-44.834 -57.333 -78.501 -75s-73.834 -26.5 -120.501 -26.5zM251 810.003l-138 140h115l78 -74l74 74h117l-138 -140h-108z" />
    <glyph glyph-name="ccaron" unicode="&#x10d;" 
d="M304 -10c-46.667 0 -87.167 8.66895 -121.5 26.002s-61 42.166 -80 74.499s-28.5 70.166 -28.5 113.499v142c0 44 9.5 82 28.5 114s45.667 56.667 80 74s74.833 26 121.5 26c67.333 0 121.333 -17.667 162 -53s62 -83.333 64 -144h-116c-2 30 -12.667 53.333 -32 70
s-45.333 25 -78 25c-35.333 0 -63.166 -9.66699 -83.499 -29s-30.5 -47 -30.5 -83v-142c0 -35.333 10.167 -62.833 30.5 -82.5s48.166 -29.5 83.499 -29.5c32.667 0 58.667 8.33301 78 25s30 40 32 70h116c-2 -60.667 -23.333 -108.667 -64 -144s-94.667 -53 -162 -53z
M250 645.002l-138 140h115l78 -74l74 74h117l-138 -140h-108z" />
    <glyph glyph-name="Dcaron" unicode="&#x10e;" 
d="M79 0v730.001h210c49.333 0 91.833 -9.33301 127.5 -28s63.5 -44.834 83.5 -78.501s30 -73.5 30 -119.5v-277c0 -46 -10 -86 -30 -120s-47.833 -60.333 -83.5 -79s-78.167 -28 -127.5 -28h-210zM196 107.001l93 0.000976562c38.667 0 69 10.667 91 32
s33 50.666 33 87.999v277c0 36.667 -11 65.667 -33 87s-52.333 32 -91 32h-93v-516zM246 810.002l-138 140h115l78 -74l74 74h117l-138 -140h-108z" />
    <glyph glyph-name="dcaron" unicode="&#x10f;" 
d="M508 550v180h99l-10 -180h-89zM217 -10c-50.667 0 -90.667 18.3311 -120 54.998s-44 86.334 -44 149.001v162c0 62.667 14.667 112.334 44 149.001s69.333 55 120 55c40 0 71.833 -12.833 95.5 -38.5s35.5 -60.167 35.5 -103.5l-26 27h27l-3 129v156h112v-730h-110v105
h-26l26 27c0 -43.333 -11.833 -77.833 -35.5 -103.5s-55.5 -38.5 -95.5 -38.5zM258 86.998c28 0 49.667 9.83301 65 29.5s23 47.167 23 82.5v152c0 35.333 -7.66699 62.833 -23 82.5s-37 29.5 -65 29.5c-29.333 0 -52.166 -9.83301 -68.499 -29.5s-24.5 -47.167 -24.5 -82.5
v-152c0 -35.333 8.16699 -62.833 24.5 -82.5s39.166 -29.5 68.499 -29.5z" />
    <glyph glyph-name="Dcroat" unicode="&#x110;" 
d="M10 331v83h280v-83h-280zM79 0v730.001h210c49.333 0 91.833 -9.33301 127.5 -28s63.5 -44.834 83.5 -78.501s30 -73.5 30 -119.5v-277c0 -46 -10 -86 -30 -120s-47.833 -60.333 -83.5 -79s-78.167 -28 -127.5 -28h-210zM196 107.001l93 0.000976562
c38.667 0 69 10.667 91 32s33 50.666 33 87.999v277c0 36.667 -11 65.667 -33 87s-52.333 32 -91 32h-93v-516z" />
    <glyph glyph-name="dcroat" unicode="&#x111;" 
d="M257 -10c-55.333 0 -99.166 18.833 -131.499 56.5s-48.5 88.5 -48.5 152.5v92c0 64 16.167 114.833 48.5 152.5s76.166 56.5 131.499 56.5c45.333 0 81.166 -12.667 107.499 -38s39.5 -60 39.5 -104l-25 27h26l-3 129v216h116v-730h-114v105h-25l25 27
c0 -44 -13.167 -78.667 -39.5 -104s-62.166 -38 -107.499 -38zM298 91c32.667 0 58.167 10 76.5 30s27.5 47.667 27.5 83v82c0 35.333 -9.16699 63 -27.5 83s-43.833 30 -76.5 30c-34 0 -60 -9.83301 -78 -29.5s-27 -47.5 -27 -83.5v-82c0 -36 9 -63.833 27 -83.5
s44 -29.5 78 -29.5zM246 563v82h354v-82h-354z" />
    <glyph glyph-name="Emacron" unicode="&#x112;" 
d="M91 0v730h433v-102h-318v-199h283v-102h-283v-225h318v-102h-433zM151 831v91h338v-91h-338z" />
    <glyph glyph-name="emacron" unicode="&#x113;" 
d="M300 -10c-45.333 0 -84.999 8.83301 -118.999 26.5s-60.333 42.667 -79 75s-28 69.833 -28 112.5v142c0 42.667 9.33301 80.167 28 112.5s45 57.333 79 75s73.667 26.5 119 26.5c46 0 85.833 -8.83301 119.5 -26.5s59.834 -42.667 78.501 -75s28 -69.833 28 -112.5v-99
h-340v-43c0 -39.333 9.83301 -69.333 29.5 -90s48.167 -31 85.5 -31c30 0 54.167 5.33301 72.5 16s29.833 25.667 34.5 45h115c-8.66699 -46.667 -33.334 -84 -74.001 -112s-90.334 -42 -149.001 -42zM414.001 315l0.000976562 31c0 39.333 -9.5 69.5 -28.5 90.5
s-47.5 31.5 -85.5 31.5c-36.667 0 -64.834 -10.667 -84.501 -32s-29.5 -51.333 -29.5 -90v-23l236 1zM131.002 663v91h338v-91h-338z" />
    <glyph glyph-name="Ebreve" unicode="&#x114;" 
d="M91 0v730h433v-102h-318v-199h283v-102h-283v-225h318v-102h-433zM320 803c-50.667 0 -91.834 13.5 -123.501 40.5s-47.5 62.5 -47.5 106.5h91c0 -22.667 7.16699 -41 21.5 -55s33.5 -21 57.5 -21c24.667 0 44.5 7 59.5 21s22.5 32.333 22.5 55h90
c0 -44 -15.667 -79.5 -47 -106.5s-72.666 -40.5 -123.999 -40.5z" />
    <glyph glyph-name="ebreve" unicode="&#x115;" 
d="M300 -10c-45.333 0 -84.999 8.83301 -118.999 26.5s-60.333 42.667 -79 75s-28 69.833 -28 112.5v142c0 42.667 9.33301 80.167 28 112.5s45 57.333 79 75s73.667 26.5 119 26.5c46 0 85.833 -8.83301 119.5 -26.5s59.834 -42.667 78.501 -75s28 -69.833 28 -112.5v-99
h-340v-43c0 -39.333 9.83301 -69.333 29.5 -90s48.167 -31 85.5 -31c30 0 54.167 5.33301 72.5 16s29.833 25.667 34.5 45h115c-8.66699 -46.667 -33.334 -84 -74.001 -112s-90.334 -42 -149.001 -42zM414.001 315l0.000976562 31c0 39.333 -9.5 69.5 -28.5 90.5
s-47.5 31.5 -85.5 31.5c-36.667 0 -64.834 -10.667 -84.501 -32s-29.5 -51.333 -29.5 -90v-23l236 1zM300.002 638c-50.667 0 -91.834 13.5 -123.501 40.5s-47.5 62.5 -47.5 106.5h90c0 -22.667 7.33301 -41 22 -55s34 -21 58 -21c24.667 0 44.5 7 59.5 21
s22.5 32.333 22.5 55h90c0 -44 -15.667 -79.5 -47 -106.5s-72.666 -40.5 -123.999 -40.5z" />
    <glyph glyph-name="Edotaccent" unicode="&#x116;" 
d="M91 0v730h433v-102h-318v-199h283v-102h-283v-225h318v-102h-433zM320 810c-24.667 0 -44 6.33301 -58 19s-21 29.667 -21 51s7 38.333 21 51s33.333 19 58 19s44 -6.33301 58 -19s21 -29.667 21 -51s-7 -38.333 -21 -51s-33.333 -19 -58 -19z" />
    <glyph glyph-name="edotaccent" unicode="&#x117;" 
d="M300 -10c-45.333 0 -84.999 8.83301 -118.999 26.5s-60.333 42.667 -79 75s-28 69.833 -28 112.5v142c0 42.667 9.33301 80.167 28 112.5s45 57.333 79 75s73.667 26.5 119 26.5c46 0 85.833 -8.83301 119.5 -26.5s59.834 -42.667 78.501 -75s28 -69.833 28 -112.5v-99
h-340v-43c0 -39.333 9.83301 -69.333 29.5 -90s48.167 -31 85.5 -31c30 0 54.167 5.33301 72.5 16s29.833 25.667 34.5 45h115c-8.66699 -46.667 -33.334 -84 -74.001 -112s-90.334 -42 -149.001 -42zM414.001 315l0.000976562 31c0 39.333 -9.5 69.5 -28.5 90.5
s-47.5 31.5 -85.5 31.5c-36.667 0 -64.834 -10.667 -84.501 -32s-29.5 -51.333 -29.5 -90v-23l236 1zM300.002 644c-24.667 0 -44 6.16699 -58 18.5s-21 29.166 -21 50.499c0 22 7 39.333 21 52s33.333 19 58 19s44 -6.33301 58 -19s21 -30 21 -52
c0 -21.333 -7 -38.166 -21 -50.499s-33.333 -18.5 -58 -18.5z" />
    <glyph glyph-name="Eogonek" unicode="&#x118;" 
d="M438 -213c-38.667 0 -69.333 9.5 -92 28.5s-34 43.167 -34 72.5c0 20.667 7.83301 41.5 23.5 62.5s39.834 40.833 72.501 59.5h80l-20 -17c-18.667 -16 -32.334 -30.667 -41.001 -44s-13 -26 -13 -38s4.5 -22.333 13.5 -31s21.5 -13 37.5 -13h64v-80h-91zM91.001 0v730
h433v-102h-318v-199h283v-102h-283v-225h318v-102h-433z" />
    <glyph glyph-name="eogonek" unicode="&#x119;" 
d="M367 -213c-38 0 -68.5 9.5 -91.5 28.5s-34.5 43.167 -34.5 72.5c0 18.667 7.66699 38.167 23 58.5s38 40.5 68 60.5c-0.666992 -4 -4 -7.83301 -10 -11.5s-13.333 -5.5 -22 -5.5c-45.333 0 -84.833 8.83301 -118.5 26.5s-59.667 42.667 -78 75s-27.5 69.833 -27.5 112.5
v142c0 42.667 9.16699 80.167 27.5 112.5s44.333 57.333 78 75s73.167 26.5 118.5 26.5c46 0 85.667 -8.83301 119 -26.5s59.166 -42.667 77.499 -75s27.5 -69.833 27.5 -112.5v-99h-336v-43c0 -39.333 9.5 -69.333 28.5 -90s47.167 -31 84.5 -31
c30 0 53.833 5.33301 71.5 16s28.834 25.667 33.501 45h115c-4.66699 -26.667 -15.167 -50.5 -31.5 -71.5s-36.5 -38.167 -60.5 -51.5l-32 -28c-18 -16 -31.333 -30.667 -40 -44s-13 -26 -13 -38s4.5 -22.333 13.5 -31s21.5 -13 37.5 -13h64v-80h-92zM412 297v49
c0 39.333 -9.16699 69.5 -27.5 90.5s-46.5 31.5 -84.5 31.5c-36.667 0 -64.5 -10.667 -83.5 -32s-28.5 -51.333 -28.5 -90v-23l251 1z" />
    <glyph glyph-name="Ecaron" unicode="&#x11a;" 
d="M91 0v730h433v-102h-318v-199h283v-102h-283v-225h318v-102h-433zM266 810l-138 140h115l78 -74l74 74h117l-138 -140h-108z" />
    <glyph glyph-name="ecaron" unicode="&#x11b;" 
d="M300 -10c-45.333 0 -84.999 8.83301 -118.999 26.5s-60.333 42.667 -79 75s-28 69.833 -28 112.5v142c0 42.667 9.33301 80.167 28 112.5s45 57.333 79 75s73.667 26.5 119 26.5c46 0 85.833 -8.83301 119.5 -26.5s59.834 -42.667 78.501 -75s28 -69.833 28 -112.5v-99
h-340v-43c0 -39.333 9.83301 -69.333 29.5 -90s48.167 -31 85.5 -31c30 0 54.167 5.33301 72.5 16s29.833 25.667 34.5 45h115c-8.66699 -46.667 -33.334 -84 -74.001 -112s-90.334 -42 -149.001 -42zM414.001 315l0.000976562 31c0 39.333 -9.5 69.5 -28.5 90.5
s-47.5 31.5 -85.5 31.5c-36.667 0 -64.834 -10.667 -84.501 -32s-29.5 -51.333 -29.5 -90v-23l236 1zM246.002 645l-138 140h115l78 -74l74 74h117l-138 -140h-108z" />
    <glyph glyph-name="Gcircumflex" unicode="&#x11c;" 
d="M304 -10c-46 0 -86.167 8.66992 -120.5 26.0029s-60.833 42.166 -79.5 74.499s-28 70.166 -28 113.499v322c0 44 9.33301 82 28 114s45.167 56.667 79.5 74s74.5 26 120.5 26c46.667 0 86.834 -8.83301 120.501 -26.5s59.834 -42.334 78.501 -74.001s28 -69.5 28 -113.5
h-116c0 36 -9.66699 63.5 -29 82.5s-46.666 28.5 -81.999 28.5s-62.833 -9.5 -82.5 -28.5s-29.5 -46.5 -29.5 -82.5v-322c0 -35.333 9.83301 -62.833 29.5 -82.5s47.167 -29.5 82.5 -29.5s62.666 9.83301 81.999 29.5s29 47.5 29 83.5v77h-131v102h247v-180
c0 -43.333 -9.33301 -81 -28 -113s-44.834 -56.833 -78.501 -74.5s-73.834 -26.5 -120.501 -26.5zM108 810.003l138 140h108l138 -140h-115l-78 74l-74 -74h-117z" />
    <glyph glyph-name="gcircumflex" unicode="&#x11d;" 
d="M154 -180v99.001h166c28 0 49 6.66699 63 20s21 32.666 21 57.999v49l2 102h-26l25 24c0 -43.333 -13.167 -77.333 -39.5 -102s-61.833 -37 -106.5 -37c-56.667 0 -101.334 18.833 -134.001 56.5s-49 88.5 -49 152.5v109c0 64 16.333 114.833 49 152.5
s77.334 56.5 134.001 56.5c44.667 0 80.167 -12.333 106.5 -37s39.5 -58.667 39.5 -102l-25 24h25l-2 105h116v-555c0 -54 -17.5 -96.667 -52.5 -128s-83.167 -47 -144.5 -47h-168zM298 134.001c32.667 0 58.334 10 77.001 30s28 47.667 28 83v99
c0 35.333 -9.33301 63 -28 83s-44.334 30 -77.001 30c-34 0 -60.167 -9.83301 -78.5 -29.5s-27.5 -47.5 -27.5 -83.5v-99c0 -36 9.16699 -63.833 27.5 -83.5s44.5 -29.5 78.5 -29.5zM105 645.001l138 140h108l138 -140h-115l-78 74l-74 -74h-117z" />
    <glyph glyph-name="Gbreve" unicode="&#x11e;" 
d="M304 -10c-46 0 -86.167 8.66992 -120.5 26.0029s-60.833 42.166 -79.5 74.499s-28 70.166 -28 113.499v322c0 44 9.33301 82 28 114s45.167 56.667 79.5 74s74.5 26 120.5 26c46.667 0 86.834 -8.83301 120.501 -26.5s59.834 -42.334 78.501 -74.001s28 -69.5 28 -113.5
h-116c0 36 -9.66699 63.5 -29 82.5s-46.666 28.5 -81.999 28.5s-62.833 -9.5 -82.5 -28.5s-29.5 -46.5 -29.5 -82.5v-322c0 -35.333 9.83301 -62.833 29.5 -82.5s47.167 -29.5 82.5 -29.5s62.666 9.83301 81.999 29.5s29 47.5 29 83.5v77h-131v102h247v-180
c0 -43.333 -9.33301 -81 -28 -113s-44.834 -56.833 -78.501 -74.5s-73.834 -26.5 -120.501 -26.5zM300 803.003c-50.667 0 -91.834 13.5 -123.501 40.5s-47.5 62.5 -47.5 106.5h91c0 -22.667 7.16699 -41 21.5 -55s33.5 -21 57.5 -21c24.667 0 44.5 7 59.5 21
s22.5 32.333 22.5 55h90c0 -44 -15.667 -79.5 -47 -106.5s-72.666 -40.5 -123.999 -40.5z" />
    <glyph glyph-name="gbreve" unicode="&#x11f;" 
d="M154 -180v99.001h166c28 0 49 6.66699 63 20s21 32.666 21 57.999v49l2 102h-26l25 24c0 -43.333 -13.167 -77.333 -39.5 -102s-61.833 -37 -106.5 -37c-56.667 0 -101.334 18.833 -134.001 56.5s-49 88.5 -49 152.5v109c0 64 16.333 114.833 49 152.5
s77.334 56.5 134.001 56.5c44.667 0 80.167 -12.333 106.5 -37s39.5 -58.667 39.5 -102l-25 24h25l-2 105h116v-555c0 -54 -17.5 -96.667 -52.5 -128s-83.167 -47 -144.5 -47h-168zM298 134.001c32.667 0 58.334 10 77.001 30s28 47.667 28 83v99
c0 35.333 -9.33301 63 -28 83s-44.334 30 -77.001 30c-34 0 -60.167 -9.83301 -78.5 -29.5s-27.5 -47.5 -27.5 -83.5v-99c0 -36 9.16699 -63.833 27.5 -83.5s44.5 -29.5 78.5 -29.5zM297 638.001c-50.667 0 -91.834 13.5 -123.501 40.5s-47.5 62.5 -47.5 106.5h90
c0 -22.667 7.33301 -41 22 -55s34 -21 58 -21c24.667 0 44.5 7 59.5 21s22.5 32.333 22.5 55h90c0 -44 -15.667 -79.5 -47 -106.5s-72.666 -40.5 -123.999 -40.5z" />
    <glyph glyph-name="Gdotaccent" unicode="&#x120;" 
d="M304 -10c-46 0 -86.167 8.66992 -120.5 26.0029s-60.833 42.166 -79.5 74.499s-28 70.166 -28 113.499v322c0 44 9.33301 82 28 114s45.167 56.667 79.5 74s74.5 26 120.5 26c46.667 0 86.834 -8.83301 120.501 -26.5s59.834 -42.334 78.501 -74.001s28 -69.5 28 -113.5
h-116c0 36 -9.66699 63.5 -29 82.5s-46.666 28.5 -81.999 28.5s-62.833 -9.5 -82.5 -28.5s-29.5 -46.5 -29.5 -82.5v-322c0 -35.333 9.83301 -62.833 29.5 -82.5s47.167 -29.5 82.5 -29.5s62.666 9.83301 81.999 29.5s29 47.5 29 83.5v77h-131v102h247v-180
c0 -43.333 -9.33301 -81 -28 -113s-44.834 -56.833 -78.501 -74.5s-73.834 -26.5 -120.501 -26.5zM300 810.003c-24.667 0 -44 6.33301 -58 19s-21 29.667 -21 51s7 38.333 21 51s33.333 19 58 19s44 -6.33301 58 -19s21 -29.667 21 -51s-7 -38.333 -21 -51
s-33.333 -19 -58 -19z" />
    <glyph glyph-name="gdotaccent" unicode="&#x121;" 
d="M154 -180v99.001h166c28 0 49 6.66699 63 20s21 32.666 21 57.999v49l2 102h-26l25 24c0 -43.333 -13.167 -77.333 -39.5 -102s-61.833 -37 -106.5 -37c-56.667 0 -101.334 18.833 -134.001 56.5s-49 88.5 -49 152.5v109c0 64 16.333 114.833 49 152.5
s77.334 56.5 134.001 56.5c44.667 0 80.167 -12.333 106.5 -37s39.5 -58.667 39.5 -102l-25 24h25l-2 105h116v-555c0 -54 -17.5 -96.667 -52.5 -128s-83.167 -47 -144.5 -47h-168zM298 134.001c32.667 0 58.334 10 77.001 30s28 47.667 28 83v99
c0 35.333 -9.33301 63 -28 83s-44.334 30 -77.001 30c-34 0 -60.167 -9.83301 -78.5 -29.5s-27.5 -47.5 -27.5 -83.5v-99c0 -36 9.16699 -63.833 27.5 -83.5s44.5 -29.5 78.5 -29.5zM297 644.001c-24.667 0 -44 6.16699 -58 18.5s-21 29.166 -21 50.499c0 22 7 39.333 21 52
s33.333 19 58 19s44 -6.33301 58 -19s21 -30 21 -52c0 -21.333 -7 -38.166 -21 -50.499s-33.333 -18.5 -58 -18.5z" />
    <glyph glyph-name="uni0122" unicode="&#x122;" 
d="M304 -10c-46 0 -86.167 8.66992 -120.5 26.0029s-60.833 42.166 -79.5 74.499s-28 70.166 -28 113.499v322c0 44 9.33301 82 28 114s45.167 56.667 79.5 74s74.5 26 120.5 26c46.667 0 86.834 -8.83301 120.501 -26.5s59.834 -42.334 78.501 -74.001s28 -69.5 28 -113.5
h-116c0 36 -9.66699 63.5 -29 82.5s-46.666 28.5 -81.999 28.5s-62.833 -9.5 -82.5 -28.5s-29.5 -46.5 -29.5 -82.5v-322c0 -35.333 9.83301 -62.833 29.5 -82.5s47.167 -29.5 82.5 -29.5s62.666 9.83301 81.999 29.5s29 47.5 29 83.5v77h-131v102h247v-180
c0 -43.333 -9.33301 -81 -28 -113s-44.834 -56.833 -78.501 -74.5s-73.834 -26.5 -120.501 -26.5zM187 -239.997l95 145h125l-109 -145h-111z" />
    <glyph glyph-name="uni0123" unicode="&#x123;" 
d="M154 -180v99.001h166c28 0 49 6.66699 63 20s21 32.666 21 57.999v49l2 102h-26l25 24c0 -43.333 -13.167 -77.333 -39.5 -102s-61.833 -37 -106.5 -37c-56.667 0 -101.334 18.833 -134.001 56.5s-49 88.5 -49 152.5v109c0 64 16.333 114.833 49 152.5
s77.334 56.5 134.001 56.5c44.667 0 80.167 -12.333 106.5 -37s39.5 -58.667 39.5 -102l-25 24h25l-2 105h116v-555c0 -54 -17.5 -96.667 -52.5 -128s-83.167 -47 -144.5 -47h-168zM298 134.001c32.667 0 58.334 10 77.001 30s28 47.667 28 83v99
c0 35.333 -9.33301 63 -28 83s-44.334 30 -77.001 30c-34 0 -60.167 -9.83301 -78.5 -29.5s-27.5 -47.5 -27.5 -83.5v-99c0 -36 9.16699 -63.833 27.5 -83.5s44.5 -29.5 78.5 -29.5zM423 880.001l-80 -235h-145l130 235h95z" />
    <glyph glyph-name="Hcircumflex" unicode="&#x124;" 
d="M81 0v730h117v-298h204v298h117v-730h-117v324h-204v-324h-117zM108 810l138 140h108l138 -140h-115l-78 74l-74 -74h-117z" />
    <glyph glyph-name="hcircumflex" unicode="&#x125;" 
d="M80 0l0.000976562 730h117v-180l-2 -105h30l-30 -27c0 44.667 13.167 79.5 39.5 104.5s62.166 37.5 107.499 37.5c54.667 0 98.334 -17.667 131.001 -53s49 -83.333 49 -144v-363h-117v351c0 34.667 -9.16699 61.5 -27.5 80.5s-43.5 28.5 -75.5 28.5
c-32.667 0 -58.334 -10 -77.001 -30s-28 -48 -28 -84v-346h-117zM-41.999 805l138 140h108l138 -140h-115l-78 74l-74 -74h-117z" />
    <glyph glyph-name="Hbar" unicode="&#x126;" 
d="M10 525v84h580v-84h-580zM81 0v730h117v-298h204v298h117v-730h-117v324h-204v-324h-117z" />
    <glyph glyph-name="hbar" unicode="&#x127;" 
d="M0 563l0.000976562 82h80v85h117v-85h157v-82h-157v-73l-2 -105h2c5.33301 36.667 20.666 65 45.999 85s58.333 30 99 30c54.667 0 98.334 -17.667 131.001 -53s49 -83.333 49 -144v-303h-117v291c0 34.667 -9.16699 61.5 -27.5 80.5s-43.5 28.5 -75.5 28.5
c-32.667 0 -58.334 -10 -77.001 -30s-28 -48 -28 -84v-286h-117v563h-80z" />
    <glyph glyph-name="Itilde" unicode="&#x128;" 
d="M94 0v103h147v524h-147v103h412v-103h-147v-524h147v-103h-412zM370 808c-20.667 0 -37.3311 3.33301 -49.998 10s-23.334 14.334 -32.001 23.001s-17 16.334 -25 23.001s-17.333 10 -28 10c-8.66699 0 -15.834 -3 -21.501 -9s-8.5 -14.333 -8.5 -25v-27h-74v33
c0 32 9.16699 57.667 27.5 77s42.166 29 71.499 29c20.667 0 37.334 -3.33301 50.001 -10s23.334 -14.334 32.001 -23.001s17 -16.334 25 -23.001s17.333 -10 28 -10c9.33301 0 16.666 2.66699 21.999 8s8 13.333 8 24v29h74v-33c0 -32 -9 -57.667 -27 -77s-42 -29 -72 -29z
" />
    <glyph glyph-name="itilde" unicode="&#x129;" 
d="M78 0v106h193v339h-168v105h280v-444h174v-106h-479zM387 643c-20.667 0 -37.3311 3.33301 -49.998 10s-23.334 14.334 -32.001 23.001s-17 16.334 -25 23.001s-17.333 10 -28 10c-8.66699 0 -15.834 -3 -21.501 -9s-8.5 -14.333 -8.5 -25v-27h-74v33
c0 32 9.16699 57.667 27.5 77s42.166 29 71.499 29c20.667 0 37.334 -3.33301 50.001 -10s23.334 -14.334 32.001 -23.001s17 -16.334 25 -23.001s17.333 -10 28 -10c9.33301 0 16.666 2.66699 21.999 8s8 13.333 8 24v29h74v-33c0 -32 -9 -57.667 -27 -77s-42 -29 -72 -29z
" />
    <glyph glyph-name="Imacron" unicode="&#x12a;" 
d="M94 0v103h147v524h-147v103h412v-103h-147v-524h147v-103h-412zM131 831v91h338v-91h-338z" />
    <glyph glyph-name="imacron" unicode="&#x12b;" 
d="M78 0v106h193v339h-168v105h280v-444h174v-106h-479zM148 663v91h338v-91h-338z" />
    <glyph glyph-name="Ibreve" unicode="&#x12c;" 
d="M94 0v103h147v524h-147v103h412v-103h-147v-524h147v-103h-412zM300 803c-50.667 0 -91.834 13.5 -123.501 40.5s-47.5 62.5 -47.5 106.5h91c0 -22.667 7.16699 -41 21.5 -55s33.5 -21 57.5 -21c24.667 0 44.5 7 59.5 21s22.5 32.333 22.5 55h90
c0 -44 -15.667 -79.5 -47 -106.5s-72.666 -40.5 -123.999 -40.5z" />
    <glyph glyph-name="ibreve" unicode="&#x12d;" 
d="M78 0v106h193v339h-168v105h280v-444h174v-106h-479zM317 638c-50.667 0 -91.834 13.5 -123.501 40.5s-47.5 62.5 -47.5 106.5h90c0 -22.667 7.33301 -41 22 -55s34 -21 58 -21c24.667 0 44.5 7 59.5 21s22.5 32.333 22.5 55h90c0 -44 -15.667 -79.5 -47 -106.5
s-72.666 -40.5 -123.999 -40.5z" />
    <glyph glyph-name="Iogonek" unicode="&#x12e;" 
d="M302 -213c-38.667 0 -69.332 9.5 -91.999 28.5s-34 43.167 -34 72.5c0 20.667 8 41.5 24 62.5s40.333 40.833 73 59.5h80l-21 -17c-18 -16 -31.5 -30.667 -40.5 -44s-13.5 -26 -13.5 -38s4.66699 -22.333 14 -31s21.666 -13 36.999 -13h64v-80h-91zM94.002 0v103h147v524
h-147v103h412v-103h-147v-524h147v-103h-412z" />
    <glyph glyph-name="iogonek" unicode="&#x12f;" 
d="M319 -213c-38 0 -68.5 9.5 -91.5 28.5s-34.5 43.167 -34.5 72.5c0 20.667 8 41.5 24 62.5s40.333 40.833 73 59.5h80l-21 -17c-18 -16 -31.333 -30.667 -40 -44s-13 -26 -13 -38s4.5 -22.333 13.5 -31s21.5 -13 37.5 -13h64v-80h-92zM78 0v106h193v339h-168v105h280v-444
h174v-106h-479zM317 644c-24 0 -43.167 6.16699 -57.5 18.5s-21.5 29.166 -21.5 50.499c0 22 7.16699 39.333 21.5 52s33.5 19 57.5 19c24.667 0 44.167 -6.33301 58.5 -19s21.5 -30 21.5 -52c0 -21.333 -7.16699 -38.166 -21.5 -50.499s-33.833 -18.5 -58.5 -18.5z" />
    <glyph glyph-name="Idotaccent" unicode="&#x130;" 
d="M94 0v103h147v524h-147v103h412v-103h-147v-524h147v-103h-412zM300 810c-24.667 0 -44 6.33301 -58 19s-21 29.667 -21 51s7 38.333 21 51s33.333 19 58 19s44 -6.33301 58 -19s21 -29.667 21 -51s-7 -38.333 -21 -51s-33.333 -19 -58 -19z" />
    <glyph glyph-name="dotlessi" unicode="&#x131;" 
d="M78 0v106h193v339h-168v105h280v-444h174v-106h-479z" />
    <glyph glyph-name="Jcircumflex" unicode="&#x134;" 
d="M270 -10c-72.667 0 -130.165 20.167 -172.498 60.5s-63.5 94.833 -63.5 163.5h116c0 -38 10.667 -67.833 32 -89.5s50.666 -32.5 87.999 -32.5s66.666 10.667 87.999 32s32 51.333 32 90v408h-171v108h287v-516c0 -69.333 -21.167 -124 -63.5 -164
s-99.833 -60 -172.5 -60zM168.002 810l138 140h108l138 -140h-115l-78 74l-74 -74h-117z" />
    <glyph glyph-name="jcircumflex" unicode="&#x135;" 
d="M83 -180v108h143c34.667 0 61.667 9.5 81 28.5s29 45.833 29 80.5v405h-223v108h340v-515c0 -66 -20 -118.333 -60 -157s-94.333 -58 -163 -58h-147zM137 645l138 140h108l138 -140h-115l-78 74l-74 -74h-117z" />
    <glyph glyph-name="uni0136" unicode="&#x136;" 
d="M80 0v730h117v-300h91l144 300h126l-167 -350l176 -380h-131l-149 325h-90v-325h-117zM183 -240l95 145h125l-109 -145h-111z" />
    <glyph glyph-name="uni0137" unicode="&#x137;" 
d="M83 0v730h117v-399h92l140 219h131l-171 -265l174 -285h-133l-141 232h-92v-232h-117zM183 -240l95 145h125l-109 -145h-111z" />
    <glyph glyph-name="kgreenlandic" unicode="&#x138;" 
d="M85 0v550h116v-219h85l140 219h132l-171 -265l174 -285h-134l-141 232h-85v-232h-116z" />
    <glyph glyph-name="Lacute" unicode="&#x139;" 
d="M106 0v730h117v-622h314v-108h-431zM94 810l105 140h126l-114 -140h-117z" />
    <glyph glyph-name="lacute" unicode="&#x13a;" 
d="M382 0c-35.333 0 -66.167 7.16699 -92.5 21.5s-46.833 34.5 -61.5 60.5s-22 56.333 -22 91v452h-178v105h295v-557c0 -20.667 5.83301 -37.167 17.5 -49.5s27.5 -18.5 47.5 -18.5h169v-105h-175zM187.999 810l105 140h126l-114 -140h-117z" />
    <glyph glyph-name="uni013B" unicode="&#x13b;" 
d="M106 0v730h117v-622h314v-108h-431zM203 -240l95 145h125l-109 -145h-111z" />
    <glyph glyph-name="uni013C" unicode="&#x13c;" 
d="M382 0c-35.333 0 -66.167 7.16699 -92.5 21.5s-46.833 34.5 -61.5 60.5s-22 56.333 -22 91v452h-178v105h295v-557c0 -20.667 5.83301 -37.167 17.5 -49.5s27.5 -18.5 47.5 -18.5h169v-105h-175zM202.999 -240l95 145h125l-109 -145h-111z" />
    <glyph glyph-name="Lcaron" unicode="&#x13d;" 
d="M106 0v730h117v-622h314v-108h-431zM351 550l10 180h109l-20 -180h-99z" />
    <glyph glyph-name="lcaron" unicode="&#x13e;" 
d="M382 0c-35.333 0 -66.167 7.16699 -92.5 21.5s-46.833 34.5 -61.5 60.5s-22 56.333 -22 91v452h-178v105h295v-557c0 -20.667 5.83301 -37.167 17.5 -49.5s27.5 -18.5 47.5 -18.5h169v-105h-175zM444.999 550l10 180h109l-20 -180h-99z" />
    <glyph glyph-name="Ldot" unicode="&#x13f;" 
d="M106 0v730h117v-622h314v-108h-431zM456 256c-28 0 -50.167 8.16699 -66.5 24.5s-24.5 38.166 -24.5 65.499c0 28 8.16699 50.333 24.5 67s38.5 25 66.5 25s50.167 -8.33301 66.5 -25s24.5 -39 24.5 -67c0 -27.333 -8.16699 -49.166 -24.5 -65.499
s-38.5 -24.5 -66.5 -24.5z" />
    <glyph glyph-name="ldot" unicode="&#x140;" 
d="M362 0c-35.333 0 -66.167 7.16699 -92.5 21.5s-46.833 34.5 -61.5 60.5s-22 56.333 -22 91v452h-178v105h295v-557c0 -20.667 5.83301 -37.167 17.5 -49.5s27.5 -18.5 47.5 -18.5h169v-105h-175zM556.999 256c-28 0 -50.167 8.16699 -66.5 24.5
s-24.5 38.166 -24.5 65.499c0 28 8.16699 50.333 24.5 67s38.5 25 66.5 25s50.167 -8.33301 66.5 -25s24.5 -39 24.5 -67c0 -27.333 -8.16699 -49.166 -24.5 -65.499s-38.5 -24.5 -66.5 -24.5z" />
    <glyph glyph-name="Lslash" unicode="&#x141;" 
d="M20 230v107l374 223v-107zM111 0v730h116v-622h315v-108h-431z" />
    <glyph glyph-name="lslash" unicode="&#x142;" 
d="M100 230v107l374 223v-107zM382 0c-35.333 0 -66.167 7.16699 -92.5 21.5s-46.833 34.5 -61.5 60.5s-22 56.333 -22 91v452h-178v105h295v-557c0 -20.667 5.83301 -37.167 17.5 -49.5s27.5 -18.5 47.5 -18.5h169v-105h-175z" />
    <glyph glyph-name="Nacute" unicode="&#x143;" 
d="M77 0l-0.00195312 729.999h144l208 -598c-1.33301 20 -3.16602 43.833 -5.49902 71.5s-4.16602 56.334 -5.49902 86.001s-2 56.167 -2 79.5v361h107v-730h-144l-207 598c2 -18 3.83301 -40.333 5.5 -67s3.16699 -54.167 4.5 -82.5s2 -54.5 2 -78.5v-370h-107z
M228.998 809.999l105 140h126l-114 -140h-117z" />
    <glyph glyph-name="nacute" unicode="&#x144;" 
d="M80 0l0.000976562 549.999h115v-105h30l-30 -27c0 44.667 13.167 79.5 39.5 104.5s62.166 37.5 107.499 37.5c54.667 0 98.334 -17.667 131.001 -53s49 -83.333 49 -144v-363h-117v351c0 34.667 -9.16699 61.334 -27.5 80.001s-43.5 28 -75.5 28
c-32.667 0 -58.334 -9.83301 -77.001 -29.5s-28 -47.5 -28 -83.5v-346h-117zM234.001 644.999l105 140h126l-114 -140h-117z" />
    <glyph glyph-name="uni0145" unicode="&#x145;" 
d="M77 0l-0.00195312 729.999h144l208 -598c-1.33301 20 -3.16602 43.833 -5.49902 71.5s-4.16602 56.334 -5.49902 86.001s-2 56.167 -2 79.5v361h107v-730h-144l-207 598c2 -18 3.83301 -40.333 5.5 -67s3.16699 -54.167 4.5 -82.5s2 -54.5 2 -78.5v-370h-107z
M182.998 -240.001l95 145h125l-109 -145h-111z" />
    <glyph glyph-name="uni0146" unicode="&#x146;" 
d="M80 0l0.000976562 549.999h115v-105h30l-30 -27c0 44.667 13.167 79.5 39.5 104.5s62.166 37.5 107.499 37.5c54.667 0 98.334 -17.667 131.001 -53s49 -83.333 49 -144v-363h-117v351c0 34.667 -9.16699 61.334 -27.5 80.001s-43.5 28 -75.5 28
c-32.667 0 -58.334 -9.83301 -77.001 -29.5s-28 -47.5 -28 -83.5v-346h-117zM183.001 -240.001l95 145h125l-109 -145h-111z" />
    <glyph glyph-name="Ncaron" unicode="&#x147;" 
d="M77 0l-0.00195312 729.999h144l208 -598c-1.33301 20 -3.16602 43.833 -5.49902 71.5s-4.16602 56.334 -5.49902 86.001s-2 56.167 -2 79.5v361h107v-730h-144l-207 598c2 -18 3.83301 -40.333 5.5 -67s3.16699 -54.167 4.5 -82.5s2 -54.5 2 -78.5v-370h-107z
M245.998 809.999l-138 140h115l78 -74l74 74h117l-138 -140h-108z" />
    <glyph glyph-name="ncaron" unicode="&#x148;" 
d="M80 0l0.000976562 549.999h115v-105h30l-30 -27c0 44.667 13.167 79.5 39.5 104.5s62.166 37.5 107.499 37.5c54.667 0 98.334 -17.667 131.001 -53s49 -83.333 49 -144v-363h-117v351c0 34.667 -9.16699 61.334 -27.5 80.001s-43.5 28 -75.5 28
c-32.667 0 -58.334 -9.83301 -77.001 -29.5s-28 -47.5 -28 -83.5v-346h-117zM251.001 644.999l-138 140h115l78 -74l74 74h117l-138 -140h-108z" />
    <glyph glyph-name="napostrophe" unicode="&#x149;" 
d="M80 0l0.000976562 549.999h115v-105h30l-30 -27c0 44.667 13.167 79.5 39.5 104.5s62.166 37.5 107.499 37.5c54.667 0 98.334 -17.667 131.001 -53s49 -83.333 49 -144v-363h-117v351c0 34.667 -9.16699 61.334 -27.5 80.001s-43.5 28 -75.5 28
c-32.667 0 -58.334 -9.83301 -77.001 -29.5s-28 -47.5 -28 -83.5v-346h-117zM-6.99902 644.999l95 145h125l-109 -145h-111z" />
    <glyph glyph-name="Eng" unicode="&#x14a;" 
d="M244 -180l-0.00195312 109.998h63c31.333 0 55.833 8.66699 73.5 26s26.5 41 26.5 71l-235 571c2 -18 3.83301 -40.333 5.5 -67s3.16699 -54.167 4.5 -82.5s2 -54.5 2 -78.5v-370h-107v730h144l208 -514c-1.33301 20.667 -3.16602 44.834 -5.49902 72.501
s-4.16602 56.334 -5.49902 86.001s-2 56.167 -2 79.5v276h107v-711c0 -39.333 -9.16699 -74 -27.5 -104s-44 -53.333 -77 -70s-71.5 -25 -115.5 -25h-59z" />
    <glyph glyph-name="eng" unicode="&#x14b;" 
d="M243 -180v110h61c31.333 0 55.833 8.66699 73.5 26s26.5 41 26.5 71v324c0 34.667 -9 61.5 -27 80.5s-43 28.5 -75 28.5c-32.667 0 -58.167 -10 -76.5 -30s-27.5 -48 -27.5 -84v-346h-116v550h114v-105h30l-30 -27c0 44.667 13 79.5 39 104.5s61.667 37.5 107 37.5
c54.667 0 98 -17.667 130 -53s48 -83.333 48 -144v-344c0 -39.333 -9.16699 -74 -27.5 -104s-44 -53.333 -77 -70s-71.5 -25 -115.5 -25h-57z" />
    <glyph glyph-name="Omacron" unicode="&#x14c;" 
d="M300 -10c-46 0 -85.833 8.66699 -119.5 26s-59.5 42.166 -77.5 74.499s-27 70.166 -27 113.499v322c0 44 9 82 27 114s43.833 56.667 77.5 74s73.5 26 119.5 26c46.667 0 86.667 -8.66699 120 -26s59 -42 77 -74s27 -70 27 -114v-322c0 -43.333 -9 -81.166 -27 -113.499
s-43.667 -57.166 -77 -74.499s-73.333 -26 -120 -26zM300 93c35.333 0 62.1641 9.66699 80.4971 29s27.5 46.666 27.5 81.999v322c0 36 -9.16699 63.5 -27.5 82.5s-45.166 28.5 -80.499 28.5s-62.166 -9.5 -80.499 -28.5s-27.5 -46.5 -27.5 -82.5v-322
c0 -35.333 9.33301 -62.666 28 -81.999s45.334 -29 80.001 -29zM130.998 831v91h338v-91h-338z" />
    <glyph glyph-name="omacron" unicode="&#x14d;" 
d="M300 -9c-46 0 -85.833 8.66602 -119.5 25.999s-59.834 42.166 -78.501 74.499s-28 70.5 -28 114.5v138c0 44 9.33301 82.167 28 114.5s44.834 57.166 78.501 74.499s73.5 26 119.5 26c46.667 0 86.667 -8.66699 120 -26s59.333 -42.166 78 -74.499
s28 -70.166 28 -113.499v-139c0 -44 -9.33301 -82.167 -28 -114.5s-44.667 -57.166 -78 -74.499s-73.333 -26 -120 -26zM300 92.999c34.667 0 61.667 9.66699 81 29s29 47.333 29 84v138c0 37.333 -9.66699 65.5 -29 84.5s-46.333 28.5 -81 28.5
c-34 0 -60.833 -9.5 -80.5 -28.5s-29.5 -47.167 -29.5 -84.5v-138c0 -36.667 9.83301 -64.667 29.5 -84s46.5 -29 80.5 -29zM131 662.999v91h338v-91h-338z" />
    <glyph glyph-name="Obreve" unicode="&#x14e;" 
d="M300 -10c-46 0 -85.833 8.66699 -119.5 26s-59.5 42.166 -77.5 74.499s-27 70.166 -27 113.499v322c0 44 9 82 27 114s43.833 56.667 77.5 74s73.5 26 119.5 26c46.667 0 86.667 -8.66699 120 -26s59 -42 77 -74s27 -70 27 -114v-322c0 -43.333 -9 -81.166 -27 -113.499
s-43.667 -57.166 -77 -74.499s-73.333 -26 -120 -26zM300 93c35.333 0 62.1641 9.66699 80.4971 29s27.5 46.666 27.5 81.999v322c0 36 -9.16699 63.5 -27.5 82.5s-45.166 28.5 -80.499 28.5s-62.166 -9.5 -80.499 -28.5s-27.5 -46.5 -27.5 -82.5v-322
c0 -35.333 9.33301 -62.666 28 -81.999s45.334 -29 80.001 -29zM299.998 803c-50.667 0 -91.834 13.5 -123.501 40.5s-47.5 62.5 -47.5 106.5h91c0 -22.667 7.16699 -41 21.5 -55s33.5 -21 57.5 -21c24.667 0 44.5 7 59.5 21s22.5 32.333 22.5 55h90
c0 -44 -15.667 -79.5 -47 -106.5s-72.666 -40.5 -123.999 -40.5z" />
    <glyph glyph-name="obreve" unicode="&#x14f;" 
d="M300 -9c-46 0 -85.833 8.66602 -119.5 25.999s-59.834 42.166 -78.501 74.499s-28 70.5 -28 114.5v138c0 44 9.33301 82.167 28 114.5s44.834 57.166 78.501 74.499s73.5 26 119.5 26c46.667 0 86.667 -8.66699 120 -26s59.333 -42.166 78 -74.499
s28 -70.166 28 -113.499v-139c0 -44 -9.33301 -82.167 -28 -114.5s-44.667 -57.166 -78 -74.499s-73.333 -26 -120 -26zM300 92.999c34.667 0 61.667 9.66699 81 29s29 47.333 29 84v138c0 37.333 -9.66699 65.5 -29 84.5s-46.333 28.5 -81 28.5
c-34 0 -60.833 -9.5 -80.5 -28.5s-29.5 -47.167 -29.5 -84.5v-138c0 -36.667 9.83301 -64.667 29.5 -84s46.5 -29 80.5 -29zM300 637.999c-50.667 0 -91.834 13.5 -123.501 40.5s-47.5 62.5 -47.5 106.5h90c0 -22.667 7.33301 -41 22 -55s34 -21 58 -21
c24.667 0 44.5 7 59.5 21s22.5 32.333 22.5 55h90c0 -44 -15.667 -79.5 -47 -106.5s-72.666 -40.5 -123.999 -40.5z" />
    <glyph glyph-name="Ohungarumlaut" unicode="&#x150;" 
d="M300 -10c-46 0 -85.833 8.66699 -119.5 26s-59.5 42.166 -77.5 74.499s-27 70.166 -27 113.499v322c0 44 9 82 27 114s43.833 56.667 77.5 74s73.5 26 119.5 26c46.667 0 86.667 -8.66699 120 -26s59 -42 77 -74s27 -70 27 -114v-322c0 -43.333 -9 -81.166 -27 -113.499
s-43.667 -57.166 -77 -74.499s-73.333 -26 -120 -26zM300 93c35.333 0 62.1641 9.66699 80.4971 29s27.5 46.666 27.5 81.999v322c0 36 -9.16699 63.5 -27.5 82.5s-45.166 28.5 -80.499 28.5s-62.166 -9.5 -80.499 -28.5s-27.5 -46.5 -27.5 -82.5v-322
c0 -35.333 9.33301 -62.666 28 -81.999s45.334 -29 80.001 -29zM323.998 810l108 140h115l-115 -140h-108zM127.998 810l108 140h115l-115 -140h-108z" />
    <glyph glyph-name="ohungarumlaut" unicode="&#x151;" 
d="M300 -9c-46 0 -85.833 8.66602 -119.5 25.999s-59.834 42.166 -78.501 74.499s-28 70.5 -28 114.5v138c0 44 9.33301 82.167 28 114.5s44.834 57.166 78.501 74.499s73.5 26 119.5 26c46.667 0 86.667 -8.66699 120 -26s59.333 -42.166 78 -74.499
s28 -70.166 28 -113.499v-139c0 -44 -9.33301 -82.167 -28 -114.5s-44.667 -57.166 -78 -74.499s-73.333 -26 -120 -26zM300 92.999c34.667 0 61.667 9.66699 81 29s29 47.333 29 84v138c0 37.333 -9.66699 65.5 -29 84.5s-46.333 28.5 -81 28.5
c-34 0 -60.833 -9.5 -80.5 -28.5s-29.5 -47.167 -29.5 -84.5v-138c0 -36.667 9.83301 -64.667 29.5 -84s46.5 -29 80.5 -29zM324 644.999l108 140h115l-115 -140h-108zM128 644.999l108 140h115l-115 -140h-108z" />
    <glyph glyph-name="OE" unicode="&#x152;" 
d="M186 -7c-30.667 0 -57.334 7.66895 -80.001 23.002s-40 37.666 -52 66.999s-18 64 -18 104v359c0 40.667 6 75.5 18 104.5s29.333 51.167 52 66.5s49.334 23 80.001 23c24 0 43.667 -4.83301 59 -14.5s27.333 -21.334 36 -35.001s13.667 -27.167 15 -40.5h5v80h276v-101
h-170v-203h145v-101h-145v-224h170v-101h-276v83h-5c-1.33301 -12.667 -6.33301 -26 -15 -40s-20.667 -25.833 -36 -35.5s-35 -14.5 -59 -14.5zM223 93.002c23.333 0 41.666 8.33301 54.999 25s20 39.667 20 69v359c0 29.333 -6.66699 52.333 -20 69s-31.666 25 -54.999 25
s-41.666 -8.33301 -54.999 -25s-20 -39.667 -20 -69v-359c0 -29.333 6.66699 -52.333 20 -69s31.666 -25 54.999 -25z" />
    <glyph glyph-name="oe" unicode="&#x153;" 
d="M180 -10c-44 0 -79.166 14.168 -105.499 42.501s-39.5 66.166 -39.5 113.499v258c0 48 13.167 86 39.5 114s61.5 42 105.5 42c26 0 47.333 -4.16699 64 -12.5s29.334 -18.5 38.001 -30.5s13.667 -23.667 15 -35h6c1.33301 11.333 6.16602 23 14.499 35s21 22.167 38 30.5
s38.5 12.5 64.5 12.5c44 0 79.167 -14 105.5 -42s39.5 -66 39.5 -114v-154h-216v-104c0 -22 5.16699 -39.167 15.5 -51.5s24.5 -18.5 42.5 -18.5c16.667 0 30.167 5 40.5 15s16.166 23.667 17.499 41h98c-3.33301 -43.333 -18 -77.833 -44 -103.5s-59 -38.5 -99 -38.5
c-26 0 -47.5 4.16699 -64.5 12.5s-29.667 18.5 -38 30.5s-13.166 23.667 -14.499 35h-6c-1.33301 -11.333 -6.33301 -23 -15 -35s-21.334 -22.167 -38.001 -30.5s-38 -12.5 -64 -12.5zM193.001 76.001c18 0 32.167 6.16699 42.5 18.5s15.5 29.5 15.5 51.5v258
c0 22 -5.16699 39.167 -15.5 51.5s-24.5 18.5 -42.5 18.5s-32.5 -6.16699 -43.5 -18.5s-16.5 -29.5 -16.5 -51.5v-258c0 -22 5.5 -39.167 16.5 -51.5s25.5 -18.5 43.5 -18.5zM349.001 326.001h118.001v78c0 22 -5.33301 39.167 -16 51.5s-25.334 18.5 -44.001 18.5
c-18 0 -32.167 -6.16699 -42.5 -18.5s-15.5 -29.5 -15.5 -51.5v-78z" />
    <glyph glyph-name="Racute" unicode="&#x154;" 
d="M80 0v729.999h230c47.333 0 88.5 -8.83301 123.5 -26.5s62.167 -42.667 81.5 -75s29 -70.166 29 -113.499c0 -48.667 -12.333 -91.167 -37 -127.5s-58 -61.833 -100 -76.5l147 -311h-131l-131 295h-96v-295h-116zM196 397.999l114 0.000976562
c35.333 0 63.5 10.167 84.5 30.5s31.5 48.166 31.5 83.499s-10.5 63.333 -31.5 84s-49.167 31 -84.5 31h-114v-229zM229 810l105 140h126l-114 -140h-117z" />
    <glyph glyph-name="racute" unicode="&#x155;" 
d="M98 0l0.000976562 550.001h111v-105h29l-35 -65c0 59.333 13.167 104.166 39.5 134.499s65.166 45.5 116.499 45.5c59.333 0 106 -18.167 140 -54.5s51 -86.833 51 -151.5v-38h-121v30c0 37.333 -9.5 66 -28.5 86s-45.167 30 -78.5 30c-34 0 -60.333 -10.167 -79 -30.5
s-28 -48.833 -28 -85.5v-346h-117zM249.001 645.001l105 140h126l-114 -140h-117z" />
    <glyph glyph-name="uni0156" unicode="&#x156;" 
d="M80 0v729.999h230c47.333 0 88.5 -8.83301 123.5 -26.5s62.167 -42.667 81.5 -75s29 -70.166 29 -113.499c0 -48.667 -12.333 -91.167 -37 -127.5s-58 -61.833 -100 -76.5l147 -311h-131l-131 295h-96v-295h-116zM196 397.999l114 0.000976562
c35.333 0 63.5 10.167 84.5 30.5s31.5 48.166 31.5 83.499s-10.5 63.333 -31.5 84s-49.167 31 -84.5 31h-114v-229zM183 -240l95 145h125l-109 -145h-111z" />
    <glyph glyph-name="uni0157" unicode="&#x157;" 
d="M98 0l0.000976562 550.001h111v-105h29l-35 -65c0 59.333 13.167 104.166 39.5 134.499s65.166 45.5 116.499 45.5c59.333 0 106 -18.167 140 -54.5s51 -86.833 51 -151.5v-38h-121v30c0 37.333 -9.5 66 -28.5 86s-45.167 30 -78.5 30c-34 0 -60.333 -10.167 -79 -30.5
s-28 -48.833 -28 -85.5v-346h-117zM18.001 -239.999l95 145h125l-109 -145h-111z" />
    <glyph glyph-name="Rcaron" unicode="&#x158;" 
d="M80 0v729.999h230c47.333 0 88.5 -8.83301 123.5 -26.5s62.167 -42.667 81.5 -75s29 -70.166 29 -113.499c0 -48.667 -12.333 -91.167 -37 -127.5s-58 -61.833 -100 -76.5l147 -311h-131l-131 295h-96v-295h-116zM196 397.999l114 0.000976562
c35.333 0 63.5 10.167 84.5 30.5s31.5 48.166 31.5 83.499s-10.5 63.333 -31.5 84s-49.167 31 -84.5 31h-114v-229zM246 810l-138 140h115l78 -74l74 74h117l-138 -140h-108z" />
    <glyph glyph-name="rcaron" unicode="&#x159;" 
d="M98 0l0.000976562 550.001h111v-105h29l-35 -65c0 59.333 13.167 104.166 39.5 134.499s65.166 45.5 116.499 45.5c59.333 0 106 -18.167 140 -54.5s51 -86.833 51 -151.5v-38h-121v30c0 37.333 -9.5 66 -28.5 86s-45.167 30 -78.5 30c-34 0 -60.333 -10.167 -79 -30.5
s-28 -48.833 -28 -85.5v-346h-117zM266.001 645.001l-138 140h115l78 -74l74 74h117l-138 -140h-108z" />
    <glyph glyph-name="Sacute" unicode="&#x15a;" 
d="M302 -10c-49.333 0 -92.002 8.33301 -128.002 25s-63.833 40.334 -83.5 71.001s-29.5 66.667 -29.5 108h116c0 -31.333 11.333 -56 34 -74s53.667 -27 93 -27c36.667 0 65.667 8.83301 87 26.5s32 42.167 32 73.5c0 26 -7.33301 48.5 -22 67.5s-35.667 31.833 -63 38.5
l-88 25c-55.333 15.333 -98 41.833 -128 79.5s-45 82.5 -45 134.5c0 41.333 9.16699 77 27.5 107s44.333 53.5 78 70.5s73.5 25.5 119.5 25.5c69.333 0 124.333 -18.167 165 -54.5s61.334 -84.833 62.001 -145.5h-117c0 30 -9.66699 53.667 -29 71s-46.666 26 -81.999 26
c-34 0 -60.5 -8.16699 -79.5 -24.5s-28.5 -38.833 -28.5 -67.5c0 -26.667 7.16699 -49.334 21.5 -68.001s34.833 -32 61.5 -40l91 -26c55.333 -14.667 97.833 -40.667 127.5 -78s44.5 -83 44.5 -137c0 -41.333 -9.83301 -77.5 -29.5 -108.5s-47.167 -55.167 -82.5 -72.5
s-77 -26 -125 -26zM228.998 810l105 140h126l-114 -140h-117z" />
    <glyph glyph-name="sacute" unicode="&#x15b;" 
d="M280 -9c-40.667 0 -76.165 6.5 -106.498 19.5s-54.333 31 -72 54s-27.5 50.167 -29.5 81.5h117c2 -18 11.167 -32.333 27.5 -43s37.5 -16 63.5 -16h43c32 0 56 6.33301 72 19s24 29.667 24 51c0 20 -7.16699 35.833 -21.5 47.5s-35.833 19.5 -64.5 23.5l-70 10
c-60.667 9.33301 -105.167 26.166 -133.5 50.499s-42.5 60.833 -42.5 109.5c0 51.333 16.833 91 50.5 119s83.5 42 149.5 42h38c59.333 0 106.666 -13.333 141.999 -40s55 -62.667 59 -108h-117c-2 15.333 -10.333 27.833 -25 37.5s-34.334 14.5 -59.001 14.5h-38
c-30 0 -51.833 -5.5 -65.5 -16.5s-20.5 -27.167 -20.5 -48.5c0 -19.333 6 -33.833 18 -43.5s31 -16.5 57 -20.5l72 -10c63.333 -9.33301 110 -26.833 140 -52.5s45 -63.167 45 -112.5c0 -53.333 -17.5 -94.666 -52.5 -123.999s-87.5 -44 -157.5 -44h-43zM239.002 645
l105 140h126l-114 -140h-117z" />
    <glyph glyph-name="Scircumflex" unicode="&#x15c;" 
d="M302 -10c-49.333 0 -92.002 8.33301 -128.002 25s-63.833 40.334 -83.5 71.001s-29.5 66.667 -29.5 108h116c0 -31.333 11.333 -56 34 -74s53.667 -27 93 -27c36.667 0 65.667 8.83301 87 26.5s32 42.167 32 73.5c0 26 -7.33301 48.5 -22 67.5s-35.667 31.833 -63 38.5
l-88 25c-55.333 15.333 -98 41.833 -128 79.5s-45 82.5 -45 134.5c0 41.333 9.16699 77 27.5 107s44.333 53.5 78 70.5s73.5 25.5 119.5 25.5c69.333 0 124.333 -18.167 165 -54.5s61.334 -84.833 62.001 -145.5h-117c0 30 -9.66699 53.667 -29 71s-46.666 26 -81.999 26
c-34 0 -60.5 -8.16699 -79.5 -24.5s-28.5 -38.833 -28.5 -67.5c0 -26.667 7.16699 -49.334 21.5 -68.001s34.833 -32 61.5 -40l91 -26c55.333 -14.667 97.833 -40.667 127.5 -78s44.5 -83 44.5 -137c0 -41.333 -9.83301 -77.5 -29.5 -108.5s-47.167 -55.167 -82.5 -72.5
s-77 -26 -125 -26zM107.998 810l138 140h108l138 -140h-115l-78 74l-74 -74h-117z" />
    <glyph glyph-name="scircumflex" unicode="&#x15d;" 
d="M280 -9c-40.667 0 -76.165 6.5 -106.498 19.5s-54.333 31 -72 54s-27.5 50.167 -29.5 81.5h117c2 -18 11.167 -32.333 27.5 -43s37.5 -16 63.5 -16h43c32 0 56 6.33301 72 19s24 29.667 24 51c0 20 -7.16699 35.833 -21.5 47.5s-35.833 19.5 -64.5 23.5l-70 10
c-60.667 9.33301 -105.167 26.166 -133.5 50.499s-42.5 60.833 -42.5 109.5c0 51.333 16.833 91 50.5 119s83.5 42 149.5 42h38c59.333 0 106.666 -13.333 141.999 -40s55 -62.667 59 -108h-117c-2 15.333 -10.333 27.833 -25 37.5s-34.334 14.5 -59.001 14.5h-38
c-30 0 -51.833 -5.5 -65.5 -16.5s-20.5 -27.167 -20.5 -48.5c0 -19.333 6 -33.833 18 -43.5s31 -16.5 57 -20.5l72 -10c63.333 -9.33301 110 -26.833 140 -52.5s45 -63.167 45 -112.5c0 -53.333 -17.5 -94.666 -52.5 -123.999s-87.5 -44 -157.5 -44h-43zM118.002 645
l138 140h108l138 -140h-115l-78 74l-74 -74h-117z" />
    <glyph glyph-name="Scedilla" unicode="&#x15e;" 
d="M201 -213v61.999h74c15.333 0 27.833 3.83301 37.5 11.5s14.5 15.834 14.5 24.501c0 13.333 -9.66699 24.333 -29 33s-46.333 13 -81 13l35 91h64l-20 -59c18.667 -1.33301 38 -5.5 58 -12.5s36.833 -16.833 50.5 -29.5s20.5 -28.334 20.5 -47.001
c0 -23.333 -11.667 -43.666 -35 -60.999s-54.333 -26 -93 -26h-96zM302 -10.001c-49.333 0 -92.002 8.33301 -128.002 25s-63.833 40.334 -83.5 71.001s-29.5 66.667 -29.5 108h116c0 -31.333 11.333 -56 34 -74s53.667 -27 93 -27c36.667 0 65.667 8.83301 87 26.5
s32 42.167 32 73.5c0 26 -7.33301 48.5 -22 67.5s-35.667 31.833 -63 38.5l-88 25c-55.333 15.333 -98 41.833 -128 79.5s-45 82.5 -45 134.5c0 41.333 9.16699 77 27.5 107s44.333 53.5 78 70.5s73.5 25.5 119.5 25.5c69.333 0 124.333 -18.167 165 -54.5
s61.334 -84.833 62.001 -145.5h-117c0 30 -9.66699 53.667 -29 71s-46.666 26 -81.999 26c-34 0 -60.5 -8.16699 -79.5 -24.5s-28.5 -38.833 -28.5 -67.5c0 -26.667 7.16699 -49.334 21.5 -68.001s34.833 -32 61.5 -40l91 -26c55.333 -14.667 97.833 -40.667 127.5 -78
s44.5 -83 44.5 -137c0 -41.333 -9.83301 -77.5 -29.5 -108.5s-47.167 -55.167 -82.5 -72.5s-77 -26 -125 -26z" />
    <glyph glyph-name="scedilla" unicode="&#x15f;" 
d="M208 -213l0.00195312 61.999h75c15.333 0 27.666 3.83301 36.999 11.5s14 15.834 14 24.501c0 13.333 -9.5 24.333 -28.5 33s-45.833 13 -80.5 13l35 91h64l-20 -59c18.667 -1.33301 38 -5.5 58 -12.5s36.833 -16.833 50.5 -29.5s20.5 -28.334 20.5 -47.001
c0 -23.333 -11.833 -43.666 -35.5 -60.999s-54.834 -26 -93.501 -26h-96zM280.002 -9.00098c-40.667 0 -76.165 6.5 -106.498 19.5s-54.333 31 -72 54s-27.5 50.167 -29.5 81.5h117c2 -18 11.167 -32.333 27.5 -43s37.5 -16 63.5 -16h43c32 0 56 6.33301 72 19
s24 29.667 24 51c0 20 -7.16699 35.833 -21.5 47.5s-35.833 19.5 -64.5 23.5l-70 10c-60.667 9.33301 -105.167 26.166 -133.5 50.499s-42.5 60.833 -42.5 109.5c0 51.333 16.833 91 50.5 119s83.5 42 149.5 42h38c59.333 0 106.666 -13.333 141.999 -40s55 -62.667 59 -108
h-117c-2 15.333 -10.333 27.833 -25 37.5s-34.334 14.5 -59.001 14.5h-38c-30 0 -51.833 -5.5 -65.5 -16.5s-20.5 -27.167 -20.5 -48.5c0 -19.333 6 -33.833 18 -43.5s31 -16.5 57 -20.5l72 -10c63.333 -9.33301 110 -26.833 140 -52.5s45 -63.167 45 -112.5
c0 -53.333 -17.5 -94.666 -52.5 -123.999s-87.5 -44 -157.5 -44h-43z" />
    <glyph glyph-name="Scaron" unicode="&#x160;" 
d="M302 -10c-49.333 0 -92.002 8.33301 -128.002 25s-63.833 40.334 -83.5 71.001s-29.5 66.667 -29.5 108h116c0 -31.333 11.333 -56 34 -74s53.667 -27 93 -27c36.667 0 65.667 8.83301 87 26.5s32 42.167 32 73.5c0 26 -7.33301 48.5 -22 67.5s-35.667 31.833 -63 38.5
l-88 25c-55.333 15.333 -98 41.833 -128 79.5s-45 82.5 -45 134.5c0 41.333 9.16699 77 27.5 107s44.333 53.5 78 70.5s73.5 25.5 119.5 25.5c69.333 0 124.333 -18.167 165 -54.5s61.334 -84.833 62.001 -145.5h-117c0 30 -9.66699 53.667 -29 71s-46.666 26 -81.999 26
c-34 0 -60.5 -8.16699 -79.5 -24.5s-28.5 -38.833 -28.5 -67.5c0 -26.667 7.16699 -49.334 21.5 -68.001s34.833 -32 61.5 -40l91 -26c55.333 -14.667 97.833 -40.667 127.5 -78s44.5 -83 44.5 -137c0 -41.333 -9.83301 -77.5 -29.5 -108.5s-47.167 -55.167 -82.5 -72.5
s-77 -26 -125 -26zM245.998 810l-138 140h115l78 -74l74 74h117l-138 -140h-108z" />
    <glyph glyph-name="scaron" unicode="&#x161;" 
d="M280 -9c-40.667 0 -76.165 6.5 -106.498 19.5s-54.333 31 -72 54s-27.5 50.167 -29.5 81.5h117c2 -18 11.167 -32.333 27.5 -43s37.5 -16 63.5 -16h43c32 0 56 6.33301 72 19s24 29.667 24 51c0 20 -7.16699 35.833 -21.5 47.5s-35.833 19.5 -64.5 23.5l-70 10
c-60.667 9.33301 -105.167 26.166 -133.5 50.499s-42.5 60.833 -42.5 109.5c0 51.333 16.833 91 50.5 119s83.5 42 149.5 42h38c59.333 0 106.666 -13.333 141.999 -40s55 -62.667 59 -108h-117c-2 15.333 -10.333 27.833 -25 37.5s-34.334 14.5 -59.001 14.5h-38
c-30 0 -51.833 -5.5 -65.5 -16.5s-20.5 -27.167 -20.5 -48.5c0 -19.333 6 -33.833 18 -43.5s31 -16.5 57 -20.5l72 -10c63.333 -9.33301 110 -26.833 140 -52.5s45 -63.167 45 -112.5c0 -53.333 -17.5 -94.666 -52.5 -123.999s-87.5 -44 -157.5 -44h-43zM256.002 645
l-138 140h115l78 -74l74 74h117l-138 -140h-108z" />
    <glyph glyph-name="uni0162" unicode="&#x162;" 
d="M251 -213l0.000976562 61.999h74c15.333 0 27.833 3.83301 37.5 11.5s14.5 15.834 14.5 24.501c0 13.333 -9.66699 24.333 -29 33s-46.333 13 -81 13l35 91l56 -22l-12 -37c18.667 -1.33301 38 -5.5 58 -12.5s37 -16.833 51 -29.5s21 -28.334 21 -47.001
c0 -23.333 -11.833 -43.666 -35.5 -60.999s-54.834 -26 -93.501 -26h-96zM242.001 -0.000976562v623h-194v108h504v-108h-194v-623h-116z" />
    <glyph glyph-name="uni0163" unicode="&#x163;" 
d="M258 -213l0.00195312 61.999h75c15.333 0 27.666 3.83301 36.999 11.5s14 15.834 14 24.501c0 13.333 -9.5 24.333 -28.5 33s-45.833 13 -80.5 13l35 91h64l-20 -59c18.667 -1.33301 38 -5.5 58 -12.5s36.833 -16.833 50.5 -29.5s20.5 -28.334 20.5 -47.001
c0 -23.333 -11.833 -43.666 -35.5 -60.999s-54.834 -26 -93.501 -26h-96zM360.002 -0.000976562c-51.333 0 -91.333 14.167 -120 42.5s-43 67.5 -43 117.5v285h-151v105h151v155h116v-155h214v-105h-214v-285c0 -36.667 18 -55 54 -55h150v-105h-157z" />
    <glyph glyph-name="Tcaron" unicode="&#x164;" 
d="M242 0v623h-194v108h504v-108h-194v-623h-116zM246 810l-138 140h115l78 -74l74 74h117l-138 -140h-108z" />
    <glyph glyph-name="tcaron" unicode="&#x165;" 
d="M376 620l85 156h103l-95 -156h-93zM360 0c-51.333 0 -91.333 14.167 -120 42.5s-43 67.5 -43 117.5v285h-151v105h151v155h116v-155h214v-105h-214v-285c0 -36.667 18 -55 54 -55h150v-105h-157z" />
    <glyph glyph-name="Tbar" unicode="&#x166;" 
d="M106 286v93h388v-93h-388zM242 0v623h-194v108h504v-108h-194v-623h-116z" />
    <glyph glyph-name="tbar" unicode="&#x167;" 
d="M78 231v92h404v-92h-404zM360 0c-51.333 0 -91.333 14.167 -120 42.5s-43 67.5 -43 117.5v285h-151v105h151v155h116v-155h214v-105h-214v-285c0 -36.667 18 -55 54 -55h150v-105h-157z" />
    <glyph glyph-name="Utilde" unicode="&#x168;" 
d="M300 -10c-70.667 0 -125.5 19.333 -164.5 58s-58.5 91.334 -58.5 158.001v524h116v-523c0 -36 9 -64.167 27 -84.5s44.667 -30.5 80 -30.5c34.667 0 61.167 10.167 79.5 30.5s27.5 48.5 27.5 84.5v523h116v-524c0 -66.667 -19.333 -119.334 -58 -158.001
s-93.667 -58 -165 -58zM370 808c-20.667 0 -37.3311 3.33301 -49.998 10s-23.334 14.334 -32.001 23.001s-17 16.334 -25 23.001s-17.333 10 -28 10c-8.66699 0 -15.834 -3 -21.501 -9s-8.5 -14.333 -8.5 -25v-27h-74v33c0 32 9.16699 57.667 27.5 77s42.166 29 71.499 29
c20.667 0 37.334 -3.33301 50.001 -10s23.334 -14.334 32.001 -23.001s17 -16.334 25 -23.001s17.333 -10 28 -10c9.33301 0 16.666 2.66699 21.999 8s8 13.333 8 24v29h74v-33c0 -32 -9 -57.667 -27 -77s-42 -29 -72 -29z" />
    <glyph glyph-name="utilde" unicode="&#x169;" 
d="M299 -10c-68 0 -121.833 19.333 -161.5 58s-59.5 91.334 -59.5 158.001v344h117v-343c0 -36.667 9.16699 -65 27.5 -85s43.833 -30 76.5 -30c33.333 0 59.333 10 78 30s28 48.333 28 85v343h117v-344c0 -66.667 -20.167 -119.334 -60.5 -158.001s-94.5 -58 -162.5 -58z
M370 643c-20.667 0 -37.3311 3.33301 -49.998 10s-23.334 14.334 -32.001 23.001s-17 16.334 -25 23.001s-17.333 10 -28 10c-8.66699 0 -15.834 -3 -21.501 -9s-8.5 -14.333 -8.5 -25v-27h-74v33c0 32 9.16699 57.667 27.5 77s42.166 29 71.499 29
c20.667 0 37.334 -3.33301 50.001 -10s23.334 -14.334 32.001 -23.001s17 -16.334 25 -23.001s17.333 -10 28 -10c9.33301 0 16.666 2.66699 21.999 8s8 13.333 8 24v29h74v-33c0 -32 -9 -57.667 -27 -77s-42 -29 -72 -29z" />
    <glyph glyph-name="Umacron" unicode="&#x16a;" 
d="M300 -10c-70.667 0 -125.5 19.333 -164.5 58s-58.5 91.334 -58.5 158.001v524h116v-523c0 -36 9 -64.167 27 -84.5s44.667 -30.5 80 -30.5c34.667 0 61.167 10.167 79.5 30.5s27.5 48.5 27.5 84.5v523h116v-524c0 -66.667 -19.333 -119.334 -58 -158.001
s-93.667 -58 -165 -58zM131 831v91h338v-91h-338z" />
    <glyph glyph-name="umacron" unicode="&#x16b;" 
d="M299 -10c-68 0 -121.833 19.333 -161.5 58s-59.5 91.334 -59.5 158.001v344h117v-343c0 -36.667 9.16699 -65 27.5 -85s43.833 -30 76.5 -30c33.333 0 59.333 10 78 30s28 48.333 28 85v343h117v-344c0 -66.667 -20.167 -119.334 -60.5 -158.001s-94.5 -58 -162.5 -58z
M131 663v91h338v-91h-338z" />
    <glyph glyph-name="Ubreve" unicode="&#x16c;" 
d="M300 -10c-70.667 0 -125.5 19.333 -164.5 58s-58.5 91.334 -58.5 158.001v524h116v-523c0 -36 9 -64.167 27 -84.5s44.667 -30.5 80 -30.5c34.667 0 61.167 10.167 79.5 30.5s27.5 48.5 27.5 84.5v523h116v-524c0 -66.667 -19.333 -119.334 -58 -158.001
s-93.667 -58 -165 -58zM300 803c-50.667 0 -91.834 13.5 -123.501 40.5s-47.5 62.5 -47.5 106.5h91c0 -22.667 7.16699 -41 21.5 -55s33.5 -21 57.5 -21c24.667 0 44.5 7 59.5 21s22.5 32.333 22.5 55h90c0 -44 -15.667 -79.5 -47 -106.5s-72.666 -40.5 -123.999 -40.5z" />
    <glyph glyph-name="ubreve" unicode="&#x16d;" 
d="M299 -10c-68 0 -121.833 19.333 -161.5 58s-59.5 91.334 -59.5 158.001v344h117v-343c0 -36.667 9.16699 -65 27.5 -85s43.833 -30 76.5 -30c33.333 0 59.333 10 78 30s28 48.333 28 85v343h117v-344c0 -66.667 -20.167 -119.334 -60.5 -158.001s-94.5 -58 -162.5 -58z
M300 638c-50.667 0 -91.834 13.5 -123.501 40.5s-47.5 62.5 -47.5 106.5h90c0 -22.667 7.33301 -41 22 -55s34 -21 58 -21c24.667 0 44.5 7 59.5 21s22.5 32.333 22.5 55h90c0 -44 -15.667 -79.5 -47 -106.5s-72.666 -40.5 -123.999 -40.5z" />
    <glyph glyph-name="Uring" unicode="&#x16e;" 
d="M300 -10c-70.667 0 -125.5 19.333 -164.5 58s-58.5 91.334 -58.5 158.001v524h116v-523c0 -36 9 -64.167 27 -84.5s44.667 -30.5 80 -30.5c34.667 0 61.167 10.167 79.5 30.5s27.5 48.5 27.5 84.5v523h116v-524c0 -66.667 -19.333 -119.334 -58 -158.001
s-93.667 -58 -165 -58zM300 760c-38.667 0 -69.834 11 -93.501 33s-35.5 51 -35.5 87s11.833 65 35.5 87s54.834 33 93.501 33s69.834 -11 93.501 -33s35.5 -51 35.5 -87s-11.833 -65 -35.5 -87s-54.834 -33 -93.501 -33zM300 821c18 0 32.5 5.33301 43.5 16
s16.5 25 16.5 43s-5.5 32.5 -16.5 43.5s-25.5 16.5 -43.5 16.5s-32.5 -5.5 -43.5 -16.5s-16.5 -25.5 -16.5 -43.5s5.5 -32.333 16.5 -43s25.5 -16 43.5 -16z" />
    <glyph glyph-name="uring" unicode="&#x16f;" 
d="M299 -10c-68 0 -121.833 19.333 -161.5 58s-59.5 91.334 -59.5 158.001v344h117v-343c0 -36.667 9.16699 -65 27.5 -85s43.833 -30 76.5 -30c33.333 0 59.333 10 78 30s28 48.333 28 85v343h117v-344c0 -66.667 -20.167 -119.334 -60.5 -158.001s-94.5 -58 -162.5 -58z
M300 604c-38.667 0 -69.834 11 -93.501 33s-35.5 51 -35.5 87c0 35.333 11.833 64.166 35.5 86.499s54.834 33.5 93.501 33.5s69.834 -11.167 93.501 -33.5s35.5 -51.166 35.5 -86.499c0 -36 -11.833 -65 -35.5 -87s-54.834 -33 -93.501 -33zM300 665
c18 0 32.5 5.33301 43.5 16s16.5 25 16.5 43s-5.5 32.5 -16.5 43.5s-25.5 16.5 -43.5 16.5s-32.5 -5.5 -43.5 -16.5s-16.5 -25.5 -16.5 -43.5s5.5 -32.333 16.5 -43s25.5 -16 43.5 -16z" />
    <glyph glyph-name="Uhungarumlaut" unicode="&#x170;" 
d="M300 -10c-70.667 0 -125.5 19.333 -164.5 58s-58.5 91.334 -58.5 158.001v524h116v-523c0 -36 9 -64.167 27 -84.5s44.667 -30.5 80 -30.5c34.667 0 61.167 10.167 79.5 30.5s27.5 48.5 27.5 84.5v523h116v-524c0 -66.667 -19.333 -119.334 -58 -158.001
s-93.667 -58 -165 -58zM324 810l108 140h115l-115 -140h-108zM128 810l108 140h115l-115 -140h-108z" />
    <glyph glyph-name="uhungarumlaut" unicode="&#x171;" 
d="M299 -10c-68 0 -121.833 19.333 -161.5 58s-59.5 91.334 -59.5 158.001v344h117v-343c0 -36.667 9.16699 -65 27.5 -85s43.833 -30 76.5 -30c33.333 0 59.333 10 78 30s28 48.333 28 85v343h117v-344c0 -66.667 -20.167 -119.334 -60.5 -158.001s-94.5 -58 -162.5 -58z
M324 645l108 140h115l-115 -140h-108zM128 645l108 140h115l-115 -140h-108z" />
    <glyph glyph-name="Uogonek" unicode="&#x172;" 
d="M368 -213c-38.667 0 -69.3301 9.50098 -91.9971 28.501s-34 43.167 -34 72.5c0 12 3.66699 24.833 11 38.5s17.5 27.334 30.5 41.001s27.833 25.834 44.5 36.501c-0.666992 -2 -3.33398 -4.83301 -8.00098 -8.5s-11.334 -5.5 -20.001 -5.5c-46 0 -85.667 8.66699 -119 26
s-59 42.166 -77 74.499s-27 70.166 -27 113.499v526h116v-526c0 -35.333 9.16699 -62.666 27.5 -81.999s44.833 -29 79.5 -29c35.333 0 62 9.66699 80 29s27 46.666 27 81.999v526h116v-526c0 -40 -8 -75.667 -24 -107s-38.333 -56 -67 -74l-38 -30
c-18 -15.333 -30.833 -29.833 -38.5 -43.5s-11.5 -26.167 -11.5 -37.5c0 -12.667 4.66699 -23.334 14 -32.001s21.666 -13 36.999 -13h64v-80h-91z" />
    <glyph glyph-name="uogonek" unicode="&#x173;" 
d="M366 -213c-38 0 -68.499 9.50195 -91.499 28.502s-34.5 43.167 -34.5 72.5c0 18.667 7.16699 37.667 21.5 57s38.166 40.333 71.499 63c-0.666992 -2.66699 -3 -5.33398 -7 -8.00098s-8.33301 -5 -13 -7s-9 -3 -13 -3c-68.667 0 -122.834 19.333 -162.501 58
s-59.5 90.667 -59.5 156v346h117v-346c0 -36 9 -63.667 27 -83s44 -29 78 -29c34.667 0 60.834 9.66699 78.501 29s26.5 47 26.5 83v346h117v-346c0 -39.333 -7.5 -74.333 -22.5 -105s-36.5 -55.334 -64.5 -74.001l-39 -32c-18 -16 -31.333 -30.667 -40 -44s-13 -26 -13 -38
s4.5 -22.333 13.5 -31s21.5 -13 37.5 -13h64v-80h-92z" />
    <glyph glyph-name="Wcircumflex" unicode="&#x174;" 
d="M95 0l-77.001 730h103l47 -517c0.666992 -12 1.5 -26.167 2.5 -42.5l3 -48.5c1 -16 1.5 -30 1.5 -42c1.33301 12 2.66602 26 3.99902 42s3 32.167 5 48.5s3.66699 30.5 5 42.5l62 517h102l58 -517l4.5 -42.5c1.66699 -16.333 3.5 -32.5 5.5 -48.5s3.33301 -30 4 -42
c0.666992 12 1.5 26 2.5 42s2.16699 32.167 3.5 48.5s2.33301 30.5 3 42.5l47 517h101l-81 -730h-132l-56 521c-1.33301 14 -2.66602 29 -3.99902 45l-4 48c-1.33301 16 -2.66602 29.667 -3.99902 41c-0.666992 -11.333 -1.66699 -25 -3 -41l-4 -48
c-1.33301 -16 -3 -31 -5 -45l-61 -521h-133zM107.999 810l138 140h108l138 -140h-115l-78 74l-74 -74h-117z" />
    <glyph glyph-name="wcircumflex" unicode="&#x175;" 
d="M108 0l-83.998 550h98l48 -350c2.66699 -18 5.16699 -38 7.5 -60s4.16602 -40 5.49902 -54c1.33301 14 3.66602 32 6.99902 54l9 60l54 350h94l54 -350l9 -60c3.33301 -22 5.66602 -40.333 6.99902 -55c1.33301 14.667 3.5 33 6.5 55l8.5 60l50 350h94l-87 -550h-122
l-51 349l-9 61c-3.33301 22 -5.66602 39.667 -6.99902 53c-2 -13.333 -4.5 -31 -7.5 -53l-8.5 -61l-54 -349h-122zM108.002 645l138 140h108l138 -140h-115l-78 74l-74 -74h-117z" />
    <glyph glyph-name="Ycircumflex" unicode="&#x176;" 
d="M242 0l-0.000976562 267l-216 463h121l122 -265c8.66699 -18.667 15.834 -36.667 21.501 -54s9.5 -31 11.5 -41c2 10 5.83301 23.667 11.5 41s12.5 35.333 20.5 54l119 265h121l-216 -463v-267h-116zM107.999 810l138 140h108l138 -140h-115l-78 74l-74 -74h-117z" />
    <glyph glyph-name="ycircumflex" unicode="&#x177;" 
d="M169 -180l78 211l-205 519h128l108 -296c5.33301 -14 10.5 -31 15.5 -51l12.5 -50c2.66699 13.333 6.5 30 11.5 50s9.83301 37 14.5 51l103 296h123l-266 -730h-123zM108 645l138 140h108l138 -140h-115l-78 74l-74 -74h-117z" />
    <glyph glyph-name="Ydieresis" unicode="&#x178;" 
d="M242 0l-0.000976562 267l-216 463h121l122 -265c8.66699 -18.667 15.834 -36.667 21.501 -54s9.5 -31 11.5 -41c2 10 5.83301 23.667 11.5 41s12.5 35.333 20.5 54l119 265h121l-216 -463v-267h-116zM415.999 810c-22 0 -39.333 6.33301 -52 19s-19 29.667 -19 51
c0 22 6.33301 39.333 19 52s30 19 52 19c21.333 0 38.5 -6.33301 51.5 -19s19.5 -30 19.5 -52c0 -21.333 -6.5 -38.333 -19.5 -51s-30.167 -19 -51.5 -19zM183.999 810c-21.333 0 -38.5 6.33301 -51.5 19s-19.5 29.667 -19.5 51c0 22 6.5 39.333 19.5 52s30.167 19 51.5 19
c22 0 39.333 -6.33301 52 -19s19 -30 19 -52c0 -21.333 -6.33301 -38.333 -19 -51s-30 -19 -52 -19z" />
    <glyph glyph-name="Zacute" unicode="&#x179;" 
d="M81 0v112l302 510h-296v108h422v-112l-302 -510h312v-108h-438zM229 810l105 140h126l-114 -140h-117z" />
    <glyph glyph-name="zacute" unicode="&#x17a;" 
d="M81 0v108l292 339h-283v103h418v-108l-296 -339h307v-103h-438zM229 645l105 140h126l-114 -140h-117z" />
    <glyph glyph-name="Zdotaccent" unicode="&#x17b;" 
d="M81 0v112l302 510h-296v108h422v-112l-302 -510h312v-108h-438zM300 810c-24.667 0 -44 6.33301 -58 19s-21 29.667 -21 51s7 38.333 21 51s33.333 19 58 19s44 -6.33301 58 -19s21 -29.667 21 -51s-7 -38.333 -21 -51s-33.333 -19 -58 -19z" />
    <glyph glyph-name="zdotaccent" unicode="&#x17c;" 
d="M81 0v108l292 339h-283v103h418v-108l-296 -339h307v-103h-438zM300 644c-24.667 0 -44 6.16699 -58 18.5s-21 29.166 -21 50.499c0 22 7 39.333 21 52s33.333 19 58 19s44 -6.33301 58 -19s21 -30 21 -52c0 -21.333 -7 -38.166 -21 -50.499s-33.333 -18.5 -58 -18.5z
" />
    <glyph glyph-name="Zcaron" unicode="&#x17d;" 
d="M81 0v112l302 510h-296v108h422v-112l-302 -510h312v-108h-438zM246 810l-138 140h115l78 -74l74 74h117l-138 -140h-108z" />
    <glyph glyph-name="zcaron" unicode="&#x17e;" 
d="M81 0v108l292 339h-283v103h418v-108l-296 -339h307v-103h-438zM246 645l-138 140h115l78 -74l74 74h117l-138 -140h-108z" />
    <glyph glyph-name="longs" unicode="&#x17f;" 
d="M152 0v550.999c0 54 17.167 97.333 51.5 130s80.166 49 137.499 49h180v-102h-175c-23.333 0 -42.166 -7.16699 -56.499 -21.5s-21.5 -33.166 -21.5 -56.499v-550h-116z" />
    <glyph glyph-name="uni018F" unicode="&#x18f;" 
d="M300 -10c-45.333 0 -84.668 8.83496 -118.001 26.502s-59.166 42.667 -77.499 75s-27.5 69.833 -27.5 112.5v203h330v119c0 36 -9 63.667 -27 83s-44.667 29 -80 29c-34.667 0 -61 -9.66699 -79 -29s-27 -47 -27 -83h-116c0 43.333 9 81.166 27 113.499
s43.5 57.166 76.5 74.499s72.5 26 118.5 26c47.333 0 87.5 -8.66699 120.5 -26s58.333 -42 76 -74s26.5 -70 26.5 -114v-322c0 -42.667 -9 -80.167 -27 -112.5s-43.667 -57.333 -77 -75s-73 -26.5 -119 -26.5zM299.998 83.002c38 0 65.333 10.5 82 31.5s25 50.833 25 89.5
v115h-222l8 9v-124c0 -40 8.83301 -70.167 26.5 -90.5s44.5 -30.5 80.5 -30.5z" />
    <glyph glyph-name="florin" unicode="&#x192;" 
d="M0 -180l-0.000976562 110h114c30.667 0 54.834 8.66699 72.501 26s26.5 41 26.5 71v274h-157v103h157v171c0 48 14.667 85.833 44 113.5s69.333 41.5 120 41.5h167v-102h-158c-18 0 -31.833 -4.5 -41.5 -13.5s-14.5 -22.167 -14.5 -39.5v-171h216v-103h-216v-282
c0 -39.333 -9.33301 -74 -28 -104s-44.5 -53.333 -77.5 -70s-71.5 -25 -115.5 -25h-109z" />
    <glyph glyph-name="Ohorn" unicode="&#x1a0;" 
d="M392 620l-0.000976562 80h33c10.667 0 19.167 3.16699 25.5 9.5s9.5 14.833 9.5 25.5v75h95v-78c0 -34 -11.167 -61.167 -33.5 -81.5s-52.166 -30.5 -89.499 -30.5h-40zM299.999 -10c-46 0 -85.833 8.66699 -119.5 26s-59.5 42.166 -77.5 74.499s-27 70.166 -27 113.499
v322c0 44 9 82 27 114s43.833 56.667 77.5 74s73.5 26 119.5 26c46.667 0 86.667 -8.66699 120 -26s59 -42 77 -74s27 -70 27 -114v-322c0 -43.333 -9 -81.166 -27 -113.499s-43.667 -57.166 -77 -74.499s-73.333 -26 -120 -26zM299.999 93
c35.333 0 62.1641 9.66699 80.4971 29s27.5 46.666 27.5 81.999v322c0 36 -9.16699 63.5 -27.5 82.5s-45.166 28.5 -80.499 28.5s-62.166 -9.5 -80.499 -28.5s-27.5 -46.5 -27.5 -82.5v-322c0 -35.333 9.33301 -62.666 28 -81.999s45.334 -29 80.001 -29z" />
    <glyph glyph-name="ohorn" unicode="&#x1a1;" 
d="M382 450l0.000976562 80h46c11.333 0 20 3 26 9s9 14.667 9 26v75h95v-78c0 -34 -11.333 -61.167 -34 -81.5s-52.334 -30.5 -89.001 -30.5h-53zM300.001 -9c-46 0 -85.833 8.66602 -119.5 25.999s-59.834 42.166 -78.501 74.499s-28 70.5 -28 114.5v138
c0 44 9.33301 82.167 28 114.5s44.834 57.166 78.501 74.499s73.5 26 119.5 26c46.667 0 86.667 -8.66699 120 -26s59.333 -42.166 78 -74.499s28 -70.166 28 -113.499v-139c0 -44 -9.33301 -82.167 -28 -114.5s-44.667 -57.166 -78 -74.499s-73.333 -26 -120 -26z
M300.001 92.999c34.667 0 61.667 9.66699 81 29s29 47.333 29 84v138c0 37.333 -9.66699 65.5 -29 84.5s-46.333 28.5 -81 28.5c-34 0 -60.833 -9.5 -80.5 -28.5s-29.5 -47.167 -29.5 -84.5v-138c0 -36.667 9.83301 -64.667 29.5 -84s46.5 -29 80.5 -29z" />
    <glyph glyph-name="Uhorn" unicode="&#x1af;" 
d="M440 650l-0.000976562 80h50c10.667 0 19.167 3.16699 25.5 9.5s9.5 14.833 9.5 25.5v75h95v-78c0 -34 -11.167 -61.167 -33.5 -81.5s-52.166 -30.5 -89.499 -30.5h-57zM299.999 -10c-70.667 0 -125.5 19.333 -164.5 58s-58.5 91.334 -58.5 158.001v524h116v-523
c0 -36 9 -64.167 27 -84.5s44.667 -30.5 80 -30.5c34.667 0 61.167 10.167 79.5 30.5s27.5 48.5 27.5 84.5v523h116v-524c0 -66.667 -19.333 -119.334 -58 -158.001s-93.667 -58 -165 -58z" />
    <glyph glyph-name="uhorn" unicode="&#x1b0;" 
d="M78 204l0.000976562 346h117v-347c0 -35.333 8.5 -62.666 25.5 -81.999s40.167 -29 69.5 -29c30.667 0 54.5 9.66699 71.5 29s25.5 46.666 25.5 81.999v347h99c11.333 0 20 3 26 9s9 14.667 9 26v75h94v-78c0 -34 -9.33301 -61.167 -28 -81.5
s-46.334 -30.5 -83.001 -30.5v-266c0 -66.667 -19.333 -119 -58 -157s-90.334 -57 -155.001 -57c-65.333 0 -117.166 19 -155.499 57s-57.5 90.333 -57.5 157z" />
    <glyph glyph-name="uni01CD" unicode="&#x1cd;" 
d="M39 0l185 730h152l185 -730h-118l-43 181h-200l-42 -181h-119zM221 277h157l-46 203c-8 34.667 -14.833 65.667 -20.5 93s-9.5 46.333 -11.5 57l-11 -56.5c-5.33301 -27 -12 -57.833 -20 -92.5zM246 810l-138 140h115l78 -74l74 74h117l-138 -140h-108z" />
    <glyph glyph-name="uni01CE" unicode="&#x1ce;" 
d="M242 -10c-56.667 0 -101.5 14.833 -134.5 44.5s-49.5 70.167 -49.5 121.5c0 53.333 17.833 94.666 53.5 123.999s85.167 44 148.5 44h145v49c0 28 -9 50 -27 66s-43 24 -75 24c-28.667 0 -52.5 -6.16699 -71.5 -18.5s-30.167 -29.166 -33.5 -50.499h-114
c6 50.667 29.167 91 69.5 121s91.166 45 152.499 45c66.667 0 119.334 -16.667 158.001 -50s58 -78.666 58 -135.999v-374h-114v98h-19l20 24c0 -40.667 -15.333 -72.834 -46 -96.501s-71 -35.5 -121 -35.5zM279 78c36.667 0 66.832 9.5 90.499 28.5s35.5 43.167 35.5 72.5
v70h-143c-26.667 0 -48 -7.5 -64 -22.5s-24 -35.167 -24 -60.5c0 -27.333 9.33301 -48.833 28 -64.5s44.334 -23.5 77.001 -23.5zM250.998 645l-138 140h115l78 -74l74 74h117l-138 -140h-108z" />
    <glyph glyph-name="Gcaron" unicode="&#x1e6;" 
d="M304 -10c-46 0 -86.167 8.66992 -120.5 26.0029s-60.833 42.166 -79.5 74.499s-28 70.166 -28 113.499v322c0 44 9.33301 82 28 114s45.167 56.667 79.5 74s74.5 26 120.5 26c46.667 0 86.834 -8.83301 120.501 -26.5s59.834 -42.334 78.501 -74.001s28 -69.5 28 -113.5
h-116c0 36 -9.66699 63.5 -29 82.5s-46.666 28.5 -81.999 28.5s-62.833 -9.5 -82.5 -28.5s-29.5 -46.5 -29.5 -82.5v-322c0 -35.333 9.83301 -62.833 29.5 -82.5s47.167 -29.5 82.5 -29.5s62.666 9.83301 81.999 29.5s29 47.5 29 83.5v77h-131v102h247v-180
c0 -43.333 -9.33301 -81 -28 -113s-44.834 -56.833 -78.501 -74.5s-73.834 -26.5 -120.501 -26.5zM246 810.003l-138 140h115l78 -74l74 74h117l-138 -140h-108z" />
    <glyph glyph-name="gcaron" unicode="&#x1e7;" 
d="M154 -180v99.001h166c28 0 49 6.66699 63 20s21 32.666 21 57.999v49l2 102h-26l25 24c0 -43.333 -13.167 -77.333 -39.5 -102s-61.833 -37 -106.5 -37c-56.667 0 -101.334 18.833 -134.001 56.5s-49 88.5 -49 152.5v109c0 64 16.333 114.833 49 152.5
s77.334 56.5 134.001 56.5c44.667 0 80.167 -12.333 106.5 -37s39.5 -58.667 39.5 -102l-25 24h25l-2 105h116v-555c0 -54 -17.5 -96.667 -52.5 -128s-83.167 -47 -144.5 -47h-168zM298 134.001c32.667 0 58.334 10 77.001 30s28 47.667 28 83v99
c0 35.333 -9.33301 63 -28 83s-44.334 30 -77.001 30c-34 0 -60.167 -9.83301 -78.5 -29.5s-27.5 -47.5 -27.5 -83.5v-99c0 -36 9.16699 -63.833 27.5 -83.5s44.5 -29.5 78.5 -29.5zM243 645.001l-138 140h115l78 -74l74 74h117l-138 -140h-108z" />
    <glyph glyph-name="uni01EA" unicode="&#x1ea;" 
d="M368 -213c-38.667 0 -69.3301 9.50098 -91.9971 28.501s-34 43.167 -34 72.5c0 12 3.66699 24.833 11 38.5s17.5 27.334 30.5 41.001s27.833 25.834 44.5 36.501c-0.666992 -2 -3.33398 -4.83301 -8.00098 -8.5s-11.334 -5.5 -20.001 -5.5
c-46 0 -85.833 8.66699 -119.5 26s-59.5 42.166 -77.5 74.499s-27 70.166 -27 113.499v322c0 44 9 82 27 114s43.833 56.667 77.5 74s73.5 26 119.5 26c46.667 0 86.667 -8.66699 120 -26s59 -42 77 -74s27 -70 27 -114v-322c0 -40 -8.16699 -75.667 -24.5 -107
s-38.833 -56 -67.5 -74l-38 -30c-18 -15.333 -30.833 -29.833 -38.5 -43.5s-11.5 -26.167 -11.5 -37.5c0 -12.667 4.66699 -23.334 14 -32.001s21.666 -13 36.999 -13h64v-80h-91zM300.004 93.001c35.333 0 62.1641 9.66699 80.4971 29s27.5 46.666 27.5 81.999v322
c0 36 -9.16699 63.5 -27.5 82.5s-45.166 28.5 -80.499 28.5s-62.166 -9.5 -80.499 -28.5s-27.5 -46.5 -27.5 -82.5v-322c0 -35.333 9.33301 -62.666 28 -81.999s45.334 -29 80.001 -29z" />
    <glyph glyph-name="uni01EB" unicode="&#x1eb;" 
d="M366 -213c-38 0 -68.499 9.50391 -91.499 28.5039s-34.5 43.167 -34.5 72.5c0 18.667 7.16699 37.667 21.5 57s38.166 40.333 71.499 63c-0.666992 -2.66699 -3 -5.33398 -7 -8.00098s-8.33301 -5 -13 -7s-9 -3 -13 -3c-46 0 -85.833 8.66699 -119.5 26
s-59.5 42.166 -77.5 74.499s-27 70.166 -27 113.499v142c0 44 9 82 27 114s43.833 56.667 77.5 74s73.5 26 119.5 26c46.667 0 86.667 -8.66699 120 -26s59 -42 77 -74s27 -70 27 -114v-142c0 -39.333 -7.83301 -74.333 -23.5 -105s-37.5 -55.334 -65.5 -74.001l-39 -32
c-18 -16 -31.333 -30.667 -40 -44s-13 -26 -13 -38s4.5 -22.333 13.5 -31s21.5 -13 37.5 -13h64v-80h-92zM300.001 92.0039c34.667 0 61.334 9.66699 80.001 29s28 47 28 83v142c0 36.667 -9.33301 64.5 -28 83.5s-45.334 28.5 -80.001 28.5c-34 0 -60.5 -9.5 -79.5 -28.5
s-28.5 -46.833 -28.5 -83.5v-142c0 -36 9.5 -63.667 28.5 -83s45.5 -29 79.5 -29z" />
    <glyph glyph-name="uni01F4" unicode="&#x1f4;" 
d="M304 -10c-46 0 -86.167 8.66992 -120.5 26.0029s-60.833 42.166 -79.5 74.499s-28 70.166 -28 113.499v322c0 44 9.33301 82 28 114s45.167 56.667 79.5 74s74.5 26 120.5 26c46.667 0 86.834 -8.83301 120.501 -26.5s59.834 -42.334 78.501 -74.001s28 -69.5 28 -113.5
h-116c0 36 -9.66699 63.5 -29 82.5s-46.666 28.5 -81.999 28.5s-62.833 -9.5 -82.5 -28.5s-29.5 -46.5 -29.5 -82.5v-322c0 -35.333 9.83301 -62.833 29.5 -82.5s47.167 -29.5 82.5 -29.5s62.666 9.83301 81.999 29.5s29 47.5 29 83.5v77h-131v102h247v-180
c0 -43.333 -9.33301 -81 -28 -113s-44.834 -56.833 -78.501 -74.5s-73.834 -26.5 -120.501 -26.5zM229 810.003l105 140h126l-114 -140h-117z" />
    <glyph glyph-name="uni01F5" unicode="&#x1f5;" 
d="M154 -180v99.001h166c28 0 49 6.66699 63 20s21 32.666 21 57.999v49l2 102h-26l25 24c0 -43.333 -13.167 -77.333 -39.5 -102s-61.833 -37 -106.5 -37c-56.667 0 -101.334 18.833 -134.001 56.5s-49 88.5 -49 152.5v109c0 64 16.333 114.833 49 152.5
s77.334 56.5 134.001 56.5c44.667 0 80.167 -12.333 106.5 -37s39.5 -58.667 39.5 -102l-25 24h25l-2 105h116v-555c0 -54 -17.5 -96.667 -52.5 -128s-83.167 -47 -144.5 -47h-168zM298 134.001c32.667 0 58.334 10 77.001 30s28 47.667 28 83v99
c0 35.333 -9.33301 63 -28 83s-44.334 30 -77.001 30c-34 0 -60.167 -9.83301 -78.5 -29.5s-27.5 -47.5 -27.5 -83.5v-99c0 -36 9.16699 -63.833 27.5 -83.5s44.5 -29.5 78.5 -29.5zM230 645.001l105 140h126l-114 -140h-117z" />
    <glyph glyph-name="AEacute" unicode="&#x1fc;" 
d="M17 0l141 730h416v-101h-174v-202h149v-104h-149v-222h174v-101h-277v186h-132l-34 -186h-114zM180 274h117v355h-53zM234 810l105 140h126l-114 -140h-117z" />
    <glyph glyph-name="aeacute" unicode="&#x1fd;" 
d="M171 -10c-41.333 0 -74.335 13.1689 -99.002 39.502s-37 61.166 -37 104.499v56c0 41.333 14.5 74.5 43.5 99.5s67.167 37.5 114.5 37.5h61v77c0 23.333 -4.66699 40.833 -14 52.5s-23.666 17.5 -42.999 17.5c-17.333 0 -31.166 -5.5 -41.499 -16.5
s-15.5 -26.5 -15.5 -46.5h-98c0 44.667 12.667 80.667 38 108s58.666 41 99.999 41c26 0 47.5 -4.16699 64.5 -12.5s29.833 -18.5 38.5 -30.5s14 -23.667 16 -35h6c2 11.333 7.16699 23 15.5 35s20.833 22.167 37.5 30.5s37.334 12.5 62.001 12.5c44.667 0 80 -14 106 -42
s39 -66 39 -114v-151h-216v-107c0 -21.333 5.33301 -38.333 16 -51s24.667 -19 42 -19c18.667 0 33.334 5.16699 44.001 15.5s16 24.5 16 42.5h98c0 -42.667 -13.333 -77.334 -40 -104.001s-61.667 -40 -105 -40c-24.667 0 -45.334 4.16699 -62.001 12.5
s-29.167 18.5 -37.5 30.5s-13.5 23.667 -15.5 35h-6c-2 -11.333 -7.83301 -23 -17.5 -35s-23.5 -22.167 -41.5 -30.5s-41 -12.5 -69 -12.5zM193.998 76.002c18 0 32.5 6.33301 43.5 19s16.5 29.667 16.5 51v107h-60c-18 0 -32.167 -5.5 -42.5 -16.5s-15.5 -26.5 -15.5 -46.5
v-56c0 -18 5.16699 -32.167 15.5 -42.5s24.5 -15.5 42.5 -15.5zM348.998 327.002h118.001v77c0 22 -5.33301 39.167 -16 51.5s-25.334 18.5 -44.001 18.5c-18 0 -32.167 -6.16699 -42.5 -18.5s-15.5 -29.5 -15.5 -51.5v-77zM228.999 645.002l105 140h126l-114 -140h-117z
" />
    <glyph glyph-name="Oslashacute" unicode="&#x1fe;" 
d="M26 -40l449 790h99l-449 -790h-99zM300 -10c-46 0 -85.833 8.66699 -119.5 26s-59.5 42.166 -77.5 74.499s-27 70.166 -27 113.499v322c0 44 9 82 27 114s43.833 56.667 77.5 74s73.5 26 119.5 26c46.667 0 86.667 -8.66699 120 -26s59 -42 77 -74s27 -70 27 -114v-322
c0 -43.333 -9 -81.166 -27 -113.499s-43.667 -57.166 -77 -74.499s-73.333 -26 -120 -26zM300 93c35.333 0 62.5 9.66699 81.5 29s28.5 46.666 28.5 81.999v322c0 36 -9.5 63.5 -28.5 82.5s-46.167 28.5 -81.5 28.5s-62.5 -9.5 -81.5 -28.5s-28.5 -46.5 -28.5 -82.5v-322
c0 -35.333 9.5 -62.666 28.5 -81.999s46.167 -29 81.5 -29zM229 810l105 140h126l-114 -140h-117z" />
    <glyph glyph-name="oslashacute" unicode="&#x1ff;" 
d="M31 -30l437 620h101l-437 -620h-101zM300 -10c-46 0 -85.833 8.66699 -119.5 26s-59.5 42.166 -77.5 74.499s-27 70.166 -27 113.499v142c0 44 9 82 27 114s43.833 56.667 77.5 74s73.5 26 119.5 26c46.667 0 86.667 -8.66699 120 -26s59 -42 77 -74s27 -70 27 -114v-142
c0 -43.333 -9 -81.166 -27 -113.499s-43.667 -57.166 -77 -74.499s-73.333 -26 -120 -26zM300 92c36 0 64.167 10 84.5 30s30.5 47.333 30.5 82v142c0 35.333 -10.167 62.833 -30.5 82.5s-48.5 29.5 -84.5 29.5s-64.167 -9.83301 -84.5 -29.5s-30.5 -47.167 -30.5 -82.5
v-142c0 -34.667 10.167 -62 30.5 -82s48.5 -30 84.5 -30zM229 645l105 140h126l-114 -140h-117z" />
    <glyph glyph-name="uni0218" unicode="&#x218;" 
d="M302 -10c-49.333 0 -92.002 8.33301 -128.002 25s-63.833 40.334 -83.5 71.001s-29.5 66.667 -29.5 108h116c0 -31.333 11.333 -56 34 -74s53.667 -27 93 -27c36.667 0 65.667 8.83301 87 26.5s32 42.167 32 73.5c0 26 -7.33301 48.5 -22 67.5s-35.667 31.833 -63 38.5
l-88 25c-55.333 15.333 -98 41.833 -128 79.5s-45 82.5 -45 134.5c0 41.333 9.16699 77 27.5 107s44.333 53.5 78 70.5s73.5 25.5 119.5 25.5c69.333 0 124.333 -18.167 165 -54.5s61.334 -84.833 62.001 -145.5h-117c0 30 -9.66699 53.667 -29 71s-46.666 26 -81.999 26
c-34 0 -60.5 -8.16699 -79.5 -24.5s-28.5 -38.833 -28.5 -67.5c0 -26.667 7.16699 -49.334 21.5 -68.001s34.833 -32 61.5 -40l91 -26c55.333 -14.667 97.833 -40.667 127.5 -78s44.5 -83 44.5 -137c0 -41.333 -9.83301 -77.5 -29.5 -108.5s-47.167 -55.167 -82.5 -72.5
s-77 -26 -125 -26zM182.998 -240l95 145h125l-109 -145h-111z" />
    <glyph glyph-name="uni0219" unicode="&#x219;" 
d="M280 -9c-40.667 0 -76.165 6.5 -106.498 19.5s-54.333 31 -72 54s-27.5 50.167 -29.5 81.5h117c2 -18 11.167 -32.333 27.5 -43s37.5 -16 63.5 -16h43c32 0 56 6.33301 72 19s24 29.667 24 51c0 20 -7.16699 35.833 -21.5 47.5s-35.833 19.5 -64.5 23.5l-70 10
c-60.667 9.33301 -105.167 26.166 -133.5 50.499s-42.5 60.833 -42.5 109.5c0 51.333 16.833 91 50.5 119s83.5 42 149.5 42h38c59.333 0 106.666 -13.333 141.999 -40s55 -62.667 59 -108h-117c-2 15.333 -10.333 27.833 -25 37.5s-34.334 14.5 -59.001 14.5h-38
c-30 0 -51.833 -5.5 -65.5 -16.5s-20.5 -27.167 -20.5 -48.5c0 -19.333 6 -33.833 18 -43.5s31 -16.5 57 -20.5l72 -10c63.333 -9.33301 110 -26.833 140 -52.5s45 -63.167 45 -112.5c0 -53.333 -17.5 -94.666 -52.5 -123.999s-87.5 -44 -157.5 -44h-43zM177.002 -240
l95 145h125l-109 -145h-111z" />
    <glyph glyph-name="uni021A" unicode="&#x21a;" 
d="M242 0v623h-194v108h504v-108h-194v-623h-116zM146 -240l95 145h125l-109 -145h-111z" />
    <glyph glyph-name="uni021B" unicode="&#x21b;" 
d="M360 0c-51.333 0 -91.333 14.167 -120 42.5s-43 67.5 -43 117.5v285h-151v105h151v155h116v-155h214v-105h-214v-285c0 -36.667 18 -55 54 -55h150v-105h-157zM183 -240l95 145h125l-109 -145h-111z" />
    <glyph glyph-name="uni0232" unicode="&#x232;" 
d="M242 0l-0.000976562 267l-216 463h121l122 -265c8.66699 -18.667 15.834 -36.667 21.501 -54s9.5 -31 11.5 -41c2 10 5.83301 23.667 11.5 41s12.5 35.333 20.5 54l119 265h121l-216 -463v-267h-116zM130.999 831v91h338v-91h-338z" />
    <glyph glyph-name="uni0233" unicode="&#x233;" 
d="M169 -180l78 211l-205 519h128l108 -296c5.33301 -14 10.5 -31 15.5 -51l12.5 -50c2.66699 13.333 6.5 30 11.5 50s9.83301 37 14.5 51l103 296h123l-266 -730h-123zM131 663v91h338v-91h-338z" />
    <glyph glyph-name="uni0237" unicode="&#x237;" 
d="M83 -180v108h143c34.667 0 61.667 9.5 81 28.5s29 45.833 29 80.5v405h-223v108h340v-515c0 -66 -20 -118.333 -60 -157s-94.333 -58 -163 -58h-147z" />
    <glyph glyph-name="uni0259" unicode="&#x259;" 
d="M300 -10c-46 0 -85.6689 8.83301 -119.002 26.5s-59 42.667 -77 75s-27 69.833 -27 112.5v99h334v43c0 39.333 -9.33301 69.333 -28 90s-46.667 31 -84 31c-30 0 -53.5 -5.33301 -70.5 -16s-28.167 -25.667 -33.5 -45h-115c8.66699 46.667 32.834 84 72.501 112
s88.834 42 147.501 42c46 0 85.667 -8.83301 119 -26.5s59 -42.667 77 -75s27 -69.833 27 -112.5v-142c0 -42.667 -9 -80.167 -27 -112.5s-43.667 -57.333 -77 -75s-73 -26.5 -119 -26.5zM299.998 83c37.333 0 65.168 10.5 83.501 31.5s27.5 50.833 27.5 89.5v23h-230l8 9
v-32c0 -38.667 9.16699 -68.5 27.5 -89.5s46.166 -31.5 83.499 -31.5z" />
    <glyph glyph-name="uni02B9" unicode="&#x2b9;" 
d="M154 410l80 311h152l-130 -311h-102z" />
    <glyph glyph-name="uni02BA" unicode="&#x2ba;" 
d="M323 409l80 311h152l-130 -311h-102zM48 409l80 311h152l-130 -311h-102z" />
    <glyph glyph-name="uni02BC" unicode="&#x2bc;" 
d="M154 465l80 311h152l-130 -311h-102z" />
    <glyph glyph-name="circumflex" unicode="&#x2c6;" 
d="M108 645l138 140h108l138 -140h-115l-78 74l-74 -74h-117z" />
    <glyph glyph-name="caron" unicode="&#x2c7;" 
d="M246 645l-138 140h115l78 -74l74 74h117l-138 -140h-108z" />
    <glyph glyph-name="uni02C9" unicode="&#x2c9;" 
d="M131 663v91h338v-91h-338z" />
    <glyph glyph-name="breve" unicode="&#x2d8;" 
d="M300 638c-50.667 0 -91.834 13.5 -123.501 40.5s-47.5 62.5 -47.5 106.5h90c0 -22.667 7.33301 -41 22 -55s34 -21 58 -21c24.667 0 44.5 7 59.5 21s22.5 32.333 22.5 55h90c0 -44 -15.667 -79.5 -47 -106.5s-72.666 -40.5 -123.999 -40.5z" />
    <glyph glyph-name="dotaccent" unicode="&#x2d9;" 
d="M300 644c-24.667 0 -44 6.16699 -58 18.5s-21 29.166 -21 50.499c0 22 7 39.333 21 52s33.333 19 58 19s44 -6.33301 58 -19s21 -30 21 -52c0 -21.333 -7 -38.166 -21 -50.499s-33.333 -18.5 -58 -18.5z" />
    <glyph glyph-name="ring" unicode="&#x2da;" 
d="M300 604c-38.667 0 -69.834 11 -93.501 33s-35.5 51 -35.5 87c0 35.333 11.833 64.166 35.5 86.499s54.834 33.5 93.501 33.5s69.834 -11.167 93.501 -33.5s35.5 -51.166 35.5 -86.499c0 -36 -11.833 -65 -35.5 -87s-54.834 -33 -93.501 -33zM300 665
c18 0 32.5 5.33301 43.5 16s16.5 25 16.5 43s-5.5 32.5 -16.5 43.5s-25.5 16.5 -43.5 16.5s-32.5 -5.5 -43.5 -16.5s-16.5 -25.5 -16.5 -43.5s5.5 -32.333 16.5 -43s25.5 -16 43.5 -16z" />
    <glyph glyph-name="ogonek" unicode="&#x2db;" 
d="M302 -213c-38.667 0 -69.332 9.5 -91.999 28.5s-34 43.167 -34 72.5c0 20.667 8 41.5 24 62.5s40.333 40.833 73 59.5h80l-21 -17c-18 -16 -31.5 -30.667 -40.5 -44s-13.5 -26 -13.5 -38s4.66699 -22.333 14 -31s21.666 -13 36.999 -13h64v-80h-91z" />
    <glyph glyph-name="tilde" unicode="&#x2dc;" 
d="M370 643c-20.667 0 -37.3311 3.33301 -49.998 10s-23.334 14.334 -32.001 23.001s-17 16.334 -25 23.001s-17.333 10 -28 10c-8.66699 0 -15.834 -3 -21.501 -9s-8.5 -14.333 -8.5 -25v-27h-74v33c0 32 9.16699 57.667 27.5 77s42.166 29 71.499 29
c20.667 0 37.334 -3.33301 50.001 -10s23.334 -14.334 32.001 -23.001s17 -16.334 25 -23.001s17.333 -10 28 -10c9.33301 0 16.666 2.66699 21.999 8s8 13.333 8 24v29h74v-33c0 -32 -9 -57.667 -27 -77s-42 -29 -72 -29z" />
    <glyph glyph-name="hungarumlaut" unicode="&#x2dd;" 
d="M324 645l108 140h115l-115 -140h-108zM128 645l108 140h115l-115 -140h-108z" />
    <glyph glyph-name="uni02F3" unicode="&#x2f3;" 
d="M300 -254c-37.333 0 -67.333 9.33301 -90 28s-34 43.334 -34 74.001s11.333 55.334 34 74.001s52.667 28 90 28s67.333 -9.33301 90 -28s34 -43.334 34 -74.001s-11.333 -55.334 -34 -74.001s-52.667 -28 -90 -28zM299 -202c18.667 0 33.5 4.5 44.5 13.5
s16.5 21.167 16.5 36.5c0 16 -5.33301 28.333 -16 37s-25.667 13 -45 13c-17.333 0 -31.5 -4.5 -42.5 -13.5s-16.5 -21.167 -16.5 -36.5s5.5 -27.5 16.5 -36.5s25.167 -13.5 42.5 -13.5z" />
    <glyph glyph-name="uni02F7" unicode="&#x2f7;" 
d="M370 -223c-20.667 0 -37.3311 3.16895 -49.998 9.50195s-23.334 14 -32.001 23s-17 16.667 -25 23s-17.333 9.5 -28 9.5c-8.66699 0 -15.834 -2.83301 -21.501 -8.5s-8.5 -14.167 -8.5 -25.5v-26h-74v32c0 32 9.16699 57.667 27.5 77s42.166 29 71.499 29
c20.667 0 37.334 -3.33301 50.001 -10s23.334 -14.334 32.001 -23.001s17 -16.334 25 -23.001s17.333 -10 28 -10c9.33301 0 16.666 2.83301 21.999 8.5s8 13.5 8 23.5v29h74v-32c0 -32 -9 -57.667 -27 -77s-42 -29 -72 -29z" />
    <glyph glyph-name="gravecomb" unicode="&#x300;" horiz-adv-x="0" 
d="M284 645l-116 140h129l107 -140h-120z" />
    <glyph glyph-name="acutecomb" unicode="&#x301;" horiz-adv-x="0" 
d="M199 645l105 140h126l-114 -140h-117z" />
    <glyph glyph-name="uni0302" unicode="&#x302;" horiz-adv-x="0" 
d="M108 645l138 140h108l138 -140h-115l-78 74l-74 -74h-117z" />
    <glyph glyph-name="tildecomb" unicode="&#x303;" horiz-adv-x="0" 
d="M370 643c-20.667 0 -37.3311 3.33301 -49.998 10s-23.334 14.334 -32.001 23.001s-17 16.334 -25 23.001s-17.333 10 -28 10c-8.66699 0 -15.834 -3 -21.501 -9s-8.5 -14.333 -8.5 -25v-27h-74v33c0 32 9.16699 57.667 27.5 77s42.166 29 71.499 29
c20.667 0 37.334 -3.33301 50.001 -10s23.334 -14.334 32.001 -23.001s17 -16.334 25 -23.001s17.333 -10 28 -10c9.33301 0 16.666 2.66699 21.999 8s8 13.333 8 24v29h74v-33c0 -32 -9 -57.667 -27 -77s-42 -29 -72 -29z" />
    <glyph glyph-name="uni0304" unicode="&#x304;" horiz-adv-x="0" 
d="M131 663v91h338v-91h-338z" />
    <glyph glyph-name="uni0306" unicode="&#x306;" horiz-adv-x="0" 
d="M300 638c-50.667 0 -91.834 13.5 -123.501 40.5s-47.5 62.5 -47.5 106.5h90c0 -22.667 7.33301 -41 22 -55s34 -21 58 -21c24.667 0 44.5 7 59.5 21s22.5 32.333 22.5 55h90c0 -44 -15.667 -79.5 -47 -106.5s-72.666 -40.5 -123.999 -40.5z" />
    <glyph glyph-name="uni0307" unicode="&#x307;" horiz-adv-x="0" 
d="M300 644c-24.667 0 -44 6.16699 -58 18.5s-21 29.166 -21 50.499c0 22 7 39.333 21 52s33.333 19 58 19s44 -6.33301 58 -19s21 -30 21 -52c0 -21.333 -7 -38.166 -21 -50.499s-33.333 -18.5 -58 -18.5z" />
    <glyph glyph-name="uni0308" unicode="&#x308;" horiz-adv-x="0" 
d="M416 644c-22 0 -39.333 6.16699 -52 18.5s-19 29.166 -19 50.499c0 22 6.33301 39.333 19 52s30 19 52 19c21.333 0 38.5 -6.33301 51.5 -19s19.5 -30 19.5 -52c0 -21.333 -6.5 -38.166 -19.5 -50.499s-30.167 -18.5 -51.5 -18.5zM184 644
c-21.333 0 -38.5 6.16699 -51.5 18.5s-19.5 29.166 -19.5 50.499c0 22 6.5 39.333 19.5 52s30.167 19 51.5 19c22 0 39.333 -6.33301 52 -19s19 -30 19 -52c0 -21.333 -6.33301 -38.166 -19 -50.499s-30 -18.5 -52 -18.5z" />
    <glyph glyph-name="hookabovecomb" unicode="&#x309;" horiz-adv-x="0" 
d="M251 645l50 61c9.33301 12 14 22 14 30c0 12.667 -9.66699 19 -29 19h-80v74h105c28 0 50.5 -7.16699 67.5 -21.5s25.5 -33.5 25.5 -57.5c0 -22 -6.33301 -41 -19 -57l-38 -48h-96z" />
    <glyph glyph-name="uni030A" unicode="&#x30a;" horiz-adv-x="0" 
d="M300 604c-38.667 0 -69.834 11 -93.501 33s-35.5 51 -35.5 87c0 35.333 11.833 64.166 35.5 86.499s54.834 33.5 93.501 33.5s69.834 -11.167 93.501 -33.5s35.5 -51.166 35.5 -86.499c0 -36 -11.833 -65 -35.5 -87s-54.834 -33 -93.501 -33zM300 665
c18 0 32.5 5.33301 43.5 16s16.5 25 16.5 43s-5.5 32.5 -16.5 43.5s-25.5 16.5 -43.5 16.5s-32.5 -5.5 -43.5 -16.5s-16.5 -25.5 -16.5 -43.5s5.5 -32.333 16.5 -43s25.5 -16 43.5 -16z" />
    <glyph glyph-name="uni030B" unicode="&#x30b;" horiz-adv-x="0" 
d="M324 645l108 140h115l-115 -140h-108zM128 645l108 140h115l-115 -140h-108z" />
    <glyph glyph-name="uni030C" unicode="&#x30c;" horiz-adv-x="0" 
d="M246 645l-138 140h115l78 -74l74 74h117l-138 -140h-108z" />
    <glyph glyph-name="uni030F" unicode="&#x30f;" horiz-adv-x="0" 
d="M276 645h-108l-115 140h115zM472 645h-108l-115 140h115z" />
    <glyph glyph-name="uni0312" unicode="&#x312;" horiz-adv-x="0" 
d="M426 880l-80 -235h-145l130 235h95z" />
    <glyph glyph-name="uni031B" unicode="&#x31b;" horiz-adv-x="0" 
d="M-120 470l0.000976562 80h41c11.333 0 20 3 26 9s9 14.667 9 26v75h95v-78c0 -34 -11.333 -61.167 -34 -81.5s-52.334 -30.5 -89.001 -30.5h-48z" />
    <glyph glyph-name="dotbelowcomb" unicode="&#x323;" horiz-adv-x="0" 
d="M300 -222c-24.667 0 -44 6.33301 -58 19s-21 29.667 -21 51s7 38.5 21 51.5s33.333 19.5 58 19.5s44 -6.5 58 -19.5s21 -30.167 21 -51.5s-7 -38.333 -21 -51s-33.333 -19 -58 -19z" />
    <glyph glyph-name="uni0325" unicode="&#x325;" horiz-adv-x="0" 
d="M300 -254c-37.333 0 -67.333 9.33301 -90 28s-34 43.334 -34 74.001s11.333 55.334 34 74.001s52.667 28 90 28s67.333 -9.33301 90 -28s34 -43.334 34 -74.001s-11.333 -55.334 -34 -74.001s-52.667 -28 -90 -28zM299 -202c18.667 0 33.5 4.5 44.5 13.5
s16.5 21.167 16.5 36.5c0 16 -5.33301 28.333 -16 37s-25.667 13 -45 13c-17.333 0 -31.5 -4.5 -42.5 -13.5s-16.5 -21.167 -16.5 -36.5s5.5 -27.5 16.5 -36.5s25.167 -13.5 42.5 -13.5z" />
    <glyph glyph-name="uni0326" unicode="&#x326;" horiz-adv-x="0" 
d="M183 -240l95 145h125l-109 -145h-111z" />
    <glyph glyph-name="uni0327" unicode="&#x327;" horiz-adv-x="0" 
d="M198 -213l0.00195312 61.999h75c15.333 0 27.666 3.83301 36.999 11.5s14 15.834 14 24.501c0 13.333 -9.5 24.333 -28.5 33s-45.833 13 -80.5 13l35 91h64l-20 -59c18.667 -1.33301 38 -5.5 58 -12.5s36.833 -16.833 50.5 -29.5s20.5 -28.334 20.5 -47.001
c0 -23.333 -11.833 -43.666 -35.5 -60.999s-54.834 -26 -93.501 -26h-96z" />
    <glyph glyph-name="uni0328" unicode="&#x328;" horiz-adv-x="0" 
d="M302 -213c-38.667 0 -69.332 9.5 -91.999 28.5s-34 43.167 -34 72.5c0 20.667 8 41.5 24 62.5s40.333 40.833 73 59.5h80l-21 -17c-18 -16 -31.5 -30.667 -40.5 -44s-13.5 -26 -13.5 -38s4.66699 -22.333 14 -31s21.666 -13 36.999 -13h64v-80h-91z" />
    <glyph glyph-name="uni0336" unicode="&#x336;" horiz-adv-x="0" 
d="M-630 277v88h660v-88h-660z" />
    <glyph glyph-name="uni0338" unicode="&#x338;" horiz-adv-x="0" 
d="M118 -60l289 840h75l-289 -840h-75z" />
    <glyph glyph-name="uni0374" unicode="&#x374;" 
d="M154 410l80 311h152l-130 -311h-102z" />
    <glyph glyph-name="uni0375" unicode="&#x375;" 
d="M154 -160l80 311h152l-130 -311h-102z" />
    <glyph glyph-name="uni037E" unicode="&#x37e;" 
d="M159 -160l80 311h152l-130 -311h-102zM290 397c-24 0 -43.667 7.66699 -59 23s-23 34.666 -23 57.999s7.83301 42.833 23.5 58.5s35.167 23.5 58.5 23.5h20c23.333 0 42.833 -7.83301 58.5 -23.5s23.5 -35.167 23.5 -58.5s-7.66699 -42.666 -23 -57.999s-35 -23 -59 -23
h-20z" />
    <glyph glyph-name="tonos" unicode="&#x384;" 
d="M199 645l105 140h126l-114 -140h-117z" />
    <glyph glyph-name="dieresistonos" unicode="&#x385;" 
d="M248 781l77 131h102l-87 -131h-92zM416 644c-22 0 -39.333 6.16699 -52 18.5s-19 29.166 -19 50.499c0 22 6.33301 39.333 19 52s30 19 52 19c21.333 0 38.5 -6.33301 51.5 -19s19.5 -30 19.5 -52c0 -21.333 -6.5 -38.166 -19.5 -50.499s-30.167 -18.5 -51.5 -18.5z
M184 644c-21.333 0 -38.5 6.16699 -51.5 18.5s-19.5 29.166 -19.5 50.499c0 22 6.5 39.333 19.5 52s30.167 19 51.5 19c22 0 39.333 -6.33301 52 -19s19 -30 19 -52c0 -21.333 -6.33301 -38.166 -19 -50.499s-30 -18.5 -52 -18.5z" />
    <glyph glyph-name="Alphatonos" unicode="&#x386;" 
d="M39 0l185 730h152l185 -730h-118l-43 181h-200l-42 -181h-119zM221 277h157l-46 203c-8 34.667 -14.833 65.667 -20.5 93s-9.5 46.333 -11.5 57l-11 -56.5c-5.33301 -27 -12 -57.833 -20 -92.5zM-10 570l57 160h111l-65 -160h-103z" />
    <glyph glyph-name="anoteleia" unicode="&#x387;" 
d="M300 256c-28 0 -50.167 8.16699 -66.5 24.5s-24.5 38.166 -24.5 65.499c0 28 8.16699 50.333 24.5 67s38.5 25 66.5 25s50.167 -8.33301 66.5 -25s24.5 -39 24.5 -67c0 -27.333 -8.16699 -49.166 -24.5 -65.499s-38.5 -24.5 -66.5 -24.5z" />
    <glyph glyph-name="Epsilontonos" unicode="&#x388;" 
d="M91 0v730h433v-102h-318v-199h283v-102h-283v-225h318v-102h-433zM-128 570l57 160h111l-65 -160h-103z" />
    <glyph glyph-name="Etatonos" unicode="&#x389;" 
d="M-128 570l57 160h111l-65 -160h-103zM81 0v730h117v-298h204v298h117v-730h-117v324h-204v-324h-117z" />
    <glyph glyph-name="Iotatonos" unicode="&#x38a;" 
d="M-128 570l57 160h111l-65 -160h-103zM94 0v103h147v524h-147v103h412v-103h-147v-524h147v-103h-412z" />
    <glyph glyph-name="Omicrontonos" unicode="&#x38c;" 
d="M-96 570l57 160h111l-65 -160h-103zM300 -10c-46 0 -85.833 8.66699 -119.5 26s-59.5 42.166 -77.5 74.499s-27 70.166 -27 113.499v322c0 44 9 82 27 114s43.833 56.667 77.5 74s73.5 26 119.5 26c46.667 0 86.667 -8.66699 120 -26s59 -42 77 -74s27 -70 27 -114v-322
c0 -43.333 -9 -81.166 -27 -113.499s-43.667 -57.166 -77 -74.499s-73.333 -26 -120 -26zM300 93c35.333 0 62.1641 9.66699 80.4971 29s27.5 46.666 27.5 81.999v322c0 36 -9.16699 63.5 -27.5 82.5s-45.166 28.5 -80.499 28.5s-62.166 -9.5 -80.499 -28.5
s-27.5 -46.5 -27.5 -82.5v-322c0 -35.333 9.33301 -62.666 28 -81.999s45.334 -29 80.001 -29z" />
    <glyph glyph-name="Upsilontonos" unicode="&#x38e;" 
d="M-152 570l57 160h111l-65 -160h-103zM242 0l-0.000976562 267l-216 463h121l122 -265c8.66699 -18.667 15.834 -36.667 21.501 -54s9.5 -31 11.5 -41c2 10 5.83301 23.667 11.5 41s12.5 35.333 20.5 54l119 265h121l-216 -463v-267h-116z" />
    <glyph glyph-name="Omegatonos" unicode="&#x38f;" 
d="M50 0v107.001h145v5c-18 2 -37.167 8.83301 -57.5 20.5s-37.333 29 -51 52s-20.5 52.167 -20.5 87.5v249c0 44.667 9.66699 83.334 29 116.001s46.5 58 81.5 76s76.167 27 123.5 27c48 0 89.333 -9 124 -27s61.667 -43.333 81 -76s29 -71.334 29 -116.001v-249
c0 -35.333 -6.83301 -64.333 -20.5 -87s-30.5 -39.834 -50.5 -51.501s-39.333 -18.5 -58 -20.5v-6h146v-107h-211v163c23.333 0 42.166 9.66699 56.499 29s21.5 44.333 21.5 75v254c0 36 -10.667 64.5 -32 85.5s-50 31.5 -86 31.5c-35.333 0 -63.833 -10.5 -85.5 -31.5
s-32.5 -49.5 -32.5 -85.5v-254c0 -30.667 7.33301 -55.667 22 -75s33.334 -29 56.001 -29v-163h-210zM-96 570.001l57 160h111l-65 -160h-103z" />
    <glyph glyph-name="iotadieresistonos" unicode="&#x390;" 
d="M417 0c-35.333 0 -66.167 7.16699 -92.5 21.5s-46.833 34.5 -61.5 60.5s-22 56.333 -22 91v272h-193v105h310v-377c0 -20.667 6 -37.167 18 -49.5s27.667 -18.5 47 -18.5h131v-105h-137zM247.999 781l77 131h102l-87 -131h-92zM415.999 644
c-22 0 -39.333 6.16699 -52 18.5s-19 29.166 -19 50.499c0 22 6.33301 39.333 19 52s30 19 52 19c21.333 0 38.5 -6.33301 51.5 -19s19.5 -30 19.5 -52c0 -21.333 -6.5 -38.166 -19.5 -50.499s-30.167 -18.5 -51.5 -18.5zM183.999 644c-21.333 0 -38.5 6.16699 -51.5 18.5
s-19.5 29.166 -19.5 50.499c0 22 6.5 39.333 19.5 52s30.167 19 51.5 19c22 0 39.333 -6.33301 52 -19s19 -30 19 -52c0 -21.333 -6.33301 -38.166 -19 -50.499s-30 -18.5 -52 -18.5z" />
    <glyph glyph-name="Alpha" unicode="&#x391;" 
d="M39 0l185 730h152l185 -730h-118l-43 181h-200l-42 -181h-119zM221 277h157l-46 203c-8 34.667 -14.833 65.667 -20.5 93s-9.5 46.333 -11.5 57l-11 -56.5c-5.33301 -27 -12 -57.833 -20 -92.5z" />
    <glyph glyph-name="Beta" unicode="&#x392;" 
d="M81 0l-0.000976562 729.999h219c70 0 125.333 -16.667 166 -50s61 -79.333 61 -138c0 -32.667 -7.33301 -61.167 -22 -85.5s-34.667 -43.166 -60 -56.499s-54.333 -20 -87 -20v7c36 0.666992 67.833 -6 95.5 -20s49.5 -34.667 65.5 -62s24 -60 24 -98
c0 -42 -9.33301 -78.667 -28 -110s-45.167 -55.333 -79.5 -72s-75.166 -25 -122.499 -25h-232zM193.999 98.999h111c37.333 0 67 10 89 30s33 47.667 33 83c0 36 -11 64.833 -33 86.5s-51.667 32.5 -89 32.5h-111v-232zM193.999 426.999l104.999 0.000976562
c34.667 0 61.834 9.16699 81.501 27.5s29.5 43.166 29.5 74.499c0 32 -9.83301 57 -29.5 75s-46.5 27 -80.5 27h-106v-204z" />
    <glyph glyph-name="Gamma" unicode="&#x393;" 
d="M103 0v730h434v-108h-317v-622h-117z" />
    <glyph glyph-name="uni0394" unicode="&#x394;" 
d="M39 0l184.998 730h152l185 -730h-119l-112 480c-6.66699 28 -12.667 56 -18 84s-9.66602 49.667 -12.999 65c-2.66699 -15.333 -6.66699 -36.833 -12 -64.5s-11.666 -55.5 -18.999 -83.5l-111 -481h-118zM131.998 0v102h345v-102h-345z" />
    <glyph glyph-name="Epsilon" unicode="&#x395;" 
d="M91 0v730h433v-102h-318v-199h283v-102h-283v-225h318v-102h-433z" />
    <glyph glyph-name="Zeta" unicode="&#x396;" 
d="M81 0v112l302 510h-296v108h422v-112l-302 -510h312v-108h-438z" />
    <glyph glyph-name="Eta" unicode="&#x397;" 
d="M81 0v730h117v-298h204v298h117v-730h-117v324h-204v-324h-117z" />
    <glyph glyph-name="Theta" unicode="&#x398;" 
d="M218 323v107h164v-107h-164zM300 -10c-46 0 -85.833 8.66699 -119.5 26s-59.5 42.166 -77.5 74.499s-27 70.166 -27 113.499v322c0 44 9 82 27 114s43.833 56.667 77.5 74s73.5 26 119.5 26c46.667 0 86.667 -8.66699 120 -26s59 -42 77 -74s27 -70 27 -114v-322
c0 -43.333 -9 -81.166 -27 -113.499s-43.667 -57.166 -77 -74.499s-73.333 -26 -120 -26zM300 93c35.333 0 62.1641 9.66699 80.4971 29s27.5 46.666 27.5 81.999v322c0 36 -9.16699 63.5 -27.5 82.5s-45.166 28.5 -80.499 28.5s-62.166 -9.5 -80.499 -28.5
s-27.5 -46.5 -27.5 -82.5v-322c0 -35.333 9.33301 -62.666 28 -81.999s45.334 -29 80.001 -29z" />
    <glyph glyph-name="Iota" unicode="&#x399;" 
d="M94 0v103h147v524h-147v103h412v-103h-147v-524h147v-103h-412z" />
    <glyph glyph-name="Kappa" unicode="&#x39a;" 
d="M80 0v730h117v-300h91l144 300h126l-167 -350l176 -380h-131l-149 325h-90v-325h-117z" />
    <glyph glyph-name="Lambda" unicode="&#x39b;" 
d="M39 0l185.002 730.001h152l185 -730h-119l-112 480c-6 26 -11.333 50.167 -16 72.5s-8.33398 40.666 -11.001 54.999l-4 21.5l-3.5 -21c-2.33301 -14 -5.83301 -32.333 -10.5 -55s-10.334 -46.667 -17.001 -72l-111 -481h-118z" />
    <glyph glyph-name="Mu" unicode="&#x39c;" 
d="M61 0v729.997h141l72 -233c7.33301 -22.667 13.333 -43.834 18 -63.501s8 -34.167 10 -43.5c2 9.33301 5.33301 23.833 10 43.5s10.334 40.834 17.001 63.501l69 233h141v-730h-110v236c0 32.667 1 68.334 3 107.001s4.5 77.667 7.5 117s6.33301 76.833 10 112.5
l9.5 92.5l-103 -349h-110l-105 349c3.33301 -25.333 6.66602 -55.166 9.99902 -89.499s6.5 -71 9.5 -110s5.5 -78.167 7.5 -117.5s3 -76.666 3 -111.999v-236h-110z" />
    <glyph glyph-name="Nu" unicode="&#x39d;" 
d="M77 0l-0.00195312 729.999h144l208 -598c-1.33301 20 -3.16602 43.833 -5.49902 71.5s-4.16602 56.334 -5.49902 86.001s-2 56.167 -2 79.5v361h107v-730h-144l-207 598c2 -18 3.83301 -40.333 5.5 -67s3.16699 -54.167 4.5 -82.5s2 -54.5 2 -78.5v-370h-107z" />
    <glyph glyph-name="Xi" unicode="&#x39e;" 
d="M73 622v108h454v-108h-454zM73 0v108h454v-108h-454zM103 316v108h394v-108h-394z" />
    <glyph glyph-name="Omicron" unicode="&#x39f;" 
d="M300 -10c-46 0 -85.833 8.66699 -119.5 26s-59.5 42.166 -77.5 74.499s-27 70.166 -27 113.499v322c0 44 9 82 27 114s43.833 56.667 77.5 74s73.5 26 119.5 26c46.667 0 86.667 -8.66699 120 -26s59 -42 77 -74s27 -70 27 -114v-322c0 -43.333 -9 -81.166 -27 -113.499
s-43.667 -57.166 -77 -74.499s-73.333 -26 -120 -26zM300 93c35.333 0 62.1641 9.66699 80.4971 29s27.5 46.666 27.5 81.999v322c0 36 -9.16699 63.5 -27.5 82.5s-45.166 28.5 -80.499 28.5s-62.166 -9.5 -80.499 -28.5s-27.5 -46.5 -27.5 -82.5v-322
c0 -35.333 9.33301 -62.666 28 -81.999s45.334 -29 80.001 -29z" />
    <glyph glyph-name="Pi" unicode="&#x3a0;" 
d="M82 0v730h436v-730h-116v622h-204v-622h-116z" />
    <glyph glyph-name="Rho" unicode="&#x3a1;" 
d="M80 0v729.998h242c48 0 89.667 -9.16699 125 -27.5s62.833 -44.166 82.5 -77.499s29.5 -72.666 29.5 -117.999c0 -44 -9.83301 -82.833 -29.5 -116.5s-47.167 -59.667 -82.5 -78s-77 -27.5 -125 -27.5h-125v-285h-117zM197 389.998l125 0.000976562
c36 0 64.833 10.667 86.5 32s32.5 49.666 32.5 84.999c0 36.667 -10.833 65.5 -32.5 86.5s-50.5 31.5 -86.5 31.5h-125v-235z" />
    <glyph glyph-name="Sigma" unicode="&#x3a3;" 
d="M55 0v108l303 257l-303 257v108h485v-106h-270l-72 3l253 -205v-111l-258 -208l72 3h275v-106h-485z" />
    <glyph glyph-name="Tau" unicode="&#x3a4;" 
d="M242 0v623h-194v108h504v-108h-194v-623h-116z" />
    <glyph glyph-name="Upsilon" unicode="&#x3a5;" 
d="M242 0l-0.000976562 267l-216 463h121l122 -265c8.66699 -18.667 15.834 -36.667 21.501 -54s9.5 -31 11.5 -41c2 10 5.83301 23.667 11.5 41s12.5 35.333 20.5 54l119 265h121l-216 -463v-267h-116z" />
    <glyph glyph-name="Phi" unicode="&#x3a6;" 
d="M250 -25l-0.000976562 70c-40.667 0 -76.667 8.83301 -108 26.5s-55.666 42.5 -72.999 74.5s-26 69.333 -26 112v226c0 44 8.66699 82 26 114s41.5 57 72.5 75s67.167 27 108.5 27v70h100v-70c41.333 0 77.5 -9 108.5 -27s55.167 -43 72.5 -75s26 -70 26 -114v-226
c0 -42.667 -8.66699 -80 -26 -112s-41.5 -56.833 -72.5 -74.5s-67.167 -26.5 -108.5 -26.5v-70h-100zM252.999 139v468.001c-21.333 0 -40.166 -5 -56.499 -15s-28.833 -24.167 -37.5 -42.5s-13 -40.166 -13 -65.499v-226c0 -24.667 4.33301 -45.834 13 -63.501
s21.167 -31.334 37.5 -41.001s35.166 -14.5 56.499 -14.5zM346.999 139.001c22 0 41 4.83203 57 14.499s28.333 23.334 37 41.001s13 38.834 13 63.501v226c0 25.333 -4.33301 47.166 -13 65.499s-21 32.5 -37 42.5s-35 15 -57 15v-468z" />
    <glyph glyph-name="Chi" unicode="&#x3a7;" 
d="M31 0l204.001 373.002l-192 357h131l97 -191c6.66699 -12.667 12.834 -25.334 18.501 -38.001s9.83398 -22.334 12.501 -29.001l12 29c5.33301 12.667 11.333 25.334 18 38.001l99 191h126l-192 -354l204 -376h-131l-108 209c-6.66699 12.667 -12.834 25.5 -18.501 38.5
l-13.5 30.5c-2.66699 -7.33301 -6.83398 -17.333 -12.501 -30s-11.834 -25.334 -18.501 -38.001l-109 -210h-127z" />
    <glyph glyph-name="Psi" unicode="&#x3a8;" 
d="M250 0l0.000976562 170c-41.333 0.666992 -77.5 9.83398 -108.5 27.501s-55.167 42.334 -72.5 74.001s-26 68.834 -26 111.501v347h103v-347c0 -24.667 4.33301 -45.834 13 -63.501s21.167 -31.334 37.5 -41.001s35.166 -14.5 56.499 -14.5v466h94v-466
c22 0 41 4.83301 57 14.5s28.333 23.334 37 41.001s13 38.834 13 63.501v347h103v-347c0 -42.667 -8.66699 -79.834 -26 -111.501s-41.333 -56.334 -72 -74.001s-67 -26.834 -109 -27.501v-170h-100z" />
    <glyph glyph-name="uni03A9" unicode="&#x3a9;" 
d="M50 0v107.001h145v5c-18 2 -37.167 8.83301 -57.5 20.5s-37.333 29 -51 52s-20.5 52.167 -20.5 87.5v249c0 44.667 9.66699 83.334 29 116.001s46.5 58 81.5 76s76.167 27 123.5 27c48 0 89.333 -9 124 -27s61.667 -43.333 81 -76s29 -71.334 29 -116.001v-249
c0 -35.333 -6.83301 -64.333 -20.5 -87s-30.5 -39.834 -50.5 -51.501s-39.333 -18.5 -58 -20.5v-6h146v-107h-211v163c23.333 0 42.166 9.66699 56.499 29s21.5 44.333 21.5 75v254c0 36 -10.667 64.5 -32 85.5s-50 31.5 -86 31.5c-35.333 0 -63.833 -10.5 -85.5 -31.5
s-32.5 -49.5 -32.5 -85.5v-254c0 -30.667 7.33301 -55.667 22 -75s33.334 -29 56.001 -29v-163h-210z" />
    <glyph glyph-name="Iotadieresis" unicode="&#x3aa;" 
d="M94 0v103h147v524h-147v103h412v-103h-147v-524h147v-103h-412zM416 810c-22 0 -39.333 6.33301 -52 19s-19 29.667 -19 51c0 22 6.33301 39.333 19 52s30 19 52 19c21.333 0 38.5 -6.33301 51.5 -19s19.5 -30 19.5 -52c0 -21.333 -6.5 -38.333 -19.5 -51
s-30.167 -19 -51.5 -19zM184 810c-21.333 0 -38.5 6.33301 -51.5 19s-19.5 29.667 -19.5 51c0 22 6.5 39.333 19.5 52s30.167 19 51.5 19c22 0 39.333 -6.33301 52 -19s19 -30 19 -52c0 -21.333 -6.33301 -38.333 -19 -51s-30 -19 -52 -19z" />
    <glyph glyph-name="Upsilondieresis" unicode="&#x3ab;" 
d="M242 0l-0.000976562 267l-216 463h121l122 -265c8.66699 -18.667 15.834 -36.667 21.501 -54s9.5 -31 11.5 -41c2 10 5.83301 23.667 11.5 41s12.5 35.333 20.5 54l119 265h121l-216 -463v-267h-116zM415.999 810c-22 0 -39.333 6.33301 -52 19s-19 29.667 -19 51
c0 22 6.33301 39.333 19 52s30 19 52 19c21.333 0 38.5 -6.33301 51.5 -19s19.5 -30 19.5 -52c0 -21.333 -6.5 -38.333 -19.5 -51s-30.167 -19 -51.5 -19zM183.999 810c-21.333 0 -38.5 6.33301 -51.5 19s-19.5 29.667 -19.5 51c0 22 6.5 39.333 19.5 52s30.167 19 51.5 19
c22 0 39.333 -6.33301 52 -19s19 -30 19 -52c0 -21.333 -6.33301 -38.333 -19 -51s-30 -19 -52 -19z" />
    <glyph glyph-name="alphatonos" unicode="&#x3ac;" 
d="M257 -10c-55.333 0 -99.166 18.833 -131.499 56.5s-48.5 88.5 -48.5 152.5v152c0 64 16.167 114.833 48.5 152.5s76.166 56.5 131.499 56.5c45.333 0 81 -12.667 107 -38s39 -60 39 -104l-24 27h25v105h114v-550h-114v105h-25l24 27c0 -44 -13 -78.667 -39 -104
s-61.667 -38 -107 -38zM298 91c32.667 0 58.167 10 76.5 30s27.5 47.667 27.5 83v142c0 35.333 -9.16699 63 -27.5 83s-43.833 30 -76.5 30c-34 0 -60 -9.66699 -78 -29s-27 -47.333 -27 -84v-142c0 -36 9 -63.833 27 -83.5s44 -29.5 78 -29.5zM221 645l106 140h125
l-113 -140h-118z" />
    <glyph glyph-name="epsilontonos" unicode="&#x3ad;" 
d="M327 -7l-52.001 -0.00390625c-63.333 0 -113.833 14.5 -151.5 43.5s-56.5 68.167 -56.5 117.5c0 41.333 12.667 73.666 38 96.999s62 36 110 38v-2c-42 1.33301 -75 12.833 -99 34.5s-36 49.834 -36 84.501c0 30.667 8 57.334 24 80.001s39 40.167 69 52.5
s65.333 18.5 106 18.5h48c57.333 0 105 -14 143 -42s60.667 -65 68 -111h-117c-4.66699 16.667 -15.334 30.334 -32.001 41.001s-37.334 16 -62.001 16h-48c-17.333 0 -31.833 -2.66699 -43.5 -8s-20.667 -12.666 -27 -21.999s-9.5 -21.333 -9.5 -36
c0 -20.667 6.83301 -37 20.5 -49s33.834 -18 60.501 -18h120v-94h-125c-28.667 0 -50.667 -6.5 -66 -19.5s-23 -30.833 -23 -53.5c0 -21.333 8 -38.666 24 -51.999s37.667 -20 65 -20h52c26.667 0 48.834 5 66.501 15s28.834 23 33.501 39h117
c-7.33301 -46 -30.5 -82.5 -69.5 -109.5s-88.167 -40.5 -147.5 -40.5zM212.999 644.996l105 140h126l-114 -140h-117z" />
    <glyph glyph-name="etatonos" unicode="&#x3ae;" 
d="M80 0l0.000976562 550h115v-105h30l-30 -27c0 44.667 13.167 79.5 39.5 104.5s62.166 37.5 107.499 37.5c54.667 0 98.334 -17.667 131.001 -53s49 -83.333 49 -144v-543h-117v531c0 34.667 -9.16699 61.5 -27.5 80.5s-43.5 28.5 -75.5 28.5
c-32.667 0 -58.334 -10 -77.001 -30s-28 -48 -28 -84v-346h-117zM234.001 645l105 140h126l-114 -140h-117z" />
    <glyph glyph-name="iotatonos" unicode="&#x3af;" 
d="M417 0c-35.333 0 -66.167 7.16699 -92.5 21.5s-46.833 34.5 -61.5 60.5s-22 56.333 -22 91v272h-193v105h310v-377c0 -20.667 6 -37.167 18 -49.5s27.667 -18.5 47 -18.5h131v-105h-137zM210.999 645l105 140h126l-114 -140h-117z" />
    <glyph glyph-name="upsilondieresistonos" unicode="&#x3b0;" 
d="M299 -10c-68 0 -121.833 19.333 -161.5 58s-59.5 91.334 -59.5 158.001v344h117v-343c0 -36.667 9.16699 -65 27.5 -85s43.833 -30 76.5 -30c33.333 0 59.333 10 78 30s28 48.333 28 85v343h117v-344c0 -66.667 -20.167 -119.334 -60.5 -158.001s-94.5 -58 -162.5 -58z
M248 781l77 131h102l-87 -131h-92zM416 644c-22 0 -39.333 6.16699 -52 18.5s-19 29.166 -19 50.499c0 22 6.33301 39.333 19 52s30 19 52 19c21.333 0 38.5 -6.33301 51.5 -19s19.5 -30 19.5 -52c0 -21.333 -6.5 -38.166 -19.5 -50.499s-30.167 -18.5 -51.5 -18.5zM184 644
c-21.333 0 -38.5 6.16699 -51.5 18.5s-19.5 29.166 -19.5 50.499c0 22 6.5 39.333 19.5 52s30.167 19 51.5 19c22 0 39.333 -6.33301 52 -19s19 -30 19 -52c0 -21.333 -6.33301 -38.166 -19 -50.499s-30 -18.5 -52 -18.5z" />
    <glyph glyph-name="alpha" unicode="&#x3b1;" 
d="M257 -10c-55.333 0 -99.166 18.833 -131.499 56.5s-48.5 88.5 -48.5 152.5v152c0 64 16.167 114.833 48.5 152.5s76.166 56.5 131.499 56.5c45.333 0 81 -12.667 107 -38s39 -60 39 -104l-24 27h25v105h114v-550h-114v105h-25l24 27c0 -44 -13 -78.667 -39 -104
s-61.667 -38 -107 -38zM298 91c32.667 0 58.167 10 76.5 30s27.5 47.667 27.5 83v142c0 35.333 -9.16699 63 -27.5 83s-43.833 30 -76.5 30c-34 0 -60 -9.66699 -78 -29s-27 -47.333 -27 -84v-142c0 -36 9 -63.833 27 -83.5s44 -29.5 78 -29.5z" />
    <glyph glyph-name="beta" unicode="&#x3b2;" 
d="M78 -180l0.000976562 705.999c0 42.667 9.16699 80.167 27.5 112.5s44.166 57.333 77.499 75s72.333 26.5 117 26.5c46 0 86.167 -7.66699 120.5 -23s61.166 -37 80.499 -65s29 -62 29 -102c0 -41.333 -10.667 -76 -32 -104s-51.666 -47 -90.999 -57
c42 -10.667 75.167 -31.667 99.5 -63s36.5 -70.666 36.5 -117.999c0 -40.667 -9.5 -76.667 -28.5 -108s-45.667 -55.833 -80 -73.5s-74.5 -26.5 -120.5 -26.5h-126v-180h-110zM188.001 100.999l118.001 -0.00195312c36.667 0 65.334 10.333 86.001 31s31 48.334 31 83.001
c0 35.333 -10.333 62.833 -31 82.5s-49.334 29.5 -86.001 29.5h-45v93h43c33.333 0 59.333 10 78 30s28 46 28 78c0 34.667 -9.83301 61.834 -29.5 81.501s-46.834 29.5 -81.501 29.5c-34 0 -61 -10 -81 -30s-30 -47.667 -30 -83v-425z" />
    <glyph glyph-name="gamma" unicode="&#x3b3;" 
d="M242 -180l-0.00195312 180l-197 550h120l108 -340c4.66699 -14.667 8.83398 -28.834 12.501 -42.501l9.5 -36.5c2.66699 -10.667 4.5 -19.167 5.5 -25.5l1.5 -9.5l2 9.5l5.5 25.5c2.33301 10.667 5.33301 22.834 9 36.501s7.83398 27.5 12.501 41.5l105 341h119
l-196 -550v-180h-117z" />
    <glyph glyph-name="delta" unicode="&#x3b4;" 
d="M57 221c0 41.333 8.33398 78.165 25.001 110.498s39.5 58 68.5 77s62.5 28.5 100.5 28.5c16.667 0 31.834 -2 45.501 -6s23.834 -9.66699 30.501 -17l5 4l-230 210v102h385v-96h-258l202 -181c17.333 -14.667 34.5 -33.167 51.5 -55.5s31.167 -48.166 42.5 -77.499
s17 -61.666 17 -96.999c0 -44.667 -10.333 -84.667 -31 -120s-49.334 -63 -86.001 -83s-78.334 -30 -125.001 -30c-47.333 0 -89.333 9.83301 -126 29.5s-65.334 47 -86.001 82s-31 74.833 -31 119.5zM176.001 225.999c0 -26 5.16699 -49.167 15.5 -69.5
s24.833 -36.166 43.5 -47.499s40 -17 64 -17c24.667 0 46.334 5.66699 65.001 17s33.334 27.166 44.001 47.499s16 43.5 16 69.5s-5.33301 49.5 -16 70.5s-25.334 37.5 -44.001 49.5s-40.334 18 -65.001 18c-24 0 -45.333 -6 -64 -18s-33.167 -28.5 -43.5 -49.5
s-15.5 -44.5 -15.5 -70.5z" />
    <glyph glyph-name="epsilon" unicode="&#x3b5;" 
d="M327 -7l-52.001 -0.00390625c-63.333 0 -113.833 14.5 -151.5 43.5s-56.5 68.167 -56.5 117.5c0 41.333 12.667 73.666 38 96.999s62 36 110 38v-2c-42 1.33301 -75 12.833 -99 34.5s-36 49.834 -36 84.501c0 30.667 8 57.334 24 80.001s39 40.167 69 52.5
s65.333 18.5 106 18.5h48c57.333 0 105 -14 143 -42s60.667 -65 68 -111h-117c-4.66699 16.667 -15.334 30.334 -32.001 41.001s-37.334 16 -62.001 16h-48c-17.333 0 -31.833 -2.66699 -43.5 -8s-20.667 -12.666 -27 -21.999s-9.5 -21.333 -9.5 -36
c0 -20.667 6.83301 -37 20.5 -49s33.834 -18 60.501 -18h120v-94h-125c-28.667 0 -50.667 -6.5 -66 -19.5s-23 -30.833 -23 -53.5c0 -21.333 8 -38.666 24 -51.999s37.667 -20 65 -20h52c26.667 0 48.834 5 66.501 15s28.834 23 33.501 39h117
c-7.33301 -46 -30.5 -82.5 -69.5 -109.5s-88.167 -40.5 -147.5 -40.5z" />
    <glyph glyph-name="zeta" unicode="&#x3b6;" 
d="M56 190c0 24 3.33301 47.167 10 69.5s17.667 45.333 33 69s35.5 49.5 60.5 77.5s55.667 59.667 92 95l127.5 121h-294v108h424v-110l-167 -166c-32.667 -32.667 -60 -61.334 -82 -86.001s-39.333 -47 -52 -67s-21.667 -38.5 -27 -55.5s-8 -33.833 -8 -50.5
c0 -29.333 8.5 -52.166 25.5 -68.499s40.833 -24.5 71.5 -24.5h125c54.667 0 94.5 -10.5 119.5 -31.5s35.5 -58.5 31.5 -112.5l-12 -138h-116l11 129c3.33301 34 -13.667 51 -51 51h-108c-68.667 0 -121.5 16.5 -158.5 49.5s-55.5 79.833 -55.5 140.5z" />
    <glyph glyph-name="eta" unicode="&#x3b7;" 
d="M80 0l0.000976562 550h115v-105h30l-30 -27c0 44.667 13.167 79.5 39.5 104.5s62.166 37.5 107.499 37.5c54.667 0 98.334 -17.667 131.001 -53s49 -83.333 49 -144v-543h-117v531c0 34.667 -9.16699 61.5 -27.5 80.5s-43.5 28.5 -75.5 28.5
c-32.667 0 -58.334 -10 -77.001 -30s-28 -48 -28 -84v-346h-117z" />
    <glyph glyph-name="theta" unicode="&#x3b8;" 
d="M300 -10c-46 0 -85.833 8.66699 -119.5 26s-59.5 42.166 -77.5 74.499s-27 70.166 -27 113.499v312c0 44 9 82 27 114s43.833 56.667 77.5 74s73.5 26 119.5 26c46.667 0 86.667 -8.66699 120 -26s59 -42 77 -74s27 -70 27 -114v-312c0 -43.333 -9 -81.166 -27 -113.499
s-43.667 -57.166 -77 -74.499s-73.333 -26 -120 -26zM300 92c34.667 0 61.334 9.66699 80.001 29s28 47 28 83v312c0 36.667 -9.33301 64.5 -28 83.5s-45.334 28.5 -80.001 28.5c-34 0 -60.5 -9.5 -79.5 -28.5s-28.5 -46.833 -28.5 -83.5v-312c0 -36 9.5 -63.667 28.5 -83
s45.5 -29 79.5 -29zM164 411h269v-99h-269v99z" />
    <glyph glyph-name="iota" unicode="&#x3b9;" 
d="M417 0c-35.333 0 -66.167 7.16699 -92.5 21.5s-46.833 34.5 -61.5 60.5s-22 56.333 -22 91v272h-193v105h310v-377c0 -20.667 6 -37.167 18 -49.5s27.667 -18.5 47 -18.5h131v-105h-137z" />
    <glyph glyph-name="kappa" unicode="&#x3ba;" 
d="M85 0v550h116v-219h85l140 219h132l-171 -265l174 -285h-134l-141 232h-85v-232h-116z" />
    <glyph glyph-name="lambda" unicode="&#x3bb;" 
d="M39 0l212.999 543l-74 187h123l260 -730h-124l-105 330c-6 20 -11.167 40.167 -15.5 60.5s-7.16602 36.5 -8.49902 48.5c-2 -12 -5.33301 -28 -10 -48s-10.667 -40.333 -18 -61l-115 -330h-126z" />
    <glyph glyph-name="uni03BC" unicode="&#x3bc;" 
d="M80 -180v729.999h117v-347c0 -35.333 8.83301 -62.666 26.5 -81.999s42.834 -29 75.501 -29c33.333 0 59 9.66699 77 29s27 46.666 27 81.999v347h117v-347c0 -66 -18.5 -118 -55.5 -156s-87.833 -57 -152.5 -57c-30.667 0 -56.667 4.5 -78 13.5s-38 20 -50 33
s-19.667 25.5 -23 37.5h-7c0.666992 0 2.66699 -5 6 -15s6.66602 -21.667 9.99902 -35s5.33301 -25.666 6 -36.999l15 -167h-111z" />
    <glyph glyph-name="nu" unicode="&#x3bd;" 
d="M225 0l-182.002 550h119l109 -343c6.66699 -20.667 12.834 -41.5 18.501 -62.5s9.83398 -37.5 12.501 -49.5l13.5 49.5l16.5 62.5l107 343h118l-181 -550h-151z" />
    <glyph glyph-name="xi" unicode="&#x3be;" 
d="M54 207c0 48.667 12 88.6689 36 120.002s58.333 53 103 65c-39.333 11.333 -70 31.666 -92 60.999s-33 64.333 -33 105c0 56.667 20.833 101.334 62.5 134.001s98.167 49 169.5 49c50 0 93.167 -8.33301 129.5 -25s64.333 -40.334 84 -71.001s29.5 -67 29.5 -109h-117
c0 31.333 -11 56.333 -33 75s-51.333 28 -88 28c-37.333 0 -67 -8.83301 -89 -26.5s-33 -42.5 -33 -74.5c0 -31.333 11 -57.833 33 -79.5s51.667 -32.5 89 -32.5h96v-106h-96c-42 0 -74.333 -9.33301 -97 -28s-34 -45.667 -34 -81c0 -34.667 11.333 -61.334 34 -80.001
s55 -28 97 -28h100c54.667 0 94.5 -10.5 119.5 -31.5s35.167 -58.5 30.5 -112.5l-11 -138h-117l12 129c3.33301 34 -13.667 51 -51 51h-83c-81.333 0 -143.5 18.167 -186.5 54.5s-64.5 86.833 -64.5 151.5z" />
    <glyph glyph-name="omicron" unicode="&#x3bf;" 
d="M300 -9c-46 0 -85.833 8.66602 -119.5 25.999s-59.834 42.166 -78.501 74.499s-28 70.5 -28 114.5v138c0 44 9.33301 82.167 28 114.5s44.834 57.166 78.501 74.499s73.5 26 119.5 26c46.667 0 86.667 -8.66699 120 -26s59.333 -42.166 78 -74.499
s28 -70.166 28 -113.499v-139c0 -44 -9.33301 -82.167 -28 -114.5s-44.667 -57.166 -78 -74.499s-73.333 -26 -120 -26zM300 92.999c34.667 0 61.667 9.66699 81 29s29 47.333 29 84v138c0 37.333 -9.66699 65.5 -29 84.5s-46.333 28.5 -81 28.5
c-34 0 -60.833 -9.5 -80.5 -28.5s-29.5 -47.167 -29.5 -84.5v-138c0 -36.667 9.83301 -64.667 29.5 -84s46.5 -29 80.5 -29z" />
    <glyph glyph-name="pi" unicode="&#x3c0;" 
d="M536 -5c-54.667 0 -98.166 16.667 -130.499 50s-48.5 78 -48.5 134v270h-147v-449h-115v449h-77v101h545v-99h-92v-273c0 -24 6.16699 -42.667 18.5 -56s29.166 -20 50.499 -20h24v-107h-28z" />
    <glyph glyph-name="rho" unicode="&#x3c1;" 
d="M82 -180l0.00195312 531c0 42.667 9 79.667 27 111s43.667 55.5 77 72.5s72.333 25.5 117 25.5c45.333 0 84.333 -8.5 117 -25.5s58 -41 76 -72s27 -68.167 27 -111.5v-152c0 -42 -7.33301 -78.833 -22 -110.5s-35.334 -56 -62.001 -73s-58.667 -25.5 -96 -25.5
c-44.667 0 -80.334 12.667 -107.001 38s-40 60 -40 104l25 -27h-26l3 -129v-156h-116zM302.002 91c34 0 60 9.83301 78 29.5s27 47.5 27 83.5v142c0 36.667 -9 64.667 -27 84s-44 29 -78 29c-33.333 0 -59 -9.66699 -77 -29s-27 -47.333 -27 -84v-142
c0 -35.333 9.33301 -63 28 -83s44 -30 76 -30z" />
    <glyph glyph-name="uni03C2" unicode="&#x3c2;" 
d="M76 210v135.999c0 44 9.33301 82 28 114s45 56.667 79 74s74.333 26 121 26c45.333 0 84.833 -8 118.5 -24s60 -38.5 79 -67.5s28.5 -64.167 28.5 -105.5h-116c0 30 -10.167 53.333 -30.5 70s-46.833 25 -79.5 25c-35.333 0 -62.833 -9.66699 -82.5 -29
s-29.5 -47 -29.5 -83v-132c0 -36.667 9.83301 -64.5 29.5 -83.5s47.167 -28.5 82.5 -28.5h102c54.667 0 94.5 -10.5 119.5 -31.5s35.167 -58.5 30.5 -112.5l-11 -138h-117l12 129c3.33301 34 -13.667 51 -51 51h-85c-70 0 -125.5 18.333 -166.5 55
s-61.5 88.334 -61.5 155.001z" />
    <glyph glyph-name="sigma" unicode="&#x3c3;" 
d="M76 204v137c0 44 9 82 27 114s43.833 56.833 77.5 74.5s73.5 26.5 119.5 26.5h241v-103h-119v-25l-36 29c21.333 0 40.5 -4.33301 57.5 -13s31.5 -20 43.5 -34s21.167 -29.333 27.5 -46s9.5 -33 9.5 -49v-111c0 -43.333 -9 -81.166 -27 -113.499
s-43.667 -57.166 -77 -74.499s-73.333 -26 -120 -26c-46 0 -85.833 8.66699 -119.5 26s-59.5 42.166 -77.5 74.499s-27 70.166 -27 113.499zM192 204c0 -36 9.5 -63.667 28.5 -83s45.5 -29 79.5 -29c34.667 0 61.334 9.66699 80.001 29s28 47 28 83v137
c0 40 -9.33301 68.667 -28 86s-45.334 26 -80.001 26c-34 0 -60.5 -9.5 -79.5 -28.5s-28.5 -46.833 -28.5 -83.5v-137z" />
    <glyph glyph-name="tau" unicode="&#x3c4;" 
d="M385 0c-51.333 0 -91.333 14.167 -120 42.5s-43 67.5 -43 117.5v285h-174v105h481v-105h-191v-285c0 -36.667 18 -55 54 -55h127v-105h-134z" />
    <glyph glyph-name="upsilon" unicode="&#x3c5;" 
d="M299 -10c-68 0 -121.833 19.333 -161.5 58s-59.5 91.334 -59.5 158.001v344h117v-343c0 -36.667 9.16699 -65 27.5 -85s43.833 -30 76.5 -30c33.333 0 59.333 10 78 30s28 48.333 28 85v343h117v-344c0 -66.667 -20.167 -119.334 -60.5 -158.001s-94.5 -58 -162.5 -58z
" />
    </font>
</defs>
</svg>
