<?xml version="1.0" standalone="no"?>
<!DOCTYPE svg PUBLIC "-//W3C//DTD SVG 1.1//EN" "http://www.w3.org/Graphics/SVG/1.1/DTD/svg11.dtd" >
<svg>
<metadata>
Created by FontForge 20090914 at Mon Feb  8 15:03:11 2021
 By www-data
Copyright 2011 The Balsamiq Sans Project Authors (https://github.com/balsamiq/balsamiqsans)
</metadata>
<defs>
<font id="BalsamiqSans-Italic" horiz-adv-x="0" >
  <font-face 
    font-family="Balsamiq Sans"
    font-weight="400"
    font-style="italic"
    font-stretch="normal"
    units-per-em="1000"
    panose-1="2 0 6 3 0 0 0 0 0 0"
    ascent="800"
    descent="-200"
    x-height="527.999"
    cap-height="713.001"
    bbox="-323 -249.894 1352.09 1137"
    underline-thickness="50"
    underline-position="-50"
    slope="-12"
    unicode-range="U+000D-U+FB02"
  />
<missing-glyph horiz-adv-x="465" 
d="M186 666h265l-141 -666h-265zM284 33l127 600h-199l-127 -600h199z" />
    <glyph glyph-name="fi" unicode="fi" horiz-adv-x="485" 
d="M74 0c-15.333 0.666992 -26.832 6.16602 -34.499 16.499s-10.167 24.833 -7.5 43.5c8.66699 54 24.667 138 48 252l6 31l15 76h-8c-16 0 -27.5 4.66699 -34.5 14s-9.16699 21.333 -6.5 36c2.66699 14 9.33398 26 20.001 36s23 15 37 15h18
c13.333 68 39.833 120.833 79.5 158.5s89.167 56.5 148.5 56.5c48.667 0 86.334 -7 113.001 -21s37.667 -32 33 -54c-3.33301 -17.333 -11.333 -31.333 -24 -42s-26.667 -16 -42 -16c-7.33301 0 -14 1.16699 -20 3.5s-12.333 5.5 -19 9.5s-13.334 7.66699 -20.001 11
c-14.667 7.33301 -32.667 11 -54 11c-18 0 -31.5 -2.5 -40.5 -7.5s-16.833 -12.167 -23.5 -21.5c-12.667 -17.333 -23 -46.666 -31 -87.999h43c15.333 0 26.5 -4.83301 33.5 -14.5s8.83301 -21.5 5.5 -35.5s-10.5 -25.833 -21.5 -35.5s-24.167 -14.5 -39.5 -14.5h-47
l-16 -76l-6 -29l-25.5 -127.5c-9 -46.333 -16.167 -88.833 -21.5 -127.5c-2.66699 -17.333 -9.33398 -31.833 -20.001 -43.5s-23.334 -17.167 -38.001 -16.5v0zM323.001 -1.00098c-16 0 -27.835 5.16797 -35.502 15.501s-10.167 24.5 -7.5 42.5
c0.666992 3.33301 2.33398 10.666 5.00098 21.999c8 36 11.667 53 11 51c6 30.667 14 66.667 24 108l9 40l45 203c3.33301 15.333 11 27.5 23 36.5s24.667 13.5 38 13.5s24 -4.5 32 -13.5s10.333 -21.167 7 -36.5l-45 -202l-33 -147c-2 -8 -3.66699 -15.833 -5 -23.5
l-4 -22.5c-1.33301 -6 -2.5 -12 -3.5 -18s-2.16699 -11.667 -3.5 -17c-3.33301 -15.333 -10.166 -27.833 -20.499 -37.5s-22.5 -14.5 -36.5 -14.5v0z" />
    <glyph glyph-name="fl" unicode="fl" horiz-adv-x="473" 
d="M75 0c-16 0 -27.8291 5.66895 -35.4961 17.002s-9.83398 26.333 -6.50098 45c4 27.333 17.333 98.666 40 213.999l14 67l15 74h-8c-16 0 -27.833 4.66699 -35.5 14s-9.83398 21.333 -6.50098 36c3.33301 15.333 11 28 23 38s25.333 15 40 15h12
c15.333 66 43 118.333 83 157s88.667 58 146 58c46.667 0 82 -7.33301 106 -22s34 -34.667 30 -60c-6 -30.667 -11.667 -57.334 -17 -80.001l-21 -103l-38 -188c-8.66699 -38.667 -18 -84.667 -28 -138l-18 -91c-4 -16.667 -10.833 -29.667 -20.5 -39
s-21.834 -14 -36.501 -14c-16.667 0 -28.834 5.5 -36.501 16.5s-9.16699 26.167 -4.5 45.5c9.33301 40 17.333 80.667 24 122l14 70l33 153l32 146c10.667 48.667 18 85 22 109l42 -60c-4.66699 0 -10.667 1.33301 -18 4s-15 5.66699 -23 9
c-15.333 7.33301 -28.666 12.833 -39.999 16.5s-23 5.5 -35 5.5c-18 0 -31.5 -2.5 -40.5 -7.5s-16.833 -12.167 -23.5 -21.5c-12 -16.667 -22.667 -46 -32 -88h38c14.667 0 25.667 -5.33301 33 -16s9.33301 -23 6 -37s-10.333 -25.333 -21 -34s-23.667 -13 -39 -13h-42
l-16 -76c-26 -124 -44.333 -219.333 -55 -286c-2.66699 -17.333 -9.33398 -31.333 -20.001 -42s-22.667 -16 -36 -16v0z" />
    <glyph glyph-name="f_f" unicode="ff" horiz-adv-x="561" 
d="M75 0c-13.333 0 -23.502 3.83203 -30.502 11.499s-10.5 18.5 -10.5 32.5c0 6.66699 0.333008 12 1 16c22 124.667 40.333 222.667 55 294l11 55h-13c-11.333 0 -20.666 3.33301 -27.999 10s-11 15.667 -11 27c0 16 6.33301 30 19 42s27.334 18 44.001 18h14l7 32
c11.333 52 35.5 94.5 72.5 127.5s81.5 49.5 133.5 49.5c25.333 0 47.5 -3.33301 66.5 -10s38.5 -16.667 58.5 -30l-57 -79c-12.667 6.66699 -27.167 11.834 -43.5 15.501s-31.5 5.5 -45.5 5.5c-22.667 0 -40.667 -5.5 -54 -16.5s-23 -28.167 -29 -51.5l-11 -43l146 -1
l-18 -96h-153l-11 -54l-7 -34c-13.333 -66.667 -26 -133 -38 -199c-2.66699 -12 -7 -34.333 -13 -67c-3.33301 -16.667 -10 -30 -20 -40s-21.667 -15 -35 -15v0zM321.998 -0.000976562c-12.667 0 -22.9971 3.83203 -30.9971 11.499s-12 18.5 -12 32.5
c0 6 0.333008 10.333 1 13c9.33301 56 22.666 128.333 39.999 217l16 80l10 55h-8c-13.333 0 -24 3.16699 -32 9.5s-12 14.5 -12 24.5c0 2.66699 0.666992 6.66699 2 12c3.33301 14 10.166 25.667 20.499 35s22.5 14.333 36.5 15l18 1l10 38c14 54 36 97.667 66 131
s67 50 111 50c24.667 0 44 -4 58 -12s21 -19.333 21 -34c0 -2.66699 -0.666992 -6.66699 -2 -12c-3.33301 -14.667 -10.166 -26.5 -20.499 -35.5s-22.5 -13.5 -36.5 -13.5h-7c-6 0 -10.667 0.666992 -14 2c-7.33301 2 -15 3 -23 3c-12 0 -22.5 -4.5 -31.5 -13.5
s-15.167 -22.167 -18.5 -39.5l-13 -64h38c13.333 0 24.166 -3.66699 32.499 -11s12.5 -16.666 12.5 -27.999c0 -15.333 -6.83301 -28.833 -20.5 -40.5s-28.834 -17.5 -45.501 -17.5h-42l-10 -54l-17 -91c-12 -68.667 -26 -139 -42 -211c-3.33301 -16 -10 -28.833 -20 -38.5
s-21.667 -14.5 -35 -14.5v0z" />
    <glyph glyph-name="f_f_i" unicode="ffi" horiz-adv-x="733" 
d="M74 0c-13.333 0 -23.668 4.00098 -31.001 12.001s-11 19.333 -11 34c0 5.33301 0.333008 9.66602 1 12.999c6 42.667 28 159.334 66 350.001h-12c-11.333 0 -20.5 3.16699 -27.5 9.5s-10.5 15.5 -10.5 27.5c0 15.333 5.83301 29.166 17.5 41.499s26.167 18.5 43.5 18.5
h15l6 29c11.333 55.333 35.833 99.166 73.5 131.499s82.834 48.5 135.501 48.5c42 0 83.333 -14 124 -42l-59 -80c-12 8 -25.833 14 -41.5 18s-30.834 6 -45.501 6c-24.667 0 -43.167 -5.66699 -55.5 -17s-21.833 -30.666 -28.5 -57.999l-9 -36h149l-21 -97h-154l-13 -65
c-20 -99.333 -32 -161 -36 -185l-21 -106c-2.66699 -16 -9.16699 -28.833 -19.5 -38.5s-22.166 -14.5 -35.499 -14.5v0zM323.998 0.000976562c-14 0 -25.0078 3.99805 -33.0078 11.998s-12 19 -12 33c0 6.66699 0.333008 11.667 1 15c9.33301 54 25.333 138 48 252l6 31
l14 66h-9c-13.333 0 -23.666 3.33301 -30.999 10s-11 16 -11 28c0 16 5.5 29.833 16.5 41.5s24.5 17.5 40.5 17.5h17c0.666992 6.66699 5.33398 24.334 14.001 53.001c14.667 52 40.834 94.333 78.501 127s84.167 49 139.5 49c48 0 85.667 -7 113 -21c26 -14 37 -32 33 -54
c-3.33301 -17.333 -11.166 -31.333 -23.499 -42s-26.5 -16 -42.5 -16c-8.66699 0 -18.167 2.66699 -28.5 8l-30.5 16c-16 7.33301 -34 11 -54 11c-17.333 0 -30.666 -2.33301 -39.999 -7s-17.333 -12 -24 -22c-13.333 -18.667 -24.666 -52.667 -33.999 -102h43
c12.667 0 22.834 -3.66699 30.501 -11s11.5 -16.333 11.5 -27c0 -16 -6.16699 -29.833 -18.5 -41.5s-27.166 -17.5 -44.499 -17.5h-47l-14 -65l-6 -29c-19.333 -93.333 -35 -178.333 -47 -255c-2.66699 -17.333 -9.16699 -31.666 -19.5 -42.999s-22.5 -17 -36.5 -17v0z
M570.99 -1.00098c-17.333 0 -29.6689 5.83105 -37.002 17.498s-9 25.834 -5 42.501c10.667 49.333 16.334 76 17.001 80c-1.33301 -5.33301 7.66699 35.334 27 122.001l32 140c3.33301 17.333 9 44 17 80c3.33301 15.333 10.833 27.5 22.5 36.5s24.5 13.5 38.5 13.5
c15.333 0 26.5 -5.16699 33.5 -15.5s8.83301 -21.833 5.5 -34.5l-45 -202c-19.333 -84.667 -32 -142 -38 -172l-13 -64c-2.66699 -12 -9.16699 -22.333 -19.5 -31s-22.166 -13 -35.499 -13v0z" />
    <glyph glyph-name=".notdef" horiz-adv-x="465" 
d="M186 666h265l-141 -666h-265zM284 33l127 600h-199l-127 -600h199z" />
    <glyph glyph-name="nonmarkingreturn" unicode="&#xd;" horiz-adv-x="333" 
 />
    <glyph glyph-name="space" unicode=" " horiz-adv-x="270" 
 />
    <glyph glyph-name="exclam" unicode="!" horiz-adv-x="209" 
d="M49 216c7.33301 44 16.167 90.6689 26.5 140.002l37 168.5l31.5 140.5c2.66699 14 9.83398 25.833 21.501 35.5s24.5 14.5 38.5 14.5s24.833 -4.83301 32.5 -14.5s10.167 -21.5 7.5 -35.5l-31 -139.5c-14 -61.667 -26 -116.834 -36 -165.501s-19 -95.334 -27 -140.001
c-2 -13.333 -8.83301 -25.166 -20.5 -35.499s-24.334 -15.833 -38.001 -16.5s-24.667 3.66602 -33 12.999s-11.5 21 -9.5 35v0zM97.001 82.002c8 -9.33301 10.5 -21 7.5 -35s-10.333 -25.833 -22 -35.5s-24.5 -14.5 -38.5 -14.5s-24.833 4.83301 -32.5 14.5
s-10 21.5 -7 35.5s10.333 25.833 22 35.5s24.5 14.5 38.5 14.5s24.667 -5 32 -15v0z" />
    <glyph glyph-name="quotedbl" unicode="&#x22;" horiz-adv-x="373" 
d="M357 479c-2.66699 -14 -10.001 -25.667 -22.001 -35s-25 -14 -39 -14s-24.667 5 -32 15s-9.33301 22 -6 36c27.333 117.333 44.666 188.666 51.999 213.999c4.66699 14 13.167 25.5 25.5 34.5s25.333 12.833 39 11.5s23.834 -7.33301 30.501 -18s8 -22.667 4 -36
c-7.33301 -23.333 -24.666 -92.666 -51.999 -207.999v0zM197.999 478c-3.33301 -14 -11.001 -25.668 -23.001 -35.001s-25 -13.666 -39 -12.999s-24.667 6 -32 16s-9 22 -5 36c4 16.667 18 80.667 42 192c2.66699 14 9.83398 25.833 21.501 35.5s24.5 14.5 38.5 14.5
s24.833 -4.83301 32.5 -14.5s10.167 -21.5 7.5 -35.5c-24 -112.667 -38.333 -178 -43 -196v0z" />
    <glyph glyph-name="numbersign" unicode="#" horiz-adv-x="643" 
d="M420 64c-4 -14 -12.499 -25.3281 -25.499 -33.9951s-26.167 -12.334 -39.5 -11.001s-23.166 7.5 -29.499 18.5s-7.5 23.167 -3.5 36.5c11.333 35.333 22.333 72.666 33 111.999c-36 0 -71.333 -0.333008 -106 -1l-33 -113c-4.66699 -14 -13.167 -25.333 -25.5 -34
s-25.333 -12.334 -39 -11.001s-23.834 7.33301 -30.501 18s-7.66699 23 -3 37c10 30.667 20 64 30 100c-19.333 -0.666992 -38.666 -1.66699 -57.999 -3c-14.667 -0.666992 -26.167 3.5 -34.5 12.5s-11.333 20.5 -9 34.5s9.16602 26.167 20.499 36.5s24 15.833 38 16.5
c22.667 1.33301 46 2.33301 70 3l19 74l16 58l-36 -1c-14 -0.666992 -25 3.83301 -33 13.5s-10.833 21.334 -8.5 35.001s9.33301 25.5 21 35.5s24.5 15.333 38.5 16l47 2c12.667 44 25.334 84.333 38.001 121c4.66699 13.333 13.334 24.166 26.001 32.499
s25.667 11.666 39 9.99902s23 -8 29 -19s7 -23.5 3 -37.5c-12 -32.667 -23.333 -67.334 -34 -104.001c34.667 0.666992 66 1.33398 94 2.00098l27 114c4 14 12.167 25.667 24.5 35s25.166 13.666 38.499 12.999s23.666 -6.16699 30.999 -16.5s9 -22.166 5 -35.499l-26 -110
l66 -2c13.333 -0.666992 23.666 -6 30.999 -16s9.16602 -22 5.49902 -36s-11.5 -25.667 -23.5 -35s-25 -13.666 -39 -12.999l-63 2c-6.66699 -30.667 -12 -54.334 -16 -71.001l-15 -64l70 -2c12.667 -0.666992 22.834 -6 30.501 -16s9.66699 -21.833 6 -35.5
s-11.5 -25.334 -23.5 -35.001s-25 -14.167 -39 -13.5l-69 2c-11.333 -44 -23 -84.333 -35 -121v0zM276.001 285.005c34 0.666992 68.667 1 104 1c4.66699 18.667 9.66699 40.334 15 65.001c4 16 9.33301 39 16 69c-28.667 -0.666992 -62 -1.33398 -100 -2.00098l-18 -67
l-17 -66v0z" />
    <glyph glyph-name="dollar" unicode="$" horiz-adv-x="707" 
d="M308 -93c-4.66699 -13.333 -12.9941 -24.499 -24.9941 -33.499s-24.833 -13 -38.5 -12s-23.834 6.66699 -30.501 17s-8.33398 22.5 -5.00098 36.5l19 68c-81.333 8.66699 -130.666 41.667 -147.999 99c-3.33301 11.333 -5.83301 24.333 -7.5 39s-2.5 30 -2.5 46
s-0.333008 25.667 -1 29c-1.33301 13.333 2.66699 26 12 38s21.166 20 35.499 24s26.666 2.66699 36.999 -4s16.166 -16.667 17.499 -30c0.666992 -12 1.16699 -24.667 1.5 -38s0.666016 -24.333 0.999023 -33s1.83301 -17 4.5 -25c7.33301 -24 32.333 -39 75 -45l53 244
l2 9c-39.333 15.333 -70.333 29.666 -93 42.999c-62.667 38.667 -90.334 87.667 -83.001 147c8.66699 68.667 42.667 122.334 102 161.001c45.333 30.667 99.666 47.334 162.999 50.001l6 27c4 17.333 12 29.833 24 37.5s24.833 11.167 38.5 10.5s24 -6.16699 31 -16.5
s8.83301 -22.166 5.5 -35.499l-8 -33c42.667 -10 79.5 -26.833 110.5 -50.5s51.167 -53.167 60.5 -88.5c3.33301 -12.667 3.66602 -27.334 0.999023 -44.001l-3 -14c-0.666992 -3.33301 -1 -6 -1 -8c-1.33301 -14 -7.33301 -26.333 -18 -37s-23.167 -16.834 -37.5 -18.501
s-26 1.66602 -35 9.99902s-12.833 19.5 -11.5 33.5c0 4.66699 1 10.667 3 18l1 4l1 8l1 4c-4.66699 18 -15.667 34 -33 48s-38.666 25 -63.999 33c-12.667 -55.333 -28.334 -128 -47.001 -218l9 -4c74.667 -28 125.334 -55 152.001 -81c48.667 -48 53 -108 13 -180
c-23.333 -42 -60.166 -76.333 -110.499 -103s-102.5 -44.334 -156.5 -53.001c-6.66699 -27.333 -13.667 -53.666 -21 -78.999v0zM354.006 89.001c37.333 7.33301 69.999 18.999 97.999 34.999s46.667 32.667 56 50c8.66699 17.333 12.5 31 11.5 41s-6.16699 20 -15.5 30
c-18 16.667 -52.667 35.334 -104 56.001c-17.333 -85.333 -32.666 -156 -45.999 -212v0zM330.005 443c15.333 76 29.333 140.333 42 193c-38 -2 -69.333 -11.333 -94 -28c-26 -16.667 -40.667 -40.667 -44 -72c-2.66699 -24.667 13.333 -47.667 48 -69
c12.667 -8 28.667 -16 48 -24v0z" />
    <glyph glyph-name="percent" unicode="%" horiz-adv-x="945" 
d="M239 11c-8 -12.667 -19 -21.333 -33 -26s-26.833 -4.16699 -38.5 1.5s-18.334 15 -20.001 28s1.83301 25.833 10.5 38.5c14.667 22.667 36.667 51 66 85l61 74l293 378l135 170c9.33301 12 21 19.833 35 23.5s26.333 2 37 -5s16.334 -17.167 17.001 -30.5s-4 -26 -14 -38
l-295 -374l-130 -170c-12 -16 -34.333 -43.333 -67 -82c-25.333 -30 -44.333 -54.333 -57 -73v0zM239 385.001c-32 1.33301 -58.668 11.667 -80.001 31s-35 43.333 -41 72c-4.66699 18.667 -5.5 38 -2.5 58s10.333 40.5 22 61.5s27.834 39.833 48.501 56.5
c12.667 10.667 29.334 20.334 50.001 29.001l7 3c13.333 12.667 28.333 18.667 45 18c6.66699 0 15.667 0.333008 27 1l35 2c32.667 1.33301 59.667 -2.33398 81 -11.001c35.333 -15.333 52.333 -45 51 -89c-2 -32 -14.333 -66.667 -37 -104
c-22.667 -36 -52.334 -66.833 -89.001 -92.5s-75.667 -37.5 -117 -35.5v0zM264.999 485.002c15.333 -0.666992 31.834 5.00195 49.501 17.002s33.167 28.333 46.5 49c12 19.333 18 35.666 18 48.999c0 6.66699 -1.33301 10.667 -4 12c-8.66699 4 -22.667 5.66699 -42 5
c-3.33301 0 -6.83301 -0.166992 -10.5 -0.5s-7.66699 -0.666016 -12 -0.999023s-7.83301 -0.5 -10.5 -0.5c-3.33301 -0.666992 -7 -1 -11 -1c-5.33301 -2 -9.66602 -4 -12.999 -6l-18 -7c-8.66699 -3.33301 -14.667 -6.33301 -18 -9c-20.667 -16.667 -28 -38 -22 -64
c3.33301 -12.667 9.16602 -22.834 17.499 -30.501s18.166 -11.834 29.499 -12.501v0zM601 9.00391c-45.333 10 -77.3311 32.166 -95.998 66.499s-23.334 72.833 -14.001 115.5c9.33301 40.667 29.666 79 60.999 115s69.666 61.667 114.999 77
c13.333 4.66699 29 6.66699 47 6c0.666992 0 5.66699 -0.666992 15 -2h8c18 0.666992 30.333 -6.66602 37 -21.999c14.667 -2 27.334 -5.33301 38.001 -10c23.333 -10 41 -24 53 -42s18.667 -37.333 20 -58s-1 -41.834 -7 -63.501s-15 -42.5 -27 -62.5
c-26 -42 -61.833 -75.167 -107.5 -99.5s-93.167 -31.166 -142.5 -20.499v0zM642.002 107.003c24.667 -5.33301 48.168 -2.16797 70.501 9.49902s40.5 28.834 54.5 51.501c13.333 20.667 19 39.667 17 57s-12 30 -30 38c-4 1.33301 -10.667 2.33301 -20 3
c-26.667 2 -40.334 3 -41.001 3c-10.667 2 -19 7 -25 15c-20 -9.33301 -36.667 -22.5 -50 -39.5s-22.333 -35.167 -27 -54.5c-4.66699 -20.667 -2.66699 -38.5 6 -53.5s23.667 -24.833 45 -29.5v0z" />
    <glyph glyph-name="ampersand" unicode="&#x26;" horiz-adv-x="641" 
d="M485 -4c-12 0 -25.6699 8.32617 -41.0029 24.9932c-46 48.667 -73.667 79.334 -83 92.001c-48.667 60.667 -85 108.834 -109 144.501s-45.333 74.5 -64 116.5c-20 46 -30 87.333 -30 124s9.83301 71.5 29.5 104.5s46.334 59.333 80.001 79s70.167 29.5 109.5 29.5
c37.333 0 67.166 -9.33301 89.499 -28s33.5 -43.667 33.5 -75c0 -38 -14.667 -72.667 -44 -104s-71.666 -64.666 -126.999 -99.999l-72 -49c-46.667 -31.333 -82 -60.333 -106 -87s-36 -57.667 -36 -93c0 -26 8.33301 -45.5 25 -58.5s38 -19.5 64 -19.5
c60.667 0 117.667 29.667 171 89c22.667 24.667 45.334 58.334 68.001 101.001c8.66699 15.333 17.667 26.666 27 33.999s20 11 32 11c11.333 0 20.833 -3.66699 28.5 -11s11.5 -17 11.5 -29c0 -20.667 -12 -49.167 -36 -85.5s-48.667 -66.833 -74 -91.5
c-33.333 -34 -72.166 -61.5 -116.499 -82.5s-88.5 -31.5 -132.5 -31.5c-52 0 -93.667 14.333 -125 43s-47 66.334 -47 113.001c0 56.667 18.667 106.667 56 150s89.333 85 156 125c54 32 94.333 58.333 121 79c18 13.333 31.667 25.833 41 37.5s14 23.834 14 36.501
c0 10 -3.66699 18.167 -11 24.5s-18 9.5 -32 9.5c-26.667 0 -49.5 -10.333 -68.5 -31s-28.5 -45.667 -28.5 -75c0 -14 1.5 -27.167 4.5 -39.5s7.83301 -28.166 14.5 -47.499c8 -24.667 27.833 -60.667 59.5 -108s64.5 -89.666 98.5 -126.999l93 -99
c8 -8 13.333 -14.5 16 -19.5s4 -9.83301 4 -14.5c0 -15.333 -6.66699 -29.5 -20 -42.5s-28 -19.5 -44 -19.5v0z" />
    <glyph glyph-name="quotesingle" unicode="'" horiz-adv-x="223" 
d="M111 457c16.667 101.333 26.333 168.667 29 202c1.33301 14 7.33301 26.5 18 37.5s23 17.333 37 19s25.667 -1.66602 35 -9.99902s13.666 -19.166 12.999 -32.499c-4 -38.667 -14.667 -109.334 -32 -212.001c-2 -14 -8.66699 -26 -20 -36s-24.166 -15.333 -38.499 -16
s-25.5 3.66602 -33.5 12.999s-10.667 21 -8 35v0z" />
    <glyph glyph-name="parenleft" unicode="(" horiz-adv-x="359" 
d="M90 -152l-15 32.0039c-4.66699 11.333 -9 21 -13 29c-20 61.333 -27.5 127.5 -22.5 198.5s20.5 140.667 46.5 209s58.167 134.333 96.5 198s82.5 123.5 132.5 179.5c9.33301 12 21.166 19.333 35.499 22s26.5 0.666992 36.5 -6s15.167 -16.334 15.5 -29.001
s-4.16699 -24.334 -13.5 -35.001c-61.333 -70.667 -112.833 -144.834 -154.5 -222.501s-70 -158.667 -85 -243s-10.833 -160.166 12.5 -227.499c2 -8 4.66699 -15.667 8 -23s7.83301 -16 13.5 -26s10.167 -19.333 13.5 -28c5.33301 -10 5.33301 -21.5 0 -34.5
s-14.666 -22.833 -27.999 -29.5s-26.5 -8.83398 -39.5 -6.50098s-21.833 9.16602 -26.5 20.499z" />
    <glyph glyph-name="parenright" unicode=")" horiz-adv-x="371" 
d="M45 -173c-10.667 -10.667 -22.834 -17.333 -36.501 -20s-25.667 -0.5 -36 6.5s-15.5 16.667 -15.5 29s4.66699 23.833 14 34.5c129.333 140.667 209 269.334 239 386.001c30.667 121.333 13.334 250 -51.999 386c-4.66699 10.667 -4.16699 22.167 1.5 34.5
s15 21.833 28 28.5s25.833 8.66699 38.5 6s21.667 -9.33398 27 -20.001c72.667 -152 91.667 -298.333 57 -439c-34.667 -134 -123 -278 -265 -432v0z" />
    <glyph glyph-name="asterisk" unicode="*" horiz-adv-x="467" 
d="M273 437l-77 -68.9971c-11.333 -10 -24 -15.333 -38 -16s-25.167 3.66602 -33.5 12.999s-11.333 20.833 -9 34.5s9.16602 25.834 20.499 36.501l69 62c-5.33301 3.33301 -9.33301 5.66602 -12 6.99902c-0.666992 0 -18.334 5.66699 -53.001 17
c-12 4 -19.833 12.167 -23.5 24.5s-2.16699 25.166 4.5 38.499s16.834 23.166 30.501 29.499s26.834 7.5 39.501 3.5c36.667 -12 56.667 -19 60 -21l8 -4c0 2.66699 5.66699 28.667 17 78c2.66699 13.333 10.167 24.833 22.5 34.5s25.333 14.5 39 14.5s24.167 -5 31.5 -15
s9.66602 -22 6.99902 -36l-7.5 -32c-2.33301 -10 -4.16602 -17.333 -5.49902 -22l-2 -12l52 17c14.667 4 27.5 2.83301 38.5 -3.5s17.167 -16 18.5 -29s-2.5 -25.667 -11.5 -38s-20.167 -20.833 -33.5 -25.5c-42 -12.667 -63.333 -19 -64 -19l74 -84
c8 -9.33301 10.5 -21 7.5 -35s-10.167 -26 -21.5 -36s-24 -15 -38 -15s-25 4.66699 -33 14z" />
    <glyph glyph-name="plus" unicode="+" horiz-adv-x="669" 
d="M239 52l34.002 171.001c-79.333 -0.666992 -134.666 -1 -165.999 -1c-14 0 -24.833 4.83301 -32.5 14.5s-10 21.5 -7 35.5s10.333 25.833 22 35.5s24.5 14.5 38.5 14.5c31.333 0 86.333 0.333008 165 1c13.333 62.667 25.666 117.667 36.999 165
c3.33301 13.333 11.166 24.833 23.499 34.5s25.166 14.167 38.499 13.5s23.833 -6 31.5 -16s9.5 -22 5.5 -36l-36 -160c66.667 0 125 -0.666992 175 -2c14 -0.666992 24.667 -5.83398 32 -15.501s9.33301 -21.5 6 -35.5s-11 -25.667 -23 -35s-24.667 -14 -38 -14
c-49.333 1.33301 -106.666 2 -171.999 2l-34 -172c-3.33301 -14 -10.833 -25.833 -22.5 -35.5s-24.5 -14.5 -38.5 -14.5s-24.833 4.83301 -32.5 14.5s-9.83398 21.5 -6.50098 35.5v0z" />
    <glyph glyph-name="comma" unicode="," horiz-adv-x="190" 
d="M17 -176c-9.33301 -12.667 -21.001 -20.832 -35.001 -24.499s-26.5 -2.16699 -37.5 4.5s-17 16.667 -18 30s3.16699 26 12.5 38c20 25.333 32.333 46 37 62c4.66699 14 7.66699 38 9 72c0 13.333 5 25.666 15 36.999s22.167 18.333 36.5 21s26.333 0.166992 36 -7.5
s14.5 -18.5 14.5 -32.5c-1.33301 -43.333 -5.66602 -77 -12.999 -101c-9.33301 -29.333 -28.333 -62.333 -57 -99v0z" />
    <glyph glyph-name="hyphen" unicode="-" horiz-adv-x="366" 
d="M97 226c-14.667 -0.666992 -26.167 3.5 -34.5 12.5s-11.5 20.333 -9.5 34s8.5 25.667 19.5 36s23.5 16.166 37.5 17.499c20.667 1.33301 50.334 2.66602 89.001 3.99902s65 2.33301 79 3s25.333 -3.66602 34 -12.999s11.834 -20.833 9.50098 -34.5
s-9.33301 -25.667 -21 -36s-24.167 -15.833 -37.5 -16.5c-14.667 -0.666992 -40.834 -1.66699 -78.501 -3s-66.834 -2.66602 -87.501 -3.99902v0z" />
    <glyph glyph-name="period" unicode="." horiz-adv-x="195" 
d="M103 99c9.33301 -11.333 12.335 -24.833 9.00195 -40.5s-11.833 -29.167 -25.5 -40.5s-28.5 -17 -44.5 -17s-28.333 5.66699 -37 17s-11.334 24.833 -8.00098 40.5s11.666 29.167 24.999 40.5s27.833 17 43.5 17s28.167 -5.66699 37.5 -17v0z" />
    <glyph glyph-name="slash" unicode="/" horiz-adv-x="452" 
d="M119 36c-6.66699 -12.667 -16.833 -22.165 -30.5 -28.498s-26.5 -7.33301 -38.5 -3s-19.833 12.666 -23.5 24.999s-1.83398 25.166 5.49902 38.499l356 626c6.66699 13.333 16.834 23.333 30.501 30s26.667 8 39 4s20.5 -12 24.5 -24s2.66699 -24.667 -4 -38l-359 -630v0
z" />
    <glyph glyph-name="zero" unicode="0" horiz-adv-x="568" 
d="M293 7c-86.667 -21.333 -153 -2.33496 -199 56.998c-37.333 48.667 -54.666 116 -51.999 202c0 36 5.66699 74.833 17 116.5s25.666 81.167 42.999 118.5s40.833 72.833 70.5 106.5s62.5 60.5 98.5 80.5c6 3.33301 13 6.5 21 9.5s15 5.5 21 7.5l19 6
c5.33301 1.33301 8.33301 2 9 2c20 6.66699 36 3.33398 48 -9.99902c8 0.666992 19.333 0.333984 34 -0.999023s24.667 -2 30 -2c54.667 -13.333 90.334 -57.333 107.001 -132c14 -61.333 13 -131.333 -3 -210c-16.667 -81.333 -45.334 -152.333 -86.001 -213
c-50 -76 -109.333 -122 -178 -138v0zM289 102.998c36 8.66699 69.3359 36.333 100.003 83c31.333 48 54 105.333 68 172c12.667 65.333 14 122 4 170c-10 44 -27 68.667 -51 74c-10 2 -16.833 2.83301 -20.5 2.5s-11.834 -1 -24.501 -2s-25 -1.5 -37 -1.5
c-6.66699 0 -13 1.33301 -19 4c-0.666992 -0.666992 -1.33398 -1 -2.00098 -1c-45.333 -25.333 -83.333 -68.5 -114 -129.5s-47 -124.833 -49 -191.5c-2 -65.333 10 -114.666 36 -147.999c25.333 -32.667 61.666 -43.334 108.999 -32.001v0z" />
    <glyph glyph-name="one" unicode="1" horiz-adv-x="369" 
d="M251 52c-4 -13.333 -11.998 -24.835 -23.998 -34.502s-24.667 -14.167 -38 -13.5s-23.833 6 -31.5 16s-9.83398 22 -6.50098 36c15.333 60.667 49.666 217.334 102.999 470.001c-10.667 -8.66699 -22.334 -16 -35.001 -22c-26 -14 -60.333 -24.667 -103 -32
c-14.667 -2.66699 -26.834 0 -36.501 8s-14.167 18.833 -13.5 32.5s6.16699 26.167 16.5 37.5s22.5 18 36.5 20c30 5.33301 52.333 12 67 20c15.333 8 33 23 53 45l1 1c0 0.666992 0.333008 1.5 1 2.5s1.33398 2.33301 2.00098 4s1.66699 3.83398 3 6.50098
s2.66602 5.66699 3.99902 9c22 39.333 49.667 58 83 56c18.667 -1.33301 31.667 -10 39 -26c3.33301 -6.66699 5 -15 5 -25c0.666992 -10.667 -0.666016 -24.667 -3.99902 -42c-0.666992 -7.33301 -6 -35.333 -16 -84l-25.5 -121l-27 -129.5
c-6.33301 -31 -14.666 -68.5 -24.999 -112.5l-28.5 -122v0z" />
    <glyph glyph-name="two" unicode="2" horiz-adv-x="571" 
d="M462 -2c-97.333 6.66699 -181.337 9.33008 -252.004 7.99707c-2 0 -6.16699 -0.166992 -12.5 -0.5s-14.833 -0.666016 -25.5 -0.999023s-20 -0.5 -28 -0.5c-17.333 -0.666992 -31 -1 -41 -1c-6.66699 -0.666992 -11.667 -0.666992 -15 0h-7
c-5.33301 0 -10.666 1 -15.999 3c-15.333 6.66699 -29.333 16.834 -42 30.501s-18.667 31.167 -18 52.5c1.33301 22.667 12.333 46.667 33 72c12.667 16 31 34.333 55 55c20 16 68.667 52.333 146 109c65.333 48 112.666 85.333 141.999 112c36.667 34 57.334 60 62.001 78
c7.33301 32.667 4.83301 56.834 -7.5 72.501s-31.166 24.167 -56.499 25.5c-28 0.666992 -56.5 -6.83301 -85.5 -22.5s-52.167 -37.167 -69.5 -64.5c-1.33301 -2.66699 -3 -7.33398 -5 -14.001c-5.33301 -20.667 -8 -31.334 -8 -32.001
c-5.33301 -13.333 -14.333 -24.166 -27 -32.499s-25.667 -11.666 -39 -9.99902s-23 8 -29 19s-6.66699 23.5 -2 37.5c0.666992 2.66699 1.5 5.33398 2.5 8.00098s1.83301 5.83398 2.5 9.50098s1.66699 6.5 3 8.5c4.66699 16.667 10.667 30.667 18 42
c28.667 48.667 67.834 86.334 117.501 113.001s98.167 39.334 145.5 38.001c51.333 -2 91 -20.5 119 -55.5s35 -83.167 21 -144.5c-10.667 -42.667 -44.334 -90 -101.001 -142c-31.333 -28.667 -82.333 -69 -153 -121c-73.333 -53.333 -119.666 -88 -138.999 -104
c-17.333 -14.667 -30 -27 -38 -37c-1.33301 -0.666992 -2 -1.66699 -2 -3c1.33301 -1.33301 3 -2.33301 5 -3h7c9.33301 0 23 0.333008 41 1c8 0 17.333 0.166992 28 0.5s19.167 0.666016 25.5 0.999023s10.5 0.5 12.5 0.5c74 1.33301 160.667 -1.33398 260 -8.00098
c14 -0.666992 24.333 -6.33398 31 -17.001s8.33398 -22.834 5.00098 -36.501s-11.333 -25 -24 -34s-25.667 -13.167 -39 -12.5v0z" />
    <glyph glyph-name="three" unicode="3" horiz-adv-x="595" 
d="M202 1c-42.667 3.33301 -77.333 15.6621 -104 36.9951c-26.667 20 -44.334 43.333 -53.001 70c-1.33301 5.33301 -5 29.333 -11 72c-2 12.667 1.16699 25.5 9.5 38.5s19.5 21.833 33.5 26.5s26.667 4.16699 38 -1.5s18 -15.5 20 -29.5
c5.33301 -37.333 8.33301 -56.333 9 -57c3.33301 -11.333 12 -22.333 26 -33c15.333 -11.333 36.333 -18.5 63 -21.5s55 -0.166992 85 8.5s55.333 21.167 76 37.5s35 35.166 43 56.499c13.333 36 5 65 -25 87c-12 8 -26 14.667 -42 20c-5.33301 2 -10.333 3.66699 -15 5
l-5 1c-1.33301 0 -2.33301 0.333008 -3 1c-1.33301 0 -2.33301 0.333008 -3 1c-2 0.666992 -4 1.66699 -6 3c-2.66699 1.33301 -5.33398 3.66602 -8.00098 6.99902c-8.66699 8.66699 -12 20 -10 34c2 15.333 9.66699 29.333 23 42c4 4 8.66699 7.66699 14 11l23 13
c21.333 12.667 37.666 23.334 48.999 32.001c33.333 24.667 48.333 49.334 45 74.001c-4 43.333 -28.333 68 -73 74c-21.333 3.33301 -44.166 1.66602 -68.499 -5.00098s-46.833 -17.334 -67.5 -32.001c-6 -5.33301 -11.167 -9.5 -15.5 -12.5
s-8.66602 -7.16699 -12.999 -12.5s-7.33301 -9.33301 -9 -12l-12 -19c-6.33301 -10 -11.833 -18 -16.5 -24c-8 -12.667 -19 -21.5 -33 -26.5s-26.667 -4.5 -38 1.5s-18 15.667 -20 29s1.33301 26.333 10 39c2 3.33301 6.83301 10.833 14.5 22.5s13.167 19.834 16.5 24.501
s8.5 11.334 15.5 20.001s14.667 16.834 23 24.501s18.5 15.5 30.5 23.5c33.333 24.667 69.5 42.334 108.5 53.001s75.833 13.334 110.5 8.00098c37.333 -5.33301 69 -20.166 95 -44.499s41 -57.166 45 -98.499c7.33301 -68.667 -25.667 -130.334 -99 -185.001l-1 -1l5 -4
c26.667 -19.333 45.834 -44.666 57.501 -75.999s9.16699 -69.333 -7.5 -114c-16.667 -45.333 -44 -83 -82 -113s-79.333 -51 -124 -63c-40 -12.667 -81.333 -16.667 -124 -12v0z" />
    <glyph glyph-name="four" unicode="4" horiz-adv-x="591" 
d="M385 43c-3.33301 -13.333 -11 -24.835 -23 -34.502s-24.833 -14.5 -38.5 -14.5s-24.167 5 -31.5 15s-9.66602 22 -6.99902 36c11.333 52.667 22.333 101.334 33 146.001c-52.667 -0.666992 -90.334 -1 -113.001 -1c-10 0 -26.5 -0.333008 -49.5 -1s-39.167 -1 -48.5 -1
c-19.333 0.666992 -34.666 3 -45.999 7c-28 10 -40 29.333 -36 58c4 24.667 19.333 48 46 70c4 3.33301 7.83301 6.33301 11.5 9s6.33398 4.5 8.00098 5.5s3 2.16699 4 3.5s2.5 2.66602 4.5 3.99902l40 42c103.333 110 189.666 211.667 258.999 305
c6.66699 9.33301 15.167 16.333 25.5 21s20.166 6.66699 29.499 6h2c14.667 2.66699 26.834 0 36.501 -8s14.167 -18.667 13.5 -32c-3.33301 -97.333 -24.333 -226.666 -63 -387.999c37.333 0 70.666 -0.333008 99.999 -1c14 0 24.667 -5 32 -15s9.5 -22 6.5 -36
s-10.5 -25.667 -22.5 -35s-25 -14 -39 -14c-30 0.666992 -63.333 1 -100 1c-12 -47.333 -23.333 -96.666 -34 -147.999v0zM170 288.998c28.667 0.666992 47.332 1.00098 55.999 1.00098c22.667 0 61.334 0.333008 116.001 1c24 100.667 40.667 183 50 247
c-52.667 -64.667 -114.667 -134.334 -186 -209.001l-36 -40v0z" />
    <glyph glyph-name="five" unicode="5" horiz-adv-x="554" 
d="M309 15c-26.667 -9.33301 -53.3301 -15.002 -79.9971 -17.002s-52.834 1.16699 -78.501 9.5s-46.834 22.166 -63.501 41.499c-12 14 -21.333 33 -28 57l-6 25c-2 8 -4 14.333 -6 19c-4.66699 12 -3.66699 24.667 3 38s16.667 23.5 30 30.5s26.333 8.66699 39 5
s21 -11.5 25 -23.5c3.33301 -7.33301 6 -16.333 8 -27l6 -23c4 -13.333 8.33301 -22.333 13 -27c11.333 -13.333 28 -21.333 50 -24s46 0.333008 72 9c26 9.33301 48.667 22.333 68 39s32 34.334 38 53.001c12 34.667 13.333 66.334 4 95.001s-27 49.334 -53 62.001
s-55.333 14.667 -88 6l-17 -7l-41 -18c-18 -8 -32.667 -13.667 -44 -17c-10 -2.66699 -18.333 -4.33398 -25 -5.00098c-16.667 -1.33301 -30 2 -40 10c-24.667 19.333 -25.667 47.666 -3 84.999c2 3.33301 4 6.33301 6 9s3.16699 4.66699 3.5 6s1 2.33301 2 3
s1.5 1.33398 1.5 2.00098v1c25.333 72 46 144.667 62 218c2.66699 13.333 9.66699 25 21 35c12.667 16.667 29 25.334 49 26.001c51.333 1.33301 154.333 2 309 2c14 0 24.833 -4.83301 32.5 -14.5s10 -21.5 7 -35.5s-10.333 -25.833 -22 -35.5s-24.5 -14.5 -38.5 -14.5
c-137.333 0 -226.333 -0.333008 -267 -1c-14.667 -62.667 -30.667 -119.667 -48 -171l10 5c17.333 7.33301 28.666 11.666 33.999 12.999c47.333 13.333 89.333 14 126 2s66 -31 88 -57s35.667 -58.5 41 -97.5s1 -79.167 -13 -120.5
c-14 -39.333 -38.333 -74.166 -73 -104.499s-72.667 -52.5 -114 -66.5v0z" />
    <glyph glyph-name="six" unicode="6" horiz-adv-x="591" 
d="M146 33c-35.333 22 -61.498 52.501 -78.498 91.501s-24.5 80.5 -22.5 124.5s9.83301 88.667 23.5 134s32.5 88 56.5 128c25.333 42.667 55.166 80.5 89.499 113.5s71.166 57.833 110.499 74.5c93.333 36 178.333 18.667 255 -52c9.33301 -8.66699 13.333 -20 12 -34
s-7.33301 -26.5 -18 -37.5s-23 -17.333 -37 -19s-25.333 1.5 -34 9.5c-52 47.333 -104.667 60.666 -158 39.999c-50 -20.667 -95 -64.334 -135 -131.001c-18.667 -31.333 -33 -64 -43 -98c50 38 97.667 62.333 143 73c27.333 6 57.5 5.16699 90.5 -2.5
s59.167 -18.5 78.5 -32.5c37.333 -24.667 61.166 -55.667 71.499 -93s9.33301 -74.666 -3 -111.999s-32.833 -72 -61.5 -104s-61.667 -57.5 -99 -76.5s-77.166 -29.333 -119.499 -31s-82.833 9.83301 -121.5 34.5v0zM286.002 101.001c25.333 0.666992 49 6.50195 71 17.502
s41.667 25.833 59 44.5c16 18.667 27.333 37.5 34 56.5s7 38.333 1 58s-19.667 36.5 -41 50.5c-11.333 7.33301 -27.5 13.666 -48.5 18.999s-37.167 6.66602 -48.5 3.99902c-12 -2.66699 -22.833 -6 -32.5 -10s-20.834 -10.167 -33.501 -18.5s-22 -14.833 -28 -19.5l-70 -58
c3.33301 -58.667 24.333 -99.667 63 -123c24.667 -14.667 49.334 -21.667 74.001 -21v0z" />
    <glyph glyph-name="seven" unicode="7" horiz-adv-x="471" 
d="M107 23c-8.66699 -13.333 -19.834 -22.3311 -33.501 -26.998s-26.167 -3.83398 -37.5 2.49902s-18 16 -20 29s1.66699 26.167 11 39.5c4.66699 6.66699 16.334 24.667 35.001 54l38 58l36 53c17.333 26.667 30.333 45.667 39 57l39 55c16 22.667 30 41.334 42 56.001
l41 52c15.333 19.333 30.333 37.333 45 54l45 51c0.666992 1.33301 7 10.666 19 27.999l24 25h-1c-26.667 1.33301 -62.667 2 -108 2c-88 0 -146.333 -0.666992 -175 -2c-13.333 -0.666992 -24.166 3.83301 -32.499 13.5s-11.333 21.667 -9 36s9.33301 26.833 21 37.5
s23.834 16.334 36.501 17.001c30.667 1.33301 91 2 181 2c44 0 81.333 -0.666992 112 -2c18 -0.666992 31.667 -1.66699 41 -3c6 -0.666992 11.333 -1.33398 16 -2.00098c10.667 -2.66699 19.667 -8.33398 27 -17.001c14 -20 15 -45 3 -75
c-6.66699 -16.667 -18.334 -37.667 -35.001 -63c-4.66699 -6 -10.334 -12.333 -17.001 -19c-5.33301 -8 -10.333 -14.333 -15 -19l-15 -14l-6 -8l-42.5 -46.5l-43.5 -51.5l-39 -48l-38 -54l-37 -50l-38 -56l-35 -52l-38 -59l-36 -54v0z" />
    <glyph glyph-name="eight" unicode="8" horiz-adv-x="563" 
d="M187 0c-44 6.66699 -80.001 22.835 -108.001 48.502s-44 57.167 -48 94.5c-4.66699 39.333 4.5 78.666 27.5 117.999s57.167 73.666 102.5 102.999c6 4 12.667 8 20 12c-7.33301 2.66699 -13.666 5.33398 -18.999 8.00098c-37.333 20 -60.666 45 -69.999 75
c-14.667 45.333 4 98 56 158c61.333 71.333 142.666 104 243.999 98c4.66699 0.666992 8.66699 1 12 1c2.66699 0 6.66699 0.333008 12 1l18 1c20.667 2 38 0.666992 52 -4c28.667 -10.667 50.334 -28.334 65.001 -53.001s22.667 -52.667 24 -84
c1.33301 -27.333 -4 -57.333 -16 -90s-30.333 -60.667 -55 -84c-15.333 -15.333 -33 -28.666 -53 -39.999c19.333 -19.333 34.333 -41 45 -65c19.333 -48 22.666 -92.833 9.99902 -134.5s-38.667 -77.5 -78 -107.5c-32.667 -24.667 -71 -41.834 -115 -51.501
s-86 -11.167 -126 -4.5v0zM220.999 98.001c30 -4 58.999 -2.83496 86.999 3.49805s51 16.166 69 29.499c36 26.667 43.667 64.334 23 113.001c-12 30 -39 55.333 -81 76c-22.667 -4.66699 -38.667 -8.16699 -48 -10.5s-20.666 -5.83301 -33.999 -10.5
s-24.333 -9.66699 -33 -15c-27.333 -17.333 -46.5 -35.666 -57.5 -54.999s-15.833 -37.666 -14.5 -54.999c2.66699 -18 11.5 -34 26.5 -48s35.833 -23.333 62.5 -28v0zM349.998 424.999c42.667 10 72.334 23.332 89.001 39.999c23.333 22.667 34.333 52 33 88
c0 20.667 -5.33301 37 -16 49c-4 0 -7.66699 0.333008 -11 1c-35.333 7.33301 -65.333 11.5 -90 12.5s-49 -2.5 -73 -10.5s-44.667 -22 -62 -42c-24 -27.333 -34 -46.666 -30 -57.999c3.33301 -10 14.666 -20 33.999 -30c11.333 -6 40.333 -17.667 87 -35
c15.333 -5.33301 28.333 -10.333 39 -15v0z" />
    <glyph glyph-name="nine" unicode="9" horiz-adv-x="558" 
d="M432 44c-4.66699 -14 -12.999 -25.335 -24.999 -34.002s-24.833 -12.5 -38.5 -11.5s-23.834 6.66699 -30.501 17s-8 22.5 -4 36.5c30 110 54 202.333 72 277c-43.333 -35.333 -90.333 -56.666 -141 -63.999c-40 -4.66699 -74.833 -1.5 -104.5 9.5
s-52.167 27.5 -67.5 49.5s-25.333 47 -30 75s-3.33398 57 3.99902 87c7.33301 31.333 20.333 61 39 89s41.667 52.833 69 74.5s60.5 38 99.5 49s80.167 14.5 123.5 10.5c28.667 -2.66699 51.334 -8.66699 68.001 -18c6 -3.33301 13.667 -8.33301 23 -15l14 -11
c6 2.66699 12.333 4.33398 19 5.00098c14 0.666992 25.167 -3.5 33.5 -12.5s11.5 -20.5 9.5 -34.5c-24 -157.333 -68.333 -350.333 -133 -579v0zM272.001 364.998c25.333 3.33301 49.334 13.3311 72.001 29.998s41.667 38.334 57 65.001c10.667 16.667 25 53.667 43 111
c-0.666992 0.666992 -1.66699 1.33398 -3 2.00098l-25 19l-14 10c-6 3.33301 -17 5.66602 -33 6.99902c-30 2.66699 -57.333 1 -82 -5c-24.667 -6.66699 -45 -16.5 -61 -29.5s-28.833 -27.167 -38.5 -42.5s-16.834 -31.666 -21.501 -48.999
c-8.66699 -36.667 -3.66699 -67 15 -91s49 -33 91 -27v0z" />
    <glyph glyph-name="colon" unicode=":" horiz-adv-x="202" 
d="M190 507c9.33301 -11.333 12.335 -24.833 9.00195 -40.5s-11.833 -29.167 -25.5 -40.5s-28.5 -17 -44.5 -17s-28.333 5.66699 -37 17s-11.334 24.833 -8.00098 40.5s11.666 29.167 24.999 40.5s27.833 17 43.5 17s28.167 -5.66699 37.5 -17v0zM106.002 99
c9.33301 -11.333 12.335 -24.833 9.00195 -40.5s-11.833 -29.167 -25.5 -40.5s-28.5 -17 -44.5 -17s-28.333 5.66699 -37 17s-11.334 24.833 -8.00098 40.5s11.666 29.167 24.999 40.5s27.833 17 43.5 17s28.167 -5.66699 37.5 -17v0z" />
    <glyph glyph-name="semicolon" unicode=";" horiz-adv-x="209" 
d="M33 -134c-7.33301 -11.333 -17.6689 -19.666 -31.002 -24.999s-26 -5.83301 -38 -1.5s-19.833 12 -23.5 23s-1.83398 22.5 5.49902 34.5c11.333 18.667 24.333 39 39 61c6.66699 10 10 15.667 10 17c0.666992 1.33301 1.33398 5.33301 2.00098 12c3.33301 34 5 53 5 57
c2 12.667 8.33301 23.667 19 33s21.334 14.666 32.001 15.999s21.334 -2 32.001 -10s17 -18 19 -30c0.666992 -4 -1 -22.333 -5 -55c-2 -16 -4.66699 -29 -8 -39c-4 -7.33301 -11 -19 -21 -35l-37 -58v0zM193.997 509c9.33301 -11.333 12.335 -24.833 9.00195 -40.5
s-11.833 -29.167 -25.5 -40.5s-28.5 -17 -44.5 -17s-28.333 5.66699 -37 17s-11.334 24.833 -8.00098 40.5s11.666 29.167 24.999 40.5s27.833 17 43.5 17s28.167 -5.66699 37.5 -17v0v0z" />
    <glyph glyph-name="less" unicode="&#x3c;" horiz-adv-x="697" 
d="M503 6c-14 -3.33301 -26.335 -1.33594 -37.002 5.99707c-66.667 46 -161 98.667 -283 158l-5 2l-15 5c-14.667 6.66699 -27.334 13.334 -38.001 20.001c-18 10.667 -30.667 23 -38 37c-13.333 25.333 -11.666 52 5.00098 80c16 26 41 41.333 75 46
c4.66699 0.666992 8.66699 1.33398 12 2.00098h7h5l70 23c108.667 36.667 223.334 81.667 344.001 135c14 6 27 6.83301 39 2.5s19.667 -12.833 23 -25.5s1.5 -25.5 -5.5 -38.5s-17.5 -22.5 -31.5 -28.5c-130.667 -56.667 -249 -103 -355 -139l-59 -19l2 -1l13 -5
c4.66699 -2 8.33398 -3.33301 11.001 -4c126 -61.333 224 -116 294 -164c10 -7.33301 15.333 -17.666 16 -30.999s-3.83301 -25.833 -13.5 -37.5s-21.5 -19.5 -35.5 -23.5v0z" />
    <glyph glyph-name="equal" unicode="=" horiz-adv-x="715" 
d="M549 91c-34 1.33301 -110.332 2.00195 -228.999 2.00195c-96 0 -173.333 2 -232 6c-13.333 1.33301 -23.333 7.16602 -30 17.499s-8.16699 22.333 -4.5 36s11.667 25 24 34s25.5 13.167 39.5 12.5c56 -4 131 -6 225 -6c119.333 0 196.666 -0.666992 231.999 -2
c13.333 -0.666992 23.833 -6 31.5 -16s9.66699 -21.833 6 -35.5s-11.5 -25.334 -23.5 -35.001s-25 -14.167 -39 -13.5v0zM135.001 302.002c-14 0 -25.001 4.66699 -33.001 14s-10.5 21 -7.5 35s10.167 26 21.5 36s24 15 38 15c196.667 4 352.334 6 467.001 6
c14 0 24.833 -4.83301 32.5 -14.5s10 -21.5 7 -35.5s-10.333 -25.833 -22 -35.5s-24.5 -14.5 -38.5 -14.5c-113.333 0 -268.333 -2 -465 -6v0z" />
    <glyph glyph-name="greater" unicode="&#x3e;" horiz-adv-x="762" 
d="M102 21c-14.667 -4.66699 -27.501 -3.99902 -38.501 2.00098s-17.167 15.667 -18.5 29s2.33398 26.166 11.001 38.499s20 20.5 34 24.5c25.333 8 95 33 209 75c90.667 33.333 162.667 57.666 216 72.999h2c-6 3.33301 -11.667 6.33301 -17 9
c-151.333 67.333 -270 113 -356 137c-12.667 3.33301 -21.167 11 -25.5 23s-3.16602 24.667 3.50098 38s16.667 23.5 30 30.5s26.333 8.5 39 4.5c89.333 -24.667 211.666 -71.667 366.999 -141c8 -3.33301 18 -8.33301 30 -15s20.333 -11 25 -13
c0.666992 -0.666992 1.33398 -1 2.00098 -1h3c1.33301 0 3.66602 -0.166992 6.99902 -0.5s7.66602 -1.16602 12.999 -2.49902c13.333 -2.66699 24 -6.66699 32 -12c16.667 -12.667 22.667 -30.667 18 -54c-5.33301 -24 -22.333 -44 -51 -60
c-12 -6.66699 -27.333 -13.334 -46 -20.001c-5.33301 -1.33301 -28 -7.66602 -68 -18.999c-51.333 -14.667 -120.333 -38 -207 -70c-99.333 -36.667 -170.666 -62 -213.999 -76v0z" />
    <glyph glyph-name="question" unicode="?" horiz-adv-x="506" 
d="M277 212c-4.66699 -14 -13.3369 -25.3301 -26.0039 -33.9971s-25.834 -12.334 -39.501 -11.001s-23.667 7.5 -30 18.5s-7.16602 23.167 -2.49902 36.5c1.33301 4 4.33301 14.667 9 32l11 30c8 20 22.333 43 43 69c14 18.667 36 40.334 66 65.001
c2.66699 1.33301 12.334 8.66602 29.001 21.999l38 31c36 32 53 59 51 81c-2 20 -12.833 36.667 -32.5 50s-45.334 20.166 -77.001 20.499s-59.667 -5.83398 -84 -18.501s-41.833 -29.334 -52.5 -50.001v-7c-0.666992 -1.33301 -1 -3 -1 -5l1 -4
c-0.666992 -2 -1 -3.33301 -1 -4c0 -7.33301 -0.333008 -13.666 -1 -18.999c-2 -14 -8.66699 -26.167 -20 -36.5s-24 -16 -38 -17s-25.167 3 -33.5 12s-11.833 20.167 -10.5 33.5c0.666992 2.66699 1 6 1 10c0 9.33301 0.333008 14.333 1 15c0.666992 18 4.66699 34 12 48
c15.333 32.667 37.5 60.167 66.5 82.5s58.833 38 89.5 47s61.334 13.167 92.001 12.5c30.667 0 59.334 -4.66699 86.001 -14s49.834 -25 69.501 -47s31.167 -48.333 34.5 -79c5.33301 -59.333 -26.667 -119 -96 -179c-6 -6 -13 -12.333 -21 -19l-26 -20l-22 -17
c-21.333 -18 -36.666 -32.667 -45.999 -44c-12 -16 -20 -28.667 -24 -38c-1.33301 -4 -3.33301 -10.333 -6 -19c-6 -18.667 -9.33301 -30 -10 -34v0zM240.997 90.0029c8 -9.33301 10.5 -21 7.5 -35s-10.333 -25.833 -22 -35.5s-24.5 -14.5 -38.5 -14.5
s-24.833 4.83301 -32.5 14.5s-10 21.5 -7 35.5s10.333 25.833 22 35.5s24.5 14.5 38.5 14.5s24.667 -5 32 -15v0z" />
    <glyph glyph-name="at" unicode="@" horiz-adv-x="922" 
d="M429 6c-73.333 3.33301 -138.497 22.5029 -195.497 57.5029s-99.167 80.833 -126.5 137.5c-18 38.667 -28.167 79.834 -30.5 123.501s5.5 90.334 23.5 140.001s46 98.167 84 145.5c26 32 55.833 60.5 89.5 85.5s68 44.667 103 59s71.167 25 108.5 32
s73.5 9.83301 108.5 8.5s68.5 -6 100.5 -14c40.667 -10.667 77.167 -27.167 109.5 -49.5s58.833 -49.833 79.5 -82.5s32.167 -71.834 34.5 -117.501s-6.5 -94.5 -26.5 -146.5c-12.667 -35.333 -34 -67.5 -64 -96.5s-63 -50.5 -99 -64.5c-24 -10 -47.667 -15.833 -71 -17.5
s-45.833 2.66602 -67.5 12.999s-38.167 26.833 -49.5 49.5l-2 -1c-53.333 -47.333 -104.333 -71.333 -153 -72c-30 -0.666992 -54.833 8 -74.5 26s-32.5 43.667 -38.5 77c-8 41.333 1.33301 84.666 28 129.999s61 84.666 103 117.999c20 16 41 30 63 42s44.667 21.667 68 29
s47 10.166 71 8.49902s45.667 -8.83398 65 -21.501c10.667 -6.66699 20.334 -17 29.001 -31l6 -12c2 -3.33301 3.66699 -6 5 -8c7.33301 -10 9.16602 -22 5.49902 -36s-11.5 -25.667 -23.5 -35c-4.66699 -3.33301 -10 -6.33301 -16 -9l-2 -8c-10 -27.333 -17 -47 -21 -59
c-8 -24.667 -13.667 -44.667 -17 -60c-0.666992 0 -1.66699 -6.33301 -3 -19c12 -24 36.667 -28.333 74 -13c20 8 38.167 20 54.5 36s28.166 32.667 35.499 50c26 71.333 24.667 131.833 -4 181.5s-76.667 83.5 -144 101.5s-137.5 15.833 -210.5 -6.5
s-132.833 -62.166 -179.5 -119.499c-28.667 -35.333 -49.5 -71.166 -62.5 -107.499s-18.833 -70.333 -17.5 -102s8.66602 -61.834 21.999 -90.501c21.333 -44 54.666 -79.667 99.999 -107c44 -27.333 95 -42.333 153 -45c25.333 -1.33301 53.333 1.33398 84 8.00098
c30 6 54 12 72 18l92 34c13.333 5.33301 26 5.33301 38 0s19.167 -14.333 21.5 -27s-0.5 -25.5 -8.5 -38.5s-19 -21.833 -33 -26.5c-4 -2 -10 -4.33301 -18 -7l-89 -32c-21.333 -7.33301 -49.833 -14.333 -85.5 -21s-68.5 -9.33398 -98.5 -8.00098v0zM404.003 296.003
c20 0 44.998 13.334 74.998 40.001c24.667 21.333 41 38.666 49 51.999c2.66699 4 14.334 27.333 35.001 70v3l2 9l5 17c3.33301 14 8.33301 25.667 15 35c1.33301 0.666992 2.33301 1.66699 3 3c-16 3.33301 -35.5 1 -58.5 -7s-47.167 -22.333 -72.5 -43
c-29.333 -23.333 -51.666 -48 -66.999 -74s-21.333 -47.333 -18 -64c2.66699 -12 6.16699 -21.333 10.5 -28s8 -10.5 11 -11.5s6.5 -1.5 10.5 -1.5v0z" />
    <glyph glyph-name="A" unicode="A" horiz-adv-x="611" 
d="M60 30c-8 -13.333 -19.165 -22.6631 -33.498 -27.9961s-27.333 -5.33301 -39 0s-18.834 14.5 -21.501 27.5s0 25.833 8 38.5c20 32.667 47.667 80.667 83 144s60 106.666 74 129.999c7.33301 13.333 36.333 60.666 87 141.999c48.667 80 87 145 115 195
c7.33301 13.333 17.833 23.166 31.5 29.499s26.834 7.16602 39.501 2.49902c5.33301 -2 10 -5 14 -9c12 -4.66699 19.333 -13.667 22 -27l120 -605c2.66699 -13.333 0 -26.5 -8 -39.5s-19.167 -22.167 -33.5 -27.5s-26.833 -5.33301 -37.5 0s-17.334 14.333 -20.001 27
l-35 189c-2.66699 -1.33301 -5.66699 -2 -9 -2c-92.667 -3.33301 -177 -5 -253 -5c-48.667 -88 -83.334 -148.667 -104.001 -182v0zM224.002 314.003c56 0.666992 116.667 2 182 4l-44 219l-138 -223v0z" />
    <glyph glyph-name="B" unicode="B" horiz-adv-x="680" 
d="M78 3c-14 0.666992 -24.499 6.00195 -31.499 16.002s-8.83301 22 -5.5 36c3.33301 10.667 9 20.334 17 29.001c7.33301 32.667 17.833 83.167 31.5 151.5s24.5 120.166 32.5 155.499c2 12 6.66699 34.167 14 66.5s12.5 56 15.5 71s6.33301 34.667 10 59
s6.16699 46.166 7.5 65.499c0.666992 14 6.33398 26.5 17.001 37.5s22.667 17.5 36 19.5c11.333 2 21.333 0.666992 30 -4c3.33301 1.33301 7 2 11 2c75.333 4.66699 134 5 176 1c80 -6.66699 136.667 -27.334 170 -62.001c22 -22.667 34.667 -50.334 38 -83.001
s-1.83398 -65.667 -15.501 -99s-33.834 -63 -60.501 -89c12 -6 21.667 -13 29 -21c22.667 -22.667 35.667 -49.5 39 -80.5s-1.5 -60.667 -14.5 -89s-31.167 -55 -54.5 -80s-49 -44.833 -77 -59.5c-22 -10.667 -46.167 -19.667 -72.5 -27s-50.333 -12.666 -72 -15.999
s-47 -5.33301 -76 -6s-51.833 -0.666992 -68.5 0s-39.5 1.66699 -68.5 3s-48.167 2.33301 -57.5 3v0zM162.001 100.002c37.333 -1.33301 72.499 -2.50293 105.499 -3.50293s67 1.5 102 7.5s65.833 16 92.5 30c33.333 16.667 56 40.334 68 71.001s8.66699 55.334 -10 74.001
c-13.333 13.333 -47.666 24 -102.999 32c-22 -3.33301 -46 -5 -72 -5c-20 0.666992 -49.333 2.33398 -88 5.00098c-9.33301 0.666992 -17.333 1 -24 1c-4.66699 0.666992 -9.66699 2 -15 4l-12 1l-20 -97.5l-24 -119.5v0zM283 403.999c6.66699 0 22.6689 0.333008 48.002 1
c41.333 0.666992 72.666 0.333984 93.999 -0.999023h6c20 3.33301 36.667 8.66602 50 15.999c29.333 15.333 49.166 39.666 59.499 72.999s6.5 59.333 -11.5 78c-20.667 20.667 -60.667 33.667 -120 39c-35.333 2.66699 -83.333 2.33398 -144 -0.999023
c-4.66699 -33.333 -17.667 -99.333 -39 -198h3l54 -7v0z" />
    <glyph glyph-name="C" unicode="C" horiz-adv-x="711" 
d="M371 -6c-41.333 -2.66699 -81.333 0.333008 -120 9c-39.333 9.33301 -71.666 23.666 -96.999 42.999c-34 26 -59 62.833 -75 110.5s-23 95.5 -21 143.5c2 39.333 11.333 79.666 28 120.999s38.667 79.166 66 113.499s59 66 95 95s73.833 51 113.5 66s80.5 24 122.5 27
s82.667 -4.16699 122 -21.5c15.333 -6.66699 29.166 -14.667 41.499 -24s24 -21.333 35 -36l23.5 -32l22 -37c6.66699 -10.667 7.66699 -22.834 3 -36.501s-13.334 -24.834 -26.001 -33.501s-25.5 -12.167 -38.5 -10.5s-22.833 7.83398 -29.5 18.501l-28 45
c-6.66699 9.33301 -15.167 19 -25.5 29s-21.5 17.667 -33.5 23c-26.667 12 -54.334 16.833 -83.001 14.5s-57.334 -8.83301 -86.001 -19.5s-56 -26.167 -82 -46.5s-48.833 -42.666 -68.5 -66.999s-35.834 -51.666 -48.501 -81.999s-19.667 -60.5 -21 -90.5
c-1.33301 -36.667 3.83398 -72.667 15.501 -108s28.5 -61.333 50.5 -78c17.333 -12.667 40.5 -22.5 69.5 -29.5s58.833 -9.16699 89.5 -6.5c68.667 4.66699 118.334 26.667 149.001 66c5.33301 6.66699 9.66602 13.334 12.999 20.001l13 26l17 32
c7.33301 12.667 17.833 22 31.5 28s26.5 6.66699 38.5 2s19.667 -13.167 23 -25.5s1.33301 -25.166 -6 -38.499c-1.33301 -2 -5.16602 -9.5 -11.499 -22.5s-13.166 -25.667 -20.499 -38s-14.333 -22.833 -21 -31.5c-29.333 -37.333 -65.166 -65.5 -107.499 -84.5
s-86.5 -30.167 -132.5 -33.5v0z" />
    <glyph glyph-name="D" unicode="D" horiz-adv-x="730" 
d="M95 -2c-8.66699 0 -16.332 2.33594 -22.999 7.00293c-10.667 3.33301 -18 10.333 -22 21s-4.33301 23 -1 37l70 304c8 36 16.667 80.667 26 134c6.66699 38 16.334 82.333 29.001 133l5 21c4 14 12.167 25.667 24.5 35s25.166 13.666 38.499 12.999h4
c7.33301 3.33301 14 5.33301 20 6c26.667 2 50.5 3.66699 71.5 5s46.167 2 75.5 2c94.667 0 169.167 -22.667 223.5 -68s81.5 -111 81.5 -197c0 -70.667 -19.5 -140.834 -58.5 -210.501s-89.5 -125.834 -151.5 -168.501c-58.667 -40 -131.334 -63.333 -218.001 -70
c-26 -2 -59.667 -3 -101 -3l-91 -1h-3zM211.002 99.0029c39.333 0 70.001 1.00098 92.001 3.00098c66 4.66699 119 20.667 159 48c44 29.333 80.667 70.5 110 123.5s44 105.5 44 157.5c0 63.333 -19.833 110.166 -59.5 140.499s-93.5 45.5 -161.5 45.5
c-30.667 0 -63.334 -1.66699 -98.001 -5l-28 -2c-9.33301 -34.667 -17 -69.667 -23 -105c-8.66699 -48 -18 -94.667 -28 -140l-18 -83l-8 -34c-14 -57.333 -25.333 -107 -34 -149h53v0z" />
    <glyph glyph-name="E" unicode="E" horiz-adv-x="659" 
d="M425 0l-324.995 -0.00292969c-20 0 -34.333 6.83301 -43 20.5s-10.334 31.834 -5.00098 54.501c1.33301 4.66699 9.66602 42.667 24.999 114c2.66699 14 5.66699 28.333 9 43l10 46c18 85.333 30.667 143.333 38 174c16.667 96 33 165 49 207
c3.33301 10 9.16602 19 17.499 27s17.166 13.333 26.499 16c12 8.66699 23.667 13 35 13l400 1c13.333 0 23.333 -3.66699 30 -11s10 -16.666 10 -27.999c0 -14 -5.66699 -27 -17 -39s-26.333 -18 -45 -18c-186.667 0 -310.334 -0.333008 -371.001 -1
c-3.33301 -8 -6.5 -19 -9.5 -33s-6.16699 -30.333 -9.5 -49l-17 -87l-8 -36l336 -1c12.667 0 22.5 -3.66699 29.5 -11s10.5 -16.666 10.5 -27.999c0 -14.667 -5.66699 -28.167 -17 -40.5s-26.333 -18.5 -45 -18.5l-195 2h-141l-45 -219h48
c117.333 -1.33301 193.333 -2 228 -2l101 1c13.333 0 23.5 -3.33301 30.5 -10s10.5 -15.667 10.5 -27c0 -15.333 -5.5 -29 -16.5 -41s-25.833 -18 -44.5 -18z" />
    <glyph glyph-name="F" unicode="F" horiz-adv-x="597" 
d="M53 48c5.33301 26 18.501 86.001 39.501 180.001s37.333 171.167 49 231.5s21.834 121.833 30.501 184.5l4 12v7c3.33301 14 10.666 26 21.999 36s24 15 38 15c186 3.33301 321.667 3.33301 407 0c14 -0.666992 24.667 -6 32 -16s9.16602 -22 5.49902 -36
s-11.5 -25.667 -23.5 -35s-25 -13.666 -39 -12.999c-83.333 3.33301 -200 3.66602 -350 0.999023c-9.33301 -62.667 -21.666 -131.667 -36.999 -207c44 0 143.333 1 298 3c14 0 25 -4.83301 33 -14.5s10.5 -21.334 7.5 -35.001s-10.333 -25.5 -22 -35.5
s-24.167 -15 -37.5 -15c-155.333 -2 -255.333 -3 -300 -3l-27 -122.5l-30 -137.5c-3.33301 -14 -10.833 -25.833 -22.5 -35.5s-24.5 -14.5 -38.5 -14.5s-24.833 4.83301 -32.5 14.5s-9.83398 21.5 -6.50098 35.5v0z" />
    <glyph glyph-name="G" unicode="G" horiz-adv-x="738" 
d="M354 1c-54.667 0 -104.668 12.335 -150.001 37.002s-81 58.834 -107 102.501s-39 92.834 -39 147.501c0 68.667 19 136.167 57 202.5s88.333 120.5 151 162.5s128.667 63 198 63c58 0 108.667 -16 152 -48s78 -76 104 -132c5.33301 -11.333 5.83301 -23 1.5 -35
s-12.166 -22 -23.499 -30s-23.666 -12 -36.999 -12c-16 0 -27.333 7 -34 21c-20.667 43.333 -46.667 77 -78 101s-67.333 36 -108 36c-46.667 0 -91.667 -15.5 -135 -46.5s-78.5 -70.5 -105.5 -118.5s-40.5 -96.333 -40.5 -145c0 -40.667 8.66699 -76.834 26 -108.501
s42.333 -56.334 75 -74.001s70.667 -26.5 114 -26.5c34 0 67.167 9.33301 99.5 28s59.666 43.167 81.999 73.5s36.5 62.166 42.5 95.499c-58.667 -1.33301 -121.334 -3.33301 -188.001 -6c-13.333 -0.666992 -23.666 2.83301 -30.999 10.5s-11 17.167 -11 28.5
c0 15.333 5.33301 29.166 16 41.499s25 18.833 43 19.5c84 4 163.667 6 239 6c14 0 24.833 -4.83301 32.5 -14.5s10.167 -21.5 7.5 -35.5l-2 -7c-2.66699 -56.667 -21.334 -111 -56.001 -163s-78.667 -94 -132 -126s-107.666 -48 -162.999 -48v0z" />
    <glyph glyph-name="H" unicode="H" horiz-adv-x="731" 
d="M151 49c-3.33301 -14 -10.835 -25.6689 -22.502 -35.002s-24.5 -14 -38.5 -14s-24.667 5 -32 15s-9.66602 22 -6.99902 36c14.667 61.333 34.667 159.833 60 295.5s47.666 242.834 66.999 321.501c4 13.333 12 24.833 24 34.5s24.667 14.167 38 13.5s23.833 -6 31.5 -16
s9.83398 -22 6.50098 -36c-17.333 -71.333 -35.333 -156.333 -54 -255c158.667 5.33301 274.334 7.66602 347.001 6.99902c18.667 92 38 175.333 58 250c4 14 12 25.5 24 34.5s25 13.167 39 12.5s24.333 -6.16699 31 -16.5s8.33398 -22.5 5.00098 -36.5
c-20 -78 -36.333 -144.333 -49 -199c-14 -66 -28.833 -140.167 -44.5 -222.5s-28.167 -145.166 -37.5 -188.499c-2.66699 -14 -9.83398 -25.833 -21.501 -35.5s-24.5 -14.5 -38.5 -14.5s-24.833 4.83301 -32.5 14.5s-10.167 21.5 -7.5 35.5
c5.33301 23.333 23.333 113.333 54 270c-72 0.666992 -187.333 -1.66602 -346 -6.99902c-21.333 -114 -39.333 -202 -54 -264v0z" />
    <glyph glyph-name="I" unicode="I" horiz-adv-x="310" 
d="M31 -2c-14 -0.666992 -25.001 3.83398 -33.001 13.501s-10.833 21.334 -8.5 35.001s9.33301 25.5 21 35.5s24.167 15.333 37.5 16l23 1l107 517h-16c-14 0 -24.5 5 -31.5 15s-9 22 -6 36s10.5 25.667 22.5 35s25 14 39 14c33.333 -0.666992 74.333 -1.33398 123 -2.00098
c13.333 0 23.833 -5 31.5 -15s10 -21.833 7 -35.5s-10.5 -25.334 -22.5 -35.001s-25 -14.5 -39 -14.5h-8l-107 -514h20c14 0 24.833 -4.83301 32.5 -14.5s10 -21.5 7 -35.5s-10.333 -25.833 -22 -35.5s-24.5 -14.5 -38.5 -14.5c-51.333 -0 -97.666 -0.666992 -138.999 -2v0z
" />
    <glyph glyph-name="J" unicode="J" horiz-adv-x="540" 
d="M167 2c-40 -4.66699 -76.0029 0.832031 -108.003 16.499s-52.333 42.5 -61 80.5c-2.66699 8 -4.16699 17.833 -4.5 29.5s-0.166016 23.167 0.500977 34.5s0.666992 17.333 0 18c0 13.333 4.83301 25.833 14.5 37.5s21.667 19 36 22s26.5 1 36.5 -6s15.333 -17.5 16 -31.5
c-0.666992 -10 -1.16699 -19.333 -1.5 -28s-0.5 -15.167 -0.5 -19.5s0.333008 -9.16602 1 -14.499c4.66699 -14.667 13.834 -25.667 27.501 -33s31.167 -9.66602 52.5 -6.99902s41.333 9.66699 60 21s32.334 24.333 41.001 39c20.667 34 39.167 78.5 55.5 133.5
s28.5 105.333 36.5 151s17 102.5 27 170.5c-30 -0.666992 -59 -2 -87 -4c-14.667 -0.666992 -26.167 3.5 -34.5 12.5s-11.5 20.333 -9.5 34s8.5 25.667 19.5 36s23.5 16.166 37.5 17.499c44.667 2.66699 91 4.33398 139 5.00098h6c36 0 75 -0.666992 117 -2
c13.333 -0.666992 23.833 -6 31.5 -16s9.66699 -21.833 6 -35.5s-11.5 -25.334 -23.5 -35.001s-25 -14.167 -39 -13.5l-62 2c-33.333 -234.667 -78 -398.667 -134 -492c-21.333 -34.667 -50 -62.667 -86 -84s-72.667 -34.333 -110 -39v0z" />
    <glyph glyph-name="K" unicode="K" horiz-adv-x="644" 
d="M319 341l-122.002 -85.999c-16 -78 -28.667 -145.667 -38 -203c-2.66699 -14 -9.5 -26.167 -20.5 -36.5s-23.667 -15.833 -38 -16.5s-25.666 3.5 -33.999 12.5s-11.5 20.5 -9.5 34.5c6.66699 40 13.667 79.333 21 118l31 147c10.667 50 18.334 89 23.001 117
c4 17.333 10.5 53.166 19.5 107.499s17.167 97.833 24.5 130.5c3.33301 14 10.833 25.667 22.5 35s24.5 14 38.5 14s24.667 -5 32 -15s9.66602 -22 6.99902 -36c-8 -32 -16.333 -74.667 -25 -128s-14.667 -88.666 -18 -105.999
c-3.33301 -14.667 -6.33301 -30.334 -9 -47.001c123.333 87.333 254.333 192.333 393 315c11.333 10 24 15.333 38 16s25.167 -3.66602 33.5 -12.999s11.333 -21 9 -35s-9.5 -26 -21.5 -36c-92 -82.667 -181.333 -157 -268 -223l188 -327
c6 -10.667 6.66699 -22.834 2 -36.501s-13.167 -24.834 -25.5 -33.501s-25.166 -12.167 -38.499 -10.5s-23.333 7.83398 -30 18.501z" />
    <glyph glyph-name="L" unicode="L" horiz-adv-x="555" 
d="M92 -1c-12 0 -21.832 4.66797 -29.499 14.001s-10.5 20.666 -8.5 33.999l16 82l11 56l27 140c32 166 55.333 282.333 70 349c3.33301 16 10.666 28.5 21.999 37.5s24.333 13.5 39 13.5c15.333 0 26.5 -4.33301 33.5 -13s8.83301 -20.667 5.5 -36l-40 -199
c-5.33301 -23.333 -17.333 -84.333 -36 -183c-16.667 -92 -29.667 -159.333 -39 -202c89.333 0 142.666 0.333008 159.999 1c20 0.666992 68 1 144 1c12.667 0 22.334 -3.66699 29.001 -11s10 -16.333 10 -27c0 -13.333 -5.66699 -26 -17 -38s-26.333 -18 -45 -18l-352 -1v0
z" />
    <glyph glyph-name="M" unicode="M" horiz-adv-x="863" 
d="M722 47c-3.33301 -14 -10.999 -25.667 -22.999 -35s-24.833 -13.666 -38.5 -12.999s-24.167 6 -31.5 16s-9.33301 22 -6 36c7.33301 20 25.5 99.667 54.5 239l49.5 239c-65.333 -66.667 -142.666 -152 -231.999 -256c-10 -12 -22.167 -19.333 -36.5 -22
s-26.5 -0.333984 -36.5 6.99902c0 0.666992 -0.333008 1 -1 1c-5.33301 4 -9.33301 8.66699 -12 14c-20 39.333 -54.667 99 -104 179l-49 78c-8.66699 -50 -19.667 -107.333 -33 -172l-34 -151l-35 -156c-2.66699 -14 -9.83398 -25.833 -21.501 -35.5
s-24.5 -14.5 -38.5 -14.5s-24.833 4.83301 -32.5 14.5s-10.167 21.5 -7.5 35.5l35 156l34 152c26.667 124.667 44 225 52 301c1.33301 14 7.5 26.333 18.5 37s23.5 16.667 37.5 18c7.33301 0.666992 13.666 0 18.999 -2c15.333 -0.666992 26.666 -7 33.999 -19l111 -177
c31.333 -50 57.666 -93.667 78.999 -131c118 136 217.667 239.667 299 311l9 7c12.667 10 26 14.667 40 14s24.667 -6 32 -16s9 -22 5 -36c-17.333 -70 -40.166 -173.833 -68.499 -311.5s-51.166 -240.167 -68.499 -307.5v0z" />
    <glyph glyph-name="N" unicode="N" horiz-adv-x="751" 
d="M552 -3c-4.66699 0 -9 0.666992 -13 2c-20 -3.33301 -34.667 2.33398 -44 17.001c-13.333 22 -26.833 46.833 -40.5 74.5s-24.834 51.5 -33.501 71.5l-33 79l-31 72c-30.667 70 -67 143.667 -109 221c-12.667 -56 -29 -138 -49 -246s-35.333 -187.667 -46 -239
c-3.33301 -14 -10.833 -25.833 -22.5 -35.5s-24.5 -14.5 -38.5 -14.5s-24.833 4.83301 -32.5 14.5s-9.83398 21.5 -6.50098 35.5c8.66699 40 26.334 130.5 53.001 271.5s49.334 249.5 68.001 325.5c2.66699 10 8 19.333 16 28c4.66699 12 12.667 22 24 30
c12.667 8.66699 25.667 12.167 39 10.5s23 -7.83398 29 -18.501c70 -118 127 -227.667 171 -329l27 -65l31 -74l28 -61c50.667 222 86.667 387.667 108 497c2.66699 14 9.66699 26 21 36s24 15 38 15s25.167 -4.66699 33.5 -14s10.833 -21 7.5 -35
c-16.667 -83.333 -61.667 -290 -135 -620c-2.66699 -13.333 -10 -24.833 -22 -34.5s-24.667 -14.5 -38 -14.5v0z" />
    <glyph glyph-name="O" unicode="O" horiz-adv-x="777" 
d="M350 -10c-54.667 0 -104.168 11.1699 -148.501 33.5029s-79.5 54.166 -105.5 95.499s-39 90 -39 146c0 80.667 19.333 155.667 58 225s89 124.333 151 165s126 61 192 61c6 0 12.833 -1 20.5 -3s12.834 -3 15.501 -3c46 0 89 -14 129 -42s71.833 -65.667 95.5 -113
s35.5 -98 35.5 -152c0 -70.667 -18.333 -137.834 -55 -201.501s-86 -114.834 -148 -153.501s-129 -58 -201 -58v0zM370.999 84.0029c46 0 90.8301 14.001 134.497 42.001s79 65.5 106 112.5s40.5 97.5 40.5 151.5c0 35.333 -6.16699 69 -18.5 101
s-31.166 58.833 -56.499 80.5s-56.666 34.5 -93.999 38.5c-26.667 2.66699 -51 4 -73 4c-49.333 -10.667 -93.166 -33 -131.499 -67s-67.833 -74.333 -88.5 -121s-31 -93.334 -31 -140.001c0 -68 18.667 -118.667 56 -152s89.333 -50 156 -50v0z" />
    <glyph glyph-name="P" unicode="P" horiz-adv-x="633" 
d="M53 47c2 6.66699 20.667 105.002 56 295.002c25.333 131.333 50 238 74 320c4.66699 14 13 25.333 25 34s25 12.667 39 12c6.66699 -0.666992 12.667 -2.66699 18 -6c81.333 16 152.333 19.667 213 11c106.667 -15.333 167.334 -65.333 182.001 -150
c4 -40.667 1.83301 -73.834 -6.5 -99.501s-20.833 -48.667 -37.5 -69s-35.834 -36.833 -57.501 -49.5s-43 -22.834 -64 -30.501s-42.833 -13.5 -65.5 -17.5c-71.333 -14 -147.666 -16.333 -228.999 -7c-24 -128 -39.667 -209 -47 -243
c-2.66699 -14 -9.83398 -25.833 -21.501 -35.5s-24.5 -14.5 -38.5 -14.5s-24.833 4.83301 -32.5 14.5s-10.167 21.5 -7.5 35.5v0zM219 389.002c4 0.666992 8.33301 1.00098 13 1.00098c71.333 -8.66699 137 -7 197 5c72 14 114.333 40.667 127 80
c3.33301 9.33301 4.33301 26.666 3 51.999c-8 48 -46.333 77 -115 87c-49.333 6.66699 -108 3.66699 -176 -9c-16 -58.667 -32.333 -130.667 -49 -216v0z" />
    <glyph glyph-name="Q" unicode="Q" horiz-adv-x="778" 
d="M637 -50c-54 19.333 -103.002 46.334 -147.002 81.001c-15.333 -6.66699 -32 -13 -50 -19c-85.333 -28.667 -168.666 -21.334 -249.999 21.999c-52.667 27.333 -90 66.833 -112 118.5s-28.833 106 -20.5 163s28.833 114.667 61.5 173s74.334 108.166 125.001 149.499
l24 16.5c8 5.66699 17 10.834 27 15.501l24 13c6 3.33301 14.667 7.33301 26 12l24 8c4 2 12.167 5.33301 24.5 10s18.833 7 19.5 7c18 6.66699 33 5 45 -5c53.333 10 100.5 8 141.5 -6s74.167 -38 99.5 -72c28 -36.667 45.833 -81.5 53.5 -134.5
s5.16699 -108.5 -7.5 -166.5c-10.667 -47.333 -25.834 -90.833 -45.501 -130.5s-49.167 -75.5 -88.5 -107.5c-4.66699 -2.66699 -9.33398 -6 -14.001 -10c28 -18 58.333 -33.333 91 -46c12 -4.66699 19.667 -13 23 -25s1.33301 -24.333 -6 -37s-17.666 -22 -30.999 -28
s-25.666 -6.66699 -36.999 -2v0zM413.998 100.001c-11.333 13.333 -22.666 27.668 -33.999 43.001c-8 8.66699 -10.5 20 -7.5 34s10.333 25.667 22 35s24.334 14 38.001 14s24.167 -4.66699 31.5 -14c20 -24.667 40 -46.334 60 -65.001c12.667 6.66699 23.667 14 33 22
c24 19.333 42.667 42.5 56 69.5s24.333 60.167 33 99.5c10.667 46 13.167 89.167 7.5 129.5s-18.834 73.833 -39.501 100.5c-44 56.667 -111.667 69.667 -203 39c-14 -4.66699 -26.333 -4.33398 -37 0.999023c-33.333 -13.333 -58.666 -27 -75.999 -41
c-53.333 -42.667 -92.333 -94 -117 -154s-30.834 -117.167 -18.501 -171.5s42.166 -94.166 89.499 -119.499c54.667 -28.667 108.667 -36 162 -22v0z" />
    <glyph glyph-name="R" unicode="R" horiz-adv-x="715" 
d="M566 -1c-27.333 0 -42.335 14.667 -45.002 44l-4 47c-3.33301 28 -6 56.667 -8 86c-5.33301 83.333 -50.333 125 -135 125c-40.667 0 -70.334 -0.666992 -89.001 -2l-44 -4c-17.333 -2 -31.333 -2.33301 -42 -1c-21.333 -110 -37.666 -191 -48.999 -243
c-2.66699 -16 -9.66699 -28.333 -21 -37s-23.666 -13 -36.999 -13c-14 0 -25.167 4.83301 -33.5 14.5s-10.5 23.167 -6.5 40.5l24 115l37 175l28 143l30 151c2 11.333 7.66699 21.666 17 30.999c4 9.33301 10.333 17.333 19 24s18.334 10.667 29.001 12
c51.333 7.33301 97.333 11 138 11c228 0 342 -60 342 -180c0 -46 -16.333 -87.167 -49 -123.5s-77.667 -62.166 -135 -77.499c16 -4.66699 30.833 -15 44.5 -31s22.5 -35.333 26.5 -58c4 -23.333 8 -51.833 12 -85.5s6.66699 -64.5 8 -92.5
c1.33301 -22 -4.16699 -39.333 -16.5 -52s-25.833 -19 -40.5 -19v0zM219.998 391c21.333 2.66699 45.334 3.99902 72.001 3.99902l37 1c18 0 30.333 0.333008 37 1c51.333 2.66699 101 12.334 149 29.001c32 10.667 56.167 24.5 72.5 41.5s24.5 36.5 24.5 58.5
c0 29.333 -20.667 52.833 -62 70.5s-98.333 26.5 -171 26.5c-40.667 0 -78.334 -2.33301 -113.001 -7l-9 -42l-37 -183v0z" />
    <glyph glyph-name="S" unicode="S" horiz-adv-x="648" 
d="M279 0c-82 0 -143.833 16.832 -185.5 50.499s-60.167 84.5 -55.5 152.5c0.666992 17.333 7 31.666 19 42.999s26.333 17 43 17c12 0 21.667 -2.83301 29 -8.5s11 -13.834 11 -24.501v-73c0 -16 12.667 -30.667 38 -44c24.667 -12.667 62.667 -19 114 -19
c29.333 0 59.5 5 90.5 15s56.833 24.167 77.5 42.5s31 38.833 31 61.5c0 14.667 -5.33301 27.334 -16 38.001s-23.667 19.5 -39 26.5s-38 15.833 -68 26.5c-46 15.333 -80.333 27.5 -103 36.5s-49 20.833 -79 35.5c-28 14 -49.667 33 -65 57s-23 50.667 -23 80
c0 40 13.167 75.333 39.5 106s60.833 54.334 103.5 71.001s88 25 136 25c43.333 0 85 -7 125 -21s72.5 -33.833 97.5 -59.5s37.5 -55.5 37.5 -89.5c0 -28 -5.66699 -49.833 -17 -65.5s-27.333 -23.5 -48 -23.5c-13.333 0 -24 3.83301 -32 11.5s-12 17.834 -12 30.501
c0 6 2 17 6 33c0 10.667 -6.66699 23 -20 37c-14.667 14.667 -34.667 26.834 -60 36.501s-54 14.5 -86 14.5c-52 0 -92.833 -8.5 -122.5 -25.5s-44.5 -40.833 -44.5 -71.5c0 -24.667 19.667 -46.334 59 -65.001c29.333 -14 76.333 -33 141 -57
c69.333 -25.333 119 -50 149 -74s45 -54 45 -90c0 -44.667 -16 -85 -48 -121s-72.5 -64.167 -121.5 -84.5s-97.833 -30.5 -146.5 -30.5v0z" />
    <glyph glyph-name="T" unicode="T" horiz-adv-x="568" 
d="M290 50c-2.66699 -14 -10 -25.6689 -22 -35.002s-25 -14 -39 -14s-24.667 5 -32 15s-9.33301 22 -6 36c5.33301 23.333 25 117.666 59 282.999c24.667 120.667 46.334 215.334 65.001 284.001c-72.667 0.666992 -134 0 -184 -2c-14 -0.666992 -25 3.5 -33 12.5
s-11 20 -9 33s9 24.5 21 34.5s24.667 15.333 38 16c58 2 133.667 2.83301 227 2.5s168.666 -0.5 225.999 -0.5c14 0 25.167 -4.66699 33.5 -14s11 -20.666 8 -33.999s-10.333 -24.666 -22 -33.999s-24.5 -14 -38.5 -14c-47.333 0 -103 -0.333008 -167 -1
c-18 -66.667 -39.667 -160.667 -65 -282c-34 -166 -54 -261.333 -60 -286v0z" />
    <glyph glyph-name="U" unicode="U" horiz-adv-x="732" 
d="M75 193c0 40.667 6.00195 87.834 18.002 141.501s30.667 127.167 56 220.5l30 110c4 16 11.833 28.667 23.5 38s23.834 14 36.501 14c15.333 0 26.833 -4.5 34.5 -13.5s9.5 -21.5 5.5 -37.5l-32 -115c-26.667 -96 -45.334 -166.5 -56.001 -211.5s-16 -82.833 -16 -113.5
c0 -45.333 12 -80 36 -104s59 -36 105 -36c67.333 0 125 27.667 173 83s83 129.666 105 222.999c8.66699 36.667 24.667 126.667 48 270c2.66699 16 9.66699 29 21 39s25 15 41 15c13.333 0 23.666 -4.33301 30.999 -13s9.66602 -20.334 6.99902 -35.001
c-12 -70 -18.667 -109.667 -20 -119c-17.333 -97.333 -28 -154.666 -32 -171.999c-26 -114 -71.667 -207 -137 -279s-149.333 -108 -252 -108c-69.333 0 -124.333 17.833 -165 53.5s-61 85.5 -61 149.5v0z" />
    <glyph glyph-name="V" unicode="V" horiz-adv-x="610" 
d="M228 2c-17.333 7.33301 -32.668 52.6699 -46.001 136.003l-17 100l-38 214l-27 199c-2 12.667 1.16699 25.334 9.5 38.001s19.333 21.5 33 26.5s26.334 4.66699 38.001 -1s18.834 -14.834 21.501 -27.501l33 -241c19.333 -114.667 35.666 -203.667 48.999 -267l114 192
c78.667 134 143 239.333 193 316c8.66699 12.667 19.834 21.5 33.501 26.5s26.167 4.66699 37.5 -1s18.166 -14.834 20.499 -27.501s-0.5 -25.334 -8.5 -38.001c-47.333 -72.667 -110.333 -176.334 -189 -311.001l-186 -307c-8 -12.667 -19 -21.667 -33 -27
s-26.667 -5.33301 -38 0v0z" />
    <glyph glyph-name="W" unicode="W" horiz-adv-x="913" 
d="M180 -1c-28.667 0 -43.0049 17.667 -43.0049 53c-1.33301 191.333 -10 392.666 -26 603.999c-2 18 3.5 33 16.5 45s27.833 18 44.5 18c10.667 0 20 -3 28 -9s12.333 -14.667 13 -26c6 -87.333 10.333 -207.666 13 -360.999l3 -121l197 373l52 97
c8.66699 15.333 17.667 27.166 27 35.499s21 12.5 35 12.5c12.667 0 22.334 -3.5 29.001 -10.5s10.334 -16.167 11.001 -27.5c1.33301 -19.333 10.666 -113.666 27.999 -282.999l21 -216l77 155l175 350c6 12 13.833 21 23.5 27s19.5 9 29.5 9c12 0 22.333 -3.66699 31 -11
s13 -16.666 13 -27.999c0 -8 -2.33301 -16.333 -7 -25l-321 -625c-5.33301 -10.667 -13.166 -19.167 -23.499 -25.5s-21.166 -9.5 -32.499 -9.5s-21.166 4 -29.499 12s-13.5 18 -15.5 30c-22.667 164 -41.667 318 -57 462l-134 -239l-59 -109
c-24.667 -44.667 -46 -85 -64 -121c-5.33301 -10.667 -13.166 -19.334 -23.499 -26.001s-20.833 -10 -31.5 -10v0z" />
    <glyph glyph-name="X" unicode="X" horiz-adv-x="566" 
d="M43 22c-10 -11.333 -22.1709 -18.167 -36.5039 -20.5s-26.333 0.5 -36 8.5s-14.167 18.833 -13.5 32.5s6.33398 26.167 17.001 37.5l270 286c-31.333 67.333 -70 158.333 -116 273c-4 12 -3 24.667 3 38s15.667 23.5 29 30.5s26.333 9 39 6s21.334 -10.5 26.001 -22.5
c46 -114 79.333 -194 100 -240l229 242c10 10.667 22.167 17.167 36.5 19.5s26 -0.666992 35 -9s13.333 -19.333 13 -33s-6.16602 -26.167 -17.499 -37.5l-253 -268l15 -24c17.333 -26 29.333 -45.667 36 -59c36.667 -70 67.667 -139.333 93 -208
c4.66699 -12 3.83398 -24.667 -2.49902 -38s-16.333 -23.5 -30 -30.5s-26.667 -8.66699 -39 -5s-20.5 11.5 -24.5 23.5c-25.333 67.333 -55 133.333 -89 198l-33 53l-5 7l-246 -260v0z" />
    <glyph glyph-name="Y" unicode="Y" horiz-adv-x="582" 
d="M194 50c2 11.333 5.16895 27.335 9.50195 48.002s9.16602 46.334 14.499 77.001l17 98l-75 195l-26 64c-26 66 -40.333 102.667 -43 110c-3.33301 10.667 -3.5 21.667 -0.5 33s9 20.833 18 28.5s19.833 11.5 32.5 11.5c13.333 0 23.5 -2.83301 30.5 -8.5
s12.833 -14.834 17.5 -27.501c0 -0.666992 6.33301 -17.334 19 -50.001c24 -69.333 56.333 -155.333 97 -258c12 15.333 37.333 44.666 76 87.999c51.333 59.333 92.666 108.666 123.999 147.999l67 84c6 8 13 14 21 18s15.667 6 23 6c11.333 0 21.333 -4 30 -12
s13 -17.333 13 -28c0 -12 -6 -25.667 -18 -41c-11.333 -14.667 -37.666 -47 -78.999 -97l-80 -94l-48 -57c-48.667 -56.667 -82.334 -97.667 -101.001 -123l-16 -87l-14 -80l-8 -41c-4 -17.333 -11.333 -30.666 -22 -39.999s-22.667 -14 -36 -14c-14.667 0 -26 4.5 -34 13.5
s-11 20.833 -9 35.5v0z" />
    <glyph glyph-name="Z" unicode="Z" horiz-adv-x="608" 
d="M501 -4c-136.667 8.66699 -266.667 9.99805 -390 3.99805l-9 -1c-5.33301 -0.666992 -10.833 -1.16699 -16.5 -1.5s-12.667 -0.666016 -21 -0.999023s-15.5 -0.166016 -21.5 0.500977c-49.333 4.66699 -76 27.334 -80 68.001c-0.666992 14 4.33301 29.333 15 46
c4 6.66699 10 14.667 18 24c11.333 13.333 27 29.666 47 48.999c23.333 24.667 50 51 80 79l85 79l93 88l80 77l84 78l6 7l12 11l12 12h-146c-85.333 0 -151.333 -1 -198 -3c-14.667 -2.66699 -26.834 -0.166992 -36.501 7.5s-14.5 18.334 -14.5 32.001
s5.16699 26.167 15.5 37.5s22.166 18.333 35.499 21c54 3.33301 127.333 5 220 5h219c1.33301 0 2.33301 -0.333008 3 -1c2.66699 -0.666992 5 -1.33398 7 -2.00098c7.33301 -2 13.666 -6.66699 18.999 -14c13.333 -20 12 -45 -4 -75
c-7.33301 -14 -18.666 -29.667 -33.999 -47c-9.33301 -11.333 -20.666 -23.333 -33.999 -36l-10 -10l-7 -7l-84 -78l-80 -77l-95 -90l-85 -79l-77 -75c-11.333 -11.333 -20 -20.333 -26 -27c4.66699 0 11.834 0.5 21.501 1.5s17.5 1.5 23.5 1.5
c127.333 6 260.666 4.66699 399.999 -4c14 -0.666992 24.333 -6.16699 31 -16.5s8.16699 -22.5 4.5 -36.5s-11.667 -25.5 -24 -34.5s-25.166 -13.167 -38.499 -12.5v0z" />
    <glyph glyph-name="bracketleft" unicode="[" horiz-adv-x="375" 
d="M204 -197c-0.666992 0 -1.83008 0.165039 -3.49707 0.498047s-3.83398 0.666016 -6.50098 0.999023s-5.5 0.666016 -8.5 0.999023s-6.33301 0.666016 -10 0.999023s-7.16699 0.833008 -10.5 1.5l-12 2l-13 2c-4 0.666992 -8.33301 1.33398 -13 2.00098
c-24 4 -43.667 7.66699 -59 11c-10 2 -17.667 4 -23 6c-13.333 4.66699 -23 10.667 -29 18c-14 18.667 -13.333 42.667 2 72l8 16c5.33301 18.667 10.166 38.334 14.499 59.001l15 72c5.66699 27.333 9.5 47 11.5 59l60 278c0 0.666992 4.66699 30.667 14 90
c6.66699 44.667 15 79.334 25 104.001c17.333 45.333 39.666 76.333 66.999 93c18.667 11.333 40.667 17 66 17c5.33301 0 10.333 -0.166992 15 -0.5s7.5 -0.5 8.5 -0.5s3.5 0.333008 7.5 1c6 0.666992 12.5 1.33398 19.5 2.00098s14.833 1.66699 23.5 3l19 3
c14 1.33301 25.667 -2.16699 35 -10.5s13.333 -19.333 12 -33s-7.33301 -26 -18 -37s-22.667 -17.5 -36 -19.5l-64 -8h-48c-3.33301 -6.66699 -7.66602 -16 -12.999 -28c-6.66699 -17.333 -12.667 -44 -18 -80c-10 -61.333 -15 -93.333 -15 -96l-60 -278
c-24.667 -116.667 -38.667 -182 -42 -196c-0.666992 -3.33301 -2.33398 -7 -5.00098 -11l43 -7l14 -2l12 -2l12 -2c4 -0.666992 7.5 -1.16699 10.5 -1.5s6.16699 -0.833008 9.5 -1.5s6.16602 -1 8.49902 -1s4.33301 -0.166992 6 -0.5s2.83398 -0.5 3.50098 -0.5l1 -1
c14 -1.33301 23.833 -7.66602 29.5 -18.999s6.16699 -23.833 1.5 -37.5s-13.5 -24.5 -26.5 -32.5s-25.833 -11 -38.5 -9h-2v0z" />
    <glyph glyph-name="backslash" unicode="\" horiz-adv-x="424" 
d="M234 20c-16 153.333 -46.334 368.665 -91.001 645.998c-0.666992 13.333 3.5 26 12.5 38s20.667 20 35 24s26.833 2.66699 37.5 -4s16.334 -16.667 17.001 -30c42.667 -314 72.667 -528 90 -642c2 -13.333 -1.5 -26.166 -10.5 -38.499s-20.5 -20.666 -34.5 -24.999
s-26.5 -3.33301 -37.5 3s-17.167 15.833 -18.5 28.5v0z" />
    <glyph glyph-name="bracketright" unicode="]" horiz-adv-x="341" 
d="M-26 -198c-13.333 -2 -24.6689 0.998047 -34.002 8.99805s-13.5 18.833 -12.5 32.5s6.66699 26 17 37s22.5 17.5 36.5 19.5c37.333 6 56.333 9 57 9c8 0.666992 19.667 0.666992 35 0c3.33301 5.33301 8 14.666 14 27.999l1 2l2 11c2 8.66699 4 20.334 6 35.001
c1.33301 9.33301 3.33301 21.333 6 36s4 23.334 4 26.001c12.667 68 37.667 189 75 363c0.666992 4 4.5 21.167 11.5 51.5l17.5 76.5l14 72l1 4c-4 0.666992 -8.66699 1.33398 -14 2.00098c-2 0 -21 0.333008 -57 1c-14 0 -24.667 5 -32 15s-9.5 22 -6.5 36
s10.5 25.667 22.5 35s25 14 39 14c38.667 -0.666992 59.667 -1 63 -1c16.667 -1.33301 30.334 -3.66602 41.001 -6.99902c20.667 -6 35 -15.667 43 -29c4 -6.66699 6 -14.667 6 -24c0.666992 -4 0.333984 -8.66699 -0.999023 -14c0 -7.33301 -1.33301 -17 -4 -29
c-3.33301 -18.667 -8.33301 -44 -15 -76l-17.5 -76c-7 -30 -10.833 -47 -11.5 -51c-36.667 -172.667 -61.334 -293 -74.001 -361c-0.666992 -2 -2.16699 -10 -4.5 -24s-4.16602 -25.667 -5.49902 -35c-2.66699 -16 -5 -29 -7 -39c-3.33301 -16 -6.33301 -27.667 -9 -35
c-20 -43.333 -42 -73.333 -66 -90c-18.667 -12.667 -39.667 -18.667 -63 -18c-5.33301 0.666992 -9.83301 1 -13.5 1s-5.5 0.166992 -5.5 0.5s-1.33301 0.166016 -4 -0.500977l-18 -2c-5.33301 -0.666992 -11.833 -1.66699 -19.5 -3s-13.5 -2 -17.5 -2v0z" />
    <glyph glyph-name="asciicircum" unicode="^" horiz-adv-x="527" 
d="M380 368l-14.9961 78.998c-4.66699 26 -9.33398 49.667 -14.001 71l-12 46l-180 -248c-8.66699 -12 -20 -20.333 -34 -25s-26.5 -4 -37.5 2s-17.5 15.5 -19.5 28.5s1.33301 25.833 10 38.5l96 132l93 129c0.666992 0.666992 1.16699 1.33398 1.5 2.00098
s0.666016 1.5 0.999023 2.5s1.16602 3.16699 2.49902 6.5l5 12c13.333 30.667 32.666 51.334 57.999 62.001c26.667 10.667 49 5.66699 67 -15c7.33301 -8 14.333 -20 21 -36c8.66699 -22 17.667 -54.333 27 -97l15 -72l15 -80c4.66699 -26.667 7.66699 -44.667 9 -54
c2.66699 -12.667 0 -25.5 -8 -38.5s-18.833 -22 -32.5 -27s-26.5 -4.83301 -38.5 0.5s-19 14.333 -21 27z" />
    <glyph glyph-name="underscore" unicode="_" horiz-adv-x="618" 
d="M-57 -156c-14 -0.666992 -24.998 3.66699 -32.998 13s-10.833 21 -8.5 35s9.16602 26 20.499 36s24.333 15.333 39 16c54.667 2 113.167 3 175.5 3s131.5 -0.5 207.5 -1.5s134.667 -1.5 176 -1.5c14 0 24.667 -4.83301 32 -14.5s9.66602 -21.5 6.99902 -35.5
s-10 -25.833 -22 -35.5s-25 -14.5 -39 -14.5c-41.333 0 -103 0.5 -185 1.5s-143.667 1.5 -185 1.5s-103 -1 -185 -3v0z" />
    <glyph glyph-name="grave" unicode="`" horiz-adv-x="237" 
d="M230 588l-40.998 37.5l-31 27.5c-12 10.667 -24 22 -36 34c-10.667 10 -17.334 21.333 -20.001 34s-0.166992 23.834 7.5 33.501s18.5 14.667 32.5 15s26 -3.83398 36 -12.501l27 -24l27.5 -24c6.33301 -5.33301 15.166 -13.666 26.499 -24.999l35 -34
c10 -10 15.5 -21.333 16.5 -34s-2.83301 -23.334 -11.5 -32.001s-19.667 -12.5 -33 -11.5s-25.333 6.16699 -36 15.5v0z" />
    <glyph glyph-name="a" unicode="a" horiz-adv-x="566" 
d="M192 -1c-32.667 0 -62.167 6.83008 -88.5 20.4971s-47.166 32.834 -62.499 57.501s-23 53 -23 85c0 38.667 7.5 74.167 22.5 106.5s36.833 66.5 65.5 102.5c39.333 48.667 81.666 87.5 126.999 116.5s90.666 43.5 135.999 43.5c33.333 0 66 -8.66699 98 -26
c14.667 -9.33301 27 -21.166 37 -35.499s15 -29.833 15 -46.5c0 -44.667 -3 -86.667 -9 -126c-7.33301 -43.333 -16.333 -89 -27 -137c-9.33301 -42.667 -16.666 -79.334 -21.999 -110.001c-2.66699 -16 -9.66699 -28.5 -21 -37.5s-23.666 -13.5 -36.999 -13.5
s-24.333 4.83301 -33 14.5s-11.667 22.834 -9 39.501l4 27c-21.333 -21.333 -47.833 -40.166 -79.5 -56.499s-62.834 -24.5 -93.501 -24.5v0zM217 98.9971c24 0 46.001 4.5 66.001 13.5s40.667 21.5 62 37.5c8.66699 6.66699 16.667 14.334 24 23.001l19 23
c18.667 85.333 28.334 152.333 29.001 201c-10.667 22 -32.334 33 -65.001 33c-26 0 -53.333 -8.83301 -82 -26.5s-56.334 -43.167 -83.001 -76.5c-44.667 -56.667 -67 -105.667 -67 -147c0 -24.667 9 -44.334 27 -59.001s41.333 -22 70 -22v0z" />
    <glyph glyph-name="b" unicode="b" horiz-adv-x="561" 
d="M54 0c-14 0.666992 -24.665 6.16895 -31.998 16.502s-9 22.166 -5 35.499l18 72l18 75.5c6.66699 27 12 49.833 16 68.5l14 67.5l12.5 61l16 76c7.66699 36.333 12.334 59.333 14.001 69s5.66699 31 12 64l11.5 59.5c2.66699 14 9.83398 26 21.501 36s24.5 15 38.5 15
s25 -4.66699 33 -14s10.333 -21 7 -35c-16.667 -94.667 -27.334 -153.334 -32.001 -176.001c10.667 8.66699 25 16.667 43 24c42.667 16.667 81.5 21.167 116.5 13.5s64.5 -25.167 88.5 -52.5c20 -24 34.5 -53.333 43.5 -88s12.833 -66 11.5 -94
c-6.66699 -84.667 -36.334 -155.667 -89.001 -213c-30.667 -33.333 -66.334 -57 -107.001 -71c-40.667 -14.667 -84.334 -18 -131.001 -10c-32 5.33301 -60 16 -84 32c-6 -10 -14.167 -18 -24.5 -24s-20.5 -8.66699 -30.5 -8v0zM229.002 98.002
c55.333 -8.66699 99.6641 4.99902 132.997 40.999s52 83.333 56 142c2.66699 49.333 -9.66602 90 -36.999 122c-26.667 30.667 -64.667 37.334 -114 20.001c-4.66699 -2 -9.16699 -4.16699 -13.5 -6.5s-8.83301 -5.83301 -13.5 -10.5l-14 -10
c-3.33301 -3.33301 -9.16602 -8.83301 -17.499 -16.5s-15.166 -13.5 -20.499 -17.5c-14 -69.333 -29 -137 -45 -203l1 -1c16 -32.667 44.333 -52.667 85 -60v0z" />
    <glyph glyph-name="c" unicode="c" horiz-adv-x="529" 
d="M244 -2c-38 -0.666992 -73.6719 6.00195 -107.005 20.002s-59 34.333 -77 61c-18 28 -26.667 61.5 -26 100.5s8.33398 76.167 23.001 111.5s33.667 69.333 57 102c18.667 24.667 39.334 46.5 62.001 65.5s48 35.333 76 49s56.333 21 85 22s58 -5.16699 88 -18.5
c15.333 -8 30 -20.667 44 -38l15 -18l11 -14c8.66699 -8.66699 12.167 -20 10.5 -34s-8.16699 -26.167 -19.5 -36.5s-24 -16.166 -38 -17.499s-25 2.66699 -33 12c-5.33301 4.66699 -11 11 -17 19l-12 17c-7.33301 9.33301 -14.333 15.333 -21 18
c-27.333 13.333 -56 13.166 -86 -0.500977s-58.667 -37.834 -86 -72.501c-28 -37.333 -45.833 -74.666 -53.5 -111.999s-4.16699 -67 10.5 -89c9.33301 -14 24.333 -25.333 45 -34s43.667 -13 69 -13c52 1.33301 89 19.666 111 54.999v5l2 8v3l4 18c4 14 12 25.5 24 34.5
s25 13.167 39 12.5s24.333 -6.16699 31 -16.5s8.33398 -22.5 5.00098 -36.5l-2 -8l-3 -14c-2.66699 -16.667 -8 -31.334 -16 -44.001c-23.333 -38.667 -54.666 -67.667 -93.999 -87s-79.666 -29.333 -120.999 -30v0z" />
    <glyph glyph-name="d" unicode="d" horiz-adv-x="573" 
d="M218 -2c-56.667 0 -100.831 18.333 -132.498 55s-47.5 83.667 -47.5 141s13.833 112 41.5 164s64.5 93.833 110.5 125.5s95 47.5 147 47.5c18 0 39.167 -2.5 63.5 -7.5s42.5 -11.167 54.5 -18.5l32 160c2.66699 14.667 9.66699 26.667 21 36s24.333 14 39 14
c15.333 0 26.5 -4.5 33.5 -13.5s9.16699 -20.5 6.5 -34.5l-124 -617c-2.66699 -14 -9.5 -25.833 -20.5 -35.5s-24.167 -14.5 -39.5 -14.5c-13.333 0 -23.333 4.16699 -30 12.5s-9.33398 18.5 -8.00098 30.5c-22.667 -14 -46.834 -25 -72.501 -33s-50.5 -12 -74.5 -12v0z
M240.003 98c26.667 0 55.166 7.5 85.499 22.5s51.5 33.167 63.5 54.5c18 84.667 31.667 152 41 202l-2 1c-23.333 24 -34.666 36.333 -33.999 37c-6.66699 4.66699 -17.5 8.5 -32.5 11.5s-29.5 4.5 -43.5 4.5c-32.667 0 -62.667 -10.333 -90 -31s-48.833 -47.667 -64.5 -81
s-23.5 -68.333 -23.5 -105c0 -35.333 8.83301 -63.5 26.5 -84.5s42.167 -31.5 73.5 -31.5v0z" />
    <glyph glyph-name="e" unicode="e" horiz-adv-x="582" 
d="M282 1c-47.333 0 -89.001 8.83105 -125.001 26.498s-64 43.167 -84 76.5s-30 73 -30 119c0 60 14 113.333 42 160s64.667 82.834 110 108.501s92.333 38.5 141 38.5c45.333 0 84.333 -10.5 117 -31.5s57.5 -50.333 74.5 -88s25.5 -80.5 25.5 -128.5
c0 -18.667 -7.66699 -34 -23 -46s-32.333 -18 -51 -18l-336 2c0 -38.667 13.667 -69 41 -91s65.333 -33 114 -33c36 0 66.667 5.33301 92 16l29.5 12.5c9 3.66699 17.167 5.5 24.5 5.5c10.667 0 19.834 -3.66699 27.501 -11s11.5 -16.333 11.5 -27
c0 -12.667 -3.66699 -23.667 -11 -33s-18.333 -17.666 -33 -24.999c-44 -22 -96.333 -33 -157 -33v0zM177.999 315.998c39.333 0 84.5 0.166992 135.5 0.5s97.167 0.166016 138.5 -0.500977c-2.66699 38.667 -15 68.334 -37 89.001s-52 31 -90 31
c-40 0 -76.5 -11.5 -109.5 -34.5s-54.167 -51.5 -63.5 -85.5h26z" />
    <glyph glyph-name="f" unicode="f" horiz-adv-x="310" 
d="M90 0c-31.333 0 -45.666 16.3311 -42.999 48.998c8.66699 85.333 24 183.333 46 294l15 75h-8c-12.667 0 -22.834 3.33301 -30.501 10s-11.5 16.334 -11.5 29.001c0 17.333 5.66699 32.166 17 44.499s24.666 18.5 39.999 18.5h18c8 34.667 19.333 67.5 34 98.5
s31.334 54.833 50.001 71.5c11.333 10 25.833 18.333 43.5 25s34.167 10 49.5 10c25.333 0 45.166 -4.16699 59.499 -12.5s21.5 -20.5 21.5 -36.5c0 -17.333 -5.16699 -31.666 -15.5 -42.999s-23.166 -17 -38.499 -17c-6 0 -14.333 1.33301 -25 4l-10.5 2
c-3.66699 0.666992 -7.16699 1 -10.5 1c-13.333 0 -25 -12.667 -35 -38c-9.33301 -24 -17 -45.667 -23 -65h43c13.333 0 23.5 -3.66699 30.5 -11s10.5 -16.666 10.5 -27.999c0 -16 -6 -30.167 -18 -42.5s-26.667 -18.5 -44 -18.5h-47l-15 -76
c-29.333 -148 -44 -242.333 -44 -283c0 -18.667 -5.83301 -33.5 -17.5 -44.5s-25.5 -16.5 -41.5 -16.5v0z" />
    <glyph glyph-name="g" unicode="g" horiz-adv-x="564" 
d="M171 -206c-54 0 -98.5 12.667 -133.5 38s-52.5 58.333 -52.5 99c0 18 6.33301 32.833 19 44.5s26.667 17.5 42 17.5c10.667 0 20 -3 28 -9s12.333 -14.667 13 -26v-22c0 -14.667 8.83301 -26 26.5 -34s39.5 -12 65.5 -12s51.167 5.66699 75.5 17
s45.166 26.666 62.499 45.999c18.667 21.333 33.334 52 44.001 92c-39.333 -31.333 -83 -47 -131 -47c-40 0 -74.333 8.83301 -103 26.5s-50.5 41.667 -65.5 72s-22.5 64.166 -22.5 101.499c0 56.667 12.5 110.334 37.5 161.001s58.667 91.5 101 122.5
s87.833 46.5 136.5 46.5c29.333 0 54.666 -5 75.999 -15s37.333 -23.333 48 -40c11.333 37.333 30.333 56 57 56c14 0 25.333 -5 34 -15s12 -23.667 10 -41c-9.33301 -70.667 -25.666 -166 -48.999 -286c-13.333 -64.667 -27.333 -120.334 -42 -167.001
c-18.667 -61.333 -45.667 -111.666 -81 -150.999c-21.333 -23.333 -50.5 -41.666 -87.5 -54.999s-73.167 -20 -108.5 -20v0zM260 95c38 0 68.001 9.83203 90.001 29.499s36.667 49.5 44 89.5c6 29.333 11.333 59 16 89l5 32c0.666992 11.333 -2.33301 22.333 -9 33
s-17 22 -31 34c-6 6 -15.833 11.667 -29.5 17s-28.5 8 -44.5 8c-26.667 0 -54.334 -11.333 -83.001 -34c-24 -19.333 -42.833 -45.666 -56.5 -78.999s-20.5 -69 -20.5 -107c0 -37.333 10.833 -65.333 32.5 -84s50.5 -28 86.5 -28v0z" />
    <glyph glyph-name="h" unicode="h" horiz-adv-x="546" 
d="M434 48c-3.33301 -14 -10.999 -25.665 -22.999 -34.998s-24.833 -13.833 -38.5 -13.5s-24 5.5 -31 15.5s-9.16699 21.667 -6.5 35c0 0.666992 8.66699 32 26 94c18 68 29.667 119.667 35 155c11.333 83.333 -8.33398 127 -59.001 131c-26 2 -49.667 -2.5 -71 -13.5
s-44 -30.167 -68 -57.5c-1.33301 -2 -5 -6.66699 -11 -14c-25.333 -144 -43.666 -242.667 -54.999 -296c-3.33301 -14 -10.833 -25.833 -22.5 -35.5s-24.5 -14.5 -38.5 -14.5s-24.833 4.83301 -32.5 14.5s-9.83398 21.5 -6.50098 35.5l58 311c24 132.667 45.667 238 65 316
c3.33301 13.333 11 24.833 23 34.5s24.833 14.167 38.5 13.5s24.167 -6 31.5 -16s9.33301 -22 6 -36c-4.66699 -18 -19.667 -87.667 -45 -209c52.667 49.333 105.667 71.666 159 66.999c105.333 -9.33301 148.333 -83.666 129 -222.999
c-6 -38.667 -12.5 -72.334 -19.5 -101.001s-15.5 -60.334 -25.5 -95.001l-18 -63v0z" />
    <glyph glyph-name="i" unicode="i" horiz-adv-x="220" 
d="M14 48c9.33301 50 25.833 126.667 49.5 230s38.834 171 45.501 203c2.66699 14 9.83398 25.833 21.501 35.5s24.5 14.5 38.5 14.5s24.833 -4.83301 32.5 -14.5s10.167 -21.5 7.5 -35.5c-6.66699 -32 -21.834 -99.333 -45.501 -202s-40.167 -179 -49.5 -229
c-2.66699 -14 -9.83398 -26 -21.501 -36s-24.5 -15 -38.5 -15s-25 4.66699 -33 14s-10.333 21 -7 35v0zM237 700c8 -9.33301 10.5 -21 7.5 -35s-10.333 -25.833 -22 -35.5s-24.5 -14.5 -38.5 -14.5s-24.833 4.83301 -32.5 14.5s-10 21.5 -7 35.5s10.333 25.833 22 35.5
s24.5 14.5 38.5 14.5s24.667 -5 32 -15v0z" />
    <glyph glyph-name="j" unicode="j" horiz-adv-x="238" 
d="M-65 -186c-12 0 -21.668 4.16699 -29.001 12.5s-11 18.5 -11 30.5c0 9.33301 3 18.666 9 27.999s14.667 17 26 23c6.66699 4 13.667 7 21 9c8 3.33301 15.5 7 22.5 11s12.5 8.33301 16.5 13c5.33301 6 9.83301 14 13.5 24s8.16699 24 13.5 42
c10 32.667 23 89.334 39 170.001l9 45c18 86.667 34 172 48 256c2.66699 14.667 9.33398 27 20.001 37s23.667 15 39 15c14 0 25 -4.66699 33 -14s11 -20.666 9 -33.999c-15.333 -96 -33.333 -190.667 -54 -284l-4 -20c-19.333 -93.333 -34.333 -157.333 -45 -192
c-19.333 -66.667 -44.333 -110.334 -75 -131.001c-16 -10.667 -33.833 -20.167 -53.5 -28.5s-35.5 -12.5 -47.5 -12.5v0zM185.999 614c-14 0 -24.668 3.83301 -32.001 11.5s-11 17.5 -11 29.5c0 16 6.33301 30.167 19 42.5s27.334 18.5 44.001 18.5
c12 0 21.667 -3.83301 29 -11.5s11 -17.5 11 -29.5c0 -15.333 -6 -29.333 -18 -42s-26 -19 -42 -19v0z" />
    <glyph glyph-name="k" unicode="k" horiz-adv-x="491" 
d="M356 16c-58.667 84.667 -101.338 163.997 -128.005 237.997l-63 -45c-2 -1.33301 -3.66699 -2.33301 -5 -3c-12 -52 -25.333 -105 -40 -159c-3.33301 -14 -11.166 -25.667 -23.499 -35s-25.166 -13.666 -38.499 -12.999s-23.666 6.16699 -30.999 16.5
s-9.33301 22.166 -6 35.499c40 153.333 87.333 358.333 142 615c3.33301 14 10.833 25.833 22.5 35.5s24.5 14.5 38.5 14.5s24.833 -4.83301 32.5 -14.5s9.83398 -21.5 6.50098 -35.5l-72 -328c114.667 81.333 194.667 140 240 176c10.667 10.667 23.167 16.334 37.5 17.001
s25.666 -3.5 33.999 -12.5s11.333 -20.5 9 -34.5s-9.16602 -26 -20.499 -36c-40.667 -32.667 -97.667 -75.667 -171 -129c24.667 -73.333 66 -152.333 124 -237c7.33301 -10 9.16602 -21.833 5.49902 -35.5s-11.667 -25.167 -24 -34.5s-25.166 -13.666 -38.499 -12.999
s-23.666 6.33398 -30.999 17.001v0z" />
    <glyph glyph-name="l" unicode="l" horiz-adv-x="231" 
d="M117 48c-4 -14 -12.001 -25.668 -24.001 -35.001s-24.833 -13.666 -38.5 -12.999s-24.167 6 -31.5 16s-9 22 -5 36c21.333 88.667 36.833 156 46.5 202l41.5 206c18 91.333 32 160 42 206c3.33301 14 10.833 25.833 22.5 35.5s24.5 14.5 38.5 14.5
s24.833 -4.83301 32.5 -14.5s9.83398 -21.5 6.50098 -35.5c-10 -46 -23.333 -111.333 -40 -196s-32.5 -161.5 -47.5 -230.5l-43.5 -191.5v0z" />
    <glyph glyph-name="m" unicode="m" horiz-adv-x="827" 
d="M626 44c2 12 3.49902 23.166 4.49902 33.499s1.83301 18 2.5 23s1.33398 9.33301 2.00098 13s1.33398 7.83398 2.00098 12.501l2 10l5 20l5 27l14 56.5c6.66699 27 11.834 49.833 15.501 68.5s5.5 36.334 5.5 53.001c1.33301 23.333 -2 40.166 -10 50.499
s-22.333 15.5 -43 15.5c-46 -0.666992 -98 -28.667 -156 -84c-2 -20 -9 -58.667 -21 -116c-9.33301 -42 -21 -100.667 -35 -176c-2 -13.333 -8.83301 -25 -20.5 -35s-24.5 -15.333 -38.5 -16s-25 3.83301 -33 13.5s-10.667 21.5 -8 35.5
c14 75.333 25.667 134.666 35 177.999l5 26l5 24l4 21c2 10.667 3.33301 18.5 4 23.5s1.5 11.667 2.5 20s1.66699 15.666 2 21.999s0.166016 12.5 -0.500977 18.5c-1.33301 18.667 -6 31.667 -14 39c-8 8 -22.333 11 -43 9c-22.667 -2 -43 -8 -61 -18
c-17.333 -10 -36.333 -26 -57 -48c-4 -4 -8.33301 -7.66699 -13 -11c-26 -133.333 -47.667 -235 -65 -305c-4 -14 -12 -25.667 -24 -35s-24.833 -13.666 -38.5 -12.999s-24.167 6 -31.5 16s-9 22 -5 36l32 142.5c4.66699 21 14.167 69.333 28.5 145
s23.833 124.167 28.5 145.5c2 10 8.83301 20 20.5 30s24.167 15 37.5 15s24 -4.33301 32 -13s11.667 -17.334 11 -26.001c36 22 75.333 35 118 39c46.667 4 83 -6.33301 109 -31c12 -12 21 -26.667 27 -44c62 49.333 123.667 74.333 185 75
c49.333 0.666992 85.666 -14.666 108.999 -45.999c18 -27.333 26.333 -62.333 25 -105c-0.666992 -20 -3.16699 -41.833 -7.5 -65.5s-10.166 -50.334 -17.499 -80.001s-11.666 -46.5 -12.999 -50.5l-5 -27l-4 -18l-2 -10
c-0.666992 -3.33301 -1.16699 -6.66602 -1.5 -9.99902s-0.833008 -7.16602 -1.5 -11.499s-1.83398 -11.5 -3.50098 -21.5s-2.83398 -21 -3.50098 -33c-2.66699 -14 -9.5 -26.167 -20.5 -36.5s-23.5 -16 -37.5 -17s-25.167 3 -33.5 12s-11.833 20.167 -10.5 33.5v0z" />
    <glyph glyph-name="n" unicode="n" horiz-adv-x="558" 
d="M63 0c-15.333 0 -26.4951 5.16797 -33.4951 15.501s-8.83301 21.833 -5.5 34.5c11.333 52 40.666 195.667 87.999 431c3.33301 15.333 10.666 27.333 21.999 36s23.666 13 36.999 13c15.333 0 26.833 -5.16699 34.5 -15.5s9.83398 -22.166 6.50098 -35.499l-10 -40
c26 30 52.333 52.5 79 67.5s56 22.5 88 22.5c46 0 81.333 -13.5 106 -40.5s37 -63.5 37 -109.5c0 -32.667 -3.83301 -70.834 -11.5 -114.501s-15.834 -80.5 -24.501 -110.5c-4.66699 -14.667 -15.334 -51.334 -32.001 -110.001c-4 -13.333 -11.5 -24 -22.5 -32
s-22.833 -12 -35.5 -12c-14.667 0 -25.667 5.16699 -33 15.5s-9.33301 21.833 -6 34.5c3.33301 19.333 13.333 56.333 30 111c9.33301 29.333 16.833 61.833 22.5 97.5s8.5 65.167 8.5 88.5c0 28 -6.33301 49.5 -19 64.5s-30.667 22.5 -54 22.5
c-26.667 0 -54.334 -11.667 -83.001 -35s-54 -53 -76 -89l-36 -178l-16 -82c-3.33301 -15.333 -11 -27.5 -23 -36.5s-24.667 -13.5 -38 -13.5v0z" />
    <glyph glyph-name="o" unicode="o" horiz-adv-x="587" 
d="M249 0c-62.667 0 -113 18.498 -151 55.498s-57 86.833 -57 149.5c0 54.667 11.833 105.834 35.5 153.501s54.334 86.5 92.001 116.5s77.167 47 118.5 51c9.33301 0.666992 16.166 1.5 20.499 2.5s8.16602 1.5 11.499 1.5c8 0 14.667 -1.33301 20 -4h30
c32.667 0 62.834 -9 90.501 -27s49.5 -42.667 65.5 -74s24 -66 24 -104c0 -52.667 -13 -103.667 -39 -153s-62 -89.666 -108 -120.999s-97 -47 -153 -47v0zM267 96.998c29.333 0 58.001 9.33105 86.001 27.998s50.833 44.334 68.5 77.001s26.5 68.667 26.5 108
c0 34 -9.16699 62.333 -27.5 85s-39.5 34 -63.5 34c-14.667 0 -27.334 0.666992 -38.001 2c-4.66699 0.666992 -9 1.5 -13 2.5s-8 1.5 -12 1.5c-12.667 0 -27.667 -5 -45 -15c-27.333 -16 -52 -41.667 -74 -77s-33 -76.333 -33 -123c0 -39.333 10.5 -69.666 31.5 -90.999
s52.167 -32 93.5 -32v0z" />
    <glyph glyph-name="p" unicode="p" horiz-adv-x="579" 
d="M77 -151c-2.66699 -14 -10.002 -25.667 -22.002 -35s-25 -14 -39 -14s-24.667 5 -32 15s-9.33301 22 -6 36c30.667 131.333 76.667 341 138 629c2.66699 14 9.83398 25.833 21.501 35.5s24.5 14.5 38.5 14.5c10 0 18.167 -4.5 24.5 -13.5s10.166 -20.167 11.499 -33.5
l16 9c45.333 24 87.833 37 127.5 39s73.167 -6.66699 100.5 -26c26 -16.667 45.833 -40 59.5 -70s21.5 -62.667 23.5 -98c2 -25.333 0.333008 -52.333 -5 -81s-14.666 -55.334 -27.999 -80.001s-30.166 -49 -50.499 -73s-46.333 -45 -78 -63s-66.167 -30.333 -103.5 -37
c-64 -11.333 -115.333 -0.666016 -154 32.001l-43 -186v0zM276.998 101c52.667 9.33301 93.335 33.499 122.002 72.499s41.667 84.833 39 137.5c-3.33301 52 -20.333 87.667 -51 107c-30.667 20.667 -72.334 16.667 -125.001 -12c-24 -12.667 -38.333 -21 -43 -25l-5.5 -5.5
c-1.66699 -1.66699 -4.83398 -5.5 -9.50098 -11.5l-17 -18l-35 -164c2.66699 -3.33301 4.66699 -7 6 -11c12 -29.333 27.167 -49.666 45.5 -60.999s42.833 -14.333 73.5 -9v0z" />
    <glyph glyph-name="q" unicode="q" horiz-adv-x="584" 
d="M435 -146c-3.33301 -13.333 -11.0039 -24.835 -23.0039 -34.502s-24.833 -14.167 -38.5 -13.5s-24.167 6 -31.5 16s-9.33301 22 -6 36l47 194c-22.667 -16 -43.667 -28 -63 -36c-41.333 -17.333 -85.666 -21.333 -132.999 -12c-34 6.66699 -62.333 19.334 -85 38.001
s-38.667 40.5 -48 65.5s-14.666 50.333 -15.999 76s0.833984 49.834 6.50098 72.501s14.167 46.667 25.5 72c20 38 44 72 72 102s56.333 53.333 85 70c90.667 50 171.667 41.333 243 -26l3 -1c6.66699 20 15.334 33.833 26.001 41.5s21.667 11.5 33 11.5
c14 0 25 -4.66699 33 -14s10.667 -21 8 -35l-23 -112c0 -5.33301 -1 -10.333 -3 -15c-30 -150 -67.333 -315.333 -112 -496v0zM225.996 101.998c27.333 -5.33301 50.998 -4.00098 70.998 3.99902c9.33301 4 19.333 9.83301 30 17.5s19.167 14.167 25.5 19.5
s16.833 15.333 31.5 30l33 30l29 137l-8 11c-3.33301 6 -6 10.333 -8 13c-4 5.33301 -14 14 -30 26c-47.333 33.333 -92.666 40 -135.999 20c-40 -18.667 -74.333 -55 -103 -109c-23.333 -41.333 -29.666 -82.666 -18.999 -123.999s38.667 -66.333 84 -75v0z" />
    <glyph glyph-name="r" unicode="r" horiz-adv-x="362" 
d="M65 0c-14.667 0 -26 4.99902 -34 14.999s-10.667 22.333 -8 37l42 202l46 222c4 18 11.5 31.5 22.5 40.5s23.167 13.5 36.5 13.5c14.667 0 26 -4.83301 34 -14.5s10.667 -20.5 8 -32.5l-6 -24c12 13.333 27 25.333 45 36c38 20.667 76 30.334 114 29.001
c16.667 -0.666992 29.667 -5.16699 39 -13.5s14 -18.5 14 -30.5c0 -15.333 -5.66699 -28.5 -17 -39.5s-25.333 -16.5 -42 -16.5c-21.333 0 -41.833 -3 -61.5 -9s-36.834 -13.667 -51.501 -23c-27.333 -16 -49 -35.333 -65 -58l-26 -127l-32 -157
c-2.66699 -16 -9.66699 -28.333 -21 -37s-23.666 -13 -36.999 -13v0z" />
    <glyph glyph-name="s" unicode="s" horiz-adv-x="497" 
d="M207 0c-36 0 -67 4.32812 -93 12.9951s-46.333 19 -61 31c-13.333 11.333 -23.833 24.833 -31.5 40.5s-11.834 32.5 -12.501 50.5c-0.666992 25.333 5.16602 46 17.499 62s28.5 24 48.5 24c10.667 -0.666992 20.167 -4 28.5 -10s12.5 -14.333 12.5 -25
c0 -8 -1 -15.667 -3 -23c-0.666992 -3.33301 -1.33398 -7 -2.00098 -11s-1 -8 -1 -12c0 -12.667 9.33301 -23.167 28 -31.5s47.334 -12.5 86.001 -12.5c34 0 62.167 7.16699 84.5 21.5s33.5 31.833 33.5 52.5c0 12 -5.16699 21.5 -15.5 28.5s-30.166 13.833 -59.499 20.5
c-16 4 -38 9 -66 15c-41.333 8.66699 -73.166 23.834 -95.499 45.501s-33.5 49.834 -33.5 84.501c0 28.667 9.66699 55.834 29 81.501s45.333 46.167 78 61.5s68.334 23 107.001 23c31.333 0 57.833 -3.16699 79.5 -9.5s41.5 -15.5 59.5 -27.5c40 -26 61 -52.667 63 -80
c1.33301 -13.333 -3 -25.333 -13 -36s-22 -16 -36 -16c-19.333 0 -38.333 9.33301 -57 28c-14.667 14.667 -31 25.834 -49 33.501s-41.333 11.5 -70 11.5c-26.667 0 -48 -5.5 -64 -16.5s-24 -23.5 -24 -37.5c0 -12.667 4.66699 -23 14 -31s26 -15 50 -21
c48 -11.333 79.333 -19 94 -23c37.333 -10 65.166 -24.667 83.499 -44s27.5 -45.666 27.5 -78.999c0 -35.333 -11.667 -66.833 -35 -94.5s-53.333 -49.167 -90 -64.5s-74 -23 -112 -23v0z" />
    <glyph glyph-name="t" unicode="t" horiz-adv-x="307" 
d="M176 3c-3.33301 1.33301 -10.9951 3.3291 -22.9951 5.99609s-22.167 5.66699 -30.5 9s-17.666 8.16602 -27.999 14.499s-19 15 -26 26s-12.167 24.167 -15.5 39.5c-3.33301 18 -0.333008 53.333 9 106c6.66699 40.667 17.334 93 32.001 157l14 60l-8 -1
c-14.667 -1.33301 -26.334 2.33398 -35.001 11.001s-12.334 19.834 -11.001 33.501s7.33301 25.834 18 36.501s23 17 37 19l23 2l26 107c4 14 12 25.667 24 35s24.833 13.666 38.5 12.999s24.167 -6 31.5 -16s9 -22 5 -36l-23 -95l44 2
c14 0.666992 25.167 -3.33301 33.5 -12s11.5 -20 9.5 -34s-8.33301 -26.167 -19 -36.5s-23.334 -16.166 -38.001 -17.499l-54 -2l-16 -70c-14.667 -62.667 -25.334 -113.667 -32.001 -153c-6.66699 -40 -9.33398 -63 -8.00098 -69s2.33301 -10.167 3 -12.5
s2.66699 -4.66602 6 -6.99902s7 -3.83301 11 -4.5s11.167 -2.5 21.5 -5.5s21.166 -6.83301 32.499 -11.5c12 -4 19.833 -12.167 23.5 -24.5s2 -25 -5 -38s-17.333 -22.667 -31 -29s-26.834 -7.16602 -39.501 -2.49902v0z" />
    <glyph glyph-name="u" unicode="u" horiz-adv-x="557" 
d="M379 0c-12 0.666992 -21.6699 5.33496 -29.0029 14.002s-9.33301 23.334 -6 44.001c-36.667 -26.667 -72 -44 -106 -52c-49.333 -12 -90.333 -4.33301 -123 23c-32 26.667 -52 70.667 -60 132c-2.66699 21.333 -3.66699 43.333 -3 66c0.666992 23.333 4 48.166 10 74.499
l15 64c4 16.333 10.333 38.666 19 66.999s14.334 46.166 17.001 53.499c4 13.333 12.167 24.5 24.5 33.5s25.166 13 38.499 12s23.5 -6.66699 30.5 -17s8.5 -22.5 4.5 -36.5c-2.66699 -10 -8.5 -29 -17.5 -57s-15.167 -48.833 -18.5 -62.5s-7.5 -31.667 -12.5 -54
s-7.83301 -42.333 -8.5 -60s0 -34.834 2 -51.501c6 -40.667 18.667 -68.334 38 -83.001c8 -6 22.667 -9 44 -9c29.333 4.66699 54.166 13 74.499 25s42.833 39.333 67.5 82c20 88.667 38 178.667 54 270c2.66699 14 9.83398 26 21.501 36s24.334 15.333 38.001 16
s24.5 -3.83301 32.5 -13.5s11 -21.167 9 -34.5c-28 -157.333 -59.333 -302.333 -94 -435c-3.33301 -13.333 -11.166 -24.666 -23.499 -33.999s-25.166 -13.666 -38.499 -12.999v0z" />
    <glyph glyph-name="v" unicode="v" horiz-adv-x="480" 
d="M172 0c-13.333 -0.666992 -24.002 2.66797 -32.002 10.001c-3.33301 2.66699 -5.66602 5.66699 -6.99902 9c-2.66699 2.66699 -4.66699 5.66699 -6 9l-5 14l-8 33l-10 45c-5.33301 26 -15.833 85.5 -31.5 178.5s-25.167 147.833 -28.5 164.5
c-2 12.667 1.16699 25.334 9.5 38.001s19.333 21.5 33 26.5s26.334 4.66699 38.001 -1s18.834 -14.834 21.501 -27.501c2 -14.667 11.167 -69.334 27.5 -164.001l30.5 -177l2 -9c4 4.66699 7.5 9.5 10.5 14.5s5.5 9 7.5 12s3.66699 5.83301 5 8.5l2 4
c7.33301 10.667 35 56 83 136s87.333 140 118 180c8.66699 12 20.167 20 34.5 24s26.833 2.66699 37.5 -4s16.5 -16.667 17.5 -30s-3.16699 -26 -12.5 -38c-29.333 -38.667 -65.5 -94 -108.5 -166l-85.5 -142l-41 -61c-13.333 -18.667 -25.333 -34 -36 -46
c-8 -8.66699 -15.333 -15.667 -22 -21c-14.667 -12 -29.334 -18.667 -44.001 -20v0z" />
    <glyph glyph-name="w" unicode="w" horiz-adv-x="669" 
d="M140 0c-14 0 -24.833 4.16406 -32.5 12.4971s-12.834 21.5 -15.501 39.5l-5 44c-4 41.333 -9.33301 91 -16 149c-10.667 82 -17.334 151.667 -20.001 209c-1.33301 23.333 3.33398 41.5 14.001 54.5s25.667 19.5 45 19.5c10.667 0 19.834 -4 27.501 -12
s11.834 -18.667 12.501 -32c2.66699 -40.667 6 -78.667 10 -114l8 -93l8 -77l19 38c17.333 36.667 33 67.334 47 92.001l29 56l34 66c18 32.667 41 49 69 49c16 0 28.333 -5.16699 37 -15.5s14.334 -26.166 17.001 -47.499l33 -273l31 67l49 107l17 40
c26 59.333 42 94.333 48 105c8 15.333 16.667 26.5 26 33.5s20.333 10.5 33 10.5c16 0 27.667 -6.5 35 -19.5s7 -28.167 -1 -45.5c-2.66699 -5.33301 -5.33398 -11.166 -8.00098 -17.499s-5.66699 -12.833 -9 -19.5l-52 -115c-32.667 -72 -70.667 -146 -114 -222
c-5.33301 -10.667 -9.33301 -18 -12 -22c-14 -24.667 -26.333 -42 -37 -52s-22.334 -15 -35.001 -15c-14 0 -25.667 4.16699 -35 12.5s-15 19.5 -17 33.5c-9.33301 77.333 -22.333 172.333 -39 285c-62.667 -114 -107 -202.667 -133 -266c-18 -43.333 -40.667 -65 -68 -65v0
z" />
    <glyph glyph-name="x" unicode="x" horiz-adv-x="467" 
d="M211 200c-48.667 -52.667 -97.999 -111.002 -147.999 -175.002c-9.33301 -12 -21 -19.833 -35 -23.5s-26.333 -2 -37 5s-16.334 17.167 -17.001 30.5s3.66602 26 12.999 38l178 210l-89 165c-6 11.333 -6.5 23.833 -1.5 37.5s14 24.667 27 33s26 11.333 39 9
s22.5 -8.83301 28.5 -19.5l75 -137l139 139c11.333 10.667 24 16.834 38 18.501s25.333 -1.83301 34 -10.5s12.334 -19.667 11.001 -33c-0.666992 -14 -6.66699 -26.333 -18 -37c-52.667 -50.667 -105.667 -104.667 -159 -162l111 -210
c5.33301 -11.333 5.33301 -23.666 0 -36.999s-14.5 -24 -27.5 -32s-25.833 -10.667 -38.5 -8s-22 9.66699 -28 21z" />
    <glyph glyph-name="y" unicode="y" horiz-adv-x="443" 
d="M-54 -201c-16 0 -28.334 3.99512 -37.001 11.9951s-13 18.667 -13 32c0 14 5.33301 26.5 16 37.5s24 17.167 40 18.5c24 2 42 4.33301 54 7s22.333 6.66699 31 12c18.667 10.667 35.334 29.334 50.001 56.001c10 18 17.333 29.333 22 34
c-3.33301 4.66699 -5.66602 11 -6.99902 19c-0.666992 48.667 -9.33398 124.667 -26.001 228c-13.333 84 -22.666 155 -27.999 213c-1.33301 16.667 3.16699 31 13.5 43s24.166 18 41.499 18c12.667 0 23 -4.16699 31 -12.5s12.333 -20.166 13 -35.499
c1.33301 -22.667 9.66602 -89.667 24.999 -201l15 -112l43 76c70 124.667 121 211.667 153 261c12 17.333 27.667 26.666 47 27.999c11.333 0.666992 21.166 -2.66602 29.499 -9.99902s12.833 -16.666 13.5 -27.999c0 -12 -3.66699 -23.667 -11 -35
c-10.667 -14.667 -26 -39.667 -46 -75l-29 -49l-56 -93.5l-55 -95.5l-30 -54l-14 -28c-4 -7.33301 -12.333 -24.666 -25 -51.999c-13.333 -26.667 -26.666 -52 -39.999 -76c-24 -43.333 -54.333 -76.666 -91 -99.999c-41.333 -25.333 -84.666 -38 -129.999 -38v0z" />
    <glyph glyph-name="z" unicode="z" horiz-adv-x="472" 
d="M177 0c-52 -0.666992 -92.6689 -0.00292969 -122.002 1.99707c-19.333 1.33301 -34.666 3.33301 -45.999 6c-8 2 -15 4.33301 -21 7c-13.333 7.33301 -21.666 18 -24.999 32c-1.33301 11.333 1.33398 23 8.00098 35c2 4 4.33301 7.33301 7 10
c2 2.66699 4.66699 5.66699 8 9l14 14l38 32l56 46l168 147c36 36 62.667 66 80 90c-25.333 0.666992 -49 1 -71 1c-88.667 -2 -145 -1.66699 -169 1c-12.667 2 -22.167 8.33301 -28.5 19s-7.33301 22.834 -3 36.501s12.833 24.834 25.5 33.501s26 12.334 40 11.001
c20.667 -2.66699 58.5 -3.5 113.5 -2.5s98.167 1.16699 129.5 0.5h43c1.33301 -0.666992 2.66602 -1 3.99902 -1l6 -2c6.66699 -2 12 -5.66699 16 -11c14.667 -17.333 17.334 -40.333 8.00098 -69c-6 -16.667 -16.333 -35.667 -31 -57
c-20.667 -30.667 -52.334 -64.667 -95.001 -102c-49.333 -50.667 -109 -105.667 -179 -165l-28 -23c19.333 -0.666992 44 -0.666992 74 0c34.667 0.666992 75.667 2 123 4c48 2 74.667 3 80 3c14 0 24.833 -4.83301 32.5 -14.5s10 -21.5 7 -35.5s-10.333 -25.833 -22 -35.5
s-24.5 -14.5 -38.5 -14.5c-5.33301 0 -32 -1 -80 -3s-88.667 -3.33301 -122 -4v0z" />
    <glyph glyph-name="braceleft" unicode="{" horiz-adv-x="426" 
d="M214 -200c-44 0.666992 -77.335 8.16699 -100.002 22.5s-38 33.166 -46 56.499c-7.33301 21.333 -8.16602 49 -2.49902 83s13.5 67 23.5 99c0.666992 1.33301 7.33398 21 20.001 59c2 7.33301 4 14.166 6 20.499s3.33301 10.833 4 13.5l1 3
c-0.666992 11.333 -3.66699 22.333 -9 33l-15 8c-30 16 -41.667 39 -35 69c6 23.333 20.667 41 44 53c8.66699 4.66699 19.667 8 33 10c1.33301 0 3.5 0.333008 6.5 1s5.16699 1 6.5 1c14 10.667 25 22 33 34c6.66699 10 16.334 39.667 29.001 89
c16.667 64 34.334 112.333 53.001 145c14 23.333 27 42.5 39 57.5s26.333 27.167 43 36.5l13.5 7.5c4.33301 2.33301 9.5 4.5 15.5 6.5l15 4c3.33301 0.666992 13.833 1 31.5 1h28.5c14 2.66699 25.833 0 35.5 -8s14.167 -18.833 13.5 -32.5s-6.16699 -26.167 -16.5 -37.5
s-22.833 -18 -37.5 -20c-37.333 -6 -58.333 -10.667 -63 -14c-5.33301 3.33301 -16 -9 -32 -37c-14 -23.333 -27.333 -61 -40 -113c-0.666992 -1.33301 -1.83398 -6 -3.50098 -14s-3 -13.5 -4 -16.5s-2.5 -8.16699 -4.5 -15.5s-3.5 -13 -4.5 -17s-2.83301 -9.33301 -5.5 -16
l-6.5 -16.5c-1.66699 -4.33301 -4 -9.33301 -7 -15s-5.83301 -10.5 -8.5 -14.5c-17.333 -26 -40 -49.333 -68 -70h1c14 -24 21.333 -49.667 22 -77c-0.666992 -14 -6.66699 -37.667 -18 -71l-6 -20l-7 -20c-2 -5.33301 -3.33301 -9.66602 -4 -12.999
c-11.333 -42 -18.5 -71.667 -21.5 -89s-3.5 -30 -1.5 -38c6 -14.667 39.667 -26 101 -34c12 -4 19.833 -12.167 23.5 -24.5s2 -25 -5 -38s-17.333 -22.667 -31 -29s-26.834 -7.16602 -39.501 -2.49902v0z" />
    <glyph glyph-name="bar" unicode="|" horiz-adv-x="330" 
d="M233 41c-0.666992 -13.333 -5.99902 -24.834 -15.999 -34.501s-21.833 -14.167 -35.5 -13.5s-25.334 6 -35.001 16s-14.167 22 -13.5 36c3.33301 102.667 5 310.334 5 623.001c0 14 4.83301 25.833 14.5 35.5s21.5 14.5 35.5 14.5s25.833 -4.83301 35.5 -14.5
s14.5 -21.5 14.5 -35.5c0 -314 -1.66699 -523 -5 -627v0z" />
    <glyph glyph-name="braceright" unicode="}" horiz-adv-x="427" 
d="M-24 -202c-14 0 -25.0059 4.66113 -33.0059 13.9941s-10.667 21 -8 35s9.83398 26 21.501 36s24.5 15 38.5 15c46.667 0.666992 80.334 7.33398 101.001 20.001c12.667 8 22.334 21.333 29.001 40c3.33301 11.333 9.66602 42.333 18.999 93c10 52 22.5 94.667 37.5 128
s29.5 57.666 43.5 72.999c0.666992 1.33301 1.66699 2.33301 3 3c-22 16.667 -36 34.667 -42 54c-3.33301 14.667 -2.66602 31.667 2.00098 51l5 15l2 8l15 67c6.66699 30 11.167 53 13.5 69s2.83301 30.667 1.5 44c-2 16.667 -7.33301 28.334 -16 35.001
c-13.333 10 -36.666 14 -69.999 12c-14 -0.666992 -25.167 3.5 -33.5 12.5s-11.333 20.5 -9 34.5s9 26.167 20 36.5s23.5 15.833 37.5 16.5c54.667 3.33301 97 -5.66699 127 -27c26.667 -20 42 -50.333 46 -91c1.33301 -18.667 0.5 -39.167 -2.5 -61.5
s-8.33301 -51.166 -16 -86.499s-12.167 -55 -13.5 -59c-0.666992 -5.33301 -2.16699 -11.666 -4.5 -18.999s-3.5 -11.333 -3.5 -12l-1 -2c2 -3.33301 8.33301 -8.66602 19 -15.999c0.666992 0 5.33398 -0.666992 14.001 -2c12.667 -2 23 -5 31 -9
c18 -11.333 24.667 -29 20 -53c-5.33301 -28 -24.666 -51 -57.999 -69c-11.333 -6 -17.333 -9 -18 -9c-4 -5.33301 -10.333 -17.666 -19 -36.999c-11.333 -26 -21.333 -60.667 -30 -104c-12 -59.333 -20 -95.666 -24 -108.999c-16.667 -47.333 -44.667 -83 -84 -107
c-39.333 -24.667 -93 -37.667 -161 -39v0z" />
    <glyph glyph-name="asciitilde" unicode="~" horiz-adv-x="704" 
d="M438 155c-17.333 0 -34.999 3.00293 -52.999 9.00293s-31.167 11.333 -39.5 16s-19.833 11.667 -34.5 21c-36 22.667 -62.667 33.667 -80 33c-29.333 0 -67 -20.667 -113 -62c-11.333 -10.667 -24 -16.334 -38 -17.001s-25.167 3.66602 -33.5 12.999
s-11.333 20.833 -9 34.5s9.16602 25.5 20.499 35.5c70 64 134.667 96 194 96c16.667 0 34 -2.83301 52 -8.5s31 -10.834 39 -15.501l35 -21c36 -22.667 63.333 -34 82 -34c32 0 72.333 21 121 63c11.333 10 24 15 38 15s25 -4.66699 33 -14s10.5 -21 7.5 -35
s-10.167 -26 -21.5 -36c-73.333 -62 -140 -93 -200 -93v0z" />
    <glyph glyph-name="uni00A0" unicode="&#xa0;" horiz-adv-x="270" 
 />
    <glyph glyph-name="exclamdown" unicode="&#xa1;" horiz-adv-x="214" 
d="M-23 -150c8.66699 43.333 23.001 119 43.001 227s37 191 51 249c2.66699 14 10 25.667 22 35s25 14 39 14s24.667 -5 32 -15s9.33301 -22 6 -36c-13.333 -58 -30 -140.667 -50 -248l-43 -226c-3.33301 -14 -10.833 -25.833 -22.5 -35.5s-24.5 -14.5 -38.5 -14.5
s-24.833 4.83301 -32.5 14.5s-9.83398 21.5 -6.50098 35.5v0zM190.001 518c8 -9.33301 10.5 -21 7.5 -35s-10.333 -25.833 -22 -35.5s-24.5 -14.5 -38.5 -14.5s-24.833 4.83301 -32.5 14.5s-10 21.5 -7 35.5s10.333 25.833 22 35.5s24.5 14.5 38.5 14.5s24.667 -5 32 -15v0z
" />
    <glyph glyph-name="cent" unicode="&#xa2;" horiz-adv-x="625" 
d="M158 -126c-14 -6 -27 -6.67188 -39 -2.00488s-19.5 13.334 -22.5 26.001s-0.833008 25.334 6.5 38.001l35 63c-3.33301 2.66699 -6.66602 5.66699 -9.99902 9c-44.667 44 -65 106.667 -61 188s30.667 152.333 80 213c28 34 61.333 60.833 100 80.5
s81.334 29.5 128.001 29.5h26l48 93c6.66699 13.333 16.834 23.166 30.501 29.499s26.667 7.5 39 3.5s20.333 -12.167 24 -24.5s2.16699 -25.166 -4.5 -38.499l-44 -86c4 -2 8 -4.66699 12 -8c11.333 -8.66699 24.666 -25 39.999 -49c2 -4.66699 4.66699 -9.66699 8 -15
s6.33301 -10.833 9 -16.5s5 -9.16699 7 -10.5c5.33301 -11.333 5.83301 -23.833 1.5 -37.5s-13 -24.667 -26 -33s-26.167 -11.666 -39.5 -9.99902s-23 7.83398 -29 18.501l-6 11c-2 5.33301 -4.66699 10.666 -8 15.999l-9 14c-4 7.33301 -8 13.333 -12 18l-74 -151l-90 -181
c14.667 1.33301 30.667 5.66602 48 12.999c10 4 18.167 7.66699 24.5 11s12.833 8 19.5 14s12 11.333 16 16l20 25l27 32c10 12 22.167 19.333 36.5 22s26.5 0.333984 36.5 -6.99902s14.833 -17.833 14.5 -31.5s-5.16602 -26.167 -14.499 -37.5l-23 -28
c-10.667 -13.333 -19.334 -23.666 -26.001 -30.999s-15.834 -16.333 -27.501 -27s-24.167 -20 -37.5 -28s-28.333 -15.333 -45 -22c-44.667 -17.333 -85.334 -24 -122.001 -20l-35 -61c-8 -13.333 -18.667 -22.666 -32 -27.999v0zM193 102.995l85 167l74 149
c-54 -0.666992 -97.333 -21 -130 -61c-32.667 -39.333 -50 -88 -52 -146c-2.66699 -44.667 5 -81 23 -109v0z" />
    <glyph glyph-name="sterling" unicode="&#xa3;" horiz-adv-x="644" 
d="M432 -39c-37.333 -4 -84.3311 2.66602 -140.998 19.999c-50 15.333 -85.667 23 -107 23c-0.666992 0 -7 -0.666992 -19 -2c-16.667 -1.33301 -30.334 -2.33301 -41.001 -3c-17.333 -0.666992 -31.666 -0.666992 -42.999 0c-8 0.666992 -15.333 2 -22 4
c-16 5.33301 -26 15.333 -30 30c-6 20.667 -1 41 15 61c8 8.66699 18.333 17 31 25l19 12c48 51.333 72.667 100.666 74 147.999c-0.666992 2 -0.666992 4 0 6c-18 -0.666992 -34.667 -1 -50 -1c-14 0 -25 4.83301 -33 14.5s-10.5 21.334 -7.5 35.001s10.333 25.5 22 35.5
s24.167 15 37.5 15h14c-4.66699 18.667 -7.66699 34.334 -9 47.001c-9.33301 78 15 147 73 207c36.667 38 81 64.333 133 79c52.667 14.667 102.167 15.167 148.5 1.5s80.5 -39.5 102.5 -77.5c12 -23.333 18.667 -45.333 20 -66c-0.666992 -2 -2.66699 -21.333 -6 -58
c-1.33301 -14 -7.5 -26.333 -18.5 -37s-23.5 -16.834 -37.5 -18.501s-25.333 1.83301 -34 10.5s-12.667 19.667 -12 33c1.33301 8.66699 2.33301 16.334 3 23.001s1.16699 11.5 1.5 14.5s0.5 6.16699 0.5 9.5c0 6.66699 -3.33301 15.667 -10 27
c-12 21.333 -31.833 35.833 -59.5 43.5s-56.834 7.5 -87.501 -0.5s-56.334 -22.667 -77.001 -44c-18 -18.667 -29.833 -37.5 -35.5 -56.5s-6.5 -38.5 -2.5 -58.5c1.33301 -7.33301 6.33301 -32 15 -74l1 -2c64 2 108.667 3.33301 134 4c14 0 25 -4.66699 33 -14
s10.5 -21 7.5 -35s-10.333 -26 -22 -36s-24.5 -15 -38.5 -15c-25.333 -0.666992 -60 -1.66699 -104 -3c-4 -61.333 -31 -123 -81 -185c9.33301 0.666992 15 1 17 1c30.667 0 75.334 -9 134.001 -27c44 -13.333 78.333 -18.666 103 -15.999c7.33301 0.666992 14 1.66699 20 3
c7.33301 2 16.333 4.66699 27 8s21 6 31 8c14 4 26.167 2.5 36.5 -4.5s16 -17.167 17 -30.5s-3.33301 -26 -13 -38s-21.5 -19.667 -35.5 -23c-2.66699 -0.666992 -10.334 -2.83398 -23.001 -6.50098s-25 -7 -37 -10s-23.333 -5.16699 -34 -6.5v0z" />
    <glyph glyph-name="currency" unicode="&#xa4;" horiz-adv-x="627" 
d="M122 108c-12 -9.33301 -25.0029 -13.999 -39.0029 -13.999s-24.5 5 -31.5 15s-9 22 -6 36s10.5 25.667 22.5 35l56 45c-9.33301 33.333 -11 69.333 -5 108c8.66699 45.333 26.334 88 53.001 128l-32 40c-8 9.33301 -10.833 20.833 -8.5 34.5s9.33301 25.5 21 35.5
s24.334 15.333 38.001 16s24.5 -4 32.5 -14l29 -33c24 14.667 49.333 24.667 76 30c13.333 2.66699 28 3 44 1c0.666992 0 3.83398 -0.5 9.50098 -1.5s10.5 -1.5 14.5 -1.5c18 -1.33301 30 -9.66602 36 -24.999c10 -2.66699 18.333 -5.33398 25 -8.00098
c9.33301 -4 17.666 -8.66699 24.999 -14l55 40c12.667 8.66699 25.667 12.5 39 11.5s23.333 -6.66699 30 -17s8.16699 -22.333 4.5 -36s-11.5 -25.167 -23.5 -34.5l-48 -34c20 -49.333 18.333 -104 -5 -164c-8 -20 -18.333 -39.333 -31 -58l26 -35
c8 -10 10.167 -21.833 6.5 -35.5s-11.5 -25.334 -23.5 -35.001s-24.833 -14.167 -38.5 -13.5s-24.167 6 -31.5 16l-18 24c-45.333 -30 -94.666 -43 -147.999 -39c-42 3.33301 -76.333 16 -103 38l-51 -41v0zM304.997 211.001c31.333 -2 58.667 5.66699 82 23
s40.666 40.666 51.999 69.999c12 30 14.5 57.833 7.5 83.5s-22.167 43.5 -45.5 53.5c-5.33301 2.66699 -10.333 4.33398 -15 5.00098s-11.834 1.5 -21.501 2.5s-19.167 2.5 -28.5 4.5c-10.667 2 -18.667 7 -24 15c-21.333 -8.66699 -40.666 -24.667 -57.999 -48
c-17.333 -24 -28.666 -51.667 -33.999 -83c-6 -35.333 -1.83301 -64.5 12.5 -87.5s38.5 -35.833 72.5 -38.5v0z" />
    <glyph glyph-name="yen" unicode="&#xa5;" horiz-adv-x="623" 
d="M303 48c-3.33301 -13.333 -11.0029 -24.835 -23.0029 -34.502s-24.833 -14.5 -38.5 -14.5s-24.167 5 -31.5 15s-9.66602 22 -6.99902 36l32 145c-54 -0.666992 -94.667 -0.666992 -122 0c-14 0 -24.667 5 -32 15s-9.5 22 -6.5 36s10.5 25.667 22.5 35s25 14 39 14
c26 -0.666992 60.333 -1 103 -1l-22 70h-5l-80 1c-13.333 0 -23.833 5 -31.5 15s-10 21.833 -7 35.5s10.5 25.334 22.5 35.001s25 14.5 39 14.5h27l-44 119c-5.33301 12 -4.66602 24.667 2.00098 38s16.667 23.5 30 30.5s26.333 8.66699 39 5s21 -11.5 25 -23.5
c47.333 -126 76.666 -207.333 87.999 -244c73.333 86.667 148 170.334 224 251.001c10 10.667 22.167 17.167 36.5 19.5s26 -0.666992 35 -9s13.333 -19.333 13 -33s-6.16602 -26.167 -17.499 -37.5l-105 -115h27c14 0 24.667 -5 32 -15s9.5 -21.833 6.5 -35.5
s-10.5 -25.334 -22.5 -35.001s-24.667 -14.5 -38 -14.5l-91 1l-61 -73c48 -0.666992 90.333 -2.33398 127 -5.00098c14 -1.33301 24.167 -7.16602 30.5 -17.499s7.5 -22.5 3.5 -36.5s-12.167 -25.333 -24.5 -34s-25.166 -12.667 -38.499 -12
c-36 2.66699 -77.333 4.33398 -124 5.00098l-32 -146v0z" />
    <glyph glyph-name="brokenbar" unicode="&#xa6;" horiz-adv-x="330" 
d="M234 49c-0.666992 -14 -6 -25.667 -16 -35s-21.833 -13.833 -35.5 -13.5s-25.167 5.5 -34.5 15.5s-14 21.667 -14 35c0.666992 15.333 1.16699 37 1.5 65s0.833008 53.5 1.5 76.5s1.33398 44.5 2.00098 64.5c0.666992 14 6 25.667 16 35s22 13.666 36 12.999
s25.667 -6 35 -16s13.666 -22 12.999 -36l-2 -65c-0.666992 -22.667 -1.16699 -47.667 -1.5 -75s-0.833008 -48.666 -1.5 -63.999v0zM135 478c0 78.667 0.666016 141.333 1.99902 188c0.666992 14 6 25.833 16 35.5s21.833 14.167 35.5 13.5s25.334 -6 35.001 -16
s14.167 -21.667 13.5 -35c-1.33301 -46.667 -2 -108.667 -2 -186c0 -14 -4.83301 -25.833 -14.5 -35.5s-21.5 -14.5 -35.5 -14.5s-25.833 4.83301 -35.5 14.5s-14.5 21.5 -14.5 35.5v0z" />
    <glyph glyph-name="section" unicode="&#xa7;" horiz-adv-x="634" 
d="M251 -200c-42 -8.66699 -81.334 -6.99805 -118.001 5.00195s-61 37 -73 75c-2.66699 8.66699 -4.33398 19.334 -5.00098 32.001c-1.33301 12 -2.16602 24.167 -2.49902 36.5s-0.166016 19.166 0.500977 20.499c-1.33301 13.333 2.83398 26 12.501 38
s21.5 19.833 35.5 23.5s26.333 2 37 -5s16 -17.167 16 -30.5c1.33301 -10.667 1.83301 -20.834 1.5 -30.501s-0.5 -17.167 -0.5 -22.5s1 -10.666 3 -15.999c4 -12.667 14.167 -21.834 30.5 -27.501s37 -5.83398 62 -0.500977s46.167 14.333 63.5 27s28 26 32 40
c9.33301 26.667 7.66602 50.334 -5.00098 71.001c-11.333 21.333 -33.333 43.333 -66 66c-10.667 7.33301 -27 18 -49 32c-22 13.333 -38 23.333 -48 30c-40 28.667 -65.667 57.334 -77 86.001c-20.667 53.333 -7.66699 107 39 161c18.667 21.333 41.667 40.666 69 57.999
c-10.667 26 -12.667 54.667 -6 86c10 46.667 32.667 84.334 68 113.001c35.333 29.333 74 47.666 116 54.999c41.333 7.33301 79.333 4.33301 114 -9c36 -14 60.333 -38.667 73 -74c4 -10.667 6 -24 6 -40c0 -1.33301 -0.166992 -4.83301 -0.5 -10.5
s-0.5 -10.167 -0.5 -13.5c1.33301 -13.333 -2.83398 -26 -12.501 -38s-21.5 -19.833 -35.5 -23.5s-26.333 -2 -37 5s-16.334 17.167 -17.001 30.5c0 1.33301 0.333008 11.333 1 30c-0.666992 5.33301 -1 8.66602 -1 9.99902c-5.33301 13.333 -16.333 23.5 -33 30.5
s-36.167 8.5 -58.5 4.5s-40.666 -12 -54.999 -24s-23.5 -27.333 -27.5 -46c-4 -20 1 -37.667 15 -53s40.333 -34.666 79 -57.999l11 -6l38 -24c10 -6 22.667 -15.167 38 -27.5s27.333 -24.333 36 -36s16.667 -26.167 24 -43.5s11.333 -35.333 12 -54
c2.66699 -47.333 -11.666 -89 -42.999 -125c-15.333 -17.333 -37.333 -36.333 -66 -57c11.333 -36 10.333 -75.333 -3 -118c-13.333 -40 -38.5 -73.333 -75.5 -100s-76.167 -44.334 -117.5 -53.001v0zM396.999 146.002c22 16 36.332 28.333 42.999 37
c10.667 11.333 15.667 26 15 44c-1.33301 25.333 -11.666 46.666 -30.999 63.999c-18 17.333 -48.667 38.666 -92 63.999c-30 18 -51.667 32.333 -65 43c-23.333 -13.333 -42 -27.666 -56 -42.999c-16 -18 -20.333 -35.667 -13 -53
c5.33301 -15.333 22.333 -32.666 51 -51.999c9.33301 -7.33301 25 -18 47 -32l48 -30c21.333 -14.667 39 -28.667 53 -42v0z" />
    <glyph glyph-name="dieresis" unicode="&#xa8;" horiz-adv-x="294" 
d="M137 606c-14.667 0 -27 4.66699 -37 14s-15 21 -15 35c0 20 8.83301 38 26.5 54s37.5 24 59.5 24c14.667 0 26.167 -4.16699 34.5 -12.5s12.5 -19.5 12.5 -33.5c0 -22 -8.5 -41 -25.5 -57s-35.5 -24 -55.5 -24v0zM304 607c-16 0 -28.499 4.66699 -37.499 14
s-13.5 20.666 -13.5 33.999c0 18 7.66699 35.5 23 52.5s33.666 25.5 54.999 25.5c17.333 0 30.333 -4 39 -12s13 -19 13 -33c0 -23.333 -7.5 -42.666 -22.5 -57.999s-33.833 -23 -56.5 -23v0z" />
    <glyph glyph-name="copyright" unicode="&#xa9;" horiz-adv-x="803" 
d="M343 22c-78.667 6 -144.33 37.333 -196.997 94s-76 125.334 -70 206.001c3.33301 46 16 90 38 132c23.333 42.667 52.333 79.5 87 110.5s73 57.333 115 79s84.333 36.5 127 44.5c15.333 15.333 32.333 21.333 51 18c3.33301 -0.666992 12 -1.83398 26 -3.50098
s27.5 -3.5 40.5 -5.5s24.5 -4.66699 34.5 -8c16.667 -6 37.334 -19.667 62.001 -41c21.333 -18.667 36.666 -34.667 45.999 -48c39.333 -54 59.666 -115.833 60.999 -185.5s-15.334 -134.167 -50.001 -193.5c-35.333 -64.667 -85.833 -115.5 -151.5 -152.5
s-138.834 -52.5 -219.501 -46.5v0zM372.004 122c60 -4.66699 111.333 5.33398 154 30.001c44 24.667 77.667 58.667 101 102c24 40 35.5 86 34.5 138s-15.833 98.667 -44.5 140c-7.33301 9.33301 -19.333 21.333 -36 36s-28.667 23 -36 25
c-8.66699 3.33301 -19.334 5.66602 -32.001 6.99902c-7.33301 -3.33301 -15 -5 -23 -5c-46.667 0 -93.5 -11.833 -140.5 -35.5s-86.667 -55.667 -119 -96s-50.166 -82.833 -53.499 -127.5c-3.33301 -56 14 -104.667 52 -146c37.333 -41.333 85 -64 143 -68v0z
M442.004 173.001c-36.667 -8 -68.8359 -7.00195 -96.5029 2.99805s-48.5 27 -62.5 51c-14 20.667 -21.667 44.5 -23 71.5s2 53.833 10 80.5c9.33301 28.667 24.333 54.834 45 78.501s46.334 40.5 77.001 50.5c62.667 20 127.334 2.33301 194.001 -53
c10 -8 14.667 -18.833 14 -32.5s-6.16699 -26.167 -16.5 -37.5s-22.666 -18.166 -36.999 -20.499s-26.166 0.5 -35.499 8.5c-43.333 36 -79 49.333 -107 40c-16 -5.33301 -28 -20.333 -36 -45c-10.667 -30 -9.33398 -55.667 3.99902 -77
c13.333 -20.667 36.333 -27.334 69 -20.001c2.66699 0.666992 7.66699 3.33398 15 8.00098l16 11c8.66699 5.33301 16 9.66602 22 12.999c13.333 7.33301 26.333 9.5 39 6.5s21.5 -10.333 26.5 -22s4.5 -24.167 -1.5 -37.5s-15.333 -23.666 -28 -30.999l-13 -8l-18 -12
c-20 -13.333 -39 -22 -57 -26v0z" />
    <glyph glyph-name="ordfeminine" unicode="&#xaa;" horiz-adv-x="443" 
d="M403 386c-14.667 0 -28.167 6.66699 -40.5 20s-19.833 28 -22.5 44c-17.333 -18 -36.833 -31.833 -58.5 -41.5s-45.167 -14.5 -70.5 -14.5c-42.667 0 -74 13.5 -94 40.5s-25 63.167 -15 108.5c7.33301 33.333 22.5 63.666 45.5 90.999s49.667 48.333 80 63
s60.166 22.334 89.499 23.001c42 0.666992 75 -11.666 99 -36.999c10 -10.667 16.333 -18.834 19 -24.501s2.66699 -10.834 0 -15.501c5.33301 -3.33301 9 -7.33301 11 -12s2 -11.667 0 -21s-6 -20.666 -12 -33.999c-11.333 -24.667 -17.666 -43 -18.999 -55
c-4.66699 -29.333 3 -52 23 -68c6 -4.66699 9.16699 -9.66699 9.5 -15s-0.166992 -12.333 -1.5 -21c-1.33301 -8 -6.33301 -15.167 -15 -21.5s-18 -9.5 -28 -9.5v0zM243 473c19.333 0 38.498 7.49805 57.498 22.498s31.5 36.167 37.5 63.5c6.66699 30.667 15.667 49 27 55
c-6.66699 0 -14 4.33301 -22 13c-8.66699 9.33301 -24 14 -46 14c-23.333 0 -46.166 -9.16699 -68.499 -27.5s-36.166 -41.166 -41.499 -68.499c-4.66699 -23.333 -1.5 -41.166 9.5 -53.499s26.5 -18.5 46.5 -18.5v0z" />
    <glyph glyph-name="guillemotleft" unicode="&#xab;" horiz-adv-x="528" 
d="M357 99c-34 39.333 -55.3301 65.332 -63.9971 77.999c-19.333 28.667 -26 56.334 -20 83.001s25 54.334 57 83.001c15.333 13.333 48.333 39 99 77c12 9.33301 24.667 13.666 38 12.999s23.666 -6.16699 30.999 -16.5s9.16602 -22.333 5.49902 -36
s-11.834 -25.167 -24.501 -34.5c-47.333 -36 -77 -59.667 -89 -71c-8 -7.33301 -13.667 -13 -17 -17c1.33301 -2 4.33301 -7 9 -15c7.33301 -9.33301 26.666 -32.666 57.999 -69.999c8 -9.33301 10.833 -21 8.5 -35s-9.16602 -26 -20.499 -36s-24 -15.333 -38 -16
s-25 3.66602 -33 12.999v0zM144.003 116.999c-37.333 43.333 -59.6699 70.6689 -67.0029 82.002c-21.333 30 -26.666 58.667 -15.999 86c8 22 29 45.333 63 70c2.66699 2.66699 14.667 11.5 36 26.5s39.666 28.5 54.999 40.5c12.667 9.33301 25.834 13.666 39.501 12.999
s24 -6.16699 31 -16.5s8.66699 -22.333 5 -36s-11.5 -25.167 -23.5 -34.5l-56 -42c-22 -15.333 -34.667 -24 -38 -26l-11 -9l3 -5c6.66699 -10 27.667 -35 63 -75c8 -9.33301 10.833 -21 8.5 -35s-9.16602 -26 -20.499 -36s-24.166 -15.333 -38.499 -16
s-25.5 3.66602 -33.5 12.999v0z" />
    <glyph glyph-name="logicalnot" unicode="&#xac;" horiz-adv-x="667" 
d="M473 164c8.66699 46 18 88.668 28 128.001c-174 -4 -299.667 -3.66699 -377 1c-14 0.666992 -24.333 6.16699 -31 16.5s-8.16699 22.5 -4.5 36.5s11.5 25.5 23.5 34.5s25 13.167 39 12.5c21.333 -1.33301 44 -2.33301 68 -3s45 -1.16699 63 -1.5s41.167 -0.333008 69.5 0
s49.5 0.666016 63.5 0.999023s37.5 1 70.5 2s55.167 1.5 66.5 1.5c3.33301 0 6.66602 -0.333008 9.99902 -1c5.33301 2 11 2.66699 17 2c14 -1.33301 24.333 -7.16602 31 -17.499s8 -22.5 4 -36.5c-15.333 -52 -28.666 -109.333 -39.999 -172c-2 -14 -8.83301 -26 -20.5 -36
s-24.5 -15.333 -38.5 -16s-25 3.66602 -33 12.999s-11 21 -9 35v0z" />
    <glyph glyph-name="uni00AD" unicode="&#xad;" horiz-adv-x="389" 
d="M97 226c-14.667 -0.666992 -26.167 3.5 -34.5 12.5s-11.5 20.333 -9.5 34s8.5 25.667 19.5 36s23.5 16.166 37.5 17.499c20.667 1.33301 50.334 2.66602 89.001 3.99902s65 2.33301 79 3s25.333 -3.66602 34 -12.999s11.834 -20.833 9.50098 -34.5
s-9.33301 -25.667 -21 -36s-24.167 -15.833 -37.5 -16.5c-14.667 -0.666992 -40.834 -1.66699 -78.501 -3s-66.834 -2.66602 -87.501 -3.99902v0z" />
    <glyph glyph-name="registered" unicode="&#xae;" horiz-adv-x="782" 
d="M354 -1c-83.333 -3.33301 -150.166 16.001 -200.499 58.001s-80.166 97.333 -89.499 166c-5.33301 44.667 -2.83301 89.834 7.5 135.501s30.666 91.667 60.999 138s68.166 87.5 113.499 123.5l43.5 34c11.667 8.66699 28.834 19 51.501 31s43.667 20.333 63 25
c9.33301 2 19.666 3.33301 30.999 4s23 1.16699 35 1.5s19 0.5 21 0.5c13.333 0.666992 24.333 -3.33301 33 -12l13 -2l17 -2c2 -0.666992 7.16699 -1.83398 15.5 -3.50098s14.5 -3.16699 18.5 -4.5l17 -4c7.33301 -2 13 -4 17 -6l17 -7
c5.33301 -2.66699 10.333 -5.66699 15 -9c30.667 -20 55 -45.333 73 -76s28.5 -63 31.5 -97s1.66699 -69.833 -4 -107.5s-16.834 -73.834 -33.501 -108.501c-15.333 -35.333 -35.166 -69 -59.499 -101s-52 -61 -83 -87s-65.833 -47 -104.5 -63s-78.667 -25 -120 -27v0z
M431 207.001c0.666992 7.33301 1.66992 20.332 3.00293 38.999c0.666992 10.667 1 18.334 1 23.001c0 6.66699 -4 12 -12 16l-4 2c-8 -2 -15.667 -3.66699 -23 -5c-24 -4.66699 -43.333 -7.33398 -58 -8.00098h-4l-11 -52c-3.33301 -14 -10.833 -25.833 -22.5 -35.5
s-24.5 -14.5 -38.5 -14.5s-24.833 4.83301 -32.5 14.5s-9.83398 21.5 -6.50098 35.5c2 11.333 11 56.833 27 136.5s26 125.167 30 136.5c3.33301 13.333 11 24.833 23 34.5s25 14.167 39 13.5h4c5.33301 2 10.666 3.33301 15.999 4l24 3c16 1.33301 28.333 2.33301 37 3
c35.333 1.33301 62 -2.66699 80 -12c19.333 -9.33301 35.5 -22.833 48.5 -40.5s20.5 -37.167 22.5 -58.5c5.33301 -42 -10 -78.333 -46 -109c5.33301 -10.667 8.66602 -22.667 9.99902 -36c0 -10 -0.666992 -23 -2 -39s-2.33301 -27 -3 -33
c0 -13.333 -5 -25.666 -15 -36.999s-22.167 -18.333 -36.5 -21s-26.333 -0.166992 -36 7.5s-14.5 18.5 -14.5 32.5v0zM372.003 99c53.333 2 103 21.665 149 58.998c46.667 38 82.667 85.333 108 142s34.666 110.834 27.999 162.501s-30.334 90.834 -71.001 117.501
c-6 3.33301 -13.333 6.5 -22 9.5s-16 5.16699 -22 6.5s-16.833 3.16602 -32.5 5.49902s-26.167 4.16602 -31.5 5.49902c-8 1.33301 -14.667 4 -20 8c-29.333 -0.666992 -46.666 -1.66699 -51.999 -3c-23.333 -4.66699 -59 -26 -107 -64
c-33.333 -26.667 -61.166 -57.167 -83.499 -91.5s-37.333 -68.166 -45 -101.499s-9.5 -66.333 -5.5 -99c6.66699 -48.667 27.667 -87.667 63 -117s83.333 -42.666 144 -39.999v0zM378.003 390.998c22 1.33301 42.0039 0.665039 60.0039 -2.00195l6 2l14 4h2
c7.33301 3.33301 11.666 6.5 12.999 9.5s1.33301 5.16699 0 6.5c-0.666992 6.66699 -3.83398 13.834 -9.50098 21.501s-12.834 13.834 -21.501 18.501c-4.66699 2 -16.334 2.66699 -35.001 2c-9.33301 -0.666992 -22 -2 -38 -4l-13 -60z" />
    <glyph glyph-name="macron" unicode="&#xaf;" horiz-adv-x="303" 
d="M124 610c-14 0 -24.833 4.16699 -32.5 12.5s-10 19.5 -7 33.5s10.167 25.5 21.5 34.5s24 13.5 38 13.5h205c14 0 24.667 -4.5 32 -13.5s9.5 -20.5 6.5 -34.5s-10.333 -25.167 -22 -33.5s-24.5 -12.5 -38.5 -12.5h-203v0z" />
    <glyph glyph-name="degree" unicode="&#xb0;" horiz-adv-x="461" 
d="M227 381c-41.333 5.33301 -71.667 21.667 -91 49c-19.333 28.667 -27 61 -23 97c2.66699 35.333 15 69.166 37 101.499s50.333 55.5 85 69.5c14 6.66699 29 10.334 45 11.001l14 1h10c14 2 25.667 -0.666992 35 -8l1 -1l12 -3l13 -4l12 -4c21.333 -6 38 -14 50 -24
c32.667 -26 47 -58.667 43 -98c-2.66699 -34.667 -18.667 -68 -48 -100c-24.667 -28.667 -55.167 -51.167 -91.5 -67.5s-70.833 -22.833 -103.5 -19.5v0zM255.999 470.001c14 -2.66699 31.166 1 51.499 11s38.5 23 54.5 39c12.667 14 19.334 26.667 20.001 38
s-5 22.333 -17 33c-8 4 -17.333 7.66699 -28 11l-50 15l-8 4h-1l-6 -1h-9l-11 -1c-12.667 -5.33301 -24 -15.666 -34 -30.999s-15.667 -32 -17 -50c-4 -40.667 14.333 -63.334 55 -68.001v0z" />
    <glyph glyph-name="plusminus" unicode="&#xb1;" horiz-adv-x="651" 
d="M262 196c0 1.33301 6.66895 38.998 20.002 112.998c-53.333 -0.666992 -102 -1 -146 -1c-14 0 -25.167 4.16699 -33.5 12.5s-11 19.5 -8 33.5s10.167 25.5 21.5 34.5s24 13.5 38 13.5c44 0 92.333 0.333008 145 1c10 50 21.333 95.333 34 136c4 14 12.5 25.333 25.5 34
s26.167 12.334 39.5 11.001s23.166 -7.5 29.499 -18.5s7.5 -23.167 3.5 -36.5c-12.667 -39.333 -23.334 -81.333 -32.001 -126h158c14 0 24.833 -4.33301 32.5 -13s10 -20 7 -34s-10.167 -25.333 -21.5 -34s-24 -13 -38 -13h-155
c-11.333 -63.333 -17.666 -99.666 -18.999 -108.999c-2.66699 -14 -9.83398 -26 -21.501 -36s-24.5 -15.333 -38.5 -16s-25.167 3.83301 -33.5 13.5s-10.833 21.167 -7.5 34.5v0zM70.002 -5.00195c-14 0 -24.8311 4.49902 -32.498 13.499s-10.167 19.667 -7.5 32
s9.83398 23.166 21.501 32.499s24.5 14 38.5 14c31.333 0 79.666 0.333008 144.999 1l254 -1c13.333 -0.666992 23.666 -5.66699 30.999 -15s9.66602 -20.166 6.99902 -32.499s-10 -23 -22 -32s-24.667 -13.167 -38 -12.5c-48.667 2.66699 -99 3.33398 -151 2.00098l-246 -2
v0z" />
    <glyph glyph-name="uni00B2" unicode="&#xb2;" horiz-adv-x="432" 
d="M146 278c-24.667 0 -43.833 8.16602 -57.5 24.499s-18.167 36.166 -13.5 59.499c4.66699 21.333 13.167 39.833 25.5 55.5s28.833 30.167 49.5 43.5c32 20.667 72.333 41.334 121 62.001c23.333 10 40.333 19.333 51 28s17.334 19 20.001 31
c2.66699 11.333 -0.5 20.833 -9.5 28.5s-23.167 11.5 -42.5 11.5c-18 0 -34.333 -4.16699 -49 -12.5s-25.667 -20.166 -33 -35.499c-4.66699 -11.333 -12 -20.5 -22 -27.5s-20 -10.5 -30 -10.5c-15.333 0 -26.166 4.66699 -32.499 14s-7.83301 21.333 -4.5 36
c4 19.333 15.833 39 35.5 59s43.5 36.333 71.5 49s56 19 84 19c46.667 0 81 -12.167 103 -36.5s29.333 -54.833 22 -91.5c-6.66699 -29.333 -21.834 -55.5 -45.501 -78.5s-58.834 -44.167 -105.501 -63.5c-60.667 -24.667 -98 -49.667 -112 -75c34 10 72.333 15 115 15
c39.333 0 71 -4.66699 95 -14c22.667 -9.33301 32 -24 28 -44c-3.33301 -14 -10.833 -25.333 -22.5 -34s-24.167 -13 -37.5 -13c-9.33301 0 -22 1.33301 -38 4c-18.667 4 -35.667 6 -51 6c-10 0 -20 -0.5 -30 -1.5s-19.333 -2.16699 -28 -3.5
c-19.333 -3.33301 -38.333 -5 -57 -5v0z" />
    <glyph glyph-name="uni00B3" unicode="&#xb3;" horiz-adv-x="376" 
d="M187 270c-28 0 -51.6699 4.66895 -71.0029 14.002s-34.666 21.666 -45.999 36.999c-14.667 18.667 -22 38 -22 58c0 12.667 4.5 23.5 13.5 32.5s19.167 13.5 30.5 13.5c10 0 18 -2.33301 24 -7s10.667 -12.334 14 -23.001c10 -32 33 -48 69 -48
c26.667 0 47.834 6.83301 63.501 20.5s23.5 31.834 23.5 54.501c0 14.667 -6.16699 26.5 -18.5 35.5s-26.833 12.833 -43.5 11.5c-12 -0.666992 -21.667 2 -29 8s-11 14.333 -11 25c0 12.667 5.66699 24 17 34s25.333 15 42 15s31.334 4.66699 44.001 14
s19 20.666 19 33.999c0 10.667 -4.66699 19.167 -14 25.5s-22.333 9.5 -39 9.5c-28.667 0 -51.334 -8.33301 -68.001 -25c-9.33301 -9.33301 -17.5 -16 -24.5 -20s-15.167 -6 -24.5 -6s-17 3.16699 -23 9.5s-9 14.166 -9 23.499c0 12 3.83301 23.167 11.5 33.5
s18.5 20.833 32.5 31.5c32 23.333 72.667 35 122 35c35.333 0 65 -9.33301 89 -28s36 -41.334 36 -68.001c0 -27.333 -10 -52 -30 -74s-45.667 -37.333 -77 -46l5 25c26.667 -8 46.667 -20.333 60 -37s20 -36 20 -58c0 -29.333 -8.66699 -56.166 -26 -80.499
s-40.166 -43.666 -68.499 -57.999s-58.833 -21.5 -91.5 -21.5v0z" />
    <glyph glyph-name="acute" unicode="&#xb4;" horiz-adv-x="192" 
d="M157 588c-10.667 -9.33301 -22.668 -14.499 -36.001 -15.499s-24.333 2.83301 -33 11.5s-12.5 19.5 -11.5 32.5s7.16699 24.833 18.5 35.5l31 29l20.5 18.5l15 13.5l21.5 19l31 27c10.667 8 22.834 12 36.501 12s24.334 -4.83301 32.001 -14.5
s10.167 -20.834 7.5 -33.501s-9.33398 -24 -20.001 -34l-37 -33l-31 -28l-45 -40v0z" />
    <glyph glyph-name="uni00B5" unicode="&#xb5;" horiz-adv-x="621" 
d="M13 -165c-5.33301 -13.333 -14.665 -24.0029 -27.998 -32.0029s-26.333 -10.833 -39 -8.5s-21.834 9.33301 -27.501 21s-5.83398 24.167 -0.500977 37.5c31.333 77.333 79 185.333 143 324c75.333 159.333 123.666 265.333 144.999 318
c5.33301 13.333 14.666 23.833 27.999 31.5s26.333 10.167 39 7.5s21.667 -9.83398 27 -21.501s5.33301 -24.167 0 -37.5c-26 -66 -75 -173.667 -147 -323l-8 -17c4 -2.66699 7 -6.16699 9 -10.5s4.66699 -9.16602 8 -14.499l6 -10c1.33301 -2 2 -3.66699 2 -5
c22 -15.333 45.333 -13.666 70 5.00098c28 21.333 63.667 54.333 107 99c54.667 56.667 112.334 145.667 173.001 267c1.33301 2.66699 3 5.33398 5 8.00098l9 22c6 14 15.333 25 28 33s25.5 10.833 38.5 8.5s22.167 -9.16602 27.5 -20.499
s5.66602 -23.666 0.999023 -36.999c-35.333 -100.667 -105.666 -269 -210.999 -505c-6 -13.333 -15.5 -23.666 -28.5 -30.999s-26 -9.5 -39 -6.5s-22 10.167 -27 21.5s-4.5 24 1.5 38l37 85c-29.333 -28 -57.666 -50 -84.999 -66
c-66.667 -38.667 -125 -41.334 -175 -8.00098c-4 2.66699 -8 5.66699 -12 9c-29.333 -66.667 -55 -127.334 -77 -182.001v0z" />
    <glyph glyph-name="paragraph" unicode="&#xb6;" horiz-adv-x="653" 
d="M340 -134l77 381.998l76 376c-22.667 2 -44 2.66699 -64 2l-1 -1c-36.667 -188.667 -91.334 -441.334 -164.001 -758.001c-2.66699 -14 -10 -25.667 -22 -35s-25 -14 -39 -14s-24.667 5 -32 15s-9.33301 22 -6 36l81 361c-52.667 6.66699 -93.334 24.667 -122.001 54
c-29.333 28.667 -44.333 65.334 -45 110.001c-0.666992 43.333 11.333 86.666 36 129.999c24 44.667 57.667 85 101 121c58.667 49.333 135 76 229 80c60.667 2.66699 128.667 -4.66602 204 -21.999c12.667 -3.33301 21.334 -10.833 26.001 -22.5
s4.16699 -24.167 -1.5 -37.5s-15.167 -23.666 -28.5 -30.999s-26.333 -9.66602 -39 -6.99902l-16 4l-74 -366l-76 -377c-2.66699 -14 -10 -25.833 -22 -35.5s-25 -14.5 -39 -14.5s-24.667 4.83301 -32 14.5s-9.66602 21.5 -6.99902 35.5v0zM268 330.998
c20.667 97.333 39.333 188.999 56 274.999c-19.333 -8 -36.333 -18.333 -51 -31c-30 -25.333 -52.833 -52.166 -68.5 -80.499s-23.5 -54.5 -23.5 -78.5c0.666992 -46.667 29.667 -75 87 -85v0z" />
    <glyph glyph-name="periodcentered" unicode="&#xb7;" horiz-adv-x="112" 
d="M119 372c9.33301 -10.667 12.333 -23.667 9 -39s-11.666 -28.5 -24.999 -39.5s-27.666 -16.5 -42.999 -16.5s-27.333 5.5 -36 16.5s-11.334 24.167 -8.00098 39.5s11.666 28.5 24.999 39.5s27.333 16.333 42 16s26.667 -5.83301 36 -16.5v0z" />
    <glyph glyph-name="cedilla" unicode="&#xb8;" horiz-adv-x="214" 
d="M10 -230c-29.333 0 -53.333 5.83398 -72 17.501s-28 26.167 -28 43.5c0 11.333 3.5 20.833 10.5 28.5s15.5 11.5 25.5 11.5c8.66699 0 15.5 -1.66699 20.5 -5s9.83301 -8 14.5 -14c8.66699 -11.333 21.334 -17 38.001 -17c10.667 0 19.5 3.33301 26.5 10
s10.5 14.667 10.5 24c0 11.333 -5 19.666 -15 24.999c-8.66699 4.66699 -22.334 7 -41.001 7c-11.333 0 -20.166 2.66699 -26.499 8s-9.5 12 -9.5 20c0 11.333 6.5 25 19.5 41s33.5 39.667 61.5 71c18.667 -6 36 -13.667 52 -23c-34 -28 -53.667 -55 -59 -81l-22 15
c9.33301 4 17.333 6 24 6c24.667 0 46 -7.66699 64 -23s27 -34 27 -56c0 -18.667 -5.83301 -36.5 -17.5 -53.5s-26.834 -30.5 -45.501 -40.5s-38 -15 -58 -15v0z" />
    <glyph glyph-name="uni00B9" unicode="&#xb9;" horiz-adv-x="308" 
d="M198 270c-12 0 -21.499 4.49805 -28.499 13.498s-8.5 21.5 -4.5 37.5c25.333 98.667 40 158.334 44 179.001c6.66699 29.333 12.667 60.333 18 93c-28.667 -20 -47.834 -33 -57.501 -39s-20.167 -9 -31.5 -9c-12.667 0 -22 3.83301 -28 11.5s-7.66699 17.834 -5 30.501
c3.33301 16 15.666 31.333 36.999 46l66 47c17.333 12 30.833 20.833 40.5 26.5s21.5 8.5 35.5 8.5c35.333 0 49.333 -25 42 -75c-4 -30 -12 -71.667 -24 -125c-10 -47.333 -26.667 -113.333 -50 -198c-3.33301 -15.333 -10.166 -27 -20.499 -35s-21.5 -12 -33.5 -12v0z" />
    <glyph glyph-name="ordmasculine" unicode="&#xba;" horiz-adv-x="424" 
d="M234 386c-30 0 -55.832 6.66895 -77.499 20.002s-37.167 32.166 -46.5 56.499s-10.666 51.833 -3.99902 82.5c9.33301 42 29.166 77.167 59.499 105.5s67.833 47.166 112.5 56.499c11.333 9.33301 23.666 14 36.999 14c10 0 18 -2.66699 24 -8
c12.667 -1.33301 22 -7.33301 28 -18l13 -7c20.667 -11.333 36 -24.333 46 -39c18.667 -24.667 24 -55 16 -91c-6.66699 -30 -19.667 -58.167 -39 -84.5s-43.833 -47.5 -73.5 -63.5s-61.5 -24 -95.5 -24v0zM263.001 468.002c20.667 0 39.666 8.00098 56.999 24.001
s28.333 34 33 54c2.66699 11.333 3.83398 20.166 3.50098 26.499s-1.83301 11.833 -4.5 16.5c-5.33301 9.33301 -16 18.333 -32 27l-23 13c-58 -7.33301 -93 -35.333 -105 -84c-5.33301 -22 -1.5 -40.333 11.5 -55s32.833 -22 59.5 -22v0z" />
    <glyph glyph-name="guillemotright" unicode="&#xbb;" horiz-adv-x="557" 
d="M316 106c-13.333 -8 -26.4971 -11.168 -39.4971 -9.50098s-22.333 8.16699 -28 19.5s-6.33398 23.833 -2.00098 37.5s13.166 24.5 26.499 32.5c71.333 46 110.666 71.667 117.999 77l2 1l-28 24l-33 26l-32 28c-9.33301 8.66699 -13.333 19.834 -12 33.501
s7.33301 26 18 37s23 17.333 37 19s25.333 -1.5 34 -9.5c10.667 -10 21.334 -19.333 32.001 -28l31 -26l21 -17c13.333 -10.667 22.666 -20 27.999 -28c11.333 -14 16.333 -29.333 15 -46c-0.666992 -29.333 -22 -59.333 -64 -90l-124 -81v0zM75.0029 105.999
c-18 0 -30.332 7.66699 -36.999 23c-4 8 -4.66699 17 -2 27c3.33301 18 14 32 32 42c55.333 32 90.333 53.333 105 64l9 7l-8 7c-12 10.667 -40 29.667 -84 57c-14.667 10 -19.667 24.667 -15 44c1.33301 8.66699 5 17 11 25c13.333 16.667 29.666 25 48.999 25
c8.66699 0 16.667 -2 24 -6c45.333 -30 75.666 -51.333 90.999 -64c30 -26 43 -53.333 39 -82l-1 -5c-6 -28 -28 -55.667 -66 -83c-21.333 -16 -60.666 -40.333 -117.999 -73c-9.33301 -5.33301 -19 -8 -29 -8v0z" />
    <glyph glyph-name="onequarter" unicode="&#xbc;" horiz-adv-x="876" 
d="M198 270c-12 0 -21.499 4.49805 -28.499 13.498s-8.5 21.5 -4.5 37.5c25.333 98.667 40 158.334 44 179.001c6.66699 29.333 12.667 60.333 18 93c-28.667 -20 -47.834 -33 -57.501 -39s-20.167 -9 -31.5 -9c-12.667 0 -22 3.83301 -28 11.5s-7.66699 17.834 -5 30.501
c3.33301 16 15.666 31.333 36.999 46l66 47c17.333 12 30.833 20.833 40.5 26.5s21.5 8.5 35.5 8.5c35.333 0 49.333 -25 42 -75c-4 -30 -12 -71.667 -24 -125c-10 -47.333 -26.667 -113.333 -50 -198c-3.33301 -15.333 -10.166 -27 -20.499 -35s-21.5 -12 -33.5 -12v0z
M222.001 28.998c-6.66699 -10 -16.3311 -16.832 -28.998 -20.499s-23.5 -3.16699 -32.5 1.5s-14.833 12.167 -17.5 22.5s-0.666992 20.5 6 30.5c11.333 18 25 37 41 57c15.333 20 28.333 36.333 39 49l46 55l41 47l352 425c7.33301 9.33301 17.333 15.333 30 18
s23.167 1.16699 31.5 -4.5s13.666 -13.834 15.999 -24.501s-0.833984 -21 -9.50098 -31l-352 -425l-41 -49l-46 -53l-35 -45l-40 -53v0zM670.004 -15.001c-13.333 0 -23.001 4.16895 -29.001 12.502s-7.66699 18.166 -5 29.499l15 70c-41.333 0 -88 1 -140 3
c-13.333 0.666992 -24 5 -32 13s-12 18 -12 30c0 10 3 20.167 9 30.5s16.333 22.166 31 35.499l32 30l95.5 88.5c23.667 23 44.834 45.833 63.501 68.5c19.333 23.333 39 35 59 35c13.333 0 23.5 -4.66699 30.5 -14s8.83301 -21.333 5.5 -36l-18 -97
c-4.66699 -28.667 -11.334 -62.667 -20.001 -102l45 2c11.333 0 20 -3 26 -9s9 -13.667 9 -23c0 -14 -5 -26.333 -15 -37s-22.667 -16 -38 -16c-23.333 0 -38.666 -0.333008 -45.999 -1c-7.33301 -38.667 -12.333 -62.667 -15 -72
c-3.33301 -12.667 -9.83301 -22.667 -19.5 -30s-20.167 -11 -31.5 -11v0zM586.003 180.001c40 -1.33301 67.999 -1.00098 83.999 0.999023c6 26.667 8.66699 39.334 8 38.001l5.5 27c1.66699 8 2.83398 15 3.50098 21c-23.333 -22 -57 -51 -101 -87v0z" />
    <glyph glyph-name="onehalf" unicode="&#xbd;" horiz-adv-x="955" 
d="M198 270c-12 0 -21.499 4.49805 -28.499 13.498s-8.5 21.5 -4.5 37.5c25.333 98.667 40 158.334 44 179.001c6.66699 29.333 12.667 60.333 18 93c-28.667 -20 -47.834 -33 -57.501 -39s-20.167 -9 -31.5 -9c-12.667 0 -22 3.83301 -28 11.5s-7.66699 17.834 -5 30.501
c3.33301 16 15.666 31.333 36.999 46l66 47c17.333 12 30.833 20.833 40.5 26.5s21.5 8.5 35.5 8.5c35.333 0 49.333 -25 42 -75c-4 -30 -12 -71.667 -24 -125c-10 -47.333 -26.667 -113.333 -50 -198c-3.33301 -15.333 -10.166 -27 -20.499 -35s-21.5 -12 -33.5 -12v0z
M222.001 28.998c-6.66699 -10 -16.3311 -16.832 -28.998 -20.499s-23.5 -3.16699 -32.5 1.5s-14.833 12.167 -17.5 22.5s-0.666992 20.5 6 30.5c11.333 18 25 37 41 57c15.333 20 28.333 36.333 39 49l46 55l41 47l352 425c7.33301 9.33301 17.333 15.333 30 18
s23.167 1.16699 31.5 -4.5s13.666 -13.834 15.999 -24.501s-0.833984 -21 -9.50098 -31l-352 -425l-41 -49l-46 -53l-35 -45l-40 -53v0zM628.004 -4.00098c-24.667 0 -43.833 8.16602 -57.5 24.499s-18.167 36.166 -13.5 59.499c4.66699 21.333 13.167 39.833 25.5 55.5
s28.833 30.167 49.5 43.5c32 20.667 72.333 41.334 121 62.001c23.333 10 40.333 19.333 51 28s17.334 19 20.001 31c2.66699 11.333 -0.5 20.833 -9.5 28.5s-23.167 11.5 -42.5 11.5c-18 0 -34.333 -4.16699 -49 -12.5s-25.667 -20.166 -33 -35.499
c-4.66699 -11.333 -12 -20.5 -22 -27.5s-20 -10.5 -30 -10.5c-15.333 0 -26.166 4.66699 -32.499 14s-7.83301 21.333 -4.5 36c4 19.333 15.833 39 35.5 59s43.5 36.333 71.5 49s56 19 84 19c46.667 0 81 -12.167 103 -36.5s29.333 -54.833 22 -91.5
c-6.66699 -29.333 -21.834 -55.5 -45.501 -78.5s-58.834 -44.167 -105.501 -63.5c-60.667 -24.667 -98 -49.667 -112 -75c34 10 72.333 15 115 15c39.333 0 71 -4.66699 95 -14c22.667 -9.33301 32 -24 28 -44c-3.33301 -14 -10.833 -25.333 -22.5 -34
s-24.167 -13 -37.5 -13c-9.33301 0 -22 1.33301 -38 4c-18.667 4 -35.667 6 -51 6c-10 0 -20 -0.5 -30 -1.5s-19.333 -2.16699 -28 -3.5c-19.333 -3.33301 -38.333 -5 -57 -5v0z" />
    <glyph glyph-name="threequarters" unicode="&#xbe;" horiz-adv-x="908" 
d="M187 270c-28 0 -51.6699 4.66895 -71.0029 14.002s-34.666 21.666 -45.999 36.999c-14.667 18.667 -22 38 -22 58c0 12.667 4.5 23.5 13.5 32.5s19.167 13.5 30.5 13.5c10 0 18 -2.33301 24 -7s10.667 -12.334 14 -23.001c10 -32 33 -48 69 -48
c26.667 0 47.834 6.83301 63.501 20.5s23.5 31.834 23.5 54.501c0 14.667 -6.16699 26.5 -18.5 35.5s-26.833 12.833 -43.5 11.5c-12 -0.666992 -21.667 2 -29 8s-11 14.333 -11 25c0 12.667 5.66699 24 17 34s25.333 15 42 15s31.334 4.66699 44.001 14
s19 20.666 19 33.999c0 10.667 -4.66699 19.167 -14 25.5s-22.333 9.5 -39 9.5c-28.667 0 -51.334 -8.33301 -68.001 -25c-9.33301 -9.33301 -17.5 -16 -24.5 -20s-15.167 -6 -24.5 -6s-17 3.16699 -23 9.5s-9 14.166 -9 23.499c0 12 3.83301 23.167 11.5 33.5
s18.5 20.833 32.5 31.5c32 23.333 72.667 35 122 35c35.333 0 65 -9.33301 89 -28s36 -41.334 36 -68.001c0 -27.333 -10 -52 -30 -74s-45.667 -37.333 -77 -46l5 25c26.667 -8 46.667 -20.333 60 -37s20 -36 20 -58c0 -29.333 -8.66699 -56.166 -26 -80.499
s-40.166 -43.666 -68.499 -57.999s-58.833 -21.5 -91.5 -21.5v0zM289.997 29.002c-6.66699 -10 -16.3311 -16.832 -28.998 -20.499s-23.5 -3.16699 -32.5 1.5s-14.833 12.167 -17.5 22.5s-0.666992 20.5 6 30.5c11.333 18 25 37 41 57c15.333 20 28.333 36.333 39 49l46 55
l41 47l352 425c7.33301 9.33301 17.333 15.333 30 18s23.167 1.16699 31.5 -4.5s13.666 -13.834 15.999 -24.501s-0.833984 -21 -9.50098 -31l-352 -425l-41 -49l-46 -53l-35 -45l-40 -53v0zM702 -14.9971c-13.333 0 -23.001 4.16895 -29.001 12.502
s-7.66699 18.166 -5 29.499l15 70c-41.333 0 -88 1 -140 3c-13.333 0.666992 -24 5 -32 13s-12 18 -12 30c0 10 3 20.167 9 30.5s16.333 22.166 31 35.499l32 30l95.5 88.5c23.667 23 44.834 45.833 63.501 68.5c19.333 23.333 39 35 59 35c13.333 0 23.5 -4.66699 30.5 -14
s8.83301 -21.333 5.5 -36l-18 -97c-4.66699 -28.667 -11.334 -62.667 -20.001 -102l45 2c11.333 0 20 -3 26 -9s9 -13.667 9 -23c0 -14 -5 -26.333 -15 -37s-22.667 -16 -38 -16c-23.333 0 -38.666 -0.333008 -45.999 -1c-7.33301 -38.667 -12.333 -62.667 -15 -72
c-3.33301 -12.667 -9.83301 -22.667 -19.5 -30s-20.167 -11 -31.5 -11v0zM617.999 180.005c40 -1.33301 67.999 -1.00098 83.999 0.999023c6 26.667 8.66699 39.334 8 38.001l5.5 27c1.66699 8 2.83398 15 3.50098 21c-23.333 -22 -57 -51 -101 -87v0z" />
    <glyph glyph-name="questiondown" unicode="&#xbf;" horiz-adv-x="472" 
d="M137 -197c-47.333 4.66699 -87.999 20.6699 -121.999 48.0029s-51 65 -51 113c0 38 9.5 70.5 28.5 97.5s43.833 52.167 74.5 75.5l34 25l30 23c6 4.66699 12.667 10.667 20 18s13 14.666 17 21.999c4 6.66699 7.66699 13.667 11 21s7.16602 16.5 11.499 27.5l12.5 30.5
c6 13.333 15.667 23.666 29 30.999s26.333 9.5 39 6.5s21.5 -10.333 26.5 -22s4.5 -24.167 -1.5 -37.5l-9.5 -24c-5 -12.667 -10.167 -25 -15.5 -37s-10.666 -22.667 -15.999 -32c-8.66699 -14 -20 -28.167 -34 -42.5s-25.5 -25.166 -34.5 -32.499s-22.333 -17.333 -40 -30
s-26.834 -19.667 -27.501 -21c-20 -14.667 -33.833 -27.667 -41.5 -39s-11.5 -24.666 -11.5 -39.999c0.666992 -20.667 10 -38.667 28 -54s42.333 -24.333 73 -27c30.667 -3.33301 58.167 0.166992 82.5 10.5s41.833 24.833 52.5 43.5c1.33301 2.66699 2 5.66699 2 9l2 8
l1 5l4 18c3.33301 13.333 11.166 24.666 23.499 33.999s25.333 13.666 39 12.999s24 -6.16699 31 -16.5s8.83301 -22.5 5.5 -36.5l-2 -9l-2 -6l-2 -9c-2.66699 -16.667 -7.66699 -31.334 -15 -44.001c-18 -30.667 -42 -55.834 -72 -75.501s-60.167 -32.667 -90.5 -39
s-60.166 -8.16602 -89.499 -5.49902v0zM323.001 476.003c8 -9.33301 10.5 -21 7.5 -35s-10.333 -25.833 -22 -35.5s-24.5 -14.5 -38.5 -14.5s-24.833 4.83301 -32.5 14.5s-10 21.5 -7 35.5s10.333 25.833 22 35.5s24.5 14.5 38.5 14.5s24.667 -5 32 -15v0z" />
    <glyph glyph-name="Agrave" unicode="&#xc0;" horiz-adv-x="611" 
d="M60 30c-8 -13.333 -19.165 -22.6631 -33.498 -27.9961s-27.333 -5.33301 -39 0s-18.834 14.5 -21.501 27.5s0 25.833 8 38.5c20 32.667 47.667 80.667 83 144s60 106.666 74 129.999c7.33301 13.333 36.333 60.666 87 141.999c48.667 80 87 145 115 195
c7.33301 13.333 17.833 23.166 31.5 29.499s26.834 7.16602 39.501 2.49902c5.33301 -2 10 -5 14 -9c12 -4.66699 19.333 -13.667 22 -27l120 -605c2.66699 -13.333 0 -26.5 -8 -39.5s-19.167 -22.167 -33.5 -27.5s-26.833 -5.33301 -37.5 0s-17.334 14.333 -20.001 27
l-35 189c-2.66699 -1.33301 -5.66699 -2 -9 -2c-92.667 -3.33301 -177 -5 -253 -5c-48.667 -88 -83.334 -148.667 -104.001 -182v0zM224.002 314.003c56 0.666992 116.667 2 182 4l-44 219l-138 -223v0zM451.002 743.003c-12 0 -23.001 3.33105 -33.001 9.99805l-118 79
c-8 5.33301 -14 11.333 -18 18s-6 15.334 -6 26.001c0 12 4 22 12 30s17.333 12 28 12c11.333 0 23.333 -4.33301 36 -13l113 -79c16.667 -11.333 25 -24.666 25 -39.999c0 -12 -4.16699 -22.167 -12.5 -30.5s-17.166 -12.5 -26.499 -12.5v0z" />
    <glyph glyph-name="Aacute" unicode="&#xc1;" horiz-adv-x="609" 
d="M58 30c-8 -12.667 -19 -21.667 -33 -27s-26.667 -5.33301 -38 0s-18.333 14.333 -21 27s0 25.334 8 38.001l81 138l73 126l88 142c50.667 82 88.667 145.333 114 190c6.66699 13.333 16.834 23 30.501 29s26.5 6.66699 38.5 2c6 -2 11 -4.66699 15 -8
c11.333 -5.33301 18.666 -14.333 21.999 -27l122 -591c2.66699 -12.667 0.166992 -25.334 -7.5 -38.001s-18.5 -21.667 -32.5 -27s-26.833 -5.5 -38.5 -0.5s-18.834 14.167 -21.501 27.5l-37 178c-3.33301 -0.666992 -6.66602 -1 -9.99902 -1
c-91.333 -3.33301 -175 -5 -251 -5c-48 -83.333 -82 -141 -102 -173v0zM218 303c56.667 0.666992 117.667 2 183 4l-46 218l-137 -222v0zM383 744c-10.667 0 -19.998 4.16797 -27.998 12.501s-12 17.833 -12 28.5c0 18.667 9 34 27 46l114 76c13.333 8 24.666 12 33.999 12
c11.333 0 21 -3.83301 29 -11.5s12 -17.834 12 -30.501c0 -18 -8 -32.333 -24 -43l-120 -80c-10.667 -6.66699 -21.334 -10 -32.001 -10v0z" />
    <glyph glyph-name="Acircumflex" unicode="&#xc2;" horiz-adv-x="600" 
d="M58 31c-8 -12.667 -18.833 -21.668 -32.5 -27.001s-26.334 -5.33301 -38.001 0s-18.834 14.333 -21.501 27s0 25.334 8 38.001l382 629c7.33301 12.667 18 21.667 32 27s27 5.33301 39 0c9.33301 -4 15.833 -11 19.5 -21s3.5 -20.667 -0.5 -32
c6.66699 -70.667 25.334 -170.667 56.001 -300c23.333 -136.667 39 -239.334 47 -308.001c2 -13.333 -1.5 -26.166 -10.5 -38.499s-20.5 -20.666 -34.5 -24.999s-26.5 -3.33301 -37.5 3s-17.167 15.833 -18.5 28.5c-6.66699 54.667 -17.667 113.667 -33 177
c-6 -2 -12 -3 -18 -3c-12.667 0 -31.167 0.5 -55.5 1.5s-44.166 1.66699 -59.499 2s-34.5 0.166016 -57.5 -0.500977s-44.5 -2 -64.5 -4l-102 -174v0zM402 330.999c-19.333 84 -33.332 150 -41.999 198l-136 -221c33.333 1.33301 94.666 1 183.999 -1zM505.001 741.999
c-13.333 0 -25.333 8.00098 -36 24.001l-49 71l-83 -74c-14.667 -13.333 -28 -20 -40 -20c-12.667 0 -22.834 3.83301 -30.501 11.5s-11.5 16.167 -11.5 25.5c0 8 2 15 6 21s11.333 14 22 24l80 72c13.333 12 25.333 21 36 27s22.334 9 35.001 9c12 0 22 -2.66699 30 -8
s16 -13.666 24 -24.999c16 -22.667 27 -39.334 33 -50.001l16 -23c10 -14.667 15 -27.334 15 -38.001c0 -12.667 -4.66699 -23.667 -14 -33s-20.333 -14 -33 -14v0z" />
    <glyph glyph-name="Atilde" unicode="&#xc3;" horiz-adv-x="611" 
d="M60 30c-8 -13.333 -19.165 -22.6631 -33.498 -27.9961s-27.333 -5.33301 -39 0s-18.834 14.5 -21.501 27.5s0 25.833 8 38.5c20 32.667 47.667 80.667 83 144s60 106.666 74 129.999c7.33301 13.333 36.333 60.666 87 141.999c48.667 80 87 145 115 195
c7.33301 13.333 17.833 23.166 31.5 29.499s26.834 7.16602 39.501 2.49902c5.33301 -2 10 -5 14 -9c12 -4.66699 19.333 -13.667 22 -27l120 -605c2.66699 -13.333 0 -26.5 -8 -39.5s-19.167 -22.167 -33.5 -27.5s-26.833 -5.33301 -37.5 0s-17.334 14.333 -20.001 27
l-35 189c-2.66699 -1.33301 -5.66699 -2 -9 -2c-92.667 -3.33301 -177 -5 -253 -5c-48.667 -88 -83.334 -148.667 -104.001 -182v0zM224.002 314.003c56 0.666992 116.667 2 182 4l-44 219l-138 -223v0zM485.002 746.003c-14 0 -27.498 2.99805 -40.498 8.99805
s-27.5 14.667 -43.5 26c-13.333 8.66699 -23.666 14.834 -30.999 18.501s-14.333 5.5 -21 5.5c-20 0 -43.333 -11 -70 -33c-6 -4.66699 -11.333 -8.16699 -16 -10.5s-10.334 -3.5 -17.001 -3.5c-8 0 -14.667 2.83301 -20 8.5s-8 12.834 -8 21.501c0 16.667 8 32 24 46
c43.333 38.667 82.666 58 117.999 58c13.333 0 25.833 -2.83301 37.5 -8.5s26.5 -14.167 44.5 -25.5c14 -8.66699 25.167 -15 33.5 -19s16.166 -6 23.499 -6c10 0 19.167 3.33301 27.5 10s17.833 17 28.5 31c10 14 21.333 21 34 21c8 0 14.833 -3 20.5 -9s8.5 -14 8.5 -24
c0 -12 -6.33301 -26.667 -19 -44c-38.667 -48 -76.667 -72 -114 -72v0z" />
    <glyph glyph-name="Adieresis" unicode="&#xc4;" horiz-adv-x="605" 
d="M58 29c-8 -12.667 -18.998 -21.6709 -32.998 -27.0039s-26.667 -5.33301 -38 0s-18.333 14.333 -21 27s0 25.334 8 38.001c45.333 72 105.333 174.333 180 307c85.333 151.333 146 255.666 182 312.999c6 10.667 14.667 18.834 26 24.501s22.333 7.5 33 5.5
c2 1.33301 4.66699 2.33301 8 3c14 4 26.333 2.66699 37 -4s16.334 -16.667 17.001 -30c8 -88.667 24.667 -208.667 50 -360c3.33301 -21.333 11.166 -62.166 23.499 -122.499s20.5 -107.166 24.5 -140.499c1.33301 -13.333 -2.5 -26.166 -11.5 -38.499
s-20.5 -20.666 -34.5 -24.999s-26.5 -3.33301 -37.5 3s-17.5 15.833 -19.5 28.5c-3.33301 29.333 -13 90 -29 182c-38.667 1.33301 -72.334 2.83301 -101.001 4.5s-46.334 2.66699 -53.001 3s-15.667 0.666016 -27 0.999023s-19.333 0.5 -24 0.5h-44l-116 -193v0z
M401.002 314.996c-16 96.667 -28 178 -36 244l-124 -218l-10 -19c8 0 64.667 -2.33301 170 -7v0zM321.002 767.996c-14.667 0 -27 4.66699 -37 14s-15 21 -15 35c0 20 8.83301 38 26.5 54s37.5 24 59.5 24c14.667 0 26.167 -4.16699 34.5 -12.5s12.5 -19.5 12.5 -33.5
c0 -22 -8.5 -41 -25.5 -57s-35.5 -24 -55.5 -24v0zM488.002 768.996c-16 0 -28.499 4.66699 -37.499 14s-13.5 20.666 -13.5 33.999c0 18 7.66699 35.5 23 52.5s33.666 25.5 54.999 25.5c17.333 0 30.333 -4 39 -12s13 -19 13 -33c0 -23.333 -7.5 -42.666 -22.5 -57.999
s-33.833 -23 -56.5 -23v0z" />
    <glyph glyph-name="Aring" unicode="&#xc5;" horiz-adv-x="611" 
d="M60 30c-8 -13.333 -19.165 -22.6631 -33.498 -27.9961s-27.333 -5.33301 -39 0s-18.834 14.5 -21.501 27.5s0 25.833 8 38.5c20 32.667 47.667 80.667 83 144s60 106.666 74 129.999c7.33301 13.333 36.333 60.666 87 141.999c48.667 80 87 145 115 195
c7.33301 13.333 17.833 23.166 31.5 29.499s26.834 7.16602 39.501 2.49902c5.33301 -2 10 -5 14 -9c12 -4.66699 19.333 -13.667 22 -27l120 -605c2.66699 -13.333 0 -26.5 -8 -39.5s-19.167 -22.167 -33.5 -27.5s-26.833 -5.33301 -37.5 0s-17.334 14.333 -20.001 27
l-35 189c-2.66699 -1.33301 -5.66699 -2 -9 -2c-92.667 -3.33301 -177 -5 -253 -5c-48.667 -88 -83.334 -148.667 -104.001 -182v0zM224.002 314.003c56 0.666992 116.667 2 182 4l-44 219l-138 -223v0zM406.002 736.003c-25.333 0 -46.5 8.33105 -63.5 24.998
s-25.5 36.334 -25.5 59.001c0 24.667 10.5 49 31.5 73s47.833 39.667 80.5 47c6.66699 5.33301 13.667 8 21 8h2l12 2h5c8.66699 0 17 -1.66699 25 -5c23.333 -11.333 35 -32.333 35 -63c0 -21.333 -4.33301 -41.666 -13 -60.999c-10.667 -24.667 -26.667 -45.667 -48 -63
c-17.333 -14.667 -38 -22 -62 -22v0zM415.002 802.001c17.333 -2 31.001 8.66797 41.001 32.001c4.66699 9.33301 7 18.666 7 27.999s-3 17 -9 23h-1l-2 -1h-4c-2.66699 0 -4.33398 -0.333008 -5.00098 -1c-2 -2 -6.33301 -3.66699 -13 -5c-14 -3.33301 -25 -9.5 -33 -18.5
s-12 -18.167 -12 -27.5c0 -7.33301 2.66699 -13.833 8 -19.5s13 -9.16699 23 -10.5v0z" />
    <glyph glyph-name="AE" unicode="&#xc6;" horiz-adv-x="946" 
d="M423 -1c-14 -0.666992 -25.001 3.66797 -33.001 13.001s-11 21 -9 35c1.33301 5.33301 3.33301 10.666 6 15.999c8.66699 40 17 83 25 129l-245 4l-119 -176c-8.66699 -12.667 -20 -21.167 -34 -25.5s-26.667 -3.5 -38 2.5s-17.833 15.5 -19.5 28.5
s1.83301 25.833 10.5 38.5l106 156l92 142l106 165l94 141c4 10.667 11 19.667 21 27s20.333 11.666 31 12.999c68 6.66699 156.333 9 265 7c131.333 -2.66699 216.333 -3 255 -1c13.333 0.666992 24.166 -3.66602 32.499 -12.999s11.333 -20.833 9 -34.5
s-9.16602 -25.667 -20.499 -36s-24.333 -15.833 -39 -16.5c-45.333 -2 -131.666 -1.66699 -258.999 1h-74l-36 -201c38 -0.666992 92.667 -0.5 164 0.5s122.333 1.5 153 1.5c14 0 24.833 -4.83301 32.5 -14.5s10 -21.5 7 -35.5s-10.333 -25.833 -22 -35.5
s-24.5 -14.5 -38.5 -14.5c-31.333 0 -82 -0.5 -152 -1.5s-123.667 -1.16699 -161 -0.5c-14 -84 -26.667 -155 -38 -213c88.667 2.66699 198 4 328 4c14 0 24.833 -4.83301 32.5 -14.5s10 -21.5 7 -35.5s-10.333 -25.833 -22 -35.5s-24.5 -14.5 -38.5 -14.5
c-152 0 -278.333 -2 -379 -6v0zM429.999 292.002c4.66699 25.333 10.501 60 17.501 104s13.667 83.167 20 117.5s12.166 67.833 17.499 100.5c-16.667 -0.666992 -32.667 -1.66699 -48 -3l-205 -316c67.333 -1.33301 133.333 -2.33301 198 -3v0z" />
    <glyph glyph-name="Ccedilla" unicode="&#xc7;" horiz-adv-x="711" 
d="M265 -230c-29.333 0 -53.333 5.83398 -72 17.501s-28 26.167 -28 43.5c0 11.333 3.5 20.833 10.5 28.5s15.5 11.5 25.5 11.5c8.66699 0 15.5 -1.66699 20.5 -5s9.83301 -8 14.5 -14c8.66699 -11.333 21.334 -17 38.001 -17c10.667 0 19.5 3.33301 26.5 10
s10.5 14.667 10.5 24c0 11.333 -5 19.666 -15 24.999c-8.66699 4.66699 -22.334 7 -41.001 7c-11.333 0 -20.166 2.66699 -26.499 8s-9.5 12 -9.5 20c0 11.333 6.5 25 19.5 41s33.5 39.667 61.5 71c18.667 -6 36 -13.667 52 -23c-34 -28 -53.667 -55 -59 -81l-22 15
c9.33301 4 17.333 6 24 6c24.667 0 46 -7.66699 64 -23s27 -34 27 -56c0 -18.667 -5.83301 -36.5 -17.5 -53.5s-26.834 -30.5 -45.501 -40.5s-38 -15 -58 -15v0zM371 -5.99902c-41.333 -2.66699 -81.333 0.333008 -120 9c-39.333 9.33301 -71.666 23.666 -96.999 42.999
c-34 26 -59 62.833 -75 110.5s-23 95.5 -21 143.5c2 39.333 11.333 79.666 28 120.999s38.667 79.166 66 113.499s59 66 95 95s73.833 51 113.5 66s80.5 24 122.5 27s82.667 -4.16699 122 -21.5c15.333 -6.66699 29.166 -14.667 41.499 -24s24 -21.333 35 -36l23.5 -32
l22 -37c6.66699 -10.667 7.66699 -22.834 3 -36.501s-13.334 -24.834 -26.001 -33.501s-25.5 -12.167 -38.5 -10.5s-22.833 7.83398 -29.5 18.501l-28 45c-6.66699 9.33301 -15.167 19 -25.5 29s-21.5 17.667 -33.5 23c-26.667 12 -54.334 16.833 -83.001 14.5
s-57.334 -8.83301 -86.001 -19.5s-56 -26.167 -82 -46.5s-48.833 -42.666 -68.5 -66.999s-35.834 -51.666 -48.501 -81.999s-19.667 -60.5 -21 -90.5c-1.33301 -36.667 3.83398 -72.667 15.501 -108s28.5 -61.333 50.5 -78c17.333 -12.667 40.5 -22.5 69.5 -29.5
s58.833 -9.16699 89.5 -6.5c68.667 4.66699 118.334 26.667 149.001 66c5.33301 6.66699 9.66602 13.334 12.999 20.001l13 26l17 32c7.33301 12.667 17.833 22 31.5 28s26.5 6.66699 38.5 2s19.667 -13.167 23 -25.5s1.33301 -25.166 -6 -38.499
c-1.33301 -2 -5.16602 -9.5 -11.499 -22.5s-13.166 -25.667 -20.499 -38s-14.333 -22.833 -21 -31.5c-29.333 -37.333 -65.166 -65.5 -107.499 -84.5s-86.5 -30.167 -132.5 -33.5v0v0z" />
    <glyph glyph-name="Egrave" unicode="&#xc8;" horiz-adv-x="659" 
d="M425 0l-324.995 -0.00292969c-20 0 -34.333 6.83301 -43 20.5s-10.334 31.834 -5.00098 54.501c1.33301 4.66699 9.66602 42.667 24.999 114c2.66699 14 5.66699 28.333 9 43l10 46c18 85.333 30.667 143.333 38 174c16.667 96 33 165 49 207
c3.33301 10 9.16602 19 17.499 27s17.166 13.333 26.499 16c12 8.66699 23.667 13 35 13l400 1c13.333 0 23.333 -3.66699 30 -11s10 -16.666 10 -27.999c0 -14 -5.66699 -27 -17 -39s-26.333 -18 -45 -18c-186.667 0 -310.334 -0.333008 -371.001 -1
c-3.33301 -8 -6.5 -19 -9.5 -33s-6.16699 -30.333 -9.5 -49l-17 -87l-8 -36l336 -1c12.667 0 22.5 -3.66699 29.5 -11s10.5 -16.666 10.5 -27.999c0 -14.667 -5.66699 -28.167 -17 -40.5s-26.333 -18.5 -45 -18.5l-195 2h-141l-45 -219h48
c117.333 -1.33301 193.333 -2 228 -2l101 1c13.333 0 23.5 -3.33301 30.5 -10s10.5 -15.667 10.5 -27c0 -15.333 -5.5 -29 -16.5 -41s-25.833 -18 -44.5 -18zM523.005 742.997c-12 0 -23.001 3.33105 -33.001 9.99805l-118 79c-8 5.33301 -14 11.333 -18 18
s-6 15.334 -6 26.001c0 12 4 22 12 30s17.333 12 28 12c11.333 0 23.333 -4.33301 36 -13l113 -79c16.667 -11.333 25 -24.666 25 -39.999c0 -12 -4.16699 -22.167 -12.5 -30.5s-17.166 -12.5 -26.499 -12.5v0z" />
    <glyph glyph-name="Eacute" unicode="&#xc9;" horiz-adv-x="659" 
d="M425 0l-324.995 -0.00292969c-20 0 -34.333 6.83301 -43 20.5s-10.334 31.834 -5.00098 54.501c1.33301 4.66699 9.66602 42.667 24.999 114c2.66699 14 5.66699 28.333 9 43l10 46c18 85.333 30.667 143.333 38 174c16.667 96 33 165 49 207
c3.33301 10 9.16602 19 17.499 27s17.166 13.333 26.499 16c12 8.66699 23.667 13 35 13l400 1c13.333 0 23.333 -3.66699 30 -11s10 -16.666 10 -27.999c0 -14 -5.66699 -27 -17 -39s-26.333 -18 -45 -18c-186.667 0 -310.334 -0.333008 -371.001 -1
c-3.33301 -8 -6.5 -19 -9.5 -33s-6.16699 -30.333 -9.5 -49l-17 -87l-8 -36l336 -1c12.667 0 22.5 -3.66699 29.5 -11s10.5 -16.666 10.5 -27.999c0 -14.667 -5.66699 -28.167 -17 -40.5s-26.333 -18.5 -45 -18.5l-195 2h-141l-45 -219h48
c117.333 -1.33301 193.333 -2 228 -2l101 1c13.333 0 23.5 -3.33301 30.5 -10s10.5 -15.667 10.5 -27c0 -15.333 -5.5 -29 -16.5 -41s-25.833 -18 -44.5 -18zM450.005 743.997c-10.667 0 -19.998 4.16797 -27.998 12.501s-12 17.833 -12 28.5c0 18.667 9 34 27 46l114 76
c13.333 8 24.666 12 33.999 12c11.333 0 21 -3.83301 29 -11.5s12 -17.834 12 -30.501c0 -18 -8 -32.333 -24 -43l-120 -80c-10.667 -6.66699 -21.334 -10 -32.001 -10v0z" />
    <glyph glyph-name="Ecircumflex" unicode="&#xca;" horiz-adv-x="659" 
d="M425 0l-324.995 -0.00292969c-20 0 -34.333 6.83301 -43 20.5s-10.334 31.834 -5.00098 54.501c1.33301 4.66699 9.66602 42.667 24.999 114c2.66699 14 5.66699 28.333 9 43l10 46c18 85.333 30.667 143.333 38 174c16.667 96 33 165 49 207
c3.33301 10 9.16602 19 17.499 27s17.166 13.333 26.499 16c12 8.66699 23.667 13 35 13l400 1c13.333 0 23.333 -3.66699 30 -11s10 -16.666 10 -27.999c0 -14 -5.66699 -27 -17 -39s-26.333 -18 -45 -18c-186.667 0 -310.334 -0.333008 -371.001 -1
c-3.33301 -8 -6.5 -19 -9.5 -33s-6.16699 -30.333 -9.5 -49l-17 -87l-8 -36l336 -1c12.667 0 22.5 -3.66699 29.5 -11s10.5 -16.666 10.5 -27.999c0 -14.667 -5.66699 -28.167 -17 -40.5s-26.333 -18.5 -45 -18.5l-195 2h-141l-45 -219h48
c117.333 -1.33301 193.333 -2 228 -2l101 1c13.333 0 23.5 -3.33301 30.5 -10s10.5 -15.667 10.5 -27c0 -15.333 -5.5 -29 -16.5 -41s-25.833 -18 -44.5 -18zM582.005 741.997c-13.333 0 -25.333 8.00098 -36 24.001l-49 71l-83 -74c-14.667 -13.333 -28 -20 -40 -20
c-12.667 0 -22.834 3.83301 -30.501 11.5s-11.5 16.167 -11.5 25.5c0 8 2 15 6 21s11.333 14 22 24l80 72c13.333 12 25.333 21 36 27s22.334 9 35.001 9c12 0 22 -2.66699 30 -8s16 -13.666 24 -24.999c16 -22.667 27 -39.334 33 -50.001l16 -23
c10 -14.667 15 -27.334 15 -38.001c0 -12.667 -4.66699 -23.667 -14 -33s-20.333 -14 -33 -14v0z" />
    <glyph glyph-name="Edieresis" unicode="&#xcb;" horiz-adv-x="659" 
d="M425 0l-324.995 -0.00292969c-20 0 -34.333 6.83301 -43 20.5s-10.334 31.834 -5.00098 54.501c1.33301 4.66699 9.66602 42.667 24.999 114c2.66699 14 5.66699 28.333 9 43l10 46c18 85.333 30.667 143.333 38 174c16.667 96 33 165 49 207
c3.33301 10 9.16602 19 17.499 27s17.166 13.333 26.499 16c12 8.66699 23.667 13 35 13l400 1c13.333 0 23.333 -3.66699 30 -11s10 -16.666 10 -27.999c0 -14 -5.66699 -27 -17 -39s-26.333 -18 -45 -18c-186.667 0 -310.334 -0.333008 -371.001 -1
c-3.33301 -8 -6.5 -19 -9.5 -33s-6.16699 -30.333 -9.5 -49l-17 -87l-8 -36l336 -1c12.667 0 22.5 -3.66699 29.5 -11s10.5 -16.666 10.5 -27.999c0 -14.667 -5.66699 -28.167 -17 -40.5s-26.333 -18.5 -45 -18.5l-195 2h-141l-45 -219h48
c117.333 -1.33301 193.333 -2 228 -2l101 1c13.333 0 23.5 -3.33301 30.5 -10s10.5 -15.667 10.5 -27c0 -15.333 -5.5 -29 -16.5 -41s-25.833 -18 -44.5 -18zM393.005 767.997c-14.667 0 -27 4.66699 -37 14s-15 21 -15 35c0 20 8.83301 38 26.5 54s37.5 24 59.5 24
c14.667 0 26.167 -4.16699 34.5 -12.5s12.5 -19.5 12.5 -33.5c0 -22 -8.5 -41 -25.5 -57s-35.5 -24 -55.5 -24v0zM560.005 768.997c-16 0 -28.499 4.66699 -37.499 14s-13.5 20.666 -13.5 33.999c0 18 7.66699 35.5 23 52.5s33.666 25.5 54.999 25.5
c17.333 0 30.333 -4 39 -12s13 -19 13 -33c0 -23.333 -7.5 -42.666 -22.5 -57.999s-33.833 -23 -56.5 -23v0z" />
    <glyph glyph-name="Igrave" unicode="&#xcc;" horiz-adv-x="286" 
d="M151 49c-2.66699 -14 -10.168 -25.668 -22.501 -35.001s-25.5 -13.666 -39.5 -12.999s-24.333 6 -31 16s-8.66699 22 -6 36l66 327l58 284c3.33301 14 10.833 25.833 22.5 35.5s24.5 14.5 38.5 14.5s24.833 -4.83301 32.5 -14.5s9.83398 -21.5 6.50098 -35.5
l-57.5 -285.5c-28.333 -143 -50.833 -252.833 -67.5 -329.5v0zM295.999 742.999c-12 0 -23.001 3.33105 -33.001 9.99805l-118 79c-8 5.33301 -14 11.333 -18 18s-6 15.334 -6 26.001c0 12 4 22 12 30s17.333 12 28 12c11.333 0 23.333 -4.33301 36 -13l113 -79
c16.667 -11.333 25 -24.666 25 -39.999c0 -12 -4.16699 -22.167 -12.5 -30.5s-17.166 -12.5 -26.499 -12.5v0z" />
    <glyph glyph-name="Iacute" unicode="&#xcd;" horiz-adv-x="286" 
d="M151 49c-2.66699 -14 -10.168 -25.668 -22.501 -35.001s-25.5 -13.666 -39.5 -12.999s-24.333 6 -31 16s-8.66699 22 -6 36l66 327l58 284c3.33301 14 10.833 25.833 22.5 35.5s24.5 14.5 38.5 14.5s24.833 -4.83301 32.5 -14.5s9.83398 -21.5 6.50098 -35.5
l-57.5 -285.5c-28.333 -143 -50.833 -252.833 -67.5 -329.5v0zM222.999 743.999c-10.667 0 -19.998 4.16797 -27.998 12.501s-12 17.833 -12 28.5c0 18.667 9 34 27 46l114 76c13.333 8 24.666 12 33.999 12c11.333 0 21 -3.83301 29 -11.5s12 -17.834 12 -30.501
c0 -18 -8 -32.333 -24 -43l-120 -80c-10.667 -6.66699 -21.334 -10 -32.001 -10v0z" />
    <glyph glyph-name="Icircumflex" unicode="&#xce;" horiz-adv-x="286" 
d="M151 49c-2.66699 -14 -10.168 -25.668 -22.501 -35.001s-25.5 -13.666 -39.5 -12.999s-24.333 6 -31 16s-8.66699 22 -6 36l66 327l58 284c3.33301 14 10.833 25.833 22.5 35.5s24.5 14.5 38.5 14.5s24.833 -4.83301 32.5 -14.5s9.83398 -21.5 6.50098 -35.5
l-57.5 -285.5c-28.333 -143 -50.833 -252.833 -67.5 -329.5v0zM354.999 741.999c-13.333 0 -25.333 8.00098 -36 24.001l-49 71l-83 -74c-14.667 -13.333 -28 -20 -40 -20c-12.667 0 -22.834 3.83301 -30.501 11.5s-11.5 16.167 -11.5 25.5c0 8 2 15 6 21s11.333 14 22 24
l80 72c13.333 12 25.333 21 36 27s22.334 9 35.001 9c12 0 22 -2.66699 30 -8s16 -13.666 24 -24.999c16 -22.667 27 -39.334 33 -50.001l16 -23c10 -14.667 15 -27.334 15 -38.001c0 -12.667 -4.66699 -23.667 -14 -33s-20.333 -14 -33 -14v0z" />
    <glyph glyph-name="Idieresis" unicode="&#xcf;" horiz-adv-x="286" 
d="M151 49c-2.66699 -14 -10.168 -25.668 -22.501 -35.001s-25.5 -13.666 -39.5 -12.999s-24.333 6 -31 16s-8.66699 22 -6 36l66 327l58 284c3.33301 14 10.833 25.833 22.5 35.5s24.5 14.5 38.5 14.5s24.833 -4.83301 32.5 -14.5s9.83398 -21.5 6.50098 -35.5
l-57.5 -285.5c-28.333 -143 -50.833 -252.833 -67.5 -329.5v0zM165.999 767.999c-14.667 0 -27 4.66699 -37 14s-15 21 -15 35c0 20 8.83301 38 26.5 54s37.5 24 59.5 24c14.667 0 26.167 -4.16699 34.5 -12.5s12.5 -19.5 12.5 -33.5c0 -22 -8.5 -41 -25.5 -57
s-35.5 -24 -55.5 -24v0zM332.999 768.999c-16 0 -28.499 4.66699 -37.499 14s-13.5 20.666 -13.5 33.999c0 18 7.66699 35.5 23 52.5s33.666 25.5 54.999 25.5c17.333 0 30.333 -4 39 -12s13 -19 13 -33c0 -23.333 -7.5 -42.666 -22.5 -57.999s-33.833 -23 -56.5 -23v0z" />
    <glyph glyph-name="Eth" unicode="&#xd0;" horiz-adv-x="730" 
d="M100 312c-14 0 -25.332 4.49902 -33.999 13.499s-11.334 20.5 -8.00098 34.5c2.66699 12 9.5 22.167 20.5 30.5s23.5 12.5 37.5 12.5l271 1c13.333 0 23.666 -4.66699 30.999 -14s9.33301 -20.666 6 -33.999c-3.33301 -12.667 -10.666 -23 -21.999 -31
s-23.333 -12 -36 -12l-266 -1v0zM95.001 -2.00098c-8.66699 0 -16.332 2.33594 -22.999 7.00293c-10.667 3.33301 -18 10.333 -22 21s-4.33301 23 -1 37l70 304c8 36 16.667 80.667 26 134c6.66699 38 16.334 82.333 29.001 133l5 21c4 14 12.167 25.667 24.5 35
s25.166 13.666 38.499 12.999h4c7.33301 3.33301 14 5.33301 20 6c26.667 2 50.5 3.66699 71.5 5s46.167 2 75.5 2c94.667 0 169.167 -22.667 223.5 -68s81.5 -111 81.5 -197c0 -70.667 -19.5 -140.834 -58.5 -210.501s-89.5 -125.834 -151.5 -168.501
c-58.667 -40 -131.334 -63.333 -218.001 -70c-26 -2 -59.667 -3 -101 -3l-91 -1h-3v0zM211.003 99.002c39.333 0 70.001 1.00098 92.001 3.00098c66 4.66699 119 20.667 159 48c44 29.333 80.667 70.5 110 123.5s44 105.5 44 157.5c0 63.333 -19.833 110.166 -59.5 140.499
s-93.5 45.5 -161.5 45.5c-30.667 0 -63.334 -1.66699 -98.001 -5l-28 -2c-9.33301 -34.667 -17 -69.667 -23 -105c-8.66699 -48 -18 -94.667 -28 -140l-18 -83l-8 -34c-14 -57.333 -25.333 -107 -34 -149h53v0v0z" />
    <glyph glyph-name="Ntilde" unicode="&#xd1;" horiz-adv-x="764" 
d="M561 -3c-13.333 0 -23.998 4.66797 -31.998 14.001c-8.66699 2.66699 -15 7.33398 -19 14.001c-26.667 44.667 -54.334 94 -83.001 148l-50 104c-20.667 49.333 -38 88 -52 116l-57 116l-14 25c-54 -201.333 -88.333 -362 -103 -482
c-1.33301 -14 -7.66602 -26.333 -18.999 -37s-24 -16.667 -38 -18s-25.333 2.5 -34 11.5s-12.334 20.167 -11.001 33.5c8 60 20.5 130.667 37.5 212s31.833 144.666 44.5 189.999l57 216c3.33301 14 11.166 25.5 23.499 34.5s25.5 13.167 39.5 12.5
c22.667 4.66699 38.334 -2.33301 47.001 -21c14 -28.667 34.667 -67.334 62 -116.001l59 -119c16 -31.333 37.667 -79 65 -143c31.333 -64.667 53.666 -112.667 66.999 -144c12 46 21 84 27 114c4 23.333 10 55.5 18 96.5l19.5 102.5c5 27.333 11.167 59.166 18.5 95.499
s15 69.5 23 99.5c4 14 12.167 25.5 24.5 34.5s25.333 13.167 39 12.5s24 -6.16699 31 -16.5s8.5 -22.5 4.5 -36.5c-16 -64.667 -26.167 -107.5 -30.5 -128.5s-12.333 -63.667 -24 -128l-23.5 -127.5c-6 -31.333 -16 -74.166 -30 -128.499s-22.667 -89.833 -26 -106.5
c-2.66699 -14 -10 -25.833 -22 -35.5s-25 -14.5 -39 -14.5v0zM584.002 746.001c-14 0 -27.498 2.99805 -40.498 8.99805s-27.5 14.667 -43.5 26c-13.333 8.66699 -23.666 14.834 -30.999 18.501s-14.333 5.5 -21 5.5c-20 0 -43.333 -11 -70 -33
c-6 -4.66699 -11.333 -8.16699 -16 -10.5s-10.334 -3.5 -17.001 -3.5c-8 0 -14.667 2.83301 -20 8.5s-8 12.834 -8 21.501c0 16.667 8 32 24 46c43.333 38.667 82.666 58 117.999 58c13.333 0 25.833 -2.83301 37.5 -8.5s26.5 -14.167 44.5 -25.5
c14 -8.66699 25.167 -15 33.5 -19s16.166 -6 23.499 -6c10 0 19.167 3.33301 27.5 10s17.833 17 28.5 31c10 14 21.333 21 34 21c8 0 14.833 -3 20.5 -9s8.5 -14 8.5 -24c0 -12 -6.33301 -26.667 -19 -44c-38.667 -48 -76.667 -72 -114 -72v0z" />
    <glyph glyph-name="Ograve" unicode="&#xd2;" horiz-adv-x="777" 
d="M350 -10c-54.667 0 -104.168 11.1699 -148.501 33.5029s-79.5 54.166 -105.5 95.499s-39 90 -39 146c0 80.667 19.333 155.667 58 225s89 124.333 151 165s126 61 192 61c6 0 12.833 -1 20.5 -3s12.834 -3 15.501 -3c46 0 89 -14 129 -42s71.833 -65.667 95.5 -113
s35.5 -98 35.5 -152c0 -70.667 -18.333 -137.834 -55 -201.501s-86 -114.834 -148 -153.501s-129 -58 -201 -58v0zM370.999 84.0029c46 0 90.8301 14.001 134.497 42.001s79 65.5 106 112.5s40.5 97.5 40.5 151.5c0 35.333 -6.16699 69 -18.5 101
s-31.166 58.833 -56.499 80.5s-56.666 34.5 -93.999 38.5c-26.667 2.66699 -51 4 -73 4c-49.333 -10.667 -93.166 -33 -131.499 -67s-67.833 -74.333 -88.5 -121s-31 -93.334 -31 -140.001c0 -68 18.667 -118.667 56 -152s89.333 -50 156 -50v0zM543.996 743.004
c-12 0 -23.001 3.33105 -33.001 9.99805l-118 79c-8 5.33301 -14 11.333 -18 18s-6 15.334 -6 26.001c0 12 4 22 12 30s17.333 12 28 12c11.333 0 23.333 -4.33301 36 -13l113 -79c16.667 -11.333 25 -24.666 25 -39.999c0 -12 -4.16699 -22.167 -12.5 -30.5
s-17.166 -12.5 -26.499 -12.5v0z" />
    <glyph glyph-name="Oacute" unicode="&#xd3;" horiz-adv-x="777" 
d="M350 -10c-54.667 0 -104.168 11.1699 -148.501 33.5029s-79.5 54.166 -105.5 95.499s-39 90 -39 146c0 80.667 19.333 155.667 58 225s89 124.333 151 165s126 61 192 61c6 0 12.833 -1 20.5 -3s12.834 -3 15.501 -3c46 0 89 -14 129 -42s71.833 -65.667 95.5 -113
s35.5 -98 35.5 -152c0 -70.667 -18.333 -137.834 -55 -201.501s-86 -114.834 -148 -153.501s-129 -58 -201 -58v0zM370.999 84.0029c46 0 90.8301 14.001 134.497 42.001s79 65.5 106 112.5s40.5 97.5 40.5 151.5c0 35.333 -6.16699 69 -18.5 101
s-31.166 58.833 -56.499 80.5s-56.666 34.5 -93.999 38.5c-26.667 2.66699 -51 4 -73 4c-49.333 -10.667 -93.166 -33 -131.499 -67s-67.833 -74.333 -88.5 -121s-31 -93.334 -31 -140.001c0 -68 18.667 -118.667 56 -152s89.333 -50 156 -50v0zM470.996 744.004
c-10.667 0 -19.998 4.16797 -27.998 12.501s-12 17.833 -12 28.5c0 18.667 9 34 27 46l114 76c13.333 8 24.666 12 33.999 12c11.333 0 21 -3.83301 29 -11.5s12 -17.834 12 -30.501c0 -18 -8 -32.333 -24 -43l-120 -80c-10.667 -6.66699 -21.334 -10 -32.001 -10v0z" />
    <glyph glyph-name="Ocircumflex" unicode="&#xd4;" horiz-adv-x="777" 
d="M350 -10c-54.667 0 -104.168 11.1699 -148.501 33.5029s-79.5 54.166 -105.5 95.499s-39 90 -39 146c0 80.667 19.333 155.667 58 225s89 124.333 151 165s126 61 192 61c6 0 12.833 -1 20.5 -3s12.834 -3 15.501 -3c46 0 89 -14 129 -42s71.833 -65.667 95.5 -113
s35.5 -98 35.5 -152c0 -70.667 -18.333 -137.834 -55 -201.501s-86 -114.834 -148 -153.501s-129 -58 -201 -58v0zM370.999 84.0029c46 0 90.8301 14.001 134.497 42.001s79 65.5 106 112.5s40.5 97.5 40.5 151.5c0 35.333 -6.16699 69 -18.5 101
s-31.166 58.833 -56.499 80.5s-56.666 34.5 -93.999 38.5c-26.667 2.66699 -51 4 -73 4c-49.333 -10.667 -93.166 -33 -131.499 -67s-67.833 -74.333 -88.5 -121s-31 -93.334 -31 -140.001c0 -68 18.667 -118.667 56 -152s89.333 -50 156 -50v0zM602.996 742.004
c-13.333 0 -25.333 8.00098 -36 24.001l-49 71l-83 -74c-14.667 -13.333 -28 -20 -40 -20c-12.667 0 -22.834 3.83301 -30.501 11.5s-11.5 16.167 -11.5 25.5c0 8 2 15 6 21s11.333 14 22 24l80 72c13.333 12 25.333 21 36 27s22.334 9 35.001 9c12 0 22 -2.66699 30 -8
s16 -13.666 24 -24.999c16 -22.667 27 -39.334 33 -50.001l16 -23c10 -14.667 15 -27.334 15 -38.001c0 -12.667 -4.66699 -23.667 -14 -33s-20.333 -14 -33 -14v0z" />
    <glyph glyph-name="Otilde" unicode="&#xd5;" horiz-adv-x="777" 
d="M350 -10c-54.667 0 -104.168 11.1699 -148.501 33.5029s-79.5 54.166 -105.5 95.499s-39 90 -39 146c0 80.667 19.333 155.667 58 225s89 124.333 151 165s126 61 192 61c6 0 12.833 -1 20.5 -3s12.834 -3 15.501 -3c46 0 89 -14 129 -42s71.833 -65.667 95.5 -113
s35.5 -98 35.5 -152c0 -70.667 -18.333 -137.834 -55 -201.501s-86 -114.834 -148 -153.501s-129 -58 -201 -58v0zM370.999 84.0029c46 0 90.8301 14.001 134.497 42.001s79 65.5 106 112.5s40.5 97.5 40.5 151.5c0 35.333 -6.16699 69 -18.5 101
s-31.166 58.833 -56.499 80.5s-56.666 34.5 -93.999 38.5c-26.667 2.66699 -51 4 -73 4c-49.333 -10.667 -93.166 -33 -131.499 -67s-67.833 -74.333 -88.5 -121s-31 -93.334 -31 -140.001c0 -68 18.667 -118.667 56 -152s89.333 -50 156 -50v0zM577.996 746.004
c-14 0 -27.498 2.99805 -40.498 8.99805s-27.5 14.667 -43.5 26c-13.333 8.66699 -23.666 14.834 -30.999 18.501s-14.333 5.5 -21 5.5c-20 0 -43.333 -11 -70 -33c-6 -4.66699 -11.333 -8.16699 -16 -10.5s-10.334 -3.5 -17.001 -3.5c-8 0 -14.667 2.83301 -20 8.5
s-8 12.834 -8 21.501c0 16.667 8 32 24 46c43.333 38.667 82.666 58 117.999 58c13.333 0 25.833 -2.83301 37.5 -8.5s26.5 -14.167 44.5 -25.5c14 -8.66699 25.167 -15 33.5 -19s16.166 -6 23.499 -6c10 0 19.167 3.33301 27.5 10s17.833 17 28.5 31c10 14 21.333 21 34 21
c8 0 14.833 -3 20.5 -9s8.5 -14 8.5 -24c0 -12 -6.33301 -26.667 -19 -44c-38.667 -48 -76.667 -72 -114 -72v0z" />
    <glyph glyph-name="Odieresis" unicode="&#xd6;" horiz-adv-x="798" 
d="M246 -3c-46.667 11.333 -85.1699 33.168 -115.503 65.501s-51.166 67.5 -62.499 105.5s-15 81 -11 129c5.33301 72 26.666 142.333 63.999 211c38 68.667 89.667 122.667 155 162c58 34.667 128.333 52 211 52c9.33301 2.66699 18 2.66699 26 0
c3.33301 -0.666992 12.5 -2.83398 27.5 -6.50098s25.833 -6.5 32.5 -8.5l26 -9c12.667 -4 23.667 -8.66699 33 -14s18.666 -11 27.999 -17c36.667 -25.333 65.167 -56.333 85.5 -93s31.833 -75.167 34.5 -115.5s-1 -81.5 -11 -123.5s-26 -82.333 -48 -121
c-23.333 -40 -51.166 -75.667 -83.499 -107s-69.166 -56.833 -110.499 -76.5s-85.666 -33 -132.999 -40s-96.666 -4.83301 -147.999 6.5v0zM288.997 95.002c72 -17.333 138.67 -9.66699 200.003 23c61.333 32 109.666 75.333 144.999 130c16.667 29.333 28.667 59.5 36 90.5
s9.83301 61.333 7.5 91s-10.833 57.834 -25.5 84.501s-35.334 49 -62.001 67l-12 8c-4 2.66699 -7.83301 4.83398 -11.5 6.50098s-8.5 3.5 -14.5 5.5l-11 5c-2.66699 0.666992 -7.66699 2 -15 4l-14.5 4c-2.33301 0.666992 -7.83301 2 -16.5 4l-17 5
c-2.66699 -0.666992 -5.66699 -1 -9 -1c-64.667 0 -116.334 -11.333 -155.001 -34c-43.333 -26 -79 -64.667 -107 -116c-28 -50.667 -44 -104.334 -48 -161.001c-4.66699 -58 4.33301 -105.833 27 -143.5s57 -61.834 103 -72.501v0zM432 768.001
c-14.667 0 -27 4.66699 -37 14s-15 21 -15 35c0 20 8.83301 38 26.5 54s37.5 24 59.5 24c14.667 0 26.167 -4.16699 34.5 -12.5s12.5 -19.5 12.5 -33.5c0 -22 -8.5 -41 -25.5 -57s-35.5 -24 -55.5 -24v0zM599 769.001c-16 0 -28.499 4.66699 -37.499 14
s-13.5 20.666 -13.5 33.999c0 18 7.66699 35.5 23 52.5s33.666 25.5 54.999 25.5c17.333 0 30.333 -4 39 -12s13 -19 13 -33c0 -23.333 -7.5 -42.666 -22.5 -57.999s-33.833 -23 -56.5 -23v0z" />
    <glyph glyph-name="multiply" unicode="&#xd7;" horiz-adv-x="668" 
d="M392 97c-24 34.667 -42.9971 60.6641 -56.9971 77.9971l-10 12l-60 -50c-55.333 -46.667 -100 -86.667 -134 -120c-10.667 -11.333 -23 -17.666 -37 -18.999s-25.333 2.66699 -34 12s-12.167 21.333 -10.5 36s8.5 27.667 20.5 39
c35.333 36.667 82.666 79.334 141.999 128.001l55 46c-62 74.667 -107.333 134.667 -136 180c-7.33301 10.667 -9 23.334 -5 38.001s12.167 26.834 24.5 36.501s25.166 14.167 38.499 13.5s23.666 -6.66699 30.999 -18c28.667 -44.667 73 -103.334 133 -176.001
c16 13.333 49.333 44 100 92c43.333 40.667 78.333 72.334 105 95.001c12 9.33301 24.833 14 38.5 14s24.167 -5.16699 31.5 -15.5s9.5 -22.833 6.5 -37.5s-10.5 -27 -22.5 -37c-25.333 -21.333 -58.666 -51.333 -99.999 -90c-48 -45.333 -81.333 -76 -100 -92l7 -8
c15.333 -18.667 35.666 -46.667 60.999 -84c26 -38.667 45 -65.334 57 -80.001c7.33301 -10.667 9.5 -23.167 6.5 -37.5s-10.5 -26.833 -22.5 -37.5s-24.833 -16 -38.5 -16s-24.5 5 -32.5 15z" />
    <glyph glyph-name="Oslash" unicode="&#xd8;" horiz-adv-x="786" 
d="M43 -19c-8 -8.66699 -17.8291 -13.5029 -29.4961 -14.5029s-20.834 2.16699 -27.501 9.5s-9.33398 16.5 -8.00098 27.5s6.33301 20.5 15 28.5l131 101l668 591c9.33301 8.66699 19.666 12.834 30.999 12.501s20.166 -4.16602 26.499 -11.499s8.33301 -16.666 6 -27.999
s-7.83301 -21 -16.5 -29l-406 -361l-265 -231l-125 -95v0zM370.004 -10.0029c-54.667 0 -104.168 11.1699 -148.501 33.5029s-79.5 54.166 -105.5 95.499s-39 90 -39 146c0 80.667 19.333 155.667 58 225s89 124.333 151 165s126 61 192 61c6 0 12.833 -1 20.5 -3
s12.834 -3 15.501 -3c46 0 89 -14 129 -42s71.833 -65.667 95.5 -113s35.5 -98 35.5 -152c0 -70.667 -18.333 -137.834 -55 -201.501s-86 -114.834 -148 -153.501s-129 -58 -201 -58v0v0zM391.003 84c46 0 90.8301 14.001 134.497 42.001s79 65.5 106 112.5
s40.5 97.5 40.5 151.5c0 35.333 -6.16699 69 -18.5 101s-31.166 58.833 -56.499 80.5s-56.666 34.5 -93.999 38.5c-26.667 2.66699 -51 4 -73 4c-49.333 -10.667 -93.166 -33 -131.499 -67s-67.833 -74.333 -88.5 -121s-31 -93.334 -31 -140.001
c0 -68 18.667 -118.667 56 -152s89.333 -50 156 -50v0v0z" />
    <glyph glyph-name="Ugrave" unicode="&#xd9;" horiz-adv-x="732" 
d="M75 193c0 40.667 6.00195 87.834 18.002 141.501s30.667 127.167 56 220.5l30 110c4 16 11.833 28.667 23.5 38s23.834 14 36.501 14c15.333 0 26.833 -4.5 34.5 -13.5s9.5 -21.5 5.5 -37.5l-32 -115c-26.667 -96 -45.334 -166.5 -56.001 -211.5s-16 -82.833 -16 -113.5
c0 -45.333 12 -80 36 -104s59 -36 105 -36c67.333 0 125 27.667 173 83s83 129.666 105 222.999c8.66699 36.667 24.667 126.667 48 270c2.66699 16 9.66699 29 21 39s25 15 41 15c13.333 0 23.666 -4.33301 30.999 -13s9.66602 -20.334 6.99902 -35.001
c-12 -70 -18.667 -109.667 -20 -119c-17.333 -97.333 -28 -154.666 -32 -171.999c-26 -114 -71.667 -207 -137 -279s-149.333 -108 -252 -108c-69.333 0 -124.333 17.833 -165 53.5s-61 85.5 -61 149.5v0zM522.002 743c-12 0 -23.001 3.33105 -33.001 9.99805l-118 79
c-8 5.33301 -14 11.333 -18 18s-6 15.334 -6 26.001c0 12 4 22 12 30s17.333 12 28 12c11.333 0 23.333 -4.33301 36 -13l113 -79c16.667 -11.333 25 -24.666 25 -39.999c0 -12 -4.16699 -22.167 -12.5 -30.5s-17.166 -12.5 -26.499 -12.5v0z" />
    <glyph glyph-name="Uacute" unicode="&#xda;" horiz-adv-x="701" 
d="M158 42c-20 17.333 -36.4961 41.498 -49.4961 72.498s-21.167 61.167 -24.5 90.5c-2.66699 31.333 -2 67.5 2 108.5s11.833 87.667 23.5 140l26.5 117.5l27 100c3.33301 13.333 11.166 24.666 23.499 33.999s25.333 13.666 39 12.999s24 -6.16699 31 -16.5
s8.83301 -22.5 5.5 -36.5c-19.333 -70.667 -31.666 -117.667 -36.999 -141c-10 -40 -19.833 -89.667 -29.5 -149s-12.834 -106 -9.50098 -140c2 -20.667 7.66699 -42 17 -64s19.666 -37.667 30.999 -47c30.667 -25.333 69 -34 115 -26s82.333 29.333 109 64
c22 27.333 41 59 57 95s29.5 77.5 40.5 124.5s19.167 85.833 24.5 116.5c4.66699 24 11.667 66.333 21 127c4.66699 24 7 38.333 7 43c2.66699 14 9.66699 26.167 21 36.5s24 15.833 38 16.5s25.167 -3.5 33.5 -12.5s11.5 -20.5 9.5 -34.5
c-0.666992 -2 -3.83398 -21.5 -9.50098 -58.5s-9.33398 -59.833 -11.001 -68.5l-11 -60c-5.66699 -31.333 -10.167 -53.666 -13.5 -66.999l-16 -62.5c-7.33301 -28.333 -14.666 -51.166 -21.999 -68.499l-24.5 -60.5c-9 -23 -19.167 -43.833 -30.5 -62.5
s-23.666 -36.667 -36.999 -54c-32.667 -41.333 -72.834 -72.166 -120.501 -92.499s-94.334 -28.166 -140.001 -23.499s-84.5 20 -116.5 46v0zM442.004 743.998c-10.667 0 -19.998 4.16797 -27.998 12.501s-12 17.833 -12 28.5c0 18.667 9 34 27 46l114 76
c13.333 8 24.666 12 33.999 12c11.333 0 21 -3.83301 29 -11.5s12 -17.834 12 -30.501c0 -18 -8 -32.333 -24 -43l-120 -80c-10.667 -6.66699 -21.334 -10 -32.001 -10v0z" />
    <glyph glyph-name="Ucircumflex" unicode="&#xdb;" horiz-adv-x="687" 
d="M269 -1c-48.667 5.33301 -91.999 20.667 -129.999 46s-60.333 59.666 -67 102.999c-2.66699 16 -3 35 -1 57c1.33301 22 3.66602 40.667 6.99902 56l12.5 57c5 22.667 8.16699 37.334 9.5 44.001c2 9.33301 9 44.833 21 106.5s19.167 97.334 21.5 107.001
s9.16602 40.5 20.499 92.5c4 14 12 25.667 24 35s24.833 13.666 38.5 12.999s24.167 -6 31.5 -16s9.33301 -22 6 -36l-21 -91c-2.66699 -11.333 -9.5 -46 -20.5 -104s-17.833 -93 -20.5 -105c-2.66699 -13.333 -6.5 -30.5 -11.5 -51.5s-8.66699 -37.5 -11 -49.5
s-4.16602 -25.5 -5.49902 -40.5s-1.33301 -28.5 0 -40.5c3.33301 -20 16.833 -38 40.5 -54s53.167 -26 88.5 -30s67.166 -1 95.499 9s49.5 24.667 63.5 44c32 48 60 129 84 243c8 37.333 17.167 88 27.5 152s17.5 105 21.5 123c2.66699 14 9.83398 26 21.501 36
s24.5 15 38.5 15s25 -4.66699 33 -14s10.333 -21 7 -35c-4 -18 -11.167 -59.167 -21.5 -123.5s-19.5 -115.5 -27.5 -153.5c-27.333 -128 -61.666 -223 -102.999 -285c-16 -23.333 -35.333 -43.333 -58 -60c-22.667 -16 -45.834 -27.667 -69.501 -35s-48.5 -12.5 -74.5 -15.5
s-49.667 -2.83301 -71 0.5v0zM549.001 742.001c-13.333 0 -25.333 8.00098 -36 24.001l-49 71l-83 -74c-14.667 -13.333 -28 -20 -40 -20c-12.667 0 -22.834 3.83301 -30.501 11.5s-11.5 16.167 -11.5 25.5c0 8 2 15 6 21s11.333 14 22 24l80 72c13.333 12 25.333 21 36 27
s22.334 9 35.001 9c12 0 22 -2.66699 30 -8s16 -13.666 24 -24.999c16 -22.667 27 -39.334 33 -50.001l16 -23c10 -14.667 15 -27.334 15 -38.001c0 -12.667 -4.66699 -23.667 -14 -33s-20.333 -14 -33 -14v0z" />
    <glyph glyph-name="Udieresis" unicode="&#xdc;" horiz-adv-x="732" 
d="M75 193c0 40.667 6.00195 87.834 18.002 141.501s30.667 127.167 56 220.5l30 110c4 16 11.833 28.667 23.5 38s23.834 14 36.501 14c15.333 0 26.833 -4.5 34.5 -13.5s9.5 -21.5 5.5 -37.5l-32 -115c-26.667 -96 -45.334 -166.5 -56.001 -211.5s-16 -82.833 -16 -113.5
c0 -45.333 12 -80 36 -104s59 -36 105 -36c67.333 0 125 27.667 173 83s83 129.666 105 222.999c8.66699 36.667 24.667 126.667 48 270c2.66699 16 9.66699 29 21 39s25 15 41 15c13.333 0 23.666 -4.33301 30.999 -13s9.66602 -20.334 6.99902 -35.001
c-12 -70 -18.667 -109.667 -20 -119c-17.333 -97.333 -28 -154.666 -32 -171.999c-26 -114 -71.667 -207 -137 -279s-149.333 -108 -252 -108c-69.333 0 -124.333 17.833 -165 53.5s-61 85.5 -61 149.5v0zM392.002 768c-14.667 0 -27 4.66699 -37 14s-15 21 -15 35
c0 20 8.83301 38 26.5 54s37.5 24 59.5 24c14.667 0 26.167 -4.16699 34.5 -12.5s12.5 -19.5 12.5 -33.5c0 -22 -8.5 -41 -25.5 -57s-35.5 -24 -55.5 -24v0zM559.002 769c-16 0 -28.499 4.66699 -37.499 14s-13.5 20.666 -13.5 33.999c0 18 7.66699 35.5 23 52.5
s33.666 25.5 54.999 25.5c17.333 0 30.333 -4 39 -12s13 -19 13 -33c0 -23.333 -7.5 -42.666 -22.5 -57.999s-33.833 -23 -56.5 -23v0z" />
    <glyph glyph-name="Yacute" unicode="&#xdd;" horiz-adv-x="582" 
d="M194 50c2 11.333 5.16895 27.335 9.50195 48.002s9.16602 46.334 14.499 77.001l17 98l-75 195l-26 64c-26 66 -40.333 102.667 -43 110c-3.33301 10.667 -3.5 21.667 -0.5 33s9 20.833 18 28.5s19.833 11.5 32.5 11.5c13.333 0 23.5 -2.83301 30.5 -8.5
s12.833 -14.834 17.5 -27.501c0 -0.666992 6.33301 -17.334 19 -50.001c24 -69.333 56.333 -155.333 97 -258c12 15.333 37.333 44.666 76 87.999c51.333 59.333 92.666 108.666 123.999 147.999l67 84c6 8 13 14 21 18s15.667 6 23 6c11.333 0 21.333 -4 30 -12
s13 -17.333 13 -28c0 -12 -6 -25.667 -18 -41c-11.333 -14.667 -37.666 -47 -78.999 -97l-80 -94l-48 -57c-48.667 -56.667 -82.334 -97.667 -101.001 -123l-16 -87l-14 -80l-8 -41c-4 -17.333 -11.333 -30.666 -22 -39.999s-22.667 -14 -36 -14c-14.667 0 -26 4.5 -34 13.5
s-11 20.833 -9 35.5v0zM363.002 744.002c-10.667 0 -19.998 4.16797 -27.998 12.501s-12 17.833 -12 28.5c0 18.667 9 34 27 46l114 76c13.333 8 24.666 12 33.999 12c11.333 0 21 -3.83301 29 -11.5s12 -17.834 12 -30.501c0 -18 -8 -32.333 -24 -43l-120 -80
c-10.667 -6.66699 -21.334 -10 -32.001 -10v0z" />
    <glyph glyph-name="Thorn" unicode="&#xde;" horiz-adv-x="644" 
d="M49 48c32.667 190.667 74.666 397.001 125.999 619.001c3.33301 14 11 25.667 23 35s25 14 39 14s24.5 -5 31.5 -15s9.16699 -22 6.5 -36l-10 -48c93.333 0.666992 145 0.666992 155 0c88.667 -3.33301 151 -18.333 187 -45c33.333 -24.667 50.333 -65.667 51 -123
c0.666992 -60 -18 -109 -56 -147c-27.333 -27.333 -62.333 -53 -105 -77c-34 -19.333 -87 -31 -159 -35c-18 -0.666992 -42.833 -1.16699 -74.5 -1.5s-52.5 -0.833008 -62.5 -1.5s-18.333 1.33301 -25 6c-10 -47.333 -18.667 -94.333 -26 -141
c-2.66699 -14 -9.66699 -26 -21 -36s-24.166 -15.333 -38.499 -16s-25.5 3.66602 -33.5 12.999s-10.667 21 -8 35v0zM191.999 280.001c8 4 16.3311 6.33203 24.998 6.99902c10 0.666992 30.833 1.16699 62.5 1.5s56.5 0.833008 74.5 1.5c54 2.66699 89.667 9 107 19
c32 18 57.333 36.333 76 55c12.667 12.667 18.834 34 18.501 64s-7.16602 50 -20.499 60c-22 16.667 -69 26.334 -141 29.001c-10 0.666992 -61 0.666992 -153 0l-49 -237v0z" />
    <glyph glyph-name="germandbls" unicode="&#xdf;" horiz-adv-x="558" 
d="M259 -14c-14.667 -4.66699 -27.5 -3.99805 -38.5 2.00195s-17.5 15.5 -19.5 28.5s1.33301 25.667 10 38s20 20.833 34 25.5c54 18 95.333 38 124 60s48 52 58 90c10.667 40 8.33398 72.667 -6.99902 98c-10.667 18.667 -29.334 27 -56.001 25
c-2.66699 0 -6.5 -0.333008 -11.5 -1s-7.83301 -1 -8.5 -1c-10.667 -0.666992 -19.667 -0.333984 -27 0.999023c-22.667 3.33301 -35.334 15.666 -38.001 36.999c-1.33301 14 2.66699 29.667 12 47c3.33301 5.33301 7.33301 10.333 12 15s8.66699 7.66699 12 9l5 3
c2 1.33301 5 2.66602 9 3.99902c1.33301 0.666992 3.66602 1.33398 6.99902 2.00098c7.33301 2 12.333 3.66699 15 5c14 4 26.333 9.33301 37 16c32.667 18.667 53 46.667 61 84c8 40.667 -7.33301 64 -46 70c-20 3.33301 -41.667 1.5 -65 -5.5
s-43.666 -17.833 -60.999 -32.5c-34.667 -29.333 -61.667 -77.666 -81 -144.999c-8 -31.333 -13 -52.333 -15 -63s-5.5 -31.667 -10.5 -63s-8.5 -51.666 -10.5 -60.999c-17.333 -93.333 -29 -172.666 -35 -237.999c-1.33301 -14 -7.5 -26.333 -18.5 -37
s-23.5 -16.834 -37.5 -18.501s-25.5 1.83301 -34.5 10.5s-12.833 19.667 -11.5 33c6 68.667 18 150.667 36 246c1.33301 6 4.66602 25.667 9.99902 59s9.33301 56.166 12 68.499s8.33398 36.166 17.001 71.499c26 90.667 66.667 159.667 122 207
c30.667 26 66.167 45 106.5 57s77.833 15.333 112.5 10c40 -6.66699 70.833 -24.5 92.5 -53.5s27.5 -67.5 17.5 -115.5c-12 -55.333 -39.333 -101.333 -82 -138c18 -10 33 -24.667 45 -44c26.667 -46 31.334 -102 14.001 -168c-7.33301 -28 -18.333 -53.833 -33 -77.5
s-30.334 -43.5 -47.001 -59.5s-36.5 -30.833 -59.5 -44.5s-44.167 -24.5 -63.5 -32.5s-40.666 -16 -63.999 -24v0z" />
    <glyph glyph-name="agrave" unicode="&#xe0;" horiz-adv-x="566" 
d="M192 -1c-32.667 0 -62.167 6.83008 -88.5 20.4971s-47.166 32.834 -62.499 57.501s-23 53 -23 85c0 38.667 7.5 74.167 22.5 106.5s36.833 66.5 65.5 102.5c39.333 48.667 81.666 87.5 126.999 116.5s90.666 43.5 135.999 43.5c33.333 0 66 -8.66699 98 -26
c14.667 -9.33301 27 -21.166 37 -35.499s15 -29.833 15 -46.5c0 -44.667 -3 -86.667 -9 -126c-7.33301 -43.333 -16.333 -89 -27 -137c-9.33301 -42.667 -16.666 -79.334 -21.999 -110.001c-2.66699 -16 -9.66699 -28.5 -21 -37.5s-23.666 -13.5 -36.999 -13.5
s-24.333 4.83301 -33 14.5s-11.667 22.834 -9 39.501l4 27c-21.333 -21.333 -47.833 -40.166 -79.5 -56.499s-62.834 -24.5 -93.501 -24.5v0zM217 98.9971c24 0 46.001 4.5 66.001 13.5s40.667 21.5 62 37.5c8.66699 6.66699 16.667 14.334 24 23.001l19 23
c18.667 85.333 28.334 152.333 29.001 201c-10.667 22 -32.334 33 -65.001 33c-26 0 -53.333 -8.83301 -82 -26.5s-56.334 -43.167 -83.001 -76.5c-44.667 -56.667 -67 -105.667 -67 -147c0 -24.667 9 -44.334 27 -59.001s41.333 -22 70 -22v0zM371.001 587.997
l-40.998 37.5l-31 27.5c-12 10.667 -24 22 -36 34c-10.667 10 -17.334 21.333 -20.001 34s-0.166992 23.834 7.5 33.501s18.5 14.667 32.5 15s26 -3.83398 36 -12.501l27 -24l27.5 -24c6.33301 -5.33301 15.166 -13.666 26.499 -24.999l35 -34c10 -10 15.5 -21.333 16.5 -34
s-2.83301 -23.334 -11.5 -32.001s-19.667 -12.5 -33 -11.5s-25.333 6.16699 -36 15.5v0z" />
    <glyph glyph-name="aacute" unicode="&#xe1;" horiz-adv-x="566" 
d="M192 -1c-32.667 0 -62.167 6.83008 -88.5 20.4971s-47.166 32.834 -62.499 57.501s-23 53 -23 85c0 38.667 7.5 74.167 22.5 106.5s36.833 66.5 65.5 102.5c39.333 48.667 81.666 87.5 126.999 116.5s90.666 43.5 135.999 43.5c33.333 0 66 -8.66699 98 -26
c14.667 -9.33301 27 -21.166 37 -35.499s15 -29.833 15 -46.5c0 -44.667 -3 -86.667 -9 -126c-7.33301 -43.333 -16.333 -89 -27 -137c-9.33301 -42.667 -16.666 -79.334 -21.999 -110.001c-2.66699 -16 -9.66699 -28.5 -21 -37.5s-23.666 -13.5 -36.999 -13.5
s-24.333 4.83301 -33 14.5s-11.667 22.834 -9 39.501l4 27c-21.333 -21.333 -47.833 -40.166 -79.5 -56.499s-62.834 -24.5 -93.501 -24.5v0zM217 98.9971c24 0 46.001 4.5 66.001 13.5s40.667 21.5 62 37.5c8.66699 6.66699 16.667 14.334 24 23.001l19 23
c18.667 85.333 28.334 152.333 29.001 201c-10.667 22 -32.334 33 -65.001 33c-26 0 -53.333 -8.83301 -82 -26.5s-56.334 -43.167 -83.001 -76.5c-44.667 -56.667 -67 -105.667 -67 -147c0 -24.667 9 -44.334 27 -59.001s41.333 -22 70 -22v0zM393.001 587.997
c-10.667 -9.33301 -22.668 -14.499 -36.001 -15.499s-24.333 2.83301 -33 11.5s-12.5 19.5 -11.5 32.5s7.16699 24.833 18.5 35.5l31 29l20.5 18.5l15 13.5l21.5 19l31 27c10.667 8 22.834 12 36.501 12s24.334 -4.83301 32.001 -14.5s10.167 -20.834 7.5 -33.501
s-9.33398 -24 -20.001 -34l-37 -33l-31 -28l-45 -40v0z" />
    <glyph glyph-name="acircumflex" unicode="&#xe2;" horiz-adv-x="566" 
d="M192 -1c-32.667 0 -62.167 6.83008 -88.5 20.4971s-47.166 32.834 -62.499 57.501s-23 53 -23 85c0 38.667 7.5 74.167 22.5 106.5s36.833 66.5 65.5 102.5c39.333 48.667 81.666 87.5 126.999 116.5s90.666 43.5 135.999 43.5c33.333 0 66 -8.66699 98 -26
c14.667 -9.33301 27 -21.166 37 -35.499s15 -29.833 15 -46.5c0 -44.667 -3 -86.667 -9 -126c-7.33301 -43.333 -16.333 -89 -27 -137c-9.33301 -42.667 -16.666 -79.334 -21.999 -110.001c-2.66699 -16 -9.66699 -28.5 -21 -37.5s-23.666 -13.5 -36.999 -13.5
s-24.333 4.83301 -33 14.5s-11.667 22.834 -9 39.501l4 27c-21.333 -21.333 -47.833 -40.166 -79.5 -56.499s-62.834 -24.5 -93.501 -24.5v0zM217 98.9971c24 0 46.001 4.5 66.001 13.5s40.667 21.5 62 37.5c8.66699 6.66699 16.667 14.334 24 23.001l19 23
c18.667 85.333 28.334 152.333 29.001 201c-10.667 22 -32.334 33 -65.001 33c-26 0 -53.333 -8.83301 -82 -26.5s-56.334 -43.167 -83.001 -76.5c-44.667 -56.667 -67 -105.667 -67 -147c0 -24.667 9 -44.334 27 -59.001s41.333 -22 70 -22v0zM479.001 575.997
c-13.333 0 -25.333 8.00098 -36 24.001l-49 71l-83 -74c-14.667 -13.333 -28 -20 -40 -20c-12.667 0 -22.834 3.83301 -30.501 11.5s-11.5 16.167 -11.5 25.5c0 8 2 15 6 21s11.333 14 22 24l80 72c13.333 12 25.333 21 36 27s22.334 9 35.001 9c12 0 22 -2.66699 30 -8
s16 -13.666 24 -24.999c16 -22.667 27 -39.334 33 -50.001l16 -23c10 -14.667 15 -27.334 15 -38.001c0 -12.667 -4.66699 -23.667 -14 -33s-20.333 -14 -33 -14v0z" />
    <glyph glyph-name="atilde" unicode="&#xe3;" horiz-adv-x="566" 
d="M192 -1c-32.667 0 -62.167 6.83008 -88.5 20.4971s-47.166 32.834 -62.499 57.501s-23 53 -23 85c0 38.667 7.5 74.167 22.5 106.5s36.833 66.5 65.5 102.5c39.333 48.667 81.666 87.5 126.999 116.5s90.666 43.5 135.999 43.5c33.333 0 66 -8.66699 98 -26
c14.667 -9.33301 27 -21.166 37 -35.499s15 -29.833 15 -46.5c0 -44.667 -3 -86.667 -9 -126c-7.33301 -43.333 -16.333 -89 -27 -137c-9.33301 -42.667 -16.666 -79.334 -21.999 -110.001c-2.66699 -16 -9.66699 -28.5 -21 -37.5s-23.666 -13.5 -36.999 -13.5
s-24.333 4.83301 -33 14.5s-11.667 22.834 -9 39.501l4 27c-21.333 -21.333 -47.833 -40.166 -79.5 -56.499s-62.834 -24.5 -93.501 -24.5v0zM217 98.9971c24 0 46.001 4.5 66.001 13.5s40.667 21.5 62 37.5c8.66699 6.66699 16.667 14.334 24 23.001l19 23
c18.667 85.333 28.334 152.333 29.001 201c-10.667 22 -32.334 33 -65.001 33c-26 0 -53.333 -8.83301 -82 -26.5s-56.334 -43.167 -83.001 -76.5c-44.667 -56.667 -67 -105.667 -67 -147c0 -24.667 9 -44.334 27 -59.001s41.333 -22 70 -22v0zM451.001 569.997
c-14 0 -27.498 2.99805 -40.498 8.99805s-27.5 14.667 -43.5 26c-13.333 8.66699 -23.666 14.834 -30.999 18.501s-14.333 5.5 -21 5.5c-20 0 -43.333 -11 -70 -33c-6 -4.66699 -11.333 -8.16699 -16 -10.5s-10.334 -3.5 -17.001 -3.5c-8 0 -14.667 2.83301 -20 8.5
s-8 12.834 -8 21.501c0 16.667 8 32 24 46c43.333 38.667 82.666 58 117.999 58c13.333 0 25.833 -2.83301 37.5 -8.5s26.5 -14.167 44.5 -25.5c14 -8.66699 25.167 -15 33.5 -19s16.166 -6 23.499 -6c10 0 19.167 3.33301 27.5 10s17.833 17 28.5 31c10 14 21.333 21 34 21
c8 0 14.833 -3 20.5 -9s8.5 -14 8.5 -24c0 -12 -6.33301 -26.667 -19 -44c-38.667 -48 -76.667 -72 -114 -72v0z" />
    <glyph glyph-name="adieresis" unicode="&#xe4;" horiz-adv-x="566" 
d="M273 10c-25.333 -6.66699 -50.5029 -10.3291 -75.5029 -10.9961s-49.667 3.16602 -74 11.499s-44.5 21.166 -60.5 38.499c-28.667 28.667 -43.5 64.334 -44.5 107.001s6.83301 81 23.5 115s38 67.167 64 99.5s52.5 59.666 79.5 81.999s56.833 41.166 89.5 56.499
s64.834 22.833 96.501 22.5s63.5 -9.16602 95.5 -26.499c4.66699 -2.66699 9.66699 -6.66699 15 -12s9.66602 -10 12.999 -14l11 -13c2.66699 -4 4 -6.33301 4 -7c8.66699 -9.33301 11.667 -21.333 9 -36c0.666992 -40 -2.33301 -82 -9 -126s-14.667 -85.333 -24 -124
s-17.666 -79.667 -24.999 -123c-2 -13.333 -8.66699 -25 -20 -35s-24.166 -15.333 -38.499 -16s-25.5 3.66602 -33.5 12.999s-11 20.666 -9 33.999l1 4c-29.333 -18.667 -58.666 -32 -87.999 -40v0zM264.997 106.005c10.667 2.66699 20.666 6.33398 29.999 11.001
s16.5 8.66699 21.5 12s14.833 10.5 29.5 21.5s26.667 19.5 36 25.5c1.33301 1.33301 3.33301 2.66602 6 3.99902c18.667 90 28.334 162.333 29.001 217c-1.33301 2.66699 -3 5.16699 -5 7.5s-3.33301 4.16602 -4 5.49902s-1.66699 2.5 -3 3.5s-3 2.16699 -5 3.5
c-28 17.333 -61.5 17.833 -100.5 1.5s-76.5 -46.833 -112.5 -91.5c-36 -45.333 -57.5 -84.833 -64.5 -118.5s-0.166992 -61.5 20.5 -83.5c12.667 -12.667 30 -20.667 52 -24s45.333 -1.66602 70 5.00098v0zM379.996 627.005c-6.66699 -16 -17.168 -29.6689 -31.501 -41.002
s-32.166 -15.666 -53.499 -12.999s-36.166 10.167 -44.499 22.5s-11.333 25.666 -9 39.999s10 28.333 23 42s29.167 22.834 48.5 27.501c10.667 3.33301 18.667 5 24 5h1h3c1.33301 0 3 0.333008 5 1c8 0.666992 14.333 -0.333008 19 -3
c13.333 -7.33301 21 -18.666 23 -33.999c1.33301 -15.333 -1.33398 -31 -8.00098 -47v0zM560.995 626.003c-7.33301 -16 -18.002 -29.6689 -32.002 -41.002s-31.667 -15.666 -53 -12.999s-36.166 10.167 -44.499 22.5s-11.333 25.666 -9 39.999s10 28.333 23 42
s29.167 22.834 48.5 27.501c4 3.33301 8.66699 5 14 5h1h8c4.66699 0 7.66699 0.333008 9 1c8.66699 0.666992 15.334 -0.333008 20.001 -3c12.667 -7.33301 20.334 -18.666 23.001 -33.999c1.33301 -15.333 -1.33398 -31 -8.00098 -47v0z" />
    <glyph glyph-name="aring" unicode="&#xe5;" horiz-adv-x="566" 
d="M192 -1c-32.667 0 -62.167 6.83008 -88.5 20.4971s-47.166 32.834 -62.499 57.501s-23 53 -23 85c0 38.667 7.5 74.167 22.5 106.5s36.833 66.5 65.5 102.5c39.333 48.667 81.666 87.5 126.999 116.5s90.666 43.5 135.999 43.5c33.333 0 66 -8.66699 98 -26
c14.667 -9.33301 27 -21.166 37 -35.499s15 -29.833 15 -46.5c0 -44.667 -3 -86.667 -9 -126c-7.33301 -43.333 -16.333 -89 -27 -137c-9.33301 -42.667 -16.666 -79.334 -21.999 -110.001c-2.66699 -16 -9.66699 -28.5 -21 -37.5s-23.666 -13.5 -36.999 -13.5
s-24.333 4.83301 -33 14.5s-11.667 22.834 -9 39.501l4 27c-21.333 -21.333 -47.833 -40.166 -79.5 -56.499s-62.834 -24.5 -93.501 -24.5v0zM217 98.9971c24 0 46.001 4.5 66.001 13.5s40.667 21.5 62 37.5c8.66699 6.66699 16.667 14.334 24 23.001l19 23
c18.667 85.333 28.334 152.333 29.001 201c-10.667 22 -32.334 33 -65.001 33c-26 0 -53.333 -8.83301 -82 -26.5s-56.334 -43.167 -83.001 -76.5c-44.667 -56.667 -67 -105.667 -67 -147c0 -24.667 9 -44.334 27 -59.001s41.333 -22 70 -22v0zM373.001 564.997
c-25.333 0 -46.5 8.33105 -63.5 24.998s-25.5 36.334 -25.5 59.001c0 24.667 10.5 49 31.5 73s47.833 39.667 80.5 47c6.66699 5.33301 13.667 8 21 8h2l12 2h5c8.66699 0 17 -1.66699 25 -5c23.333 -11.333 35 -32.333 35 -63c0 -21.333 -4.33301 -41.666 -13 -60.999
c-10.667 -24.667 -26.667 -45.667 -48 -63c-17.333 -14.667 -38 -22 -62 -22v0zM382.001 630.995c17.333 -2 31.001 8.66797 41.001 32.001c4.66699 9.33301 7 18.666 7 27.999s-3 17 -9 23h-1l-2 -1h-4c-2.66699 0 -4.33398 -0.333008 -5.00098 -1
c-2 -2 -6.33301 -3.66699 -13 -5c-14 -3.33301 -25 -9.5 -33 -18.5s-12 -18.167 -12 -27.5c0 -7.33301 2.66699 -13.833 8 -19.5s13 -9.16699 23 -10.5v0z" />
    <glyph glyph-name="ae" unicode="&#xe6;" horiz-adv-x="854" 
d="M101 3c-31.333 9.33301 -55.8369 25.3379 -73.5039 48.0049s-22.5 52.334 -14.5 89.001c6 28 17.5 53 34.5 75s37 39.167 60 51.5s46 22 69 29s46.833 12.5 71.5 16.5c31.333 4 67 6 107 6c11.333 42.667 9.66602 73.667 -5.00098 93
c-13.333 17.333 -39.666 24.333 -78.999 21c-40 -4.66699 -72.667 -17.334 -98 -38.001c-2 -2 -3.5 -3.66699 -4.5 -5s-3.5 -4.33301 -7.5 -9l-13 -18c-8.66699 -12 -20 -19.667 -34 -23s-26.333 -2 -37 4s-16.667 15.167 -18 27.5s2.66699 24.166 12 35.499l2 4
c1.33301 1.33301 3 3.33301 5 6l7 9c2.66699 4 5.66699 7.33301 9 10l9 11l10 10c22 18.667 48.167 34 78.5 46s60.5 19.333 90.5 22c32 2 62 -0.833008 90 -8.5s50 -22.167 66 -43.5c4 -6 7.33301 -12 10 -18c41.333 32.667 87.333 52 138 58
s96.334 -0.833008 137.001 -20.5s69.334 -47.167 86.001 -82.5c4.66699 -10.667 8.33398 -20.5 11.001 -29.5l6.5 -22c1.66699 -5.66699 2.5 -12.834 2.5 -21.501v-18.5c0 -3.66699 -0.666992 -11 -2 -22s-2 -18.5 -2 -22.5c-2 -12.667 -8.33301 -23.834 -19 -33.501
s-22.667 -15.5 -36 -17.5c-8.66699 -0.666992 -16 0.333008 -22 3c-80 -8.66699 -174 -10.334 -282 -5.00098c-4.66699 0 -17.667 0.666992 -39 2c-3.33301 -14.667 -4.66602 -28.334 -3.99902 -41.001c1.33301 -32 20.166 -56.667 56.499 -74s74.5 -19.666 114.5 -6.99902
c16 5.33301 27 10 33 14l7 7l10.5 11l17.5 18c11.333 10 23.833 15.833 37.5 17.5s25.167 -1.33301 34.5 -9s13.5 -17.834 12.5 -30.501s-6.83301 -24 -17.5 -34c-27.333 -27.333 -42.666 -42.333 -45.999 -45c-18 -14 -42.667 -25.667 -74 -35
c-45.333 -15.333 -92 -18 -140 -8c-47.333 10 -84.666 31 -111.999 63c-22 -20.667 -49.333 -37.667 -82 -51c-26.667 -11.333 -55.334 -18.333 -86.001 -21s-60 -0.666992 -88 6v0zM144.996 93.0049c16.667 -3.33301 34.5 -4.33301 53.5 -3s36.5 5 52.5 11l16 8
c4 1.33301 8.5 4 13.5 8s8.16699 6.66699 9.5 8l14 14l18 18l-1 2c-0.666992 18.667 2.33301 41 9 67c-32 0 -61 -2 -87 -6c-40.667 -6 -71.5 -15.333 -92.5 -28s-33.833 -30 -38.5 -52c-4.66699 -24 6.33301 -39.667 33 -47v0zM490.996 312.005
c90 -4 168.999 -3.66602 236.999 1.00098c0 12.667 -4 28 -12 46c-11.333 22.667 -30.166 39.5 -56.499 50.5s-54.833 14.167 -85.5 9.5s-56 -17 -76 -37l-11 -12c-2.66699 -2.66699 -5.16699 -6.16699 -7.5 -10.5s-4 -7.5 -5 -9.5s-3 -7.33301 -6 -16
s-5.5 -15.334 -7.5 -20.001c15.333 -1.33301 25.333 -2 30 -2v0z" />
    <glyph glyph-name="ccedilla" unicode="&#xe7;" horiz-adv-x="529" 
d="M205 -230c-29.333 0 -53.333 5.83398 -72 17.501s-28 26.167 -28 43.5c0 11.333 3.5 20.833 10.5 28.5s15.5 11.5 25.5 11.5c8.66699 0 15.5 -1.66699 20.5 -5s9.83301 -8 14.5 -14c8.66699 -11.333 21.334 -17 38.001 -17c10.667 0 19.5 3.33301 26.5 10
s10.5 14.667 10.5 24c0 11.333 -5 19.666 -15 24.999c-8.66699 4.66699 -22.334 7 -41.001 7c-11.333 0 -20.166 2.66699 -26.499 8s-9.5 12 -9.5 20c0 11.333 6.5 25 19.5 41s33.5 39.667 61.5 71c18.667 -6 36 -13.667 52 -23c-34 -28 -53.667 -55 -59 -81l-22 15
c9.33301 4 17.333 6 24 6c24.667 0 46 -7.66699 64 -23s27 -34 27 -56c0 -18.667 -5.83301 -36.5 -17.5 -53.5s-26.834 -30.5 -45.501 -40.5s-38 -15 -58 -15v0zM244 -1.99902c-38 -0.666992 -73.6719 6.00195 -107.005 20.002s-59 34.333 -77 61
c-18 28 -26.667 61.5 -26 100.5s8.33398 76.167 23.001 111.5s33.667 69.333 57 102c18.667 24.667 39.334 46.5 62.001 65.5s48 35.333 76 49s56.333 21 85 22s58 -5.16699 88 -18.5c15.333 -8 30 -20.667 44 -38l15 -18l11 -14c8.66699 -8.66699 12.167 -20 10.5 -34
s-8.16699 -26.167 -19.5 -36.5s-24 -16.166 -38 -17.499s-25 2.66699 -33 12c-5.33301 4.66699 -11 11 -17 19l-12 17c-7.33301 9.33301 -14.333 15.333 -21 18c-27.333 13.333 -56 13.166 -86 -0.500977s-58.667 -37.834 -86 -72.501
c-28 -37.333 -45.833 -74.666 -53.5 -111.999s-4.16699 -67 10.5 -89c9.33301 -14 24.333 -25.333 45 -34s43.667 -13 69 -13c52 1.33301 89 19.666 111 54.999v5l2 8v3l4 18c4 14 12 25.5 24 34.5s25 13.167 39 12.5s24.333 -6.16699 31 -16.5s8.33398 -22.5 5.00098 -36.5
l-2 -8l-3 -14c-2.66699 -16.667 -8 -31.334 -16 -44.001c-23.333 -38.667 -54.666 -67.667 -93.999 -87s-79.666 -29.333 -120.999 -30v0v0z" />
    <glyph glyph-name="egrave" unicode="&#xe8;" horiz-adv-x="582" 
d="M282 1c-47.333 0 -89.001 8.83105 -125.001 26.498s-64 43.167 -84 76.5s-30 73 -30 119c0 60 14 113.333 42 160s64.667 82.834 110 108.501s92.333 38.5 141 38.5c45.333 0 84.333 -10.5 117 -31.5s57.5 -50.333 74.5 -88s25.5 -80.5 25.5 -128.5
c0 -18.667 -7.66699 -34 -23 -46s-32.333 -18 -51 -18l-336 2c0 -38.667 13.667 -69 41 -91s65.333 -33 114 -33c36 0 66.667 5.33301 92 16l29.5 12.5c9 3.66699 17.167 5.5 24.5 5.5c10.667 0 19.834 -3.66699 27.501 -11s11.5 -16.333 11.5 -27
c0 -12.667 -3.66699 -23.667 -11 -33s-18.333 -17.666 -33 -24.999c-44 -22 -96.333 -33 -157 -33v0zM177.999 315.998c39.333 0 84.5 0.166992 135.5 0.5s97.167 0.166016 138.5 -0.500977c-2.66699 38.667 -15 68.334 -37 89.001s-52 31 -90 31
c-40 0 -76.5 -11.5 -109.5 -34.5s-54.167 -51.5 -63.5 -85.5h26zM367.999 587.998l-40.998 37.5l-31 27.5c-12 10.667 -24 22 -36 34c-10.667 10 -17.334 21.333 -20.001 34s-0.166992 23.834 7.5 33.501s18.5 14.667 32.5 15s26 -3.83398 36 -12.501l27 -24l27.5 -24
c6.33301 -5.33301 15.166 -13.666 26.499 -24.999l35 -34c10 -10 15.5 -21.333 16.5 -34s-2.83301 -23.334 -11.5 -32.001s-19.667 -12.5 -33 -11.5s-25.333 6.16699 -36 15.5v0z" />
    <glyph glyph-name="eacute" unicode="&#xe9;" horiz-adv-x="582" 
d="M282 1c-47.333 0 -89.001 8.83105 -125.001 26.498s-64 43.167 -84 76.5s-30 73 -30 119c0 60 14 113.333 42 160s64.667 82.834 110 108.501s92.333 38.5 141 38.5c45.333 0 84.333 -10.5 117 -31.5s57.5 -50.333 74.5 -88s25.5 -80.5 25.5 -128.5
c0 -18.667 -7.66699 -34 -23 -46s-32.333 -18 -51 -18l-336 2c0 -38.667 13.667 -69 41 -91s65.333 -33 114 -33c36 0 66.667 5.33301 92 16l29.5 12.5c9 3.66699 17.167 5.5 24.5 5.5c10.667 0 19.834 -3.66699 27.501 -11s11.5 -16.333 11.5 -27
c0 -12.667 -3.66699 -23.667 -11 -33s-18.333 -17.666 -33 -24.999c-44 -22 -96.333 -33 -157 -33v0zM177.999 315.998c39.333 0 84.5 0.166992 135.5 0.5s97.167 0.166016 138.5 -0.500977c-2.66699 38.667 -15 68.334 -37 89.001s-52 31 -90 31
c-40 0 -76.5 -11.5 -109.5 -34.5s-54.167 -51.5 -63.5 -85.5h26zM389.999 587.998c-10.667 -9.33301 -22.668 -14.499 -36.001 -15.499s-24.333 2.83301 -33 11.5s-12.5 19.5 -11.5 32.5s7.16699 24.833 18.5 35.5l31 29l20.5 18.5l15 13.5l21.5 19l31 27
c10.667 8 22.834 12 36.501 12s24.334 -4.83301 32.001 -14.5s10.167 -20.834 7.5 -33.501s-9.33398 -24 -20.001 -34l-37 -33l-31 -28l-45 -40v0z" />
    <glyph glyph-name="ecircumflex" unicode="&#xea;" horiz-adv-x="580" 
d="M265 -4c-41.333 0 -78.334 7.83105 -111.001 23.498s-58.334 37.5 -77.001 65.5s-28 59.667 -28 95c0 9.33301 0.166992 18.833 0.5 28.5s1.5 18.834 3.5 27.501c-8.66699 10.667 -13 22.334 -13 35.001c0 10 3.5 19.667 10.5 29s16.5 17 28.5 23
c20 58.667 54.167 107.167 102.5 145.5s103.833 57.5 166.5 57.5c38 0 71.833 -9.66699 101.5 -29s52.5 -44.333 68.5 -75s24 -62.334 24 -95.001c0 -33.333 -8 -59.5 -24 -78.5s-39 -28.5 -69 -28.5c-72.667 0 -136.667 1 -192 3l-110 2c-1.33301 -12 -2 -20.333 -2 -25
c0 -33.333 10.333 -59.833 31 -79.5s53.334 -29.5 98.001 -29.5c24.667 0 45.834 3.16699 63.501 9.5s41.5 18.833 71.5 37.5c8 5.33301 15 9 21 11s13 3 21 3c12.667 0 22.667 -3.66699 30 -11s11 -17 11 -29c0 -17.333 -10.667 -35.166 -32 -53.499
s-49.5 -33.333 -84.5 -45s-71.833 -17.5 -110.5 -17.5v0zM439.999 311.998c0.666992 34.667 -9.16504 63 -29.498 85s-46.5 33 -78.5 33c-30.667 0 -61.667 -11.167 -93 -33.5s-53 -48.5 -65 -78.5c53.333 -2 99.666 -3 138.999 -3c55.333 0 97.666 -1 126.999 -3v0z
M472 575.998c-13.333 0 -25.333 8.00098 -36 24.001l-49 71l-83 -74c-14.667 -13.333 -28 -20 -40 -20c-12.667 0 -22.834 3.83301 -30.501 11.5s-11.5 16.167 -11.5 25.5c0 8 2 15 6 21s11.333 14 22 24l80 72c13.333 12 25.333 21 36 27s22.334 9 35.001 9
c12 0 22 -2.66699 30 -8s16 -13.666 24 -24.999c16 -22.667 27 -39.334 33 -50.001l16 -23c10 -14.667 15 -27.334 15 -38.001c0 -12.667 -4.66699 -23.667 -14 -33s-20.333 -14 -33 -14v0z" />
    <glyph glyph-name="edieresis" unicode="&#xeb;" horiz-adv-x="582" 
d="M282 1c-47.333 0 -89.001 8.83105 -125.001 26.498s-64 43.167 -84 76.5s-30 73 -30 119c0 60 14 113.333 42 160s64.667 82.834 110 108.501s92.333 38.5 141 38.5c45.333 0 84.333 -10.5 117 -31.5s57.5 -50.333 74.5 -88s25.5 -80.5 25.5 -128.5
c0 -18.667 -7.66699 -34 -23 -46s-32.333 -18 -51 -18l-336 2c0 -38.667 13.667 -69 41 -91s65.333 -33 114 -33c36 0 66.667 5.33301 92 16l29.5 12.5c9 3.66699 17.167 5.5 24.5 5.5c10.667 0 19.834 -3.66699 27.501 -11s11.5 -16.333 11.5 -27
c0 -12.667 -3.66699 -23.667 -11 -33s-18.333 -17.666 -33 -24.999c-44 -22 -96.333 -33 -157 -33v0zM177.999 315.998c39.333 0 84.5 0.166992 135.5 0.5s97.167 0.166016 138.5 -0.500977c-2.66699 38.667 -15 68.334 -37 89.001s-52 31 -90 31
c-40 0 -76.5 -11.5 -109.5 -34.5s-54.167 -51.5 -63.5 -85.5h26zM288.999 605.998c-14.667 0 -27 4.66699 -37 14s-15 21 -15 35c0 20 8.83301 38 26.5 54s37.5 24 59.5 24c14.667 0 26.167 -4.16699 34.5 -12.5s12.5 -19.5 12.5 -33.5c0 -22 -8.5 -41 -25.5 -57
s-35.5 -24 -55.5 -24v0zM455.999 606.998c-16 0 -28.499 4.66699 -37.499 14s-13.5 20.666 -13.5 33.999c0 18 7.66699 35.5 23 52.5s33.666 25.5 54.999 25.5c17.333 0 30.333 -4 39 -12s13 -19 13 -33c0 -23.333 -7.5 -42.666 -22.5 -57.999s-33.833 -23 -56.5 -23v0z" />
    <glyph glyph-name="igrave" unicode="&#xec;" horiz-adv-x="236" 
d="M69 0c-14.667 0 -26.001 4.83398 -34.001 14.501s-10.333 22.167 -7 37.5c6.66699 36 18.334 94.667 35.001 176l28.5 142.5c9 44.333 15.833 79.833 20.5 106.5c2.66699 16.667 9.83398 29.667 21.501 39s24.5 14 38.5 14c12.667 0 23.167 -4.16699 31.5 -12.5
s11.5 -19.833 9.5 -34.5c-12.667 -74.667 -41.667 -219.334 -87 -434.001c-2.66699 -14.667 -9.33398 -26.5 -20.001 -35.5s-23 -13.5 -37 -13.5v0zM184.999 588.001l-40.998 37.5l-31 27.5c-12 10.667 -24 22 -36 34c-10.667 10 -17.334 21.333 -20.001 34
s-0.166992 23.834 7.5 33.501s18.5 14.667 32.5 15s26 -3.83398 36 -12.501l27 -24l27.5 -24c6.33301 -5.33301 15.166 -13.666 26.499 -24.999l35 -34c10 -10 15.5 -21.333 16.5 -34s-2.83301 -23.334 -11.5 -32.001s-19.667 -12.5 -33 -11.5s-25.333 6.16699 -36 15.5v0z
" />
    <glyph glyph-name="iacute" unicode="&#xed;" horiz-adv-x="236" 
d="M69 0c-14.667 0 -26.001 4.83398 -34.001 14.501s-10.333 22.167 -7 37.5c6.66699 36 18.334 94.667 35.001 176l28.5 142.5c9 44.333 15.833 79.833 20.5 106.5c2.66699 16.667 9.83398 29.667 21.501 39s24.5 14 38.5 14c12.667 0 23.167 -4.16699 31.5 -12.5
s11.5 -19.833 9.5 -34.5c-12.667 -74.667 -41.667 -219.334 -87 -434.001c-2.66699 -14.667 -9.33398 -26.5 -20.001 -35.5s-23 -13.5 -37 -13.5v0zM206.999 588.001c-10.667 -9.33301 -22.668 -14.499 -36.001 -15.499s-24.333 2.83301 -33 11.5s-12.5 19.5 -11.5 32.5
s7.16699 24.833 18.5 35.5l31 29l20.5 18.5l15 13.5l21.5 19l31 27c10.667 8 22.834 12 36.501 12s24.334 -4.83301 32.001 -14.5s10.167 -20.834 7.5 -33.501s-9.33398 -24 -20.001 -34l-37 -33l-31 -28l-45 -40v0z" />
    <glyph glyph-name="icircumflex" unicode="&#xee;" horiz-adv-x="236" 
d="M69 0c-14.667 0 -26.001 4.83398 -34.001 14.501s-10.333 22.167 -7 37.5c6.66699 36 18.334 94.667 35.001 176l28.5 142.5c9 44.333 15.833 79.833 20.5 106.5c2.66699 16.667 9.83398 29.667 21.501 39s24.5 14 38.5 14c12.667 0 23.167 -4.16699 31.5 -12.5
s11.5 -19.833 9.5 -34.5c-12.667 -74.667 -41.667 -219.334 -87 -434.001c-2.66699 -14.667 -9.33398 -26.5 -20.001 -35.5s-23 -13.5 -37 -13.5v0zM292.999 576.001c-13.333 0 -25.333 8.00098 -36 24.001l-49 71l-83 -74c-14.667 -13.333 -28 -20 -40 -20
c-12.667 0 -22.834 3.83301 -30.501 11.5s-11.5 16.167 -11.5 25.5c0 8 2 15 6 21s11.333 14 22 24l80 72c13.333 12 25.333 21 36 27s22.334 9 35.001 9c12 0 22 -2.66699 30 -8s16 -13.666 24 -24.999c16 -22.667 27 -39.334 33 -50.001l16 -23
c10 -14.667 15 -27.334 15 -38.001c0 -12.667 -4.66699 -23.667 -14 -33s-20.333 -14 -33 -14v0z" />
    <glyph glyph-name="idieresis" unicode="&#xef;" horiz-adv-x="236" 
d="M69 0c-14.667 0 -26.001 4.83398 -34.001 14.501s-10.333 22.167 -7 37.5c6.66699 36 18.334 94.667 35.001 176l28.5 142.5c9 44.333 15.833 79.833 20.5 106.5c2.66699 16.667 9.83398 29.667 21.501 39s24.5 14 38.5 14c12.667 0 23.167 -4.16699 31.5 -12.5
s11.5 -19.833 9.5 -34.5c-12.667 -74.667 -41.667 -219.334 -87 -434.001c-2.66699 -14.667 -9.33398 -26.5 -20.001 -35.5s-23 -13.5 -37 -13.5v0zM105.999 606.001c-14.667 0 -27 4.66699 -37 14s-15 21 -15 35c0 20 8.83301 38 26.5 54s37.5 24 59.5 24
c14.667 0 26.167 -4.16699 34.5 -12.5s12.5 -19.5 12.5 -33.5c0 -22 -8.5 -41 -25.5 -57s-35.5 -24 -55.5 -24v0zM272.999 607.001c-16 0 -28.499 4.66699 -37.499 14s-13.5 20.666 -13.5 33.999c0 18 7.66699 35.5 23 52.5s33.666 25.5 54.999 25.5
c17.333 0 30.333 -4 39 -12s13 -19 13 -33c0 -23.333 -7.5 -42.666 -22.5 -57.999s-33.833 -23 -56.5 -23v0z" />
    <glyph glyph-name="eth" unicode="&#xf0;" horiz-adv-x="610" 
d="M249 -4c-50.667 13.333 -87.666 41.167 -110.999 83.5s-33 90.166 -29 143.499c3.33301 52.667 19 104.334 47 155.001c28 50 66.333 90.333 115 121c25.333 16 51.5 26.667 78.5 32s50 6.83301 69 4.5s39.5 -6.83301 61.5 -13.5c-18.667 36.667 -43 74.667 -73 114
c-30 -18 -63.667 -39.333 -101 -64c-12 -8 -24.667 -11.167 -38 -9.5s-23 8 -29 19s-6.83301 23.333 -2.5 37s13.166 24.834 26.499 33.501l84 54l-22 24c-9.33301 8.66699 -13.166 20 -11.499 34s8.16699 26.167 19.5 36.5s24.166 16.166 38.499 17.499
s25.5 -2.66699 33.5 -12l40 -43c24.667 14 50 27.333 76 40c13.333 6.66699 26.333 8 39 4s21 -12 25 -24s2.66699 -24.667 -4 -38s-17 -23.333 -31 -30l-45 -23c100 -134 138.333 -266.667 115 -398c-7.33301 -40 -21.833 -79.833 -43.5 -119.5s-48.5 -74.167 -80.5 -103.5
c-35.333 -32.667 -74.5 -56 -117.5 -70s-86.167 -15.667 -129.5 -5v0zM293.001 94.001c49.333 -12.667 96.668 1.66699 142.001 43c21.333 19.333 39.5 42.666 54.5 69.999s24.833 55 29.5 83c7.33301 39.333 7 79 -1 119c-10.667 -4 -21.334 -4.33301 -32.001 -1
c-7.33301 2 -17.833 5.33301 -31.5 10s-23.5 7.83398 -29.5 9.50098s-14.167 3.66699 -24.5 6s-18.333 3.5 -24 3.5s-12.5 -0.333008 -20.5 -1s-15.5 -2.5 -22.5 -5.5s-14.167 -6.83301 -21.5 -11.5c-28 -18 -51.167 -43.5 -69.5 -76.5s-28.833 -68 -31.5 -105
s3.33301 -68.5 18 -94.5s36 -42.333 64 -49v0z" />
    <glyph glyph-name="ntilde" unicode="&#xf1;" horiz-adv-x="558" 
d="M63 0c-15.333 0 -26.4951 5.16797 -33.4951 15.501s-8.83301 21.833 -5.5 34.5c11.333 52 40.666 195.667 87.999 431c3.33301 15.333 10.666 27.333 21.999 36s23.666 13 36.999 13c15.333 0 26.833 -5.16699 34.5 -15.5s9.83398 -22.166 6.50098 -35.499l-10 -40
c26 30 52.333 52.5 79 67.5s56 22.5 88 22.5c46 0 81.333 -13.5 106 -40.5s37 -63.5 37 -109.5c0 -32.667 -3.83301 -70.834 -11.5 -114.501s-15.834 -80.5 -24.501 -110.5c-4.66699 -14.667 -15.334 -51.334 -32.001 -110.001c-4 -13.333 -11.5 -24 -22.5 -32
s-22.833 -12 -35.5 -12c-14.667 0 -25.667 5.16699 -33 15.5s-9.33301 21.833 -6 34.5c3.33301 19.333 13.333 56.333 30 111c9.33301 29.333 16.833 61.833 22.5 97.5s8.5 65.167 8.5 88.5c0 28 -6.33301 49.5 -19 64.5s-30.667 22.5 -54 22.5
c-26.667 0 -54.334 -11.667 -83.001 -35s-54 -53 -76 -89l-36 -178l-16 -82c-3.33301 -15.333 -11 -27.5 -23 -36.5s-24.667 -13.5 -38 -13.5v0zM429.005 570.001c-14 0 -27.498 2.99805 -40.498 8.99805s-27.5 14.667 -43.5 26
c-13.333 8.66699 -23.666 14.834 -30.999 18.501s-14.333 5.5 -21 5.5c-20 0 -43.333 -11 -70 -33c-6 -4.66699 -11.333 -8.16699 -16 -10.5s-10.334 -3.5 -17.001 -3.5c-8 0 -14.667 2.83301 -20 8.5s-8 12.834 -8 21.501c0 16.667 8 32 24 46
c43.333 38.667 82.666 58 117.999 58c13.333 0 25.833 -2.83301 37.5 -8.5s26.5 -14.167 44.5 -25.5c14 -8.66699 25.167 -15 33.5 -19s16.166 -6 23.499 -6c10 0 19.167 3.33301 27.5 10s17.833 17 28.5 31c10 14 21.333 21 34 21c8 0 14.833 -3 20.5 -9s8.5 -14 8.5 -24
c0 -12 -6.33301 -26.667 -19 -44c-38.667 -48 -76.667 -72 -114 -72v0z" />
    <glyph glyph-name="ograve" unicode="&#xf2;" horiz-adv-x="587" 
d="M249 0c-62.667 0 -113 18.498 -151 55.498s-57 86.833 -57 149.5c0 54.667 11.833 105.834 35.5 153.501s54.334 86.5 92.001 116.5s77.167 47 118.5 51c9.33301 0.666992 16.166 1.5 20.499 2.5s8.16602 1.5 11.499 1.5c8 0 14.667 -1.33301 20 -4h30
c32.667 0 62.834 -9 90.501 -27s49.5 -42.667 65.5 -74s24 -66 24 -104c0 -52.667 -13 -103.667 -39 -153s-62 -89.666 -108 -120.999s-97 -47 -153 -47v0zM267 96.998c29.333 0 58.001 9.33105 86.001 27.998s50.833 44.334 68.5 77.001s26.5 68.667 26.5 108
c0 34 -9.16699 62.333 -27.5 85s-39.5 34 -63.5 34c-14.667 0 -27.334 0.666992 -38.001 2c-4.66699 0.666992 -9 1.5 -13 2.5s-8 1.5 -12 1.5c-12.667 0 -27.667 -5 -45 -15c-27.333 -16 -52 -41.667 -74 -77s-33 -76.333 -33 -123c0 -39.333 10.5 -69.666 31.5 -90.999
s52.167 -32 93.5 -32v0zM364.001 587.996l-40.998 37.5l-31 27.5c-12 10.667 -24 22 -36 34c-10.667 10 -17.334 21.333 -20.001 34s-0.166992 23.834 7.5 33.501s18.5 14.667 32.5 15s26 -3.83398 36 -12.501l27 -24l27.5 -24
c6.33301 -5.33301 15.166 -13.666 26.499 -24.999l35 -34c10 -10 15.5 -21.333 16.5 -34s-2.83301 -23.334 -11.5 -32.001s-19.667 -12.5 -33 -11.5s-25.333 6.16699 -36 15.5v0z" />
    <glyph glyph-name="oacute" unicode="&#xf3;" horiz-adv-x="587" 
d="M249 0c-62.667 0 -113 18.498 -151 55.498s-57 86.833 -57 149.5c0 54.667 11.833 105.834 35.5 153.501s54.334 86.5 92.001 116.5s77.167 47 118.5 51c9.33301 0.666992 16.166 1.5 20.499 2.5s8.16602 1.5 11.499 1.5c8 0 14.667 -1.33301 20 -4h30
c32.667 0 62.834 -9 90.501 -27s49.5 -42.667 65.5 -74s24 -66 24 -104c0 -52.667 -13 -103.667 -39 -153s-62 -89.666 -108 -120.999s-97 -47 -153 -47v0zM267 96.998c29.333 0 58.001 9.33105 86.001 27.998s50.833 44.334 68.5 77.001s26.5 68.667 26.5 108
c0 34 -9.16699 62.333 -27.5 85s-39.5 34 -63.5 34c-14.667 0 -27.334 0.666992 -38.001 2c-4.66699 0.666992 -9 1.5 -13 2.5s-8 1.5 -12 1.5c-12.667 0 -27.667 -5 -45 -15c-27.333 -16 -52 -41.667 -74 -77s-33 -76.333 -33 -123c0 -39.333 10.5 -69.666 31.5 -90.999
s52.167 -32 93.5 -32v0zM386.001 587.996c-10.667 -9.33301 -22.668 -14.499 -36.001 -15.499s-24.333 2.83301 -33 11.5s-12.5 19.5 -11.5 32.5s7.16699 24.833 18.5 35.5l31 29l20.5 18.5l15 13.5l21.5 19l31 27c10.667 8 22.834 12 36.501 12
s24.334 -4.83301 32.001 -14.5s10.167 -20.834 7.5 -33.501s-9.33398 -24 -20.001 -34l-37 -33l-31 -28l-45 -40v0z" />
    <glyph glyph-name="ocircumflex" unicode="&#xf4;" horiz-adv-x="587" 
d="M249 0c-62.667 0 -113 18.498 -151 55.498s-57 86.833 -57 149.5c0 54.667 11.833 105.834 35.5 153.501s54.334 86.5 92.001 116.5s77.167 47 118.5 51c9.33301 0.666992 16.166 1.5 20.499 2.5s8.16602 1.5 11.499 1.5c8 0 14.667 -1.33301 20 -4h30
c32.667 0 62.834 -9 90.501 -27s49.5 -42.667 65.5 -74s24 -66 24 -104c0 -52.667 -13 -103.667 -39 -153s-62 -89.666 -108 -120.999s-97 -47 -153 -47v0zM267 96.998c29.333 0 58.001 9.33105 86.001 27.998s50.833 44.334 68.5 77.001s26.5 68.667 26.5 108
c0 34 -9.16699 62.333 -27.5 85s-39.5 34 -63.5 34c-14.667 0 -27.334 0.666992 -38.001 2c-4.66699 0.666992 -9 1.5 -13 2.5s-8 1.5 -12 1.5c-12.667 0 -27.667 -5 -45 -15c-27.333 -16 -52 -41.667 -74 -77s-33 -76.333 -33 -123c0 -39.333 10.5 -69.666 31.5 -90.999
s52.167 -32 93.5 -32v0zM472.001 575.996c-13.333 0 -25.333 8.00098 -36 24.001l-49 71l-83 -74c-14.667 -13.333 -28 -20 -40 -20c-12.667 0 -22.834 3.83301 -30.501 11.5s-11.5 16.167 -11.5 25.5c0 8 2 15 6 21s11.333 14 22 24l80 72c13.333 12 25.333 21 36 27
s22.334 9 35.001 9c12 0 22 -2.66699 30 -8s16 -13.666 24 -24.999c16 -22.667 27 -39.334 33 -50.001l16 -23c10 -14.667 15 -27.334 15 -38.001c0 -12.667 -4.66699 -23.667 -14 -33s-20.333 -14 -33 -14v0z" />
    <glyph glyph-name="otilde" unicode="&#xf5;" horiz-adv-x="587" 
d="M249 0c-62.667 0 -113 18.498 -151 55.498s-57 86.833 -57 149.5c0 54.667 11.833 105.834 35.5 153.501s54.334 86.5 92.001 116.5s77.167 47 118.5 51c9.33301 0.666992 16.166 1.5 20.499 2.5s8.16602 1.5 11.499 1.5c8 0 14.667 -1.33301 20 -4h30
c32.667 0 62.834 -9 90.501 -27s49.5 -42.667 65.5 -74s24 -66 24 -104c0 -52.667 -13 -103.667 -39 -153s-62 -89.666 -108 -120.999s-97 -47 -153 -47v0zM267 96.998c29.333 0 58.001 9.33105 86.001 27.998s50.833 44.334 68.5 77.001s26.5 68.667 26.5 108
c0 34 -9.16699 62.333 -27.5 85s-39.5 34 -63.5 34c-14.667 0 -27.334 0.666992 -38.001 2c-4.66699 0.666992 -9 1.5 -13 2.5s-8 1.5 -12 1.5c-12.667 0 -27.667 -5 -45 -15c-27.333 -16 -52 -41.667 -74 -77s-33 -76.333 -33 -123c0 -39.333 10.5 -69.666 31.5 -90.999
s52.167 -32 93.5 -32v0zM444.001 569.996c-14 0 -27.498 2.99805 -40.498 8.99805s-27.5 14.667 -43.5 26c-13.333 8.66699 -23.666 14.834 -30.999 18.501s-14.333 5.5 -21 5.5c-20 0 -43.333 -11 -70 -33c-6 -4.66699 -11.333 -8.16699 -16 -10.5
s-10.334 -3.5 -17.001 -3.5c-8 0 -14.667 2.83301 -20 8.5s-8 12.834 -8 21.501c0 16.667 8 32 24 46c43.333 38.667 82.666 58 117.999 58c13.333 0 25.833 -2.83301 37.5 -8.5s26.5 -14.167 44.5 -25.5c14 -8.66699 25.167 -15 33.5 -19s16.166 -6 23.499 -6
c10 0 19.167 3.33301 27.5 10s17.833 17 28.5 31c10 14 21.333 21 34 21c8 0 14.833 -3 20.5 -9s8.5 -14 8.5 -24c0 -12 -6.33301 -26.667 -19 -44c-38.667 -48 -76.667 -72 -114 -72v0z" />
    <glyph glyph-name="odieresis" unicode="&#xf6;" horiz-adv-x="587" 
d="M249 0c-62.667 0 -113 18.498 -151 55.498s-57 86.833 -57 149.5c0 54.667 11.833 105.834 35.5 153.501s54.334 86.5 92.001 116.5s77.167 47 118.5 51c9.33301 0.666992 16.166 1.5 20.499 2.5s8.16602 1.5 11.499 1.5c8 0 14.667 -1.33301 20 -4h30
c32.667 0 62.834 -9 90.501 -27s49.5 -42.667 65.5 -74s24 -66 24 -104c0 -52.667 -13 -103.667 -39 -153s-62 -89.666 -108 -120.999s-97 -47 -153 -47v0zM267 96.998c29.333 0 58.001 9.33105 86.001 27.998s50.833 44.334 68.5 77.001s26.5 68.667 26.5 108
c0 34 -9.16699 62.333 -27.5 85s-39.5 34 -63.5 34c-14.667 0 -27.334 0.666992 -38.001 2c-4.66699 0.666992 -9 1.5 -13 2.5s-8 1.5 -12 1.5c-12.667 0 -27.667 -5 -45 -15c-27.333 -16 -52 -41.667 -74 -77s-33 -76.333 -33 -123c0 -39.333 10.5 -69.666 31.5 -90.999
s52.167 -32 93.5 -32v0zM285.001 605.996c-14.667 0 -27 4.66699 -37 14s-15 21 -15 35c0 20 8.83301 38 26.5 54s37.5 24 59.5 24c14.667 0 26.167 -4.16699 34.5 -12.5s12.5 -19.5 12.5 -33.5c0 -22 -8.5 -41 -25.5 -57s-35.5 -24 -55.5 -24v0zM452.001 606.996
c-16 0 -28.499 4.66699 -37.499 14s-13.5 20.666 -13.5 33.999c0 18 7.66699 35.5 23 52.5s33.666 25.5 54.999 25.5c17.333 0 30.333 -4 39 -12s13 -19 13 -33c0 -23.333 -7.5 -42.666 -22.5 -57.999s-33.833 -23 -56.5 -23v0z" />
    </font>
</defs>
</svg>
