<?xml version="1.0" standalone="no"?>
<!DOCTYPE svg PUBLIC "-//W3C//DTD SVG 1.1//EN" "http://www.w3.org/Graphics/SVG/1.1/DTD/svg11.dtd" >
<svg>
<metadata>
Created by FontForge 20090914 at Mon Feb  8 14:30:56 2021
 By www-data
Copyright 2020 The JetBrains Mono Project Authors (https://github.com/JetBrains/JetBrainsMono)
</metadata>
<defs>
<font id="JetBrainsMono-BoldItalic" horiz-adv-x="600" >
  <font-face 
    font-family="JetBrains Mono"
    font-weight="700"
    font-style="italic"
    font-stretch="normal"
    units-per-em="1000"
    panose-1="2 0 0 9 0 0 0 0 0 0"
    ascent="800"
    descent="-200"
    x-height="549.999"
    cap-height="730"
    bbox="-1747 -300 1170 1020"
    underline-thickness="50"
    underline-position="-130"
    slope="-9"
    unicode-range="U+000D-U+FEFF"
  />
<missing-glyph 
d="M90 0v730h420v-730h-420zM160 50h300v571zM140 109l300 571h-300v-571z" />
    <glyph glyph-name=".notdef" 
d="M90 0v730h420v-730h-420zM160 50h300v571zM140 109l300 571h-300v-571z" />
    <glyph glyph-name="CR" unicode="&#xd;" 
 />
    <glyph glyph-name="space" unicode=" " 
 />
    <glyph glyph-name="exclam" unicode="!" 
d="M247 233l35 359l22 138h136l-22 -138l-79 -359h-92zM240 -5c-20.667 0 -36.168 6.16797 -46.501 18.501s-14.166 28.166 -11.499 47.499s11.334 35.166 26.001 47.499s32.334 18.5 53.001 18.5h30c21.333 0 37.166 -6 47.499 -18s13.833 -28 10.5 -48
c-2.66699 -19.333 -11.334 -35.166 -26.001 -47.499s-32.667 -18.5 -54 -18.5h-29z" />
    <glyph glyph-name="quotedbl" unicode="&#x22;" 
d="M384 430l13 169l22 131h126l-21 -131l-39 -169h-101zM164 430l13 169l22 131h126l-21 -131l-39 -169h-101z" />
    <glyph glyph-name="numbersign" unicode="#" 
d="M31 0l61 182h-81l14 86h96l65 194h-98l13 86h113l62 182h91l-61 -182h138l61 182h92l-61 -182h81l-14 -86h-96l-65 -194h98l-13 -86h-113l-62 -182h-91l61 182h-138l-61 -182h-92zM213 268h137l65 194h-137z" />
    <glyph glyph-name="dollar" unicode="$" 
d="M203 -140l21.0029 132.002c-64.667 5.33301 -113 26.166 -145 62.499s-43.333 83.5 -34 141.5h125c-4 -24.667 0.166992 -45.167 12.5 -61.5s31.833 -27.166 58.5 -32.499l33 212l-17 5c-54.667 14.667 -94.5 41 -119.5 79s-33.5 84 -25.5 138
c9.33301 56.667 34.666 103.167 75.999 139.5s92.666 57.166 153.999 62.499l21 132h62l-21 -131c60.667 -5.33301 106.167 -25.833 136.5 -61.5s41.166 -81.834 32.499 -138.501h-125c4 24 0.666992 43.667 -10 59s-27.667 25.333 -51 30l-32 -202l31 -9
c55.333 -14.667 95.5 -40.834 120.5 -78.501s32.833 -84.167 23.5 -139.5c-6 -38.667 -20 -73 -42 -103s-50.333 -54.167 -85 -72.5s-73.667 -29.166 -117 -32.499l-21 -131h-62zM303.003 101.002c28 4 51 14.1689 69 30.502s29 37.166 33 62.499
c4.66699 29.333 -1.83301 53.666 -19.5 72.999s-44.5 30 -80.5 32l36 38zM286.003 388.004l37.999 239.999c-23.333 -4.66699 -42.333 -14.167 -57 -28.5s-24 -33.166 -28 -56.499c-5.33301 -30 0.833984 -54.833 18.501 -74.5s44.5 -30.167 80.5 -31.5z" />
    <glyph glyph-name="percent" unicode="%" 
d="M-47 0l629 730h93l-628 -730h-94zM397 -5c-42.667 0 -75.499 12.168 -98.499 36.501s-31.167 57.166 -24.5 98.499l10 65c6 41.333 24.5 74.166 55.5 98.499s67.833 36.5 110.5 36.5s75.667 -12.167 99 -36.5s32 -57.166 26 -98.499l-10 -65c-4 -27.333 -14 -51 -30 -71
s-35.833 -35.667 -59.5 -47s-49.834 -17 -78.501 -17zM410.001 73.001c38 0 60 19 66 57l10 65c3.33301 20 0.833008 34.667 -7.5 44s-21.833 14 -40.5 14c-37.333 0 -59.333 -19.333 -66 -58l-10 -65c-6 -38 10 -57 48 -57zM177.001 400.001c-42 0 -74.835 12 -98.502 36
s-32.167 57 -25.5 99l10 65c4.66699 28 14.834 52.167 30.501 72.5s35.334 35.833 59.001 46.5s49.5 16 77.5 16c42 0 74.833 -12 98.5 -36s32.167 -57 25.5 -99l-10 -65c-4 -28 -14 -52 -30 -72s-35.833 -35.5 -59.5 -46.5s-49.5 -16.5 -77.5 -16.5zM188.999 477.001
c38 0 60.332 19.333 66.999 58l10 65c6 38.667 -10 58 -48 58c-18.667 0 -33.5 -4.66699 -44.5 -14s-18.167 -24 -21.5 -44l-10 -65c-2.66699 -20 -0.166992 -34.667 7.5 -44s20.834 -14 39.501 -14z" />
    <glyph glyph-name="ampersand" unicode="&#x26;" 
d="M187 -10c-60 0 -104.167 16.6641 -132.5 49.9971s-37.5 79.333 -27.5 138l15 93c6.66699 44.667 23.5 81.334 50.5 110.001s61.5 46.334 103.5 53.001l-17 -27c-16 28.667 -27.333 56.667 -34 84s-8 54.333 -4 81c6 33.333 18.833 62.5 38.5 87.5s45 44.667 76 59
s65.833 21.5 104.5 21.5c40 0 73.667 -7.66699 101 -23s47 -36.5 59 -63.5s15 -58.833 9 -95.5h-116c2.66699 16 1.5 30 -3.5 42s-13 21.167 -24 27.5s-24.833 9.5 -41.5 9.5c-16 0 -30.333 -3 -43 -9s-23.167 -14.667 -31.5 -26s-13.833 -24.666 -16.5 -39.999
c-2.66699 -16 -1.16699 -33.667 4.5 -53s13.834 -39 24.501 -59l108 -195l71 105h121l-139 -203l87 -157h-125l-36 66c-54.667 -50.667 -115.334 -76 -182.001 -76zM214 92.9971c18.667 0 37.334 5.33008 56.001 15.9971s35.334 25.334 50.001 44.001l-106 192
c-14 -5.33301 -25.667 -14.166 -35 -26.499s-15.333 -28.166 -18 -47.499l-15 -93c-4.66699 -26.667 -0.833984 -47.5 11.499 -62.5s31.166 -22.5 56.499 -22.5z" />
    <glyph glyph-name="quotesingle" unicode="'" 
d="M271 430l10 144l25 156h127l-25 -156l-35 -144h-102z" />
    <glyph glyph-name="parenleft" unicode="(" 
d="M421 -125c-96.667 26.667 -167.333 73.832 -212 141.499s-59.334 150.167 -44.001 247.5l30 191c10.667 64 32.834 122.167 66.501 174.5s77.167 97 130.5 134s114.333 64.167 183 81.5l-20 -123c-40.667 -9.33301 -77.334 -26.333 -110.001 -51
s-59.667 -55.334 -81 -92.001s-35.666 -78 -42.999 -124l-30 -191c-7.33301 -44.667 -6 -85.167 4 -121.5s27.333 -66.666 52 -90.999s56 -41.166 94 -50.499z" />
    <glyph glyph-name="parenright" unicode=")" 
d="M51 -125l20.002 126.001c41.333 9.33301 78.333 26.166 111 50.499s59.667 54.666 81 90.999s35.333 76.833 42 121.5l30 191c8 46 7.16699 87.333 -2.5 124s-27 67.334 -52 92.001s-56.833 41.667 -95.5 51l20 123c63.333 -17.333 115.666 -44.5 156.999 -81.5
s70.666 -81.667 87.999 -134s21 -110.5 11 -174.5l-30 -191c-10.667 -64.667 -32.5 -123 -65.5 -175s-76 -96.167 -129 -132.5s-114.833 -63.5 -185.5 -81.5z" />
    <glyph glyph-name="asterisk" unicode="*" 
d="M161 87l-82.002 63.998l50 59c12 14.667 26.667 29 44 43s34.333 27 51 39s31.334 22 44.001 30l-2 6c-13.333 0 -29.5 0.666992 -48.5 2s-38 3.83301 -57 7.5s-36.167 8.16699 -51.5 13.5l-63 24l55 106l63 -24c15.333 -5.33301 30.666 -13.333 45.999 -24
s30 -21.667 44 -33s25.667 -21.666 35 -30.999l6 4l-7 49c-2.66699 18.667 -4.33398 38.334 -5.00098 59.001s0.333008 39.667 3 57l11 72h113l-12 -72c-2.66699 -17.333 -7.66699 -36.333 -15 -57s-15.333 -40.334 -24 -59.001l-23 -49l4 -3
c12.667 9.33301 27.667 19.5 45 30.5s35.333 21.833 54 32.5s36.334 18.667 53.001 24l71 24l23 -106l-72 -24c-16.667 -5.33301 -35 -9.83301 -55 -13.5s-39.333 -6.16699 -58 -7.5s-35.334 -2 -50.001 -2l-4 -6c10 -8 21.5 -18.167 34.5 -30.5s25.833 -25.5 38.5 -39.5
s22.667 -28 30 -42l32 -59l-102 -64l-33 59c-7.33301 14 -13.666 30.5 -18.999 49.5s-9.66602 37.833 -12.999 56.5s-6 34.334 -8 47.001h-6l-23 -47c-9.33301 -18.667 -19.666 -37.5 -30.999 -56.5s-23.333 -35.5 -36 -49.5z" />
    <glyph glyph-name="plus" unicode="+" 
d="M208 92l29 180h-179l18 116h179l28 180h125l-29 -180h179l-18 -116h-179l-28 -180h-125z" />
    <glyph glyph-name="comma" unicode="," 
d="M81 -160l129 311h160l-179 -311h-110z" />
    <glyph glyph-name="hyphen" unicode="-" 
d="M130 272l19 116h337l-18 -116h-338z" />
    <glyph glyph-name="period" unicode="." 
d="M254 -10c-28.667 0 -50.001 8.33301 -64.001 25s-19 39.334 -15 68.001c4.66699 28.667 16.834 51.5 36.501 68.5s43.834 25.5 72.501 25.5s50 -8.5 64 -25.5s18.667 -39.833 14 -68.5c-4 -28.667 -15.833 -51.334 -35.5 -68.001s-43.834 -25 -72.501 -25z" />
    <glyph glyph-name="slash" unicode="/" 
d="M-1 -110l494 940h134l-494 -940h-134z" />
    <glyph glyph-name="zero" unicode="0" 
d="M254 -10c-47.333 0 -86.8359 9 -118.503 27s-54.334 43.333 -68.001 76s-17.167 71 -10.5 115l50 314c7.33301 44 22.833 82.333 46.5 115s54.5 58 92.5 76s80.333 27 127 27c48 0 87.833 -9 119.5 -27s54.334 -43.333 68.001 -76s16.834 -71 9.50098 -115l-50 -314
c-6.66699 -44 -22.167 -82.333 -46.5 -115s-55.166 -58 -92.499 -76s-79.666 -27 -126.999 -27zM271.997 98c34.667 0 63.667 10 87 30s37.666 46.667 42.999 80l50 314c5.33301 33.333 -0.5 60 -17.5 80s-43.167 30 -78.5 30c-34.667 0 -63.834 -10 -87.501 -30
s-38.167 -46.667 -43.5 -80l-50 -314c-5.33301 -33.333 0.833984 -60 18.501 -80s43.834 -30 78.501 -30zM312.997 300c-20 0 -36 6.33301 -48 19s-18 29 -18 49s6 36 18 48s28 18 48 18s36 -6 48 -18s18 -28 18 -48s-6 -36.333 -18 -49s-28 -19 -48 -19z" />
    <glyph glyph-name="one" unicode="1" 
d="M40 0l18 110h190l80 509l-214 -142l22 132l187 121h148l-98 -620h152l-17 -110h-468z" />
    <glyph glyph-name="two" unicode="2" 
d="M35 0l18.998 120.996l265 229c36.667 32.667 64.667 62.167 84 88.5s31.333 53.5 36 81.5c5.33301 34 0.333008 60.5 -15 79.5s-39 28.5 -71 28.5c-35.333 0 -64.666 -10.167 -87.999 -30.5s-38 -48.5 -44 -84.5h-125c8.66699 46.667 25.5 86.834 50.5 120.501
s56.833 59.834 95.5 78.501s82 28 130 28c46 0 84.5 -8.66699 115.5 -26s53.5 -41.666 67.5 -72.999s17.667 -68.666 11 -111.999c-7.33301 -45.333 -26.166 -90 -56.499 -134s-73.833 -89.333 -130.5 -136l-175 -146h305l-18 -113h-456z" />
    <glyph glyph-name="three" unicode="3" 
d="M247 -10c-47.333 0 -87.168 8.66699 -119.501 26s-55.5 41.666 -69.5 72.999s-17.667 68.333 -11 111h126c-6 -32.667 -0.833008 -58.167 15.5 -76.5s41.833 -27.5 76.5 -27.5s63 9.33301 85 28s35.333 44 40 76l9 57c5.33301 32.667 0 58.167 -16 76.5
s-41.333 27.5 -76 27.5h-81l17 113l182 149h-278l17 107h408l-18 -113l-236 -192l7 43c71.333 0 124.833 -19 160.5 -57s48.5 -89.333 38.5 -154l-8 -57c-6 -42.667 -21.333 -79.667 -46 -111s-56.167 -55.666 -94.5 -72.999s-81.166 -26 -128.499 -26z" />
    <glyph glyph-name="four" unicode="4" 
d="M346 0l22 145h-324l29 181l345 404h141l-372 -437l-6 -38h205l27 165h125l-67 -420h-125z" />
    <glyph glyph-name="five" unicode="5" 
d="M253 -10c-67.333 0 -118.667 16.8311 -154 50.498s-50.333 79.5 -45 137.5h125c-1.33301 -25.333 5.83398 -44.833 21.501 -58.5s39.167 -20.5 70.5 -20.5c34.667 0 62.334 9.16699 83.001 27.5s33.667 43.833 39 76.5l11 71c5.33301 33.333 0.5 58.833 -14.5 76.5
s-39.833 26.5 -74.5 26.5c-21.333 0 -40.5 -4.33301 -57.5 -13s-30.5 -20.667 -40.5 -36h-122l69 402h411l-18 -113h-293l-36 -212h29l-34 -25c5.33301 30.667 21.5 54.834 48.5 72.501s61.167 26.5 102.5 26.5c59.333 0.666992 102.666 -17.166 129.999 -53.499
s35.666 -86.833 24.999 -151.5l-11 -71c-10.667 -66 -39.5 -118 -86.5 -156s-106.5 -57 -178.5 -57z" />
    <glyph glyph-name="six" unicode="6" 
d="M254 -10c-48.667 0 -89.833 10.165 -123.5 30.498s-57.834 49 -72.501 86s-18 79.833 -10 128.5c5.33301 34.667 16.833 71 34.5 109s39.5 73.667 65.5 107l217 279h139l-266 -340l5 -4c17.333 20.667 37.5 36.334 60.5 47.001s48.5 16 76.5 16
c38.667 0 71 -9.33301 97 -28s44.333 -44.667 55 -78s12.334 -72.333 5.00098 -117c-7.33301 -47.333 -24 -88.666 -50 -123.999s-58.833 -62.833 -98.5 -82.5s-84.5 -29.5 -134.5 -29.5zM271.001 95.998c36.667 0 68.167 11.833 94.5 35.5s42.5 54.5 48.5 92.5
c6 39.333 -0.333008 70.833 -19 94.5s-46.334 35.5 -83.001 35.5s-68.167 -11.833 -94.5 -35.5s-42.5 -55.167 -48.5 -94.5c-6 -38 0.333008 -68.833 19 -92.5s46.334 -35.5 83.001 -35.5z" />
    <glyph glyph-name="seven" unicode="7" 
d="M111 0l359 614h-232l-17 -106h-125l36 222h484l-19 -118l-350 -612h-136z" />
    <glyph glyph-name="eight" unicode="8" 
d="M254 -10c-72.667 0 -127.337 18.1689 -164.004 54.502s-50.334 84.5 -41.001 144.5c7.33301 44 25.833 81.667 55.5 113s70.834 58 123.501 80l119 51c26 11.333 47.5 26.666 64.5 45.999s27.167 41 30.5 65c4.66699 27.333 -0.666016 49.166 -15.999 65.499
s-38.666 24.5 -69.999 24.5c-30.667 0 -56.5 -8.33301 -77.5 -25s-33.5 -38.667 -37.5 -66c-3.33301 -23.333 0.333984 -44.666 11.001 -63.999s26.667 -34.333 48 -45l104 -51c48.667 -23.333 82.334 -50.833 101.001 -82.5s24.334 -68.834 17.001 -111.501
c-6 -40.667 -21.167 -76 -45.5 -106s-55.333 -53 -93 -69s-80.834 -24 -129.501 -24zM270.997 97.002c34.667 0 63.667 9.16699 87 27.5s37.333 42.5 42 72.5c4 23.333 0.5 45.5 -10.5 66.5s-27.833 37.167 -50.5 48.5l-110 55c-42 21.333 -72.5 46.833 -91.5 76.5
s-25.167 65.167 -18.5 106.5c6 37.333 20.333 70.333 43 99s52 51 88 67s77 24 123 24s84.333 -8 115 -24s52.834 -38.333 66.501 -67s17.5 -61.667 11.5 -99c-6.66699 -42 -24 -77.667 -52 -107s-66.333 -54.666 -115 -75.999l-129 -56
c-26 -10.667 -47.5 -26.334 -64.5 -47.001s-27.5 -42.667 -31.5 -66c-4.66699 -30 1.66602 -54.333 18.999 -73s43.333 -28 78 -28z" />
    <glyph glyph-name="nine" unicode="9" 
d="M124 0l270.002 340.001l-6 4c-16 -20.667 -36.333 -36.334 -61 -47.001s-51 -16 -79 -16c-38.667 0 -71 9.33301 -97 28s-44.333 44.667 -55 78s-12.334 72.333 -5.00098 117c7.33301 47.333 23.833 88.666 49.5 123.999s58.5 62.833 98.5 82.5s84.667 29.5 134 29.5
s90.666 -10.167 123.999 -30.5s57.333 -48.833 72 -85.5s18.334 -79.667 11.001 -129c-5.33301 -34 -16.833 -70.167 -34.5 -108.5s-39.834 -74.166 -66.501 -107.499l-216 -279h-139zM316.002 376.001c36.667 0 68.168 11.833 94.501 35.5s42.5 55.167 48.5 94.5
c6 38 -0.333008 68.833 -19 92.5s-46.667 35.5 -84 35.5c-36.667 0 -68 -11.833 -94 -35.5s-42.333 -54.5 -49 -92.5c-5.33301 -39.333 1.16699 -70.833 19.5 -94.5s46.166 -35.5 83.499 -35.5z" />
    <glyph glyph-name="colon" unicode=":" 
d="M318 392c-28 0 -49.167 7.83301 -63.5 23.5s-19.833 35.834 -16.5 60.501c4 25.333 16 45.666 36 60.999s43.667 23 71 23c28 0 49.167 -7.66699 63.5 -23s19.5 -35.666 15.5 -60.999c-3.33301 -24.667 -14.833 -44.834 -34.5 -60.501s-43.5 -23.5 -71.5 -23.5zM254 -10
c-28 0 -49.167 7.66699 -63.5 23s-19.5 35.666 -15.5 60.999c3.33301 25.333 14.833 45.666 34.5 60.999s43.5 23 71.5 23s49.167 -7.66699 63.5 -23s19.833 -35.666 16.5 -60.999c-4 -25.333 -15.833 -45.666 -35.5 -60.999s-43.5 -23 -71.5 -23z" />
    <glyph glyph-name="semicolon" unicode=";" 
d="M86 -160l129 311h160l-179 -311h-110zM308 392c-24 0 -42.667 8 -56 24s-18.333 36 -15 60c4.66699 24 16.167 44 34.5 60s39.5 24 63.5 24h20c24 0 42.667 -8 56 -24s18 -36 14 -60s-15 -44 -33 -60s-39.333 -24 -64 -24h-20z" />
    <glyph glyph-name="less" unicode="&#x3c;" 
d="M489 56l-415 210.999l20 125l481 211l-18 -120l-311 -134c-14.667 -6 -28.667 -11.167 -42 -15.5s-24 -7.16602 -32 -8.49902c7.33301 -1.33301 17.333 -3.83301 30 -7.5s25 -8.5 37 -14.5l268 -135z" />
    <glyph glyph-name="equal" unicode="=" 
d="M101 395l18 115h436l-18 -115h-436zM62 150l18 115h436l-19 -115h-435z" />
    <glyph glyph-name="greater" unicode="&#x3e;" 
d="M41 56l18 119.001l311 134c14.667 6 28.834 11.167 42.501 15.5s24.167 7.16602 31.5 8.49902c-6.66699 1.33301 -16.334 3.83301 -29.001 7.5s-25 8.5 -37 14.5l-269 135l18 113l415 -211l-20 -125z" />
    <glyph glyph-name="question" unicode="?" 
d="M184 217l29.001 200.001h79c34 0 62.167 9 84.5 27s36.166 41.667 41.499 71c4 30 -2.66699 53.833 -20 71.5s-42.666 26.5 -75.999 26.5h-149l19 117h143c74 0 129.667 -19.5 167 -58.5s51 -91.167 41 -156.5c-6.66699 -40.667 -20.834 -76.334 -42.501 -107.001
s-49 -55 -82 -73s-69.833 -27.333 -110.5 -28l-14 -90h-110zM189.001 -4.99902c-20.667 0 -36.333 6.16797 -47 18.501s-14.667 28.166 -12 47.499c3.33301 19.333 12.333 35.166 27 47.499s32 18.5 52 18.5h30c21.333 0 37.333 -6 48 -18s14.334 -28 11.001 -48
c-3.33301 -19.333 -12.333 -35.166 -27 -47.499s-32.334 -18.5 -53.001 -18.5h-29z" />
    <glyph glyph-name="at" unicode="@" 
d="M253 -179c-60 0 -109.999 11.668 -149.999 35.001s-68.333 56.666 -85 99.999s-20.334 95 -11.001 155l53 339c10 60 29.667 111.667 59 155s66.833 76.666 112.5 99.999s97.834 35 156.501 35c53.333 0 97.5 -10.167 132.5 -30.5s60 -48.666 75 -84.999
s18.5 -78.5 10.5 -126.5l-68 -433h-95l15 55h-30l19 26c-4 -26.667 -17.167 -48.5 -39.5 -65.5s-49.833 -25.5 -82.5 -25.5c-42 0 -72.333 14 -91 42s-24 67.667 -16 119l18 114c8.66699 51.333 26.667 91 54 119s62 42 104 42c32.667 0 57.5 -8.33301 74.5 -25
s23.167 -38.667 18.5 -66l-10 20h30l-5 68l1 10c4.66699 30 2.83398 56.333 -5.49902 79s-22.833 40.5 -43.5 53.5s-47.334 19.5 -80.001 19.5c-56.667 0 -103.334 -17.5 -140.001 -52.5s-60 -84.167 -70 -147.5l-54 -339c-10 -62 -1.16699 -110 26.5 -144
s71.5 -51 131.5 -51h70l-15 -95h-70zM377.001 131.001c23.333 0 41.6699 7 55.0029 21s22.333 36.667 27 68l17 110c4.66699 28 2.5 49.167 -6.5 63.5s-24.833 21.5 -47.5 21.5s-40.834 -7.16699 -54.501 -21.5s-22.834 -35.5 -27.501 -63.5l-18 -114
c-4.66699 -30 -2.33398 -51.667 6.99902 -65s25.333 -20 48 -20z" />
    <glyph glyph-name="A" unicode="A" 
d="M-9 0l300 730h161l69 -730h-124l-12 177h-194l-68 -177h-132zM229 279h149l-13 196l-5.5 88.5c-1.66699 26.333 -2.5 45.5 -2.5 57.5l-19.5 -57.5c-9 -26.333 -19.5 -55.5 -31.5 -87.5z" />
    <glyph glyph-name="B" unicode="B" 
d="M33 0l116.005 730.001h224c70.667 0 124 -16.833 160 -50.5s49.333 -79.5 40 -137.5c-4.66699 -32.667 -16.334 -61 -35.001 -85s-41.667 -42.667 -69 -56s-57 -20 -89 -20v4c35.333 0.666992 65.666 -5.83301 90.999 -19.5s44.166 -33.834 56.499 -60.501
s15.166 -59 8.49902 -97c-6.66699 -42 -22 -78.667 -46 -110s-54.833 -55.5 -92.5 -72.5s-80.834 -25.5 -129.501 -25.5h-235zM171.005 104.001h106.002c36.667 0 67 9.83301 91 29.5s38.667 46.5 44 80.5s-0.833984 61.5 -18.501 82.5s-44.834 31.5 -81.501 31.5h-106z
M222.007 429.001l100.998 -0.000976562c33.333 0 60.833 8.83301 82.5 26.5s35.167 41.834 40.5 72.501c4.66699 30.667 -1.16602 54.667 -17.499 72s-41.166 26 -74.499 26h-101z" />
    <glyph glyph-name="C" unicode="C" 
d="M258 -10c-46.667 0 -86.167 8.83398 -118.5 26.501s-55.333 42.667 -69 75s-17.167 70.5 -10.5 114.5l50 318c7.33301 44.667 23.166 83 47.499 115s55.333 56.833 93 74.5s79.834 26.5 126.501 26.5c47.333 0 86.666 -8.83301 117.999 -26.5s54.166 -42.667 68.499 -75
s17.833 -70.5 10.5 -114.5h-125c6 34.667 1.16699 61 -14.5 79s-40.5 27 -74.5 27s-61.833 -9 -83.5 -27s-35.167 -44 -40.5 -78l-51 -319c-5.33301 -34 0 -60.167 16 -78.5s41 -27.5 75 -27.5c33.333 0 60.833 9.16699 82.5 27.5s35.167 44.5 40.5 78.5h125
c-6.66699 -43.333 -22.167 -81.333 -46.5 -114s-55.166 -57.834 -92.499 -75.501s-79.666 -26.5 -126.999 -26.5z" />
    <glyph glyph-name="D" unicode="D" 
d="M31 0l115.999 730h217c49.333 0 90.666 -9.33301 123.999 -28s57.333 -45 72 -79s18.334 -74.333 11.001 -121l-43 -273c-7.33301 -46 -23.833 -86.167 -49.5 -120.5s-58.167 -61 -97.5 -80s-83.666 -28.5 -132.999 -28.5h-217zM173.999 115l92.001 0.000976562
c36.667 0 67.167 10.167 91.5 30.5s39.166 48.166 44.499 83.499l44 273c5.33301 34.667 -1 62.167 -19 82.5s-45.333 30.5 -82 30.5h-92z" />
    <glyph glyph-name="E" unicode="E" 
d="M44 0l116 730h438l-18 -109h-314l-31 -190h280l-17 -108h-280l-34 -214h315l-17 -109h-438z" />
    <glyph glyph-name="F" unicode="F" 
d="M36 0l116 730h454l-19 -116h-330l-31 -195h304l-18 -116h-302l-49 -303h-125z" />
    <glyph glyph-name="G" unicode="G" 
d="M258 -10c-46.667 0 -86.167 8.83398 -118.5 26.501s-55.333 42.667 -69 75s-17.167 70.5 -10.5 114.5l50 318c7.33301 44.667 23.166 83 47.499 115s55.333 56.833 93 74.5s79.834 26.5 126.501 26.5c47.333 0 86.666 -8.83301 117.999 -26.5s54.166 -42.667 68.499 -75
s17.833 -70.5 10.5 -114.5h-125c6 34.667 1.16699 61 -14.5 79s-40.5 27 -74.5 27s-61.833 -9 -83.5 -27s-35.167 -44 -40.5 -78l-51 -319c-5.33301 -34 0 -60.333 16 -79s41 -28 75 -28c33.333 0 60.833 9.33301 82.5 28s35.167 45 40.5 79l12 74h-125l17 108h250l-29 -182
c-6.66699 -43.333 -22.167 -81.333 -46.5 -114s-55.166 -57.834 -92.499 -75.501s-79.666 -26.5 -126.999 -26.5z" />
    <glyph glyph-name="H" unicode="H" 
d="M33 0l116 730h125l-47 -293h196l47 293h125l-116 -730h-125l50 321h-195l-51 -321h-125z" />
    <glyph glyph-name="I" unicode="I" 
d="M46 0l18 110h147l80 510h-146l17 110h420l-18 -110h-147l-80 -510h146l-17 -110h-420z" />
    <glyph glyph-name="J" unicode="J" 
d="M224 -11c-74 0 -129.167 20.501 -165.5 61.501s-48.833 96.167 -37.5 165.5h125c-6 -36.667 -0.5 -65.334 16.5 -86.001s43.5 -31 79.5 -31c35.333 0 64.833 10.167 88.5 30.5s38.5 48.833 44.5 85.5l63 399h-169l18 116h295l-82 -515c-7.33301 -46 -23.5 -86 -48.5 -120
s-56.833 -60.167 -95.5 -78.5s-82.667 -27.5 -132 -27.5z" />
    <glyph glyph-name="K" unicode="K" 
d="M32 0l116 730h125l-47 -295h84l186 295h137l-222 -356l114 -374h-135l-92 321h-90l-51 -321h-125z" />
    <glyph glyph-name="L" unicode="L" 
d="M59 0l116 730h125l-97 -614h309l-18 -116h-435z" />
    <glyph glyph-name="M" unicode="M" 
d="M12 0l116 729.999h145l34 -232c3.33301 -23.333 5.83301 -44.666 7.5 -63.999s2.5 -33.333 2.5 -42l16 42c7.33301 19.333 16.333 40.666 27 63.999l105 232h151l-116 -730h-117l36 227c6 34.667 13 71.5 21 110.5s16.5 78.167 25.5 117.5l26.5 111.5
c8.66699 35 16.667 65.833 24 92.5l-152 -345h-114l-47 345c-0.666992 -25.333 -2 -55.166 -4 -89.499s-4.5 -71 -7.5 -110s-6.66699 -78.5 -11 -118.5s-9.5 -78 -15.5 -114l-36 -227h-117z" />
    <glyph glyph-name="N" unicode="N" 
d="M28 0l116.001 729.999h151l111 -590c2 21.333 4.16699 46.5 6.5 75.5s5.16602 58.667 8.49902 89s6.66602 56.833 9.99902 79.5l55 346h114l-116 -730h-151l-110 590c-1.33301 -19.333 -3.16602 -42.666 -5.49902 -69.999s-5 -55.333 -8 -84s-6.5 -55 -10.5 -79l-57 -357
h-114z" />
    <glyph glyph-name="O" unicode="O" 
d="M254 -10c-46.667 0 -85.667 8.83203 -117 26.499s-53.666 42.667 -66.999 75s-16.666 70.5 -9.99902 114.5l50 318c7.33301 44 22.833 82.167 46.5 114.5s54 57.333 91 75s78.833 26.5 125.5 26.5c47.333 0 86.666 -8.83301 117.999 -26.5s53.666 -42.667 66.999 -75
s16.333 -70.166 9 -113.499l-50 -319c-6.66699 -44 -22 -82.167 -46 -114.5s-54.333 -57.333 -91 -75s-78.667 -26.5 -126 -26.5zM272 99.999c33.333 0 60.3311 9.16699 80.998 27.5s33.667 44.5 39 78.5l50 318c6 34.667 1.66699 61 -13 79s-39 27 -73 27
s-61.167 -9 -81.5 -27s-33.166 -44.333 -38.499 -79l-51 -318c-5.33301 -34 -0.666016 -60.167 14.001 -78.5s39 -27.5 73 -27.5z" />
    <glyph glyph-name="P" unicode="P" 
d="M33 0l115.998 730.001h243c48.667 0 89.667 -9.33301 123 -28s57.333 -44.834 72 -78.501s18.334 -73.167 11.001 -118.5c-7.33301 -44.667 -23.666 -84 -48.999 -118s-57.5 -60.333 -96.5 -79s-83.167 -28 -132.5 -28h-118l-44 -280h-125zM219.998 393.001h118
c35.333 0 65 10.167 89 30.5s39 47.5 45 81.5c5.33301 34.667 -1 62 -19 82s-44.333 30 -79 30h-118z" />
    <glyph glyph-name="Q" unicode="Q" 
d="M340 -180l-80.001 181l19 -9c-4 -0.666992 -8.16699 -1.16699 -12.5 -1.5s-8.5 -0.5 -12.5 -0.5c-46.667 0 -86 9 -118 27s-54.833 43.5 -68.5 76.5s-17.167 71.167 -10.5 114.5l50 314c7.33301 44.667 23 83.167 47 115.5s54.833 57.5 92.5 75.5s79.834 27 126.501 27
s86 -9 118 -27s55 -43.333 69 -76s17.333 -71 10 -115l-50 -314c-8 -51.333 -27.333 -95 -58 -131s-70 -60.667 -118 -74l12 63l111 -246h-127zM271.999 100c34.667 0 62.499 9.5 83.499 28.5s34.167 45.5 39.5 79.5l50 314c5.33301 34.667 0.333008 61.5 -15 80.5
s-40 28.5 -74 28.5c-32.667 0 -60.167 -9.5 -82.5 -28.5s-36.166 -45.833 -41.499 -80.5l-50 -314c-5.33301 -34 -0.333008 -60.5 15 -79.5s40.333 -28.5 75 -28.5z" />
    <glyph glyph-name="R" unicode="R" 
d="M32 0l115.998 730h231c48.667 0 89.334 -9 122.001 -27s56.334 -43.167 71.001 -75.5s18.667 -70.5 12 -114.5c-5.33301 -36.667 -17.5 -70 -36.5 -100s-42.833 -55 -71.5 -75s-60.667 -33.333 -96 -40l15 62l118 -360h-133l-88 290h-89l-46 -290h-125zM219.998 400
l107.001 -0.000976562c34.667 0 63.667 9.66699 87 29s37.666 46 42.999 80c5.33301 34.667 -0.5 61.834 -17.5 81.501s-42.833 29.5 -77.5 29.5h-107z" />
    <glyph glyph-name="S" unicode="S" 
d="M256 -10c-74.667 0 -130.999 18.4961 -168.999 55.4961s-52 87.167 -42 150.5h125c-5.33301 -30 1.5 -53.5 20.5 -70.5s47.167 -25.5 84.5 -25.5c36 0 65.333 8.33301 88 25s36.667 39.667 42 69c4 26.667 0.333008 49.167 -11 67.5s-29 30.833 -53 37.5l-81 23
c-54.667 15.333 -94.834 41.833 -120.501 79.5s-34.834 82.5 -27.501 134.5c6.66699 41.333 21.834 77.333 45.501 108s54 54.334 91 71.001s78.833 25 125.5 25c70.667 0 123.834 -18.167 159.501 -54.5s48.834 -85.166 39.501 -146.499h-125
c4.66699 28.667 -1 51.167 -17 67.5s-41 24.5 -75 24.5c-32.667 0 -59.334 -7.66699 -80.001 -23s-33 -37 -37 -65c-4.66699 -26 -1.66699 -48.333 9 -67s28 -31.334 52 -38.001l83 -24c55.333 -15.333 95.833 -41.666 121.5 -78.999s34.167 -82.666 25.5 -135.999
c-6.66699 -42 -22.5 -78.667 -47.5 -110s-56.833 -55.666 -95.5 -72.999s-82.334 -26 -131.001 -26z" />
    <glyph glyph-name="T" unicode="T" 
d="M193 0l98 614h-192l19 116h508l-19 -116h-191l-97 -614h-126z" />
    <glyph glyph-name="U" unicode="U" 
d="M254 -10c-71.333 0 -123.835 19.5 -157.502 58.5s-45.167 92.167 -34.5 159.5l82 522h126l-83 -521c-6 -34.667 -1.83301 -61.667 12.5 -81s38.5 -29 72.5 -29c32.667 0 59.334 9.66699 80.001 29s34 46.333 40 81l82 521h126l-83 -522
c-7.33301 -44.667 -22.666 -83.5 -45.999 -116.5s-53.333 -58.167 -90 -75.5s-79 -26 -127 -26z" />
    <glyph glyph-name="V" unicode="V" 
d="M175 0l-68 730h127l35 -476c2 -23.333 3.66699 -48.5 5 -75.5s2 -48.833 2 -65.5l21 65.5c8.66699 27 17.667 52.5 27 76.5l184 475h129l-300 -730h-162z" />
    <glyph glyph-name="W" unicode="W" 
d="M47 0l41.0029 730h105l-37 -510c-0.666992 -11.333 -1.66699 -25.166 -3 -41.499s-3 -32.833 -5 -49.5s-3.66699 -31.334 -5 -44.001c3.33301 12.667 6.83301 27.334 10.5 44.001s7.66699 33.167 12 49.5s8.16602 30.166 11.499 41.499l141 510h108l-25 -510
c-0.666992 -11.333 -1.33398 -25.166 -2.00098 -41.499l-2 -49.5c-0.666992 -16.667 -1.33398 -31.334 -2.00098 -44.001l9 44c3.33301 16.667 6.83301 33.167 10.5 49.5l9.5 41.5l125 510h107l-195 -730h-138l26 512c0.666992 12.667 1.66699 27.5 3 44.5l4 51
c1.33301 17 2.33301 31.5 3 43.5l-10 -43.5l-12 -51c-4 -17 -7.66699 -31.833 -11 -44.5l-140 -512h-139z" />
    <glyph glyph-name="X" unicode="X" 
d="M-16 0l260.999 377l-133 353h136l62 -183c4 -13.333 8.16699 -26.166 12.5 -38.499s7.16602 -21.833 8.49902 -28.5c3.33301 6.66699 8.33301 16.167 15 28.5s14.334 25.166 23.001 38.499l123 183h140l-246 -357l142 -373h-135l-71 202
c-4.66699 13.333 -9 26.333 -13 39s-7 22.667 -9 30c-3.33301 -7.33301 -8.66602 -17.333 -15.999 -30s-15.333 -25.667 -24 -39l-135 -202h-141z" />
    <glyph glyph-name="Y" unicode="Y" 
d="M193 0l42.001 265l-140 465h128l73 -253c5.33301 -20 9.66602 -39.667 12.999 -59s5.33301 -34.333 6 -45c4 10.667 10.333 25.667 19 45s18.667 39 30 59l152 253h133l-289 -465l-41 -265h-126z" />
    <glyph glyph-name="Z" unicode="Z" 
d="M36 0l18 119l368 495h-283l19 116h424l-19 -119l-368 -495h300l-18 -116h-441z" />
    <glyph glyph-name="bracketleft" unicode="[" 
d="M124 -110l148 940h280l-18 -115h-155l-113 -710h155l-17 -115h-280z" />
    <glyph glyph-name="backslash" unicode="\" 
d="M352 -110l-205 940h125l206 -940h-126z" />
    <glyph glyph-name="bracketright" unicode="]" 
d="M74 -110l18 115h155l113 710h-155l17 115h280l-148 -940h-280z" />
    <glyph glyph-name="asciicircum" unicode="^" 
d="M78 340l235.001 390h120l109 -390h-114l-55 230c-3.33301 14.667 -6 28.334 -8 41.001s-3.33301 22.334 -4 29.001c-2.66699 -6.66699 -6.83398 -16.334 -12.501 -29.001s-12.5 -26.334 -20.5 -41.001l-131 -230h-119z" />
    <glyph glyph-name="underscore" unicode="_" 
d="M-6 -138l18 113h480l-18 -113h-480z" />
    <glyph glyph-name="grave" unicode="`" 
d="M340 645l-94 140h132l85 -140h-123z" />
    <glyph glyph-name="a" unicode="a" 
d="M208 -10c-55.333 0 -96.499 19.0039 -123.499 57.0039s-35.167 89 -24.5 153l23 149c7.33301 43.333 21 80.666 41 111.999s45 55.666 75 72.999s63.333 26 100 26c45.333 0 79.166 -12.833 101.499 -38.5s29.833 -60.834 22.5 -105.501l-23 29h28l14 105h125l-87 -550
h-123l17 105h-27l32 29c-7.33301 -44.667 -26.333 -79.834 -57 -105.501s-68.667 -38.5 -114 -38.5zM270.001 98.0039c31.333 0 57.3301 9.50195 77.9971 28.502s33.667 45.5 39 79.5l22 138c6 34 1.33301 60.5 -14 79.5s-38.666 28.5 -69.999 28.5
c-32 0 -58.167 -9.33301 -78.5 -28s-33.166 -45.334 -38.499 -80.001l-22 -138c-6 -34.667 -1.66699 -61.334 13 -80.001s38.334 -28 71.001 -28z" />
    <glyph glyph-name="b" unicode="b" 
d="M301 -10c-45.333 0 -79.168 12.832 -101.501 38.499s-30.166 60.834 -23.499 105.501l24 -29h-28l-17 -105h-122l116 730h125l-25 -154l-25 -131h29l-32 -29c6.66699 44.667 25.5 79.834 56.5 105.501s69.167 38.5 114.5 38.5c55.333 0 96.333 -19 123 -57
s35 -89.333 25 -154l-24 -149c-6.66699 -42.667 -20 -79.834 -40 -111.501s-45 -56 -75 -73s-63.333 -25.5 -100 -25.5zM273.998 97.999c32 0 58.334 9.33105 79.001 27.998s33.667 45.334 39 80.001l22 138c5.33301 34.667 0.666016 61.334 -14.001 80.001s-38 28 -70 28
c-31.333 0 -57.333 -9.5 -78 -28.5s-34 -45.5 -40 -79.5l-22 -138c-5.33301 -34 -0.5 -60.5 14.5 -79.5s38.167 -28.5 69.5 -28.5z" />
    <glyph glyph-name="c" unicode="c" 
d="M257 -10c-46.667 0 -86.0039 8.83105 -118.004 26.498s-54.833 42.667 -68.5 75s-17.167 70.5 -10.5 114.5l22 138c7.33301 44.667 23 83 47 115s54.833 56.833 92.5 74.5s79.834 26.5 126.501 26.5c69.333 0 121.833 -17.833 157.5 -53.5s49.834 -84.167 42.501 -145.5
h-125c2 28.667 -5 50.834 -21 66.501s-39.667 23.5 -71 23.5c-34 0 -61.667 -9.16699 -83 -27.5s-34.666 -44.5 -39.999 -78.5l-23 -139c-5.33301 -34 -0.166016 -60.333 15.501 -79s40.5 -28 74.5 -28c31.333 0 57.5 7.83301 78.5 23.5s34.833 37.834 41.5 66.501h126
c-12.667 -61.333 -42.5 -109.833 -89.5 -145.5s-105.167 -53.5 -174.5 -53.5z" />
    <glyph glyph-name="d" unicode="d" 
d="M208 -10c-55.333 0 -96.332 19.0039 -122.999 57.0039s-35 89 -25 153l23 149c6.66699 43.333 20.167 80.666 40.5 111.999s45.5 55.666 75.5 72.999s63.333 26 100 26c45.333 0 79.166 -12.833 101.499 -38.5s29.833 -60.834 22.5 -105.501l-23 29h28l18 131l25 154h125
l-116 -730h-123l17 105h-27l32 29c-7.33301 -44.667 -26.333 -79.834 -57 -105.501s-68.667 -38.5 -114 -38.5zM270.001 98.0039c31.333 0 57.3301 9.50195 77.9971 28.502s33.667 45.5 39 79.5l22 138c6 34 1.33301 60.5 -14 79.5s-38.666 28.5 -69.999 28.5
c-32 0 -58.167 -9.33301 -78.5 -28s-33.166 -45.334 -38.499 -80.001l-22 -138c-6 -34.667 -1.66699 -61.334 13 -80.001s38.334 -28 71.001 -28z" />
    <glyph glyph-name="e" unicode="e" 
d="M255 -10c-46.667 0 -85.6699 9 -117.003 27s-53.833 43.167 -67.5 75.5s-17.167 70.166 -10.5 113.499l22 138c7.33301 43.333 23 81.166 47 113.499s54.5 57.5 91.5 75.5s78.833 27 125.5 27c46 0 84.667 -9 116 -27s53.833 -43.167 67.5 -75.5
s16.834 -70.166 9.50098 -113.499l-16 -99h-336l-7 -39c-5.33301 -38.667 -0.5 -67.834 14.5 -87.501s40.833 -29.5 77.5 -29.5c28 0 51.167 4.83301 69.5 14.5s31.166 23.834 38.499 42.501h124c-11.333 -31.333 -29.166 -58.666 -53.499 -81.999
s-53.166 -41.5 -86.499 -54.5s-69.666 -19.5 -108.999 -19.5zM413.997 315l5 30c6 38 1.66699 67.167 -13 87.5s-40 30.5 -76 30.5s-64.833 -10.333 -86.5 -31s-35.5 -50 -41.5 -88l-3 -21l226 2z" />
    <glyph glyph-name="f" unicode="f" 
d="M-55 -180l17 103.998h104c27.333 0 49.166 6.83301 65.499 20.5s26.5 33.167 30.5 58.5l59 373h-152l18 113h152l12 75c5.33301 34 17.333 63.333 36 88s42.834 43.834 72.501 57.501s63.167 20.5 100.5 20.5h166l-17 -110h-164c-19.333 0 -35 -5 -47 -15
s-19.667 -24.667 -23 -44l-11 -72h211l-18 -113h-211l-60 -376c-8 -55.333 -33 -99.166 -75 -131.499s-95 -48.5 -159 -48.5h-107z" />
    <glyph glyph-name="g" unicode="g" 
d="M79 -180l17 104h163c28 0 50.167 6.83301 66.5 20.5s26.833 33.167 31.5 58.5l6 41l19 103h-28l32 27c-8 -44.667 -27 -79.5 -57 -104.5s-67.333 -37.5 -112 -37.5c-56 0 -97.667 19 -125 57s-35.666 89.333 -24.999 154l17 107c6.66699 42.667 20 79.667 40 111
s45.167 55.666 75.5 72.999s63.833 26 100.5 26c45.333 0 79.166 -12.5 101.499 -37.5s29.833 -59.833 22.5 -104.5l-24 27h28l14 105h125l-87 -550c-9.33301 -55.333 -34.833 -99.166 -76.5 -131.499s-94.5 -48.5 -158.5 -48.5h-166zM276 140
c32 0 58.333 9.50195 79 28.502s34 45.5 40 79.5l14 96c6 34 1.5 60.5 -13.5 79.5s-38.167 28.5 -69.5 28.5c-32.667 0 -59 -9.33301 -79 -28s-33 -45.334 -39 -80.001l-15 -96c-5.33301 -34.667 -0.833008 -61.334 13.5 -80.001s37.5 -28 69.5 -28z" />
    <glyph glyph-name="h" unicode="h" 
d="M33 0l116.002 730.002h125l-29 -180l-20 -105h34l-38 -29c7.33301 45.333 26.166 80.666 56.499 105.999s68.5 38 114.5 38c54 0 94.333 -18 121 -54s35 -84.333 25 -145l-57 -361h-125l55 348c5.33301 33.333 0.666016 59 -14.001 77s-37.334 27 -68.001 27
c-31.333 0 -57.166 -9.33301 -77.499 -28s-33.5 -45.334 -39.5 -80.001l-54 -344h-125z" />
    <glyph glyph-name="i" unicode="i" 
d="M30 0l18 114h192l52 323h-168l18 113h286l-68 -436h170l-18 -114h-482zM376 642c-25.333 0 -44.332 6.5 -56.999 19.5s-17.334 30.5 -14.001 52.5c4 22 14.333 39.5 31 52.5s37.667 19.5 63 19.5c24.667 0 43.5 -6.5 56.5 -19.5s17.5 -30.5 13.5 -52.5
c-3.33301 -22 -13.333 -39.5 -30 -52.5s-37.667 -19.5 -63 -19.5z" />
    <glyph glyph-name="j" unicode="j" 
d="M9 -180l19.001 116h147c33.333 0 60.5 9 81.5 27s33.833 43.333 38.5 76l63 395h-221l18 116h346l-81 -514c-6.66699 -44 -21.834 -82.167 -45.501 -114.5s-53.5 -57.333 -89.5 -75s-76.667 -26.5 -122 -26.5h-154zM449.001 642c-25.333 0 -44.332 6.5 -56.999 19.5
s-17.334 30.5 -14.001 52.5c4 22 14.333 39.5 31 52.5s37.667 19.5 63 19.5c24.667 0 43.5 -6.5 56.5 -19.5s17.5 -30.5 13.5 -52.5c-3.33301 -22 -13.333 -39.5 -30 -52.5s-37.667 -19.5 -63 -19.5z" />
    <glyph glyph-name="k" unicode="k" 
d="M36 0l116 730h125l-63 -396h80l168 216h143l-209 -271l125 -279h-138l-99 228h-87l-36 -228h-125z" />
    <glyph glyph-name="l" unicode="l" 
d="M336 0c-54.667 0 -95.834 16.333 -123.501 49s-37.167 75.667 -28.5 129l69 439h-168l18 113h293l-87 -552c-3.33301 -20 -0.166016 -35.833 9.50098 -47.5s24.167 -17.5 43.5 -17.5h170l-17 -113h-179z" />
    <glyph glyph-name="m" unicode="m" 
d="M8 0l86.9971 549.997h102l-12 -74h22l-20 -18c5.33301 30.667 18 55.334 38 74.001s43.667 28 71 28c29.333 0 50.333 -12 63 -36s15.667 -56.333 9 -97l-14 49h34l-16 -18c5.33301 30.667 18 55.334 38 74.001s44.333 28 73 28c34 0 59 -12.667 75 -38
s20.333 -59.666 13 -102.999l-66 -419h-110l65 414c3.33301 18 1.83301 32.167 -4.5 42.5s-17.166 15.5 -32.499 15.5c-14.667 0 -26.834 -5 -36.501 -15s-16.167 -24.333 -19.5 -43l-66 -414h-90l66 414c2.66699 18.667 0.833984 33 -5.49902 43s-17.166 15 -32.499 15
s-27.666 -5 -36.999 -15s-15.333 -24.333 -18 -43l-66 -414h-110z" />
    <glyph glyph-name="n" unicode="n" 
d="M33 0l87.002 550.002h122l-17 -105h34l-38 -29c7.33301 45.333 26.166 80.666 56.499 105.999s68.5 38 114.5 38c54 0 94.333 -18 121 -54s35 -84.333 25 -145l-57 -361h-125l55 348c5.33301 33.333 0.666016 59 -14.001 77s-37.334 27 -68.001 27
c-31.333 0 -57.166 -9.33301 -77.499 -28s-33.5 -45.334 -39.5 -80.001l-54 -344h-125z" />
    <glyph glyph-name="o" unicode="o" 
d="M254 -10c-46.667 0 -85.6699 8.83203 -117.003 26.499s-53.666 42.667 -66.999 75s-16.666 70.5 -9.99902 114.5l22 138c7.33301 44 22.833 82.167 46.5 114.5s54 57.333 91 75s78.833 26.5 125.5 26.5c47.333 0 86.5 -8.83301 117.5 -26.5s53.333 -42.667 67 -75
s16.834 -70.166 9.50098 -113.499l-22 -139c-6.66699 -44 -22 -82.167 -46 -114.5s-54.333 -57.333 -91 -75s-78.667 -26.5 -126 -26.5zM271.997 98.999c33.333 0 60.335 9.16699 81.002 27.5s33.667 44.833 39 79.5l22 138c5.33301 34.667 0.666016 61.167 -14.001 79.5
s-39 27.5 -73 27.5c-32.667 0 -59.334 -9.16699 -80.001 -27.5s-34 -44.833 -40 -79.5l-22 -138c-5.33301 -34.667 -0.5 -61.167 14.5 -79.5s39.167 -27.5 72.5 -27.5z" />
    <glyph glyph-name="p" unicode="p" 
d="M4 -180l115.998 729.999h122l-17 -105h28l-32 -29c6.66699 44.667 25.5 79.834 56.5 105.501s69.167 38.5 114.5 38.5c55.333 0 96.333 -19 123 -57s35 -89 25 -153l-24 -149c-6.66699 -42.667 -20 -79.834 -40 -111.501s-44.833 -56.167 -74.5 -73.5
s-63.167 -26 -100.5 -26c-45.333 0 -79.166 12.833 -101.499 38.5s-30.166 60.834 -23.499 105.501l24 -29h-29l-17 -131l-25 -154h-125zM274.998 97.999c32 0 58.1689 9.33105 78.502 27.998s33.166 45.334 38.499 80.001l22 138
c5.33301 34.667 0.833008 61.334 -13.5 80.001s-37.833 28 -70.5 28c-30.667 0 -56.5 -9.5 -77.5 -28.5s-34.5 -45.5 -40.5 -79.5l-22 -138c-5.33301 -34 -0.333008 -60.5 15 -79.5s38.666 -28.5 69.999 -28.5z" />
    <glyph glyph-name="q" unicode="q" 
d="M325 -180l24.998 154.001l25 131h-29l31 29c-7.33301 -44.667 -26.166 -79.834 -56.499 -105.501s-68.166 -38.5 -113.499 -38.5c-55.333 0 -96.333 19 -123 57s-35 89.333 -25 154l24 149c6.66699 42.667 20 79.834 40 111.501s45 56 75 73s63.333 25.5 100 25.5
c45.333 0 79 -12.833 101 -38.5s29.667 -60.834 23 -105.501l-23 29h28l17 105h122l-116 -730h-125zM268.998 98.001c31.333 0 57.332 9.50195 77.999 28.502s34 45.5 40 79.5l22 138c5.33301 34 0.5 60.5 -14.5 79.5s-38.167 28.5 -69.5 28.5
c-32 0 -58.167 -9.33301 -78.5 -28s-33.5 -45.334 -39.5 -80.001l-22 -138c-5.33301 -34.667 -0.666016 -61.334 14.001 -80.001s38 -28 70 -28z" />
    <glyph glyph-name="r" unicode="r" 
d="M50 0l87 550.001h118l-17 -105h31l-47 -64c9.33301 59.333 29.833 104 61.5 134s73.5 45 125.5 45c59.333 0 103 -18.333 131 -55s37 -87.334 27 -152.001l-7 -40h-131l6 31c5.33301 35.333 0.5 62.666 -14.5 81.999s-38.5 29 -70.5 29
c-32.667 0 -59.5 -9.66699 -80.5 -29s-34.167 -46.666 -39.5 -81.999l-55 -344h-125z" />
    <glyph glyph-name="s" unicode="s" 
d="M231 -10c-63.333 0 -111.662 14.666 -144.995 43.999s-47.333 68 -42 116h125c-1.33301 -17.333 5.16699 -31.333 19.5 -42s34.166 -16 59.499 -16h43c30.667 0 54.834 6 72.501 18s27.834 28.333 30.501 49c3.33301 19.333 -0.833984 34.833 -12.501 46.5
s-31.5 19.5 -59.5 23.5l-66 10c-61.333 8.66699 -104.833 24.834 -130.5 48.501s-34.834 60.167 -27.501 109.5c8 51.333 31.667 91.333 71 120s92.666 43 159.999 43h38c61.333 0 108 -13.833 140 -41.5s45.667 -64.5 41 -110.5h-125
c0.666992 14.667 -5.33301 26.667 -18 36s-31 14 -55 14h-38c-28.667 0 -50.334 -5.16699 -65.001 -15.5s-23.667 -25.5 -27 -45.5c-2.66699 -18.667 0.666016 -33 9.99902 -43s26.666 -17 51.999 -21l69 -10c64 -8.66699 109.667 -25.5 137 -50.5s37 -62.5 29 -112.5
c-8.66699 -53.333 -33.5 -95 -74.5 -125s-96.833 -45 -167.5 -45h-44z" />
    <glyph glyph-name="t" unicode="t" 
d="M316 0c-52.667 0 -91.333 14.668 -116 44.001s-33 69.666 -25 120.999l43 272h-149l17 113h149l24 150h126l-24 -150h211l-18 -113h-211l-43 -272c-6 -34.667 8 -52 42 -52h150l-17 -113h-159z" />
    <glyph glyph-name="u" unicode="u" 
d="M254 -10c-70 0 -121.83 19.502 -155.497 58.502s-45.167 92.167 -34.5 159.5l54 342h125l-54 -341c-5.33301 -35.333 -0.833008 -62.5 13.5 -81.5s37.166 -28.5 68.499 -28.5s57.5 9.5 78.5 28.5s34.167 46.167 39.5 81.5l54 341h125l-54 -342
c-6.66699 -44.667 -21.834 -83.334 -45.501 -116.001s-53.834 -57.834 -90.501 -75.501s-78 -26.5 -124 -26.5z" />
    <glyph glyph-name="v" unicode="v" 
d="M176 0l-91.998 550.001h126l49 -334c3.33301 -20 6.16602 -40.667 8.49902 -62s3.83301 -38.333 4.5 -51l20.5 51c8.33301 21.333 17.166 41.666 26.499 60.999l153 335h130l-265 -550h-161z" />
    <glyph glyph-name="w" unicode="w" 
d="M60 0l3.00195 549.997h101l-7 -337c-0.666992 -19.333 -1.33398 -40.666 -2.00098 -63.999s-1.66699 -42.666 -3 -57.999l17 58l18 64l106 337h99l-2 -337c0 -19.333 -0.333008 -40.833 -1 -64.5s-1.33398 -43.167 -2.00098 -58.5l15.5 59.5
c6.33301 23.667 12.5 44.834 18.5 63.501l102 337h100l-173 -550h-129l4 339c0.666992 18.667 1 39.5 1 62.5s0.333008 41.833 1 56.5c-4 -14.667 -9.5 -33.5 -16.5 -56.5l-18.5 -62.5l-103 -339h-129z" />
    <glyph glyph-name="x" unicode="x" 
d="M-6 0l235.001 287l-135 263h138l62 -135c4 -8 7.66699 -17 11 -27s5.66602 -18 6.99902 -24l14 24c6 10 12 19 18 27l104 135h145l-219 -269l144 -281h-139l-69 151c-4 8.66699 -8 18 -12 28s-6.66699 18 -8 24l-14 -24.5c-6 -10.333 -12.333 -19.5 -19 -27.5l-119 -151
h-144z" />
    <glyph glyph-name="y" unicode="y" 
d="M77 -180l15.999 103.999h163c28 0 50.333 6.83301 67 20.5s27 33.167 31 58.5l7 43l18 109h-34l38 29c-7.33301 -44.667 -26.166 -79.834 -56.499 -105.501s-68.5 -38.5 -114.5 -38.5c-54 0 -94.333 18 -121 54s-35.334 84.333 -26.001 145l50 311h125l-48 -298
c-5.33301 -33.333 -0.5 -59 14.5 -77s37.833 -27 68.5 -27s56.334 9.33301 77.001 28s33.667 45.334 39 80.001l47 294h125l-86 -550c-8.66699 -55.333 -34 -99.166 -76 -131.499s-95 -48.5 -159 -48.5h-165z" />
    <glyph glyph-name="z" unicode="z" 
d="M34 0l18 113l335 327h-274l17 110h424l-18 -113l-337 -327h296l-17 -110h-444z" />
    <glyph glyph-name="braceleft" unicode="{" 
d="M391 -111c-37.333 0 -68.999 7.33301 -94.999 22s-44.333 35.167 -55 61.5s-12 57.833 -4 94.5l34 152c6 27.333 3.66699 48 -7 62s-31.334 21 -62.001 21h-119l18 115h119c30.667 0 53.667 7 69 21s24 34.333 26 61l15 157c4 36 15.333 67 34 93s43.167 46 73.5 60
s64.166 21 101.499 21h69l-18 -115h-51c-24 0 -43.667 -5.66699 -59 -17s-24 -29.333 -26 -54l-15 -156c-4 -39.333 -20.833 -71 -50.5 -95s-67.834 -36 -114.501 -36v7c46.667 0 81.334 -12.167 104.001 -36.5s29.334 -56.5 20.001 -96.5l-35 -156
c-4.66699 -22 -1 -39.167 11 -51.5s29.667 -18.5 53 -18.5h51l-19 -116h-68z" />
    <glyph glyph-name="bar" unicode="|" 
d="M176 -110l148 940h126l-148 -940h-126z" />
    <glyph glyph-name="braceright" unicode="}" 
d="M18 -111l18.002 116h51c23.333 0 42.833 6.16699 58.5 18.5s24.5 29.5 26.5 51.5l15 156c4 40 21.167 72.167 51.5 96.5s68.5 36.5 114.5 36.5l-1 -7c-46 0 -80.5 12 -103.5 36s-29.833 55.667 -20.5 95l35 156c5.33301 24.667 2.16602 42.667 -9.50098 54
s-29.834 17 -54.501 17h-51l18 115h69c37.333 0 69 -7 95 -21s44.333 -34 55 -60s12 -57 4 -93l-34 -157c-6 -26.667 -3.5 -47 7.5 -61s31.5 -21 61.5 -21h119l-18 -115h-119c-30 0 -52.833 -7 -68.5 -21s-24.5 -34.667 -26.5 -62l-15 -152
c-3.33301 -36.667 -14.5 -68.167 -33.5 -94.5s-43.667 -46.833 -74 -61.5s-64.5 -22 -102.5 -22h-68z" />
    <glyph glyph-name="asciitilde" unicode="~" 
d="M46 255l13.002 79c6.66699 41.333 25.167 74.333 55.5 99s67.166 37 110.499 37c27.333 0 49.333 -4.66699 66 -14s30.167 -20.666 40.5 -33.999s19.166 -26.833 26.499 -40.5s15.333 -25 24 -34s19.667 -13.5 33 -13.5c12.667 0 22.834 3.83301 30.501 11.5
s12.5 18.167 14.5 31.5l11 73h106l-13 -79c-6 -40.667 -24 -73.5 -54 -98.5s-67 -37.5 -111 -37.5c-27.333 0 -49.333 4.66699 -66 14s-30.167 20.666 -40.5 33.999s-19.166 26.833 -26.499 40.5s-15.333 25 -24 34s-19.667 13.5 -33 13.5
c-12.667 0 -22.834 -3.66699 -30.501 -11s-12.834 -18 -15.501 -32l-11 -73h-106z" />
    <glyph glyph-name="uni00A0" unicode="&#xa0;" 
 />
    <glyph glyph-name="exclamdown" unicode="&#xa1;" 
d="M159 -180l23 145l78 353h92l-33 -353l-24 -145h-136zM310 424c-21.333 0 -37.499 6.16602 -48.499 18.499s-14.833 28.5 -11.5 48.5c3.33301 19.333 12.5 34.833 27.5 46.5s33.167 17.5 54.5 17.5h25c21.333 0 37.666 -5.83301 48.999 -17.5s15.333 -27.5 12 -47.5
c-3.33301 -19.333 -12.5 -35.166 -27.5 -47.499s-33.167 -18.5 -54.5 -18.5h-26z" />
    <glyph glyph-name="cent" unicode="&#xa2;" 
d="M209 -140l131 830h63l-131 -830h-63zM257 -10c-46.667 0 -86.0039 8.83105 -118.004 26.498s-54.833 42.667 -68.5 75s-17.167 70.5 -10.5 114.5l22 138c7.33301 44.667 23 83 47 115s54.833 56.833 92.5 74.5s79.834 26.5 126.501 26.5
c69.333 0 121.833 -17.833 157.5 -53.5s49.834 -84.167 42.501 -145.5h-125c2 28.667 -5 50.834 -21 66.501s-39.667 23.5 -71 23.5c-34 0 -61.667 -9.16699 -83 -27.5s-34.666 -44.5 -39.999 -78.5l-23 -139c-5.33301 -34 -0.166016 -60.333 15.501 -79s40.5 -28 74.5 -28
c31.333 0 57.5 7.83301 78.5 23.5s34.833 37.834 41.5 66.501h126c-12.667 -61.333 -42.5 -109.833 -89.5 -145.5s-105.167 -53.5 -174.5 -53.5z" />
    <glyph glyph-name="sterling" unicode="&#xa3;" 
d="M31 0l21.001 135c18 9.33301 36.333 21 55 35s35.167 29.333 49.5 46s22.833 33.334 25.5 50.001c4.66699 27.333 4.5 50.666 -0.5 69.999s-12.167 36.666 -21.5 51.999l-27.5 44.5c-9 14.333 -16 30.5 -21 48.5s-5.5 39.667 -1.5 65c6 38 20.667 71.5 44 100.5
s53.833 51.833 91.5 68.5s80.167 25 127.5 25c46 0 84.667 -8.33301 116 -25s54.333 -40.167 69 -70.5s19.667 -65.833 15 -106.5h-128c3.33301 26.667 -3.16699 48.834 -19.5 66.501s-40.166 26.5 -71.499 26.5c-33.333 0 -60.666 -8.5 -81.999 -25.5
s-34.333 -39.167 -39 -66.5c-2.66699 -18 -1.5 -33.833 3.5 -47.5s11.833 -26.834 20.5 -39.501s17 -26.667 25 -42s14 -33.666 18 -54.999s3.33301 -48 -2 -80c-4.66699 -28.667 -15.834 -54 -33.501 -76s-37.834 -40 -60.501 -54s-44.334 -24 -65.001 -30h370l-18 -115
h-460zM71.001 293l17 104h366l-17 -104h-366z" />
    <glyph glyph-name="currency" unicode="&#xa4;" 
d="M469 111l-109.998 130.001l64 -22c-18.667 -16 -40 -28 -64 -36s-49 -12 -75 -12s-50 4.16699 -72 12.5s-41 20.5 -57 36.5l72 14l-143 -122l-57 69l139 121l-24 -67c-14 17.333 -23.833 37.833 -29.5 61.5s-6.5 49.167 -2.5 76.5c4 26.667 12.5 51.5 25.5 74.5
s29.5 43.167 49.5 60.5l9 -68l-108 130l76 66l110 -132l-63 24c18.667 14.667 40 26.167 64 34.5s49 12.5 75 12.5c27.333 0 52 -4.33301 74 -13s41.333 -21.334 58 -38.001l-72 -15l139 121l58 -68l-139 -121l26 69c12.667 -18 21.667 -38.667 27 -62
s5.66602 -48.333 0.999023 -75c-4 -26 -12.333 -50.667 -25 -74s-28.334 -44.333 -47.001 -63l-12 69l110 -129zM297.002 255.001c22 0 42.499 5.16699 61.499 15.5s34.833 24.5 47.5 42.5s21 38 25 60c3.33301 22.667 1.33301 42.834 -6 60.501s-18.666 31.667 -33.999 42
s-34 15.5 -56 15.5s-42.667 -5.16699 -62 -15.5s-35.5 -24.333 -48.5 -42s-21.5 -37.834 -25.5 -60.501c-3.33301 -22 -1.33301 -42 6 -60s19 -32.167 35 -42.5s35 -15.5 57 -15.5z" />
    <glyph glyph-name="yen" unicode="&#xa5;" 
d="M58 264l15 93h480l-15 -93h-480zM33 108l15 93h480l-15 -93h-480zM193 0l42.001 265l-140 465h128l73 -253c5.33301 -20 9.66602 -39.667 12.999 -59s5.33301 -34.333 6 -45c4 10.667 10.333 25.667 19 45s18.667 39 30 59l152 253h133l-289 -465l-41 -265h-126z" />
    <glyph glyph-name="brokenbar" unicode="&#xa6;" 
d="M264 450l60 380h126l-60 -380h-126zM176 -110l60 380h126l-60 -380h-126z" />
    <glyph glyph-name="section" unicode="&#xa7;" 
d="M216 -155c-64 0 -113.832 14.002 -149.499 42.002s-53.167 66 -52.5 114h127c2.66699 -16.667 12.167 -30.334 28.5 -41.001s36.833 -16 61.5 -16h30c33.333 0 60.333 6.83301 81 20.5s32.667 31.5 36 53.5c3.33301 19.333 -1.16699 35.5 -13.5 48.5
s-33.166 22.5 -62.499 28.5l-90 20c-50.667 10.667 -89 30.5 -115 59.5s-35.667 63.167 -29 102.5c4 25.333 13.167 47.833 27.5 67.5s32.5 35.5 54.5 47.5s47.333 19.333 76 22l1 7c-19.333 2.66699 -38.5 9.66699 -57.5 21s-33.833 27.666 -44.5 48.999s-13.667 48 -9 80
c8.66699 52 34.334 93.167 77.001 123.5s98 45.5 166 45.5h30c62 0 110.167 -13.167 144.5 -39.5s50.833 -62.833 49.5 -109.5h-127c-1.33301 14 -9.33301 25.833 -24 35.5s-34 14.5 -58 14.5h-30c-30.667 0 -55 -6.16699 -73 -18.5s-28.667 -28.833 -32 -49.5
c-2.66699 -17.333 1.66602 -32.5 12.999 -45.5s29.666 -22.167 54.999 -27.5l95 -21c52 -12 90.667 -32.667 116 -62s34.666 -64.333 27.999 -105c-4 -25.333 -13 -48 -27 -68s-32.333 -35.833 -55 -47.5s-48.334 -18.167 -77.001 -19.5l-1 -7
c19.333 -2 38.833 -8.66699 58.5 -20s35.334 -27.833 47.001 -49.5s14.5 -49.5 8.5 -83.5c-8 -52.667 -34.333 -94.5 -79 -125.5s-103 -46.5 -175 -46.5h-30zM308.001 198.002c18.667 -4 36 -2.50098 52 4.49902s29.333 18.333 40 34s17.667 34.5 21 56.5
s-0.5 41.333 -11.5 58s-27.167 27.334 -48.5 32.001l-61 13c-17.333 4 -33.5 2.5 -48.5 -4.5s-27.5 -18.167 -37.5 -33.5s-16.667 -34 -20 -56c-4 -23.333 -1.16699 -43.5 8.5 -60.5s24.5 -27.167 44.5 -30.5z" />
    <glyph glyph-name="dieresis" unicode="&#xa8;" 
d="M475 642c-22 0 -38.668 6.5 -50.001 19.5s-15.333 30.5 -12 52.5c4 22 13.667 39.5 29 52.5s34 19.5 56 19.5c22.667 0 39.5 -6.5 50.5 -19.5s14.833 -30.5 11.5 -52.5s-12.666 -39.5 -27.999 -52.5s-34.333 -19.5 -57 -19.5zM239.999 642
c-22 0 -38.501 6.5 -49.501 19.5s-15.167 30.5 -12.5 52.5c4 22 13.667 39.5 29 52.5s34 19.5 56 19.5c22.667 0 39.667 -6.5 51 -19.5s15 -30.5 11 -52.5c-3.33301 -22 -12.666 -39.5 -27.999 -52.5s-34.333 -19.5 -57 -19.5z" />
    <glyph glyph-name="copyright" unicode="&#xa9;" 
d="M273 110c-50.667 0 -93.502 10 -128.502 30s-60.333 48 -76 84s-19.834 78 -12.501 126l24 150c8 48 25.333 90 52 126s60.834 64 102.501 84s87.834 30 138.501 30c51.333 0 94.5 -10 129.5 -30s60.333 -48 76 -84s19.5 -78 11.5 -126l-24 -150
c-7.33301 -48 -24.5 -90 -51.5 -126s-61.167 -64 -102.5 -84s-87.666 -30 -138.999 -30zM280.998 160c40 0 76.168 7.83301 108.501 23.5s59.166 37.834 80.499 66.501s35 62 41 100l24 150c6 38 3 71.167 -9 99.5s-31.833 50.5 -59.5 66.5s-61.5 24 -101.5 24
c-39.333 0 -75.333 -8 -108 -24s-59.667 -38.167 -81 -66.5s-35 -61.5 -41 -99.5l-24 -150c-6 -38 -2.83301 -71.333 9.5 -100s32.333 -50.834 60 -66.501s61.167 -23.5 100.5 -23.5zM299.999 245c-39.333 0 -69.166 11.167 -89.499 33.5s-27.833 51.5 -22.5 87.5l19 118
c6 36 22.667 65.167 50 87.5s60.666 33.5 99.999 33.5c38.667 0 68.167 -11.167 88.5 -33.5s27.833 -51.5 22.5 -87.5h-77c2.66699 16.667 -0.166016 29.834 -8.49902 39.501s-20.5 14.5 -36.5 14.5s-29.667 -4.83301 -41 -14.5s-18.333 -22.834 -21 -39.501l-19 -118
c-2.66699 -16 0.333008 -29 9 -39s21 -15 37 -15c15.333 0 28.666 5 39.999 15s18.333 23 21 39h77c-6 -36 -22.667 -65.167 -50 -87.5s-60.333 -33.5 -99 -33.5z" />
    <glyph glyph-name="ordfeminine" unicode="&#xaa;" 
d="M389 455l9.00098 54.999h-3l22 140c2 12 -1.33301 21.333 -10 28s-21 10 -37 10c-14.667 0 -27.334 -2.83301 -38.001 -8.5s-17.334 -13.167 -20.001 -22.5h-67c8 25.333 24 45.5 48 60.5s52.333 22.5 85 22.5c36.667 0 64.834 -8.16699 84.501 -24.5
s27.167 -38.166 22.5 -65.499l-31 -195h-65zM295.001 449.999c-29.333 0 -51.834 8.00293 -67.501 24.0029s-21.5 37 -17.5 63s17.333 46.833 40 62.5s51 23.5 85 23.5h89l-7 -46h-90c-13.333 0 -24.333 -3.33301 -33 -10s-14 -16.334 -16 -29.001
c-2 -12 1.16699 -21.667 9.5 -29s19.833 -11 34.5 -11c21.333 0 39.333 5.16699 54 15.5s23.334 24.166 26.001 41.499h11l-7 -45h-11c-10 -18.667 -23.833 -33.334 -41.5 -44.001s-37.167 -16 -58.5 -16z" />
    <glyph glyph-name="guillemotleft" unicode="&#xab;" 
d="M405 40l-141 240l218 240h139l-225 -245l140 -235h-131zM162 40l-141 240l218 240h139l-225 -245l140 -235h-131z" />
    <glyph glyph-name="logicalnot" unicode="&#xac;" 
d="M393 187l21 133h-337l18 115h460l-39 -248h-123z" />
    <glyph glyph-name="uni00AD" unicode="&#xad;" 
d="M130 272l19 116h337l-18 -116h-338z" />
    <glyph glyph-name="registered" unicode="&#xae;" 
d="M273 110c-50.667 0 -93.6709 10 -129.004 30s-60.666 48 -75.999 84s-19.333 78 -12 126l24 150c8 48 25.333 90 52 126s60.834 64 102.501 84s87.834 30 138.501 30c51.333 0 94.5 -10 129.5 -30s60.333 -48 76 -84s19.5 -78 11.5 -126l-24 -150
c-7.33301 -48 -24.5 -90 -51.5 -126s-61.167 -64 -102.5 -84s-87.666 -30 -138.999 -30zM280.996 160c40 0 76.168 7.83301 108.501 23.5s59.166 37.834 80.499 66.501s35 62 41 100l24 150c6 38 3 71.167 -9 99.5s-31.833 50.5 -59.5 66.5s-61.5 24 -101.5 24
c-39.333 0 -75.333 -8 -108 -24s-59.667 -38.167 -81 -66.5s-35 -61.5 -41 -99.5l-24 -150c-6 -38 -2.83301 -71.333 9.5 -100s32.333 -50.834 60 -66.501s61.167 -23.5 100.5 -23.5zM179.997 250l55.002 350.001h120c37.333 0 65.666 -9.83301 84.999 -29.5
s26.333 -45.834 21 -78.501c-4.66699 -28 -16.834 -51 -36.501 -69s-44.167 -29.333 -73.5 -34l26 43l52 -182h-74l-36 137h-46l-21 -137h-72zM281.999 446.001h49.001c15.333 0 28.166 4.5 38.499 13.5s16.5 20.833 18.5 35.5c3.33301 14.667 1 26.5 -7 35.5
s-19.667 13.5 -35 13.5h-48z" />
    <glyph glyph-name="macron" unicode="&#xaf;" 
d="M189 661l15 96h343l-14 -96h-344z" />
    <glyph glyph-name="degree" unicode="&#xb0;" 
d="M327 450c-44.667 0 -78.667 13.333 -102 40s-31.666 61.667 -24.999 105c7.33301 43.333 26.833 78.333 58.5 105s69.834 40 114.501 40c45.333 0 79.666 -13.333 102.999 -40s31.333 -61.667 24 -105c-6.66699 -43.333 -25.834 -78.333 -57.501 -105
s-70.167 -40 -115.5 -40zM336 509c24.667 0 45.668 8 63.001 24s28 36.667 32 62c4.66699 26 0.666992 46.833 -12 62.5s-31.334 23.5 -56.001 23.5c-24 0 -44.667 -7.83301 -62 -23.5s-28 -36.5 -32 -62.5c-4 -25.333 0.166992 -46 12.5 -62s30.5 -24 54.5 -24z" />
    <glyph glyph-name="plusminus" unicode="&#xb1;" 
d="M23 0l15 94h174l28 181h-178l17 115h179l29 180h124l-29 -180h179l-18 -115h-178l-29 -181h168l-15 -94h-466z" />
    <glyph glyph-name="uni00B2" unicode="&#xb2;" 
d="M178 405l15.998 93l187 119c14.667 8.66699 26.834 20.167 36.501 34.5s15.834 28.833 18.501 43.5c4 22 0.5 39.333 -10.5 52s-26.833 19 -47.5 19c-21.333 0 -39.333 -6.33301 -54 -19s-24 -30 -28 -52h-84c8 44 28 79.167 60 105.5s71 39.5 117 39.5
c47.333 0 83 -13 107 -39s32.333 -61 25 -105c-4.66699 -27.333 -16 -53 -34 -77s-42 -45 -72 -63l-128 -76h207l-11 -75h-305z" />
    <glyph glyph-name="uni00B3" unicode="&#xb3;" 
d="M303 395c-47.333 0 -83.3281 12.833 -107.995 38.5s-33.667 60.5 -27 104.5h84c-3.33301 -22 0.666992 -39 12 -51s28.333 -18 51 -18c21.333 0 39.166 6 53.499 18s23.5 29.333 27.5 52c3.33301 22 -0.333984 39.333 -11.001 52s-26.667 19 -48 19h-30l11 66l93 79h-178
l12 75h254l-13 -84l-131 -109l6 35c42 0 74.167 -12 96.5 -36s30.166 -56.333 23.499 -97c-6.66699 -44 -26.334 -79 -59.001 -105s-72.334 -39 -119.001 -39z" />
    <glyph glyph-name="acute" unicode="&#xb4;" 
d="M249 645l128 140h140l-137 -140h-131z" />
    <glyph glyph-name="uni00B5" unicode="&#xb5;" 
d="M2 -180l115.999 730h125l-54 -344c-5.33301 -34.667 -1.5 -61.167 11.5 -79.5s36.5 -27.5 70.5 -27.5s60.667 9.16699 80 27.5s31.666 44.833 36.999 79.5l55 344h125l-55 -344c-10.667 -67.333 -37.834 -120.166 -81.501 -158.499s-98.5 -57.5 -164.5 -57.5
c-30.667 0 -56 4.66699 -76 14s-34.833 20.666 -44.5 33.999s-15.5 26 -17.5 38h-7c0.666992 0 1.83398 -5 3.50098 -15s3.33398 -22 5.00098 -36s1.83398 -26.667 0.500977 -38l-10 -167h-119z" />
    <glyph glyph-name="paragraph" unicode="&#xb6;" 
d="M173 -180l78 490c-56.667 0 -100 15.667 -130 47s-41 72.333 -33 123l13 80c5.33301 34 18 63.833 38 89.5s45.333 45.5 76 59.5s65 21 103 21h98l-145 -910h-98zM349 -180l145 910h98l-145 -910h-98z" />
    <glyph glyph-name="periodcentered" unicode="&#xb7;" 
d="M254 255c-28.667 0 -50.001 8.33301 -64.001 25s-19 39.334 -15 68.001c4.66699 28.667 16.834 51.5 36.501 68.5s43.834 25.5 72.501 25.5s50 -8.5 64 -25.5s18.667 -39.833 14 -68.5c-4 -28.667 -15.833 -51.334 -35.5 -68.001s-43.834 -25 -72.501 -25z" />
    <glyph glyph-name="cedilla" unicode="&#xb8;" 
d="M118 -216l9.99707 63.999h76c16 0 29.5 3.83301 40.5 11.5s16.833 15.834 17.5 24.501c2.66699 13.333 -5.16602 24.5 -23.499 33.5s-45.166 13.5 -80.499 13.5l50 89h66l-29 -57c18.667 -2 37.834 -6.33301 57.501 -13s35.5 -16.5 47.5 -29.5s16.333 -29.167 13 -48.5
c-3.33301 -23.333 -18.5 -43.833 -45.5 -61.5s-60.167 -26.5 -99.5 -26.5h-100z" />
    <glyph glyph-name="uni00B9" unicode="&#xb9;" 
d="M169 405l12 76h133l43 274l-137 -88l14 90l109 73h110l-55 -349h103l-12 -76h-320z" />
    <glyph glyph-name="ordmasculine" unicode="&#xba;" 
d="M327 448c-38.667 0 -67.667 10.667 -87 32s-26.666 48.666 -21.999 81.999l10 62c6 34 22 61.5 48 82.5s58.333 31.5 97 31.5c38 0 67 -10.5 87 -31.5s27.333 -48.5 22 -82.5l-11 -62c-4.66699 -33.333 -20.334 -60.666 -47.001 -81.999s-59 -32 -97 -32zM336 505
c18 0 33.165 5.33301 45.498 16s19.833 24.334 22.5 41.001l10 62c2.66699 17.333 -0.666016 31 -9.99902 41s-22.666 15 -39.999 15c-18 0 -33.167 -5 -45.5 -15s-19.833 -23.667 -22.5 -41l-10 -62c-2.66699 -16.667 0.5 -30.334 9.5 -41.001s22.5 -16 40.5 -16z" />
    <glyph glyph-name="guillemotright" unicode="&#xbb;" 
d="M222 40l223 247l-138 233h131l141 -240l-218 -240h-139zM-21 40l223 247l-138 233h131l141 -240l-218 -240h-139z" />
    <glyph glyph-name="onequarter" unicode="&#xbc;" 
d="M54 404l10 65h116l33 208c-4 -5.33301 -10 -12 -18 -20s-16.333 -15 -25 -21l-70 -50l14 87l82 56h103l-41 -260h93l-11 -65h-286zM424 0l10 64h-169l14 92l153 169h86l-163 -183l-3 -16h92l12 81h78l-33 -207h-77zM34 0l481 730h79l-481 -730h-79z" />
    <glyph glyph-name="onehalf" unicode="&#xbd;" 
d="M268 0l12.001 79l146 75c37.333 20 57.666 41.333 60.999 64c2.66699 15.333 -0.166016 27.5 -8.49902 36.5s-20.166 13.5 -35.499 13.5c-16.667 0 -30.834 -4.66699 -42.501 -14s-18.5 -22 -20.5 -38h-78c6 34 23 61.5 51 82.5s61.333 31.5 100 31.5
c38 0 67.5 -9.66699 88.5 -29s28.833 -45.333 23.5 -78c-3.33301 -22 -14.333 -42.667 -33 -62s-44.667 -37 -78 -53l-78 -40l-2 -10c7.33301 1.33301 17.666 2.83301 30.999 4.5s25.333 2.5 36 2.5h104l-10 -65h-267zM54.001 405l10 65h116l33 208
c-4 -6 -10 -12.833 -18 -20.5s-16.333 -14.5 -25 -20.5l-69 -50l13 86l83 57h102l-41 -260h97l-11 -65h-290zM34.001 0l481 730h79l-481 -730h-79z" />
    <glyph glyph-name="threequarters" unicode="&#xbe;" 
d="M424 0l10 64h-169l14 92l153 169h86l-163 -183l-3 -16h92l12 81h78l-33 -207h-77zM174 400c-40.667 0 -71.501 9.66895 -92.501 29.002s-29.167 44.666 -24.5 75.999h77c-2 -13.333 1.5 -23.833 10.5 -31.5s21.833 -11.5 38.5 -11.5s30.667 4.16699 42 12.5
s18.333 19.5 21 33.5c2 14 -1.33301 25.167 -10 33.5s-21 12.5 -37 12.5h-30l11 62l78 55h-151l10 59h226l-9 -59l-116 -80l4 19c35.333 0 62.333 -9.33301 81 -28s25.334 -43.334 20.001 -74.001c-4.66699 -32 -20.667 -58 -48 -78s-61 -30 -101 -30zM33.999 0.00195312
l481 730h79l-481 -730h-79z" />
    <glyph glyph-name="questiondown" unicode="&#xbf;" 
d="M263 -170c-48.667 0 -89.6699 8.66699 -123.003 26s-57.666 41.833 -72.999 73.5s-19.666 68.5 -12.999 110.5c6.66699 40 20.834 75 42.501 105s49 53.667 82 71s69.5 26.333 109.5 27l14 90h110l-29 -200h-79c-34 0 -62 -8.16699 -84 -24.5
s-35.333 -39.166 -40 -68.499c-4.66699 -28.667 1.5 -51.334 18.5 -68.001s42.833 -25 77.5 -25h148l-18 -117h-143zM361.997 423c-21.333 0 -37.499 6.16699 -48.499 18.5s-15.167 28.5 -12.5 48.5c3.33301 20 12.5 35.833 27.5 47.5s33.167 17.5 54.5 17.5h25
c21.333 0 37.666 -5.83301 48.999 -17.5s15.333 -27.5 12 -47.5s-12.333 -36.167 -27 -48.5s-32.667 -18.5 -54 -18.5h-26z" />
    <glyph glyph-name="Agrave" unicode="&#xc0;" 
d="M-9 0l300 730h161l69 -730h-124l-12 177h-194l-68 -177h-132zM229 279h149l-13 196l-5.5 88.5c-1.66699 26.333 -2.5 45.5 -2.5 57.5l-19.5 -57.5c-9 -26.333 -19.5 -55.5 -31.5 -87.5zM336 810l-94 140h132l85 -140h-123z" />
    <glyph glyph-name="Aacute" unicode="&#xc1;" 
d="M-9 0l300 730h161l69 -730h-124l-12 177h-194l-68 -177h-132zM229 279h149l-13 196l-5.5 88.5c-1.66699 26.333 -2.5 45.5 -2.5 57.5l-19.5 -57.5c-9 -26.333 -19.5 -55.5 -31.5 -87.5zM305 810l128 140h140l-137 -140h-131z" />
    <glyph glyph-name="Acircumflex" unicode="&#xc2;" 
d="M-9 0l300 730h161l69 -730h-124l-12 177h-194l-68 -177h-132zM229 279h149l-13 196l-5.5 88.5c-1.66699 26.333 -2.5 45.5 -2.5 57.5l-19.5 -57.5c-9 -26.333 -19.5 -55.5 -31.5 -87.5zM189 810l159 140h116l115 -140h-117l-65 73l-84 -73h-124z" />
    <glyph glyph-name="Atilde" unicode="&#xc3;" 
d="M-9 0l300 730h161l69 -730h-124l-12 177h-194l-68 -177h-132zM229 279h149l-13 196l-5.5 88.5c-1.66699 26.333 -2.5 45.5 -2.5 57.5l-19.5 -57.5c-9 -26.333 -19.5 -55.5 -31.5 -87.5zM454 806c-20.667 0 -36.998 3.16797 -48.998 9.50098s-21.667 13.833 -29 22.5
s-14.5 16.167 -21.5 22.5s-15.5 9.5 -25.5 9.5c-8.66699 0 -16.334 -2.83301 -23.001 -8.5s-10.667 -13.834 -12 -24.501l-5 -26h-76l5 33c5.33301 32.667 19 59.167 41 79.5s48 30.5 78 30.5c20.667 0 37 -3.16699 49 -9.5s21.667 -13.833 29 -22.5
s14.5 -16.167 21.5 -22.5s15.5 -9.5 25.5 -9.5c9.33301 0 17 2.5 23 7.5s10 12.833 12 23.5l4 28h77l-5 -33c-5.33301 -32.667 -18.833 -59.167 -40.5 -79.5s-47.834 -30.5 -78.501 -30.5z" />
    <glyph glyph-name="Adieresis" unicode="&#xc4;" 
d="M-9 0l300 730h161l69 -730h-124l-12 177h-194l-68 -177h-132zM229 279h149l-13 196l-5.5 88.5c-1.66699 26.333 -2.5 45.5 -2.5 57.5l-19.5 -57.5c-9 -26.333 -19.5 -55.5 -31.5 -87.5zM501 808c-22 0 -38.668 6.5 -50.001 19.5s-15.333 30.5 -12 52.5
c4 22.667 13.667 40.5 29 53.5s34.333 19.5 57 19.5c22 0 38.5 -6.5 49.5 -19.5s14.833 -30.833 11.5 -53.5c-3.33301 -22 -12.666 -39.5 -27.999 -52.5s-34.333 -19.5 -57 -19.5zM265.999 808c-22 0 -38.501 6.5 -49.501 19.5s-15.167 30.5 -12.5 52.5
c4 22.667 13.667 40.5 29 53.5s34.333 19.5 57 19.5c22 0 38.667 -6.5 50 -19.5s15 -30.833 11 -53.5c-3.33301 -22 -12.666 -39.5 -27.999 -52.5s-34.333 -19.5 -57 -19.5z" />
    <glyph glyph-name="Aring" unicode="&#xc5;" 
d="M-9 0l300 730h161l69 -730h-124l-12 177h-194l-68 -177h-132zM229 279h149l-13 196l-5.5 88.5c-1.66699 26.333 -2.5 45.5 -2.5 57.5l-19.5 -57.5c-9 -26.333 -19.5 -55.5 -31.5 -87.5zM376 758c-39.333 0 -69.332 11.167 -89.999 33.5s-28.334 51.833 -23.001 88.5
c6 36 22.833 65.333 50.5 88s61.167 34 100.5 34c40 0 70.167 -11.167 90.5 -33.5s27.833 -51.833 22.5 -88.5s-22 -66.167 -50 -88.5s-61.667 -33.5 -101 -33.5zM386.001 821c18 0 33.333 5.5 46 16.5s20.334 25.167 23.001 42.5c3.33301 18 0.333008 32.333 -9 43
s-23.333 16 -42 16c-17.333 0 -32.333 -5.33301 -45 -16s-20.667 -25 -24 -43c-2.66699 -17.333 0.666016 -31.5 9.99902 -42.5s23 -16.5 41 -16.5z" />
    <glyph glyph-name="AE" unicode="&#xc6;" 
d="M-32 0l257 730h423l-17 -107h-172l-30 -194h146l-18 -110h-146l-34 -211h172l-17 -108h-280l28 181h-130l-60 -181h-122zM181 273h114l55 350h-51z" />
    <glyph glyph-name="Ccedilla" unicode="&#xc7;" 
d="M126 -216l9.99707 63.999h76c16 0 29.5 3.83301 40.5 11.5s16.833 15.834 17.5 24.501c2.66699 13.333 -5.16602 24.5 -23.499 33.5s-45.166 13.5 -80.499 13.5l49 89h67l-29 -57c18.667 -2 37.834 -6.33301 57.501 -13s35.5 -16.5 47.5 -29.5s16.333 -29.167 13 -48.5
c-3.33301 -23.333 -18.5 -43.833 -45.5 -61.5s-60.5 -26.5 -100.5 -26.5h-99zM257.997 -10.001c-46.667 0 -86.167 8.83398 -118.5 26.501s-55.333 42.667 -69 75s-17.167 70.5 -10.5 114.5l50 318c7.33301 44.667 23.166 83 47.499 115s55.333 56.833 93 74.5
s79.834 26.5 126.501 26.5c47.333 0 86.666 -8.83301 117.999 -26.5s54.166 -42.667 68.499 -75s17.833 -70.5 10.5 -114.5h-125c6 34.667 1.16699 61 -14.5 79s-40.5 27 -74.5 27s-61.833 -9 -83.5 -27s-35.167 -44 -40.5 -78l-51 -319c-5.33301 -34 0 -60.167 16 -78.5
s41 -27.5 75 -27.5c33.333 0 60.833 9.16699 82.5 27.5s35.167 44.5 40.5 78.5h125c-6.66699 -43.333 -22.167 -81.333 -46.5 -114s-55.166 -57.834 -92.499 -75.501s-79.666 -26.5 -126.999 -26.5z" />
    <glyph glyph-name="Egrave" unicode="&#xc8;" 
d="M44 0l116 730h438l-18 -109h-314l-31 -190h280l-17 -108h-280l-34 -214h315l-17 -109h-438zM356 810l-94 140h132l85 -140h-123z" />
    <glyph glyph-name="Eacute" unicode="&#xc9;" 
d="M44 0l116 730h438l-18 -109h-314l-31 -190h280l-17 -108h-280l-34 -214h315l-17 -109h-438zM325 810l128 140h140l-137 -140h-131z" />
    <glyph glyph-name="Ecircumflex" unicode="&#xca;" 
d="M44 0l116 730h438l-18 -109h-314l-31 -190h280l-17 -108h-280l-34 -214h315l-17 -109h-438zM209 810l159 140h116l115 -140h-117l-65 73l-84 -73h-124z" />
    <glyph glyph-name="Edieresis" unicode="&#xcb;" 
d="M44 0l116 730h438l-18 -109h-314l-31 -190h280l-17 -108h-280l-34 -214h315l-17 -109h-438zM521 808c-22 0 -38.668 6.5 -50.001 19.5s-15.333 30.5 -12 52.5c4 22.667 13.667 40.5 29 53.5s34.333 19.5 57 19.5c22 0 38.5 -6.5 49.5 -19.5s14.833 -30.833 11.5 -53.5
c-3.33301 -22 -12.666 -39.5 -27.999 -52.5s-34.333 -19.5 -57 -19.5zM285.999 808c-22 0 -38.501 6.5 -49.501 19.5s-15.167 30.5 -12.5 52.5c4 22.667 13.667 40.5 29 53.5s34.333 19.5 57 19.5c22 0 38.667 -6.5 50 -19.5s15 -30.833 11 -53.5
c-3.33301 -22 -12.666 -39.5 -27.999 -52.5s-34.333 -19.5 -57 -19.5z" />
    <glyph glyph-name="Igrave" unicode="&#xcc;" 
d="M46 0l18 110h147l80 510h-146l17 110h420l-18 -110h-147l-80 -510h146l-17 -110h-420zM336 810l-94 140h132l85 -140h-123z" />
    <glyph glyph-name="Iacute" unicode="&#xcd;" 
d="M46 0l18 110h147l80 510h-146l17 110h420l-18 -110h-147l-80 -510h146l-17 -110h-420zM305 810l128 140h140l-137 -140h-131z" />
    <glyph glyph-name="Icircumflex" unicode="&#xce;" 
d="M46 0l18 110h147l80 510h-146l17 110h420l-18 -110h-147l-80 -510h146l-17 -110h-420zM189 810l159 140h116l115 -140h-117l-65 73l-84 -73h-124z" />
    <glyph glyph-name="Idieresis" unicode="&#xcf;" 
d="M46 0l18 110h147l80 510h-146l17 110h420l-18 -110h-147l-80 -510h146l-17 -110h-420zM501 808c-22 0 -38.668 6.5 -50.001 19.5s-15.333 30.5 -12 52.5c4 22.667 13.667 40.5 29 53.5s34.333 19.5 57 19.5c22 0 38.5 -6.5 49.5 -19.5s14.833 -30.833 11.5 -53.5
c-3.33301 -22 -12.666 -39.5 -27.999 -52.5s-34.333 -19.5 -57 -19.5zM265.999 808c-22 0 -38.501 6.5 -49.501 19.5s-15.167 30.5 -12.5 52.5c4 22.667 13.667 40.5 29 53.5s34.333 19.5 57 19.5c22 0 38.667 -6.5 50 -19.5s15 -30.833 11 -53.5
c-3.33301 -22 -12.666 -39.5 -27.999 -52.5s-34.333 -19.5 -57 -19.5z" />
    <glyph glyph-name="Eth" unicode="&#xd0;" 
d="M10 329v87h280v-87h-280zM31 0l115.999 730h217c49.333 0 90.666 -9.33301 123.999 -28s57.333 -45 72 -79s18.334 -74.333 11.001 -121l-43 -273c-7.33301 -46 -23.833 -86.167 -49.5 -120.5s-58.167 -61 -97.5 -80s-83.666 -28.5 -132.999 -28.5h-217zM173.999 115
l92.001 0.000976562c36.667 0 67.167 10.167 91.5 30.5s39.166 48.166 44.499 83.499l44 273c5.33301 34.667 -1 62.167 -19 82.5s-45.333 30.5 -82 30.5h-92z" />
    <glyph glyph-name="Ntilde" unicode="&#xd1;" 
d="M28 0l116.001 729.999h151l111 -590c2 21.333 4.16699 46.5 6.5 75.5s5.16602 58.667 8.49902 89s6.66602 56.833 9.99902 79.5l55 346h114l-116 -730h-151l-110 590c-1.33301 -19.333 -3.16602 -42.666 -5.49902 -69.999s-5 -55.333 -8 -84s-6.5 -55 -10.5 -79l-57 -357
h-114zM454.001 805.999c-20.667 0 -36.998 3.16797 -48.998 9.50098s-21.667 13.833 -29 22.5s-14.5 16.167 -21.5 22.5s-15.5 9.5 -25.5 9.5c-8.66699 0 -16.334 -2.83301 -23.001 -8.5s-10.667 -13.834 -12 -24.501l-5 -26h-76l5 33c5.33301 32.667 19 59.167 41 79.5
s48 30.5 78 30.5c20.667 0 37 -3.16699 49 -9.5s21.667 -13.833 29 -22.5s14.5 -16.167 21.5 -22.5s15.5 -9.5 25.5 -9.5c9.33301 0 17 2.5 23 7.5s10 12.833 12 23.5l4 28h77l-5 -33c-5.33301 -32.667 -18.833 -59.167 -40.5 -79.5s-47.834 -30.5 -78.501 -30.5z" />
    <glyph glyph-name="Ograve" unicode="&#xd2;" 
d="M254 -10c-46.667 0 -85.667 8.83203 -117 26.499s-53.666 42.667 -66.999 75s-16.666 70.5 -9.99902 114.5l50 318c7.33301 44 22.833 82.167 46.5 114.5s54 57.333 91 75s78.833 26.5 125.5 26.5c47.333 0 86.666 -8.83301 117.999 -26.5s53.666 -42.667 66.999 -75
s16.333 -70.166 9 -113.499l-50 -319c-6.66699 -44 -22 -82.167 -46 -114.5s-54.333 -57.333 -91 -75s-78.667 -26.5 -126 -26.5zM272 99.999c33.333 0 60.3311 9.16699 80.998 27.5s33.667 44.5 39 78.5l50 318c6 34.667 1.66699 61 -13 79s-39 27 -73 27
s-61.167 -9 -81.5 -27s-33.166 -44.333 -38.499 -79l-51 -318c-5.33301 -34 -0.666016 -60.167 14.001 -78.5s39 -27.5 73 -27.5zM335.998 809.999l-94 140h132l85 -140h-123z" />
    <glyph glyph-name="Oacute" unicode="&#xd3;" 
d="M254 -10c-46.667 0 -85.667 8.83203 -117 26.499s-53.666 42.667 -66.999 75s-16.666 70.5 -9.99902 114.5l50 318c7.33301 44 22.833 82.167 46.5 114.5s54 57.333 91 75s78.833 26.5 125.5 26.5c47.333 0 86.666 -8.83301 117.999 -26.5s53.666 -42.667 66.999 -75
s16.333 -70.166 9 -113.499l-50 -319c-6.66699 -44 -22 -82.167 -46 -114.5s-54.333 -57.333 -91 -75s-78.667 -26.5 -126 -26.5zM272 99.999c33.333 0 60.3311 9.16699 80.998 27.5s33.667 44.5 39 78.5l50 318c6 34.667 1.66699 61 -13 79s-39 27 -73 27
s-61.167 -9 -81.5 -27s-33.166 -44.333 -38.499 -79l-51 -318c-5.33301 -34 -0.666016 -60.167 14.001 -78.5s39 -27.5 73 -27.5zM304.998 809.999l128 140h140l-137 -140h-131z" />
    <glyph glyph-name="Ocircumflex" unicode="&#xd4;" 
d="M254 -10c-46.667 0 -85.667 8.83203 -117 26.499s-53.666 42.667 -66.999 75s-16.666 70.5 -9.99902 114.5l50 318c7.33301 44 22.833 82.167 46.5 114.5s54 57.333 91 75s78.833 26.5 125.5 26.5c47.333 0 86.666 -8.83301 117.999 -26.5s53.666 -42.667 66.999 -75
s16.333 -70.166 9 -113.499l-50 -319c-6.66699 -44 -22 -82.167 -46 -114.5s-54.333 -57.333 -91 -75s-78.667 -26.5 -126 -26.5zM272 99.999c33.333 0 60.3311 9.16699 80.998 27.5s33.667 44.5 39 78.5l50 318c6 34.667 1.66699 61 -13 79s-39 27 -73 27
s-61.167 -9 -81.5 -27s-33.166 -44.333 -38.499 -79l-51 -318c-5.33301 -34 -0.666016 -60.167 14.001 -78.5s39 -27.5 73 -27.5zM188.998 809.999l159 140h116l115 -140h-117l-65 73l-84 -73h-124z" />
    <glyph glyph-name="Otilde" unicode="&#xd5;" 
d="M254 -10c-46.667 0 -85.667 8.83203 -117 26.499s-53.666 42.667 -66.999 75s-16.666 70.5 -9.99902 114.5l50 318c7.33301 44 22.833 82.167 46.5 114.5s54 57.333 91 75s78.833 26.5 125.5 26.5c47.333 0 86.666 -8.83301 117.999 -26.5s53.666 -42.667 66.999 -75
s16.333 -70.166 9 -113.499l-50 -319c-6.66699 -44 -22 -82.167 -46 -114.5s-54.333 -57.333 -91 -75s-78.667 -26.5 -126 -26.5zM272 99.999c33.333 0 60.3311 9.16699 80.998 27.5s33.667 44.5 39 78.5l50 318c6 34.667 1.66699 61 -13 79s-39 27 -73 27
s-61.167 -9 -81.5 -27s-33.166 -44.333 -38.499 -79l-51 -318c-5.33301 -34 -0.666016 -60.167 14.001 -78.5s39 -27.5 73 -27.5zM453.998 805.999c-20.667 0 -36.998 3.16797 -48.998 9.50098s-21.667 13.833 -29 22.5s-14.5 16.167 -21.5 22.5s-15.5 9.5 -25.5 9.5
c-8.66699 0 -16.334 -2.83301 -23.001 -8.5s-10.667 -13.834 -12 -24.501l-5 -26h-76l5 33c5.33301 32.667 19 59.167 41 79.5s48 30.5 78 30.5c20.667 0 37 -3.16699 49 -9.5s21.667 -13.833 29 -22.5s14.5 -16.167 21.5 -22.5s15.5 -9.5 25.5 -9.5
c9.33301 0 17 2.5 23 7.5s10 12.833 12 23.5l4 28h77l-5 -33c-5.33301 -32.667 -18.833 -59.167 -40.5 -79.5s-47.834 -30.5 -78.501 -30.5z" />
    <glyph glyph-name="Odieresis" unicode="&#xd6;" 
d="M254 -10c-46.667 0 -85.667 8.83203 -117 26.499s-53.666 42.667 -66.999 75s-16.666 70.5 -9.99902 114.5l50 318c7.33301 44 22.833 82.167 46.5 114.5s54 57.333 91 75s78.833 26.5 125.5 26.5c47.333 0 86.666 -8.83301 117.999 -26.5s53.666 -42.667 66.999 -75
s16.333 -70.166 9 -113.499l-50 -319c-6.66699 -44 -22 -82.167 -46 -114.5s-54.333 -57.333 -91 -75s-78.667 -26.5 -126 -26.5zM272 99.999c33.333 0 60.3311 9.16699 80.998 27.5s33.667 44.5 39 78.5l50 318c6 34.667 1.66699 61 -13 79s-39 27 -73 27
s-61.167 -9 -81.5 -27s-33.166 -44.333 -38.499 -79l-51 -318c-5.33301 -34 -0.666016 -60.167 14.001 -78.5s39 -27.5 73 -27.5zM500.998 807.999c-22 0 -38.668 6.5 -50.001 19.5s-15.333 30.5 -12 52.5c4 22.667 13.667 40.5 29 53.5s34.333 19.5 57 19.5
c22 0 38.5 -6.5 49.5 -19.5s14.833 -30.833 11.5 -53.5c-3.33301 -22 -12.666 -39.5 -27.999 -52.5s-34.333 -19.5 -57 -19.5zM265.997 807.999c-22 0 -38.501 6.5 -49.501 19.5s-15.167 30.5 -12.5 52.5c4 22.667 13.667 40.5 29 53.5s34.333 19.5 57 19.5
c22 0 38.667 -6.5 50 -19.5s15 -30.833 11 -53.5c-3.33301 -22 -12.666 -39.5 -27.999 -52.5s-34.333 -19.5 -57 -19.5z" />
    <glyph glyph-name="multiply" unicode="&#xd7;" 
d="M146 115l-71 83l149 128l-107 130l92 80l109 -129l151 131l70 -84l-151 -129l108 -130l-92 -80l-109 130z" />
    <glyph glyph-name="Oslash" unicode="&#xd8;" 
d="M-27 -40l574 790h105l-574 -790h-105zM254 -10c-46.667 0 -85.6699 8.83203 -117.003 26.499s-53.666 42.667 -66.999 75s-16.666 70.5 -9.99902 114.5l50 318c7.33301 44 22.833 82.167 46.5 114.5s54 57.333 91 75s78.833 26.5 125.5 26.5
c47.333 0 86.5 -8.83301 117.5 -26.5s53.333 -42.667 67 -75s16.834 -70.166 9.50098 -113.499l-50 -319c-6.66699 -44 -22 -82.167 -46 -114.5s-54.333 -57.333 -91 -75s-78.667 -26.5 -126 -26.5zM271.997 99.999c34 0 61.666 9.16699 82.999 27.5
s34.666 44.5 39.999 78.5l50 318c6 34.667 1.16699 61 -14.5 79s-40.5 27 -74.5 27s-61.667 -9 -83 -27s-34.666 -44.333 -39.999 -79l-51 -318c-5.33301 -34 -0.166016 -60.167 15.501 -78.5s40.5 -27.5 74.5 -27.5z" />
    <glyph glyph-name="Ugrave" unicode="&#xd9;" 
d="M254 -10c-71.333 0 -123.835 19.5 -157.502 58.5s-45.167 92.167 -34.5 159.5l82 522h126l-83 -521c-6 -34.667 -1.83301 -61.667 12.5 -81s38.5 -29 72.5 -29c32.667 0 59.334 9.66699 80.001 29s34 46.333 40 81l82 521h126l-83 -522
c-7.33301 -44.667 -22.666 -83.5 -45.999 -116.5s-53.333 -58.167 -90 -75.5s-79 -26 -127 -26zM335.998 810l-94 140h132l85 -140h-123z" />
    <glyph glyph-name="Uacute" unicode="&#xda;" 
d="M254 -10c-71.333 0 -123.835 19.5 -157.502 58.5s-45.167 92.167 -34.5 159.5l82 522h126l-83 -521c-6 -34.667 -1.83301 -61.667 12.5 -81s38.5 -29 72.5 -29c32.667 0 59.334 9.66699 80.001 29s34 46.333 40 81l82 521h126l-83 -522
c-7.33301 -44.667 -22.666 -83.5 -45.999 -116.5s-53.333 -58.167 -90 -75.5s-79 -26 -127 -26zM304.998 810l128 140h140l-137 -140h-131z" />
    <glyph glyph-name="Ucircumflex" unicode="&#xdb;" 
d="M254 -10c-71.333 0 -123.835 19.5 -157.502 58.5s-45.167 92.167 -34.5 159.5l82 522h126l-83 -521c-6 -34.667 -1.83301 -61.667 12.5 -81s38.5 -29 72.5 -29c32.667 0 59.334 9.66699 80.001 29s34 46.333 40 81l82 521h126l-83 -522
c-7.33301 -44.667 -22.666 -83.5 -45.999 -116.5s-53.333 -58.167 -90 -75.5s-79 -26 -127 -26zM188.998 810l159 140h116l115 -140h-117l-65 73l-84 -73h-124z" />
    <glyph glyph-name="Udieresis" unicode="&#xdc;" 
d="M254 -10c-71.333 0 -123.835 19.5 -157.502 58.5s-45.167 92.167 -34.5 159.5l82 522h126l-83 -521c-6 -34.667 -1.83301 -61.667 12.5 -81s38.5 -29 72.5 -29c32.667 0 59.334 9.66699 80.001 29s34 46.333 40 81l82 521h126l-83 -522
c-7.33301 -44.667 -22.666 -83.5 -45.999 -116.5s-53.333 -58.167 -90 -75.5s-79 -26 -127 -26zM500.998 808c-22 0 -38.668 6.5 -50.001 19.5s-15.333 30.5 -12 52.5c4 22.667 13.667 40.5 29 53.5s34.333 19.5 57 19.5c22 0 38.5 -6.5 49.5 -19.5
s14.833 -30.833 11.5 -53.5c-3.33301 -22 -12.666 -39.5 -27.999 -52.5s-34.333 -19.5 -57 -19.5zM265.997 808c-22 0 -38.501 6.5 -49.501 19.5s-15.167 30.5 -12.5 52.5c4 22.667 13.667 40.5 29 53.5s34.333 19.5 57 19.5c22 0 38.667 -6.5 50 -19.5s15 -30.833 11 -53.5
c-3.33301 -22 -12.666 -39.5 -27.999 -52.5s-34.333 -19.5 -57 -19.5z" />
    <glyph glyph-name="Yacute" unicode="&#xdd;" 
d="M193 0l42.001 265l-140 465h128l73 -253c5.33301 -20 9.66602 -39.667 12.999 -59s5.33301 -34.333 6 -45c4 10.667 10.333 25.667 19 45s18.667 39 30 59l152 253h133l-289 -465l-41 -265h-126zM305.001 810l128 140h140l-137 -140h-131z" />
    <glyph glyph-name="Thorn" unicode="&#xde;" 
d="M34 0l116.001 730h125l-22 -141h133c69.333 0 121.166 -18.833 155.499 -56.5s46.5 -88.5 36.5 -152.5c-6.66699 -43.333 -21.667 -80.5 -45 -111.5s-53 -55 -89 -72s-77.333 -25.5 -124 -25.5h-133l-28 -171h-125zM203.001 278l118.999 -0.000976562
c36 0 65.333 9 88 27s36.334 43 41.001 75c5.33301 32.667 -0.5 57.834 -17.5 75.501s-43.167 26.5 -78.5 26.5h-120z" />
    <glyph glyph-name="germandbls" unicode="&#xdf;" 
d="M-132 -180l17 103.998h40c30 0 54 6.83301 72 20.5s29 33.167 33 58.5l83 520c6.66699 43.333 22 81.333 46 114s54.667 58 92 76s80 27 128 27c44.667 0 83 -7.83301 115 -23.5s55.5 -37.667 70.5 -66s19.167 -62.166 12.5 -101.499
c-5.33301 -34 -17.5 -63.667 -36.5 -89s-43.667 -44.833 -74 -58.5s-65.166 -20.5 -104.499 -20.5l3 15c40.667 0.666992 74.834 -6.66602 102.501 -21.999s47.667 -37.166 60 -65.499s15.5 -61.5 9.5 -99.5c-6.66699 -41.333 -22.334 -77.833 -47.001 -109.5
s-55.834 -56.167 -93.501 -73.5s-80.167 -26 -127.5 -26h-58l18 107h50c35.333 0 64.666 9.83301 87.999 29.5s37.666 46.5 42.999 80.5c6 33.333 0.166992 59.666 -17.5 78.999s-44.167 29 -79.5 29h-45l15 97h44c32 0 58.667 9.5 80 28.5s34.333 43.833 39 74.5
c5.33301 33.333 -0.166992 59.666 -16.5 78.999s-41.5 29 -75.5 29c-33.333 0 -61.166 -9.83301 -83.499 -29.5s-36.166 -46.5 -41.499 -80.5l-83 -523c-9.33301 -55.333 -34.833 -99.166 -76.5 -131.499s-94.5 -48.5 -158.5 -48.5h-43z" />
    <glyph glyph-name="agrave" unicode="&#xe0;" 
d="M208 -10c-55.333 0 -96.499 19.0039 -123.499 57.0039s-35.167 89 -24.5 153l23 149c7.33301 43.333 21 80.666 41 111.999s45 55.666 75 72.999s63.333 26 100 26c45.333 0 79.166 -12.833 101.499 -38.5s29.833 -60.834 22.5 -105.501l-23 29h28l14 105h125l-87 -550
h-123l17 105h-27l32 29c-7.33301 -44.667 -26.333 -79.834 -57 -105.501s-68.667 -38.5 -114 -38.5zM270.001 98.0039c31.333 0 57.3301 9.50195 77.9971 28.502s33.667 45.5 39 79.5l22 138c6 34 1.33301 60.5 -14 79.5s-38.666 28.5 -69.999 28.5
c-32 0 -58.167 -9.33301 -78.5 -28s-33.166 -45.334 -38.499 -80.001l-22 -138c-6 -34.667 -1.66699 -61.334 13 -80.001s38.334 -28 71.001 -28zM314.998 645.006l-94 140h132l85 -140h-123z" />
    <glyph glyph-name="aacute" unicode="&#xe1;" 
d="M208 -10c-55.333 0 -96.499 19.0039 -123.499 57.0039s-35.167 89 -24.5 153l23 149c7.33301 43.333 21 80.666 41 111.999s45 55.666 75 72.999s63.333 26 100 26c45.333 0 79.166 -12.833 101.499 -38.5s29.833 -60.834 22.5 -105.501l-23 29h28l14 105h125l-87 -550
h-123l17 105h-27l32 29c-7.33301 -44.667 -26.333 -79.834 -57 -105.501s-68.667 -38.5 -114 -38.5zM270.001 98.0039c31.333 0 57.3301 9.50195 77.9971 28.502s33.667 45.5 39 79.5l22 138c6 34 1.33301 60.5 -14 79.5s-38.666 28.5 -69.999 28.5
c-32 0 -58.167 -9.33301 -78.5 -28s-33.166 -45.334 -38.499 -80.001l-22 -138c-6 -34.667 -1.66699 -61.334 13 -80.001s38.334 -28 71.001 -28zM283.998 645.006l128 140h140l-137 -140h-131z" />
    <glyph glyph-name="acircumflex" unicode="&#xe2;" 
d="M208 -10c-55.333 0 -96.499 19.0039 -123.499 57.0039s-35.167 89 -24.5 153l23 149c7.33301 43.333 21 80.666 41 111.999s45 55.666 75 72.999s63.333 26 100 26c45.333 0 79.166 -12.833 101.499 -38.5s29.833 -60.834 22.5 -105.501l-23 29h28l14 105h125l-87 -550
h-123l17 105h-27l32 29c-7.33301 -44.667 -26.333 -79.834 -57 -105.501s-68.667 -38.5 -114 -38.5zM270.001 98.0039c31.333 0 57.3301 9.50195 77.9971 28.502s33.667 45.5 39 79.5l22 138c6 34 1.33301 60.5 -14 79.5s-38.666 28.5 -69.999 28.5
c-32 0 -58.167 -9.33301 -78.5 -28s-33.166 -45.334 -38.499 -80.001l-22 -138c-6 -34.667 -1.66699 -61.334 13 -80.001s38.334 -28 71.001 -28zM167.998 645.006l159 140h116l115 -140h-117l-65 73l-84 -73h-124z" />
    <glyph glyph-name="atilde" unicode="&#xe3;" 
d="M208 -10c-55.333 0 -96.499 19.0039 -123.499 57.0039s-35.167 89 -24.5 153l23 149c7.33301 43.333 21 80.666 41 111.999s45 55.666 75 72.999s63.333 26 100 26c45.333 0 79.166 -12.833 101.499 -38.5s29.833 -60.834 22.5 -105.501l-23 29h28l14 105h125l-87 -550
h-123l17 105h-27l32 29c-7.33301 -44.667 -26.333 -79.834 -57 -105.501s-68.667 -38.5 -114 -38.5zM270.001 98.0039c31.333 0 57.3301 9.50195 77.9971 28.502s33.667 45.5 39 79.5l22 138c6 34 1.33301 60.5 -14 79.5s-38.666 28.5 -69.999 28.5
c-32 0 -58.167 -9.33301 -78.5 -28s-33.166 -45.334 -38.499 -80.001l-22 -138c-6 -34.667 -1.66699 -61.334 13 -80.001s38.334 -28 71.001 -28zM432.998 641.006c-20.667 0 -36.9971 3.16797 -48.9971 9.50098s-21.667 13.833 -29 22.5s-14.5 16.167 -21.5 22.5
s-15.5 9.5 -25.5 9.5c-8.66699 0 -16.334 -2.83301 -23.001 -8.5s-11 -13.834 -13 -24.501l-4 -26h-76l5 33c5.33301 32.667 19 59.167 41 79.5s48 30.5 78 30.5c20.667 0 37 -3.16699 49 -9.5s21.5 -13.833 28.5 -22.5s14 -16.167 21 -22.5s15.5 -9.5 25.5 -9.5
c9.33301 0 17.166 2.5 23.499 7.5s10.5 12.833 12.5 23.5l4 28h77l-5 -33c-5.33301 -32.667 -18.833 -59.167 -40.5 -79.5s-47.834 -30.5 -78.501 -30.5z" />
    <glyph glyph-name="adieresis" unicode="&#xe4;" 
d="M208 -10c-55.333 0 -96.499 19.0039 -123.499 57.0039s-35.167 89 -24.5 153l23 149c7.33301 43.333 21 80.666 41 111.999s45 55.666 75 72.999s63.333 26 100 26c45.333 0 79.166 -12.833 101.499 -38.5s29.833 -60.834 22.5 -105.501l-23 29h28l14 105h125l-87 -550
h-123l17 105h-27l32 29c-7.33301 -44.667 -26.333 -79.834 -57 -105.501s-68.667 -38.5 -114 -38.5zM270.001 98.0039c31.333 0 57.3301 9.50195 77.9971 28.502s33.667 45.5 39 79.5l22 138c6 34 1.33301 60.5 -14 79.5s-38.666 28.5 -69.999 28.5
c-32 0 -58.167 -9.33301 -78.5 -28s-33.166 -45.334 -38.499 -80.001l-22 -138c-6 -34.667 -1.66699 -61.334 13 -80.001s38.334 -28 71.001 -28zM479.998 642.006c-22 0 -38.668 6.5 -50.001 19.5s-15.333 30.5 -12 52.5c4 22 13.667 39.5 29 52.5s34 19.5 56 19.5
c22.667 0 39.5 -6.5 50.5 -19.5s14.833 -30.5 11.5 -52.5s-12.666 -39.5 -27.999 -52.5s-34.333 -19.5 -57 -19.5zM244.997 642.006c-22 0 -38.501 6.5 -49.501 19.5s-15.167 30.5 -12.5 52.5c4 22 13.667 39.5 29 52.5s34 19.5 56 19.5c22.667 0 39.667 -6.5 51 -19.5
s15 -30.5 11 -52.5c-3.33301 -22 -12.666 -39.5 -27.999 -52.5s-34.333 -19.5 -57 -19.5z" />
    <glyph glyph-name="aring" unicode="&#xe5;" 
d="M208 -10c-55.333 0 -96.499 19.0039 -123.499 57.0039s-35.167 89 -24.5 153l23 149c7.33301 43.333 21 80.666 41 111.999s45 55.666 75 72.999s63.333 26 100 26c45.333 0 79.166 -12.833 101.499 -38.5s29.833 -60.834 22.5 -105.501l-23 29h28l14 105h125l-87 -550
h-123l17 105h-27l32 29c-7.33301 -44.667 -26.333 -79.834 -57 -105.501s-68.667 -38.5 -114 -38.5zM270.001 98.0039c31.333 0 57.3301 9.50195 77.9971 28.502s33.667 45.5 39 79.5l22 138c6 34 1.33301 60.5 -14 79.5s-38.666 28.5 -69.999 28.5
c-32 0 -58.167 -9.33301 -78.5 -28s-33.166 -45.334 -38.499 -80.001l-22 -138c-6 -34.667 -1.66699 -61.334 13 -80.001s38.334 -28 71.001 -28zM355.998 603.006c-39.333 0 -69.167 11.167 -89.5 33.5s-27.833 51.5 -22.5 87.5c5.33301 36.667 21.833 66.167 49.5 88.5
s61.5 33.5 101.5 33.5c39.333 0 69.333 -11.167 90 -33.5s28 -51.833 22 -88.5c-5.33301 -36 -21.833 -65.167 -49.5 -87.5s-61.5 -33.5 -101.5 -33.5zM366.997 666.006c18 0 33.333 5.33301 46 16s20.334 24.667 23.001 42c2.66699 18 -0.666016 32.333 -9.99902 43
s-23 16 -41 16s-33.333 -5.33301 -46 -16s-20.334 -25 -23.001 -43c-2.66699 -17.333 0.666016 -31.333 9.99902 -42s23 -16 41 -16z" />
    <glyph glyph-name="ae" unicode="&#xe6;" 
d="M125 -10c-40.667 0 -71.1719 13.333 -91.5049 40s-27.166 62 -20.499 106l8 54c6.66699 42 26.5 75.5 59.5 100.5s73.833 37.5 122.5 37.5h55l13 77c3.33301 22 1.33301 38.5 -6 49.5s-19.666 16.5 -36.999 16.5c-16.667 0 -30.834 -5.5 -42.501 -16.5
s-19.167 -26.5 -22.5 -46.5h-102c7.33301 46 26 82.833 56 110.5s66.333 41.5 109 41.5c25.333 0 45.666 -4.16699 60.999 -12.5s26.5 -18.5 33.5 -30.5s10.5 -23.333 10.5 -34h6c3.33301 10.667 10.333 22 21 34s24.834 22.167 42.501 30.5s39.167 12.5 64.5 12.5
c44 0 77 -14 99 -42s29 -65.333 21 -112l-24 -154h-214l-17 -108c-3.33301 -20 -0.833008 -35.833 7.5 -47.5s20.833 -17.5 37.5 -17.5c17.333 0 31.833 5 43.5 15s18.834 24 21.501 42h103c-6.66699 -43.333 -25.667 -78.5 -57 -105.5s-68.666 -40.5 -111.999 -40.5
c-25.333 0 -45.5 4.16699 -60.5 12.5s-25.833 18.5 -32.5 30.5s-10 23.333 -10 34h-7c-3.33301 -10.667 -10.666 -22 -21.999 -34s-26.666 -22.167 -45.999 -30.5s-43 -12.5 -71 -12.5zM163.995 79c17.333 0 31.835 5.83301 43.502 17.5s19.167 27.5 22.5 47.5l17 108h-55
c-17.333 0 -31.833 -5.5 -43.5 -16.5s-19.167 -26.167 -22.5 -45.5l-9 -54c-2.66699 -18 0.166016 -32 8.49902 -42s21.166 -15 38.499 -15zM358.997 328h111l13 78c2.66699 20.667 0 36.667 -8 48s-20.667 17 -38 17s-31.833 -5.83301 -43.5 -17.5
s-19.167 -27.5 -22.5 -47.5z" />
    <glyph glyph-name="ccedilla" unicode="&#xe7;" 
d="M121 -216l9.99805 63.999h76c16 0 29.5 3.83301 40.5 11.5s16.833 15.834 17.5 24.501c2.66699 13.333 -5.16602 24.5 -23.499 33.5s-44.833 13.5 -79.5 13.5l49 89h66l-29 -57c18.667 -2 37.834 -6.33301 57.501 -13s35.5 -16.5 47.5 -29.5s16.667 -29.167 14 -48.5
c-4 -23.333 -19.5 -43.833 -46.5 -61.5s-60.167 -26.5 -99.5 -26.5h-100zM256.998 -10.001c-46.667 0 -86.0039 8.83105 -118.004 26.498s-54.833 42.667 -68.5 75s-17.167 70.5 -10.5 114.5l22 138c7.33301 44.667 23 83 47 115s54.833 56.833 92.5 74.5
s79.834 26.5 126.501 26.5c69.333 0 121.833 -17.833 157.5 -53.5s49.834 -84.167 42.501 -145.5h-125c2 28.667 -5 50.834 -21 66.501s-39.667 23.5 -71 23.5c-34 0 -61.667 -9.16699 -83 -27.5s-34.666 -44.5 -39.999 -78.5l-23 -139
c-5.33301 -34 -0.166016 -60.333 15.501 -79s40.5 -28 74.5 -28c31.333 0 57.5 7.83301 78.5 23.5s34.833 37.834 41.5 66.501h126c-12.667 -61.333 -42.5 -109.833 -89.5 -145.5s-105.167 -53.5 -174.5 -53.5z" />
    <glyph glyph-name="egrave" unicode="&#xe8;" 
d="M255 -10c-46.667 0 -85.6699 9 -117.003 27s-53.833 43.167 -67.5 75.5s-17.167 70.166 -10.5 113.499l22 138c7.33301 43.333 23 81.166 47 113.499s54.5 57.5 91.5 75.5s78.833 27 125.5 27c46 0 84.667 -9 116 -27s53.833 -43.167 67.5 -75.5
s16.834 -70.166 9.50098 -113.499l-16 -99h-336l-7 -39c-5.33301 -38.667 -0.5 -67.834 14.5 -87.501s40.833 -29.5 77.5 -29.5c28 0 51.167 4.83301 69.5 14.5s31.166 23.834 38.499 42.501h124c-11.333 -31.333 -29.166 -58.666 -53.499 -81.999
s-53.166 -41.5 -86.499 -54.5s-69.666 -19.5 -108.999 -19.5zM413.997 315l5 30c6 38 1.66699 67.167 -13 87.5s-40 30.5 -76 30.5s-64.833 -10.333 -86.5 -31s-35.5 -50 -41.5 -88l-3 -21l226 2zM309.997 645l-94 140h132l85 -140h-123z" />
    <glyph glyph-name="eacute" unicode="&#xe9;" 
d="M255 -10c-46.667 0 -85.6699 9 -117.003 27s-53.833 43.167 -67.5 75.5s-17.167 70.166 -10.5 113.499l22 138c7.33301 43.333 23 81.166 47 113.499s54.5 57.5 91.5 75.5s78.833 27 125.5 27c46 0 84.667 -9 116 -27s53.833 -43.167 67.5 -75.5
s16.834 -70.166 9.50098 -113.499l-16 -99h-336l-7 -39c-5.33301 -38.667 -0.5 -67.834 14.5 -87.501s40.833 -29.5 77.5 -29.5c28 0 51.167 4.83301 69.5 14.5s31.166 23.834 38.499 42.501h124c-11.333 -31.333 -29.166 -58.666 -53.499 -81.999
s-53.166 -41.5 -86.499 -54.5s-69.666 -19.5 -108.999 -19.5zM413.997 315l5 30c6 38 1.66699 67.167 -13 87.5s-40 30.5 -76 30.5s-64.833 -10.333 -86.5 -31s-35.5 -50 -41.5 -88l-3 -21l226 2zM278.997 645l128 140h140l-137 -140h-131z" />
    <glyph glyph-name="ecircumflex" unicode="&#xea;" 
d="M255 -10c-46.667 0 -85.6699 9 -117.003 27s-53.833 43.167 -67.5 75.5s-17.167 70.166 -10.5 113.499l22 138c7.33301 43.333 23 81.166 47 113.499s54.5 57.5 91.5 75.5s78.833 27 125.5 27c46 0 84.667 -9 116 -27s53.833 -43.167 67.5 -75.5
s16.834 -70.166 9.50098 -113.499l-16 -99h-336l-7 -39c-5.33301 -38.667 -0.5 -67.834 14.5 -87.501s40.833 -29.5 77.5 -29.5c28 0 51.167 4.83301 69.5 14.5s31.166 23.834 38.499 42.501h124c-11.333 -31.333 -29.166 -58.666 -53.499 -81.999
s-53.166 -41.5 -86.499 -54.5s-69.666 -19.5 -108.999 -19.5zM413.997 315l5 30c6 38 1.66699 67.167 -13 87.5s-40 30.5 -76 30.5s-64.833 -10.333 -86.5 -31s-35.5 -50 -41.5 -88l-3 -21l226 2zM162.997 645l159 140h116l115 -140h-117l-65 73l-84 -73h-124z" />
    <glyph glyph-name="edieresis" unicode="&#xeb;" 
d="M255 -10c-46.667 0 -85.6699 9 -117.003 27s-53.833 43.167 -67.5 75.5s-17.167 70.166 -10.5 113.499l22 138c7.33301 43.333 23 81.166 47 113.499s54.5 57.5 91.5 75.5s78.833 27 125.5 27c46 0 84.667 -9 116 -27s53.833 -43.167 67.5 -75.5
s16.834 -70.166 9.50098 -113.499l-16 -99h-336l-7 -39c-5.33301 -38.667 -0.5 -67.834 14.5 -87.501s40.833 -29.5 77.5 -29.5c28 0 51.167 4.83301 69.5 14.5s31.166 23.834 38.499 42.501h124c-11.333 -31.333 -29.166 -58.666 -53.499 -81.999
s-53.166 -41.5 -86.499 -54.5s-69.666 -19.5 -108.999 -19.5zM413.997 315l5 30c6 38 1.66699 67.167 -13 87.5s-40 30.5 -76 30.5s-64.833 -10.333 -86.5 -31s-35.5 -50 -41.5 -88l-3 -21l226 2zM474.997 642c-22 0 -38.668 6.5 -50.001 19.5s-15.333 30.5 -12 52.5
c4 22 13.667 39.5 29 52.5s34 19.5 56 19.5c22.667 0 39.5 -6.5 50.5 -19.5s14.833 -30.5 11.5 -52.5s-12.666 -39.5 -27.999 -52.5s-34.333 -19.5 -57 -19.5zM239.996 642c-22 0 -38.501 6.5 -49.501 19.5s-15.167 30.5 -12.5 52.5c4 22 13.667 39.5 29 52.5
s34 19.5 56 19.5c22.667 0 39.667 -6.5 51 -19.5s15 -30.5 11 -52.5c-3.33301 -22 -12.666 -39.5 -27.999 -52.5s-34.333 -19.5 -57 -19.5z" />
    <glyph glyph-name="igrave" unicode="&#xec;" 
d="M30 0l18 114h192l52 323h-168l18 113h286l-68 -436h170l-18 -114h-482zM328 645l-94 140h132l85 -140h-123z" />
    <glyph glyph-name="iacute" unicode="&#xed;" 
d="M30 0l18 114h192l52 323h-168l18 113h286l-68 -436h170l-18 -114h-482zM297 645l128 140h140l-137 -140h-131z" />
    <glyph glyph-name="icircumflex" unicode="&#xee;" 
d="M30 0l18 114h192l52 323h-168l18 113h286l-68 -436h170l-18 -114h-482zM181 645l159 140h116l115 -140h-117l-65 73l-84 -73h-124z" />
    <glyph glyph-name="idieresis" unicode="&#xef;" 
d="M30 0l18 114h192l52 323h-168l18 113h286l-68 -436h170l-18 -114h-482zM493 642c-22 0 -38.668 6.5 -50.001 19.5s-15.333 30.5 -12 52.5c4 22 13.667 39.5 29 52.5s34 19.5 56 19.5c22.667 0 39.5 -6.5 50.5 -19.5s14.833 -30.5 11.5 -52.5s-12.666 -39.5 -27.999 -52.5
s-34.333 -19.5 -57 -19.5zM257.999 642c-22 0 -38.501 6.5 -49.501 19.5s-15.167 30.5 -12.5 52.5c4 22 13.667 39.5 29 52.5s34 19.5 56 19.5c22.667 0 39.667 -6.5 51 -19.5s15 -30.5 11 -52.5c-3.33301 -22 -12.666 -39.5 -27.999 -52.5s-34.333 -19.5 -57 -19.5z" />
    <glyph glyph-name="eth" unicode="&#xf0;" 
d="M255 -4c-49.333 0 -91.001 9.66699 -125.001 29s-58.5 46.333 -73.5 81s-19.167 75 -12.5 121c7.33301 44.667 22.166 83.5 44.499 116.5s50.5 58.667 84.5 77s71.667 27.5 113 27.5c21.333 0 40 -3.83301 56 -11.5s29.333 -16.834 40 -27.501
s18.334 -21.334 23.001 -32.001h9c0 4.66699 -3.5 15.667 -10.5 33s-20.167 42.333 -39.5 75l-45 78l-173 -64l14 96l114 43l-54 92h129l29 -51l175 63l-14 -96l-116 -42l51 -85c30 -48.667 50.5 -96.667 61.5 -144s12.833 -92.666 5.5 -135.999
c-7.33301 -49.333 -24.166 -92.166 -50.499 -128.499s-59.5 -64.5 -99.5 -84.5s-85.333 -30 -136 -30zM271.999 102c37.333 0 68.999 11.332 94.999 33.999s41.667 53 47 91c4.66699 24.667 3.33398 46.334 -3.99902 65.001s-19.333 33.167 -36 43.5s-37.667 15.5 -63 15.5
c-36.667 0 -67.834 -11.333 -93.501 -34s-41.834 -52.667 -48.501 -90c-5.33301 -38 1.33398 -68.333 20.001 -91s46.334 -34 83.001 -34z" />
    <glyph glyph-name="ntilde" unicode="&#xf1;" 
d="M33 0l87.002 550.002h122l-17 -105h34l-38 -29c7.33301 45.333 26.166 80.666 56.499 105.999s68.5 38 114.5 38c54 0 94.333 -18 121 -54s35 -84.333 25 -145l-57 -361h-125l55 348c5.33301 33.333 0.666016 59 -14.001 77s-37.334 27 -68.001 27
c-31.333 0 -57.166 -9.33301 -77.499 -28s-33.5 -45.334 -39.5 -80.001l-54 -344h-125zM428.002 641.002c-20.667 0 -36.9971 3.16797 -48.9971 9.50098s-21.667 13.833 -29 22.5s-14.5 16.167 -21.5 22.5s-15.5 9.5 -25.5 9.5c-8.66699 0 -16.334 -2.83301 -23.001 -8.5
s-11 -13.834 -13 -24.501l-4 -26h-76l5 33c5.33301 32.667 19 59.167 41 79.5s48 30.5 78 30.5c20.667 0 37 -3.16699 49 -9.5s21.5 -13.833 28.5 -22.5s14 -16.167 21 -22.5s15.5 -9.5 25.5 -9.5c9.33301 0 17.166 2.5 23.499 7.5s10.5 12.833 12.5 23.5l4 28h77l-5 -33
c-5.33301 -32.667 -18.833 -59.167 -40.5 -79.5s-47.834 -30.5 -78.501 -30.5z" />
    <glyph glyph-name="ograve" unicode="&#xf2;" 
d="M254 -10c-46.667 0 -85.6699 8.83203 -117.003 26.499s-53.666 42.667 -66.999 75s-16.666 70.5 -9.99902 114.5l22 138c7.33301 44 22.833 82.167 46.5 114.5s54 57.333 91 75s78.833 26.5 125.5 26.5c47.333 0 86.5 -8.83301 117.5 -26.5s53.333 -42.667 67 -75
s16.834 -70.166 9.50098 -113.499l-22 -139c-6.66699 -44 -22 -82.167 -46 -114.5s-54.333 -57.333 -91 -75s-78.667 -26.5 -126 -26.5zM271.997 98.999c33.333 0 60.335 9.16699 81.002 27.5s33.667 44.833 39 79.5l22 138c5.33301 34.667 0.666016 61.167 -14.001 79.5
s-39 27.5 -73 27.5c-32.667 0 -59.334 -9.16699 -80.001 -27.5s-34 -44.833 -40 -79.5l-22 -138c-5.33301 -34.667 -0.5 -61.167 14.5 -79.5s39.167 -27.5 72.5 -27.5zM309.999 644.999l-94 140h132l85 -140h-123z" />
    <glyph glyph-name="oacute" unicode="&#xf3;" 
d="M254 -10c-46.667 0 -85.6699 8.83203 -117.003 26.499s-53.666 42.667 -66.999 75s-16.666 70.5 -9.99902 114.5l22 138c7.33301 44 22.833 82.167 46.5 114.5s54 57.333 91 75s78.833 26.5 125.5 26.5c47.333 0 86.5 -8.83301 117.5 -26.5s53.333 -42.667 67 -75
s16.834 -70.166 9.50098 -113.499l-22 -139c-6.66699 -44 -22 -82.167 -46 -114.5s-54.333 -57.333 -91 -75s-78.667 -26.5 -126 -26.5zM271.997 98.999c33.333 0 60.335 9.16699 81.002 27.5s33.667 44.833 39 79.5l22 138c5.33301 34.667 0.666016 61.167 -14.001 79.5
s-39 27.5 -73 27.5c-32.667 0 -59.334 -9.16699 -80.001 -27.5s-34 -44.833 -40 -79.5l-22 -138c-5.33301 -34.667 -0.5 -61.167 14.5 -79.5s39.167 -27.5 72.5 -27.5zM278.999 644.999l128 140h140l-137 -140h-131z" />
    <glyph glyph-name="ocircumflex" unicode="&#xf4;" 
d="M254 -10c-46.667 0 -85.6699 8.83203 -117.003 26.499s-53.666 42.667 -66.999 75s-16.666 70.5 -9.99902 114.5l22 138c7.33301 44 22.833 82.167 46.5 114.5s54 57.333 91 75s78.833 26.5 125.5 26.5c47.333 0 86.5 -8.83301 117.5 -26.5s53.333 -42.667 67 -75
s16.834 -70.166 9.50098 -113.499l-22 -139c-6.66699 -44 -22 -82.167 -46 -114.5s-54.333 -57.333 -91 -75s-78.667 -26.5 -126 -26.5zM271.997 98.999c33.333 0 60.335 9.16699 81.002 27.5s33.667 44.833 39 79.5l22 138c5.33301 34.667 0.666016 61.167 -14.001 79.5
s-39 27.5 -73 27.5c-32.667 0 -59.334 -9.16699 -80.001 -27.5s-34 -44.833 -40 -79.5l-22 -138c-5.33301 -34.667 -0.5 -61.167 14.5 -79.5s39.167 -27.5 72.5 -27.5zM162.999 644.999l159 140h116l115 -140h-117l-65 73l-84 -73h-124z" />
    <glyph glyph-name="otilde" unicode="&#xf5;" 
d="M254 -10c-46.667 0 -85.6699 8.83203 -117.003 26.499s-53.666 42.667 -66.999 75s-16.666 70.5 -9.99902 114.5l22 138c7.33301 44 22.833 82.167 46.5 114.5s54 57.333 91 75s78.833 26.5 125.5 26.5c47.333 0 86.5 -8.83301 117.5 -26.5s53.333 -42.667 67 -75
s16.834 -70.166 9.50098 -113.499l-22 -139c-6.66699 -44 -22 -82.167 -46 -114.5s-54.333 -57.333 -91 -75s-78.667 -26.5 -126 -26.5zM271.997 98.999c33.333 0 60.335 9.16699 81.002 27.5s33.667 44.833 39 79.5l22 138c5.33301 34.667 0.666016 61.167 -14.001 79.5
s-39 27.5 -73 27.5c-32.667 0 -59.334 -9.16699 -80.001 -27.5s-34 -44.833 -40 -79.5l-22 -138c-5.33301 -34.667 -0.5 -61.167 14.5 -79.5s39.167 -27.5 72.5 -27.5zM427.999 640.999c-20.667 0 -36.9971 3.16797 -48.9971 9.50098s-21.667 13.833 -29 22.5
s-14.5 16.167 -21.5 22.5s-15.5 9.5 -25.5 9.5c-8.66699 0 -16.334 -2.83301 -23.001 -8.5s-11 -13.834 -13 -24.501l-4 -26h-76l5 33c5.33301 32.667 19 59.167 41 79.5s48 30.5 78 30.5c20.667 0 37 -3.16699 49 -9.5s21.5 -13.833 28.5 -22.5s14 -16.167 21 -22.5
s15.5 -9.5 25.5 -9.5c9.33301 0 17.166 2.5 23.499 7.5s10.5 12.833 12.5 23.5l4 28h77l-5 -33c-5.33301 -32.667 -18.833 -59.167 -40.5 -79.5s-47.834 -30.5 -78.501 -30.5z" />
    <glyph glyph-name="odieresis" unicode="&#xf6;" 
d="M254 -10c-46.667 0 -85.6699 8.83203 -117.003 26.499s-53.666 42.667 -66.999 75s-16.666 70.5 -9.99902 114.5l22 138c7.33301 44 22.833 82.167 46.5 114.5s54 57.333 91 75s78.833 26.5 125.5 26.5c47.333 0 86.5 -8.83301 117.5 -26.5s53.333 -42.667 67 -75
s16.834 -70.166 9.50098 -113.499l-22 -139c-6.66699 -44 -22 -82.167 -46 -114.5s-54.333 -57.333 -91 -75s-78.667 -26.5 -126 -26.5zM271.997 98.999c33.333 0 60.335 9.16699 81.002 27.5s33.667 44.833 39 79.5l22 138c5.33301 34.667 0.666016 61.167 -14.001 79.5
s-39 27.5 -73 27.5c-32.667 0 -59.334 -9.16699 -80.001 -27.5s-34 -44.833 -40 -79.5l-22 -138c-5.33301 -34.667 -0.5 -61.167 14.5 -79.5s39.167 -27.5 72.5 -27.5zM474.999 641.999c-22 0 -38.668 6.5 -50.001 19.5s-15.333 30.5 -12 52.5c4 22 13.667 39.5 29 52.5
s34 19.5 56 19.5c22.667 0 39.5 -6.5 50.5 -19.5s14.833 -30.5 11.5 -52.5s-12.666 -39.5 -27.999 -52.5s-34.333 -19.5 -57 -19.5zM239.998 641.999c-22 0 -38.501 6.5 -49.501 19.5s-15.167 30.5 -12.5 52.5c4 22 13.667 39.5 29 52.5s34 19.5 56 19.5
c22.667 0 39.667 -6.5 51 -19.5s15 -30.5 11 -52.5c-3.33301 -22 -12.666 -39.5 -27.999 -52.5s-34.333 -19.5 -57 -19.5z" />
    <glyph glyph-name="divide" unicode="&#xf7;" 
d="M99 275l18 113h400l-18 -113h-400zM254 70c-21.333 0 -37.499 6 -48.499 18s-14.833 28 -11.5 48s12.333 36 27 48s32.667 18 54 18h26c21.333 0 37.666 -6 48.999 -18s15.333 -28 12 -48s-12.5 -36 -27.5 -48s-33.167 -18 -54.5 -18h-26zM316.001 460
c-21.333 0 -37.5 6 -48.5 18s-15.167 27.667 -12.5 47c3.33301 20 12.5 36.167 27.5 48.5s33.167 18.5 54.5 18.5h26c21.333 0 37.5 -6.16699 48.5 -18.5s14.833 -28.5 11.5 -48.5c-3.33301 -19.333 -12.333 -35 -27 -47s-33 -18 -55 -18h-25z" />
    <glyph glyph-name="oslash" unicode="&#xf8;" 
d="M-20 -30l534 620h106l-534 -620h-106zM254 -10c-46.667 0 -85.667 8.83203 -117 26.499s-53.666 42.667 -66.999 75s-16.666 70.5 -9.99902 114.5l22 138c7.33301 44 22.833 82.167 46.5 114.5s54 57.333 91 75s78.833 26.5 125.5 26.5
c47.333 0 86.666 -8.83301 117.999 -26.5s53.666 -42.667 66.999 -75s16.333 -70.166 9 -113.499l-22 -139c-6.66699 -44 -22 -82.167 -46 -114.5s-54.333 -57.333 -91 -75s-78.667 -26.5 -126 -26.5zM272 98.999c34.667 0 63.334 9.5 86.001 28.5s36.667 45.167 42 78.5
l22 138c5.33301 33.333 -0.333984 59.5 -17.001 78.5s-42.667 28.5 -78 28.5c-34.667 0 -63.334 -9.5 -86.001 -28.5s-36.667 -45.167 -42 -78.5l-22 -138c-5.33301 -33.333 0.333984 -59.5 17.001 -78.5s42.667 -28.5 78 -28.5z" />
    <glyph glyph-name="ugrave" unicode="&#xf9;" 
d="M254 -10c-70 0 -121.83 19.502 -155.497 58.502s-45.167 92.167 -34.5 159.5l54 342h125l-54 -341c-5.33301 -35.333 -0.833008 -62.5 13.5 -81.5s37.166 -28.5 68.499 -28.5s57.5 9.5 78.5 28.5s34.167 46.167 39.5 81.5l54 341h125l-54 -342
c-6.66699 -44.667 -21.834 -83.334 -45.501 -116.001s-53.834 -57.834 -90.501 -75.501s-78 -26.5 -124 -26.5zM310.003 645.002l-94 140h132l85 -140h-123z" />
    <glyph glyph-name="uacute" unicode="&#xfa;" 
d="M254 -10c-70 0 -121.83 19.502 -155.497 58.502s-45.167 92.167 -34.5 159.5l54 342h125l-54 -341c-5.33301 -35.333 -0.833008 -62.5 13.5 -81.5s37.166 -28.5 68.499 -28.5s57.5 9.5 78.5 28.5s34.167 46.167 39.5 81.5l54 341h125l-54 -342
c-6.66699 -44.667 -21.834 -83.334 -45.501 -116.001s-53.834 -57.834 -90.501 -75.501s-78 -26.5 -124 -26.5zM279.003 645.002l128 140h140l-137 -140h-131z" />
    <glyph glyph-name="ucircumflex" unicode="&#xfb;" 
d="M254 -10c-70 0 -121.83 19.502 -155.497 58.502s-45.167 92.167 -34.5 159.5l54 342h125l-54 -341c-5.33301 -35.333 -0.833008 -62.5 13.5 -81.5s37.166 -28.5 68.499 -28.5s57.5 9.5 78.5 28.5s34.167 46.167 39.5 81.5l54 341h125l-54 -342
c-6.66699 -44.667 -21.834 -83.334 -45.501 -116.001s-53.834 -57.834 -90.501 -75.501s-78 -26.5 -124 -26.5zM163.003 645.002l159 140h116l115 -140h-117l-65 73l-84 -73h-124z" />
    <glyph glyph-name="udieresis" unicode="&#xfc;" 
d="M254 -10c-70 0 -121.83 19.502 -155.497 58.502s-45.167 92.167 -34.5 159.5l54 342h125l-54 -341c-5.33301 -35.333 -0.833008 -62.5 13.5 -81.5s37.166 -28.5 68.499 -28.5s57.5 9.5 78.5 28.5s34.167 46.167 39.5 81.5l54 341h125l-54 -342
c-6.66699 -44.667 -21.834 -83.334 -45.501 -116.001s-53.834 -57.834 -90.501 -75.501s-78 -26.5 -124 -26.5zM475.003 642.002c-22 0 -38.668 6.5 -50.001 19.5s-15.333 30.5 -12 52.5c4 22 13.667 39.5 29 52.5s34 19.5 56 19.5c22.667 0 39.5 -6.5 50.5 -19.5
s14.833 -30.5 11.5 -52.5s-12.666 -39.5 -27.999 -52.5s-34.333 -19.5 -57 -19.5zM240.002 642.002c-22 0 -38.501 6.5 -49.501 19.5s-15.167 30.5 -12.5 52.5c4 22 13.667 39.5 29 52.5s34 19.5 56 19.5c22.667 0 39.667 -6.5 51 -19.5s15 -30.5 11 -52.5
c-3.33301 -22 -12.666 -39.5 -27.999 -52.5s-34.333 -19.5 -57 -19.5z" />
    <glyph glyph-name="yacute" unicode="&#xfd;" 
d="M77 -180l15.999 103.999h163c28 0 50.333 6.83301 67 20.5s27 33.167 31 58.5l7 43l18 109h-34l38 29c-7.33301 -44.667 -26.166 -79.834 -56.499 -105.501s-68.5 -38.5 -114.5 -38.5c-54 0 -94.333 18 -121 54s-35.334 84.333 -26.001 145l50 311h125l-48 -298
c-5.33301 -33.333 -0.5 -59 14.5 -77s37.833 -27 68.5 -27s56.334 9.33301 77.001 28s33.667 45.334 39 80.001l47 294h125l-86 -550c-8.66699 -55.333 -34 -99.166 -76 -131.499s-95 -48.5 -159 -48.5h-165zM278.999 644.999l128 140h140l-137 -140h-131z" />
    <glyph glyph-name="thorn" unicode="&#xfe;" 
d="M2 -180l37 234h122l-37 -234h-122zM299 -10c-45.333 0 -79.332 12.832 -101.999 38.499s-30.334 60.834 -23.001 105.501l24 -29h-28l-17 -105h-122l116 730h125l-25 -154l-25 -131h29l-32 -29c6.66699 44.667 25.5 79.834 56.5 105.501s69.167 38.5 114.5 38.5
c55.333 0 96.333 -19 123 -57s35 -89.333 25 -154l-24 -149c-6.66699 -42.667 -20 -79.834 -40 -111.501s-45 -56 -75 -73s-63.333 -25.5 -100 -25.5zM272.001 97.999c32 0 58.334 9.33105 79.001 27.998s33.667 45.334 39 80.001l22 138
c5.33301 34.667 0.666016 61.334 -14.001 80.001s-38 28 -70 28c-31.333 0 -57.333 -9.5 -78 -28.5s-34 -45.5 -40 -79.5l-22 -138c-5.33301 -34 -0.5 -60.5 14.5 -79.5s38.167 -28.5 69.5 -28.5z" />
    <glyph glyph-name="ydieresis" unicode="&#xff;" 
d="M77 -180l15.999 103.999h163c28 0 50.333 6.83301 67 20.5s27 33.167 31 58.5l7 43l18 109h-34l38 29c-7.33301 -44.667 -26.166 -79.834 -56.499 -105.501s-68.5 -38.5 -114.5 -38.5c-54 0 -94.333 18 -121 54s-35.334 84.333 -26.001 145l50 311h125l-48 -298
c-5.33301 -33.333 -0.5 -59 14.5 -77s37.833 -27 68.5 -27s56.334 9.33301 77.001 28s33.667 45.334 39 80.001l47 294h125l-86 -550c-8.66699 -55.333 -34 -99.166 -76 -131.499s-95 -48.5 -159 -48.5h-165zM474.999 641.999c-22 0 -38.668 6.5 -50.001 19.5
s-15.333 30.5 -12 52.5c4 22 13.667 39.5 29 52.5s34 19.5 56 19.5c22.667 0 39.5 -6.5 50.5 -19.5s14.833 -30.5 11.5 -52.5s-12.666 -39.5 -27.999 -52.5s-34.333 -19.5 -57 -19.5zM239.998 641.999c-22 0 -38.501 6.5 -49.501 19.5s-15.167 30.5 -12.5 52.5
c4 22 13.667 39.5 29 52.5s34 19.5 56 19.5c22.667 0 39.667 -6.5 51 -19.5s15 -30.5 11 -52.5c-3.33301 -22 -12.666 -39.5 -27.999 -52.5s-34.333 -19.5 -57 -19.5z" />
    <glyph glyph-name="Amacron" unicode="&#x100;" 
d="M-9 0l300 730h161l69 -730h-124l-12 177h-194l-68 -177h-132zM229 279h149l-13 196l-5.5 88.5c-1.66699 26.333 -2.5 45.5 -2.5 57.5l-19.5 -57.5c-9 -26.333 -19.5 -55.5 -31.5 -87.5zM216 828l14 96h344l-15 -96h-343z" />
    <glyph glyph-name="amacron" unicode="&#x101;" 
d="M208 -10c-55.333 0 -96.499 19.0039 -123.499 57.0039s-35.167 89 -24.5 153l23 149c7.33301 43.333 21 80.666 41 111.999s45 55.666 75 72.999s63.333 26 100 26c45.333 0 79.166 -12.833 101.499 -38.5s29.833 -60.834 22.5 -105.501l-23 29h28l14 105h125l-87 -550
h-123l17 105h-27l32 29c-7.33301 -44.667 -26.333 -79.834 -57 -105.501s-68.667 -38.5 -114 -38.5zM270.001 98.0039c31.333 0 57.3301 9.50195 77.9971 28.502s33.667 45.5 39 79.5l22 138c6 34 1.33301 60.5 -14 79.5s-38.666 28.5 -69.999 28.5
c-32 0 -58.167 -9.33301 -78.5 -28s-33.166 -45.334 -38.499 -80.001l-22 -138c-6 -34.667 -1.66699 -61.334 13 -80.001s38.334 -28 71.001 -28zM193.998 661.006l15 96h343l-14 -96h-344z" />
    <glyph glyph-name="Abreve" unicode="&#x102;" 
d="M-9 0l300 730h161l69 -730h-124l-12 177h-194l-68 -177h-132zM229 279h149l-13 196l-5.5 88.5c-1.66699 26.333 -2.5 45.5 -2.5 57.5l-19.5 -57.5c-9 -26.333 -19.5 -55.5 -31.5 -87.5zM383 802c-52 0 -91.8301 13.667 -119.497 41s-38.167 63 -31.5 107h95
c-3.33301 -22 1 -39.667 13 -53s29.667 -20 53 -20s43.166 6.66699 59.499 20s26.166 31 29.499 53h99c-6.66699 -44 -28.334 -79.667 -65.001 -107s-81 -41 -133 -41z" />
    <glyph glyph-name="abreve" unicode="&#x103;" 
d="M208 -10c-55.333 0 -96.499 19.0039 -123.499 57.0039s-35.167 89 -24.5 153l23 149c7.33301 43.333 21 80.666 41 111.999s45 55.666 75 72.999s63.333 26 100 26c45.333 0 79.166 -12.833 101.499 -38.5s29.833 -60.834 22.5 -105.501l-23 29h28l14 105h125l-87 -550
h-123l17 105h-27l32 29c-7.33301 -44.667 -26.333 -79.834 -57 -105.501s-68.667 -38.5 -114 -38.5zM270.001 98.0039c31.333 0 57.3301 9.50195 77.9971 28.502s33.667 45.5 39 79.5l22 138c6 34 1.33301 60.5 -14 79.5s-38.666 28.5 -69.999 28.5
c-32 0 -58.167 -9.33301 -78.5 -28s-33.166 -45.334 -38.499 -80.001l-22 -138c-6 -34.667 -1.66699 -61.334 13 -80.001s38.334 -28 71.001 -28zM361.998 637.006c-52 0 -91.999 13.667 -119.999 41s-38.667 63 -32 107h96c-3.33301 -22 1 -39.667 13 -53
s29.667 -20 53 -20c24 0 44 6.66699 60 20s25.667 31 29 53h99c-6.66699 -44 -28.334 -79.667 -65.001 -107s-81 -41 -133 -41z" />
    <glyph glyph-name="Aogonek" unicode="&#x104;" 
d="M404 -216c-39.333 0 -68.9971 9.66699 -88.9971 29s-27.333 44 -22 74c3.33301 22 15.166 43.667 35.499 65s48.5 41 84.5 59h81l-27 -21c-18.667 -14.667 -33.334 -28.5 -44.001 -41.5s-16.667 -24.833 -18 -35.5c-2 -12 0.666992 -22.167 8 -30.5
s18.666 -12.5 33.999 -12.5h66l-14 -86h-95zM-8.99707 0l300 730h161l69 -730h-124l-12 177h-194l-68 -177h-132zM229.003 279h149l-13 196l-5.5 88.5c-1.66699 26.333 -2.5 45.5 -2.5 57.5l-19.5 -57.5c-9 -26.333 -19.5 -55.5 -31.5 -87.5z" />
    <glyph glyph-name="aogonek" unicode="&#x105;" 
d="M403 -216c-38.667 0 -67.998 9.66797 -87.998 29.001s-27.333 44 -22 74c3.33301 22 15.166 43.667 35.499 65s48.5 41 84.5 59l67 -11c-26 -20 -44.667 -36.833 -56 -50.5s-18 -25.834 -20 -36.501c-1.33301 -12 1.66699 -22.167 9 -30.5s18.666 -12.5 33.999 -12.5h65
l-13 -86h-96zM208.002 -9.99902c-55.333 0 -96.499 19.0039 -123.499 57.0039s-35.167 89 -24.5 153l23 149c7.33301 43.333 21 80.666 41 111.999s45 55.666 75 72.999s63.333 26 100 26c45.333 0 79.166 -12.833 101.499 -38.5s29.833 -60.834 22.5 -105.501l-23 29h28
l14 105h125l-87 -550h-123l17 105h-27l32 29c-7.33301 -44.667 -26.333 -79.834 -57 -105.501s-68.667 -38.5 -114 -38.5zM270.003 98.0049c31.333 0 57.3301 9.50195 77.9971 28.502s33.667 45.5 39 79.5l22 138c6 34 1.33301 60.5 -14 79.5s-38.666 28.5 -69.999 28.5
c-32 0 -58.167 -9.33301 -78.5 -28s-33.166 -45.334 -38.499 -80.001l-22 -138c-6 -34.667 -1.66699 -61.334 13 -80.001s38.334 -28 71.001 -28z" />
    <glyph glyph-name="Cacute" unicode="&#x106;" 
d="M258 -10c-46.667 0 -86.167 8.83398 -118.5 26.501s-55.333 42.667 -69 75s-17.167 70.5 -10.5 114.5l50 318c7.33301 44.667 23.166 83 47.499 115s55.333 56.833 93 74.5s79.834 26.5 126.501 26.5c47.333 0 86.666 -8.83301 117.999 -26.5s54.166 -42.667 68.499 -75
s17.833 -70.5 10.5 -114.5h-125c6 34.667 1.16699 61 -14.5 79s-40.5 27 -74.5 27s-61.833 -9 -83.5 -27s-35.167 -44 -40.5 -78l-51 -319c-5.33301 -34 0 -60.167 16 -78.5s41 -27.5 75 -27.5c33.333 0 60.833 9.16699 82.5 27.5s35.167 44.5 40.5 78.5h125
c-6.66699 -43.333 -22.167 -81.333 -46.5 -114s-55.166 -57.834 -92.499 -75.501s-79.666 -26.5 -126.999 -26.5zM310 810.001l128 140h140l-137 -140h-131z" />
    <glyph glyph-name="cacute" unicode="&#x107;" 
d="M257 -10c-46.667 0 -86.0039 8.83105 -118.004 26.498s-54.833 42.667 -68.5 75s-17.167 70.5 -10.5 114.5l22 138c7.33301 44.667 23 83 47 115s54.833 56.833 92.5 74.5s79.834 26.5 126.501 26.5c69.333 0 121.833 -17.833 157.5 -53.5s49.834 -84.167 42.501 -145.5
h-125c2 28.667 -5 50.834 -21 66.501s-39.667 23.5 -71 23.5c-34 0 -61.667 -9.16699 -83 -27.5s-34.666 -44.5 -39.999 -78.5l-23 -139c-5.33301 -34 -0.166016 -60.333 15.501 -79s40.5 -28 74.5 -28c31.333 0 57.5 7.83301 78.5 23.5s34.833 37.834 41.5 66.501h126
c-12.667 -61.333 -42.5 -109.833 -89.5 -145.5s-105.167 -53.5 -174.5 -53.5zM281.996 644.998l128 140h140l-137 -140h-131z" />
    <glyph glyph-name="Ccircumflex" unicode="&#x108;" 
d="M258 -10c-46.667 0 -86.167 8.83398 -118.5 26.501s-55.333 42.667 -69 75s-17.167 70.5 -10.5 114.5l50 318c7.33301 44.667 23.166 83 47.499 115s55.333 56.833 93 74.5s79.834 26.5 126.501 26.5c47.333 0 86.666 -8.83301 117.999 -26.5s54.166 -42.667 68.499 -75
s17.833 -70.5 10.5 -114.5h-125c6 34.667 1.16699 61 -14.5 79s-40.5 27 -74.5 27s-61.833 -9 -83.5 -27s-35.167 -44 -40.5 -78l-51 -319c-5.33301 -34 0 -60.167 16 -78.5s41 -27.5 75 -27.5c33.333 0 60.833 9.16699 82.5 27.5s35.167 44.5 40.5 78.5h125
c-6.66699 -43.333 -22.167 -81.333 -46.5 -114s-55.166 -57.834 -92.499 -75.501s-79.666 -26.5 -126.999 -26.5zM194 810.001l159 140h116l115 -140h-117l-65 73l-84 -73h-124z" />
    <glyph glyph-name="ccircumflex" unicode="&#x109;" 
d="M257 -10c-46.667 0 -86.0039 8.83105 -118.004 26.498s-54.833 42.667 -68.5 75s-17.167 70.5 -10.5 114.5l22 138c7.33301 44.667 23 83 47 115s54.833 56.833 92.5 74.5s79.834 26.5 126.501 26.5c69.333 0 121.833 -17.833 157.5 -53.5s49.834 -84.167 42.501 -145.5
h-125c2 28.667 -5 50.834 -21 66.501s-39.667 23.5 -71 23.5c-34 0 -61.667 -9.16699 -83 -27.5s-34.666 -44.5 -39.999 -78.5l-23 -139c-5.33301 -34 -0.166016 -60.333 15.501 -79s40.5 -28 74.5 -28c31.333 0 57.5 7.83301 78.5 23.5s34.833 37.834 41.5 66.501h126
c-12.667 -61.333 -42.5 -109.833 -89.5 -145.5s-105.167 -53.5 -174.5 -53.5zM162.996 644.998l159 140h116l115 -140h-117l-65 73l-84 -73h-124z" />
    <glyph glyph-name="Cdotaccent" unicode="&#x10a;" 
d="M258 -10c-46.667 0 -86.167 8.83398 -118.5 26.501s-55.333 42.667 -69 75s-17.167 70.5 -10.5 114.5l50 318c7.33301 44.667 23.166 83 47.499 115s55.333 56.833 93 74.5s79.834 26.5 126.501 26.5c47.333 0 86.666 -8.83301 117.999 -26.5s54.166 -42.667 68.499 -75
s17.833 -70.5 10.5 -114.5h-125c6 34.667 1.16699 61 -14.5 79s-40.5 27 -74.5 27s-61.833 -9 -83.5 -27s-35.167 -44 -40.5 -78l-51 -319c-5.33301 -34 0 -60.167 16 -78.5s41 -27.5 75 -27.5c33.333 0 60.833 9.16699 82.5 27.5s35.167 44.5 40.5 78.5h125
c-6.66699 -43.333 -22.167 -81.333 -46.5 -114s-55.166 -57.834 -92.499 -75.501s-79.666 -26.5 -126.999 -26.5zM389 808.001c-25.333 0 -44.332 6.5 -56.999 19.5s-17.334 30.5 -14.001 52.5s13.5 39.5 30.5 52.5s38.167 19.5 63.5 19.5s44.333 -6.5 57 -19.5
s17 -30.5 13 -52.5c-2.66699 -22 -12.5 -39.5 -29.5 -52.5s-38.167 -19.5 -63.5 -19.5z" />
    <glyph glyph-name="cdotaccent" unicode="&#x10b;" 
d="M257 -10c-46.667 0 -86.0039 8.83105 -118.004 26.498s-54.833 42.667 -68.5 75s-17.167 70.5 -10.5 114.5l22 138c7.33301 44.667 23 83 47 115s54.833 56.833 92.5 74.5s79.834 26.5 126.501 26.5c69.333 0 121.833 -17.833 157.5 -53.5s49.834 -84.167 42.501 -145.5
h-125c2 28.667 -5 50.834 -21 66.501s-39.667 23.5 -71 23.5c-34 0 -61.667 -9.16699 -83 -27.5s-34.666 -44.5 -39.999 -78.5l-23 -139c-5.33301 -34 -0.166016 -60.333 15.501 -79s40.5 -28 74.5 -28c31.333 0 57.5 7.83301 78.5 23.5s34.833 37.834 41.5 66.501h126
c-12.667 -61.333 -42.5 -109.833 -89.5 -145.5s-105.167 -53.5 -174.5 -53.5zM357.996 641.998c-25.333 0 -44.332 6.5 -56.999 19.5s-17.334 30.5 -14.001 52.5c4 22 14.333 39.5 31 52.5s37.667 19.5 63 19.5c24.667 0 43.5 -6.5 56.5 -19.5s17.5 -30.5 13.5 -52.5
c-3.33301 -22 -13.333 -39.5 -30 -52.5s-37.667 -19.5 -63 -19.5z" />
    <glyph glyph-name="Ccaron" unicode="&#x10c;" 
d="M258 -10c-46.667 0 -86.167 8.83398 -118.5 26.501s-55.333 42.667 -69 75s-17.167 70.5 -10.5 114.5l50 318c7.33301 44.667 23.166 83 47.499 115s55.333 56.833 93 74.5s79.834 26.5 126.501 26.5c47.333 0 86.666 -8.83301 117.999 -26.5s54.166 -42.667 68.499 -75
s17.833 -70.5 10.5 -114.5h-125c6 34.667 1.16699 61 -14.5 79s-40.5 27 -74.5 27s-61.833 -9 -83.5 -27s-35.167 -44 -40.5 -78l-51 -319c-5.33301 -34 0 -60.167 16 -78.5s41 -27.5 75 -27.5c33.333 0 60.833 9.16699 82.5 27.5s35.167 44.5 40.5 78.5h125
c-6.66699 -43.333 -22.167 -81.333 -46.5 -114s-55.166 -57.834 -92.499 -75.501s-79.666 -26.5 -126.999 -26.5zM331 810.001l-115 140h117l65 -73l84 73h124l-159 -140h-116z" />
    <glyph glyph-name="ccaron" unicode="&#x10d;" 
d="M257 -10c-46.667 0 -86.0039 8.83105 -118.004 26.498s-54.833 42.667 -68.5 75s-17.167 70.5 -10.5 114.5l22 138c7.33301 44.667 23 83 47 115s54.833 56.833 92.5 74.5s79.834 26.5 126.501 26.5c69.333 0 121.833 -17.833 157.5 -53.5s49.834 -84.167 42.501 -145.5
h-125c2 28.667 -5 50.834 -21 66.501s-39.667 23.5 -71 23.5c-34 0 -61.667 -9.16699 -83 -27.5s-34.666 -44.5 -39.999 -78.5l-23 -139c-5.33301 -34 -0.166016 -60.333 15.501 -79s40.5 -28 74.5 -28c31.333 0 57.5 7.83301 78.5 23.5s34.833 37.834 41.5 66.501h126
c-12.667 -61.333 -42.5 -109.833 -89.5 -145.5s-105.167 -53.5 -174.5 -53.5zM303.996 644.998l-115 140h117l65 -73l84 73h124l-159 -140h-116z" />
    <glyph glyph-name="Dcaron" unicode="&#x10e;" 
d="M31 0l115.999 730h217c49.333 0 90.666 -9.33301 123.999 -28s57.333 -45 72 -79s18.334 -74.333 11.001 -121l-43 -273c-7.33301 -46 -23.833 -86.167 -49.5 -120.5s-58.167 -61 -97.5 -80s-83.666 -28.5 -132.999 -28.5h-217zM173.999 115l92.001 0.000976562
c36.667 0 67.167 10.167 91.5 30.5s39.166 48.166 44.499 83.499l44 273c5.33301 34.667 -1 62.167 -19 82.5s-45.333 30.5 -82 30.5h-92zM326 810.001l-115 140h117l65 -73l84 73h124l-159 -140h-116z" />
    <glyph glyph-name="dcaron" unicode="&#x10f;" 
d="M550 550l29 180h102l-39 -180h-92zM167 -10c-50 0 -86.666 18.5 -109.999 55.5s-30 86.833 -20 149.5l25 160c10 62.667 32.667 112.5 68 149.5s78 55.5 128 55.5c40 0 69.667 -13 89 -39s25.333 -61 18 -105l-24 29h29l17 131l25 154h119l-116 -730h-116l17 105h-28
l32 29c-6.66699 -44 -23.834 -79 -51.501 -105s-61.5 -39 -101.5 -39zM228.001 93c26 0 47.834 9.5 65.501 28.5s29.167 45.5 34.5 79.5l24 149c5.33301 33.333 2.16602 59.5 -9.50098 78.5s-30.5 28.5 -56.5 28.5c-27.333 0 -50.5 -9.5 -69.5 -28.5
s-31.167 -45.167 -36.5 -78.5l-24 -149c-5.33301 -34 -1.5 -60.5 11.5 -79.5s33.167 -28.5 60.5 -28.5z" />
    <glyph glyph-name="Dcroat" unicode="&#x110;" 
d="M10 329v87h280v-87h-280zM31 0l115.999 730h217c49.333 0 90.666 -9.33301 123.999 -28s57.333 -45 72 -79s18.334 -74.333 11.001 -121l-43 -273c-7.33301 -46 -23.833 -86.167 -49.5 -120.5s-58.167 -61 -97.5 -80s-83.666 -28.5 -132.999 -28.5h-217zM173.999 115
l92.001 0.000976562c36.667 0 67.167 10.167 91.5 30.5s39.166 48.166 44.499 83.499l44 273c5.33301 34.667 -1 62.167 -19 82.5s-45.333 30.5 -82 30.5h-92z" />
    <glyph glyph-name="dcroat" unicode="&#x111;" 
d="M60 200l14.001 89.002c7.33301 43.333 20.833 80.666 40.5 111.999s44.334 55.666 74.001 72.999s62.834 26 99.501 26c40.667 0 72.167 -10.167 94.5 -30.5s33.166 -48.5 32.499 -84.5h3l17 131l7 45h-153l13 84h153l14 85h125l-14 -85h78l-13 -84h-78l-89 -561h-122
l17 105h-2c-11.333 -36.667 -31.333 -65 -60 -85s-63.334 -30 -104.001 -30c-54.667 0 -95.334 19 -122.001 57s-35 89 -25 153zM186.001 206.002c-5.33301 -34.667 -0.833984 -61.332 13.499 -79.999s37.5 -28 69.5 -28c31.333 0 57.333 9.5 78 28.5s33.667 45.5 39 79.5
l12 78c5.33301 34 0.833008 60.5 -13.5 79.5s-37.166 28.5 -68.499 28.5c-32 0 -58.167 -9.33301 -78.5 -28s-33.5 -45.334 -39.5 -80.001z" />
    <glyph glyph-name="Emacron" unicode="&#x112;" 
d="M44 0l116 730h438l-18 -109h-314l-31 -190h280l-17 -108h-280l-34 -214h315l-17 -109h-438zM236 828l14 96h344l-15 -96h-343z" />
    <glyph glyph-name="emacron" unicode="&#x113;" 
d="M255 -10c-46.667 0 -85.6699 9 -117.003 27s-53.833 43.167 -67.5 75.5s-17.167 70.166 -10.5 113.499l22 138c7.33301 43.333 23 81.166 47 113.499s54.5 57.5 91.5 75.5s78.833 27 125.5 27c46 0 84.667 -9 116 -27s53.833 -43.167 67.5 -75.5
s16.834 -70.166 9.50098 -113.499l-16 -99h-336l-7 -39c-5.33301 -38.667 -0.5 -67.834 14.5 -87.501s40.833 -29.5 77.5 -29.5c28 0 51.167 4.83301 69.5 14.5s31.166 23.834 38.499 42.501h124c-11.333 -31.333 -29.166 -58.666 -53.499 -81.999
s-53.166 -41.5 -86.499 -54.5s-69.666 -19.5 -108.999 -19.5zM413.997 315l5 30c6 38 1.66699 67.167 -13 87.5s-40 30.5 -76 30.5s-64.833 -10.333 -86.5 -31s-35.5 -50 -41.5 -88l-3 -21l226 2zM188.997 661l15 96h343l-14 -96h-344z" />
    <glyph glyph-name="Ebreve" unicode="&#x114;" 
d="M44 0l116 730h438l-18 -109h-314l-31 -190h280l-17 -108h-280l-34 -214h315l-17 -109h-438zM403 802c-52 0 -91.8301 13.667 -119.497 41s-38.167 63 -31.5 107h95c-3.33301 -22 1 -39.667 13 -53s29.667 -20 53 -20s43.166 6.66699 59.499 20s26.166 31 29.499 53h99
c-6.66699 -44 -28.334 -79.667 -65.001 -107s-81 -41 -133 -41z" />
    <glyph glyph-name="ebreve" unicode="&#x115;" 
d="M255 -10c-46.667 0 -85.6699 9 -117.003 27s-53.833 43.167 -67.5 75.5s-17.167 70.166 -10.5 113.499l22 138c7.33301 43.333 23 81.166 47 113.499s54.5 57.5 91.5 75.5s78.833 27 125.5 27c46 0 84.667 -9 116 -27s53.833 -43.167 67.5 -75.5
s16.834 -70.166 9.50098 -113.499l-16 -99h-336l-7 -39c-5.33301 -38.667 -0.5 -67.834 14.5 -87.501s40.833 -29.5 77.5 -29.5c28 0 51.167 4.83301 69.5 14.5s31.166 23.834 38.499 42.501h124c-11.333 -31.333 -29.166 -58.666 -53.499 -81.999
s-53.166 -41.5 -86.499 -54.5s-69.666 -19.5 -108.999 -19.5zM413.997 315l5 30c6 38 1.66699 67.167 -13 87.5s-40 30.5 -76 30.5s-64.833 -10.333 -86.5 -31s-35.5 -50 -41.5 -88l-3 -21l226 2zM356.997 637c-52 0 -91.999 13.667 -119.999 41s-38.667 63 -32 107h96
c-3.33301 -22 1 -39.667 13 -53s29.667 -20 53 -20c24 0 44 6.66699 60 20s25.667 31 29 53h99c-6.66699 -44 -28.334 -79.667 -65.001 -107s-81 -41 -133 -41z" />
    <glyph glyph-name="Edotaccent" unicode="&#x116;" 
d="M44 0l116 730h438l-18 -109h-314l-31 -190h280l-17 -108h-280l-34 -214h315l-17 -109h-438zM404 808c-25.333 0 -44.332 6.5 -56.999 19.5s-17.334 30.5 -14.001 52.5s13.5 39.5 30.5 52.5s38.167 19.5 63.5 19.5s44.333 -6.5 57 -19.5s17 -30.5 13 -52.5
c-2.66699 -22 -12.5 -39.5 -29.5 -52.5s-38.167 -19.5 -63.5 -19.5z" />
    <glyph glyph-name="edotaccent" unicode="&#x117;" 
d="M255 -10c-46.667 0 -85.6699 9 -117.003 27s-53.833 43.167 -67.5 75.5s-17.167 70.166 -10.5 113.499l22 138c7.33301 43.333 23 81.166 47 113.499s54.5 57.5 91.5 75.5s78.833 27 125.5 27c46 0 84.667 -9 116 -27s53.833 -43.167 67.5 -75.5
s16.834 -70.166 9.50098 -113.499l-16 -99h-336l-7 -39c-5.33301 -38.667 -0.5 -67.834 14.5 -87.501s40.833 -29.5 77.5 -29.5c28 0 51.167 4.83301 69.5 14.5s31.166 23.834 38.499 42.501h124c-11.333 -31.333 -29.166 -58.666 -53.499 -81.999
s-53.166 -41.5 -86.499 -54.5s-69.666 -19.5 -108.999 -19.5zM413.997 315l5 30c6 38 1.66699 67.167 -13 87.5s-40 30.5 -76 30.5s-64.833 -10.333 -86.5 -31s-35.5 -50 -41.5 -88l-3 -21l226 2zM357.997 642c-25.333 0 -44.332 6.5 -56.999 19.5
s-17.334 30.5 -14.001 52.5c4 22 14.333 39.5 31 52.5s37.667 19.5 63 19.5c24.667 0 43.5 -6.5 56.5 -19.5s17.5 -30.5 13.5 -52.5c-3.33301 -22 -13.333 -39.5 -30 -52.5s-37.667 -19.5 -63 -19.5z" />
    <glyph glyph-name="Eogonek" unicode="&#x118;" 
d="M356 -216c-38.667 0 -67.999 9.66699 -87.999 29s-27.333 44 -22 74c3.33301 22 15.166 43.667 35.499 65s48.5 41 84.5 59h81l-27 -21c-19.333 -14.667 -34.166 -28.5 -44.499 -41.5s-16.5 -24.833 -18.5 -35.5c-1.33301 -12 1.66699 -22.167 9 -30.5
s18.666 -12.5 33.999 -12.5h66l-14 -86h-96zM44.001 0l116 730h438l-18 -109h-314l-31 -190h280l-17 -108h-280l-34 -214h315l-17 -109h-438z" />
    <glyph glyph-name="eogonek" unicode="&#x119;" 
d="M287 -216c-38.667 0 -68 9.66992 -88 29.0029s-27.333 44 -22 74c2.66699 20 14.167 40.667 34.5 62s48.833 42.666 85.5 63.999c-2 -6 -6.83301 -11.333 -14.5 -16s-16.834 -7 -27.501 -7c-46.667 0 -85.667 9 -117 27s-53.833 43.167 -67.5 75.5
s-17.167 70.166 -10.5 113.499l22 138c7.33301 43.333 23 81.166 47 113.499s54.5 57.5 91.5 75.5s78.833 27 125.5 27c46 0 84.667 -9 116 -27s53.833 -43.167 67.5 -75.5s16.834 -70.166 9.50098 -113.499l-16 -99h-336l-7 -39
c-5.33301 -38.667 -0.5 -67.834 14.5 -87.501s40.833 -29.5 77.5 -29.5c28 0 51.167 4.83301 69.5 14.5s31.166 23.834 38.499 42.501h124c-10 -26.667 -24.667 -50.334 -44 -71.001s-41.666 -38 -66.999 -52l-42 -33c-19.333 -14.667 -34.166 -28.5 -44.499 -41.5
s-16.5 -24.833 -18.5 -35.5c-1.33301 -12 1.66699 -22.167 9 -30.5s18.666 -12.5 33.999 -12.5h65l-13 -86h-96zM412 302.003l7 43c6 38 1.66699 67.167 -13 87.5s-40 30.5 -76 30.5s-64.833 -10.333 -86.5 -31s-35.5 -50 -41.5 -88l-3 -21l239 2z" />
    <glyph glyph-name="Ecaron" unicode="&#x11a;" 
d="M44 0l116 730h438l-18 -109h-314l-31 -190h280l-17 -108h-280l-34 -214h315l-17 -109h-438zM346 810l-115 140h117l65 -73l84 73h124l-159 -140h-116z" />
    <glyph glyph-name="ecaron" unicode="&#x11b;" 
d="M255 -10c-46.667 0 -85.6699 9 -117.003 27s-53.833 43.167 -67.5 75.5s-17.167 70.166 -10.5 113.499l22 138c7.33301 43.333 23 81.166 47 113.499s54.5 57.5 91.5 75.5s78.833 27 125.5 27c46 0 84.667 -9 116 -27s53.833 -43.167 67.5 -75.5
s16.834 -70.166 9.50098 -113.499l-16 -99h-336l-7 -39c-5.33301 -38.667 -0.5 -67.834 14.5 -87.501s40.833 -29.5 77.5 -29.5c28 0 51.167 4.83301 69.5 14.5s31.166 23.834 38.499 42.501h124c-11.333 -31.333 -29.166 -58.666 -53.499 -81.999
s-53.166 -41.5 -86.499 -54.5s-69.666 -19.5 -108.999 -19.5zM413.997 315l5 30c6 38 1.66699 67.167 -13 87.5s-40 30.5 -76 30.5s-64.833 -10.333 -86.5 -31s-35.5 -50 -41.5 -88l-3 -21l226 2zM300.997 645l-115 140h117l65 -73l84 73h124l-159 -140h-116z" />
    <glyph glyph-name="Gcircumflex" unicode="&#x11c;" 
d="M258 -10c-46.667 0 -86.167 8.83398 -118.5 26.501s-55.333 42.667 -69 75s-17.167 70.5 -10.5 114.5l50 318c7.33301 44.667 23.166 83 47.499 115s55.333 56.833 93 74.5s79.834 26.5 126.501 26.5c47.333 0 86.666 -8.83301 117.999 -26.5s54.166 -42.667 68.499 -75
s17.833 -70.5 10.5 -114.5h-125c6 34.667 1.16699 61 -14.5 79s-40.5 27 -74.5 27s-61.833 -9 -83.5 -27s-35.167 -44 -40.5 -78l-51 -319c-5.33301 -34 0 -60.333 16 -79s41 -28 75 -28c33.333 0 60.833 9.33301 82.5 28s35.167 45 40.5 79l12 74h-125l17 108h250l-29 -182
c-6.66699 -43.333 -22.167 -81.333 -46.5 -114s-55.166 -57.834 -92.499 -75.501s-79.666 -26.5 -126.999 -26.5zM189 810.001l159 140h116l115 -140h-117l-65 73l-84 -73h-124z" />
    <glyph glyph-name="gcircumflex" unicode="&#x11d;" 
d="M79 -180l17 104h163c28 0 50.167 6.83301 66.5 20.5s26.833 33.167 31.5 58.5l6 41l19 103h-28l32 27c-8 -44.667 -27 -79.5 -57 -104.5s-67.333 -37.5 -112 -37.5c-56 0 -97.667 19 -125 57s-35.666 89.333 -24.999 154l17 107c6.66699 42.667 20 79.667 40 111
s45.167 55.666 75.5 72.999s63.833 26 100.5 26c45.333 0 79.166 -12.5 101.499 -37.5s29.833 -59.833 22.5 -104.5l-24 27h28l14 105h125l-87 -550c-9.33301 -55.333 -34.833 -99.166 -76.5 -131.499s-94.5 -48.5 -158.5 -48.5h-166zM276 140
c32 0 58.333 9.50195 79 28.502s34 45.5 40 79.5l14 96c6 34 1.5 60.5 -13.5 79.5s-38.167 28.5 -69.5 28.5c-32.667 0 -59 -9.33301 -79 -28s-33 -45.334 -39 -80.001l-15 -96c-5.33301 -34.667 -0.833008 -61.334 13.5 -80.001s37.5 -28 69.5 -28zM160 645.002l159 140
h116l115 -140h-117l-65 73l-84 -73h-124z" />
    <glyph glyph-name="Gbreve" unicode="&#x11e;" 
d="M258 -10c-46.667 0 -86.167 8.83398 -118.5 26.501s-55.333 42.667 -69 75s-17.167 70.5 -10.5 114.5l50 318c7.33301 44.667 23.166 83 47.499 115s55.333 56.833 93 74.5s79.834 26.5 126.501 26.5c47.333 0 86.666 -8.83301 117.999 -26.5s54.166 -42.667 68.499 -75
s17.833 -70.5 10.5 -114.5h-125c6 34.667 1.16699 61 -14.5 79s-40.5 27 -74.5 27s-61.833 -9 -83.5 -27s-35.167 -44 -40.5 -78l-51 -319c-5.33301 -34 0 -60.333 16 -79s41 -28 75 -28c33.333 0 60.833 9.33301 82.5 28s35.167 45 40.5 79l12 74h-125l17 108h250l-29 -182
c-6.66699 -43.333 -22.167 -81.333 -46.5 -114s-55.166 -57.834 -92.499 -75.501s-79.666 -26.5 -126.999 -26.5zM383 802.001c-52 0 -91.8301 13.667 -119.497 41s-38.167 63 -31.5 107h95c-3.33301 -22 1 -39.667 13 -53s29.667 -20 53 -20s43.166 6.66699 59.499 20
s26.166 31 29.499 53h99c-6.66699 -44 -28.334 -79.667 -65.001 -107s-81 -41 -133 -41z" />
    <glyph glyph-name="gbreve" unicode="&#x11f;" 
d="M79 -180l17 104h163c28 0 50.167 6.83301 66.5 20.5s26.833 33.167 31.5 58.5l6 41l19 103h-28l32 27c-8 -44.667 -27 -79.5 -57 -104.5s-67.333 -37.5 -112 -37.5c-56 0 -97.667 19 -125 57s-35.666 89.333 -24.999 154l17 107c6.66699 42.667 20 79.667 40 111
s45.167 55.666 75.5 72.999s63.833 26 100.5 26c45.333 0 79.166 -12.5 101.499 -37.5s29.833 -59.833 22.5 -104.5l-24 27h28l14 105h125l-87 -550c-9.33301 -55.333 -34.833 -99.166 -76.5 -131.499s-94.5 -48.5 -158.5 -48.5h-166zM276 140
c32 0 58.333 9.50195 79 28.502s34 45.5 40 79.5l14 96c6 34 1.5 60.5 -13.5 79.5s-38.167 28.5 -69.5 28.5c-32.667 0 -59 -9.33301 -79 -28s-33 -45.334 -39 -80.001l-15 -96c-5.33301 -34.667 -0.833008 -61.334 13.5 -80.001s37.5 -28 69.5 -28zM354 637.002
c-52 0 -91.999 13.667 -119.999 41s-38.667 63 -32 107h96c-3.33301 -22 1 -39.667 13 -53s29.667 -20 53 -20c24 0 44 6.66699 60 20s25.667 31 29 53h99c-6.66699 -44 -28.334 -79.667 -65.001 -107s-81 -41 -133 -41z" />
    <glyph glyph-name="Gdotaccent" unicode="&#x120;" 
d="M258 -10c-46.667 0 -86.167 8.83398 -118.5 26.501s-55.333 42.667 -69 75s-17.167 70.5 -10.5 114.5l50 318c7.33301 44.667 23.166 83 47.499 115s55.333 56.833 93 74.5s79.834 26.5 126.501 26.5c47.333 0 86.666 -8.83301 117.999 -26.5s54.166 -42.667 68.499 -75
s17.833 -70.5 10.5 -114.5h-125c6 34.667 1.16699 61 -14.5 79s-40.5 27 -74.5 27s-61.833 -9 -83.5 -27s-35.167 -44 -40.5 -78l-51 -319c-5.33301 -34 0 -60.333 16 -79s41 -28 75 -28c33.333 0 60.833 9.33301 82.5 28s35.167 45 40.5 79l12 74h-125l17 108h250l-29 -182
c-6.66699 -43.333 -22.167 -81.333 -46.5 -114s-55.166 -57.834 -92.499 -75.501s-79.666 -26.5 -126.999 -26.5zM384 808.001c-25.333 0 -44.332 6.5 -56.999 19.5s-17.334 30.5 -14.001 52.5s13.5 39.5 30.5 52.5s38.167 19.5 63.5 19.5s44.333 -6.5 57 -19.5
s17 -30.5 13 -52.5c-2.66699 -22 -12.5 -39.5 -29.5 -52.5s-38.167 -19.5 -63.5 -19.5z" />
    <glyph glyph-name="gdotaccent" unicode="&#x121;" 
d="M79 -180l17 104h163c28 0 50.167 6.83301 66.5 20.5s26.833 33.167 31.5 58.5l6 41l19 103h-28l32 27c-8 -44.667 -27 -79.5 -57 -104.5s-67.333 -37.5 -112 -37.5c-56 0 -97.667 19 -125 57s-35.666 89.333 -24.999 154l17 107c6.66699 42.667 20 79.667 40 111
s45.167 55.666 75.5 72.999s63.833 26 100.5 26c45.333 0 79.166 -12.5 101.499 -37.5s29.833 -59.833 22.5 -104.5l-24 27h28l14 105h125l-87 -550c-9.33301 -55.333 -34.833 -99.166 -76.5 -131.499s-94.5 -48.5 -158.5 -48.5h-166zM276 140
c32 0 58.333 9.50195 79 28.502s34 45.5 40 79.5l14 96c6 34 1.5 60.5 -13.5 79.5s-38.167 28.5 -69.5 28.5c-32.667 0 -59 -9.33301 -79 -28s-33 -45.334 -39 -80.001l-15 -96c-5.33301 -34.667 -0.833008 -61.334 13.5 -80.001s37.5 -28 69.5 -28zM355 642.002
c-25.333 0 -44.332 6.5 -56.999 19.5s-17.334 30.5 -14.001 52.5c4 22 14.333 39.5 31 52.5s37.667 19.5 63 19.5c24.667 0 43.5 -6.5 56.5 -19.5s17.5 -30.5 13.5 -52.5c-3.33301 -22 -13.333 -39.5 -30 -52.5s-37.667 -19.5 -63 -19.5z" />
    <glyph glyph-name="uni0122" unicode="&#x122;" 
d="M258 -10c-46.667 0 -86.167 8.83398 -118.5 26.501s-55.333 42.667 -69 75s-17.167 70.5 -10.5 114.5l50 318c7.33301 44.667 23.166 83 47.499 115s55.333 56.833 93 74.5s79.834 26.5 126.501 26.5c47.333 0 86.666 -8.83301 117.999 -26.5s54.166 -42.667 68.499 -75
s17.833 -70.5 10.5 -114.5h-125c6 34.667 1.16699 61 -14.5 79s-40.5 27 -74.5 27s-61.833 -9 -83.5 -27s-35.167 -44 -40.5 -78l-51 -319c-5.33301 -34 0 -60.333 16 -79s41 -28 75 -28c33.333 0 60.833 9.33301 82.5 28s35.167 45 40.5 79l12 74h-125l17 108h250l-29 -182
c-6.66699 -43.333 -22.167 -81.333 -46.5 -114s-55.166 -57.834 -92.499 -75.501s-79.666 -26.5 -126.999 -26.5zM102 -239.999l118 145h133l-133 -145h-118z" />
    <glyph glyph-name="uni0123" unicode="&#x123;" 
d="M79 -180l17 104h163c28 0 50.167 6.83301 66.5 20.5s26.833 33.167 31.5 58.5l6 41l19 103h-28l32 27c-8 -44.667 -27 -79.5 -57 -104.5s-67.333 -37.5 -112 -37.5c-56 0 -97.667 19 -125 57s-35.666 89.333 -24.999 154l17 107c6.66699 42.667 20 79.667 40 111
s45.167 55.666 75.5 72.999s63.833 26 100.5 26c45.333 0 79.166 -12.5 101.499 -37.5s29.833 -59.833 22.5 -104.5l-24 27h28l14 105h125l-87 -550c-9.33301 -55.333 -34.833 -99.166 -76.5 -131.499s-94.5 -48.5 -158.5 -48.5h-166zM276 140
c32 0 58.333 9.50195 79 28.502s34 45.5 40 79.5l14 96c6 34 1.5 60.5 -13.5 79.5s-38.167 28.5 -69.5 28.5c-32.667 0 -59 -9.33301 -79 -28s-33 -45.334 -39 -80.001l-15 -96c-5.33301 -34.667 -0.833008 -61.334 13.5 -80.001s37.5 -28 69.5 -28zM522 880.002l-117 -235
h-152l167 235h102z" />
    <glyph glyph-name="Hcircumflex" unicode="&#x124;" 
d="M33 0l116 730h125l-47 -293h196l47 293h125l-116 -730h-125l50 321h-195l-51 -321h-125zM189 810l159 140h116l115 -140h-117l-65 73l-84 -73h-124z" />
    <glyph glyph-name="hcircumflex" unicode="&#x125;" 
d="M33 0l116.002 730.002h125l-29 -180l-20 -105h34l-38 -29c7.33301 45.333 26.166 80.666 56.499 105.999s68.5 38 114.5 38c54 0 94.333 -18 121 -54s35 -84.333 25 -145l-57 -361h-125l55 348c5.33301 33.333 0.666016 59 -14.001 77s-37.334 27 -68.001 27
c-31.333 0 -57.166 -9.33301 -77.499 -28s-33.5 -45.334 -39.5 -80.001l-54 -344h-125zM13.002 805.002l159 140h116l115 -140h-117l-65 73l-84 -73h-124z" />
    <glyph glyph-name="Hbar" unicode="&#x126;" 
d="M50 525l14 87h579l-13 -87h-580zM33 0l116 730h125l-47 -293h196l47 293h125l-116 -730h-125l50 321h-195l-51 -321h-125z" />
    <glyph glyph-name="hbar" unicode="&#x127;" 
d="M45 561l13 84.001h77l14 85h125l-14 -85h154l-13 -84h-154l-11 -71l-20 -105h2c11.333 36 31.333 64.167 60 84.5s63.334 30.5 104.001 30.5c54 0 94.333 -18 121 -54s35.334 -84.333 26.001 -145l-48 -301h-125l46 288c5.33301 33.333 0.666016 59 -14.001 77
s-37.334 27 -68.001 27c-31.333 0 -57.333 -9.33301 -78 -28s-33.667 -45.334 -39 -80.001l-45 -284h-125l89 561h-77z" />
    <glyph glyph-name="Itilde" unicode="&#x128;" 
d="M46 0l18 110h147l80 510h-146l17 110h420l-18 -110h-147l-80 -510h146l-17 -110h-420zM454 806c-20.667 0 -36.998 3.16797 -48.998 9.50098s-21.667 13.833 -29 22.5s-14.5 16.167 -21.5 22.5s-15.5 9.5 -25.5 9.5c-8.66699 0 -16.334 -2.83301 -23.001 -8.5
s-10.667 -13.834 -12 -24.501l-5 -26h-76l5 33c5.33301 32.667 19 59.167 41 79.5s48 30.5 78 30.5c20.667 0 37 -3.16699 49 -9.5s21.667 -13.833 29 -22.5s14.5 -16.167 21.5 -22.5s15.5 -9.5 25.5 -9.5c9.33301 0 17 2.5 23 7.5s10 12.833 12 23.5l4 28h77l-5 -33
c-5.33301 -32.667 -18.833 -59.167 -40.5 -79.5s-47.834 -30.5 -78.501 -30.5z" />
    <glyph glyph-name="itilde" unicode="&#x129;" 
d="M30 0l18 114h192l52 323h-168l18 113h286l-68 -436h170l-18 -114h-482zM446 641c-20.667 0 -36.9971 3.16797 -48.9971 9.50098s-21.667 13.833 -29 22.5s-14.5 16.167 -21.5 22.5s-15.5 9.5 -25.5 9.5c-8.66699 0 -16.334 -2.83301 -23.001 -8.5
s-11 -13.834 -13 -24.501l-4 -26h-76l5 33c5.33301 32.667 19 59.167 41 79.5s48 30.5 78 30.5c20.667 0 37 -3.16699 49 -9.5s21.5 -13.833 28.5 -22.5s14 -16.167 21 -22.5s15.5 -9.5 25.5 -9.5c9.33301 0 17.166 2.5 23.499 7.5s10.5 12.833 12.5 23.5l4 28h77l-5 -33
c-5.33301 -32.667 -18.833 -59.167 -40.5 -79.5s-47.834 -30.5 -78.501 -30.5z" />
    <glyph glyph-name="Imacron" unicode="&#x12a;" 
d="M46 0l18 110h147l80 510h-146l17 110h420l-18 -110h-147l-80 -510h146l-17 -110h-420zM216 828l14 96h344l-15 -96h-343z" />
    <glyph glyph-name="imacron" unicode="&#x12b;" 
d="M30 0l18 114h192l52 323h-168l18 113h286l-68 -436h170l-18 -114h-482zM207 661l15 96h343l-14 -96h-344z" />
    <glyph glyph-name="Ibreve" unicode="&#x12c;" 
d="M46 0l18 110h147l80 510h-146l17 110h420l-18 -110h-147l-80 -510h146l-17 -110h-420zM383 802c-52 0 -91.8301 13.667 -119.497 41s-38.167 63 -31.5 107h95c-3.33301 -22 1 -39.667 13 -53s29.667 -20 53 -20s43.166 6.66699 59.499 20s26.166 31 29.499 53h99
c-6.66699 -44 -28.334 -79.667 -65.001 -107s-81 -41 -133 -41z" />
    <glyph glyph-name="ibreve" unicode="&#x12d;" 
d="M30 0l18 114h192l52 323h-168l18 113h286l-68 -436h170l-18 -114h-482zM375 637c-52 0 -91.999 13.667 -119.999 41s-38.667 63 -32 107h96c-3.33301 -22 1 -39.667 13 -53s29.667 -20 53 -20c24 0 44 6.66699 60 20s25.667 31 29 53h99
c-6.66699 -44 -28.334 -79.667 -65.001 -107s-81 -41 -133 -41z" />
    <glyph glyph-name="Iogonek" unicode="&#x12e;" 
d="M222 -216c-38.667 0 -67.999 9.66699 -87.999 29s-27.333 44 -22 74c3.33301 22 15.166 43.667 35.499 65s48.5 41 84.5 59h81l-27 -21c-19.333 -14.667 -34.166 -28.5 -44.499 -41.5s-16.5 -24.833 -18.5 -35.5c-1.33301 -12 1.66699 -22.167 9 -30.5
s18.666 -12.5 33.999 -12.5h65l-13 -86h-96zM46.001 0l18 110h147l80 510h-146l17 110h420l-18 -110h-147l-80 -510h146l-17 -110h-420z" />
    <glyph glyph-name="iogonek" unicode="&#x12f;" 
d="M240 -216c-38.667 0 -67.998 9.66699 -87.998 29s-27.333 44 -22 74c3.33301 22 15.166 43.667 35.499 65s48.166 41 83.499 59h82l-27 -21c-19.333 -14.667 -34.166 -28.5 -44.499 -41.5s-16.5 -24.833 -18.5 -35.5c-1.33301 -12 1.66699 -22.167 9 -30.5
s18.666 -12.5 33.999 -12.5h65l-13 -86h-96zM30.002 0l18 114h192l52 323h-168l18 113h286l-68 -436h170l-18 -114h-482zM376.002 642c-25.333 0 -44.332 6.5 -56.999 19.5s-17.334 30.5 -14.001 52.5s13.5 39.5 30.5 52.5s38.167 19.5 63.5 19.5
c24.667 0 43.5 -6.5 56.5 -19.5s17.5 -30.5 13.5 -52.5c-3.33301 -22 -13.5 -39.5 -30.5 -52.5s-37.833 -19.5 -62.5 -19.5z" />
    <glyph glyph-name="Idotaccent" unicode="&#x130;" 
d="M46 0l18 110h147l80 510h-146l17 110h420l-18 -110h-147l-80 -510h146l-17 -110h-420zM384 808c-25.333 0 -44.332 6.5 -56.999 19.5s-17.334 30.5 -14.001 52.5s13.5 39.5 30.5 52.5s38.167 19.5 63.5 19.5s44.333 -6.5 57 -19.5s17 -30.5 13 -52.5
c-2.66699 -22 -12.5 -39.5 -29.5 -52.5s-38.167 -19.5 -63.5 -19.5z" />
    <glyph glyph-name="dotlessi" unicode="&#x131;" 
d="M30 0l18 114h192l52 323h-168l18 113h286l-68 -436h170l-18 -114h-482z" />
    <glyph glyph-name="Jcircumflex" unicode="&#x134;" 
d="M224 -11c-74 0 -129.167 20.501 -165.5 61.501s-48.833 96.167 -37.5 165.5h125c-6 -36.667 -0.5 -65.334 16.5 -86.001s43.5 -31 79.5 -31c35.333 0 64.833 10.167 88.5 30.5s38.5 48.833 44.5 85.5l63 399h-169l18 116h295l-82 -515c-7.33301 -46 -23.5 -86 -48.5 -120
s-56.833 -60.167 -95.5 -78.5s-82.667 -27.5 -132 -27.5zM249 810.001l159 140h116l115 -140h-117l-65 73l-84 -73h-124z" />
    <glyph glyph-name="jcircumflex" unicode="&#x135;" 
d="M9 -180l19.001 116h147c33.333 0 60.5 9 81.5 27s33.833 43.333 38.5 76l63 395h-221l18 116h346l-81 -514c-6.66699 -44 -21.834 -82.167 -45.501 -114.5s-53.5 -57.333 -89.5 -75s-76.667 -26.5 -122 -26.5h-154zM194.001 645l159 140h116l115 -140h-117l-65 73
l-84 -73h-124z" />
    <glyph glyph-name="uni0136" unicode="&#x136;" 
d="M32 0l116 730h125l-47 -295h84l186 295h137l-222 -356l114 -374h-135l-92 321h-90l-51 -321h-125zM98 -240l118 145h133l-133 -145h-118z" />
    <glyph glyph-name="uni0137" unicode="&#x137;" 
d="M36 0l116 730h125l-63 -396h80l168 216h143l-209 -271l125 -279h-138l-99 228h-87l-36 -228h-125zM99 -240l118 145h132l-134 -145h-116z" />
    <glyph glyph-name="kgreenlandic" unicode="&#x138;" 
d="M37 0l87 550h125l-35 -216h80l168 216h143l-209 -270l125 -280h-140l-98 228h-85l-36 -228h-125z" />
    <glyph glyph-name="Lacute" unicode="&#x139;" 
d="M59 0l116 730h125l-97 -614h309l-18 -116h-435zM171 810l128 140h140l-137 -140h-131z" />
    <glyph glyph-name="lacute" unicode="&#x13a;" 
d="M336 0c-54.667 0 -95.834 16.333 -123.501 49s-37.167 75.667 -28.5 129l69 439h-168l18 113h293l-87 -552c-3.33301 -20 -0.166016 -35.833 9.50098 -47.5s24.167 -17.5 43.5 -17.5h170l-17 -113h-179zM263 810l128 140h140l-137 -140h-131z" />
    <glyph glyph-name="uni013B" unicode="&#x13b;" 
d="M59 0l116 730h125l-97 -614h309l-18 -116h-435zM118 -240l118 145h133l-133 -145h-118z" />
    <glyph glyph-name="uni013C" unicode="&#x13c;" 
d="M336 0c-54.667 0 -95.834 16.333 -123.501 49s-37.167 75.667 -28.5 129l69 439h-168l18 113h293l-87 -552c-3.33301 -20 -0.166016 -35.833 9.50098 -47.5s24.167 -17.5 43.5 -17.5h170l-17 -113h-179zM106 -240l118 145h132l-134 -145h-116z" />
    <glyph glyph-name="Lcaron" unicode="&#x13d;" 
d="M59 0l116 730h125l-97 -614h309l-18 -116h-435zM392 550l39 180h117l-49 -180h-107z" />
    <glyph glyph-name="lcaron" unicode="&#x13e;" 
d="M336 0c-54.667 0 -95.834 16.333 -123.501 49s-37.167 75.667 -28.5 129l69 439h-168l18 113h293l-87 -552c-3.33301 -20 -0.166016 -35.833 9.50098 -47.5s24.167 -17.5 43.5 -17.5h170l-17 -113h-179zM484 550l39 180h117l-49 -180h-107z" />
    <glyph glyph-name="Ldot" unicode="&#x13f;" 
d="M59 0l116 730h125l-97 -614h309l-18 -116h-435zM413 255c-28.667 0 -50.001 8.33301 -64.001 25s-19 39.334 -15 68.001c4.66699 28.667 16.834 51.5 36.501 68.5s43.834 25.5 72.501 25.5s50 -8.5 64 -25.5s18.667 -39.833 14 -68.5
c-4 -28.667 -15.833 -51.334 -35.5 -68.001s-43.834 -25 -72.501 -25z" />
    <glyph glyph-name="ldot" unicode="&#x140;" 
d="M316 0c-54.667 0 -95.834 16.333 -123.501 49s-37.167 75.667 -28.5 129l69 439h-168l18 113h293l-87 -552c-3.33301 -20 -0.166016 -35.833 9.50098 -47.5s24.167 -17.5 43.5 -17.5h170l-17 -113h-179zM514 255c-28.667 0 -50.001 8.33301 -64.001 25
s-19 39.334 -15 68.001c4.66699 28.667 16.834 51.5 36.501 68.5s43.834 25.5 72.501 25.5s50 -8.5 64 -25.5s18.667 -39.833 14 -68.5c-4 -28.667 -15.833 -51.334 -35.5 -68.001s-43.834 -25 -72.501 -25z" />
    <glyph glyph-name="Lslash" unicode="&#x141;" 
d="M12 225l19 120l410 220l-18 -120zM65 0l116 730h125l-97 -614h309l-18 -116h-435z" />
    <glyph glyph-name="lslash" unicode="&#x142;" 
d="M100 230v115l376 215v-115zM336 0c-54.667 0 -95.834 16.333 -123.501 49s-37.167 75.667 -28.5 129l69 439h-168l18 113h293l-87 -552c-3.33301 -20 -0.166016 -35.833 9.50098 -47.5s24.167 -17.5 43.5 -17.5h170l-17 -113h-179z" />
    <glyph glyph-name="Nacute" unicode="&#x143;" 
d="M28 0l116.001 729.999h151l111 -590c2 21.333 4.16699 46.5 6.5 75.5s5.16602 58.667 8.49902 89s6.66602 56.833 9.99902 79.5l55 346h114l-116 -730h-151l-110 590c-1.33301 -19.333 -3.16602 -42.666 -5.49902 -69.999s-5 -55.333 -8 -84s-6.5 -55 -10.5 -79l-57 -357
h-114zM305.001 809.999l128 140h140l-137 -140h-131z" />
    <glyph glyph-name="nacute" unicode="&#x144;" 
d="M33 0l87.002 550.002h122l-17 -105h34l-38 -29c7.33301 45.333 26.166 80.666 56.499 105.999s68.5 38 114.5 38c54 0 94.333 -18 121 -54s35 -84.333 25 -145l-57 -361h-125l55 348c5.33301 33.333 0.666016 59 -14.001 77s-37.334 27 -68.001 27
c-31.333 0 -57.166 -9.33301 -77.499 -28s-33.5 -45.334 -39.5 -80.001l-54 -344h-125zM249.002 645.002l128 140h140l-137 -140h-131z" />
    <glyph glyph-name="uni0145" unicode="&#x145;" 
d="M28 0l116.001 729.999h151l111 -590c2 21.333 4.16699 46.5 6.5 75.5s5.16602 58.667 8.49902 89s6.66602 56.833 9.99902 79.5l55 346h114l-116 -730h-151l-110 590c-1.33301 -19.333 -3.16602 -42.666 -5.49902 -69.999s-5 -55.333 -8 -84s-6.5 -55 -10.5 -79l-57 -357
h-114zM99.001 -240.001l118 145h132l-134 -145h-116z" />
    <glyph glyph-name="uni0146" unicode="&#x146;" 
d="M33 0l87.002 550.002h122l-17 -105h34l-38 -29c7.33301 45.333 26.166 80.666 56.499 105.999s68.5 38 114.5 38c54 0 94.333 -18 121 -54s35 -84.333 25 -145l-57 -361h-125l55 348c5.33301 33.333 0.666016 59 -14.001 77s-37.334 27 -68.001 27
c-31.333 0 -57.166 -9.33301 -77.499 -28s-33.5 -45.334 -39.5 -80.001l-54 -344h-125zM99.002 -239.998l118 145h132l-134 -145h-116z" />
    <glyph glyph-name="Ncaron" unicode="&#x147;" 
d="M28 0l116.001 729.999h151l111 -590c2 21.333 4.16699 46.5 6.5 75.5s5.16602 58.667 8.49902 89s6.66602 56.833 9.99902 79.5l55 346h114l-116 -730h-151l-110 590c-1.33301 -19.333 -3.16602 -42.666 -5.49902 -69.999s-5 -55.333 -8 -84s-6.5 -55 -10.5 -79l-57 -357
h-114zM326.001 809.999l-115 140h117l65 -73l84 73h124l-159 -140h-116z" />
    <glyph glyph-name="ncaron" unicode="&#x148;" 
d="M33 0l87.002 550.002h122l-17 -105h34l-38 -29c7.33301 45.333 26.166 80.666 56.499 105.999s68.5 38 114.5 38c54 0 94.333 -18 121 -54s35 -84.333 25 -145l-57 -361h-125l55 348c5.33301 33.333 0.666016 59 -14.001 77s-37.334 27 -68.001 27
c-31.333 0 -57.166 -9.33301 -77.499 -28s-33.5 -45.334 -39.5 -80.001l-54 -344h-125zM301.002 645.002l-115 140h117l65 -73l84 73h124l-159 -140h-116z" />
    <glyph glyph-name="napostrophe" unicode="&#x149;" 
d="M33 0l87.002 550.002h122l-17 -105h34l-38 -29c7.33301 45.333 26.166 80.666 56.499 105.999s68.5 38 114.5 38c54 0 94.333 -18 121 -54s35 -84.333 25 -145l-57 -361h-125l55 348c5.33301 33.333 0.666016 59 -14.001 77s-37.334 27 -68.001 27
c-31.333 0 -57.166 -9.33301 -77.499 -28s-33.5 -45.334 -39.5 -80.001l-54 -344h-125zM-90.998 645.002l118 145h132l-134 -145h-116z" />
    <glyph glyph-name="Eng" unicode="&#x14a;" 
d="M173 -180l19.002 119h62c29.333 0 53.833 8.16699 73.5 24.5s31.5 38.5 35.5 66.5l-140 560c-1.33301 -19.333 -3.16602 -42.666 -5.49902 -69.999s-5 -55.333 -8 -84s-6.5 -55 -10.5 -79l-57 -357h-114l116 730h149l127 -505c2 21.333 4.16699 46.666 6.5 75.999
s5.16602 59.5 8.49902 90.5s6.66602 57.833 9.99902 80.5l41 258h114l-113 -709c-6 -40 -21 -75.167 -45 -105.5s-54.333 -53.833 -91 -70.5s-77.334 -25 -122.001 -25h-56z" />
    <glyph glyph-name="eng" unicode="&#x14b;" 
d="M171 -180l18.001 119.002h62c29.333 0 53.666 8.16699 72.999 24.5s31.333 38.5 36 66.5l51 318c4.66699 33.333 -0.166016 59 -14.499 77s-36.833 27 -67.5 27c-31.333 0 -57 -9.33301 -77 -28s-33 -45.334 -39 -80.001l-54 -344h-125l87 550h122l-17 -105h33l-37 -29
c7.33301 45.333 26 80.666 56 105.999s68 38 114 38c54 0 94.167 -18 120.5 -54s34.833 -84.333 25.5 -145l-54 -340c-6 -40 -21 -75.167 -45 -105.5s-54.333 -53.833 -91 -70.5s-77.334 -25 -122.001 -25h-55z" />
    <glyph glyph-name="Omacron" unicode="&#x14c;" 
d="M254 -10c-46.667 0 -85.667 8.83203 -117 26.499s-53.666 42.667 -66.999 75s-16.666 70.5 -9.99902 114.5l50 318c7.33301 44 22.833 82.167 46.5 114.5s54 57.333 91 75s78.833 26.5 125.5 26.5c47.333 0 86.666 -8.83301 117.999 -26.5s53.666 -42.667 66.999 -75
s16.333 -70.166 9 -113.499l-50 -319c-6.66699 -44 -22 -82.167 -46 -114.5s-54.333 -57.333 -91 -75s-78.667 -26.5 -126 -26.5zM272 99.999c33.333 0 60.3311 9.16699 80.998 27.5s33.667 44.5 39 78.5l50 318c6 34.667 1.66699 61 -13 79s-39 27 -73 27
s-61.167 -9 -81.5 -27s-33.166 -44.333 -38.499 -79l-51 -318c-5.33301 -34 -0.666016 -60.167 14.001 -78.5s39 -27.5 73 -27.5zM215.998 827.999l14 96h344l-15 -96h-343z" />
    <glyph glyph-name="omacron" unicode="&#x14d;" 
d="M254 -10c-46.667 0 -85.6699 8.83203 -117.003 26.499s-53.666 42.667 -66.999 75s-16.666 70.5 -9.99902 114.5l22 138c7.33301 44 22.833 82.167 46.5 114.5s54 57.333 91 75s78.833 26.5 125.5 26.5c47.333 0 86.5 -8.83301 117.5 -26.5s53.333 -42.667 67 -75
s16.834 -70.166 9.50098 -113.499l-22 -139c-6.66699 -44 -22 -82.167 -46 -114.5s-54.333 -57.333 -91 -75s-78.667 -26.5 -126 -26.5zM271.997 98.999c33.333 0 60.335 9.16699 81.002 27.5s33.667 44.833 39 79.5l22 138c5.33301 34.667 0.666016 61.167 -14.001 79.5
s-39 27.5 -73 27.5c-32.667 0 -59.334 -9.16699 -80.001 -27.5s-34 -44.833 -40 -79.5l-22 -138c-5.33301 -34.667 -0.5 -61.167 14.5 -79.5s39.167 -27.5 72.5 -27.5zM188.999 660.999l15 96h343l-14 -96h-344z" />
    <glyph glyph-name="Obreve" unicode="&#x14e;" 
d="M254 -10c-46.667 0 -85.667 8.83203 -117 26.499s-53.666 42.667 -66.999 75s-16.666 70.5 -9.99902 114.5l50 318c7.33301 44 22.833 82.167 46.5 114.5s54 57.333 91 75s78.833 26.5 125.5 26.5c47.333 0 86.666 -8.83301 117.999 -26.5s53.666 -42.667 66.999 -75
s16.333 -70.166 9 -113.499l-50 -319c-6.66699 -44 -22 -82.167 -46 -114.5s-54.333 -57.333 -91 -75s-78.667 -26.5 -126 -26.5zM272 99.999c33.333 0 60.3311 9.16699 80.998 27.5s33.667 44.5 39 78.5l50 318c6 34.667 1.66699 61 -13 79s-39 27 -73 27
s-61.167 -9 -81.5 -27s-33.166 -44.333 -38.499 -79l-51 -318c-5.33301 -34 -0.666016 -60.167 14.001 -78.5s39 -27.5 73 -27.5zM382.998 801.999c-52 0 -91.8301 13.667 -119.497 41s-38.167 63 -31.5 107h95c-3.33301 -22 1 -39.667 13 -53s29.667 -20 53 -20
s43.166 6.66699 59.499 20s26.166 31 29.499 53h99c-6.66699 -44 -28.334 -79.667 -65.001 -107s-81 -41 -133 -41z" />
    <glyph glyph-name="obreve" unicode="&#x14f;" 
d="M254 -10c-46.667 0 -85.6699 8.83203 -117.003 26.499s-53.666 42.667 -66.999 75s-16.666 70.5 -9.99902 114.5l22 138c7.33301 44 22.833 82.167 46.5 114.5s54 57.333 91 75s78.833 26.5 125.5 26.5c47.333 0 86.5 -8.83301 117.5 -26.5s53.333 -42.667 67 -75
s16.834 -70.166 9.50098 -113.499l-22 -139c-6.66699 -44 -22 -82.167 -46 -114.5s-54.333 -57.333 -91 -75s-78.667 -26.5 -126 -26.5zM271.997 98.999c33.333 0 60.335 9.16699 81.002 27.5s33.667 44.833 39 79.5l22 138c5.33301 34.667 0.666016 61.167 -14.001 79.5
s-39 27.5 -73 27.5c-32.667 0 -59.334 -9.16699 -80.001 -27.5s-34 -44.833 -40 -79.5l-22 -138c-5.33301 -34.667 -0.5 -61.167 14.5 -79.5s39.167 -27.5 72.5 -27.5zM356.999 636.999c-52 0 -91.999 13.667 -119.999 41s-38.667 63 -32 107h96
c-3.33301 -22 1 -39.667 13 -53s29.667 -20 53 -20c24 0 44 6.66699 60 20s25.667 31 29 53h99c-6.66699 -44 -28.334 -79.667 -65.001 -107s-81 -41 -133 -41z" />
    <glyph glyph-name="Ohungarumlaut" unicode="&#x150;" 
d="M254 -10c-46.667 0 -85.667 8.83203 -117 26.499s-53.666 42.667 -66.999 75s-16.666 70.5 -9.99902 114.5l50 318c7.33301 44 22.833 82.167 46.5 114.5s54 57.333 91 75s78.833 26.5 125.5 26.5c47.333 0 86.666 -8.83301 117.999 -26.5s53.666 -42.667 66.999 -75
s16.333 -70.166 9 -113.499l-50 -319c-6.66699 -44 -22 -82.167 -46 -114.5s-54.333 -57.333 -91 -75s-78.667 -26.5 -126 -26.5zM272 99.999c33.333 0 60.3311 9.16699 80.998 27.5s33.667 44.5 39 78.5l50 318c6 34.667 1.66699 61 -13 79s-39 27 -73 27
s-61.167 -9 -81.5 -27s-33.166 -44.333 -38.499 -79l-51 -318c-5.33301 -34 -0.666016 -60.167 14.001 -78.5s39 -27.5 73 -27.5zM407.998 809.999l129 140h125l-137 -140h-117zM202.998 809.999l130 140h124l-137 -140h-117z" />
    <glyph glyph-name="ohungarumlaut" unicode="&#x151;" 
d="M254 -10c-46.667 0 -85.6699 8.83203 -117.003 26.499s-53.666 42.667 -66.999 75s-16.666 70.5 -9.99902 114.5l22 138c7.33301 44 22.833 82.167 46.5 114.5s54 57.333 91 75s78.833 26.5 125.5 26.5c47.333 0 86.5 -8.83301 117.5 -26.5s53.333 -42.667 67 -75
s16.834 -70.166 9.50098 -113.499l-22 -139c-6.66699 -44 -22 -82.167 -46 -114.5s-54.333 -57.333 -91 -75s-78.667 -26.5 -126 -26.5zM271.997 98.999c33.333 0 60.335 9.16699 81.002 27.5s33.667 44.833 39 79.5l22 138c5.33301 34.667 0.666016 61.167 -14.001 79.5
s-39 27.5 -73 27.5c-32.667 0 -59.334 -9.16699 -80.001 -27.5s-34 -44.833 -40 -79.5l-22 -138c-5.33301 -34.667 -0.5 -61.167 14.5 -79.5s39.167 -27.5 72.5 -27.5zM381.999 644.999l129 140h124l-137 -140h-116zM177.999 644.999l129 140h124l-137 -140h-116z" />
    <glyph glyph-name="OE" unicode="&#x152;" 
d="M138 -6c-30.667 0 -56 7.66895 -76 23.002s-33.5 37.666 -40.5 66.999s-7.5 64.333 -1.5 105l57 356c6.66699 40.667 18 75.5 34 104.5s36.5 51.333 61.5 67s52.833 23.5 83.5 23.5c24 0 43 -4.83301 57 -14.5s24.167 -21.334 30.5 -35.001
s9.16602 -27.167 8.49902 -40.5h5l13 80h280l-17 -107h-168l-31 -194h143l-17 -108h-143l-34 -213h168l-17 -108h-280l14 84h-5c-4 -12.667 -11.333 -26 -22 -40s-24.667 -25.833 -42 -35.5s-37.666 -14.5 -60.999 -14.5zM196 100.002c22 0 40.5 7.83301 55.5 23.5
s24.833 37.5 29.5 65.5l56 356c4 27.333 1.16699 49 -8.5 65s-25.834 24 -48.501 24c-21.333 0 -39.666 -8 -54.999 -24s-25 -37.667 -29 -65l-56 -356c-4.66699 -27.333 -2 -49 8 -65s26 -24 48 -24z" />
    <glyph glyph-name="oe" unicode="&#x153;" 
d="M134 -10c-44 0 -76.8291 14.166 -98.4961 42.499s-28.834 65.5 -21.501 111.5l41 262c8 46.667 27.333 84 58 112s68 42 112 42c25.333 0 45.666 -4.16699 60.999 -12.5s26.5 -18.5 33.5 -30.5s10.167 -23.333 9.5 -34h7c2.66699 10.667 9.16699 22 19.5 34
s24.666 22.167 42.999 30.5s40.5 12.5 66.5 12.5c44 0 77 -14 99 -42s29 -65.333 21 -112l-24 -156h-214l-17 -106c-3.33301 -20 -0.833008 -35.833 7.5 -47.5s20.833 -17.5 37.5 -17.5c16 0 29.5 4.83301 40.5 14.5s18.5 23.167 22.5 40.5h103
c-9.33301 -43.333 -29.333 -78.166 -60 -104.499s-66.334 -39.5 -107.001 -39.5c-26 0 -46.667 4.16699 -62 12.5s-26.333 18.5 -33 30.5s-9.66699 23.333 -9 34h-7c-2.66699 -10.667 -9.5 -22 -20.5 -34s-25.5 -22.167 -43.5 -30.5s-39.667 -12.5 -65 -12.5z
M163.004 78.999c17.333 0 31.6699 5.83301 43.0029 17.5s18.666 27.5 21.999 47.5l41 262c3.33301 20.667 1 36.667 -7 48s-20.667 17 -38 17s-31.833 -5.83301 -43.5 -17.5s-19.167 -27.5 -22.5 -47.5l-42 -262c-2.66699 -20 0.166016 -35.833 8.49902 -47.5
s21.166 -17.5 38.499 -17.5zM359.008 326.999h111l13 79c2.66699 20.667 0 36.667 -8 48s-20.667 17 -38 17s-31.833 -5.83301 -43.5 -17.5s-19.167 -27.5 -22.5 -47.5z" />
    <glyph glyph-name="Racute" unicode="&#x154;" 
d="M32 0l115.998 730h231c48.667 0 89.334 -9 122.001 -27s56.334 -43.167 71.001 -75.5s18.667 -70.5 12 -114.5c-5.33301 -36.667 -17.5 -70 -36.5 -100s-42.833 -55 -71.5 -75s-60.667 -33.333 -96 -40l15 62l118 -360h-133l-88 290h-89l-46 -290h-125zM219.998 400
l107.001 -0.000976562c34.667 0 63.667 9.66699 87 29s37.666 46 42.999 80c5.33301 34.667 -0.5 61.834 -17.5 81.501s-42.833 29.5 -77.5 29.5h-107zM304.999 809.999l128 140h140l-137 -140h-131z" />
    <glyph glyph-name="racute" unicode="&#x155;" 
d="M50 0l87 550.001h118l-17 -105h31l-47 -64c9.33301 59.333 29.833 104 61.5 134s73.5 45 125.5 45c59.333 0 103 -18.333 131 -55s37 -87.334 27 -152.001l-7 -40h-131l6 31c5.33301 35.333 0.5 62.666 -14.5 81.999s-38.5 29 -70.5 29
c-32.667 0 -59.5 -9.66699 -80.5 -29s-34.167 -46.666 -39.5 -81.999l-55 -344h-125zM299 645.001l128 140h140l-137 -140h-131z" />
    <glyph glyph-name="uni0156" unicode="&#x156;" 
d="M32 0l115.998 730h231c48.667 0 89.334 -9 122.001 -27s56.334 -43.167 71.001 -75.5s18.667 -70.5 12 -114.5c-5.33301 -36.667 -17.5 -70 -36.5 -100s-42.833 -55 -71.5 -75s-60.667 -33.333 -96 -40l15 62l118 -360h-133l-88 290h-89l-46 -290h-125zM219.998 400
l107.001 -0.000976562c34.667 0 63.667 9.66699 87 29s37.666 46 42.999 80c5.33301 34.667 -0.5 61.834 -17.5 81.501s-42.833 29.5 -77.5 29.5h-107zM98.999 -240.001l118 145h132l-134 -145h-116z" />
    <glyph glyph-name="uni0157" unicode="&#x157;" 
d="M50 0l87 550.001h118l-17 -105h31l-47 -64c9.33301 59.333 29.833 104 61.5 134s73.5 45 125.5 45c59.333 0 103 -18.333 131 -55s37 -87.334 27 -152.001l-7 -40h-131l6 31c5.33301 35.333 0.5 62.666 -14.5 81.999s-38.5 29 -70.5 29
c-32.667 0 -59.5 -9.66699 -80.5 -29s-34.167 -46.666 -39.5 -81.999l-55 -344h-125zM-66 -239.999l118 145h132l-134 -145h-116z" />
    <glyph glyph-name="Rcaron" unicode="&#x158;" 
d="M32 0l115.998 730h231c48.667 0 89.334 -9 122.001 -27s56.334 -43.167 71.001 -75.5s18.667 -70.5 12 -114.5c-5.33301 -36.667 -17.5 -70 -36.5 -100s-42.833 -55 -71.5 -75s-60.667 -33.333 -96 -40l15 62l118 -360h-133l-88 290h-89l-46 -290h-125zM219.998 400
l107.001 -0.000976562c34.667 0 63.667 9.66699 87 29s37.666 46 42.999 80c5.33301 34.667 -0.5 61.834 -17.5 81.501s-42.833 29.5 -77.5 29.5h-107zM325.999 809.999l-115 140h117l65 -73l84 73h124l-159 -140h-116z" />
    <glyph glyph-name="rcaron" unicode="&#x159;" 
d="M50 0l87 550.001h118l-17 -105h31l-47 -64c9.33301 59.333 29.833 104 61.5 134s73.5 45 125.5 45c59.333 0 103 -18.333 131 -55s37 -87.334 27 -152.001l-7 -40h-131l6 31c5.33301 35.333 0.5 62.666 -14.5 81.999s-38.5 29 -70.5 29
c-32.667 0 -59.5 -9.66699 -80.5 -29s-34.167 -46.666 -39.5 -81.999l-55 -344h-125zM321 645.001l-115 140h117l65 -73l84 73h124l-159 -140h-116z" />
    <glyph glyph-name="Sacute" unicode="&#x15a;" 
d="M256 -10c-74.667 0 -130.999 18.4961 -168.999 55.4961s-52 87.167 -42 150.5h125c-5.33301 -30 1.5 -53.5 20.5 -70.5s47.167 -25.5 84.5 -25.5c36 0 65.333 8.33301 88 25s36.667 39.667 42 69c4 26.667 0.333008 49.167 -11 67.5s-29 30.833 -53 37.5l-81 23
c-54.667 15.333 -94.834 41.833 -120.501 79.5s-34.834 82.5 -27.501 134.5c6.66699 41.333 21.834 77.333 45.501 108s54 54.334 91 71.001s78.833 25 125.5 25c70.667 0 123.834 -18.167 159.501 -54.5s48.834 -85.166 39.501 -146.499h-125
c4.66699 28.667 -1 51.167 -17 67.5s-41 24.5 -75 24.5c-32.667 0 -59.334 -7.66699 -80.001 -23s-33 -37 -37 -65c-4.66699 -26 -1.66699 -48.333 9 -67s28 -31.334 52 -38.001l83 -24c55.333 -15.333 95.833 -41.666 121.5 -78.999s34.167 -82.666 25.5 -135.999
c-6.66699 -42 -22.5 -78.667 -47.5 -110s-56.833 -55.666 -95.5 -72.999s-82.334 -26 -131.001 -26zM305.001 809.996l128 140h140l-137 -140h-131z" />
    <glyph glyph-name="sacute" unicode="&#x15b;" 
d="M231 -10c-63.333 0 -111.662 14.666 -144.995 43.999s-47.333 68 -42 116h125c-1.33301 -17.333 5.16699 -31.333 19.5 -42s34.166 -16 59.499 -16h43c30.667 0 54.834 6 72.501 18s27.834 28.333 30.501 49c3.33301 19.333 -0.833984 34.833 -12.501 46.5
s-31.5 19.5 -59.5 23.5l-66 10c-61.333 8.66699 -104.833 24.834 -130.5 48.501s-34.834 60.167 -27.501 109.5c8 51.333 31.667 91.333 71 120s92.666 43 159.999 43h38c61.333 0 108 -13.833 140 -41.5s45.667 -64.5 41 -110.5h-125
c0.666992 14.667 -5.33301 26.667 -18 36s-31 14 -55 14h-38c-28.667 0 -50.334 -5.16699 -65.001 -15.5s-23.667 -25.5 -27 -45.5c-2.66699 -18.667 0.666016 -33 9.99902 -43s26.666 -17 51.999 -21l69 -10c64 -8.66699 109.667 -25.5 137 -50.5s37 -62.5 29 -112.5
c-8.66699 -53.333 -33.5 -95 -74.5 -125s-96.833 -45 -167.5 -45h-44zM289.004 644.999l128 140h140l-137 -140h-131z" />
    <glyph glyph-name="Scircumflex" unicode="&#x15c;" 
d="M256 -10c-74.667 0 -130.999 18.4961 -168.999 55.4961s-52 87.167 -42 150.5h125c-5.33301 -30 1.5 -53.5 20.5 -70.5s47.167 -25.5 84.5 -25.5c36 0 65.333 8.33301 88 25s36.667 39.667 42 69c4 26.667 0.333008 49.167 -11 67.5s-29 30.833 -53 37.5l-81 23
c-54.667 15.333 -94.834 41.833 -120.501 79.5s-34.834 82.5 -27.501 134.5c6.66699 41.333 21.834 77.333 45.501 108s54 54.334 91 71.001s78.833 25 125.5 25c70.667 0 123.834 -18.167 159.501 -54.5s48.834 -85.166 39.501 -146.499h-125
c4.66699 28.667 -1 51.167 -17 67.5s-41 24.5 -75 24.5c-32.667 0 -59.334 -7.66699 -80.001 -23s-33 -37 -37 -65c-4.66699 -26 -1.66699 -48.333 9 -67s28 -31.334 52 -38.001l83 -24c55.333 -15.333 95.833 -41.666 121.5 -78.999s34.167 -82.666 25.5 -135.999
c-6.66699 -42 -22.5 -78.667 -47.5 -110s-56.833 -55.666 -95.5 -72.999s-82.334 -26 -131.001 -26zM189.001 809.996l159 140h116l115 -140h-117l-65 73l-84 -73h-124z" />
    <glyph glyph-name="scircumflex" unicode="&#x15d;" 
d="M231 -10c-63.333 0 -111.662 14.666 -144.995 43.999s-47.333 68 -42 116h125c-1.33301 -17.333 5.16699 -31.333 19.5 -42s34.166 -16 59.499 -16h43c30.667 0 54.834 6 72.501 18s27.834 28.333 30.501 49c3.33301 19.333 -0.833984 34.833 -12.501 46.5
s-31.5 19.5 -59.5 23.5l-66 10c-61.333 8.66699 -104.833 24.834 -130.5 48.501s-34.834 60.167 -27.501 109.5c8 51.333 31.667 91.333 71 120s92.666 43 159.999 43h38c61.333 0 108 -13.833 140 -41.5s45.667 -64.5 41 -110.5h-125
c0.666992 14.667 -5.33301 26.667 -18 36s-31 14 -55 14h-38c-28.667 0 -50.334 -5.16699 -65.001 -15.5s-23.667 -25.5 -27 -45.5c-2.66699 -18.667 0.666016 -33 9.99902 -43s26.666 -17 51.999 -21l69 -10c64 -8.66699 109.667 -25.5 137 -50.5s37 -62.5 29 -112.5
c-8.66699 -53.333 -33.5 -95 -74.5 -125s-96.833 -45 -167.5 -45h-44zM173.004 644.999l159 140h116l115 -140h-117l-65 73l-84 -73h-124z" />
    <glyph glyph-name="Scedilla" unicode="&#x15e;" 
d="M121 -216l9.99707 63.999h76c16 0 29.5 3.83301 40.5 11.5s16.833 15.834 17.5 24.501c2.66699 13.333 -5.16602 24.5 -23.499 33.5s-45.166 13.5 -80.499 13.5l49 89h67l-29 -57c18.667 -2 37.834 -6.33301 57.501 -13s35.5 -16.5 47.5 -29.5s16.333 -29.167 13 -48.5
c-3.33301 -23.333 -18.5 -43.833 -45.5 -61.5s-60.5 -26.5 -100.5 -26.5h-99zM255.997 -10.001c-74.667 0 -130.999 18.4961 -168.999 55.4961s-52 87.167 -42 150.5h125c-5.33301 -30 1.5 -53.5 20.5 -70.5s47.167 -25.5 84.5 -25.5c36 0 65.333 8.33301 88 25
s36.667 39.667 42 69c4 26.667 0.333008 49.167 -11 67.5s-29 30.833 -53 37.5l-81 23c-54.667 15.333 -94.834 41.833 -120.501 79.5s-34.834 82.5 -27.501 134.5c6.66699 41.333 21.834 77.333 45.501 108s54 54.334 91 71.001s78.833 25 125.5 25
c70.667 0 123.834 -18.167 159.501 -54.5s48.834 -85.166 39.501 -146.499h-125c4.66699 28.667 -1 51.167 -17 67.5s-41 24.5 -75 24.5c-32.667 0 -59.334 -7.66699 -80.001 -23s-33 -37 -37 -65c-4.66699 -26 -1.66699 -48.333 9 -67s28 -31.334 52 -38.001l83 -24
c55.333 -15.333 95.833 -41.666 121.5 -78.999s34.167 -82.666 25.5 -135.999c-6.66699 -42 -22.5 -78.667 -47.5 -110s-56.833 -55.666 -95.5 -72.999s-82.334 -26 -131.001 -26z" />
    <glyph glyph-name="scedilla" unicode="&#x15f;" 
d="M206 -216l0.000976562 63.999h76c16 0 28.833 3.83301 38.5 11.5s14.5 15.834 14.5 24.501c0 13.333 -9.83301 24.5 -29.5 33.5s-47.167 13.5 -82.5 13.5l35 89h67l-20 -57c19.333 -2 39.166 -6.33301 59.499 -13s37.666 -16.5 51.999 -29.5s21.5 -29.167 21.5 -48.5
c0 -23.333 -12.167 -43.833 -36.5 -61.5s-56.166 -26.5 -95.499 -26.5h-100zM231.001 -10.001c-63.333 0 -111.662 14.666 -144.995 43.999s-47.333 68 -42 116h125c-1.33301 -17.333 5.16699 -31.333 19.5 -42s34.166 -16 59.499 -16h43c30.667 0 54.834 6 72.501 18
s27.834 28.333 30.501 49c3.33301 19.333 -0.833984 34.833 -12.501 46.5s-31.5 19.5 -59.5 23.5l-66 10c-61.333 8.66699 -104.833 24.834 -130.5 48.501s-34.834 60.167 -27.501 109.5c8 51.333 31.667 91.333 71 120s92.666 43 159.999 43h38
c61.333 0 108 -13.833 140 -41.5s45.667 -64.5 41 -110.5h-125c0.666992 14.667 -5.33301 26.667 -18 36s-31 14 -55 14h-38c-28.667 0 -50.334 -5.16699 -65.001 -15.5s-23.667 -25.5 -27 -45.5c-2.66699 -18.667 0.666016 -33 9.99902 -43s26.666 -17 51.999 -21l69 -10
c64 -8.66699 109.667 -25.5 137 -50.5s37 -62.5 29 -112.5c-8.66699 -53.333 -33.5 -95 -74.5 -125s-96.833 -45 -167.5 -45h-44z" />
    <glyph glyph-name="Scaron" unicode="&#x160;" 
d="M256 -10c-74.667 0 -130.999 18.4961 -168.999 55.4961s-52 87.167 -42 150.5h125c-5.33301 -30 1.5 -53.5 20.5 -70.5s47.167 -25.5 84.5 -25.5c36 0 65.333 8.33301 88 25s36.667 39.667 42 69c4 26.667 0.333008 49.167 -11 67.5s-29 30.833 -53 37.5l-81 23
c-54.667 15.333 -94.834 41.833 -120.501 79.5s-34.834 82.5 -27.501 134.5c6.66699 41.333 21.834 77.333 45.501 108s54 54.334 91 71.001s78.833 25 125.5 25c70.667 0 123.834 -18.167 159.501 -54.5s48.834 -85.166 39.501 -146.499h-125
c4.66699 28.667 -1 51.167 -17 67.5s-41 24.5 -75 24.5c-32.667 0 -59.334 -7.66699 -80.001 -23s-33 -37 -37 -65c-4.66699 -26 -1.66699 -48.333 9 -67s28 -31.334 52 -38.001l83 -24c55.333 -15.333 95.833 -41.666 121.5 -78.999s34.167 -82.666 25.5 -135.999
c-6.66699 -42 -22.5 -78.667 -47.5 -110s-56.833 -55.666 -95.5 -72.999s-82.334 -26 -131.001 -26zM326.001 809.996l-115 140h117l65 -73l84 73h124l-159 -140h-116z" />
    <glyph glyph-name="scaron" unicode="&#x161;" 
d="M231 -10c-63.333 0 -111.662 14.666 -144.995 43.999s-47.333 68 -42 116h125c-1.33301 -17.333 5.16699 -31.333 19.5 -42s34.166 -16 59.499 -16h43c30.667 0 54.834 6 72.501 18s27.834 28.333 30.501 49c3.33301 19.333 -0.833984 34.833 -12.501 46.5
s-31.5 19.5 -59.5 23.5l-66 10c-61.333 8.66699 -104.833 24.834 -130.5 48.501s-34.834 60.167 -27.501 109.5c8 51.333 31.667 91.333 71 120s92.666 43 159.999 43h38c61.333 0 108 -13.833 140 -41.5s45.667 -64.5 41 -110.5h-125
c0.666992 14.667 -5.33301 26.667 -18 36s-31 14 -55 14h-38c-28.667 0 -50.334 -5.16699 -65.001 -15.5s-23.667 -25.5 -27 -45.5c-2.66699 -18.667 0.666016 -33 9.99902 -43s26.666 -17 51.999 -21l69 -10c64 -8.66699 109.667 -25.5 137 -50.5s37 -62.5 29 -112.5
c-8.66699 -53.333 -33.5 -95 -74.5 -125s-96.833 -45 -167.5 -45h-44zM311.004 644.999l-115 140h117l65 -73l84 73h124l-159 -140h-116z" />
    <glyph glyph-name="uni0162" unicode="&#x162;" 
d="M173 -216l9.99707 63.999h76c16 0 29.5 3.83301 40.5 11.5s16.833 15.834 17.5 24.501c2.66699 13.333 -5.16602 24.5 -23.499 33.5s-45.166 13.5 -80.499 13.5l50 89l56 -20l-19 -37c18.667 -2 37.834 -6.33301 57.501 -13s35.5 -16.5 47.5 -29.5
s16.667 -29.167 14 -48.5c-4 -23.333 -19.5 -43.833 -46.5 -61.5s-60.167 -26.5 -99.5 -26.5h-100zM192.997 -0.000976562l98 614h-192l19 116h508l-19 -116h-191l-97 -614h-126z" />
    <glyph glyph-name="uni0163" unicode="&#x163;" 
d="M256 -216l0.000976562 63.999h76c16 0 28.833 3.83301 38.5 11.5s14.5 15.834 14.5 24.501c0 13.333 -9.83301 24.5 -29.5 33.5s-47.167 13.5 -82.5 13.5l35 89h67l-20 -57c19.333 -2 39.166 -6.33301 59.499 -13s37.666 -16.5 51.999 -29.5s21.5 -29.167 21.5 -48.5
c0 -23.333 -12.167 -43.833 -36.5 -61.5s-56.166 -26.5 -95.499 -26.5h-100zM316.001 -0.000976562c-52.667 0 -91.333 14.668 -116 44.001s-33 69.666 -25 120.999l43 272h-149l17 113h149l24 150h126l-24 -150h211l-18 -113h-211l-43 -272c-6 -34.667 8 -52 42 -52h150
l-17 -113h-159z" />
    <glyph glyph-name="Tcaron" unicode="&#x164;" 
d="M193 0l98 614h-192l19 116h508l-19 -116h-191l-97 -614h-126zM326 810l-115 140h117l65 -73l84 73h124l-159 -140h-116z" />
    <glyph glyph-name="tcaron" unicode="&#x165;" 
d="M427 620l109 155h115l-119 -155h-105zM316 0c-52.667 0 -91.333 14.668 -116 44.001s-33 69.666 -25 120.999l43 272h-149l17 113h149l24 150h126l-24 -150h211l-18 -113h-211l-43 -272c-6 -34.667 8 -52 42 -52h150l-17 -113h-159z" />
    <glyph glyph-name="Tbar" unicode="&#x166;" 
d="M105 283l16 99h392l-16 -99h-392zM193 0l98 614h-192l19 116h508l-19 -116h-191l-97 -614h-126z" />
    <glyph glyph-name="tbar" unicode="&#x167;" 
d="M68 228l16 98h408l-16 -98h-408zM316 0c-52.667 0 -91.333 14.668 -116 44.001s-33 69.666 -25 120.999l43 272h-149l17 113h149l24 150h126l-24 -150h211l-18 -113h-211l-43 -272c-6 -34.667 8 -52 42 -52h150l-17 -113h-159z" />
    <glyph glyph-name="Utilde" unicode="&#x168;" 
d="M254 -10c-71.333 0 -123.835 19.5 -157.502 58.5s-45.167 92.167 -34.5 159.5l82 522h126l-83 -521c-6 -34.667 -1.83301 -61.667 12.5 -81s38.5 -29 72.5 -29c32.667 0 59.334 9.66699 80.001 29s34 46.333 40 81l82 521h126l-83 -522
c-7.33301 -44.667 -22.666 -83.5 -45.999 -116.5s-53.333 -58.167 -90 -75.5s-79 -26 -127 -26zM453.998 806c-20.667 0 -36.998 3.16797 -48.998 9.50098s-21.667 13.833 -29 22.5s-14.5 16.167 -21.5 22.5s-15.5 9.5 -25.5 9.5c-8.66699 0 -16.334 -2.83301 -23.001 -8.5
s-10.667 -13.834 -12 -24.501l-5 -26h-76l5 33c5.33301 32.667 19 59.167 41 79.5s48 30.5 78 30.5c20.667 0 37 -3.16699 49 -9.5s21.667 -13.833 29 -22.5s14.5 -16.167 21.5 -22.5s15.5 -9.5 25.5 -9.5c9.33301 0 17 2.5 23 7.5s10 12.833 12 23.5l4 28h77l-5 -33
c-5.33301 -32.667 -18.833 -59.167 -40.5 -79.5s-47.834 -30.5 -78.501 -30.5z" />
    <glyph glyph-name="utilde" unicode="&#x169;" 
d="M254 -10c-70 0 -121.83 19.502 -155.497 58.502s-45.167 92.167 -34.5 159.5l54 342h125l-54 -341c-5.33301 -35.333 -0.833008 -62.5 13.5 -81.5s37.166 -28.5 68.499 -28.5s57.5 9.5 78.5 28.5s34.167 46.167 39.5 81.5l54 341h125l-54 -342
c-6.66699 -44.667 -21.834 -83.334 -45.501 -116.001s-53.834 -57.834 -90.501 -75.501s-78 -26.5 -124 -26.5zM428.003 641.002c-20.667 0 -36.9971 3.16797 -48.9971 9.50098s-21.667 13.833 -29 22.5s-14.5 16.167 -21.5 22.5s-15.5 9.5 -25.5 9.5
c-8.66699 0 -16.334 -2.83301 -23.001 -8.5s-11 -13.834 -13 -24.501l-4 -26h-76l5 33c5.33301 32.667 19 59.167 41 79.5s48 30.5 78 30.5c20.667 0 37 -3.16699 49 -9.5s21.5 -13.833 28.5 -22.5s14 -16.167 21 -22.5s15.5 -9.5 25.5 -9.5
c9.33301 0 17.166 2.5 23.499 7.5s10.5 12.833 12.5 23.5l4 28h77l-5 -33c-5.33301 -32.667 -18.833 -59.167 -40.5 -79.5s-47.834 -30.5 -78.501 -30.5z" />
    <glyph glyph-name="Umacron" unicode="&#x16a;" 
d="M254 -10c-71.333 0 -123.835 19.5 -157.502 58.5s-45.167 92.167 -34.5 159.5l82 522h126l-83 -521c-6 -34.667 -1.83301 -61.667 12.5 -81s38.5 -29 72.5 -29c32.667 0 59.334 9.66699 80.001 29s34 46.333 40 81l82 521h126l-83 -522
c-7.33301 -44.667 -22.666 -83.5 -45.999 -116.5s-53.333 -58.167 -90 -75.5s-79 -26 -127 -26zM215.998 828l14 96h344l-15 -96h-343z" />
    <glyph glyph-name="umacron" unicode="&#x16b;" 
d="M254 -10c-70 0 -121.83 19.502 -155.497 58.502s-45.167 92.167 -34.5 159.5l54 342h125l-54 -341c-5.33301 -35.333 -0.833008 -62.5 13.5 -81.5s37.166 -28.5 68.499 -28.5s57.5 9.5 78.5 28.5s34.167 46.167 39.5 81.5l54 341h125l-54 -342
c-6.66699 -44.667 -21.834 -83.334 -45.501 -116.001s-53.834 -57.834 -90.501 -75.501s-78 -26.5 -124 -26.5zM189.003 661.002l15 96h343l-14 -96h-344z" />
    <glyph glyph-name="Ubreve" unicode="&#x16c;" 
d="M254 -10c-71.333 0 -123.835 19.5 -157.502 58.5s-45.167 92.167 -34.5 159.5l82 522h126l-83 -521c-6 -34.667 -1.83301 -61.667 12.5 -81s38.5 -29 72.5 -29c32.667 0 59.334 9.66699 80.001 29s34 46.333 40 81l82 521h126l-83 -522
c-7.33301 -44.667 -22.666 -83.5 -45.999 -116.5s-53.333 -58.167 -90 -75.5s-79 -26 -127 -26zM382.998 802c-52 0 -91.8301 13.667 -119.497 41s-38.167 63 -31.5 107h95c-3.33301 -22 1 -39.667 13 -53s29.667 -20 53 -20s43.166 6.66699 59.499 20s26.166 31 29.499 53
h99c-6.66699 -44 -28.334 -79.667 -65.001 -107s-81 -41 -133 -41z" />
    <glyph glyph-name="ubreve" unicode="&#x16d;" 
d="M254 -10c-70 0 -121.83 19.502 -155.497 58.502s-45.167 92.167 -34.5 159.5l54 342h125l-54 -341c-5.33301 -35.333 -0.833008 -62.5 13.5 -81.5s37.166 -28.5 68.499 -28.5s57.5 9.5 78.5 28.5s34.167 46.167 39.5 81.5l54 341h125l-54 -342
c-6.66699 -44.667 -21.834 -83.334 -45.501 -116.001s-53.834 -57.834 -90.501 -75.501s-78 -26.5 -124 -26.5zM357.003 637.002c-52 0 -91.999 13.667 -119.999 41s-38.667 63 -32 107h96c-3.33301 -22 1 -39.667 13 -53s29.667 -20 53 -20c24 0 44 6.66699 60 20
s25.667 31 29 53h99c-6.66699 -44 -28.334 -79.667 -65.001 -107s-81 -41 -133 -41z" />
    <glyph glyph-name="Uring" unicode="&#x16e;" 
d="M254 -10c-71.333 0 -123.835 19.5 -157.502 58.5s-45.167 92.167 -34.5 159.5l82 522h126l-83 -521c-6 -34.667 -1.83301 -61.667 12.5 -81s38.5 -29 72.5 -29c32.667 0 59.334 9.66699 80.001 29s34 46.333 40 81l82 521h126l-83 -522
c-7.33301 -44.667 -22.666 -83.5 -45.999 -116.5s-53.333 -58.167 -90 -75.5s-79 -26 -127 -26zM375.998 758c-39.333 0 -69.332 11.167 -89.999 33.5s-28.334 51.833 -23.001 88.5c6 36 22.833 65.333 50.5 88s61.167 34 100.5 34c40 0 70.167 -11.167 90.5 -33.5
s27.833 -51.833 22.5 -88.5s-22 -66.167 -50 -88.5s-61.667 -33.5 -101 -33.5zM385.999 821c18 0 33.333 5.5 46 16.5s20.334 25.167 23.001 42.5c3.33301 18 0.333008 32.333 -9 43s-23.333 16 -42 16c-17.333 0 -32.333 -5.33301 -45 -16s-20.667 -25 -24 -43
c-2.66699 -17.333 0.666016 -31.5 9.99902 -42.5s23 -16.5 41 -16.5z" />
    <glyph glyph-name="uring" unicode="&#x16f;" 
d="M254 -10c-70 0 -121.83 19.502 -155.497 58.502s-45.167 92.167 -34.5 159.5l54 342h125l-54 -341c-5.33301 -35.333 -0.833008 -62.5 13.5 -81.5s37.166 -28.5 68.499 -28.5s57.5 9.5 78.5 28.5s34.167 46.167 39.5 81.5l54 341h125l-54 -342
c-6.66699 -44.667 -21.834 -83.334 -45.501 -116.001s-53.834 -57.834 -90.501 -75.501s-78 -26.5 -124 -26.5zM351.003 603.002c-39.333 0 -69.167 11.167 -89.5 33.5s-27.833 51.5 -22.5 87.5c5.33301 36.667 21.833 66.167 49.5 88.5s61.5 33.5 101.5 33.5
c39.333 0 69.333 -11.167 90 -33.5s28 -51.833 22 -88.5c-5.33301 -36 -21.833 -65.167 -49.5 -87.5s-61.5 -33.5 -101.5 -33.5zM362.002 666.002c18 0 33.333 5.33301 46 16s20.334 24.667 23.001 42c2.66699 18 -0.666016 32.333 -9.99902 43s-23 16 -41 16
s-33.333 -5.33301 -46 -16s-20.334 -25 -23.001 -43c-2.66699 -17.333 0.666016 -31.333 9.99902 -42s23 -16 41 -16z" />
    <glyph glyph-name="Uhungarumlaut" unicode="&#x170;" 
d="M254 -10c-71.333 0 -123.835 19.5 -157.502 58.5s-45.167 92.167 -34.5 159.5l82 522h126l-83 -521c-6 -34.667 -1.83301 -61.667 12.5 -81s38.5 -29 72.5 -29c32.667 0 59.334 9.66699 80.001 29s34 46.333 40 81l82 521h126l-83 -522
c-7.33301 -44.667 -22.666 -83.5 -45.999 -116.5s-53.333 -58.167 -90 -75.5s-79 -26 -127 -26zM407.998 810l129 140h125l-137 -140h-117zM202.998 810l130 140h124l-137 -140h-117z" />
    <glyph glyph-name="uhungarumlaut" unicode="&#x171;" 
d="M254 -10c-70 0 -121.83 19.502 -155.497 58.502s-45.167 92.167 -34.5 159.5l54 342h125l-54 -341c-5.33301 -35.333 -0.833008 -62.5 13.5 -81.5s37.166 -28.5 68.499 -28.5s57.5 9.5 78.5 28.5s34.167 46.167 39.5 81.5l54 341h125l-54 -342
c-6.66699 -44.667 -21.834 -83.334 -45.501 -116.001s-53.834 -57.834 -90.501 -75.501s-78 -26.5 -124 -26.5zM382.003 645.002l129 140h124l-137 -140h-116zM178.003 645.002l129 140h124l-137 -140h-116z" />
    <glyph glyph-name="Uogonek" unicode="&#x172;" 
d="M286 -216c-38.667 0 -67.9971 9.66992 -87.9971 29.0029s-27.333 44 -22 74c2 13.333 8.33301 27.166 19 41.499s24.334 28.5 41.001 42.5s34.667 26.333 54 37c-0.666992 -2.66699 -4.16699 -6.33398 -10.5 -11.001s-14.833 -7 -25.5 -7
c-46.667 0 -85.5 8.83301 -116.5 26.5s-53.167 42.667 -66.5 75s-16.666 70.5 -9.99902 114.5l83 524h126l-84 -524c-5.33301 -34 -0.833008 -60.167 13.5 -78.5s38.5 -27.5 72.5 -27.5c33.333 0 60.166 9.16699 80.499 27.5s33.166 44.5 38.499 78.5l83 524h126l-84 -524
c-6.66699 -40.667 -20.834 -76.834 -42.501 -108.501s-48.834 -56.5 -81.501 -74.5l-46 -33c-18.667 -14 -32.667 -27.5 -42 -40.5s-15 -25.167 -17 -36.5c-1.33301 -12 1.66699 -22.167 9 -30.5s18.666 -12.5 33.999 -12.5h65l-13 -86h-96z" />
    <glyph glyph-name="uogonek" unicode="&#x173;" 
d="M286 -216c-38.667 0 -67.9971 9.66895 -87.9971 29.002s-27.333 44 -22 74c2.66699 20 13.834 40.333 33.501 61s49.5 42.667 89.5 66c-0.666992 -3.33301 -3.83398 -6.83301 -9.50098 -10.5s-11.834 -6.83398 -18.501 -9.50098s-12.334 -4 -17.001 -4
c-70 0 -122 19.5 -156 58.5s-45.667 91.5 -35 157.5l55 344h125l-55 -344c-5.33301 -34.667 -1 -61.167 13 -79.5s37.667 -27.5 71 -27.5s59.666 9.16699 78.999 27.5s32 44.833 38 79.5l54 344h125l-54 -344c-6.66699 -39.333 -20 -74.333 -40 -105
s-45.333 -55.334 -76 -74.001l-48 -37c-19.333 -14.667 -34.166 -28.5 -44.499 -41.5s-16.5 -24.833 -18.5 -35.5c-1.33301 -12 1.66699 -22.167 9 -30.5s18.666 -12.5 33.999 -12.5h65l-13 -86h-96z" />
    <glyph glyph-name="Wcircumflex" unicode="&#x174;" 
d="M47 0l41.0029 730h105l-37 -510c-0.666992 -11.333 -1.66699 -25.166 -3 -41.499s-3 -32.833 -5 -49.5s-3.66699 -31.334 -5 -44.001c3.33301 12.667 6.83301 27.334 10.5 44.001s7.66699 33.167 12 49.5s8.16602 30.166 11.499 41.499l141 510h108l-25 -510
c-0.666992 -11.333 -1.33398 -25.166 -2.00098 -41.499l-2 -49.5c-0.666992 -16.667 -1.33398 -31.334 -2.00098 -44.001l9 44c3.33301 16.667 6.83301 33.167 10.5 49.5l9.5 41.5l125 510h107l-195 -730h-138l26 512c0.666992 12.667 1.66699 27.5 3 44.5l4 51
c1.33301 17 2.33301 31.5 3 43.5l-10 -43.5l-12 -51c-4 -17 -7.66699 -31.833 -11 -44.5l-140 -512h-139zM189.003 810l159 140h116l115 -140h-117l-65 73l-84 -73h-124z" />
    <glyph glyph-name="wcircumflex" unicode="&#x175;" 
d="M60 0l3.00195 549.997h101l-7 -337c-0.666992 -19.333 -1.33398 -40.666 -2.00098 -63.999s-1.66699 -42.666 -3 -57.999l17 58l18 64l106 337h99l-2 -337c0 -19.333 -0.333008 -40.833 -1 -64.5s-1.33398 -43.167 -2.00098 -58.5l15.5 59.5
c6.33301 23.667 12.5 44.834 18.5 63.501l102 337h100l-173 -550h-129l4 339c0.666992 18.667 1 39.5 1 62.5s0.333008 41.833 1 56.5c-4 -14.667 -9.5 -33.5 -16.5 -56.5l-18.5 -62.5l-103 -339h-129zM163.002 644.997l159 140h116l115 -140h-117l-65 73l-84 -73h-124z" />
    <glyph glyph-name="Ycircumflex" unicode="&#x176;" 
d="M193 0l42.001 265l-140 465h128l73 -253c5.33301 -20 9.66602 -39.667 12.999 -59s5.33301 -34.333 6 -45c4 10.667 10.333 25.667 19 45s18.667 39 30 59l152 253h133l-289 -465l-41 -265h-126zM189.001 810l159 140h116l115 -140h-117l-65 73l-84 -73h-124z" />
    <glyph glyph-name="ycircumflex" unicode="&#x177;" 
d="M77 -180l15.999 103.999h163c28 0 50.333 6.83301 67 20.5s27 33.167 31 58.5l7 43l18 109h-34l38 29c-7.33301 -44.667 -26.166 -79.834 -56.499 -105.501s-68.5 -38.5 -114.5 -38.5c-54 0 -94.333 18 -121 54s-35.334 84.333 -26.001 145l50 311h125l-48 -298
c-5.33301 -33.333 -0.5 -59 14.5 -77s37.833 -27 68.5 -27s56.334 9.33301 77.001 28s33.667 45.334 39 80.001l47 294h125l-86 -550c-8.66699 -55.333 -34 -99.166 -76 -131.499s-95 -48.5 -159 -48.5h-165zM162.999 644.999l159 140h116l115 -140h-117l-65 73l-84 -73
h-124z" />
    <glyph glyph-name="Ydieresis" unicode="&#x178;" 
d="M193 0l42.001 265l-140 465h128l73 -253c5.33301 -20 9.66602 -39.667 12.999 -59s5.33301 -34.333 6 -45c4 10.667 10.333 25.667 19 45s18.667 39 30 59l152 253h133l-289 -465l-41 -265h-126zM501.001 808c-22 0 -38.668 6.5 -50.001 19.5s-15.333 30.5 -12 52.5
c4 22.667 13.667 40.5 29 53.5s34.333 19.5 57 19.5c22 0 38.5 -6.5 49.5 -19.5s14.833 -30.833 11.5 -53.5c-3.33301 -22 -12.666 -39.5 -27.999 -52.5s-34.333 -19.5 -57 -19.5zM266 808c-22 0 -38.501 6.5 -49.501 19.5s-15.167 30.5 -12.5 52.5
c4 22.667 13.667 40.5 29 53.5s34.333 19.5 57 19.5c22 0 38.667 -6.5 50 -19.5s15 -30.833 11 -53.5c-3.33301 -22 -12.666 -39.5 -27.999 -52.5s-34.333 -19.5 -57 -19.5z" />
    <glyph glyph-name="Zacute" unicode="&#x179;" 
d="M36 0l18 119l368 495h-283l19 116h424l-19 -119l-368 -495h300l-18 -116h-441zM305 810l128 140h140l-137 -140h-131z" />
    <glyph glyph-name="zacute" unicode="&#x17a;" 
d="M34 0l18 113l335 327h-274l17 110h424l-18 -113l-337 -327h296l-17 -110h-444zM279 645l128 140h140l-137 -140h-131z" />
    <glyph glyph-name="Zdotaccent" unicode="&#x17b;" 
d="M36 0l18 119l368 495h-283l19 116h424l-19 -119l-368 -495h300l-18 -116h-441zM384 808c-25.333 0 -44.332 6.5 -56.999 19.5s-17.334 30.5 -14.001 52.5s13.5 39.5 30.5 52.5s38.167 19.5 63.5 19.5s44.333 -6.5 57 -19.5s17 -30.5 13 -52.5
c-2.66699 -22 -12.5 -39.5 -29.5 -52.5s-38.167 -19.5 -63.5 -19.5z" />
    <glyph glyph-name="zdotaccent" unicode="&#x17c;" 
d="M34 0l18 113l335 327h-274l17 110h424l-18 -113l-337 -327h296l-17 -110h-444zM358 642c-25.333 0 -44.332 6.5 -56.999 19.5s-17.334 30.5 -14.001 52.5c4 22 14.333 39.5 31 52.5s37.667 19.5 63 19.5c24.667 0 43.5 -6.5 56.5 -19.5s17.5 -30.5 13.5 -52.5
c-3.33301 -22 -13.333 -39.5 -30 -52.5s-37.667 -19.5 -63 -19.5z" />
    <glyph glyph-name="Zcaron" unicode="&#x17d;" 
d="M36 0l18 119l368 495h-283l19 116h424l-19 -119l-368 -495h300l-18 -116h-441zM326 810l-115 140h117l65 -73l84 73h124l-159 -140h-116z" />
    <glyph glyph-name="zcaron" unicode="&#x17e;" 
d="M34 0l18 113l335 327h-274l17 110h424l-18 -113l-337 -327h296l-17 -110h-444zM301 645l-115 140h117l65 -73l84 73h124l-159 -140h-116z" />
    <glyph glyph-name="longs" unicode="&#x17f;" 
d="M-55 -180l17 103.998h104c27.333 0 49.166 6.83301 65.499 20.5s26.5 33.167 30.5 58.5l89 561c5.33301 34 17.333 63.333 36 88s42.834 43.834 72.501 57.501s63.167 20.5 100.5 20.5h166l-17 -110h-164c-19.333 0 -35 -5 -47 -15s-19.667 -24.667 -23 -44l-89 -561
c-8 -55.333 -33 -99.166 -75 -131.499s-95 -48.5 -159 -48.5h-107z" />
    <glyph glyph-name="uni018F" unicode="&#x18f;" 
d="M255 -10c-46.667 0 -85.666 9 -116.999 27s-53.666 43.167 -66.999 75.5s-16.666 70.166 -9.99902 113.499l32 203h330l18 116c6 34 2 60.167 -12 78.5s-38 27.5 -72 27.5c-33.333 0 -60.166 -9.16699 -80.499 -27.5s-33.166 -44.833 -38.499 -79.5h-126
c7.33301 44 22.666 82.167 45.999 114.5s53.5 57.333 90.5 75s78.833 26.5 125.5 26.5c70 0 122.167 -19.5 156.5 -58.5s46.166 -91.5 35.499 -157.5l-50 -318c-6.66699 -43.333 -21.834 -81.166 -45.501 -113.499s-53.834 -57.5 -90.501 -75.5s-78.334 -27 -125.001 -27z
M271.001 88c36.667 0 64.333 10.167 83 30.5s31 49.5 37 87.5l17 110h-214l11 9l-19 -119c-6 -39.333 -2.16699 -68.833 11.5 -88.5s38.167 -29.5 73.5 -29.5z" />
    <glyph glyph-name="florin" unicode="&#x192;" 
d="M-73 -180l19.002 119h117c29.333 0 53.666 8.16699 72.999 24.5s31.333 38.5 36 66.5l42 267h-157l18 110h157l26 163c8 49.333 29.167 88.333 63.5 117s77.166 43 128.499 43h169l-18 -109h-157c-16.667 0 -30.5 -4.5 -41.5 -13.5s-17.833 -21.5 -20.5 -37.5l-25 -163
h213l-17 -110h-214l-44 -276c-6 -40 -21 -75.167 -45 -105.5s-54.167 -53.833 -90.5 -70.5s-76.833 -25 -121.5 -25h-111z" />
    <glyph glyph-name="Ohorn" unicode="&#x1a0;" 
d="M442 615l14 85h37c11.333 0 20.5 3.16699 27.5 9.5s11.167 14.833 12.5 25.5l12 75h102l-12 -77c-5.33301 -36 -21.5 -64.667 -48.5 -86s-59.833 -32 -98.5 -32h-46zM254 -10c-46.667 0 -85.667 8.83203 -117 26.499s-53.666 42.667 -66.999 75
s-16.666 70.5 -9.99902 114.5l50 318c7.33301 44 22.833 82.167 46.5 114.5s54 57.333 91 75s78.833 26.5 125.5 26.5c47.333 0 86.666 -8.83301 117.999 -26.5s53.666 -42.667 66.999 -75s16.333 -70.166 9 -113.499l-50 -319c-6.66699 -44 -22 -82.167 -46 -114.5
s-54.333 -57.333 -91 -75s-78.667 -26.5 -126 -26.5zM272 99.999c33.333 0 60.3311 9.16699 80.998 27.5s33.667 44.5 39 78.5l50 318c6 34.667 1.66699 61 -13 79s-39 27 -73 27s-61.167 -9 -81.5 -27s-33.166 -44.333 -38.499 -79l-51 -318
c-5.33301 -34 -0.666016 -60.167 14.001 -78.5s39 -27.5 73 -27.5z" />
    <glyph glyph-name="ohorn" unicode="&#x1a1;" 
d="M404 445l14 85h49c11.333 0 20.5 3.16699 27.5 9.5s11.167 14.833 12.5 25.5l12 75h101l-12 -77c-5.33301 -36 -21.5 -64.667 -48.5 -86s-59.833 -32 -98.5 -32h-57zM254 -10c-46.667 0 -85.6699 8.83203 -117.003 26.499s-53.666 42.667 -66.999 75
s-16.666 70.5 -9.99902 114.5l22 138c7.33301 44 22.833 82.167 46.5 114.5s54 57.333 91 75s78.833 26.5 125.5 26.5c47.333 0 86.5 -8.83301 117.5 -26.5s53.333 -42.667 67 -75s16.834 -70.166 9.50098 -113.499l-22 -139c-6.66699 -44 -22 -82.167 -46 -114.5
s-54.333 -57.333 -91 -75s-78.667 -26.5 -126 -26.5zM271.997 98.999c33.333 0 60.335 9.16699 81.002 27.5s33.667 44.833 39 79.5l22 138c5.33301 34.667 0.666016 61.167 -14.001 79.5s-39 27.5 -73 27.5c-32.667 0 -59.334 -9.16699 -80.001 -27.5
s-34 -44.833 -40 -79.5l-22 -138c-5.33301 -34.667 -0.5 -61.167 14.5 -79.5s39.167 -27.5 72.5 -27.5z" />
    <glyph glyph-name="Uhorn" unicode="&#x1af;" 
d="M500 645l13 85h50c11.333 0 20.5 3.16699 27.5 9.5s11.167 14.833 12.5 25.5l12 75h102l-13 -77c-5.33301 -36 -21.5 -64.667 -48.5 -86s-59.833 -32 -98.5 -32h-57zM254 -10c-71.333 0 -123.835 19.5 -157.502 58.5s-45.167 92.167 -34.5 159.5l82 522h126l-83 -521
c-6 -34.667 -1.83301 -61.667 12.5 -81s38.5 -29 72.5 -29c32.667 0 59.334 9.66699 80.001 29s34 46.333 40 81l82 521h126l-83 -522c-7.33301 -44.667 -22.666 -83.5 -45.999 -116.5s-53.333 -58.167 -90 -75.5s-79 -26 -127 -26z" />
    <glyph glyph-name="uhorn" unicode="&#x1b0;" 
d="M63 205l55.0029 344.999h125l-55 -346c-5.33301 -34 -1.66602 -60 11.001 -78s33 -27 61 -27s51.167 9 69.5 27s30.166 44 35.499 78l55 346h107c11.333 0 20.5 3.16699 27.5 9.5s11.5 14.833 13.5 25.5l12 75h101l-12 -77c-6 -36 -20.833 -64.667 -44.5 -86
s-54.834 -32 -93.501 -32l-41 -260c-6.66699 -44 -21.334 -82.167 -44.001 -114.5s-51.334 -57.166 -86.001 -74.499s-74 -26 -118 -26c-66 0 -115 19.167 -147 57.5s-42.667 90.833 -32 157.5z" />
    <glyph glyph-name="uni01CD" unicode="&#x1cd;" 
d="M-9 0l300 730h161l69 -730h-124l-12 177h-194l-68 -177h-132zM229 279h149l-13 196l-5.5 88.5c-1.66699 26.333 -2.5 45.5 -2.5 57.5l-19.5 -57.5c-9 -26.333 -19.5 -55.5 -31.5 -87.5zM326 810l-115 140h117l65 -73l84 73h124l-159 -140h-116z" />
    <glyph glyph-name="uni01CE" unicode="&#x1ce;" 
d="M208 -10c-55.333 0 -96.499 19.0039 -123.499 57.0039s-35.167 89 -24.5 153l23 149c7.33301 43.333 21 80.666 41 111.999s45 55.666 75 72.999s63.333 26 100 26c45.333 0 79.166 -12.833 101.499 -38.5s29.833 -60.834 22.5 -105.501l-23 29h28l14 105h125l-87 -550
h-123l17 105h-27l32 29c-7.33301 -44.667 -26.333 -79.834 -57 -105.501s-68.667 -38.5 -114 -38.5zM270.001 98.0039c31.333 0 57.3301 9.50195 77.9971 28.502s33.667 45.5 39 79.5l22 138c6 34 1.33301 60.5 -14 79.5s-38.666 28.5 -69.999 28.5
c-32 0 -58.167 -9.33301 -78.5 -28s-33.166 -45.334 -38.499 -80.001l-22 -138c-6 -34.667 -1.66699 -61.334 13 -80.001s38.334 -28 71.001 -28zM305.998 645.006l-115 140h117l65 -73l84 73h124l-159 -140h-116z" />
    <glyph glyph-name="Gcaron" unicode="&#x1e6;" 
d="M258 -10c-46.667 0 -86.167 8.83398 -118.5 26.501s-55.333 42.667 -69 75s-17.167 70.5 -10.5 114.5l50 318c7.33301 44.667 23.166 83 47.499 115s55.333 56.833 93 74.5s79.834 26.5 126.501 26.5c47.333 0 86.666 -8.83301 117.999 -26.5s54.166 -42.667 68.499 -75
s17.833 -70.5 10.5 -114.5h-125c6 34.667 1.16699 61 -14.5 79s-40.5 27 -74.5 27s-61.833 -9 -83.5 -27s-35.167 -44 -40.5 -78l-51 -319c-5.33301 -34 0 -60.333 16 -79s41 -28 75 -28c33.333 0 60.833 9.33301 82.5 28s35.167 45 40.5 79l12 74h-125l17 108h250l-29 -182
c-6.66699 -43.333 -22.167 -81.333 -46.5 -114s-55.166 -57.834 -92.499 -75.501s-79.666 -26.5 -126.999 -26.5zM326 810.001l-115 140h117l65 -73l84 73h124l-159 -140h-116z" />
    <glyph glyph-name="gcaron" unicode="&#x1e7;" 
d="M79 -180l17 104h163c28 0 50.167 6.83301 66.5 20.5s26.833 33.167 31.5 58.5l6 41l19 103h-28l32 27c-8 -44.667 -27 -79.5 -57 -104.5s-67.333 -37.5 -112 -37.5c-56 0 -97.667 19 -125 57s-35.666 89.333 -24.999 154l17 107c6.66699 42.667 20 79.667 40 111
s45.167 55.666 75.5 72.999s63.833 26 100.5 26c45.333 0 79.166 -12.5 101.499 -37.5s29.833 -59.833 22.5 -104.5l-24 27h28l14 105h125l-87 -550c-9.33301 -55.333 -34.833 -99.166 -76.5 -131.499s-94.5 -48.5 -158.5 -48.5h-166zM276 140
c32 0 58.333 9.50195 79 28.502s34 45.5 40 79.5l14 96c6 34 1.5 60.5 -13.5 79.5s-38.167 28.5 -69.5 28.5c-32.667 0 -59 -9.33301 -79 -28s-33 -45.334 -39 -80.001l-15 -96c-5.33301 -34.667 -0.833008 -61.334 13.5 -80.001s37.5 -28 69.5 -28zM298 645.002l-115 140
h117l65 -73l84 73h124l-159 -140h-116z" />
    <glyph glyph-name="uni01EA" unicode="&#x1ea;" 
d="M287 -216c-39.333 0 -68.8369 9.66895 -88.5039 29.002s-27.167 44 -22.5 74c2 13.333 8.33301 27.166 19 41.499s24.5 28.5 41.5 42.5s35.167 26.333 54.5 37c-1.33301 -2.66699 -5.16602 -6.33398 -11.499 -11.001s-14.5 -7 -24.5 -7
c-46.667 0 -85.667 8.83301 -117 26.5s-53.666 42.667 -66.999 75s-16.666 70.5 -9.99902 114.5l50 318c7.33301 44 22.833 82.167 46.5 114.5s54 57.333 91 75s78.833 26.5 125.5 26.5s85.667 -8.83301 117 -26.5s53.833 -42.667 67.5 -75s16.834 -70.166 9.50098 -113.499
l-50 -319c-6.66699 -40.667 -21 -76.834 -43 -108.501s-49.667 -56.5 -83 -74.5l-45 -33c-18.667 -14 -32.667 -27.5 -42 -40.5s-15 -25.167 -17 -36.5c-2 -12 0.666992 -22.167 8 -30.5s19 -12.5 35 -12.5h65l-14 -86h-95zM271.996 100.002c34 0 61.167 9.16699 81.5 27.5
s33.166 44.5 38.499 78.5l51 318c6 34.667 1.66699 61 -13 79s-39.334 27 -74.001 27c-33.333 0 -60.166 -9 -80.499 -27s-33.5 -44.333 -39.5 -79l-50 -318c-5.33301 -34 -0.666016 -60.167 14.001 -78.5s38.667 -27.5 72 -27.5z" />
    <glyph glyph-name="uni01EB" unicode="&#x1eb;" 
d="M286 -216c-38.667 0 -68.001 9.66797 -88.001 29.001s-27.333 44 -22 74c2.66699 20 13.834 40.333 33.501 61s49.5 42.667 89.5 66c-0.666992 -3.33301 -3.83398 -6.83301 -9.50098 -10.5s-11.834 -6.83398 -18.501 -9.50098s-12.334 -4 -17.001 -4
c-46.667 0 -85.667 8.83301 -117 26.5s-53.666 42.667 -66.999 75s-16.666 70.5 -9.99902 114.5l22 138c7.33301 44 22.833 82.167 46.5 114.5s54 57.333 91 75s78.833 26.5 125.5 26.5c47.333 0 86.5 -8.83301 117.5 -26.5s53.333 -42.667 67 -75
s16.834 -70.166 9.50098 -113.499l-22 -139c-6 -39.333 -19.667 -74.333 -41 -105s-47.333 -55.334 -78 -74.001l-48 -37c-19.333 -14.667 -34.166 -28.5 -44.499 -41.5s-16.5 -24.833 -18.5 -35.5c-1.33301 -12 1.66699 -22.167 9 -30.5s18.666 -12.5 33.999 -12.5h65
l-13 -86h-96zM271.999 99.001c33.333 0 60.335 9.16699 81.002 27.5s33.667 44.833 39 79.5l22 138c5.33301 34.667 0.666016 61.167 -14.001 79.5s-39 27.5 -73 27.5c-32.667 0 -59.334 -9.16699 -80.001 -27.5s-34 -44.833 -40 -79.5l-22 -138
c-5.33301 -34.667 -0.5 -61.167 14.5 -79.5s39.167 -27.5 72.5 -27.5z" />
    <glyph glyph-name="uni01F4" unicode="&#x1f4;" 
d="M258 -10c-46.667 0 -86.167 8.83398 -118.5 26.501s-55.333 42.667 -69 75s-17.167 70.5 -10.5 114.5l50 318c7.33301 44.667 23.166 83 47.499 115s55.333 56.833 93 74.5s79.834 26.5 126.501 26.5c47.333 0 86.666 -8.83301 117.999 -26.5s54.166 -42.667 68.499 -75
s17.833 -70.5 10.5 -114.5h-125c6 34.667 1.16699 61 -14.5 79s-40.5 27 -74.5 27s-61.833 -9 -83.5 -27s-35.167 -44 -40.5 -78l-51 -319c-5.33301 -34 0 -60.333 16 -79s41 -28 75 -28c33.333 0 60.833 9.33301 82.5 28s35.167 45 40.5 79l12 74h-125l17 108h250l-29 -182
c-6.66699 -43.333 -22.167 -81.333 -46.5 -114s-55.166 -57.834 -92.499 -75.501s-79.666 -26.5 -126.999 -26.5zM305 810.001l128 140h140l-137 -140h-131z" />
    <glyph glyph-name="uni01F5" unicode="&#x1f5;" 
d="M79 -180l17 104h163c28 0 50.167 6.83301 66.5 20.5s26.833 33.167 31.5 58.5l6 41l19 103h-28l32 27c-8 -44.667 -27 -79.5 -57 -104.5s-67.333 -37.5 -112 -37.5c-56 0 -97.667 19 -125 57s-35.666 89.333 -24.999 154l17 107c6.66699 42.667 20 79.667 40 111
s45.167 55.666 75.5 72.999s63.833 26 100.5 26c45.333 0 79.166 -12.5 101.499 -37.5s29.833 -59.833 22.5 -104.5l-24 27h28l14 105h125l-87 -550c-9.33301 -55.333 -34.833 -99.166 -76.5 -131.499s-94.5 -48.5 -158.5 -48.5h-166zM276 140
c32 0 58.333 9.50195 79 28.502s34 45.5 40 79.5l14 96c6 34 1.5 60.5 -13.5 79.5s-38.167 28.5 -69.5 28.5c-32.667 0 -59 -9.33301 -79 -28s-33 -45.334 -39 -80.001l-15 -96c-5.33301 -34.667 -0.833008 -61.334 13.5 -80.001s37.5 -28 69.5 -28zM281 645.002l128 140
h140l-137 -140h-131z" />
    <glyph glyph-name="AEacute" unicode="&#x1fc;" 
d="M-32 0l257 730h423l-17 -107h-172l-30 -194h146l-18 -110h-146l-34 -211h172l-17 -108h-280l28 181h-130l-60 -181h-122zM181 273h114l55 350h-51zM310 810l128 140h140l-137 -140h-131z" />
    <glyph glyph-name="aeacute" unicode="&#x1fd;" 
d="M125 -10c-40.667 0 -71.1719 13.333 -91.5049 40s-27.166 62 -20.499 106l8 54c6.66699 42 26.5 75.5 59.5 100.5s73.833 37.5 122.5 37.5h55l13 77c3.33301 22 1.33301 38.5 -6 49.5s-19.666 16.5 -36.999 16.5c-16.667 0 -30.834 -5.5 -42.501 -16.5
s-19.167 -26.5 -22.5 -46.5h-102c7.33301 46 26 82.833 56 110.5s66.333 41.5 109 41.5c25.333 0 45.666 -4.16699 60.999 -12.5s26.5 -18.5 33.5 -30.5s10.5 -23.333 10.5 -34h6c3.33301 10.667 10.333 22 21 34s24.834 22.167 42.501 30.5s39.167 12.5 64.5 12.5
c44 0 77 -14 99 -42s29 -65.333 21 -112l-24 -154h-214l-17 -108c-3.33301 -20 -0.833008 -35.833 7.5 -47.5s20.833 -17.5 37.5 -17.5c17.333 0 31.833 5 43.5 15s18.834 24 21.501 42h103c-6.66699 -43.333 -25.667 -78.5 -57 -105.5s-68.666 -40.5 -111.999 -40.5
c-25.333 0 -45.5 4.16699 -60.5 12.5s-25.833 18.5 -32.5 30.5s-10 23.333 -10 34h-7c-3.33301 -10.667 -10.666 -22 -21.999 -34s-26.666 -22.167 -45.999 -30.5s-43 -12.5 -71 -12.5zM163.995 79c17.333 0 31.835 5.83301 43.502 17.5s19.167 27.5 22.5 47.5l17 108h-55
c-17.333 0 -31.833 -5.5 -43.5 -16.5s-19.167 -26.167 -22.5 -45.5l-9 -54c-2.66699 -18 0.166016 -32 8.49902 -42s21.166 -15 38.499 -15zM358.997 328h111l13 78c2.66699 20.667 0 36.667 -8 48s-20.667 17 -38 17s-31.833 -5.83301 -43.5 -17.5
s-19.167 -27.5 -22.5 -47.5zM278.997 645l128 140h140l-137 -140h-131z" />
    <glyph glyph-name="Oslashacute" unicode="&#x1fe;" 
d="M-27 -40l574 790h105l-574 -790h-105zM254 -10c-46.667 0 -85.6699 8.83203 -117.003 26.499s-53.666 42.667 -66.999 75s-16.666 70.5 -9.99902 114.5l50 318c7.33301 44 22.833 82.167 46.5 114.5s54 57.333 91 75s78.833 26.5 125.5 26.5
c47.333 0 86.5 -8.83301 117.5 -26.5s53.333 -42.667 67 -75s16.834 -70.166 9.50098 -113.499l-50 -319c-6.66699 -44 -22 -82.167 -46 -114.5s-54.333 -57.333 -91 -75s-78.667 -26.5 -126 -26.5zM271.997 99.999c34 0 61.666 9.16699 82.999 27.5
s34.666 44.5 39.999 78.5l50 318c6 34.667 1.16699 61 -14.5 79s-40.5 27 -74.5 27s-61.667 -9 -83 -27s-34.666 -44.333 -39.999 -79l-51 -318c-5.33301 -34 -0.166016 -60.167 15.501 -78.5s40.5 -27.5 74.5 -27.5zM304.996 809.999l128 140h140l-137 -140h-131z" />
    <glyph glyph-name="oslashacute" unicode="&#x1ff;" 
d="M-20 -30l534 620h106l-534 -620h-106zM254 -10c-46.667 0 -85.667 8.83203 -117 26.499s-53.666 42.667 -66.999 75s-16.666 70.5 -9.99902 114.5l22 138c7.33301 44 22.833 82.167 46.5 114.5s54 57.333 91 75s78.833 26.5 125.5 26.5
c47.333 0 86.666 -8.83301 117.999 -26.5s53.666 -42.667 66.999 -75s16.333 -70.166 9 -113.499l-22 -139c-6.66699 -44 -22 -82.167 -46 -114.5s-54.333 -57.333 -91 -75s-78.667 -26.5 -126 -26.5zM272 98.999c34.667 0 63.334 9.5 86.001 28.5s36.667 45.167 42 78.5
l22 138c5.33301 33.333 -0.333984 59.5 -17.001 78.5s-42.667 28.5 -78 28.5c-34.667 0 -63.334 -9.5 -86.001 -28.5s-36.667 -45.167 -42 -78.5l-22 -138c-5.33301 -33.333 0.333984 -59.5 17.001 -78.5s42.667 -28.5 78 -28.5zM279 644.999l128 140h140l-137 -140h-131z
" />
    <glyph glyph-name="uni0218" unicode="&#x218;" 
d="M256 -10c-74.667 0 -130.999 18.4961 -168.999 55.4961s-52 87.167 -42 150.5h125c-5.33301 -30 1.5 -53.5 20.5 -70.5s47.167 -25.5 84.5 -25.5c36 0 65.333 8.33301 88 25s36.667 39.667 42 69c4 26.667 0.333008 49.167 -11 67.5s-29 30.833 -53 37.5l-81 23
c-54.667 15.333 -94.834 41.833 -120.501 79.5s-34.834 82.5 -27.501 134.5c6.66699 41.333 21.834 77.333 45.501 108s54 54.334 91 71.001s78.833 25 125.5 25c70.667 0 123.834 -18.167 159.501 -54.5s48.834 -85.166 39.501 -146.499h-125
c4.66699 28.667 -1 51.167 -17 67.5s-41 24.5 -75 24.5c-32.667 0 -59.334 -7.66699 -80.001 -23s-33 -37 -37 -65c-4.66699 -26 -1.66699 -48.333 9 -67s28 -31.334 52 -38.001l83 -24c55.333 -15.333 95.833 -41.666 121.5 -78.999s34.167 -82.666 25.5 -135.999
c-6.66699 -42 -22.5 -78.667 -47.5 -110s-56.833 -55.666 -95.5 -72.999s-82.334 -26 -131.001 -26zM99.001 -240.004l118 145h132l-134 -145h-116z" />
    <glyph glyph-name="uni0219" unicode="&#x219;" 
d="M231 -10c-63.333 0 -111.662 14.666 -144.995 43.999s-47.333 68 -42 116h125c-1.33301 -17.333 5.16699 -31.333 19.5 -42s34.166 -16 59.499 -16h43c30.667 0 54.834 6 72.501 18s27.834 28.333 30.501 49c3.33301 19.333 -0.833984 34.833 -12.501 46.5
s-31.5 19.5 -59.5 23.5l-66 10c-61.333 8.66699 -104.833 24.834 -130.5 48.501s-34.834 60.167 -27.501 109.5c8 51.333 31.667 91.333 71 120s92.666 43 159.999 43h38c61.333 0 108 -13.833 140 -41.5s45.667 -64.5 41 -110.5h-125
c0.666992 14.667 -5.33301 26.667 -18 36s-31 14 -55 14h-38c-28.667 0 -50.334 -5.16699 -65.001 -15.5s-23.667 -25.5 -27 -45.5c-2.66699 -18.667 0.666016 -33 9.99902 -43s26.666 -17 51.999 -21l69 -10c64 -8.66699 109.667 -25.5 137 -50.5s37 -62.5 29 -112.5
c-8.66699 -53.333 -33.5 -95 -74.5 -125s-96.833 -45 -167.5 -45h-44zM94.0039 -240.001l118 145h132l-134 -145h-116z" />
    <glyph glyph-name="uni021A" unicode="&#x21a;" 
d="M193 0l98 614h-192l19 116h508l-19 -116h-191l-97 -614h-126zM61 -240l118 145h132l-134 -145h-116z" />
    <glyph glyph-name="uni021B" unicode="&#x21b;" 
d="M316 0c-52.667 0 -91.333 14.668 -116 44.001s-33 69.666 -25 120.999l43 272h-149l17 113h149l24 150h126l-24 -150h211l-18 -113h-211l-43 -272c-6 -34.667 8 -52 42 -52h150l-17 -113h-159zM99.001 -239.999l118 145h132l-134 -145h-116z" />
    <glyph glyph-name="uni0232" unicode="&#x232;" 
d="M193 0l42.001 265l-140 465h128l73 -253c5.33301 -20 9.66602 -39.667 12.999 -59s5.33301 -34.333 6 -45c4 10.667 10.333 25.667 19 45s18.667 39 30 59l152 253h133l-289 -465l-41 -265h-126zM216.001 828l14 96h344l-15 -96h-343z" />
    <glyph glyph-name="uni0233" unicode="&#x233;" 
d="M77 -180l15.999 103.999h163c28 0 50.333 6.83301 67 20.5s27 33.167 31 58.5l7 43l18 109h-34l38 29c-7.33301 -44.667 -26.166 -79.834 -56.499 -105.501s-68.5 -38.5 -114.5 -38.5c-54 0 -94.333 18 -121 54s-35.334 84.333 -26.001 145l50 311h125l-48 -298
c-5.33301 -33.333 -0.5 -59 14.5 -77s37.833 -27 68.5 -27s56.334 9.33301 77.001 28s33.667 45.334 39 80.001l47 294h125l-86 -550c-8.66699 -55.333 -34 -99.166 -76 -131.499s-95 -48.5 -159 -48.5h-165zM188.999 660.999l15 96h343l-14 -96h-344z" />
    <glyph glyph-name="uni0237" unicode="&#x237;" 
d="M9 -180l19.001 116h147c33.333 0 60.5 9 81.5 27s33.833 43.333 38.5 76l63 395h-221l18 116h346l-81 -514c-6.66699 -44 -21.834 -82.167 -45.501 -114.5s-53.5 -57.333 -89.5 -75s-76.667 -26.5 -122 -26.5h-154z" />
    <glyph glyph-name="uni0259" unicode="&#x259;" 
d="M253 -10c-46 0 -84.501 9 -115.501 27s-53.167 43.167 -66.5 75.5s-16.666 70.166 -9.99902 113.499l16 99h335l6 39c6 38.667 1.5 67.834 -13.5 87.501s-40.833 29.5 -77.5 29.5c-28 0 -50.833 -4.83301 -68.5 -14.5s-30.834 -23.834 -39.501 -42.501h-123
c17.333 47.333 48.333 85.166 93 113.499s96.334 42.5 155.001 42.5c47.333 0 86.5 -9 117.5 -27s53.333 -43.167 67 -75.5s16.834 -70.166 9.50098 -113.499l-22 -138c-6.66699 -43.333 -21.834 -81.166 -45.501 -113.499s-54 -57.5 -91 -75.5s-79.167 -27 -126.5 -27z
M269.999 88c36 0 64.5 10.167 85.5 30.5s34.5 49.5 40.5 87.5l3 21h-223l10 9l-5 -30c-6 -38 -1.66699 -67.167 13 -87.5s40 -30.5 76 -30.5z" />
    <glyph glyph-name="uni02B9" unicode="&#x2b9;" 
d="M171 409l129 311h160l-179 -311h-110z" />
    <glyph glyph-name="uni02BA" unicode="&#x2ba;" 
d="M342 409l129 311h159l-179 -311h-109zM67 409l129 311h159l-179 -311h-109z" />
    <glyph glyph-name="uni02BC" unicode="&#x2bc;" 
d="M180 465l129 311h160l-179 -311h-110z" />
    <glyph glyph-name="circumflex" unicode="&#x2c6;" 
d="M163 645l159 140h116l115 -140h-117l-65 73l-84 -73h-124z" />
    <glyph glyph-name="caron" unicode="&#x2c7;" 
d="M301 645l-115 140h117l65 -73l84 73h124l-159 -140h-116z" />
    <glyph glyph-name="uni02C9" unicode="&#x2c9;" 
d="M249.693 661l30.2051 96h343l-29.2051 -96h-344z" />
    <glyph glyph-name="breve" unicode="&#x2d8;" 
d="M357 637c-52 0 -91.999 13.667 -119.999 41s-38.667 63 -32 107h96c-3.33301 -22 1 -39.667 13 -53s29.667 -20 53 -20c24 0 44 6.66699 60 20s25.667 31 29 53h99c-6.66699 -44 -28.334 -79.667 -65.001 -107s-81 -41 -133 -41z" />
    <glyph glyph-name="dotaccent" unicode="&#x2d9;" 
d="M358 642c-25.333 0 -44.332 6.5 -56.999 19.5s-17.334 30.5 -14.001 52.5c4 22 14.333 39.5 31 52.5s37.667 19.5 63 19.5c24.667 0 43.5 -6.5 56.5 -19.5s17.5 -30.5 13.5 -52.5c-3.33301 -22 -13.333 -39.5 -30 -52.5s-37.667 -19.5 -63 -19.5z" />
    <glyph glyph-name="ring" unicode="&#x2da;" 
d="M351 603c-39.333 0 -69.167 11.167 -89.5 33.5s-27.833 51.5 -22.5 87.5c5.33301 36.667 21.833 66.167 49.5 88.5s61.5 33.5 101.5 33.5c39.333 0 69.333 -11.167 90 -33.5s28 -51.833 22 -88.5c-5.33301 -36 -21.833 -65.167 -49.5 -87.5s-61.5 -33.5 -101.5 -33.5z
M361.999 666c18 0 33.333 5.33301 46 16s20.334 24.667 23.001 42c2.66699 18 -0.666016 32.333 -9.99902 43s-23 16 -41 16s-33.333 -5.33301 -46 -16s-20.334 -25 -23.001 -43c-2.66699 -17.333 0.666016 -31.333 9.99902 -42s23 -16 41 -16z" />
    <glyph glyph-name="ogonek" unicode="&#x2db;" 
d="M222 -216c-38.667 0 -67.999 9.66699 -87.999 29s-27.333 44 -22 74c3.33301 22 15.166 43.667 35.499 65s48.5 41 84.5 59h81l-27 -21c-19.333 -14.667 -34.166 -28.5 -44.499 -41.5s-16.5 -24.833 -18.5 -35.5c-1.33301 -12 1.66699 -22.167 9 -30.5
s18.666 -12.5 33.999 -12.5h65l-13 -86h-96z" />
    <glyph glyph-name="tilde" unicode="&#x2dc;" 
d="M428 641c-20.667 0 -36.9971 3.16797 -48.9971 9.50098s-21.667 13.833 -29 22.5s-14.5 16.167 -21.5 22.5s-15.5 9.5 -25.5 9.5c-8.66699 0 -16.334 -2.83301 -23.001 -8.5s-11 -13.834 -13 -24.501l-4 -26h-76l5 33c5.33301 32.667 19 59.167 41 79.5s48 30.5 78 30.5
c20.667 0 37 -3.16699 49 -9.5s21.5 -13.833 28.5 -22.5s14 -16.167 21 -22.5s15.5 -9.5 25.5 -9.5c9.33301 0 17.166 2.5 23.499 7.5s10.5 12.833 12.5 23.5l4 28h77l-5 -33c-5.33301 -32.667 -18.833 -59.167 -40.5 -79.5s-47.834 -30.5 -78.501 -30.5z" />
    <glyph glyph-name="hungarumlaut" unicode="&#x2dd;" 
d="M382 645l129 140h124l-137 -140h-116zM178 645l129 140h124l-137 -140h-116z" />
    <glyph glyph-name="uni02F3" unicode="&#x2f3;" 
d="M216 -256c-38 0 -67 9.5 -87 28.5s-27.667 43.833 -23 74.5c5.33301 30.667 20.833 55.5 46.5 74.5s57.5 28.5 95.5 28.5s67 -9.5 87 -28.5s27.333 -43.833 22 -74.5c-4.66699 -30.667 -20 -55.5 -46 -74.5s-57.667 -28.5 -95 -28.5zM222 -203
c18.667 0 34.3359 4.66602 47.0029 13.999s20 21.333 22 36c3.33301 16 0.166016 28.5 -9.50098 37.5s-23.834 13.5 -42.501 13.5c-18 0 -33.167 -4.66699 -45.5 -14s-19.833 -21.666 -22.5 -36.999c-2 -15.333 1.66699 -27.5 11 -36.5s22.666 -13.5 39.999 -13.5z" />
    <glyph glyph-name="uni02F7" unicode="&#x2f7;" 
d="M370 -228c-20.667 0 -37.4971 3.33301 -50.4971 10s-23.833 14.167 -32.5 22.5s-16.834 15.833 -24.501 22.5s-16.834 10 -27.501 10c-8.66699 0 -15.834 -3 -21.501 -9s-8.5 -14.333 -8.5 -25v-26h-77v33c0 32.667 9.5 59.167 28.5 79.5s43.5 30.5 73.5 30.5
c20.667 0 37.5 -3.16699 50.5 -9.5s23.833 -13.833 32.5 -22.5s16.834 -16.167 24.501 -22.5s16.834 -9.5 27.501 -9.5c9.33301 0 16.666 2.66699 21.999 8s8 13 8 23v28h77v-33c0 -32.667 -9.33301 -59.167 -28 -79.5s-43.334 -30.5 -74.001 -30.5z" />
    <glyph glyph-name="gravecomb" unicode="&#x300;" horiz-adv-x="0" 
d="M340 645l-94 140h132l85 -140h-123z" />
    <glyph glyph-name="acutecomb" unicode="&#x301;" horiz-adv-x="0" 
d="M249 645l128 140h140l-137 -140h-131z" />
    <glyph glyph-name="uni0302" unicode="&#x302;" horiz-adv-x="0" 
d="M163 645l159 140h116l115 -140h-117l-65 73l-84 -73h-124z" />
    <glyph glyph-name="tildecomb" unicode="&#x303;" horiz-adv-x="0" 
d="M428 641c-20.667 0 -36.9971 3.16797 -48.9971 9.50098s-21.667 13.833 -29 22.5s-14.5 16.167 -21.5 22.5s-15.5 9.5 -25.5 9.5c-8.66699 0 -16.334 -2.83301 -23.001 -8.5s-11 -13.834 -13 -24.501l-4 -26h-76l5 33c5.33301 32.667 19 59.167 41 79.5s48 30.5 78 30.5
c20.667 0 37 -3.16699 49 -9.5s21.5 -13.833 28.5 -22.5s14 -16.167 21 -22.5s15.5 -9.5 25.5 -9.5c9.33301 0 17.166 2.5 23.499 7.5s10.5 12.833 12.5 23.5l4 28h77l-5 -33c-5.33301 -32.667 -18.833 -59.167 -40.5 -79.5s-47.834 -30.5 -78.501 -30.5z" />
    <glyph glyph-name="uni0304" unicode="&#x304;" horiz-adv-x="0" 
d="M189 661l15 96h343l-14 -96h-344z" />
    <glyph glyph-name="uni0306" unicode="&#x306;" horiz-adv-x="0" 
d="M357 637c-52 0 -91.999 13.667 -119.999 41s-38.667 63 -32 107h96c-3.33301 -22 1 -39.667 13 -53s29.667 -20 53 -20c24 0 44 6.66699 60 20s25.667 31 29 53h99c-6.66699 -44 -28.334 -79.667 -65.001 -107s-81 -41 -133 -41z" />
    <glyph glyph-name="uni0307" unicode="&#x307;" horiz-adv-x="0" 
d="M358 642c-25.333 0 -44.332 6.5 -56.999 19.5s-17.334 30.5 -14.001 52.5c4 22 14.333 39.5 31 52.5s37.667 19.5 63 19.5c24.667 0 43.5 -6.5 56.5 -19.5s17.5 -30.5 13.5 -52.5c-3.33301 -22 -13.333 -39.5 -30 -52.5s-37.667 -19.5 -63 -19.5z" />
    <glyph glyph-name="uni0308" unicode="&#x308;" horiz-adv-x="0" 
d="M475 642c-22 0 -38.668 6.5 -50.001 19.5s-15.333 30.5 -12 52.5c4 22 13.667 39.5 29 52.5s34 19.5 56 19.5c22.667 0 39.5 -6.5 50.5 -19.5s14.833 -30.5 11.5 -52.5s-12.666 -39.5 -27.999 -52.5s-34.333 -19.5 -57 -19.5zM239.999 642
c-22 0 -38.501 6.5 -49.501 19.5s-15.167 30.5 -12.5 52.5c4 22 13.667 39.5 29 52.5s34 19.5 56 19.5c22.667 0 39.667 -6.5 51 -19.5s15 -30.5 11 -52.5c-3.33301 -22 -12.666 -39.5 -27.999 -52.5s-34.333 -19.5 -57 -19.5z" />
    <glyph glyph-name="hookabovecomb" unicode="&#x309;" horiz-adv-x="0" 
d="M301 645l59 59.998c6 6.66699 10.667 12.334 14 17.001s5.33301 9 6 13c2 12.667 -6.33301 19 -25 19h-75l12 76h105c28.667 0 50.667 -7.16699 66 -21.5s21 -34.166 17 -59.499c-1.33301 -10 -4.5 -20.167 -9.5 -30.5s-11.5 -19.5 -19.5 -27.5l-44 -46h-106z" />
    <glyph glyph-name="uni030A" unicode="&#x30a;" horiz-adv-x="0" 
d="M351 603c-39.333 0 -69.167 11.167 -89.5 33.5s-27.833 51.5 -22.5 87.5c5.33301 36.667 21.833 66.167 49.5 88.5s61.5 33.5 101.5 33.5c39.333 0 69.333 -11.167 90 -33.5s28 -51.833 22 -88.5c-5.33301 -36 -21.833 -65.167 -49.5 -87.5s-61.5 -33.5 -101.5 -33.5z
M361.999 666c18 0 33.333 5.33301 46 16s20.334 24.667 23.001 42c2.66699 18 -0.666016 32.333 -9.99902 43s-23 16 -41 16s-33.333 -5.33301 -46 -16s-20.334 -25 -23.001 -43c-2.66699 -17.333 0.666016 -31.333 9.99902 -42s23 -16 41 -16z" />
    <glyph glyph-name="uni030B" unicode="&#x30b;" horiz-adv-x="0" 
d="M382 645l129 140h124l-137 -140h-116zM178 645l129 140h124l-137 -140h-116z" />
    <glyph glyph-name="uni030C" unicode="&#x30c;" horiz-adv-x="0" 
d="M301 645l-115 140h117l65 -73l84 73h124l-159 -140h-116z" />
    <glyph glyph-name="uni030F" unicode="&#x30f;" horiz-adv-x="0" 
d="M334 645h-111l-93 140h119zM533 645h-111l-93 140h118z" />
    <glyph glyph-name="uni0312" unicode="&#x312;" horiz-adv-x="0" 
d="M525 880l-117 -235h-152l167 235h102z" />
    <glyph glyph-name="uni031B" unicode="&#x31b;" horiz-adv-x="0" 
d="M502 465l13 85h46c11.333 0 20.5 3.16699 27.5 9.5s11.5 14.833 13.5 25.5l12 75h102l-13 -77c-6 -36 -22.5 -64.667 -49.5 -86s-59.5 -32 -97.5 -32h-54z" />
    <glyph glyph-name="dotbelowcomb" unicode="&#x323;" horiz-adv-x="0" 
d="M220 -225c-24.667 0 -43.335 6.5 -56.002 19.5s-17.667 30.5 -15 52.5c4 22.667 14.5 40.5 31.5 53.5s38.167 19.5 63.5 19.5c24.667 0 43.334 -6.5 56.001 -19.5s17.334 -30.833 14.001 -53.5c-3.33301 -22 -13.5 -39.5 -30.5 -52.5s-38.167 -19.5 -63.5 -19.5z" />
    <glyph glyph-name="uni0325" unicode="&#x325;" horiz-adv-x="0" 
d="M216 -256c-38 0 -67 9.5 -87 28.5s-27.667 43.833 -23 74.5c5.33301 30.667 20.833 55.5 46.5 74.5s57.5 28.5 95.5 28.5s67 -9.5 87 -28.5s27.333 -43.833 22 -74.5c-4.66699 -30.667 -20 -55.5 -46 -74.5s-57.667 -28.5 -95 -28.5zM222 -203
c18.667 0 34.3359 4.66602 47.0029 13.999s20 21.333 22 36c3.33301 16 0.166016 28.5 -9.50098 37.5s-23.834 13.5 -42.501 13.5c-18 0 -33.167 -4.66699 -45.5 -14s-19.833 -21.666 -22.5 -36.999c-2 -15.333 1.66699 -27.5 11 -36.5s22.666 -13.5 39.999 -13.5z" />
    <glyph glyph-name="uni0326" unicode="&#x326;" horiz-adv-x="0" 
d="M99 -240l118 145h132l-134 -145h-116z" />
    <glyph glyph-name="uni0327" unicode="&#x327;" horiz-adv-x="0" 
d="M118 -216l9.99707 63.999h76c16 0 29.5 3.83301 40.5 11.5s16.833 15.834 17.5 24.501c2.66699 13.333 -5.16602 24.5 -23.499 33.5s-45.166 13.5 -80.499 13.5l50 89h66l-29 -57c18.667 -2 37.834 -6.33301 57.501 -13s35.5 -16.5 47.5 -29.5s16.333 -29.167 13 -48.5
c-3.33301 -23.333 -18.5 -43.833 -45.5 -61.5s-60.167 -26.5 -99.5 -26.5h-100z" />
    <glyph glyph-name="uni0328" unicode="&#x328;" horiz-adv-x="0" 
d="M222 -216c-38.667 0 -67.999 9.66699 -87.999 29s-27.333 44 -22 74c3.33301 22 15.166 43.667 35.499 65s48.5 41 84.5 59h81l-27 -21c-19.333 -14.667 -34.166 -28.5 -44.499 -41.5s-16.5 -24.833 -18.5 -35.5c-1.33301 -12 1.66699 -22.167 9 -30.5
s18.666 -12.5 33.999 -12.5h65l-13 -86h-96z" />
    <glyph glyph-name="uni0336" unicode="&#x336;" horiz-adv-x="0" 
d="M-631 272l15 94h660l-15 -94h-660z" />
    <glyph glyph-name="uni0338" unicode="&#x338;" horiz-adv-x="0" 
d="M63 -60l418 840h82l-418 -840h-82z" />
    <glyph glyph-name="uni0374" unicode="&#x374;" 
d="M171 409l129 311h160l-179 -311h-110z" />
    <glyph glyph-name="uni0375" unicode="&#x375;" 
d="M81 -160l129 311h160l-179 -311h-110z" />
    <glyph glyph-name="uni037E" unicode="&#x37e;" 
d="M86 -160l129 311h160l-179 -311h-110zM308 392c-24 0 -42.667 8 -56 24s-18.333 36 -15 60c4.66699 24 16.167 44 34.5 60s39.5 24 63.5 24h20c24 0 42.667 -8 56 -24s18 -36 14 -60s-15 -44 -33 -60s-39.333 -24 -64 -24h-20z" />
    <glyph glyph-name="tonos" unicode="&#x384;" 
d="M252 645l128 140h134l-136 -140h-126z" />
    <glyph glyph-name="dieresistonos" unicode="&#x385;" 
d="M325 785l98 130h109l-108 -130h-99zM475 642c-22 0 -38.668 6.5 -50.001 19.5s-15.333 30.5 -12 52.5c4 22 13.667 39.5 29 52.5s34 19.5 56 19.5c22.667 0 39.5 -6.5 50.5 -19.5s14.833 -30.5 11.5 -52.5s-12.666 -39.5 -27.999 -52.5s-34.333 -19.5 -57 -19.5z
M239.999 642c-22 0 -38.501 6.5 -49.501 19.5s-15.167 30.5 -12.5 52.5c4 22 13.667 39.5 29 52.5s34 19.5 56 19.5c22.667 0 39.667 -6.5 51 -19.5s15 -30.5 11 -52.5c-3.33301 -22 -12.666 -39.5 -27.999 -52.5s-34.333 -19.5 -57 -19.5z" />
    <glyph glyph-name="Alphatonos" unicode="&#x386;" 
d="M-9 0l300 730h161l69 -730h-124l-12 177h-194l-68 -177h-132zM229 279h149l-13 196l-5.5 88.5c-1.66699 26.333 -2.5 45.5 -2.5 57.5l-19.5 -57.5c-9 -26.333 -19.5 -55.5 -31.5 -87.5zM29 570l83 160h117l-91 -160h-109z" />
    <glyph glyph-name="anoteleia" unicode="&#x387;" 
d="M254 255c-28.667 0 -50.001 8.33301 -64.001 25s-19 39.334 -15 68.001c4.66699 28.667 16.834 51.5 36.501 68.5s43.834 25.5 72.501 25.5s50 -8.5 64 -25.5s18.667 -39.833 14 -68.5c-4 -28.667 -15.833 -51.334 -35.5 -68.001s-43.834 -25 -72.501 -25z" />
    <glyph glyph-name="Epsilontonos" unicode="&#x388;" 
d="M44 0l116 730h438l-18 -109h-314l-31 -190h280l-17 -108h-280l-34 -214h315l-17 -109h-438zM-87 570l83 160h117l-91 -160h-109z" />
    <glyph glyph-name="Etatonos" unicode="&#x389;" 
d="M-87 570l83 160h117l-91 -160h-109zM33 0l116 730h125l-47 -293h196l47 293h125l-116 -730h-125l50 321h-195l-51 -321h-125z" />
    <glyph glyph-name="Iotatonos" unicode="&#x38a;" 
d="M-87 570l83 160h117l-91 -160h-109zM46 0l18 110h147l80 510h-146l17 110h420l-18 -110h-147l-80 -510h146l-17 -110h-420z" />
    <glyph glyph-name="Omicrontonos" unicode="&#x38c;" 
d="M-55 570l83 160h117l-91 -160h-109zM254 -10c-46.667 0 -85.667 8.83203 -117 26.499s-53.666 42.667 -66.999 75s-16.666 70.5 -9.99902 114.5l50 318c7.33301 44 22.833 82.167 46.5 114.5s54 57.333 91 75s78.833 26.5 125.5 26.5
c47.333 0 86.666 -8.83301 117.999 -26.5s53.666 -42.667 66.999 -75s16.333 -70.166 9 -113.499l-50 -319c-6.66699 -44 -22 -82.167 -46 -114.5s-54.333 -57.333 -91 -75s-78.667 -26.5 -126 -26.5zM272 99.999c33.333 0 60.3311 9.16699 80.998 27.5s33.667 44.5 39 78.5
l50 318c6 34.667 1.66699 61 -13 79s-39 27 -73 27s-61.167 -9 -81.5 -27s-33.166 -44.333 -38.499 -79l-51 -318c-5.33301 -34 -0.666016 -60.167 14.001 -78.5s39 -27.5 73 -27.5z" />
    <glyph glyph-name="Upsilontonos" unicode="&#x38e;" 
d="M-114 570l83 160h117l-91 -160h-109zM193 0l42.001 265l-140 465h128l73 -253c5.33301 -20 9.66602 -39.667 12.999 -59s5.33301 -34.333 6 -45c4 10.667 10.333 25.667 19 45s18.667 39 30 59l152 253h133l-289 -465l-41 -265h-126z" />
    <glyph glyph-name="Omegatonos" unicode="&#x38f;" 
d="M6 0l17.999 115.001h145l1 5c-18.667 2 -37.334 8.83301 -56.001 20.5s-33.334 29 -44.001 52s-13.334 52.167 -8.00098 87.5l38 240c7.33301 44.667 23.333 83.334 48 116.001s56.334 58.167 95.001 76.5s82 27.5 130 27.5c48.667 0 89.334 -9.16699 122.001 -27.5
s56.334 -43.833 71.001 -76.5s18.334 -71.334 11.001 -116.001l-38 -240c-5.33301 -35.333 -17 -64.333 -35 -87s-38.333 -39.834 -61 -51.501s-43.667 -18.5 -63 -20.5l-1 -6h146l-18 -115h-211l28 180c22 0 41.333 8.83301 58 26.5s27 40.5 31 68.5l39 245
c5.33301 34 -0.666992 61 -18 81s-43.333 30 -78 30c-34 0 -63 -10 -87 -30s-38.667 -47 -44 -81l-39 -245c-4 -28 -0.833008 -50.833 9.5 -68.5s26.5 -26.5 48.5 -26.5l-28 -180h-210zM-55.001 570.001l83 160h117l-91 -160h-109z" />
    <glyph glyph-name="iotadieresistonos" unicode="&#x390;" 
d="M373 0c-54 0 -94.833 16.333 -122.5 49s-37.5 75.667 -29.5 129l41 259h-190l17 113h316l-59 -372c-2.66699 -20 0.833008 -35.833 10.5 -47.5s24.167 -17.5 43.5 -17.5h130l-18 -113h-139zM325 785l98 130h109l-108 -130h-99zM475 642c-22 0 -38.668 6.5 -50.001 19.5
s-15.333 30.5 -12 52.5c4 22 13.667 39.5 29 52.5s34 19.5 56 19.5c22.667 0 39.5 -6.5 50.5 -19.5s14.833 -30.5 11.5 -52.5s-12.666 -39.5 -27.999 -52.5s-34.333 -19.5 -57 -19.5zM239.999 642c-22 0 -38.501 6.5 -49.501 19.5s-15.167 30.5 -12.5 52.5
c4 22 13.667 39.5 29 52.5s34 19.5 56 19.5c22.667 0 39.667 -6.5 51 -19.5s15 -30.5 11 -52.5c-3.33301 -22 -12.666 -39.5 -27.999 -52.5s-34.333 -19.5 -57 -19.5z" />
    <glyph glyph-name="Alpha" unicode="&#x391;" 
d="M-9 0l300 730h161l69 -730h-124l-12 177h-194l-68 -177h-132zM229 279h149l-13 196l-5.5 88.5c-1.66699 26.333 -2.5 45.5 -2.5 57.5l-19.5 -57.5c-9 -26.333 -19.5 -55.5 -31.5 -87.5z" />
    <glyph glyph-name="Beta" unicode="&#x392;" 
d="M33 0l116.005 730.001h224c70.667 0 124 -16.833 160 -50.5s49.333 -79.5 40 -137.5c-4.66699 -32.667 -16.334 -61 -35.001 -85s-41.667 -42.667 -69 -56s-57 -20 -89 -20v4c35.333 0.666992 65.666 -5.83301 90.999 -19.5s44.166 -33.834 56.499 -60.501
s15.166 -59 8.49902 -97c-6.66699 -42 -22 -78.667 -46 -110s-54.833 -55.5 -92.5 -72.5s-80.834 -25.5 -129.501 -25.5h-235zM171.005 104.001h106.002c36.667 0 67 9.83301 91 29.5s38.667 46.5 44 80.5s-0.833984 61.5 -18.501 82.5s-44.834 31.5 -81.501 31.5h-106z
M222.007 429.001l100.998 -0.000976562c33.333 0 60.833 8.83301 82.5 26.5s35.167 41.834 40.5 72.501c4.66699 30.667 -1.16602 54.667 -17.499 72s-41.166 26 -74.499 26h-101z" />
    <glyph glyph-name="Gamma" unicode="&#x393;" 
d="M57 0l116 730h437l-19 -116h-312l-97 -614h-125z" />
    <glyph glyph-name="uni0394" unicode="&#x394;" 
d="M-9 0l300 730h161l69 -730h-530zM162 109l226.001 0.000976562l-26 366c-1.33301 26 -2.83301 52.667 -4.5 80s-2.83398 48.666 -3.50098 63.999c-4.66699 -15.333 -11.667 -36.5 -21 -63.5s-19 -53.5 -29 -79.5z" />
    <glyph glyph-name="Epsilon" unicode="&#x395;" 
d="M44 0l116 730h438l-18 -109h-314l-31 -190h280l-17 -108h-280l-34 -214h315l-17 -109h-438z" />
    <glyph glyph-name="Zeta" unicode="&#x396;" 
d="M36 0l18 119l368 495h-283l19 116h424l-19 -119l-368 -495h300l-18 -116h-441z" />
    <glyph glyph-name="Eta" unicode="&#x397;" 
d="M33 0l116 730h125l-47 -293h196l47 293h125l-116 -730h-125l50 321h-195l-51 -321h-125z" />
    <glyph glyph-name="Theta" unicode="&#x398;" 
d="M229 318l18 116h156l-18 -116h-156zM254 -10c-46.667 0 -85.667 8.83203 -117 26.499s-53.666 42.667 -66.999 75s-16.666 70.5 -9.99902 114.5l50 318c7.33301 44 22.833 82.167 46.5 114.5s54 57.333 91 75s78.833 26.5 125.5 26.5
c47.333 0 86.666 -8.83301 117.999 -26.5s53.666 -42.667 66.999 -75s16.333 -70.166 9 -113.499l-50 -319c-6.66699 -44 -22 -82.167 -46 -114.5s-54.333 -57.333 -91 -75s-78.667 -26.5 -126 -26.5zM272 99.999c33.333 0 60.3311 9.16699 80.998 27.5s33.667 44.5 39 78.5
l50 318c6 34.667 1.66699 61 -13 79s-39 27 -73 27s-61.167 -9 -81.5 -27s-33.166 -44.333 -38.499 -79l-51 -318c-5.33301 -34 -0.666016 -60.167 14.001 -78.5s39 -27.5 73 -27.5z" />
    <glyph glyph-name="Iota" unicode="&#x399;" 
d="M46 0l18 110h147l80 510h-146l17 110h420l-18 -110h-147l-80 -510h146l-17 -110h-420z" />
    <glyph glyph-name="Kappa" unicode="&#x39a;" 
d="M32 0l116 730h125l-47 -295h84l186 295h137l-222 -356l114 -374h-135l-92 321h-90l-51 -321h-125z" />
    <glyph glyph-name="Lambda" unicode="&#x39b;" 
d="M-9 0l300 730h161l69 -730h-125l-33 475l-4 69c-1.33301 22 -2.33301 40 -3 54l-1 21l-6.5 -21c-4.33301 -14 -10.333 -32 -18 -54s-16.167 -44.667 -25.5 -68l-183 -476h-131z" />
    <glyph glyph-name="Mu" unicode="&#x39c;" 
d="M12 0l116 729.999h145l34 -232c3.33301 -23.333 5.83301 -44.666 7.5 -63.999s2.5 -33.333 2.5 -42l16 42c7.33301 19.333 16.333 40.666 27 63.999l105 232h151l-116 -730h-117l36 227c6 34.667 13 71.5 21 110.5s16.5 78.167 25.5 117.5l26.5 111.5
c8.66699 35 16.667 65.833 24 92.5l-152 -345h-114l-47 345c-0.666992 -25.333 -2 -55.166 -4 -89.499s-4.5 -71 -7.5 -110s-6.66699 -78.5 -11 -118.5s-9.5 -78 -15.5 -114l-36 -227h-117z" />
    <glyph glyph-name="Nu" unicode="&#x39d;" 
d="M28 0l116.001 729.999h151l111 -590c2 21.333 4.16699 46.5 6.5 75.5s5.16602 58.667 8.49902 89s6.66602 56.833 9.99902 79.5l55 346h114l-116 -730h-151l-110 590c-1.33301 -19.333 -3.16602 -42.666 -5.49902 -69.999s-5 -55.333 -8 -84s-6.5 -55 -10.5 -79l-57 -357
h-114z" />
    </font>
</defs>
</svg>
